<svg xmlns="http://www.w3.org/2000/svg" viewBox="-4 -4 24 24">
    <defs>
        <linearGradient id="a">
            <stop stop-color="#171717"/>
            <stop offset="1" stop-color="#6a6a6a"/>
        </linearGradient>
    </defs>
    <path d="M5.713 16a1 1 0 0 0-.664-1.748l1.467-1.3c-1.714-.563-3.414-1.559-4.682-3.24C.073 7.374-.719 3.987 1.117.531a1 1 0 0 0 1.87.298c.366 2.126 1.817 3.994 3.652 5.328 1.729 1.258 3.755 1.943 5.265 2.018l2.432-2.16A1 1 0 0 0 16 6.764V15a1 1 0 0 0-1 1z" fill="#333" fill-rule="evenodd"/>
    <path d="M5.713 15H15V6.764l-2.786 2.472C8.548 9.252 2.85 5.916 2 1c-3.323 6.254 2.846 11.528 6.499 11.53z" fill="#f1f2f2" fill-rule="evenodd"/>
</svg>
