<?xml version="1.0" encoding="UTF-8" standalone="no"?>
<svg
   xmlns:dc="http://purl.org/dc/elements/1.1/"
   xmlns:cc="http://creativecommons.org/ns#"
   xmlns:rdf="http://www.w3.org/1999/02/22-rdf-syntax-ns#"
   xmlns:svg="http://www.w3.org/2000/svg"
   xmlns="http://www.w3.org/2000/svg"
   xmlns:sodipodi="http://sodipodi.sourceforge.net/DTD/sodipodi-0.dtd"
   xmlns:inkscape="http://www.inkscape.org/namespaces/inkscape"
   width="16"
   version="1.1"
   id="svg7384"
   height="16"
   sodipodi:docname="emblem-videos.svg"
   inkscape:version="0.92.1 r15371">
  <sodipodi:namedview
     pagecolor="#ffffff"
     bordercolor="#666666"
     borderopacity="1"
     objecttolerance="10"
     gridtolerance="10"
     guidetolerance="10"
     inkscape:pageopacity="0"
     inkscape:pageshadow="2"
     inkscape:window-width="1864"
     inkscape:window-height="843"
     id="namedview17"
     showgrid="true"
     inkscape:zoom="14.75"
     inkscape:cx="7.0169492"
     inkscape:cy="8"
     inkscape:window-x="0"
     inkscape:window-y="22"
     inkscape:window-maximized="0"
     inkscape:current-layer="svg7384">
    <inkscape:grid
       type="xygrid"
       id="grid4501" />
  </sodipodi:namedview>
  <metadata
     id="metadata90">
    <rdf:RDF>
      <cc:Work
         rdf:about="">
        <dc:format>image/svg+xml</dc:format>
        <dc:type
           rdf:resource="http://purl.org/dc/dcmitype/StillImage" />
        <dc:title>Gnome Symbolic Icon Theme</dc:title>
      </cc:Work>
    </rdf:RDF>
  </metadata>
  <title
     id="title9167">Gnome Symbolic Icon Theme</title>
  <defs
     id="defs7386" />
  <g
     id="g4499"
     style="display:inline;fill:#cc0000"
     transform="translate(-561,-381)">
    <path
       sodipodi:type="inkscape:offset"
       inkscape:radius="1.0004882"
       inkscape:original="M 2.03125 4 C 1.47736 4 1.03125 4.446 1.03125 5 L 1.03125 12 C 1.03125 12.554 1.47736 13 2.03125 13 L 10 13 C 10.55389 13 11 12.554 11 12 L 11 8.46875 L 11 5 C 11 4.446 10.55389 4 10 4 L 2.03125 4 z M 11 8.46875 L 14.5 12 L 15 12 L 15 5 L 14.46875 5 L 11 8.46875 z "
       style="color:#f1f2f2;display:inline;overflow:visible;visibility:visible;fill:#333333;fill-opacity:1;stroke:none;stroke-width:1;marker:none"
       id="path4495"
       d="m 2.03125,3 c -1.0909614,0 -2,0.9089028 -2,2 v 7 c 0,1.091097 0.9090386,2 2,2 H 10 c 1.090961,0 2,-0.908903 2,-2 v -1.099609 l 1.789062,1.804687 A 1.0005882,1.0005882 0 0 0 14.5,13 H 15 a 1.0005882,1.0005882 0 0 0 1,-1 V 5 A 1.0005882,1.0005882 0 0 0 15,4 H 14.46875 A 1.0005882,1.0005882 0 0 0 13.761719,4.2929688 L 12,6.0546875 V 5 C 12,3.9089028 11.090961,3 10,3 Z"
       transform="translate(561,381)" />
  </g>
  <g
     transform="translate(-561,-381)"
     style="display:inline"
     id="layer15">
    <path
       id="rect5538"
       d="m 563.03105,385 h 7.96915 c 0.55389,0 0.9998,0.446 0.9998,1 v 7 c 0,0.554 -0.44591,1 -0.9998,1 h -7.96915 c -0.55389,0 -0.9998,-0.446 -0.9998,-1 v -7 c 0,-0.554 0.44591,-1 0.9998,-1 z"
       style="color:#f1f2f2;display:inline;overflow:visible;visibility:visible;fill:#f1f2f2;fill-opacity:1;stroke:none;stroke-width:1;marker:none" />
    <path
       style="color:#f1f2f2;display:inline;overflow:visible;visibility:visible;fill:#f1f2f2;fill-opacity:1;stroke:none;stroke-width:1;marker:none"
       id="path5540"
       d="M 572,389.4693 575.46929,386 h 0.53091 v 7 h -0.5 z" />
  </g>
  <g
     transform="translate(-561,-381)"
     style="display:inline"
     id="layer9" />
  <g
     transform="translate(-561,-381)"
     style="display:inline"
     id="layer10" />
  <g
     transform="translate(-561,-381)"
     id="layer11" />
  <g
     transform="translate(-561,-381)"
     style="display:inline"
     id="layer13" />
  <g
     transform="translate(-561,-381)"
     id="layer14" />
  <g
     transform="translate(-561,-381)"
     style="display:inline"
     id="g71291" />
  <g
     transform="translate(-561,-381)"
     style="display:inline"
     id="g4953" />
  <g
     transform="translate(-561,-381)"
     style="display:inline"
     id="layer12" />
</svg>
