<?xml version="1.0" encoding="UTF-8" standalone="no"?>
<svg
   xmlns:dc="http://purl.org/dc/elements/1.1/"
   xmlns:cc="http://creativecommons.org/ns#"
   xmlns:rdf="http://www.w3.org/1999/02/22-rdf-syntax-ns#"
   xmlns:svg="http://www.w3.org/2000/svg"
   xmlns="http://www.w3.org/2000/svg"
   xmlns:sodipodi="http://sodipodi.sourceforge.net/DTD/sodipodi-0.dtd"
   xmlns:inkscape="http://www.inkscape.org/namespaces/inkscape"
   width="16"
   height="16"
   version="1.1"
   id="svg7384"
   sodipodi:docname="emblem-default.svg"
   inkscape:version="0.92.1 r15371">
  <sodipodi:namedview
     pagecolor="#ffffff"
     bordercolor="#666666"
     borderopacity="1"
     objecttolerance="10"
     gridtolerance="10"
     guidetolerance="10"
     inkscape:pageopacity="0"
     inkscape:pageshadow="2"
     inkscape:window-width="2560"
     inkscape:window-height="1034"
     id="namedview16"
     showgrid="true"
     inkscape:zoom="14.75"
     inkscape:cx="-29.186441"
     inkscape:cy="8"
     inkscape:window-x="0"
     inkscape:window-y="22"
     inkscape:window-maximized="1"
     inkscape:current-layer="svg7384">
    <inkscape:grid
       type="xygrid"
       id="grid4493" />
  </sodipodi:namedview>
  <metadata
     id="metadata90">
    <rdf:RDF>
      <cc:Work
         rdf:about="">
        <dc:format>image/svg+xml</dc:format>
        <dc:type
           rdf:resource="http://purl.org/dc/dcmitype/StillImage" />
        <dc:title>Gnome Symbolic Icon Theme</dc:title>
      </cc:Work>
    </rdf:RDF>
  </metadata>
  <title
     id="title9167">Gnome Symbolic Icon Theme</title>
  <defs
     id="defs7386" />
  <g
     style="display:inline"
     id="layer9"
     transform="translate(-482,-381.99998)" />
  <g
     id="layer10"
     transform="translate(-482,-381.99998)" />
  <g
     id="layer11"
     transform="translate(-482,-381.99998)" />
  <g
     id="layer12"
     transform="translate(-482,-381.99998)" />
  <g
     id="layer13"
     transform="translate(-482,-381.99998)" />
  <g
     id="layer14"
     transform="translate(-482,-381.99998)" />
  <g
     transform="translate(-482,-381.99998)"
     id="g4499"
     style="display:inline;fill:#333333;fill-opacity:1">
    <path
       sodipodi:type="inkscape:offset"
       inkscape:radius="1.0006378"
       inkscape:original="M 490.03516 383 C 486.1963 383 483.09375 386.1349 483.09375 390 C 483.09375 393.8651 486.1963 397 490.03516 397 C 493.87401 397 497.00586 393.8651 497.00586 390 C 497.00586 389.61115 496.9512 389.23487 496.89062 388.86328 L 490.45703 394.62695 L 486.40234 390.57031 L 488.5293 388.48438 L 490.45703 390.54492 L 495.51953 385.68359 C 494.24725 384.04677 492.25955 383 490.03516 383 z "
       style="display:inline;fill:#333333;fill-opacity:1;fill-rule:evenodd;stroke:none"
       id="path4497"
       d="m 490.03516,382 c -4.38363,0 -7.94141,3.59942 -7.94141,8 0,4.40058 3.55778,8 7.94141,8 4.38361,0 7.9707,-3.59436 7.9707,-8 0,-0.48262 -0.0645,-0.91375 -0.12695,-1.29688 a 1.0007378,1.0007378 0 0 0 -1.65625,-0.58593 l -5.72852,5.13281 -2.66992,-2.67188 0.67578,-0.6621 1.22656,1.3125 a 1.0007378,1.0007378 0 0 0 1.42383,0.0391 l 5.0625,-4.86133 a 1.0007378,1.0007378 0 0 0 0.0977,-1.33594 C 494.85521,383.19799 492.57347,382 490.03516,382 Z" />
    <g
       transform="translate(135.8093,-581.17812)"
       id="g4495"
       style="fill:#333333;fill-opacity:1" />
  </g>
  <g
     style="display:inline"
     id="layer15"
     transform="translate(-482,-381.99998)">
    <g
       id="g17779"
       transform="translate(135.8093,-581.17812)" />
    <path
       style="display:inline;fill:#f1f2f2;fill-opacity:1;fill-rule:evenodd;stroke:none"
       id="path74"
       d="m 490.03562,383 c -3.83886,0 -6.94167,3.1349 -6.94167,7 0,3.8651 3.10281,7 6.94167,7 3.83885,0 6.97083,-3.1349 6.97083,-7 0,-0.38885 -0.0561,-0.76591 -0.11667,-1.1375 l -6.43347,5.76353 -4.05327,-4.05506 2.12561,-2.08587 1.92855,2.05936 5.06175,-4.86113 C 494.24667,384.04651 492.26001,383 490.03562,383 Z" />
  </g>
  <g
     style="display:inline"
     id="g4953"
     transform="translate(-482,-381.99998)" />
</svg>
