<?xml version="1.0" encoding="UTF-8" standalone="no"?>
<svg
   xmlns:dc="http://purl.org/dc/elements/1.1/"
   xmlns:cc="http://creativecommons.org/ns#"
   xmlns:rdf="http://www.w3.org/1999/02/22-rdf-syntax-ns#"
   xmlns:svg="http://www.w3.org/2000/svg"
   xmlns="http://www.w3.org/2000/svg"
   xmlns:sodipodi="http://sodipodi.sourceforge.net/DTD/sodipodi-0.dtd"
   xmlns:inkscape="http://www.inkscape.org/namespaces/inkscape"
   width="16"
   version="1.1"
   id="svg7384"
   height="16"
   sodipodi:docname="emblem-favorite.svg"
   inkscape:version="0.92.1 r15371">
  <sodipodi:namedview
     pagecolor="#ffffff"
     bordercolor="#666666"
     borderopacity="1"
     objecttolerance="10"
     gridtolerance="10"
     guidetolerance="10"
     inkscape:pageopacity="0"
     inkscape:pageshadow="2"
     inkscape:window-width="2560"
     inkscape:window-height="1034"
     id="namedview16"
     showgrid="true"
     inkscape:zoom="14.75"
     inkscape:cx="-29.186441"
     inkscape:cy="8"
     inkscape:window-x="0"
     inkscape:window-y="22"
     inkscape:window-maximized="1"
     inkscape:current-layer="svg7384">
    <inkscape:grid
       type="xygrid"
       id="grid4497" />
  </sodipodi:namedview>
  <metadata
     id="metadata90">
    <rdf:RDF>
      <cc:Work
         rdf:about="">
        <dc:format>image/svg+xml</dc:format>
        <dc:type
           rdf:resource="http://purl.org/dc/dcmitype/StillImage" />
        <dc:title>Gnome Symbolic Icon Theme</dc:title>
      </cc:Work>
    </rdf:RDF>
  </metadata>
  <title
     id="title9167">Gnome Symbolic Icon Theme</title>
  <defs
     id="defs7386" />
  <g
     id="g4495"
     style="display:inline"
     transform="translate(-441.00021,-381)">
    <path
       sodipodi:type="inkscape:offset"
       inkscape:radius="1.1416022"
       inkscape:original="M 445.76953 383.00977 C 443.6877 383.00977 442 384.69067 442 386.76562 C 442 387.8453 442.45769 388.81864 443.18945 389.50391 L 448.91406 395 L 454.81055 389.50391 C 455.54241 388.81874 456 387.8454 456 386.76562 C 456 384.69067 454.3123 383.00977 452.23047 383.00977 C 450.85915 383.00977 449.65942 383.73874 449 384.83008 C 448.34058 383.73873 447.14085 383.00977 445.76953 383.00977 z "
       style="display:inline;fill:#323232;fill-opacity:1;stroke:none;enable-background:new"
       id="path4493"
       d="m 445.76953,381.86914 c -2.69633,0 -4.91211,2.20251 -4.91211,4.89648 0,1.40174 0.59938,2.67878 1.55078,3.57032 3.9e-4,3.6e-4 -3.8e-4,0.002 0,0.002 l 5.71485,5.48633 a 1.1417163,1.1417163 0 0 0 1.57031,0.0117 l 5.89648,-5.4961 a 1.1417163,1.1417163 0 0 0 0,-0.002 c 0.95232,-0.89157 1.55274,-2.16996 1.55274,-3.57227 0,-2.69397 -2.21578,-4.89648 -4.91211,-4.89648 -1.28309,0 -2.35198,0.6045 -3.23047,1.41602 -0.87849,-0.81153 -1.94739,-1.41602 -3.23047,-1.41602 z" />
  </g>
  <g
     transform="translate(-441.00021,-381)"
     style="display:inline"
     id="layer9" />
  <g
     transform="translate(-441.00021,-381)"
     style="display:inline"
     id="layer10" />
  <g
     transform="translate(-441.00021,-381)"
     id="layer11" />
  <g
     transform="translate(-441.00021,-381)"
     style="display:inline"
     id="layer13" />
  <g
     transform="translate(-441.00021,-381)"
     id="layer14" />
  <g
     transform="translate(-441.00021,-381)"
     style="display:inline"
     id="layer15">
    <path
       style="display:inline;fill:#f1f2f2;fill-opacity:1;stroke:none;enable-background:new"
       id="path4"
       d="m 456.0002,386.76617 c 0,-2.07495 -1.68742,-3.75698 -3.76925,-3.75698 -1.37132,0 -2.57123,0.73006 -3.23065,1.8214 -0.65942,-1.09135 -1.85953,-1.8214 -3.23085,-1.8214 -2.08183,0 -3.76925,1.68203 -3.76925,3.75698 0,1.07968 0.45777,2.05239 1.18953,2.73766 h -10e-4 l 5.72506,5.49617 5.89867,-5.49617 h -0.002 c 0.73186,-0.68517 1.18933,-1.65788 1.18933,-2.73766" />
  </g>
  <g
     transform="translate(-441.00021,-381)"
     style="display:inline"
     id="g71291" />
  <g
     transform="translate(-441.00021,-381)"
     style="display:inline"
     id="g4953" />
  <g
     transform="translate(-441.00021,-381)"
     style="display:inline"
     id="layer12" />
</svg>
