<svg xmlns="http://www.w3.org/2000/svg" version="1.1" viewBox="-2 -2 22 22"><path d="m2.334 1c-0.7387 0-1.334 0.5953-1.334 1.334v11.332c0 0.739 0.5953 1.334 1.334 1.334h11.332c0.739 0 1.334-0.595 1.334-1.334v-11.332c0-0.7387-0.595-1.334-1.334-1.334h-11.332zm10.717 2.6836c-1.334 2.8333-0.001 0.0015-1.401 2.8437-0.412 0.527-1.025 1.0905-1.732 1.6719 0.304 0.6535 0.645 1.2257 1.115 1.5391 0.816 0.5437 1.422 0.0955 2.987-0.8985-1.658 2.5212-0.051 0.111-1.635 2.5352-0.552 0.401-1.563 0.703-2.02 0.588-0.6406-0.117-1.3441-0.989-1.8591-1.852-0.1079-0.1804-0.2048-0.3857-0.3047-0.5856-0.4108 0.2996-0.8311 0.5986-1.2598 0.9026-0.9189 0.64-1.7271 1.047-2.9082 1.396-0.7069 0.21-1.7485 0.405-1.9766-0.506-0.2374-0.949 0.3292-2.4128 0.4473-2.7301 0.891-2.3926 2.2223-4.8767 4.5488-4.5078 1.2513 0.1986 1.8306 1.6197 2.3946 3.0215 0.8697-0.8108 1.9347-1.8799 3.6037-3.418zm-7.2522 2.2617c-0.3198 0.011-0.6663 0.2193-1.08 0.5723-0.4091 0.3495-0.6904 0.9463-1 1.6191-0.3334 0.8095-0.6293 1.3145 0.666 1.6192 1.0193 0.1066 1.3139-0.0788 2.666-0.8106 0.2376-0.1353 0.4599-0.2763 0.6758-0.4238-0.3205-0.7206-0.6369-1.4374-1.0098-1.9668-0.3064-0.4349-0.5981-0.6204-0.918-0.6094z" stroke-width=".33333" fill="#f1f2f2"/><g style="enable-background:new" transform="matrix(.46233 0 0 .56139 44.758 -66.801)"></g></svg>
