<svg xmlns="http://www.w3.org/2000/svg" version="1" viewBox="-2 -2 22 22"><path style="color-rendering:auto;text-decoration-color:#000000;color:#000000;font-variant-numeric:normal;shape-rendering:auto;font-variant-ligatures:normal;text-decoration-line:none;font-variant-position:normal;mix-blend-mode:normal;solid-color:#000000;font-feature-settings:normal;shape-padding:0;font-variant-alternates:normal;text-indent:0;dominant-baseline:auto;font-variant-caps:normal;image-rendering:auto;white-space:normal;text-decoration-style:solid;text-orientation:mixed;isolation:auto;text-transform:none" d="m7.7188 0.066406c-2.4848 0.089124-4.9362 1.2444-6.3184 3.4395v0.00195c-3.0894 4.171-0.77554 10.804 4.2383 12.15 4.8923 1.715 10.545-2.443 10.355-7.6287a0.50005 0.50005 0 0 0 0 -0.011719c-0.0016-1.8027-0.60973-3.5514-1.7285-4.9648a0.50005 0.50005 0 0 0 -0.02344 -0.027344l0.01953 0.025391c-1.49-2.03-3.916-2.971-6.3314-2.9454a0.50005 0.50005 0 0 0 -0.2109 -0.039094zm0.0312 0.99999a0.50005 0.50005 0 0 0 0.00391 0c2.2009-0.078871 4.3891 0.78735 5.7012 2.5762a0.50005 0.50005 0 0 0 0.02148 0.025391c0.0015 0.00182 0.0024 0.00405 0.0039 0.00586 0.97926 1.2372 1.5123 2.7678 1.5137 4.3457l0.002-0.011719c-0.000318 0.014592-0.000318 0.03033 0 0.044922a0.50005 0.50005 0 0 0 0 0.00781c0.16765 4.4308-4.8463 8.1189-9.0254 6.6543-0.022309-0.008-0.043584-0.01504-0.066406-0.02149a0.50005 0.50005 0 0 0 -0.00586 -0.002c-4.2815-1.149-6.3323-7.0283-3.6932-10.589a0.50005 0.50005 0 0 0 0.00195 -0.00195c0.014368-0.019603 0.028107-0.039955 0.041016-0.060547 1.1812-1.8763 3.3041-2.8932 5.502-2.9731z" fill="#f1f2f2"/><path fill="#f1f2f2" d="m3.9824 4.002c-0.5514 0.029-1.1866 0.9462-0.9179 1.1308l2.0449 1.834-1.1602 1.0937-0.9492-0.1914 0.4102 1.0469c1.242-0.27 2.9647 1.29 3.4257 1.813 0.452 0.514 1.5598 3.08 1.8848 4.73 0.0383 0.185 0.0906 0.347 0.1445 0.506a8 8 0 0 0 6.6348 -5.19c-0.005-0.005-0.051-0.068-0.051-0.068l-1.51-1.082 1.139-2.6582c-0.53 0.145-3.533-1.0865-3.18-0.8945l-0.904 0.4824-0.974-0.5547-1.9009 0.0781-3.9082-2.0293c-0.0725-0.0368-0.1497-0.051-0.2285-0.0468z"/></svg>
