<svg xmlns="http://www.w3.org/2000/svg" version="1.1" viewBox="-2 -2 22 22"><path d="m8.35 2c-2.718 0-4.19 0.56-5.295 1.173-0.566 0.322-1.384 1.082-1.837 2.836-0.113 0.438-0.142 0.553-0.17 0.991h5.122c0.056-0.321 0.084-0.202 0.14-0.378 0.369-0.818 1.19-0.589 1.955-0.589 1.077 0 1.2-0.083 1.511 0.356 0.713 0.979-0.09 1.612-1.161 1.812-0.539 0.117-0.576 0.175-1.114 0.234-1.728 0.204-4.278 0.439-5.807 1.579-1.444 1.052-1.694 2.806-1.694 3.478 0 0.182 0.011 0.349 0.026 0.508h6.132a1.432 1.432 0 0 1 -0.073 -0.128c-0.113-0.205-0.142-0.41-0.17-0.643 0-0.322 0.114-0.585 0.17-0.673 0.284-0.526 0.737-0.73 1.842-0.964 1.444-0.263 1.33-0.528 2.124-0.966v3.374h5.947v-6.851c0-0.497 0.085-1.842-0.934-3.07-1.076-1.286-3.258-2.079-6.714-2.079z" fill="#f1f2f2"/></svg>
