<svg xmlns="http://www.w3.org/2000/svg" viewBox="0 0 16.002 16"><path d="M.47 0a.48.48 0 0 0-.469.469V12.53c0 .258.21.468.469.468h5.75a5.414 5.414 0 0 1-.219-1.5 5.5 5.5 0 0 1 5.5-5.5c.898 0 1.752.213 2.5.594V4.468c0-.25-.218-.437-.469-.437L13.502 4h-11.5v6.5c0 .269-.231.5-.5.5s-.5-.231-.5-.5v-7c0-.31.153-.5.5-.5h10.5v-.5a.49.49 0 0 0-.5-.5h-6.5V.468a.48.48 0 0 0-.47-.469H.47zm11.312 7a4.53 4.53 0 0 0-4.625 3.344 4.491 4.491 0 0 0 3.188 5.5 4.491 4.491 0 0 0 5.5-3.188c.057-.214.1-.438.125-.655h-4.49l.53-4.98a3.196 3.196 0 0 0-.228-.02z" fill="#f1f2f2"/></svg>