<?xml version="1.0" encoding="UTF-8" standalone="no"?>
<svg id="svg7384" xmlns="http://www.w3.org/2000/svg" viewBox="-3 -3 22 22" version="1.1"><title id="title9167">Gnome Symbolic Icon Theme</title><path id="path4597-1" style="color:#bebebe;fill:#f1f2f2;text-transform:none;text-indent:0" d="m8 1c-3.1532 0-5.8195 2.1257-6.6875 5h2.0937c0.7734-1.765 2.5382-3 4.5938-3 2.056 0 3.82 1.235 4.594 3h0.808c-0.227 0.0287-0.532 0.0313-0.97 0.0312h-1.438c-0.513 0.0001-0.975 0.4581-0.994 0.9688h1 4 0.994v-3.9688c0.006-0.0622 0.006-0.1251 0-0.1874v-0.8126h-0.812c-0.092-0.0236-0.187-0.0342-0.282-0.0312-0.042 0.008-0.084 0.0182-0.125 0.0312-0.447 0.1002-0.792 0.542-0.781 1v1.4395c-1.217-2.0615-3.437-3.4707-5.994-3.4707zm-8 7v1 4c-0.006 0.062-0.006 0.125 0 0.188v0.812h0.8125c0.0916 0.024 0.18665 0.034 0.2813 0.031 0.0422-0.008 0.084-0.018 0.125-0.031 0.4471-0.1 0.7922-0.542 0.7812-1v-1.482c1.0542 1.793 2.8668 3.092 5 3.406v-2.037c-1.6117-0.328-2.9448-1.415-3.5898-2.881 0.0632 0 0.0909-0.004 0.1601-0.004h1.4375c0.5236 0 1-0.4765 1-1 0.008-0.0726 0.008-0.1462 0-0.2188v-0.7812l-6.0078-0.002z"/><path id="path4538" style="color:#f1f2f2;fill:#ff6600" d="m8.875 8.062a0.86 0.86 0 0 0 -0.875 0.866v6.195a0.86 0.86 0 0 0 0.875 0.868h6.25a0.86 0.86 0 0 0 0.875 -0.868v-6.194a0.86 0.86 0 0 0 -0.875 -0.868zm2.125 0.99h2v3.966h-2zm0 4.957h2v0.991h-2z" class="warning" overflow="visible"/></svg>
