<?xml version="1.0" encoding="UTF-8" standalone="no"?>
<svg
   xmlns:dc="http://purl.org/dc/elements/1.1/"
   xmlns:cc="http://creativecommons.org/ns#"
   xmlns:rdf="http://www.w3.org/1999/02/22-rdf-syntax-ns#"
   xmlns:svg="http://www.w3.org/2000/svg"
   xmlns="http://www.w3.org/2000/svg"
   xmlns:sodipodi="http://sodipodi.sourceforge.net/DTD/sodipodi-0.dtd"
   xmlns:inkscape="http://www.inkscape.org/namespaces/inkscape"
   viewBox="-2 -2 22 22"
   version="1.1"
   id="svg8"
   sodipodi:docname="call-missed.svg"
   inkscape:version="0.92.1 r15371">
  <metadata
     id="metadata14">
    <rdf:RDF>
      <cc:Work
         rdf:about="">
        <dc:format>image/svg+xml</dc:format>
        <dc:type
           rdf:resource="http://purl.org/dc/dcmitype/StillImage" />
        <dc:title></dc:title>
      </cc:Work>
    </rdf:RDF>
  </metadata>
  <defs
     id="defs12" />
  <sodipodi:namedview
     pagecolor="#ffffff"
     bordercolor="#666666"
     borderopacity="1"
     objecttolerance="10"
     gridtolerance="10"
     guidetolerance="10"
     inkscape:pageopacity="0"
     inkscape:pageshadow="2"
     inkscape:window-width="951"
     inkscape:window-height="480"
     id="namedview10"
     showgrid="false"
     inkscape:zoom="14.75"
     inkscape:cx="8"
     inkscape:cy="8"
     inkscape:window-x="0"
     inkscape:window-y="22"
     inkscape:window-maximized="0"
     inkscape:current-layer="g6" />
  <g
     fill="#f1f2f2"
     id="g6">
    <path
       style="line-height:normal;-inkscape-font-specification:Sans;text-indent:0;text-align:start;text-decoration-line:none;text-transform:none;marker:none;fill:#ff6600;opacity:1"
       d="M8.997 0v.781a1.001 1.001 0 0 0 1.031 1.22h.594L8.059 4.562 5.684 2.28A1.005 1.005 0 0 0 4.966 2h-.969v.75a1.005 1.005 0 0 0 0 .093 1.005 1.005 0 0 0 .281.875l3.094 2.969.687.687.72-.687 3.218-3.25V4a1 1 0 0 0 1 1h1v-.844a1 1 0 0 0 0-.156V0h-3.969a1 1 0 0 0-.031 0z"
       color="#f1f2f2"
       font-weight="400"
       font-size="xx-small"
       font-family="Sans"
       overflow="visible"
       opacity=".5"
       id="path2" />
    <path
       d="M.266 13.713c-.344-.343-.349-1.075 0-1.423l.04-.04c4.267-4.245 11.167-4.239 15.425.02l.02.02c.35.35.319 1.07-.02 1.443l-1.93 1.997a.908.908 0 0 1-1.288 0l-1.287-1.287a.908.908 0 0 1 0-1.287l.302-.301a8.161 8.161 0 0 0-7.039 0l.302.301a.908.908 0 0 1 0 1.287L3.504 15.73a.903.903 0 0 1-1.287 0z"
       id="path4" />
  </g>
</svg>
