<svg xmlns="http://www.w3.org/2000/svg" xml:space="preserve" viewBox="-2 -2 22 22" version="1.1" y="0px" x="0px"><g fill="#f1f2f2" transform="matrix(.031250 0 0 .031250 0 -.01747)"><path d="m256 32.559a224 224 0 0 0 -169.81 78.061l77.62 119.56a96 96 0 0 1 92.187 -69.625 96 96 0 0 1 11.812 0.81249c1.3609-0.37417 2.7045-0.81249 4.1875-0.81249h186.12a224 224 0 0 0 -202.12 -128zm-189.94 105.81a224 224 0 0 0 -34.062 118.19 224 224 0 0 0 179.87 219.62l66.937-126.5a96 96 0 0 1 -22.812 2.875 96 96 0 0 1 -70.625 -31.062l-0.31251 0.18749-1.5-2.3125a96 96 0 0 1 -14.562 -22.375zm261.31 54.187a96 96 0 0 1 24.625 64 96 96 0 0 1 -6.9375 35.562l0.37501 0.1875-2.5625 4.8125a96 96 0 0 1 -4.4375 8.375l-92.375 174.56a224 224 0 0 0 9.9375 0.5 224 224 0 0 0 224 -224 224 224 0 0 0 -9.5625 -64z"/><ellipse rx="64" ry="64" cy="256.56" cx="256"/></g></svg>
