<svg xmlns="http://www.w3.org/2000/svg" version="1.1" viewBox="-2 -2 22 22"><g transform="translate(0,-48)"><path d="m1 49c1.7195 1.8111 0.97332 2.9696 1.9167 5.1027 0.8755 1.9795 2.7813 0.49783 4.086 1.8973-1.3047 1.3995-3.217-0.08865-4.0925 1.8908-0.9434 2.133-0.1907 3.298-1.9102 5.109 1.8111-1.719 2.9761-0.967 5.1092-1.91 1.9794-0.876 0.4978-2.782 1.8973-4.086 1.3895 1.305-0.0863 3.218 1.8908 4.092 2.1337 0.944 3.2917 0.184 5.1027 1.904-1.72-1.811-0.96-2.969-1.904-5.103-0.874-1.977-2.781-0.507-4.0858-1.897 1.3048-1.39 3.2118 0.08 4.0858-1.897 0.944-2.134 0.184-3.292 1.904-5.103-1.811 1.72-2.969 0.96-5.1027 1.904-1.9771 0.874-0.5013 2.787-1.8908 4.092-1.3995-1.304 0.0821-3.21-1.8973-4.086-2.1331-0.943-3.2981-0.191-5.1092-1.91z" fill-rule="evenodd" fill="#f1f2f2"/></g></svg>
