<svg viewBox="-2 -2 22 22" xmlns="http://www.w3.org/2000/svg">
    <g fill="#f1f2f2">
        <path d="M10.062 2.061c-.415-.018-.628.027-.625.031.006.008 1.73.327 2.032.75 0 0-.72.007-1.438.219-.032.01 2.64.331 3.188 3.062 0 0-.294-.643-.657-.75.239.742.165 2.176-.062 2.875-.03.09-.053-.387-.5-.593.143 1.049-.006 2.698-.719 3.156-.055.036.44-1.649.094-1-2.064 3.232-4.505 1.311-5.5.625.799.2 1.8.07 2.125-.156.496-.346.8-.591 1.062-.532.264.06.424-.229.22-.468-.205-.24-.703-.555-1.376-.375-.474.127-1.04.542-1.937 0-.766-.463-.671-.7-.671-.94s.214-.59.594-.53c.085.013.15.008.187 0 .185.042.358.096.531.187.008-.224-.029-.874-.156-1.23.01.004.03.01.031 0 .039-.177 1.055-.184 1.374-.597C8.063 5.532 8 5 8 5H7c-.524.002-.972-.751-1.015-.857C6.1 3.517 6.472 3.303 7 3c-.397-.003-.189 0-1 0-.529 0-.847.361-1.015.55-.7-.167-1.381-.253-1.86-.062-.221-.23-.396-.8-.422-1.488 0 0-1.205.738-1.078 2.55-.002.15-.05.214-.063.313-.13.229-.155.405-.125.375-.065.136-.153.284-.218.469-.015.036-.05.046-.063.094-.009.032.002.063 0 .093-.115.361-.215.983-.312 1.543 0 0 .124-.514.312-.886C1 7.093.894 8.1.97 9.28c0 0 .015-.205.062-.5.047.8.26 1.727.844 2.75 1.462 2.557 3.892 3.689 6.437 3.468.446-.03.897-.108 1.344-.218 5.93-1.465 5.281-8.781 5.281-8.781l-.156 1.093s-.241-2-.531-2.75c-.444-1.15-.624-1.158-.625-1.156.297.772.219 1.188.219 1.188s-.513-1.44-1.907-1.907c-.825-.276-1.459-.388-1.875-.406z"/>
        <path d="M7.877.979a7.01 7.01 0 0 0-2.48.5l-.464.184c.661.797 1.844.44 1.844.44a6.016 6.016 0 0 1 6.442 2.892 6.015 6.015 0 0 1-1.506 7.742 6.014 6.014 0 0 1-7.877-.39 6.015 6.015 0 0 1-.73-7.854l.29-.407-.814-.582-.291.407a7.027 7.027 0 0 0 .853 9.158 7.026 7.026 0 0 0 9.186.455 7.025 7.025 0 0 0 1.756-9.027A7.03 7.03 0 0 0 7.876.979z" style="line-height:normal;text-indent:0;text-align:start;text-decoration-line:none;text-decoration-style:solid;text-decoration-color:#000;text-transform:none;block-progression:tb;isolation:auto;mix-blend-mode:normal;marker:none" color="#000" font-weight="400" font-family="sans-serif" white-space="normal" overflow="visible"/>
    </g>
</svg>
