<svg xmlns="http://www.w3.org/2000/svg" version="1.1" viewBox="-2 -2 22 22"><path fill="#f1f2f2" d="m8.5-0.0019531c-0.2375 0-0.4743 0.089522-0.6562 0.27148l-0.9336 0.93357 0.9453 0.9453a1.5 1.5 0 0 1 2.1445 1.3516 1.5 1.5 0 0 1 -0.1484 0.6445l2.0034 2.0039a1.5 1.5 0 0 1 2.145 1.3516 1.5 1.5 0 0 1 -3 0 1.5 1.5 0 0 1 0.148 -0.6445l-2.0035-2.0039a1.5 1.5 0 0 1 -0.1445 0.0605v1.6777 3.4962a1.5 1.5 0 0 1 1 1.414 1.5 1.5 0 0 1 -3 0 1.5 1.5 0 0 1 1 -1.412v-3.4982-1.6757a1.5 1.5 0 0 1 -1 -1.4141 1.5 1.5 0 0 1 0.1484 -0.6445l-0.9453-0.9453-4.9297 4.9296c-0.36389 0.364-0.36389 0.9506 0 1.3145l6.5704 6.5707c0.3639 0.364 0.9485 0.364 1.3124 0l6.5708-6.5707c0.363-0.3639 0.363-0.9505 0-1.3145l-6.5708-6.5703c-0.1819-0.18193-0.4187-0.27145-0.6562-0.27145z"/></svg>
