<svg xmlns="http://www.w3.org/2000/svg" viewBox="-2 -2 22 22">
    <path d="M8 0C3.585 0 0 3.585 0 8s3.585 8 8 8 8-3.585 8-8-3.585-8-8-8zm.27 1.014a6.997 6.997 0 0 1 5.785 3.459l-3.606 1.802A3 3 0 0 0 8 5a3 3 0 0 0-.46.037l.73-4.023zM1.945 4.473l3.604 1.8A3 3 0 0 0 5 8a3 3 0 0 0 .55 1.725l-3.622 1.812A6.981 6.981 0 0 1 1 8.398v-.757a6.98 6.98 0 0 1 .945-3.168zM8 6a2 2 0 0 1 2 2 2 2 0 0 1-2 2 2 2 0 0 1-2-2 2 2 0 0 1 2-2zm2.451 3.727l3.621 1.81a6.998 6.998 0 0 1-5.795 3.488L7.54 10.96A3 3 0 0 0 8 11a3 3 0 0 0 2.451-1.273z" style="line-height:normal;-inkscape-font-specification:'Bitstream Vera Sans';text-indent:0;text-align:start;text-decoration-line:none;text-transform:none;marker:none" color="#f1f2f2" font-weight="400" font-family="Bitstream Vera Sans" overflow="visible" fill="#f1f2f2"/>
</svg>
