<svg height="16" width="16.042" xmlns="http://www.w3.org/2000/svg">
    <g color="#000" fill="#f1f2f2">
        <path d="M10.012.031c-2.19 0-3.988 1.698-3.988 3.781 0 3.1 3.139 8.126 3.988 8.188.85.062 3.958-5.151 3.958-8.188 0-2.083-1.766-3.78-3.958-3.78zM9.982 3c.55 0 .996.448.996 1s-.446 1-.997 1a.999.999 0 0 1-.997-1c0-.552.447-1 .997-1z" style="marker:none" overflow="visible"/>
        <path d="M14.78 11a.997 1 0 0 0-.343.156l-4.269 2.656-4.082-2.53a.997 1 0 0 0-1.028 0l-4.58 2.812a1.007 1.01 0 1 0 1.06 1.719l4.019-2.5 4.081 2.53a.997 1 0 0 0 1.06 0l4.798-3A.997 1 0 0 0 14.78 11z" style="text-indent:0;text-align:start;line-height:normal;text-transform:none;block-progression:tb;marker:none;-inkscape-font-specification:Sans" font-weight="400" overflow="visible" font-family="Sans"/>
    </g>
</svg>
