<?xml version="1.0" encoding="UTF-8" standalone="no"?>
<svg
   xmlns:dc="http://purl.org/dc/elements/1.1/"
   xmlns:cc="http://creativecommons.org/ns#"
   xmlns:rdf="http://www.w3.org/1999/02/22-rdf-syntax-ns#"
   xmlns:svg="http://www.w3.org/2000/svg"
   xmlns="http://www.w3.org/2000/svg"
   xmlns:sodipodi="http://sodipodi.sourceforge.net/DTD/sodipodi-0.dtd"
   xmlns:inkscape="http://www.inkscape.org/namespaces/inkscape"
   height="16"
   width="16"
   viewBox="-2 -2 22 22"
   version="1.1"
   id="svg26"
   sodipodi:docname="mxit.svg"
   inkscape:version="0.92.1 r15371">
  <metadata
     id="metadata30">
    <rdf:RDF>
      <cc:Work
         rdf:about="">
        <dc:format>image/svg+xml</dc:format>
        <dc:type
           rdf:resource="http://purl.org/dc/dcmitype/StillImage" />
        <dc:title></dc:title>
      </cc:Work>
    </rdf:RDF>
  </metadata>
  <sodipodi:namedview
     pagecolor="#ffffff"
     bordercolor="#666666"
     borderopacity="1"
     objecttolerance="10"
     gridtolerance="10"
     guidetolerance="10"
     inkscape:pageopacity="0"
     inkscape:pageshadow="2"
     inkscape:window-width="1373"
     inkscape:window-height="666"
     id="namedview28"
     showgrid="false"
     inkscape:zoom="14.75"
     inkscape:cx="-0.47457627"
     inkscape:cy="8"
     inkscape:window-x="702"
     inkscape:window-y="194"
     inkscape:window-maximized="0"
     inkscape:current-layer="svg26" />
  <defs
     id="defs10" />
  <path
     d="M0 1l.003 1.807.004 1.867.041.087c.053.11.137.196.248.248l.087.041 4.89.007c4.597.006 4.871.008 4.987.03.403.074.72.2.99.394.118.085.306.275.391.395.166.235.28.356.32.7.008.076.013 1.334.014 3.39 0 1.961.005 3.18.013 3.257.064.622.35 1.116.834 1.44.267.18.605.295.947.323.074.006.425.011.995.012L16 15V9.904c0-3.337-.005-5.16-.014-5.284a5.2 5.2 0 0 0-.098-.7c-.317-1.424-1.316-2.386-2.881-2.776a6.346 6.346 0 0 0-.624-.111 1.057 1.057 0 0 1-.11-.017c-.018-.005-2.787-.01-6.153-.013z"
     fill="url(#b)"
     id="path12"
     style="fill:#f1f2f2" />
  <path
     d="M0 7v3.057c.001 3.27 0 3.184.065 3.447.1.399.309.757.585.999.324.283.713.445 1.158.483.07.006.591.01 1.16.012L4 15V7H0z"
     fill="url(#c)"
     id="path16"
     style="fill:#f1f2f2" />
  <path
     d="M6 7v8h4V7H8z"
     fill="url(#d)"
     id="path18"
     style="fill:#f1f2f2" />
</svg>
