<svg xmlns="http://www.w3.org/2000/svg" version="1.1" viewBox="-2 -2 22 22"><g fill="#f1f2f2"><path d="m6.0977-0.015625a0.5 0.5 0 0 0 -0.4336 0.68946l0.5703 1.6446a6.973 6.973 0 0 0 -0.1699 0.0644 6.68 6.68 0 0 0 -0.0079 0.002 6.68 6.68 0 0 0 -0.6015 0.2558l-1.0215-1.7636a0.50099 0.50099 0 0 0 -0.8672 0.5019l1.0176 1.7559a10.81 10.81 0 0 0 -0.9766 0.705l-1.2539-1.2539a0.50028 0.50028 0 1 0 -0.707 0.7071l1.2207 1.2187a16.47 16.47 0 0 0 -0.5977 0.5977l-0.0019-0.002c-0.064 0.065-0.1324 0.1313-0.1934 0.1973l-0.7207-0.7188v-0.0019a0.502 0.502 0 0 0 -0.3437 -0.1504 0.5 0.5 0 0 0 -0.39066 0.8281 0.50028 0.50028 0 0 0 0.00391 0.0059 0.5 0.5 0 0 0 0.02343 0.0234 0.50028 0.50028 0 0 0 0 0.002l0.76372 0.7617c-0.44254 0.538-0.79528 1.023-1.0372 1.375 0.00005 0 0.00005 0.0019 0.00005 0.0019-0.24077 0.3506-0.37305 0.5684-0.37305 0.5684v0.002s0.21786 0.3618 0.61133 0.9082c0.19787 0.2767 0.43257 0.5854 0.71677 0.9355 0.252 0.3103 0.5437 0.6393 0.8555 0.9723 0.0333 0.036 0.0579 0.07 0.0918 0.106 0.8811 0.925 1.97 1.85 3.1953 2.443 0.0013 0.001 0.0026 0.002 0.0039 0.002 0.1475 0.071 0.2981 0.133 0.4492 0.193 0.0843 0.035 0.1687 0.068 0.2539 0.098 0.1313 0.047 0.2629 0.09 0.3965 0.127 0.1195 0.034 0.2401 0.062 0.3613 0.088 0.1126 0.024 0.224 0.05 0.3379 0.066 0.2394 0.036 0.4814 0.059 0.7266 0.059s0.4871-0.023 0.7266-0.059c0.1139-0.016 0.2253-0.042 0.3379-0.066 0.1213-0.026 0.2417-0.054 0.3613-0.088 0.1336-0.037 0.2652-0.08 0.3965-0.127 0.0852-0.03 0.1696-0.063 0.2537-0.098 0.151-0.06 0.302-0.122 0.449-0.193 0.002 0 0.003-0.001 0.004-0.002 1.226-0.593 2.315-1.518 3.196-2.443 0.034-0.036 0.058-0.07 0.091-0.106 0.312-0.333 0.604-0.662 0.856-0.9723 0.284-0.3501 0.519-0.6588 0.717-0.9355 0.144-0.201 0.129-0.1917 0.224-0.334 0.159-0.2399 0.387-0.5762 0.387-0.5762-0.001-0.0021-0.526-0.8706-1.41-1.9453l0.764-0.7617a0.50028 0.50028 0 0 0 0 -0.002 0.50028 0.50028 0 0 0 0.033 -0.0371 0.5 0.5 0 0 0 0.013 -0.0156 0.50028 0.50028 0 0 0 0.006 -0.0078 0.5 0.5 0 0 0 0.022 -0.0332 0.5 0.5 0 0 0 -0.438 -0.7637 0.502 0.502 0 0 0 -0.224 0.0625 0.502 0.502 0 0 0 -0.043 0.0254 0.502 0.502 0 0 0 -0.039 0.0293 0.502 0.502 0 0 0 -0.038 0.0332v0.0019l-0.72 0.7188c-0.061-0.066-0.13-0.1323-0.194-0.1973l-0.002 0.002a16.47 16.47 0 0 0 -0.597 -0.5977l1.221-1.2187a0.50028 0.50028 0 0 0 -0.708 -0.7071l-1.253 1.2539a10.81 10.81 0 0 0 -0.977 -0.705l1.018-1.7559a0.50099 0.50099 0 1 0 -0.868 -0.50195l-1.021 1.7636a6.68 6.68 0 0 0 -0.6016 -0.2558 6.973 6.973 0 0 0 -0.0079 -0.002 6.973 6.973 0 0 0 -0.1699 -0.0644l0.5704-1.6446a0.5 0.5 0 0 0 -0.4844 -0.68942 0.5 0.5 0 0 0 -0.2989 0.11523 0.5 0.5 0 0 0 -0.2578 -0.09961 0.5 0.5 0 0 0 -0.5273 0.37695l-0.4512 1.6348a5.062 5.062 0 0 0 -0.3164 -0.0098 5.062 5.062 0 0 0 -0.3164 0.0097l-0.4512-1.6348a0.5 0.5 0 0 0 -0.5273 -0.3769 0.5 0.5 0 0 0 -0.2598 0.099609 0.5 0.5 0 0 0 -0.2969 -0.11523 0.5 0.5 0 0 0 -0.0507 -0.000004zm1.9023 4.0176c0.2048 0 0.4026 0.0158 0.5977 0.0371 0.144 0.0172 0.2845 0.0414 0.4238 0.0683 1.5655 0.2965 2.7735 1.2159 3.6135 2.0957 0.01 0.0111 0.019 0.0222 0.029 0.0332a9.754 9.754 0 0 1 0.606 0.6973 9.754 9.754 0 0 1 0.005 0.0059c0.004 0.005 0.006 0.0105 0.01 0.0156a9.754 9.754 0 0 1 0.49 0.6894c0.086 0.1393 0.225 0.3549 0.225 0.3555 0 0-0.088 0.1354-0.107 0.1699-0.124 0.21-0.514 0.8535-1.276 1.6465-0.834 0.8686-2.026 1.7716-3.5662 2.0726-0.1573 0.031-0.319 0.054-0.4824 0.074-0.186 0.019-0.3736 0.037-0.5684 0.037s-0.3824-0.018-0.5684-0.037c-0.1636-0.019-0.3251-0.043-0.4824-0.074-1.5407-0.301-2.7324-1.204-3.5664-2.0726-0.7616-0.793-1.1523-1.4368-1.2754-1.6465-0.0219-0.0373-0.1074-0.1679-0.1074-0.1679v-0.002c0.0003-0.0006 0.1372-0.2106 0.2148-0.3379a9.754 9.754 0 0 1 0.5 -0.709 9.754 9.754 0 0 1 0.0157 -0.0195 9.754 9.754 0 0 1 0.6054 -0.6973 9.754 9.754 0 0 1 0.0293 -0.0332c0.8399-0.8798 2.0475-1.7992 3.6133-2.0957 0.1393-0.027 0.2798-0.0507 0.4238-0.0683 0.1951-0.0213 0.3929-0.0371 0.5977-0.0371zm0 0.998a3 3 0 0 0 -0.2988 0.0156 3 3 0 0 0 -0.5879 0.1192 3 3 0 0 0 -1.2656 0.7754 3 3 0 0 0 -0.1973 0.2246 3 3 0 0 0 0 0.0019 3 3 0 0 0 -0.1738 0.2422 3 3 0 0 0 0 0.002 3 3 0 0 0 -0.1504 0.2578 3 3 0 0 0 0 0.0019 3 3 0 0 0 -0.1231 0.2715 3 3 0 0 0 0 0.002 3 3 0 0 0 -0.0937 0.2832 3 3 0 0 0 0 0.0019 3 3 0 0 0 -0.1016 0.5879 3 3 0 0 0 0 0.002 3 3 0 0 0 -0.0078 0.2109v0.002 0.0019a3 3 0 0 0 0 0.0039 3 3 0 0 0 0.0137 0.252 3 3 0 0 0 0.0136 0.125 3 3 0 0 0 0.0293 0.1816 3 3 0 0 0 0.0274 0.125 3 3 0 0 0 0.039 0.1524 3 3 0 0 0 0.045 0.1367 3 3 0 0 0 0.0586 0.1601 3 3 0 0 0 0.0468 0.1055 3 3 0 0 0 0.0782 0.1582 3 3 0 0 0 0.082 0.1445 3 3 0 0 0 0.0586 0.0957 3 3 0 0 0 0.1152 0.1602 3 3 0 0 0 0.0684 0.0879 3 3 0 0 0 0.0957 0.1114 3 3 0 0 0 0.1211 0.131 3 3 0 0 0 0.0644 0.058 3 3 0 0 0 0.1641 0.143 3 3 0 0 0 0.0723 0.055 3 3 0 0 0 0.1504 0.109 3 3 0 0 0 0.1484 0.09 3 3 0 0 0 0.1035 0.058 3 3 0 0 0 0.1426 0.071 3 3 0 0 0 0.1465 0.064 3 3 0 0 0 0.1015 0.037 3 3 0 0 0 0.1778 0.061 3 3 0 0 0 0.1211 0.031 3 3 0 0 0 0.1796 0.039 3 3 0 0 0 0.0918 0.014 3 3 0 0 0 0.2168 0.025 3 3 0 0 0 0.1309 0.006 3 3 0 0 0 0.0723 0.004c0.0078 0.001 0.0154 0.002 0.0234 0.002a3 3 0 0 0 1.168 -0.238 3 3 0 0 0 0.7656 -0.469 3 3 0 0 0 0.2184 -0.205 3 3 0 0 0 0.805 -1.5783 3 3 0 0 0 0 -0.0019 3 3 0 0 0 0.043 -0.5078 3 3 0 0 0 0 -0.002 3 3 0 0 0 0 -0.0039 3 3 0 0 0 -0.014 -0.2559 3 3 0 0 0 -0.013 -0.1132 3 3 0 0 0 -0.03 -0.1954 3 3 0 0 0 -0.023 -0.1035 3 3 0 0 0 -0.045 -0.1758 3 3 0 0 0 -0.041 -0.1269 3 3 0 0 0 -0.055 -0.1524 3 3 0 0 0 -0.066 -0.1464 3 3 0 0 0 -0.059 -0.1192 3 3 0 0 0 -0.103 -0.1777 3 3 0 0 0 -0.028 -0.0488 3 3 0 0 0 -0.011 -0.0157 3 3 0 0 0 -0.137 -0.1933 3 3 0 0 0 -0.025 -0.0352 3 3 0 0 0 -0.012 -0.0137 3 3 0 0 0 -0.135 -0.1542 3 3 0 0 0 -0.08 -0.086 3 3 0 0 0 -0.121 -0.1133 3 3 0 0 0 -0.0958 -0.084 3 3 0 0 0 -0.1542 -0.1152 3 3 0 0 0 -0.084 -0.0605 3 3 0 0 0 -0.1953 -0.1192 3 3 0 0 0 -0.0352 -0.0215 3 3 0 0 0 -0.0117 -0.0058 3 3 0 0 0 -0.2324 -0.1133 3 3 0 0 0 -0.0254 -0.0117 3 3 0 0 0 -0.0098 -0.0039 3 3 0 0 0 -0.2148 -0.0782 3 3 0 0 0 -0.086 -0.0292 3 3 0 0 0 -0.1953 -0.0489 3 3 0 0 0 -0.0918 -0.0215 3 3 0 0 0 -0.1992 -0.0293 3 3 0 0 0 -0.1055 -0.0136 3 3 0 0 0 -0.2656 -0.0137zm0 2a1 1 0 0 1 1 1 1 1 0 0 1 -1 1 1 1 0 0 1 -0.1992 -0.0195 1 1 0 0 1 -0.0957 -0.0254 1 1 0 0 1 -0.7051 -0.9551 1 1 0 0 1 0.0059 -0.0996 1 1 0 0 1 0.9941 -0.9004z"/></g></svg>
