<svg xmlns="http://www.w3.org/2000/svg" version="1.1" viewBox="-2 -2 22 22"><path opacity=".5" fill="#f1f2f2" d="m5 1c-2.216 0-4 1.784-4 4v6c0 2.216 1.784 4 4 4h3.4355c-3.592-3.185-4.9121-7.3496-4.9121-7.3496a0.5 0.5 0 0 1 0.127 -0.5078s3.9771-3.8716 9.2876-5.6446a3.994 3.994 0 0 0 -1.938 -0.498h-6zm9.801 2.752c-4.378 0.922-6.4288 3.7495-6.7248 4.1875 0.0871 0.3074 0.64 2.0895 1.9238 3.9085v-1.848h0.223c-0.5132-1.0684-0.7113-1.8906-0.7113-1.8906a0.5 0.5 0 0 1 0.0899 -0.4121s1.8844-2.4842 5.3324-3.4102a3.983 3.983 0 0 0 -0.133 -0.5351zm0.199 3.3984a3.298 3.298 0 0 0 -1.438 1c0.031 0.1729 0.202 0.9734 0.6 1.8496h0.838v-2.8496z"/><path style="color:#f1f2f2" d="m11 11h1.375l1.125 1.094 1.094-1.094h1.406v1.469l-1.094 1.062 1.094 1.063v1.406h-1.438l-1.062-1.063-1.063 1.063h-1.437v-1.406l1.062-1.063-1.062-1.061z" overflow="visible" fill="#c00"/></svg>
