<?xml version="1.0" encoding="UTF-8" standalone="no"?>
<svg xmlns="http://www.w3.org/2000/svg" version="1.1" viewBox="-3 -3 22 22">
 <g font-family="Sans" font-weight="400" fill="#f60">
  <path style="text-decoration-line:none;text-transform:none;text-indent:0" d="m3.469 1a2.468 2.468 0 0 0 -2.47 2.469v9.062a2.468 2.468 0 0 0 2.471 2.469h9.062a2.468 2.468 0 0 0 2.468 -2.469v-9.061a2.468 2.468 0 0 0 -2.47 -2.47zm0 1h9.062c0.832 0 1.469 0.637 1.469 1.469v9.062c0 0.832-0.637 1.469-1.47 1.469h-9.06a1.443 1.443 0 0 1 -1.47 -1.469v-9.061c0-0.833 0.637-1.47 1.47-1.47z" overflow="visible"/>
  <path style="text-decoration-line:none;text-transform:none;text-indent:0" d="m14.177 2.823l-5.677 5.552-1.938-1.938-2.125 2.125 3 3 1.063 1.063 1.062-1.063 4.615-4.739z" overflow="visible"/>
 </g>
</svg>
