<svg height="16" width="16" xmlns="http://www.w3.org/2000/svg">
    <g color="#000" fill="#f1f2f2">
        <path d="M5.969 7.969a2.969 2.969 0 1 1-5.938 0 2.969 2.969 0 1 1 5.938 0zM15.938 12.969a2.969 2.969 0 1 1-5.938 0 2.969 2.969 0 1 1 5.938 0zM15.938 2.969a2.969 2.969 0 1 1-5.938 0 2.969 2.969 0 1 1 5.938 0z" style="marker:none" overflow="visible"/>
        <path d="M12.614 2.156L2.55 7.03.74 7.937l1.812.906 10.063 5.063.875-1.813L5.27 7.937l8.219-4-.875-1.781z" style="text-indent:0;text-align:start;line-height:normal;text-transform:none;block-progression:tb;marker:none;-inkscape-font-specification:Sans" font-weight="400" overflow="visible" font-family="Sans"/>
    </g>
</svg>
