<?xml version="1.0" encoding="UTF-8" standalone="no"?>
<svg id="svg28" xmlns="http://www.w3.org/2000/svg" version="1.1" viewBox="-3 -3 22 22"><g id="g26" style="fill:#f1f2f2" transform="matrix(1 0 0 1.0066 -.017136 -.070055)"><path id="path24" style="fill:#f1f2f2" d="m11.506 2.058c-0.963-0.046-1.751 0.975-1.426 1.889 0.265 0.995 1.625 1.425 2.39 0.732 0.812-0.61 0.698-1.996-0.232-2.428a1.622 1.622 0 0 0 -0.732 -0.193zm-5.756 1.911c-0.406 0.032-0.483 0.475-0.688 0.75-0.333 0.534-0.636 1.082-1 1.593-0.326 0.615 0.701 1.048 0.938 0.438l1-1.719 1.688 0.719c-0.904 1.059-1.827 2.09-2.72 3.156-0.227 0.187-0.8 0.277-0.968 0.594-0.032 0.03-0.062 0.062-0.094 0.094l1.875 1.437c0.06-0.011 0.124-0.031 0.188-0.031 0.561 0 1.031 0.454 1.031 1l1.719 1.344c0.063-0.108 0.124-0.213 0.156-0.344 0.246-0.737 0.188-1.553 0.094-2.313 0.074-0.302-0.561-0.79-0.031-0.687h2.124c0.014 1.202-0.081 2.392-0.062 3.594 0.013 0.765 1.2 0.416 1.031-0.219-0.008-1.23 0.029-2.46 0-3.688-0.045-0.316 0.103-0.827-0.375-0.687l-3.562 0.031c0.596-0.564 1.23-1.11 1.812-1.687 0.29-0.643 0.208-1.676-0.531-2-0.108-0.098-0.349-0.135-0.5-0.219-0.983-0.385-1.952-0.776-2.938-1.156-0.061-0.016-0.124-0.005-0.187 0zm-2.469 6.437c-0.103 0.196-0.18 0.4-0.219 0.625-0.072 0.665-0.084 1.526 0.25 2.188 0.335 0.64 0.831 1.253 1.532 1.5 1 0.457 2.283 0.283 3.125-0.438 0.035-0.053 0.083-0.106 0.125-0.156l-1.625-1.281c-0.151 0.084-0.316 0.156-0.5 0.156-0.562 0-1-0.454-1-1 0-0.101 0.003-0.188 0.031-0.281z"/></g></svg>
