<svg xmlns="http://www.w3.org/2000/svg" version="1.1" xmlns:xlink="http://www.w3.org/1999/xlink" viewBox="-2 -2 22 22"><path stroke-width=".30435" fill="#f1f2f2" d="m8 1c-3.8768 0-7 3.1232-7 7 0 3.877 3.1232 7 7 7 3.876 0 7-3.123 7-7 0-3.8768-3.124-7-7-7zm-1.1992 3c2.048 0 4.2052 0.5591 5.8222 1.748 0.216 0.1406 0.377 0.4201 0.377 0.8399-0.054 0.4895-0.324 0.8398-0.701 0.8398-0.161 0-0.216-0.0685-0.377-0.1386-1.294-0.9795-3.2345-1.5391-5.1212-1.5391-0.9704 0-1.9405 0.1403-2.8028 0.4199-0.1075 0-0.215 0.0684-0.3769 0.0684-0.3773 0.0701-0.6465-0.3496-0.6465-0.8399 0-0.4902 0.2149-0.7678 0.4844-0.8379 1.0242-0.4198 2.1019-0.5605 3.3418-0.5605zm-0.3516 3.0469c1.8275 0 3.6008 0.5403 4.9978 1.6191 0.215 0.1345 0.323 0.4045 0.323 0.6738 0 0.4039-0.215 0.7402-0.538 0.7402-0.161 0-0.267-0.067-0.375-0.1347-1.128-0.8762-2.6868-1.416-4.4605-1.416-0.8604 0-1.6682 0.1356-2.2598 0.3379-0.161 0.067-0.2147 0.0664-0.3222 0.0664-0.3227 0-0.5372-0.3367-0.5372-0.6738 0-0.4046 0.1609-0.6054 0.4297-0.7403 0.8067-0.2697 1.6135-0.4726 2.7422-0.4726zm0.1133 2.6679c1.4899 0 2.874 0.4432 4.0445 1.2692 0.16 0.127 0.266 0.255 0.266 0.573-0.053 0.253-0.265 0.443-0.478 0.443-0.107 0-0.214-0.064-0.321-0.127-1.0109-0.698-2.2338-1.08-3.5642-1.08-0.7453 0-1.4912 0.128-2.1836 0.318-0.1064 0-0.2652 0.063-0.3184 0.063-0.2661 0-0.4258-0.254-0.4258-0.508 0-0.317 0.1601-0.507 0.3731-0.57 0.8516-0.2544 1.7023-0.3812 2.6074-0.3812z"/></svg>
