<svg xmlns="http://www.w3.org/2000/svg" version="1.1" viewBox="-3 -3 22 22"><g transform="translate(0,-496)" fill="#f1f2f2"><path d="m4.1016 1c-1.662 0-3 1.338-3 3v8c0 1.662 1.338 3 3 3h8.0004c1.662 0 3-1.338 3-3v-8c0-1.662-1.338-3-3-3h-8.0004zm0.4707 1h6.8557c1.424 0 2.572 1.1477 2.572 2.5723v6.8557c0 1.424-1.148 2.572-2.572 2.572h-6.8557c-1.4246 0-2.5723-1.148-2.5723-2.572v-6.8557c0-1.4246 1.1477-2.5723 2.5723-2.5723z" transform="translate(0,496)"/><path d="m7.1016 497v2.1016a5 5 0 0 0 -3.8946 3.9h1.0273a4 4 0 0 1 3.8008 -3h0.066406a4 4 0 0 1 3.8691 3h1.029a5 5 0 0 0 -3.8984 -3.89v-2.11zm1 4a3 3 0 0 0 -3 3 3 3 0 0 0 0.04102 0.5h4.8945a2 2 0 0 1 -1.9354 1.5 2 2 0 0 1 -1.3203 -0.5h-1.2735a3 3 0 0 0 2.5938 1.5 3 3 0 0 0 3 -3 3 3 0 0 0 -0.04102 -0.5h-4.8945a2 2 0 0 1 1.9355 -1.5 2 2 0 0 1 1.3203 0.5h1.2734a3 3 0 0 0 -2.5944 -1.5zm-4.8984 4a5 5 0 0 0 3.8984 3.8926v2.11h2v-2.1016a5 5 0 0 0 3.8944 -3.9h-1.027a4 4 0 0 1 -3.8008 3h-0.0666a4 4 0 0 1 -3.8691 -3z"/></g></svg>
