<svg xmlns="http://www.w3.org/2000/svg" version="1.1" viewBox="-2 -2 22 22"><g fill="#f1f2f2"><path d="m9 3a3 3 0 1 1 -6 0 3 3 0 1 1 6 0z" color="#f1f2f2" overflow="visible"/><path d="m3 6c-1 0-2 0-2 1v6h2v-4c0-0.735 0.376-1 1-1h7v-1c0-1-1-1-2-1v1h-6z"/><path d="m4.531 9a0.527 0.527 0 0 0 -0.531 0.531v5.938c0 0.297 0.234 0.531 0.531 0.531h9.938a0.527 0.527 0 0 0 0.531 -0.531v-5.939a0.527 0.527 0 0 0 -0.531 -0.53h-9.939zm0.469 1h4v5h-4v-5zm5 0h4v1h-4v-1zm0 2h4v1h-4v-1zm0 2h4v1h-4v-1z"/></g></svg>
