<svg xmlns="http://www.w3.org/2000/svg" version="1.1" viewBox="-2 -2 22 22"><path d="m6.2793 1.0059c-0.0541 0.0118-0.1055 0.0427-0.1484 0.0937-2.6244 3.1026-4.6803 7.1874-6.1133 11.316-0.037935 0.108-0.010405 0.231 0.070291 0.311l1.2207 1.199c0.1434 0.141 0.3789 0.085 0.4473-0.108 0.4667-1.279 1.5102-1.662 2.2441-1.818 0.7339-0.155 1.2054-0.047 2.0938 0.326 0.8879 0.374 1.909 0.988 2.6718 1.328 0.3812 0.171 0.7326 0.301 1.0606 0.346 0.3278 0.045 0.6628-0.008 0.9008-0.25 0.1-0.102 0.112-0.265 0.027-0.381-0.7-0.958-1.706-2.471-2.754-3.369 1.4146 0.02 2.447 0.895 3.584 1.26 0.677 0.217 1.267 0.443 1.727 0.615 0.229 0.086 0.425 0.159 0.589 0.211 0.165 0.052 0.284 0.092 0.434 0.086 0.168-0.008 0.291-0.167 0.262-0.338-0.027-0.165-0.087-0.22-0.158-0.32-0.088-0.119-0.18-0.232-0.278-0.342-2.16-3.171-1.597-2.1618-2.16-3.172 1.455-0.8194 2.517-1.3177 3.855-2.0762 0.186-0.1064 0.195-0.3801 0.016-0.498-0.338-0.2211-0.785-0.205-1.381-0.166-0.596 0.0393-1.323 0.1454-2.099 0.2832-1.24 0.2192-2.284 0.2222-3.391 0.457 0.7722-0.7959 1.424-1.3617 2.191-2.1602 0.49-0.5085 0.924-0.9871 1.243-1.4062 0.318-0.4184 0.555-0.7465 0.535-1.1465-0.007-0.1336-0.1-0.2455-0.227-0.2695-0.045-0.0087-0.092-0.0128-0.138-0.0117-0.134 0.0032-0.259 0.0463-0.407 0.1015-0.197 0.0736-0.424 0.1852-0.681 0.3262-0.515 0.2824-1.143 0.6899-1.807 1.1797-1.1301 0.8331-2.7747 2.3087-3.709 3.3867l0.6152-4.6992c0.0073-0.2034-0.1735-0.33061-0.3359-0.2949zm1.6934 5.9648a0.52705 0.52705 0 0 1 0.0527 0 0.52705 0.52705 0 0 1 0.1406 1.0293c-2.955 0.985-4.4204 1.8552-6.6308 5.098a0.5271 0.5271 0 0 1 -0.87114 -0.594c2.2897-3.3589 4.1249-4.489 7.1699-5.504a0.52705 0.52705 0 0 1 0.1387 -0.0293z" fill-rule="evenodd" stroke-width=".35418" fill="#f1f2f2"/></svg>
