<svg xmlns="http://www.w3.org/2000/svg" viewBox="-2 -2 22 22">
    <g font-weight="400" font-family="Bitstream Vera Sans" fill="#f1f2f2">
        <path style="line-height:normal;-inkscape-font-specification:'Bitstream Vera Sans';text-indent:0;text-align:start;text-decoration-line:none;text-transform:none;marker:none" d="M2.188 0C.982 0 0 1.018 0 2.219V12.78C0 13.982.982 15 2.188 15h11.624C15.018 15 16 13.982 16 12.781V2.22C16 1.018 15.018 0 13.812 0zm0 2h11.624c.12 0 .188.08.188.219V12.78c0 .139-.067.219-.188.219H2.188c-.12 0-.188-.08-.188-.219V2.22c0-.14.067-.22.188-.22z" color="#f1f2f2" overflow="visible"/>
        <path style="line-height:normal;-inkscape-font-specification:'Bitstream Vera Sans';text-indent:0;text-align:start;text-decoration-line:none;text-transform:none;marker:none" d="M9.313 3.969a.5.5 0 0 0-.344.344L7.28 10.405 6.406 9.22A.5.5 0 0 0 6 9H3v1h2.75l1.313 1.781a.5.5 0 0 0 .875-.156l1.53-5.438 1.063 3.47A.5.5 0 0 0 11 10h2V9h-1.625L9.937 4.312a.5.5 0 0 0-.624-.343z" color="#000" overflow="visible"/>
    </g>
</svg>
