<svg xmlns="http://www.w3.org/2000/svg" version="1.1" viewBox="-2 -2 22 22"><path d="m2.334 1c-0.7387 0-1.334 0.5953-1.334 1.334v11.332c0 0.739 0.5953 1.334 1.334 1.334h11.332c0.739 0 1.334-0.595 1.334-1.334v-11.332c0-0.7387-0.595-1.334-1.334-1.334h-11.332zm9.379 2c0.233-0.0008 0.449 0.0506 0.619 0.1621 0.661 0.3485 0.87 1.3612 0.451 2.0137-1.237 2.3947-2.468 4.7914-3.7205 7.1762-0.2611 0.494-0.7866 0.732-1.291 0.648-0.7021-0.115-0.9544-0.942-1.2832-1.523-1.1196-2.1768-2.2647-4.3374-3.3653-6.5258-0.4116-0.861 0.2757-2.0163 1.1504-1.9473 0.5435-0.039 0.9533 0.4313 1.1719 0.9316 0.6212 1.1498 1.1792 2.3407 1.8301 3.4707 0.6112 0.9504 1.3637 0.9375 2.2285 0.42 0.6521-0.3903 0.8151-1.2769 0.8301-2.0215 0.012-0.5946-0.3887-1.0972-0.273-1.709 0.119-0.6326 0.954-1.0934 1.652-1.0957z" fill-opacity=".969" stroke-width=".33333" fill="#f1f2f2"/></svg>
