<svg xmlns="http://www.w3.org/2000/svg" viewBox="-2 -2 22 22">
    <path d="M8.41 1C7.696 1 7.573 3 7 4c-.14.228-5.067-.516-5.96 2.37C.536 7.954 4.645 11.47 5 12c.298.447.103 1.225-.295 1.713-.27.33-.561.603-.705 1.287h10.25c.415 0 .75-.335.75-.75V8.705C15 8 15 8 14.512 8c-1.48 0-1.332-.052-1.512-.514.232-1.786.104-4.302-1-5.486-.671-.732-.948 2.106-1.666 2.533-.12.116-.334.104-.334.104C10 3.396 9.674 1.663 8.41 1zM6.423 6a.5.5 0 1 1 0 1 .5.5 0 0 1 0-1zm1.39 1c.057-.013.094-.001.106.05.05.208-.176.773-.727.93-.57.163-1.215.079-1.265-.128-.05-.208.405-.149.955-.37.413-.165.762-.442.932-.482zm-4.147.486c.286.01.497 2.208.365 2.217a.062.062 0 0 1-.025-.006c-.288-.13-.8-2.227-.34-2.21zm.742.043c.275-.08 1.152 1.945 1.03 1.994a.063.063 0 0 1-.026.002c-.314-.035-1.446-1.87-1.004-1.996zM1.033 2a.05.05 0 0 0-.023.002c-.107.05.66 2.076.901 1.996.387-.127-.603-1.963-.878-1.998z" fill="#f1f2f2"/>
    <path opacity=".2" fill="#fff" d="M91.055-210.547h518.31v1H91.055z"/>
    <path d="M2.444 1.83a.06.06 0 0 0-.025-.006c-.132.009.078 2.207.364 2.216.46.016-.05-2.08-.339-2.21z" fill="#f1f2f2"/>
</svg>
