<svg xmlns="http://www.w3.org/2000/svg" version="1.1" viewBox="0 0 14 16"><g fill="#f1f2f2"><path opacity=".3" d="m4.9238 5v2.541a0.92456 0.92456 0 0 1 -0.4609 0.8008c-0.9286 0.5361-1.5377 1.5879-1.5391 2.6602 0.000508 0.80455 0.33344 1.603 0.90234 2.1719 0.56934 0.56934 1.3687 0.90234 2.1738 0.90234 0.80517 0 1.6045-0.333 2.1738-0.90234 0.5695-0.57 0.9025-1.369 0.9025-2.174-0.0021-1.0716-0.611-2.1224-1.5391-2.6582a0.92456 0.92456 0 0 1 -0.4609 -0.8008v-2.541z"/><path d="m6 1c-1.108 0-2 0.892-2 2v4.541c-1.236 0.7136-1.9982 2.0318-2 3.459 0 2.2091 1.7909 4 4 4s4-1.7909 4-4c-0.0018-1.4272-0.764-2.7454-2-3.459v-4.541c0-1.108-0.892-2-2-2zm0 1.024c0.6118 0 0.976 0.3642 0.976 0.976v4.541c-0.0003 0.3301 0.2755 0.6353 0.5611 0.8008 0.9281 0.5358 1.537 1.5866 1.5391 2.6582 0 0.80517-0.333 1.6045-0.90234 2.1738-0.5694 0.569-1.3687 0.902-2.1739 0.902-0.80517 0-1.6045-0.333-2.1738-0.90234-0.5689-0.569-0.9019-1.367-0.9024-2.172 0.0014-1.0723 0.6105-2.1241 1.5391-2.6602 0.2856-0.1655 0.5614-0.4707 0.5611-0.8008v-4.541c0-0.6118 0.3642-0.976 0.976-0.976z"/><rect opacity=".9" ry=".5" height="1" width="3" y="2" x="7"/><rect opacity=".9" ry=".5" height="1" width="3" y="4" x="7"/><rect opacity=".9" ry=".5" height="1" width="3" y="6" x="7"/></g></svg>
