<?xml version="1.0" encoding="UTF-8" standalone="no"?>
<svg xmlns="http://www.w3.org/2000/svg" version="1.1" viewBox="0 0 22 22"><g fill="#f1f2f2"><path opacity=".6" d="m10 10c4.521 0.291 5.193-0.82 7.375 6.525l-2 2c-1.383-2.842-2.236-6.935-3.531-6.632z"/><path opacity=".6" d="m9 17.92c-2.3018 0.427-4.7985-0.674-6 0.773l1 2.307c0.7216-0.906 2.7695 0.319 5.0293-0.072-0.0062-0.05-0.0293-0.095-0.0293-0.147v-2.861z"/><path d="m17 0v0.042969h-12.957l-1 1v7l1 1h4.957v2.812l0.2285-0.181c0.3741 0.47 1.1315 1.104 1.9105 1.555 0.722 0.417 1.466 0.634 1.861 0.605v-4.791h4v0.041l1-1.084v-7l-1-1zm-12.5 1h12l0.5 0.5v6l-0.5 0.5h-12l-0.5-0.5v-6l0.5-0.5zm4.5 15.348v4.652h4v-3.123c-0.782 0.016-1.661-0.31-2.545-0.721-0.5155-0.239-1.0122-0.514-1.455-0.808z"/><path opacity=".6" d="m9 12.881v2.207c0.45977 0.38314 1.1577 0.82896 1.875 1.1621 0.80804 0.37532 1.655 0.57871 2.125 0.59961v-1.996c-0.774 0.046-1.584-0.311-2.361-0.76-0.608-0.352-1.1765-0.778-1.639-1.213z"/></g><path opacity=".6" fill="#5e86d7" d="m45 0.91602v0.04296h-12.957l-1 1v7l1 1h4.957v2.8125l0.22852-0.18164c0.37404 0.46967 1.1318 1.1045 1.9102 1.5547 0.722 0.417 1.466 0.634 1.861 0.605v-4.791h4v0.041l1-1.084v-7z"/><path opacity=".7" fill="#f1f2f2" d="m15 2-0.61133 0.027344-0.55078 0.027344c-0.337 0.015-0.9853 0.059719-1.6543 0.13672-0.67 0.078-1.3338 0.18108-1.7148 0.33008-0.04 0.016-0.05184 0.063031-0.08984 0.082031l-0.246-0.1093c-0.2074-0.0857-0.4224-0.1494-0.6428-0.1914-0.832-0.174-1.7034-0.1713-2.4804-0.1933h-0.459l-0.5508-0.0274 0.3672 0.3848 0.3066 0.3027h-0.03125c0.298 0.305 0.55427 0.86405 1.0723 1.373 0.296 0.29 0.75691 0.46352 1.2539 0.60352-0.006 0.38 0.025094 0.73058 0.24609 1.0176 0.366 0.473 0.91131 0.76291 1.0703 0.87891l0.215 0.1661 0.244 0.1914 0.1543-0.27539 0.0918-0.21875c0.053-0.1 0.19819-0.22477 0.36719-0.38477 0.17-0.16 0.37023-0.34547 0.49023-0.60547 0.185-0.402 0.13309-0.74591 0.12109-0.87891 0.487-0.18 0.92236-0.40489 1.1934-0.71289 0.443-0.503 0.71002-0.90898 1.041-1.209l0.36719-0.30273zm-2.8477 0.90625c0.17-0.003 0.32223 0.021344 0.49023 0.027344-0.108 0.157-0.21319 0.32009-0.36719 0.49609-0.11 0.123-0.28798 0.23247-0.45898 0.35547-0.037-0.14 0.0107-0.20377-0.1543-0.38477-0.103-0.113-0.22494-0.17309-0.33594-0.24609 0.078-0.038999 0.24839-0.15902 0.27539-0.16602 0.193-0.05 0.37978-0.080031 0.55078-0.082031zm-4.07 0.1934c0.13-0.007 0.29144 0.005 0.39844 0 0.212-0.011001 0.40788-0.0003125 0.67188 0.054687 0.034 0.007 0.11255 0.027687 0.18555 0.054687 0.036 0.013 0.065795 0.017344 0.091797 0.027344 0.012 0.005 0.018296 0.023344 0.029296 0.027344 0.006 0.00199 0.018297-0.004 0.029297 0h0.03125c-0.122 0.138-0.20339 0.26042-0.27539 0.35742-0.036 0.048-0.071797 0.079375-0.091797 0.10938-0.01 0.014-0.024297 0.045688-0.029297 0.054687l-0.0311 0.0274-0.0293 0.1113c-0.061-0.019-0.1286-0.0366-0.1836-0.0566-0.223-0.079-0.4202-0.1781-0.4902-0.2461-0.135-0.132-0.1569-0.2304-0.2149-0.3574-0.02-0.045-0.066797-0.11106-0.091797-0.16406zm2.4785 0.54883h0.002l0.0293 0.027344c0.17601 0.095 0.28644 0.20245 0.39844 0.43945l-0.12305 0.027344c0.01-0.00199-0.23724 0.024344-0.49024 0.027344-0.1 0.00199-0.19864-0.020344-0.30664-0.027344v-0.027344c0.05995-0.112 0.27418-0.2888 0.49018-0.4668zm0.58203 1.2363c-0.02 0.12-0.07505 0.17944-0.12305 0.27344-0.05118 0.11383-0.12273 0.21839-0.21289 0.30469-0.05 0.047-0.12055 0.12641-0.18555 0.19141-0.144-0.066-0.38328-0.16873-0.48828-0.30273-0.08-0.105-0.09405-0.26711-0.12305-0.41211 0.15 0.027 0.19094 0.065688 0.46094 0.054687 0.174-0.008 0.35123-0.027687 0.49024-0.054687z"/><path opacity=".6" fill="#f1f2f2" d="m37 17.264v4.6523h4v-3.123c-0.782 0.016-1.661-0.31-2.545-0.721-0.515-0.239-1.012-0.514-1.455-0.808z"/></svg>
