<?xml version="1.0" encoding="UTF-8" standalone="no"?>
<svg
   xmlns:dc="http://purl.org/dc/elements/1.1/"
   xmlns:cc="http://creativecommons.org/ns#"
   xmlns:rdf="http://www.w3.org/1999/02/22-rdf-syntax-ns#"
   xmlns:svg="http://www.w3.org/2000/svg"
   xmlns="http://www.w3.org/2000/svg"
   xmlns:sodipodi="http://sodipodi.sourceforge.net/DTD/sodipodi-0.dtd"
   xmlns:inkscape="http://www.inkscape.org/namespaces/inkscape"
   version="1.1"
	 viewBox="-4 -4 24 24"

   id="svg7384"
   height="16"
   width="16"
   sodipodi:docname="ac-adapter.svg"
   inkscape:version="0.92.1 r15371">
  <sodipodi:namedview
     pagecolor="#ffffff"
     bordercolor="#666666"
     borderopacity="1"
     objecttolerance="10"
     gridtolerance="10"
     guidetolerance="10"
     inkscape:pageopacity="0"
     inkscape:pageshadow="2"
     inkscape:window-width="1243"
     inkscape:window-height="480"
     id="namedview17"
     showgrid="false"
     inkscape:zoom="14.75"
     inkscape:cx="-0.61016949"
     inkscape:cy="8"
     inkscape:window-x="0"
     inkscape:window-y="22"
     inkscape:window-maximized="0"
     inkscape:current-layer="svg7384" />
  <metadata
     id="metadata90">
    <rdf:RDF>
      <cc:Work
         rdf:about="">
        <dc:format>image/svg+xml</dc:format>
        <dc:type
           rdf:resource="http://purl.org/dc/dcmitype/StillImage" />
        <dc:title>Gnome Symbolic Icon Theme</dc:title>
      </cc:Work>
    </rdf:RDF>
  </metadata>
  <title
     id="title9167">Gnome Symbolic Icon Theme</title>
  <defs
     id="defs7386" />
  <g
     id="layer9"
     style="display:inline"
     transform="translate(-142.0002,-530)" />
  <g
     id="layer10"
     transform="translate(-142.0002,-530)" />
  <g
     id="layer11"
     transform="translate(-142.0002,-530)">
    <path
       id="path11308-6"
       style="color:#f1f2f2;font-style:normal;font-variant:normal;font-weight:normal;font-stretch:normal;font-size:medium;line-height:normal;font-family:Sans;-inkscape-font-specification:Sans;text-indent:0;text-align:start;text-decoration:none;text-decoration-line:none;letter-spacing:normal;word-spacing:normal;text-transform:none;writing-mode:lr-tb;direction:ltr;baseline-shift:baseline;text-anchor:start;display:inline;overflow:visible;visibility:visible;fill:#f1f2f2;fill-opacity:1;stroke:none;stroke-width:2;marker:none;enable-background:accumulate"
       d="m 145.46889,530 c -0.49032,0 -0.79606,0.2289 -1.03123,0.46967 -0.23518,0.24077 -0.4375,0.5596 -0.4375,1.03327 l 4e-5,0.49706 h -2 v 14 c 0,0 7,0 7.00007,0 v -2 l -4.95072,0.0494 L 144.0002,534 h 1.99993 c 0,-0.66536 7e-5,-2 7e-5,-2 h 3 l -1.3e-4,2 h 1.99997 l 1.6e-4,1 h 2 L 153,532 h -1.99996 v -0.37182 -0.0313 c -0.0239,-0.43144 -0.17024,-0.75376 -0.40625,-1.03327 -0.22372,-0.26496 -0.62668,-0.53034 -1.15623,-0.53229 v -0.0313 h -0.0625 -3.90618 z" />
    <path
       id="path2182"
       style="display:inline;fill:#f1f2f2;fill-opacity:1;fill-rule:evenodd;stroke:none"
       d="m 148.0002,540 h 2 c 0.27642,-1.10346 1.06513,-3.72415 3,-4 h 3 v 2 h 2 v 2 h -2 v 2 h 2 v 2 h -2 v 2 h -3 c -1.93487,-0.27585 -2.72358,-2.89656 -3,-4 h -2 z" />
  </g>
  <g
     id="layer13"
     transform="translate(-142.0002,-530)" />
  <g
     id="layer14"
     transform="translate(-142.0002,-530)" />
  <g
     id="layer15"
     style="display:inline"
     transform="translate(-142.0002,-530)" />
  <g
     id="g71291"
     style="display:inline"
     transform="translate(-142.0002,-530)" />
  <g
     id="g4953"
     style="display:inline"
     transform="translate(-142.0002,-530)" />
  <g
     id="layer12"
     style="display:inline"
     transform="translate(-142.0002,-530)" />
</svg>
