<?xml version="1.0" encoding="UTF-8" standalone="no"?>
<svg
   xmlns:dc="http://purl.org/dc/elements/1.1/"
   xmlns:cc="http://creativecommons.org/ns#"
   xmlns:rdf="http://www.w3.org/1999/02/22-rdf-syntax-ns#"
   xmlns:svg="http://www.w3.org/2000/svg"
   xmlns="http://www.w3.org/2000/svg"
   xmlns:sodipodi="http://sodipodi.sourceforge.net/DTD/sodipodi-0.dtd"
   xmlns:inkscape="http://www.inkscape.org/namespaces/inkscape"
   width="16"
   version="1.1"
	 viewBox="-4 -4 24 24"

   id="svg7384"
   height="16"
   sodipodi:docname="accessories-dictionary.svg"
   inkscape:version="0.92.1 r15371">
  <sodipodi:namedview
     pagecolor="#ffffff"
     bordercolor="#666666"
     borderopacity="1"
     objecttolerance="10"
     gridtolerance="10"
     guidetolerance="10"
     inkscape:pageopacity="0"
     inkscape:pageshadow="2"
     inkscape:window-width="2145"
     inkscape:window-height="844"
     id="namedview19"
     showgrid="false"
     inkscape:zoom="14.75"
     inkscape:cx="-0.27118644"
     inkscape:cy="8"
     inkscape:window-x="0"
     inkscape:window-y="22"
     inkscape:window-maximized="0"
     inkscape:current-layer="layer11" />
  <metadata
     id="metadata90">
    <rdf:RDF>
      <cc:Work
         rdf:about="">
        <dc:format>image/svg+xml</dc:format>
        <dc:type
           rdf:resource="http://purl.org/dc/dcmitype/StillImage" />
        <dc:title>Gnome Symbolic Icon Theme</dc:title>
      </cc:Work>
    </rdf:RDF>
  </metadata>
  <title
     id="title9167">Gnome Symbolic Icon Theme</title>
  <defs
     id="defs7386" />
  <g
     transform="translate(-323.02908,-629.02581)"
     style="display:inline"
     id="layer9" />
  <g
     transform="translate(-323.02908,-629.02581)"
     id="layer10" />
  <g
     transform="translate(-323.02908,-629.02581)"
     id="layer11"
     style="fill:#f1f2f2">
    <path
       style="color:#000000;font-style:normal;font-variant:normal;font-weight:normal;font-stretch:normal;font-size:medium;line-height:normal;font-family:Sans;-inkscape-font-specification:Sans;text-indent:0;text-align:start;text-decoration:none;text-decoration-line:none;letter-spacing:normal;word-spacing:normal;text-transform:none;writing-mode:lr-tb;direction:ltr;baseline-shift:baseline;text-anchor:start;display:inline;overflow:visible;visibility:visible;fill:#f1f2f2;fill-opacity:1;stroke:none;stroke-width:0.99999988;marker:none;enable-background:accumulate"
       id="rect2996"
       d="m 332.59375,630.15625 c -0.56401,0.0886 -1.24007,0.37856 -2,0.78125 -1.54341,-0.84872 -2.74535,-0.88357 -3.75,-0.625 -1.06451,0.27398 -1.92792,0.69645 -3.28125,0.65625 h -0.5 v 0.5 9.8125 0.5 h 0.5 c 1.32176,0 2.46665,-0.61013 3.53125,-0.875 1.0646,-0.26487 1.98255,-0.28705 3.15625,0.75 l 0.3125,0.28125 0.34375,-0.28125 c 1.16691,-1.06335 2.04796,-1.04959 3.09375,-0.78125 1.04579,0.26834 2.17092,0.89735 3.5,0.90625 h 0.53125 v -0.5 -9.8125 -0.5 h -0.5 c -1.50737,0 -2.29605,-0.4483 -3.28125,-0.71875 -0.4926,-0.13522 -1.02211,-0.19332 -1.65625,-0.0937 z m 0.125,0.96875 c 0.48192,-0.0797 0.87152,-0.0187 1.28125,0.0937 0.72174,0.19812 1.66877,0.58632 3.03125,0.6875 v 8.75 c -0.86575,-0.12953 -1.75721,-0.48724 -2.78125,-0.75 -1.10719,-0.2841 -2.41068,-0.16656 -3.6875,0.8125 -1.28712,-0.95501 -2.60003,-1.05958 -3.71875,-0.78125 -1.03479,0.25745 -1.91592,0.59593 -2.78125,0.71875 v -8.75 c 1.26387,-0.0757 2.23188,-0.41926 3.03125,-0.625 0.91954,-0.23667 1.73509,-0.28477 3.25,0.625 l 0.25,0.125 0.25,-0.125 c 0.81985,-0.46732 1.39308,-0.70154 1.875,-0.78125 z" />
    <path
       id="rect3002"
       d="m 330.06268,631.375 h 1 v 9.60328 h -1 z"
       style="fill:#f1f2f2;fill-opacity:1;stroke:none" />
    <path
       style="color:#000000;font-style:normal;font-variant:normal;font-weight:normal;font-stretch:normal;font-size:medium;line-height:normal;font-family:Sans;-inkscape-font-specification:Sans;text-indent:0;text-align:start;text-decoration:none;text-decoration-line:none;letter-spacing:normal;word-spacing:normal;text-transform:none;writing-mode:lr-tb;direction:ltr;baseline-shift:baseline;text-anchor:start;display:inline;overflow:visible;visibility:visible;fill:#f1f2f2;fill-opacity:1;stroke:none;stroke-width:2;marker:none;enable-background:accumulate"
       id="path12413"
       d="m 336.03125,631.5 v 11.40625 l -10.96875,0.0625 v -11.4375 h -2 V 643.96875 645 l 1,-0.0312 12.96875,-0.0625 h 1 v -1 -12.40625 h -2 z" />
    <path
       style="color:#000000;display:inline;overflow:visible;visibility:visible;opacity:0.3;fill:#f1f2f2;fill-opacity:1;stroke:none;stroke-width:2;marker:none;enable-background:accumulate"
       id="path13183"
       d="m 323.9377,643.75 v -2.1875 l 4.21949,-1.13061 2.22708,0.59675 2.5031,-0.67071 3.74171,1.00259 v 2.45198 z" />
  </g>
  <g
     transform="translate(-323.02908,-629.02581)"
     id="layer13" />
  <g
     transform="translate(-323.02908,-629.02581)"
     id="layer14" />
  <g
     transform="translate(-323.02908,-629.02581)"
     style="display:inline"
     id="layer15" />
  <g
     transform="translate(-323.02908,-629.02581)"
     style="display:inline"
     id="g71291" />
  <g
     transform="translate(-323.02908,-629.02581)"
     style="display:inline"
     id="g4953" />
  <g
     transform="translate(-323.02908,-629.02581)"
     style="display:inline"
     id="layer12" />
</svg>
