<?xml version="1.0" encoding="UTF-8" standalone="no"?>
<svg
   xmlns:dc="http://purl.org/dc/elements/1.1/"
   xmlns:cc="http://creativecommons.org/ns#"
   xmlns:rdf="http://www.w3.org/1999/02/22-rdf-syntax-ns#"
   xmlns:svg="http://www.w3.org/2000/svg"
   xmlns="http://www.w3.org/2000/svg"
   width="16"
   height="16"
   version="1.1"
	 viewBox="-4 -4 24 24"

   id="svg7384">
  <metadata
     id="metadata90">
    <rdf:RDF>
      <cc:Work
         rdf:about="">
        <dc:format>image/svg+xml</dc:format>
        <dc:type
           rdf:resource="http://purl.org/dc/dcmitype/StillImage" />
        <dc:title>Gnome Symbolic Icon Theme</dc:title>
      </cc:Work>
    </rdf:RDF>
  </metadata>
  <title
     id="title9167">Gnome Symbolic Icon Theme</title>
  <defs
     id="defs7386" />
  <g
     style="display:inline"
     id="layer9"
     transform="translate(-62,-381)" />
  <g
     id="layer10"
     transform="translate(-62,-381)" />
  <g
     id="layer11"
     transform="translate(-62,-381)">
    <g
       id="g11525"
       transform="translate(14,-17)">
      <path
         style="display:inline;fill:#f1f2f2;fill-opacity:1;stroke:none"
         id="rect5122-3-5"
         d="m 50.03125,398 c -0.542165,0 -1,0.32904 -1,0.9375 v 14.125 c 0,0.58636 0.376673,0.9375 1,0.9375 H 63.0625 C 63.582568,414 64,413.64886 64,413.0625 v -14.125 C 64,398.39533 63.604665,398 63.0625,398 Z M 51,400.03125 H 62.03125 V 403 H 51 Z M 51.1875,404 h 1.625 C 52.9233,404 53,404.0767 53,404.1875 v 1.625 C 53,405.9233 52.9233,406 52.8125,406 h -1.625 C 51.0767,406 51,405.9233 51,405.8125 v -1.625 C 51,404.0767 51.0767,404 51.1875,404 Z m 3,0 h 1.625 C 55.9233,404 56,404.0767 56,404.1875 v 1.625 C 56,405.9233 55.9233,406 55.8125,406 h -1.625 C 54.0767,406 54,405.9233 54,405.8125 v -1.625 C 54,404.0767 54.0767,404 54.1875,404 Z m 3,0 h 1.625 C 58.9233,404 59,404.0767 59,404.1875 v 1.625 C 59,405.9233 58.9233,406 58.8125,406 h -1.625 C 57.0767,406 57,405.9233 57,405.8125 v -1.625 C 57,404.0767 57.0767,404 57.1875,404 Z m 3,0 h 1.625 C 61.9233,404 62,404.0767 62,404.1875 v 1.625 C 62,405.9233 61.9233,406 61.8125,406 h -1.625 C 60.0767,406 60,405.9233 60,405.8125 v -1.625 C 60,404.0767 60.0767,404 60.1875,404 Z m -9,3 h 1.625 C 52.9233,407 53,407.0767 53,407.1875 v 1.625 C 53,408.9233 52.9233,409 52.8125,409 h -1.625 C 51.0767,409 51,408.9233 51,408.8125 v -1.625 C 51,407.0767 51.0767,407 51.1875,407 Z m 3,0 h 1.625 C 55.9233,407 56,407.0767 56,407.1875 v 1.625 C 56,408.9233 55.9233,409 55.8125,409 h -1.625 C 54.0767,409 54,408.9233 54,408.8125 v -1.625 C 54,407.0767 54.0767,407 54.1875,407 Z m 3,0 h 1.625 C 58.9233,407 59,407.0767 59,407.1875 v 1.625 C 59,408.9233 58.9233,409 58.8125,409 h -1.625 C 57.0767,409 57,408.9233 57,408.8125 v -1.625 C 57,407.0767 57.0767,407 57.1875,407 Z m 3,0 h 1.625 C 61.9233,407 62,407.0767 62,407.1875 v 1.625 C 62,408.9233 61.9233,409 61.8125,409 h -1.625 C 60.0767,409 60,408.9233 60,408.8125 v -1.625 C 60,407.0767 60.0767,407 60.1875,407 Z m -9,3 h 1.625 C 52.9233,410 53,410.0767 53,410.1875 v 1.625 C 53,411.9233 52.9233,412 52.8125,412 h -1.625 C 51.0767,412 51,411.9233 51,411.8125 v -1.625 C 51,410.0767 51.0767,410 51.1875,410 Z m 3,0 h 1.625 C 55.9233,410 56,410.0767 56,410.1875 v 1.625 C 56,411.9233 55.9233,412 55.8125,412 h -1.625 C 54.0767,412 54,411.9233 54,411.8125 v -1.625 C 54,410.0767 54.0767,410 54.1875,410 Z m 3,0 h 1.625 C 58.9233,410 59,410.0767 59,410.1875 v 1.625 C 59,411.9233 58.9233,412 58.8125,412 h -1.625 C 57.0767,412 57,411.9233 57,411.8125 v -1.625 C 57,410.0767 57.0767,410 57.1875,410 Z m 3,0 h 1.625 C 61.9233,410 62,410.0767 62,410.1875 v 1.625 C 62,411.9233 61.9233,412 61.8125,412 h -1.625 C 60.0767,412 60,411.9233 60,411.8125 v -1.625 C 60,410.0767 60.0767,410 60.1875,410 Z" />
    </g>
  </g>
  <g
     id="layer12"
     transform="translate(-62,-381)" />
  <g
     id="layer13"
     transform="translate(-62,-381)" />
  <g
     id="layer14"
     transform="translate(-62,-381)" />
  <g
     id="layer15"
     transform="translate(-62,-381)" />
</svg>
