<?xml version="1.0" encoding="UTF-8" standalone="no"?>
<svg
   xmlns:dc="http://purl.org/dc/elements/1.1/"
   xmlns:cc="http://creativecommons.org/ns#"
   xmlns:rdf="http://www.w3.org/1999/02/22-rdf-syntax-ns#"
   xmlns:svg="http://www.w3.org/2000/svg"
   xmlns="http://www.w3.org/2000/svg"
   width="16"
   version="1.1"
	 viewBox="-4 -4 24 24"

   id="svg7384"
   height="16">
  <metadata
     id="metadata90">
    <rdf:RDF>
      <cc:Work
         rdf:about="">
        <dc:format>image/svg+xml</dc:format>
        <dc:type
           rdf:resource="http://purl.org/dc/dcmitype/StillImage" />
        <dc:title>Gnome Symbolic Icon Theme</dc:title>
      </cc:Work>
    </rdf:RDF>
  </metadata>
  <title
     id="title9167">Gnome Symbolic Icon Theme</title>
  <defs
     id="defs7386" />
  <g
     transform="translate(-261.0002,-867)"
     style="display:inline"
     id="layer9" />
  <g
     transform="translate(-261.0002,-867)"
     style="display:inline"
     id="layer10" />
  <g
     transform="translate(-261.0002,-867)"
     id="layer11" />
  <g
     transform="translate(-261.0002,-867)"
     style="display:inline"
     id="layer13" />
  <g
     transform="translate(-261.0002,-867)"
     id="layer14" />
  <g
     transform="translate(-261.0002,-867)"
     style="display:inline"
     id="layer15" />
  <g
     transform="translate(-261.0002,-867)"
     style="display:inline"
     id="g71291" />
  <g
     transform="translate(-261.0002,-867)"
     style="display:inline"
     id="g4953" />
  <g
     transform="translate(-261.0002,-867)"
     style="display:inline"
     id="layer12">
    <path
       style="color:#000000;font-style:normal;font-variant:normal;font-weight:normal;font-stretch:normal;font-size:medium;line-height:normal;font-family:Sans;-inkscape-font-specification:Sans;text-indent:0;text-align:start;text-decoration:none;text-decoration-line:none;letter-spacing:normal;word-spacing:normal;text-transform:none;writing-mode:lr-tb;direction:ltr;text-anchor:start;display:inline;overflow:visible;visibility:visible;fill:#f1f2f2;fill-opacity:1;stroke:none;stroke-width:2;marker:none;enable-background:new"
       id="rect10788-4-8"
       d="m 264.1877,868 c -1.09069,0 -1.99999,0.90929 -2,2 h 7.8125 v -2 z m 8.8125,6 v 7 h -10.8125 c 0,1.0907 0.90929,2 2,2 h 8.8125 c 1.09069,0 2,-0.90929 2,-2 v -7 z" />
    <path
       style="color:#000000;font-style:normal;font-variant:normal;font-weight:normal;font-stretch:normal;font-size:medium;line-height:normal;font-family:sans-serif;text-indent:0;text-align:start;text-decoration:none;text-decoration-line:none;text-decoration-style:solid;text-decoration-color:#000000;letter-spacing:normal;word-spacing:normal;text-transform:none;writing-mode:lr-tb;direction:ltr;baseline-shift:baseline;text-anchor:start;white-space:normal;clip-rule:nonzero;display:inline;overflow:visible;visibility:visible;opacity:1;isolation:auto;mix-blend-mode:normal;color-interpolation:sRGB;color-interpolation-filters:linearRGB;solid-color:#000000;solid-opacity:1;fill:#f1f2f2;fill-opacity:1;fill-rule:nonzero;stroke:none;stroke-width:1;stroke-linecap:round;stroke-linejoin:miter;stroke-miterlimit:4;stroke-dasharray:none;stroke-dashoffset:0;stroke-opacity:1;color-rendering:auto;image-rendering:auto;shape-rendering:auto;text-rendering:auto;enable-background:accumulate"
       id="path3601-2-3-3-9-34-9"
       d="m 261.68945,879 a 0.50005,0.50005 0 1 0 0,1 H 263.5 a 0.50005,0.50005 0 1 0 0,-1 z" />
    <path
       style="color:#000000;font-style:normal;font-variant:normal;font-weight:normal;font-stretch:normal;font-size:medium;line-height:normal;font-family:sans-serif;text-indent:0;text-align:start;text-decoration:none;text-decoration-line:none;text-decoration-style:solid;text-decoration-color:#000000;letter-spacing:normal;word-spacing:normal;text-transform:none;writing-mode:lr-tb;direction:ltr;baseline-shift:baseline;text-anchor:start;white-space:normal;clip-rule:nonzero;display:inline;overflow:visible;visibility:visible;opacity:1;isolation:auto;mix-blend-mode:normal;color-interpolation:sRGB;color-interpolation-filters:linearRGB;solid-color:#000000;solid-opacity:1;fill:#f1f2f2;fill-opacity:1;fill-rule:nonzero;stroke:none;stroke-width:1;stroke-linecap:round;stroke-linejoin:miter;stroke-miterlimit:4;stroke-dasharray:none;stroke-dashoffset:0;stroke-opacity:1;color-rendering:auto;image-rendering:auto;shape-rendering:auto;text-rendering:auto;enable-background:accumulate"
       id="path3601-2-3-3-9-3-0-1"
       d="m 261.68945,877 a 0.50005,0.50005 0 1 0 0,1 H 263.5 a 0.50005,0.50005 0 1 0 0,-1 z" />
    <path
       style="color:#000000;font-style:normal;font-variant:normal;font-weight:normal;font-stretch:normal;font-size:medium;line-height:normal;font-family:sans-serif;text-indent:0;text-align:start;text-decoration:none;text-decoration-line:none;text-decoration-style:solid;text-decoration-color:#000000;letter-spacing:normal;word-spacing:normal;text-transform:none;writing-mode:lr-tb;direction:ltr;baseline-shift:baseline;text-anchor:start;white-space:normal;clip-rule:nonzero;display:inline;overflow:visible;visibility:visible;opacity:1;isolation:auto;mix-blend-mode:normal;color-interpolation:sRGB;color-interpolation-filters:linearRGB;solid-color:#000000;solid-opacity:1;fill:#f1f2f2;fill-opacity:1;fill-rule:nonzero;stroke:none;stroke-width:1;stroke-linecap:round;stroke-linejoin:miter;stroke-miterlimit:4;stroke-dasharray:none;stroke-dashoffset:0;stroke-opacity:1;color-rendering:auto;image-rendering:auto;shape-rendering:auto;text-rendering:auto;enable-background:accumulate"
       id="path3601-2-3-3-9-3-3-4-5"
       d="m 261.68945,875 a 0.50005,0.50005 0 1 0 0,1 H 263.5 a 0.50005,0.50005 0 1 0 0,-1 z" />
    <path
       style="color:#000000;font-style:normal;font-variant:normal;font-weight:normal;font-stretch:normal;font-size:medium;line-height:normal;font-family:sans-serif;text-indent:0;text-align:start;text-decoration:none;text-decoration-line:none;text-decoration-style:solid;text-decoration-color:#000000;letter-spacing:normal;word-spacing:normal;text-transform:none;writing-mode:lr-tb;direction:ltr;baseline-shift:baseline;text-anchor:start;white-space:normal;clip-rule:nonzero;display:inline;overflow:visible;visibility:visible;opacity:1;isolation:auto;mix-blend-mode:normal;color-interpolation:sRGB;color-interpolation-filters:linearRGB;solid-color:#000000;solid-opacity:1;fill:#f1f2f2;fill-opacity:1;fill-rule:nonzero;stroke:none;stroke-width:1;stroke-linecap:round;stroke-linejoin:miter;stroke-miterlimit:4;stroke-dasharray:none;stroke-dashoffset:0;stroke-opacity:1;color-rendering:auto;image-rendering:auto;shape-rendering:auto;text-rendering:auto;enable-background:accumulate"
       id="path3601-2-3-3-9-3-3-7-0-8"
       d="m 261.68945,873 a 0.50005,0.50005 0 1 0 0,1 H 263.5 a 0.50005,0.50005 0 1 0 0,-1 z" />
    <path
       style="color:#000000;font-style:normal;font-variant:normal;font-weight:normal;font-stretch:normal;font-size:medium;line-height:normal;font-family:sans-serif;text-indent:0;text-align:start;text-decoration:none;text-decoration-line:none;text-decoration-style:solid;text-decoration-color:#000000;letter-spacing:normal;word-spacing:normal;text-transform:none;writing-mode:lr-tb;direction:ltr;baseline-shift:baseline;text-anchor:start;white-space:normal;clip-rule:nonzero;display:inline;overflow:visible;visibility:visible;opacity:1;isolation:auto;mix-blend-mode:normal;color-interpolation:sRGB;color-interpolation-filters:linearRGB;solid-color:#000000;solid-opacity:1;fill:#f1f2f2;fill-opacity:1;fill-rule:nonzero;stroke:none;stroke-width:1;stroke-linecap:round;stroke-linejoin:miter;stroke-miterlimit:4;stroke-dasharray:none;stroke-dashoffset:0;stroke-opacity:1;color-rendering:auto;image-rendering:auto;shape-rendering:auto;text-rendering:auto;enable-background:accumulate"
       id="path35635-8"
       d="m 261.68945,871 a 0.50005,0.50005 0 1 0 0,1 H 263.5 a 0.50005,0.50005 0 1 0 0,-1 z" />
    <path
       id="path35642-5"
       d="m 268.0002,877 c 0.32762,0.0664 0.66579,0.007 1,0 0.33355,-0.007 0.66868,0.0392 1,0 0.62377,-0.0737 1.19577,-0.46158 1.52274,-0.99787 0.32697,-0.53629 0.41177,-1.20749 0.26,-1.81699 -0.15177,-0.60949 -0.53175,-1.15378 -1.03205,-1.53354 -0.5003,-0.37976 -1.11579,-0.59773 -1.74158,-0.6516 -0.90784,-0.0782 -1.84201,0.19208 -2.56548,0.74605 -0.72346,0.55397 -1.22846,1.38688 -1.38113,2.2852 -0.10756,0.63289 -0.0431,1.29417 0.18467,1.89437 0.22777,0.60021 0.61825,1.13777 1.11861,1.53996 0.50037,0.40219 1.10931,0.66796 1.74444,0.76136 0.63514,0.0934 1.29481,0.0142 1.88978,-0.22694 v -1 c -0.45327,0.29856 -0.99976,0.45332 -1.54228,0.43675 -0.54251,-0.0166 -1.07854,-0.20438 -1.51276,-0.53004 -0.43421,-0.32566 -0.7646,-0.78766 -0.93241,-1.30383 -0.1678,-0.51618 -0.17225,-1.08414 -0.0125,-1.60288 0.19034,-0.61825 0.6121,-1.15862 1.15428,-1.51147 0.54219,-0.35284 1.19956,-0.51929 1.84572,-0.48853 0.53715,0.0256 1.08173,0.19329 1.48295,0.55136 0.20061,0.17903 0.36214,0.40374 0.45639,0.65556 0.0943,0.25182 0.11974,0.53077 0.0607,0.79308 -0.0541,0.24043 -0.17919,0.46445 -0.35541,0.63674 -0.17622,0.17229 -0.403,0.29225 -0.64459,0.34096 V 875 c -0.1194,-0.2972 -0.32939,-0.55729 -0.59474,-0.73665 -0.26535,-0.17936 -0.58498,-0.27726 -0.90526,-0.27726 -0.32028,0 -0.63991,0.0979 -0.90526,0.27726 -0.26535,0.17936 -0.47534,0.43945 -0.59474,0.73665 -0.15846,0.39444 -0.15178,0.85562 0.0334,1.23826 0.18515,0.38263 0.55001,0.67735 0.96663,0.76174 z m 1.03589,-0.97703 c -0.10348,0.10419 -0.24042,0.17463 -0.38536,0.19821 -0.14494,0.0236 -0.29714,1.9e-4 -0.42831,-0.0658 -0.13117,-0.066 -0.24063,-0.17433 -0.30804,-0.30479 -0.0674,-0.13046 -0.0924,-0.28241 -0.0704,-0.42759 0.0188,-0.1237 0.0714,-0.2421 0.15056,-0.33896 0.0792,-0.0969 0.18478,-0.17193 0.30228,-0.21491 0.11751,-0.043 0.24661,-0.0538 0.36961,-0.0309 0.123,0.0229 0.23958,0.0794 0.33375,0.16178"
       style="color:#000000;font-style:normal;font-variant:normal;font-weight:bold;font-stretch:normal;font-size:medium;line-height:125%;font-family:Cantarell;-inkscape-font-specification:'Cantarell Bold';text-indent:0;text-align:start;text-decoration:none;text-decoration-line:none;letter-spacing:0px;word-spacing:0px;text-transform:none;writing-mode:lr-tb;direction:ltr;baseline-shift:baseline;text-anchor:start;visibility:visible;fill:#f1f2f2;fill-opacity:1;fill-rule:nonzero;stroke:none;stroke-width:1;marker:none" />
    <path
       style="display:inline;fill:#669900;fill-opacity:1;stroke:none"
       id="path13075-5"
       d="m 273.0002,867.01972 v 1.99673 h -2 v 1.99673 h 2 v 1.99674 h 2 v -1.99674 h 2 v -1.99673 h -2 v -1.99673 z" />
  </g>
</svg>
