<?xml version="1.0" encoding="UTF-8" standalone="no"?>
<svg
   xmlns:dc="http://purl.org/dc/elements/1.1/"
   xmlns:cc="http://creativecommons.org/ns#"
   xmlns:rdf="http://www.w3.org/1999/02/22-rdf-syntax-ns#"
   xmlns:svg="http://www.w3.org/2000/svg"
   xmlns="http://www.w3.org/2000/svg"
   width="16"
   version="1.1"
	 viewBox="-4 -4 24 24"

   id="svg7384"
   height="16">
  <metadata
     id="metadata90">
    <rdf:RDF>
      <cc:Work
         rdf:about="">
        <dc:format>image/svg+xml</dc:format>
        <dc:type
           rdf:resource="http://purl.org/dc/dcmitype/StillImage" />
        <dc:title>Gnome Symbolic Icon Theme</dc:title>
      </cc:Work>
    </rdf:RDF>
  </metadata>
  <title
     id="title9167">Gnome Symbolic Icon Theme</title>
  <defs
     id="defs7386" />
  <g
     transform="translate(-160.99495,-317.04889)"
     style="display:inline"
     id="layer9">
    <path
       style="display:inline;fill:#f1f2f2;fill-opacity:1;stroke:none"
       id="rect13090-4-6-0-6"
       d="m 172.44094,319.50764 -5.94469,5.91162 c -1.30094,1.2937 -1.90062,2.80758 -1.34458,3.39435 0.55604,0.58677 2.05101,0.0177 3.35195,-1.27605 l 5.94469,-5.91163 c 1.30093,-1.2937 1.90062,-2.80758 1.34458,-3.39435 -0.55604,-0.58676 -2.05101,-0.0176 -3.35195,1.27606 z" />
    <path
       style="fill:#f1f2f2;fill-opacity:1;stroke:none"
       id="path13094-9-3-5-6"
       d="m 164.03526,319.48221 -1.22853,1.26935 5.92251,4.5004 4.53926,5.96137 1.26935,-1.22853 -2.6399,-7.86269 z" />
    <path
       style="fill:#f1f2f2;fill-opacity:1;stroke:none"
       id="path13100-6-3-1-2"
       d="m 167.29379,326.69897 -4.59545,-0.3431 -0.6983,0.7079 2.84758,2.10861 2.08162,2.84267 0.70221,-0.70329 z" />
  </g>
  <g
     transform="translate(-160.99495,-317.04889)"
     style="display:inline"
     id="layer10" />
  <g
     transform="translate(-160.99495,-317.04889)"
     id="layer11" />
  <g
     transform="translate(-160.99495,-317.04889)"
     style="display:inline"
     id="layer13" />
  <g
     transform="translate(-160.99495,-317.04889)"
     id="layer14" />
  <g
     transform="translate(-160.99495,-317.04889)"
     style="display:inline"
     id="layer15" />
  <g
     transform="translate(-160.99495,-317.04889)"
     style="display:inline"
     id="g71291" />
  <g
     transform="translate(-160.99495,-317.04889)"
     style="display:inline"
     id="g4953" />
  <g
     transform="translate(-160.99495,-317.04889)"
     style="display:inline"
     id="layer12" />
</svg>
