<?xml version="1.0" encoding="UTF-8" standalone="no"?>
<svg
   xmlns:dc="http://purl.org/dc/elements/1.1/"
   xmlns:cc="http://creativecommons.org/ns#"
   xmlns:rdf="http://www.w3.org/1999/02/22-rdf-syntax-ns#"
   xmlns:svg="http://www.w3.org/2000/svg"
   xmlns="http://www.w3.org/2000/svg"
   xmlns:sodipodi="http://sodipodi.sourceforge.net/DTD/sodipodi-0.dtd"
   xmlns:inkscape="http://www.inkscape.org/namespaces/inkscape"
   width="16"
   height="16"
   version="1"
   id="svg30"
   sodipodi:docname="amarok.svg"
   inkscape:version="0.92.1 r15371">
  <metadata
     id="metadata34">
    <rdf:RDF>
      <cc:Work
         rdf:about="">
        <dc:format>image/svg+xml</dc:format>
        <dc:type
           rdf:resource="http://purl.org/dc/dcmitype/StillImage" />
        <dc:title></dc:title>
      </cc:Work>
    </rdf:RDF>
  </metadata>
  <sodipodi:namedview
     pagecolor="#ffffff"
     bordercolor="#666666"
     borderopacity="1"
     objecttolerance="10"
     gridtolerance="10"
     guidetolerance="10"
     inkscape:pageopacity="0"
     inkscape:pageshadow="2"
     inkscape:window-width="2560"
     inkscape:window-height="1034"
     id="namedview32"
     showgrid="false"
     showguides="false"
     inkscape:zoom="14.75"
     inkscape:cx="-0.47457627"
     inkscape:cy="-10.983051"
     inkscape:window-x="0"
     inkscape:window-y="22"
     inkscape:window-maximized="1"
     inkscape:current-layer="svg30" />
  <defs
     id="defs20" />
  <path
     style="color:#000000;font-style:normal;font-variant:normal;font-weight:normal;font-stretch:normal;font-size:medium;line-height:normal;font-family:sans-serif;font-variant-ligatures:normal;font-variant-position:normal;font-variant-caps:normal;font-variant-numeric:normal;font-variant-alternates:normal;font-feature-settings:normal;text-indent:0;text-align:start;text-decoration:none;text-decoration-line:none;text-decoration-style:solid;text-decoration-color:#000000;letter-spacing:normal;word-spacing:normal;text-transform:none;writing-mode:lr-tb;direction:ltr;text-orientation:mixed;dominant-baseline:auto;baseline-shift:baseline;text-anchor:start;white-space:normal;shape-padding:0;clip-rule:nonzero;display:inline;overflow:visible;visibility:visible;opacity:1;isolation:auto;mix-blend-mode:normal;color-interpolation:sRGB;color-interpolation-filters:linearRGB;solid-color:#000000;solid-opacity:1;vector-effect:none;fill:#f1f2f2;fill-opacity:1;fill-rule:nonzero;stroke:none;stroke-width:1;stroke-linecap:round;stroke-linejoin:round;stroke-miterlimit:4;stroke-dasharray:none;stroke-dashoffset:0;stroke-opacity:1;color-rendering:auto;image-rendering:auto;shape-rendering:auto;text-rendering:auto;enable-background:accumulate"
     d="M 7.71875,0.06640625 C 5.2339944,0.15552643 2.7825618,1.3107732 1.4003906,3.5058594 v 0.00195 C -1.6890022,7.678809 0.62485715,14.311981 5.6386719,15.658203 10.531056,17.372748 16.184399,13.214784 15.994141,8.0292969 a 0.50005,0.50005 0 0 0 0,-0.011719 c -0.0016,-1.8026743 -0.60973,-3.5513533 -1.728516,-4.9648437 a 0.50005,0.50005 0 0 0 -0.02344,-0.027344 l 0.01953,0.025391 C 12.772801,1.0209142 10.347042,0.07994484 7.9316406,0.10546875 A 0.50005,0.50005 0 0 0 7.7207031,0.06640625 Z M 7.75,1.0664062 a 0.50005,0.50005 0 0 0 0.00391,0 c 2.20087,-0.0788707 4.3890608,0.7873484 5.7011718,2.5761719 a 0.50005,0.50005 0 0 0 0.02148,0.025391 c 0.0015,0.00182 0.0024,0.00405 0.0039,0.00586 0.979265,1.2372175 1.512252,2.7678359 1.513672,4.3457031 l 0.002,-0.011719 c -3.18e-4,0.014592 -3.18e-4,0.03033 0,0.044922 a 0.50005,0.50005 0 0 0 0,0.00781 c 0.167652,4.4308041 -4.846281,8.1188731 -9.0253909,6.6542971 -0.022309,-0.008 -0.043584,-0.01504 -0.066406,-0.02149 a 0.50005,0.50005 0 0 0 -0.00586,-0.002 C 1.6168185,13.54178 -0.43395945,7.6626513 2.2050781,4.1015625 a 0.50005,0.50005 0 0 0 0.00195,-0.00195 c 0.014368,-0.019603 0.028107,-0.039955 0.041016,-0.060547 C 3.4291857,2.1632445 5.5521257,1.1463359 7.75,1.0664062 Z"
     id="path26"
     inkscape:connector-curvature="0" />
  <path
     style="fill:#f1f2f2;opacity:1"
     d="M 3.9824219 4.0019531 C 3.4309668 4.0309648 2.7958281 4.9481875 3.0644531 5.1328125 L 5.109375 6.9667969 L 3.9492188 8.0605469 L 3 7.8691406 L 3.4101562 8.9160156 C 4.6521562 8.6460156 6.3749375 10.205516 6.8359375 10.728516 C 7.2879375 11.242516 8.3957031 13.808984 8.7207031 15.458984 C 8.7589596 15.643992 8.8112821 15.806223 8.8652344 15.964844 A 8 8 0 0 0 15.5 10.775391 C 15.495254 10.769511 15.449219 10.707031 15.449219 10.707031 L 13.939453 9.625 L 15.078125 6.9667969 C 14.548125 7.1117969 11.545438 5.8802656 11.898438 6.0722656 L 10.994141 6.5546875 L 10.019531 6 L 8.1191406 6.078125 L 4.2109375 4.0488281 C 4.1384375 4.0119531 4.0612012 3.9978086 3.9824219 4.0019531 z "
     id="circle22" />
</svg>
