<?xml version="1.0" encoding="UTF-8" standalone="no"?>
<svg
   xmlns:dc="http://purl.org/dc/elements/1.1/"
   xmlns:cc="http://creativecommons.org/ns#"
   xmlns:rdf="http://www.w3.org/1999/02/22-rdf-syntax-ns#"
   xmlns:svg="http://www.w3.org/2000/svg"
   xmlns="http://www.w3.org/2000/svg"
   width="16"
   version="1.1"
	 viewBox="-4 -4 24 24"

   id="svg7384"
   height="16">
  <metadata
     id="metadata90">
    <rdf:RDF>
      <cc:Work
         rdf:about="">
        <dc:format>image/svg+xml</dc:format>
        <dc:type
           rdf:resource="http://purl.org/dc/dcmitype/StillImage" />
        <dc:title>Gnome Symbolic Icon Theme</dc:title>
      </cc:Work>
    </rdf:RDF>
  </metadata>
  <title
     id="title9167">Gnome Symbolic Icon Theme</title>
  <defs
     id="defs7386" />
  <g
     transform="translate(-561,-301.00012)"
     style="display:inline"
     id="layer9" />
  <g
     transform="translate(-561,-301.00012)"
     id="layer10" />
  <g
     transform="translate(-561,-301.00012)"
     id="layer11" />
  <g
     transform="translate(-561,-301.00012)"
     id="layer13" />
  <g
     transform="translate(-561,-301.00012)"
     id="layer14">
    <path
       id="path4983"
       d="m 325.0625,97.1875 a 2,3.236068 0 0 1 -2,3.23607 2,3.236068 0 0 1 -2,-3.23607 2,3.236068 0 0 1 2,-3.236068 2,3.236068 0 0 1 2,3.236068 z"
       style="color:#000000;display:inline;overflow:visible;visibility:visible;fill:#f1f2f2;fill-opacity:1;fill-rule:nonzero;stroke:none;stroke-width:1.69602728;marker:none;enable-background:new"
       transform="matrix(1.0000007,0,0,0.61803426,241.93747,252.93479)" />
    <path
       style="color:#000000;display:inline;overflow:visible;visibility:visible;fill:#f1f2f2;fill-opacity:1;fill-rule:nonzero;stroke:none;stroke-width:1.33333492;marker:none;enable-background:new"
       id="path5814"
       d="m 563.0002,303 v 1 c 0,0.55016 0.45347,1 1,1 4.97056,0 9,4.02944 9,9 0,0.55016 0.45347,1 1,1 h 1 v -1 c 0,-6.07513 -4.92487,-11 -11,-11 z m 0,4 v 1 c 0,0.55016 0.45347,1 1,1 2.76143,0 5,2.23857 5,5 0,0.55016 0.45347,1 1,1 h 1 v -1 c 0,-3.866 -3.134,-7 -7,-7 z" />
  </g>
  <g
     transform="translate(-561,-301.00012)"
     style="display:inline"
     id="layer15" />
  <g
     transform="translate(-561,-301.00012)"
     style="display:inline"
     id="g71291" />
  <g
     transform="translate(-561,-301.00012)"
     style="display:inline"
     id="g4953" />
  <g
     transform="translate(-561,-301.00012)"
     style="display:inline"
     id="layer12" />
</svg>
