<?xml version="1.0" encoding="UTF-8" standalone="no"?>
<svg
   xmlns:dc="http://purl.org/dc/elements/1.1/"
   xmlns:cc="http://creativecommons.org/ns#"
   xmlns:rdf="http://www.w3.org/1999/02/22-rdf-syntax-ns#"
   xmlns:svg="http://www.w3.org/2000/svg"
   xmlns="http://www.w3.org/2000/svg"
   id="svg7384"
   version="1.1"
	 viewBox="-4 -4 24 24"

   height="16.000193"
   width="16">
  <metadata
     id="metadata90">
    <rdf:RDF>
      <cc:Work
         rdf:about="">
        <dc:format>image/svg+xml</dc:format>
        <dc:type
           rdf:resource="http://purl.org/dc/dcmitype/StillImage" />
        <dc:title>Gnome Symbolic Icon Theme</dc:title>
      </cc:Work>
    </rdf:RDF>
  </metadata>
  <title
     id="title9167">Gnome Symbolic Icon Theme</title>
  <defs
     id="defs7386" />
  <g
     transform="translate(-522.0002,-462)"
     id="layer9"
     style="display:inline" />
  <g
     transform="translate(-522.0002,-462)"
     id="layer10" />
  <g
     transform="translate(-522.0002,-462)"
     id="layer11" />
  <g
     transform="translate(-522.0002,-462)"
     id="layer13" />
  <g
     transform="translate(-522.0002,-462)"
     id="layer14" />
  <g
     transform="translate(-522.0002,-462)"
     id="layer15"
     style="display:inline" />
  <g
     transform="translate(-522.0002,-462)"
     id="g71291"
     style="display:inline" />
  <g
     transform="translate(-522.0002,-462)"
     id="g4953"
     style="display:inline">
    <path
       d="m 529.99708,470 c -3.99844,0 -5.99766,3 -5.99766,6 h -1.74932 c -0.2499,0 -0.2499,0.15712 -0.2499,0.25 v 1.5 c 0,0.25 0.13814,0.25 0.2499,0.25 h 15.49396 c 0.19535,0.006 0.2499,-0.12948 0.2499,-0.25 v -1.5 c 0.0212,-0.14605 0,-0.25 -0.2499,-0.25 h -1.74932 c 0,-3 -1.99922,-6 -5.99766,-6 z m 0,3 c 2.3501,0 2.99883,1.76177 2.99883,3 h -5.99766 c 0,-1.19769 0.70253,-3 2.99883,-3 z"
       id="rect7157"
       style="display:inline;fill:#f1f2f2;fill-opacity:1;fill-rule:evenodd;stroke:none;enable-background:new" />
    <path
       d="m 536.98911,462.59983 c -0.28315,-0.24009 -0.6238,-0.41924 -0.96653,-0.5613 l -0.0217,2.23198 c -0.005,0.45867 -0.4519,0.72949 -1.00572,0.72949 h -0.99961 c -0.55376,-0.007 -1.00306,-0.30935 -0.9986,-0.76802 L 533.01865,462 c -0.34541,0.13322 -0.68945,0.3036 -0.9772,0.53638 -1.37728,1.11412 -1.39514,2.94888 -0.0399,4.09805 0.28315,0.24009 0.6238,0.41924 0.96652,0.56131 0.0278,0.0113 0.0278,2.05426 0.0278,2.05426 1.48949,0.75 2.35093,1.75 2.99883,2.75 v -4.74827 c 0.3454,-0.13322 0.66671,-0.32107 0.95447,-0.55384 1.37727,-1.11412 1.39514,-2.94889 0.0399,-4.09806 z"
       id="path3908-6"
       style="color:#000000;font-style:normal;font-variant:normal;font-weight:normal;font-stretch:normal;font-size:medium;line-height:normal;font-family:Sans;-inkscape-font-specification:Sans;text-indent:0;text-align:start;text-decoration:none;text-decoration-line:none;letter-spacing:normal;word-spacing:normal;text-transform:none;writing-mode:lr-tb;direction:ltr;text-anchor:start;display:inline;overflow:visible;visibility:visible;fill:#f1f2f2;fill-opacity:1;fill-rule:nonzero;stroke:none;stroke-width:3;marker:none;enable-background:accumulate" />
  </g>
  <g
     transform="translate(-522.0002,-462)"
     id="layer12"
     style="display:inline" />
</svg>
