<?xml version="1.0" encoding="UTF-8" standalone="no"?>
<svg
   xmlns:dc="http://purl.org/dc/elements/1.1/"
   xmlns:cc="http://creativecommons.org/ns#"
   xmlns:rdf="http://www.w3.org/1999/02/22-rdf-syntax-ns#"
   xmlns:svg="http://www.w3.org/2000/svg"
   xmlns="http://www.w3.org/2000/svg"
   width="16"
   version="1.1"
	 viewBox="-4 -4 24 24"

   id="svg7384"
   height="16.000038">
  <metadata
     id="metadata90">
    <rdf:RDF>
      <cc:Work
         rdf:about="">
        <dc:format>image/svg+xml</dc:format>
        <dc:type
           rdf:resource="http://purl.org/dc/dcmitype/StillImage" />
        <dc:title>Gnome Symbolic Icon Theme</dc:title>
      </cc:Work>
    </rdf:RDF>
  </metadata>
  <title
     id="title9167">Gnome Symbolic Icon Theme</title>
  <defs
     id="defs7386" />
  <g
     transform="translate(-601,-460.99997)"
     style="display:inline"
     id="layer9" />
  <g
     transform="translate(-601,-460.99997)"
     style="display:inline"
     id="layer10" />
  <g
     transform="translate(-601,-460.99997)"
     id="layer11" />
  <g
     transform="translate(-601,-460.99997)"
     style="display:inline"
     id="layer13" />
  <g
     transform="translate(-601,-460.99997)"
     id="layer14" />
  <g
     transform="translate(-601,-460.99997)"
     style="display:inline"
     id="layer15" />
  <g
     transform="translate(-601,-460.99997)"
     style="display:inline"
     id="g71291" />
  <g
     transform="translate(-601,-460.99997)"
     style="display:inline"
     id="g4953">
    <path
       style="color:#000000;display:inline;overflow:visible;visibility:visible;fill:#f1f2f2;fill-opacity:1;fill-rule:nonzero;stroke:none;stroke-width:1.50793636;marker:none;enable-background:new"
       id="rect6190-8-8-4"
       d="m 610.0002,469 v 1 3.28125 c -0.29454,-0.17076 -0.63503,-0.28125 -1,-0.28125 -1.10457,0 -2,0.89543 -2,2 0,1.10457 0.89543,2 2,2 1.10457,0 2,-0.89543 2,-2 v -5 h 4 v 3.28125 c -0.29454,-0.17076 -0.63503,-0.28125 -1,-0.28125 -1.10457,0 -2,0.89543 -2,2 0,1.10457 0.89543,2 2,2 1.10457,0 2,-0.89543 2,-2 v -5 -1 h -1 -4 z" />
    <path
       style="color:#000000;display:inline;overflow:visible;visibility:visible;fill:#f1f2f2;fill-opacity:1;fill-rule:nonzero;stroke:none;stroke-width:1.50793636;marker:none;enable-background:new"
       id="rect5523-5"
       d="m 602.96895,461 c 0,0 -0.96875,1 -0.96875,2 v 12 c 0,1.00959 -1,2 -1,2 h 1 c 0,0 0.42287,-0.42699 0.71875,-1 h 1 c -0.29588,0.57301 -0.71875,1 -0.71875,1 h 1 c 0,0 1,-1.02145 1,-2 v -2 h 1 v -1 h -1 v -5 h 8 v 1 h 1 1 1 v -5 c 0,-1 0.96875,-2 0.96875,-2 h -3 c 0,0 -0.96875,1 -0.96875,2 v 3 h -8 v -3 c 0,-1 0.96875,-2 0.96875,-2 z m 0.3125,1 h 1 c -0.15291,0.30578 -0.28125,0.65211 -0.28125,1 h -1 c 0,-0.34789 0.12834,-0.69422 0.28125,-1 z m 11,0 h 1 c -0.15291,0.30578 -0.28125,0.65211 -0.28125,1 h -1 c 0,-0.34789 0.12834,-0.69422 0.28125,-1 z m -11.28125,2 h 1 v 1 h -1 z m 11,0 h 1 v 1 h -1 z m -11,2 h 1 v 1 h -1 z m 11,0 h 1 v 1 h -1 z m -11,2 h 1 v 1 h -1 z m 0,2 h 1 v 1 h -1 z m 0,2 h 1 v 1 h -1 z m 0,2 h 1 v 1 h -1 z" />
  </g>
  <g
     transform="translate(-601,-460.99997)"
     style="display:inline"
     id="layer12" />
</svg>
