<?xml version="1.0" encoding="UTF-8" standalone="no"?>
<svg
   xmlns:dc="http://purl.org/dc/elements/1.1/"
   xmlns:cc="http://creativecommons.org/ns#"
   xmlns:rdf="http://www.w3.org/1999/02/22-rdf-syntax-ns#"
   xmlns:svg="http://www.w3.org/2000/svg"
   xmlns="http://www.w3.org/2000/svg"
   id="svg7384"
   height="16"
   version="1.1"
	 viewBox="-4 -4 24 24"

   width="16">
  <metadata
     id="metadata90">
    <rdf:RDF>
      <cc:Work
         rdf:about="">
        <dc:format>image/svg+xml</dc:format>
        <dc:type
           rdf:resource="http://purl.org/dc/dcmitype/StillImage" />
        <dc:title>Gnome Symbolic Icon Theme</dc:title>
      </cc:Work>
    </rdf:RDF>
  </metadata>
  <title
     id="title9167">Gnome Symbolic Icon Theme</title>
  <defs
     id="defs7386" />
  <g
     transform="translate(-502.0002,-299.99988)"
     style="display:inline"
     id="layer9" />
  <g
     transform="translate(-502.0002,-299.99988)"
     id="layer10" />
  <g
     transform="translate(-502.0002,-299.99988)"
     id="layer11" />
  <g
     transform="translate(-502.0002,-299.99988)"
     id="layer13" />
  <g
     transform="translate(-502.0002,-299.99988)"
     id="layer14">
    <path
       style="color:#000000;font-style:normal;font-variant:normal;font-weight:normal;font-stretch:normal;font-size:medium;line-height:normal;font-family:Sans;-inkscape-font-specification:Sans;text-indent:0;text-align:start;text-decoration:none;text-decoration-line:none;letter-spacing:normal;word-spacing:normal;text-transform:none;writing-mode:lr-tb;direction:ltr;baseline-shift:baseline;text-anchor:start;display:inline;overflow:visible;visibility:visible;fill:#f1f2f2;fill-opacity:1;stroke:none;stroke-width:1.99999988;marker:none;enable-background:accumulate"
       id="path1234-2"
       d="m 504.0002,301.99988 c -0.52358,5e-5 -0.99995,0.47642 -1,1 v 10 c 5e-5,0.52358 0.47642,0.99995 1,1 h 3.00009 v -2 c 0,0 -1.99293,-0.0211 -2.00009,10e-5 V 304 h 10.99999 l 6.6e-4,7.99988 h -1.00055 v 2 h 2.0006 c 0.5193,0 0.9993,-0.43501 0.9993,-0.99988 v -10 c 7.5e-4,-0.46663 -0.43709,-1.00012 -1,-0.9999 z" />
    <path
       style="fill:#f1f2f2;fill-opacity:1;fill-rule:nonzero;stroke:none"
       id="path4136-5"
       d="m 513.99939,308.06279 a 3,3 0 0 1 -5.99868,0 3,3 0 1 1 5.99868,0 z" />
    <path
       style="fill:#f1f2f2;fill-opacity:1;fill-rule:evenodd;stroke:none"
       id="path3655-4-1"
       d="m 510.00036,308.99988 -2.00024,7 h 1 l 2.00018,-2 1.99982,2 h 1 l -1.99987,-7" />
  </g>
  <g
     transform="translate(-502.0002,-299.99988)"
     style="display:inline"
     id="layer15" />
  <g
     transform="translate(-502.0002,-299.99988)"
     style="display:inline"
     id="g71291" />
  <g
     transform="translate(-502.0002,-299.99988)"
     style="display:inline"
     id="g4953" />
  <g
     transform="translate(-502.0002,-299.99988)"
     style="display:inline"
     id="layer12" />
</svg>
