<?xml version="1.0" encoding="UTF-8" standalone="no"?>
<svg
   xmlns:dc="http://purl.org/dc/elements/1.1/"
   xmlns:cc="http://creativecommons.org/ns#"
   xmlns:rdf="http://www.w3.org/1999/02/22-rdf-syntax-ns#"
   xmlns:svg="http://www.w3.org/2000/svg"
   xmlns="http://www.w3.org/2000/svg"
   height="16"
   version="1.1"
	 viewBox="-4 -4 24 24"

   id="svg7384"
   width="16">
  <metadata
     id="metadata90">
    <rdf:RDF>
      <cc:Work
         rdf:about="">
        <dc:format>image/svg+xml</dc:format>
        <dc:type
           rdf:resource="http://purl.org/dc/dcmitype/StillImage" />
        <dc:title>Gnome Symbolic Icon Theme</dc:title>
      </cc:Work>
    </rdf:RDF>
  </metadata>
  <title
     id="title9167">Gnome Symbolic Icon Theme</title>
  <defs
     id="defs7386" />
  <g
     transform="translate(-482.00018,-461.99942)"
     style="display:inline"
     id="layer9" />
  <g
     transform="translate(-482.00018,-461.99942)"
     id="layer10" />
  <g
     transform="translate(-482.00018,-461.99942)"
     id="layer11" />
  <g
     transform="translate(-482.00018,-461.99942)"
     id="layer13" />
  <g
     transform="translate(-482.00018,-461.99942)"
     id="layer14" />
  <g
     transform="translate(-482.00018,-461.99942)"
     style="display:inline"
     id="layer15" />
  <g
     transform="translate(-482.00018,-461.99942)"
     style="display:inline"
     id="g71291" />
  <g
     transform="translate(-482.00018,-461.99942)"
     style="display:inline"
     id="g4953">
    <path
       id="rect5455"
       d="m 484.93389,461.99942 h 0.13258 c 1.62528,0 2.93371,1.33176 2.93371,2.986 v 10.028 c 0,1.65424 -1.30843,2.986 -2.93371,2.986 h -0.13258 c -1.62527,0 -2.93371,-1.33176 -2.93371,-2.986 v -10.028 c 0,-1.65424 1.30844,-2.986 2.93371,-2.986 z"
       style="color:#000000;display:inline;overflow:visible;visibility:visible;fill:#f1f2f2;fill-opacity:1;fill-rule:nonzero;stroke:none;stroke-width:2;marker:none;enable-background:accumulate" />
    <path
       d="m 487.40645,461.99942 c 0.87799,0.71298 1.46875,1.79213 1.46875,3 v 1 h 2.125 c -0.0742,-1.09265 1.2487,-2 2,-2 0.68073,0 1,0.0117 1,1 v 1 h 1.21875 c 1.22869,-0.60001 1.78125,-1.96908 1.78125,-2.6875 0,-0.73589 -2.38538,-1.3125 -3.6875,-1.3125 z"
       style="color:#000000;display:inline;overflow:visible;visibility:visible;fill:#f1f2f2;fill-opacity:1;fill-rule:nonzero;stroke:none;stroke-width:2;marker:none;enable-background:accumulate"
       id="path256-4-4" />
    <path
       d="m 489.0002,467 v 4.3125 c 2.76625,2.66159 6.12501,2.40625 6.12501,2.40625 0,0 0.35286,-1.5209 -1.90624,-4.03125 L 490.84396,467 h -0.625 -1.15625 c -0.0213,0.002 -0.0412,-0.002 -0.0625,0 z m 2.97505,2.53185 1.68345,1.73676 c -1.799,0.16548 -2.15075,-0.85626 -1.68345,-1.73676 z"
       style="color:#000000;display:inline;overflow:visible;visibility:visible;fill:#f1f2f2;fill-opacity:1;fill-rule:nonzero;stroke:none;stroke-width:2;marker:none;enable-background:accumulate"
       id="path249-7-76" />
  </g>
  <g
     transform="translate(-482.00018,-461.99942)"
     style="display:inline"
     id="layer12" />
</svg>
