<?xml version="1.0" encoding="UTF-8" standalone="no"?>
<svg
   xmlns:dc="http://purl.org/dc/elements/1.1/"
   xmlns:cc="http://creativecommons.org/ns#"
   xmlns:rdf="http://www.w3.org/1999/02/22-rdf-syntax-ns#"
   xmlns:svg="http://www.w3.org/2000/svg"
   xmlns="http://www.w3.org/2000/svg"
   id="svg7384"
   width="16"
   version="1.1"
	 viewBox="-4 -4 24 24"

   height="16">
  <metadata
     id="metadata90">
    <rdf:RDF>
      <cc:Work
         rdf:about="">
        <dc:format>image/svg+xml</dc:format>
        <dc:type
           rdf:resource="http://purl.org/dc/dcmitype/StillImage" />
        <dc:title>Gnome Symbolic Icon Theme</dc:title>
      </cc:Work>
    </rdf:RDF>
  </metadata>
  <title
     id="title9167">Gnome Symbolic Icon Theme</title>
  <defs
     id="defs7386" />
  <g
     style="display:inline"
     id="layer9"
     transform="translate(-161.0002,-397)">
    <path
       style="color:#000000;font-style:normal;font-variant:normal;font-weight:normal;font-stretch:normal;font-size:medium;line-height:normal;font-family:Sans;-inkscape-font-specification:Sans;text-indent:0;text-align:start;text-decoration:none;text-decoration-line:none;letter-spacing:normal;word-spacing:normal;text-transform:none;writing-mode:lr-tb;direction:ltr;baseline-shift:baseline;text-anchor:start;display:inline;overflow:visible;visibility:visible;fill:#f1f2f2;fill-opacity:1;stroke:none;stroke-width:2.54545712;marker:none;enable-background:accumulate"
       id="path3869-25"
       d="m 167.5002,397 c -3.578,0 -6.5,2.92199 -6.5,6.5 0,3.57801 2.922,6.5 6.5,6.5 0.1705,0 0.33269,-0.0182 0.5,-0.0312 v -2.03125 c -0.16732,0.0186 -0.32741,0.0625 -0.5,0.0625 -2.49712,0 -4.5,-2.00288 -4.5,-4.5 0,-2.49712 2.00288,-4.5 4.5,-4.5 2.49712,0 4.5,2.00288 4.5,4.5 0,0.1726 -0.0439,0.33268 -0.0625,0.5 h 2.03125 c 0.013,-0.16731 0.0312,-0.3295 0.0312,-0.5 0,-3.57801 -2.922,-6.5 -6.5,-6.5 z" />
    <path
       style="color:#000000;font-style:normal;font-variant:normal;font-weight:normal;font-stretch:normal;font-size:medium;line-height:normal;font-family:Sans;-inkscape-font-specification:Sans;text-indent:0;text-align:start;text-decoration:none;text-decoration-line:none;letter-spacing:normal;word-spacing:normal;text-transform:none;writing-mode:lr-tb;direction:ltr;baseline-shift:baseline;text-anchor:start;display:inline;overflow:visible;visibility:visible;fill:#f1f2f2;fill-opacity:1;stroke:none;stroke-width:1;marker:none;enable-background:accumulate"
       id="path4639-4"
       d="M 167.40625,400 A 0.50005,0.50005 0 0 0 167,400.5 v 2.5 h -1.5 a 0.50005,0.50005 0 1 0 0,1 h 2 a 0.50005,0.50005 0 0 0 0.5,-0.5 v -3 a 0.50005,0.50005 0 0 0 -0.59375,-0.5 z" />
    <path
       style="color:#f1f2f2;display:inline;overflow:visible;visibility:visible;fill:#ff6600;fill-opacity:1;fill-rule:nonzero;stroke:none;stroke-width:2;marker:none"
       class="warning"
       id="path10898-2-9-4"
       d="m 169.8752,405.06918 c -0.49245,0 -0.875,0.37924 -0.875,0.8674 v 6.19571 c 0,0.48816 0.38255,0.8674 0.875,0.8674 h 6.25 c 0.49245,0 0.875,-0.37924 0.875,-0.8674 v -6.19571 c 0,-0.48816 -0.38255,-0.8674 -0.875,-0.8674 z m 2.125,0.99131 h 2 v 3.96526 h -2 z m 0,4.95657 h 2 v 0.99132 h -2 z" />
  </g>
  <g
     id="layer10"
     transform="translate(-161.0002,-397)" />
  <g
     id="layer11"
     transform="translate(-161.0002,-397)" />
  <g
     id="layer13"
     transform="translate(-161.0002,-397)" />
  <g
     id="layer14"
     transform="translate(-161.0002,-397)" />
  <g
     style="display:inline"
     id="layer15"
     transform="translate(-161.0002,-397)" />
  <g
     style="display:inline"
     id="g71291"
     transform="translate(-161.0002,-397)" />
  <g
     style="display:inline"
     id="g4953"
     transform="translate(-161.0002,-397)" />
  <g
     style="display:inline"
     id="layer12"
     transform="translate(-161.0002,-397)" />
</svg>
