<?xml version="1.0" encoding="UTF-8" standalone="no"?>
<svg
   xmlns:dc="http://purl.org/dc/elements/1.1/"
   xmlns:cc="http://creativecommons.org/ns#"
   xmlns:rdf="http://www.w3.org/1999/02/22-rdf-syntax-ns#"
   xmlns:svg="http://www.w3.org/2000/svg"
   xmlns="http://www.w3.org/2000/svg"
   width="16.000002"
   version="1.1"
	 viewBox="-4 -4 24 24"

   id="svg7384"
   height="16">
  <metadata
     id="metadata90">
    <rdf:RDF>
      <cc:Work
         rdf:about="">
        <dc:format>image/svg+xml</dc:format>
        <dc:type
           rdf:resource="http://purl.org/dc/dcmitype/StillImage" />
        <dc:title>Gnome Symbolic Icon Theme</dc:title>
      </cc:Work>
    </rdf:RDF>
  </metadata>
  <title
     id="title9167">Gnome Symbolic Icon Theme</title>
  <defs
     id="defs7386" />
  <g
     transform="translate(-61.0002,-467)"
     style="display:inline"
     id="layer9" />
  <g
     transform="translate(-61.0002,-467)"
     id="layer10">
    <path
       id="rect8337"
       d="m -75.978084,475.23813 c 0.98835,0 1.784025,0.8308 1.784025,1.86278 v 2.32612 c 0,1.03198 -0.795675,1.86278 -1.784025,1.86278 -0.988349,0 -1.784024,-0.8308 -1.784024,-1.86278 v -2.32612 c 0,-1.03198 0.795675,-1.86278 1.784024,-1.86278 z"
       style="fill:#f1f2f2;fill-opacity:1;stroke:none"
       transform="matrix(0.95982607,-0.28059566,0.29019891,0.95696635,0,0)" />
    <path
       style="fill:#f1f2f2;fill-opacity:1;stroke:none"
       id="rect8346"
       d="m 68.968788,468 c -3.305456,0 -6.023914,3.00835 -5.968586,5.71875 0.04825,2.36557 0.808593,4.69547 1,5.28125 1.583096,0 0,0 1.525504,0 -1.16149,-2.29152 -1.049064,-5.1562 -1.049064,-5.1562 0,-2.37255 2.006651,-4.31249 4.492146,-4.3125 2.485496,0 4.499787,1.82687 4.492147,4.28125 -0.02342,1.67413 -0.171684,2.65858 -1.005236,5.1875 h 1.570681 c 0.224499,-0.64458 0.973822,-3.19046 0.973822,-5.28125 0,-2.8298 -2.725958,-5.71875 -6.031414,-5.71875 z" />
    <path
       id="rect8371"
       d="m -208.05596,436.54532 c 0.98835,0 1.78403,0.8308 1.78403,1.86278 v 2.32612 c 0,1.03198 -0.79568,1.86278 -1.78403,1.86278 -0.98835,0 -1.78402,-0.8308 -1.78402,-1.86278 v -2.32612 c 0,-1.03198 0.79567,-1.86278 1.78402,-1.86278 z"
       style="fill:#f1f2f2;fill-opacity:1;stroke:none"
       transform="matrix(-0.95982607,-0.28059566,-0.29019891,0.95696635,0,0)" />
  </g>
  <g
     transform="translate(-61.0002,-467)"
     id="layer11" />
  <g
     transform="translate(-61.0002,-467)"
     id="layer13" />
  <g
     transform="translate(-61.0002,-467)"
     id="layer14" />
  <g
     transform="translate(-61.0002,-467)"
     style="display:inline"
     id="layer15" />
  <g
     transform="translate(-61.0002,-467)"
     style="display:inline"
     id="g71291" />
  <g
     transform="translate(-61.0002,-467)"
     style="display:inline"
     id="g4953" />
  <g
     transform="translate(-61.0002,-467)"
     style="display:inline"
     id="layer12" />
</svg>
