<?xml version="1.0" encoding="UTF-8" standalone="no"?>
<svg
   xmlns:dc="http://purl.org/dc/elements/1.1/"
   xmlns:cc="http://creativecommons.org/ns#"
   xmlns:rdf="http://www.w3.org/1999/02/22-rdf-syntax-ns#"
   xmlns:svg="http://www.w3.org/2000/svg"
   xmlns="http://www.w3.org/2000/svg"
   width="16"
   version="1.1"
	 viewBox="-4 -4 24 24"

   id="svg7384"
   height="16">
  <metadata
     id="metadata90">
    <rdf:RDF>
      <cc:Work
         rdf:about="">
        <dc:format>image/svg+xml</dc:format>
        <dc:type
           rdf:resource="http://purl.org/dc/dcmitype/StillImage" />
        <dc:title>Gnome Symbolic Icon Theme</dc:title>
      </cc:Work>
    </rdf:RDF>
  </metadata>
  <title
     id="title9167">Gnome Symbolic Icon Theme</title>
  <defs
     id="defs7386" />
  <g
     transform="translate(-61,-447)"
     style="display:inline"
     id="layer9" />
  <g
     transform="translate(-61,-447)"
     style="display:inline"
     id="layer10">
    <path
       style="color:#f1f2f2;font-style:normal;font-variant:normal;font-weight:normal;font-stretch:normal;font-size:medium;line-height:normal;font-family:Sans;-inkscape-font-specification:Sans;text-indent:0;text-align:start;text-decoration:none;text-decoration-line:none;letter-spacing:normal;word-spacing:normal;text-transform:none;writing-mode:lr-tb;direction:ltr;baseline-shift:baseline;text-anchor:start;display:inline;overflow:visible;visibility:visible;fill:#f1f2f2;fill-opacity:1;stroke:none;stroke-width:1.00302994;marker:none;enable-background:accumulate"
       id="rect6806"
       d="m 64.5002,452 c -0.27614,0 -0.5,0.22386 -0.5,0.5 v 2.96875 c 0,1.96838 1.25801,3.62455 3,4.25 V 461 h -2 c -0.56475,0 -1,0.49007 -1,1 v 1 h 0.84375 2.15625 5 0.0937 0.90625 v -1 c -6e-5,-0.58435 -0.47642,-0.99995 -1,-1 h -2 v -1.28125 c 1.74199,-0.62545 3,-2.28162 3,-4.25 V 452.5 c 0,-0.27614 -0.22386,-0.5 -0.5,-0.5 -0.27614,0 -0.5,0.22386 -0.5,0.5 0,0.069 0.006,0.12768 0.0312,0.1875 v 2.78125 c 0,1.96415 -1.57895,3.53125 -3.53125,3.53125 -1.9523,0 -3.5,-1.5671 -3.5,-3.53125 V 452.5 c 0,-0.27614 -0.22386,-0.5 -0.5,-0.5 z M 68.5,447.98712 c 1.385,0 2.5,1.115 2.5,2.5 V 455.5 c 0,1.385 -1.115,2.5 -2.5,2.5 -1.385,0 -2.5,-1.115 -2.5,-2.5 v -5.01288 c 0,-1.385 1.115,-2.5 2.5,-2.5 z" />
  </g>
  <g
     transform="translate(-61,-447)"
     id="layer11" />
  <g
     transform="translate(-61,-447)"
     style="display:inline"
     id="layer13" />
  <g
     transform="translate(-61,-447)"
     id="layer14" />
  <g
     transform="translate(-61,-447)"
     style="display:inline"
     id="layer15" />
  <g
     transform="translate(-61,-447)"
     style="display:inline"
     id="g71291" />
  <g
     transform="translate(-61,-447)"
     style="display:inline"
     id="g4953" />
  <g
     transform="translate(-61,-447)"
     style="display:inline"
     id="layer12" />
</svg>
