<?xml version="1.0" encoding="UTF-8" standalone="no"?>
<svg
   xmlns:dc="http://purl.org/dc/elements/1.1/"
   xmlns:cc="http://creativecommons.org/ns#"
   xmlns:rdf="http://www.w3.org/1999/02/22-rdf-syntax-ns#"
   xmlns:svg="http://www.w3.org/2000/svg"
   xmlns="http://www.w3.org/2000/svg"
   width="16"
   version="1.1"
	 viewBox="-4 -4 24 24"

   id="svg7384"
   height="16">
  <metadata
     id="metadata90">
    <rdf:RDF>
      <cc:Work
         rdf:about="">
        <dc:format>image/svg+xml</dc:format>
        <dc:type
           rdf:resource="http://purl.org/dc/dcmitype/StillImage" />
        <dc:title>Gnome Symbolic Icon Theme</dc:title>
      </cc:Work>
    </rdf:RDF>
  </metadata>
  <title
     id="title9167">Gnome Symbolic Icon Theme</title>
  <defs
     id="defs7386" />
  <g
     transform="translate(-41.000198,-197)"
     style="display:inline"
     id="layer9">
    <path
       style="color:#f1f2f2;display:inline;overflow:visible;visibility:visible;fill:#f1f2f2;fill-opacity:1;fill-rule:nonzero;stroke:none;stroke-width:1;marker:none"
       id="path5491"
       d="m 41.0002,202 h 2.484375 l 2.968754,-3 0.546871,0.0156 v 12 l -0.475297,8.3e-4 L 43.484575,208 H 41.0002 Z" />
    <path
       style="color:#000000;display:inline;overflow:visible;visibility:visible;fill:#f1f2f2;fill-opacity:1;fill-rule:nonzero;stroke:none;stroke-width:1;marker:none;enable-background:accumulate"
       id="rect11714-3"
       d="m 56.00019,205.0002 c 0,-2.81422 -1,-5.17173 -2.58557,-7 h -1.41443 v 1.48072 c 1.26466,1.51928 2,3.21936 2,5.51928 0,2.29992 -0.77953,4 -2,5.51928 v 1.48072 h 1.38128 c 1.46575,-1.64044 2.61872,-4.18578 2.61872,-7 z" />
    <path
       style="color:#000000;display:inline;overflow:visible;visibility:visible;fill:#f1f2f2;fill-opacity:1;fill-rule:nonzero;stroke:none;stroke-width:1;marker:none;enable-background:accumulate"
       id="rect11703-1"
       d="m 53.00019,205.0002 c 0,-2.16664 -0.73878,-4.01982 -2,-5 h -1 v 2 c 0.60652,0.78878 1,1.75887 1,3 0,1.24113 -0.39348,2.21938 -1,3 v 2 h 1 c 1.2229,-0.99478 2,-2.8734 2,-5 z" />
    <path
       style="color:#000000;font-style:normal;font-variant:normal;font-weight:normal;font-stretch:normal;font-size:medium;line-height:normal;font-family:Sans;-inkscape-font-specification:Sans;text-indent:0;text-align:start;text-decoration:none;text-decoration-line:none;letter-spacing:normal;word-spacing:normal;text-transform:none;writing-mode:lr-tb;direction:ltr;baseline-shift:baseline;text-anchor:start;display:inline;overflow:visible;visibility:visible;fill:#f1f2f2;fill-opacity:1;stroke:none;stroke-width:2.32782054;marker:none;enable-background:accumulate"
       mask="none"
       id="path6297-6"
       d="m 50.00019,205.0002 c 0,-1.25733 -0.31165,-2.21571 -1,-3 h -1 v 3 0.375 2.625 h 1 c 0.67206,-0.8369 1,-1.74267 1,-3 z"
       clip-path="none" />
  </g>
  <g
     transform="translate(-41.000198,-197)"
     style="display:inline"
     id="layer10" />
  <g
     transform="translate(-41.000198,-197)"
     id="layer11" />
  <g
     transform="translate(-41.000198,-197)"
     style="display:inline"
     id="layer13" />
  <g
     transform="translate(-41.000198,-197)"
     id="layer14" />
  <g
     transform="translate(-41.000198,-197)"
     style="display:inline"
     id="layer15" />
  <g
     transform="translate(-41.000198,-197)"
     style="display:inline"
     id="g71291" />
  <g
     transform="translate(-41.000198,-197)"
     style="display:inline"
     id="g4953" />
  <g
     transform="translate(-41.000198,-197)"
     style="display:inline"
     id="layer12" />
</svg>
