<?xml version="1.0" encoding="UTF-8" standalone="no"?>
<svg
   xmlns:dc="http://purl.org/dc/elements/1.1/"
   xmlns:cc="http://creativecommons.org/ns#"
   xmlns:rdf="http://www.w3.org/1999/02/22-rdf-syntax-ns#"
   xmlns:svg="http://www.w3.org/2000/svg"
   xmlns="http://www.w3.org/2000/svg"
   width="16.000004"
   version="1.1"
	 viewBox="-4 -4 24 24"

   id="svg7384"
   height="16">
  <metadata
     id="metadata90">
    <rdf:RDF>
      <cc:Work
         rdf:about="">
        <dc:format>image/svg+xml</dc:format>
        <dc:type
           rdf:resource="http://purl.org/dc/dcmitype/StillImage" />
        <dc:title>Gnome Symbolic Icon Theme</dc:title>
      </cc:Work>
    </rdf:RDF>
  </metadata>
  <title
     id="title9167">Gnome Symbolic Icon Theme</title>
  <defs
     id="defs7386" />
  <g
     transform="translate(-461.0002,-301)"
     style="display:inline"
     id="layer9" />
  <g
     transform="translate(-461.0002,-301)"
     style="display:inline"
     id="layer10" />
  <g
     transform="translate(-461.0002,-301)"
     id="layer11" />
  <g
     transform="translate(-461.0002,-301)"
     style="display:inline"
     id="layer13" />
  <g
     transform="translate(-461.0002,-301)"
     id="layer14">
    <path
       style="color:#000000;font-style:normal;font-variant:normal;font-weight:normal;font-stretch:normal;font-size:medium;line-height:normal;font-family:Sans;-inkscape-font-specification:Sans;text-indent:0;text-align:start;text-decoration:none;text-decoration-line:none;letter-spacing:normal;word-spacing:normal;text-transform:none;writing-mode:lr-tb;direction:ltr;baseline-shift:baseline;text-anchor:start;display:inline;overflow:visible;visibility:visible;fill:#f1f2f2;fill-opacity:1;stroke:none;stroke-width:1.94454503;marker:none;enable-background:new"
       id="path8576"
       d="m 466.0002,302 v 7.34375 C 465.5477,309.13233 465.0305,309 464.5002,309 c -1.92115,0 -3.5,1.57885 -3.5,3.5 0,1.92115 1.57885,3.5 3.5,3.5 1.91032,0 3.48231,-1.56226 3.5,-3.46875 10e-5,-0.0108 0,-0.0204 0,-0.0312 v -7.5 h 6 v 4.34375 c -0.4525,-0.21147 -0.9697,-0.3438 -1.5,-0.3438 -1.92115,0 -3.5,1.57885 -3.5,3.5 0,1.92115 1.57885,3.5 3.5,3.5 1.8995,0 3.46489,-1.54571 3.5,-3.4375 4e-4,-0.0216 0,-0.0408 0,-0.0625 V 302 Z" />
  </g>
  <g
     transform="translate(-461.0002,-301)"
     style="display:inline"
     id="layer15" />
  <g
     transform="translate(-461.0002,-301)"
     style="display:inline"
     id="g71291" />
  <g
     transform="translate(-461.0002,-301)"
     style="display:inline"
     id="g4953" />
  <g
     transform="translate(-461.0002,-301)"
     style="display:inline"
     id="layer12" />
</svg>
