<svg xmlns="http://www.w3.org/2000/svg" viewBox="-4 -4 24 24">
    <path style="line-height:normal;-inkscape-font-specification:Sans;text-indent:0;text-align:start;text-decoration-line:none;text-transform:none;marker:none" d="M5 1v7.344A3.574 3.574 0 0 0 3.5 8 3.515 3.515 0 0 0 0 11.5C0 13.421 1.579 15 3.5 15A3.517 3.517 0 0 0 7 11.531V4h6v4.344A3.573 3.573 0 0 0 11.5 8 3.515 3.515 0 0 0 8 11.5c0 1.921 1.579 3.5 3.5 3.5 1.9 0 3.465-1.546 3.5-3.438V1z" color="#000" font-weight="400" font-family="Sans" overflow="visible" fill="#f1f2f2"/>
</svg>
