<?xml version="1.0" encoding="UTF-8" standalone="no"?>
<svg id="svg2" xmlns="http://www.w3.org/2000/svg" viewBox="-4 -4 24 24" version="1.1"><path id="path4507" style="stroke-width:.36364;fill:#f1f2f2" d="m0 7v4 4h8 8v-4-4h-8-8zm6.3848 2a0.40005 0.40005 0 0 1 0.1933 0.043l3.2012 1.6a0.40005 0.40005 0 0 1 0 0.714l-3.2012 1.6a0.40005 0.40005 0 0 1 -0.5781 -0.357v-3.1996a0.40005 0.40005 0 0 1 0.3848 -0.4004z"/><path id="path4493" style="stroke-width:.36157;fill:#f1f2f2" d="m3 1l1.127 1c0.832 0.7381 1.4867 1 2.5 1h1.373l-1.127-1c-0.832-0.7381-1.4867-1-2.5-1h-1.373zm5 0l1.127 1c0.832 0.7381 1.487 1 2.5 1h1.373l-1.127-1c-0.832-0.7381-1.487-1-2.5-1h-1.373zm5 0l1.127 1c0.646 0.5731 1.19 0.8539 1.873 0.9531v-1.5664c-0.49-0.2637-0.986-0.3867-1.627-0.3867h-1.373zm-13 0.0469v1.5664c0.48955 0.2637 0.98611 0.3867 1.627 0.3867h1.373l-1.127-1c-0.646-0.5731-1.1899-0.8539-1.873-0.9531zm1.627 2.9531c-0.64089 0-1.1374 0.123-1.627 0.3867v1.5664c0.68308-0.0992 1.227-0.38 1.873-0.9531l1.127-1h-1.373zm5 0c-1.0133 0-1.668 0.2619-2.5 1l-1.127 1h1.373c1.0133 0 1.668-0.2619 2.5-1l1.127-1h-1.373zm5 0c-1.013 0-1.668 0.2619-2.5 1l-1.127 1h1.373c1.013 0 1.668-0.2619 2.5-1l1.127-1h-1.373zm4.373 0.0469c-0.683 0.0992-1.227 0.38-1.873 0.9531l-1.127 1h1.373c0.641 0 1.137-0.123 1.627-0.3867v-1.5664z"/></svg>
