<?xml version="1.0" encoding="UTF-8" standalone="no"?>
<svg id="svg7384" xmlns="http://www.w3.org/2000/svg" viewBox="0 0 16.002 16" version="1.1"><g id="layer9" transform="translate(-523 165)"><circle id="path8910-8" style="fill:#f1f2f2;fill-opacity:.29804" cx="534.5" cy="153.5" r="4.5"/><path id="path11005-9" style="fill:#f1f2f2" d="m523.47-165c-0.25058 0-0.46875 0.21817-0.46875 0.46875v12.062c0 0.2587 0.20995 0.46875 0.46875 0.46875h5.75c-0.13724-0.48068-0.21875-0.97527-0.21875-1.5 0-3.0376 2.4624-5.5 5.5-5.5 0.89797 0 1.7513 0.21212 2.5 0.59375v-2.125c0-0.2505-0.21817-0.4375-0.46875-0.4375l-0.0312-0.0312h-11.5v6.5c0 0.26932-0.23068 0.5-0.5 0.5s-0.5-0.23068-0.5-0.5v-7c0-0.3099 0.15376-0.5 0.5-0.5h10.5v-0.5c0-0.28358-0.21652-0.5-0.5-0.5h-6.5v-1.5312c0-0.2506-0.21817-0.46875-0.46875-0.46875h-4.0625zm11.312 7c-2.0893-0.12542-4.0622 1.2432-4.625 3.3438-0.64324 2.4006 0.78689 4.8568 3.1875 5.5 2.4006 0.64324 4.8571-0.78681 5.5-3.1875 0.0575-0.2146 0.0999-0.43805 0.12591-0.65597l-4.4907-0.00031 0.53048-4.9783c-0.0751-0.01-0.1509-0.017-0.22816-0.0217z"/><circle id="path8908" style="fill-opacity:0" cx="532.59" cy="152.78" r="3.0899"/></g></svg>
