<?xml version="1.0" encoding="UTF-8" standalone="no"?>
<svg
   xmlns:dc="http://purl.org/dc/elements/1.1/"
   xmlns:cc="http://creativecommons.org/ns#"
   xmlns:rdf="http://www.w3.org/1999/02/22-rdf-syntax-ns#"
   xmlns:svg="http://www.w3.org/2000/svg"
   xmlns="http://www.w3.org/2000/svg"
   width="16"
   version="1.1"
	 viewBox="-4 -4 24 24"

   id="svg7384"
   height="16">
  <metadata
     id="metadata90">
    <rdf:RDF>
      <cc:Work
         rdf:about="">
        <dc:format>image/svg+xml</dc:format>
        <dc:type
           rdf:resource="http://purl.org/dc/dcmitype/StillImage" />
        <dc:title>Gnome Symbolic Icon Theme</dc:title>
      </cc:Work>
    </rdf:RDF>
  </metadata>
  <title
     id="title9167">Gnome Symbolic Icon Theme</title>
  <defs
     id="defs7386" />
  <g
     transform="translate(-81.0002,-217)"
     style="display:inline"
     id="layer9">
    <path
       id="rect3743"
       d="m 228,86.000198 h 2 v 6 h -2 z"
       style="fill:#f1f2f2;fill-opacity:1;stroke:none"
       transform="matrix(0,1,1,0,0,0)" />
    <path
       style="color:#f1f2f2;font-style:normal;font-variant:normal;font-weight:normal;font-stretch:normal;font-size:medium;line-height:normal;font-family:Sans;-inkscape-font-specification:Sans;text-indent:0;text-align:start;text-decoration:none;text-decoration-line:none;letter-spacing:normal;word-spacing:normal;text-transform:none;writing-mode:lr-tb;direction:ltr;baseline-shift:baseline;text-anchor:start;display:inline;overflow:visible;visibility:visible;fill:#f1f2f2;fill-opacity:1;stroke:none;stroke-width:2;marker:none;enable-background:accumulate"
       id="path3745"
       d="m 86.46875,217 c -0.490327,0 -0.796069,0.22846 -1.03125,0.46875 -0.235181,0.24029 -0.4375,0.52725 -0.4375,1 V 219 h -1 -1 v 1 12 1 h 1 10 1 v -1 -12 -1 h -1 -1 v -0.375 -0.0312 -0.0312 c -0.02393,-0.4306 -0.170232,-0.72105 -0.40625,-1 -0.223737,-0.26444 -0.626697,-0.52931 -1.15625,-0.53125 v -0.0312 H 91.375 86.46875 Z M 87,219 h 4 v 1 1 h 1 1 v 10 h -8 v -10 h 1 1 v -1 z" />
  </g>
  <g
     transform="translate(-81.0002,-217)"
     style="display:inline"
     id="layer10" />
  <g
     transform="translate(-81.0002,-217)"
     id="layer11" />
  <g
     transform="translate(-81.0002,-217)"
     style="display:inline"
     id="layer13" />
  <g
     transform="translate(-81.0002,-217)"
     id="layer14" />
  <g
     transform="translate(-81.0002,-217)"
     style="display:inline"
     id="layer15" />
  <g
     transform="translate(-81.0002,-217)"
     style="display:inline"
     id="g71291" />
  <g
     transform="translate(-81.0002,-217)"
     style="display:inline"
     id="g4953" />
  <g
     transform="translate(-81.0002,-217)"
     style="display:inline"
     id="layer12" />
</svg>
