<?xml version="1.0" encoding="UTF-8" standalone="no"?>
<svg
   xmlns:dc="http://purl.org/dc/elements/1.1/"
   xmlns:cc="http://creativecommons.org/ns#"
   xmlns:rdf="http://www.w3.org/1999/02/22-rdf-syntax-ns#"
   xmlns:svg="http://www.w3.org/2000/svg"
   xmlns="http://www.w3.org/2000/svg"
   width="16"
   version="1.1"
	 viewBox="-4 -4 24 24"

   id="svg7384"
   height="16.001423">
  <metadata
     id="metadata90">
    <rdf:RDF>
      <cc:Work
         rdf:about="">
        <dc:format>image/svg+xml</dc:format>
        <dc:type
           rdf:resource="http://purl.org/dc/dcmitype/StillImage" />
        <dc:title>Gnome Symbolic Icon Theme</dc:title>
      </cc:Work>
    </rdf:RDF>
  </metadata>
  <title
     id="title9167">Gnome Symbolic Icon Theme</title>
  <defs
     id="defs7386" />
  <g
     transform="translate(-181.0002,-217)"
     style="display:inline"
     id="layer9">
    <path
       style="color:#f1f2f2;font-style:normal;font-variant:normal;font-weight:normal;font-stretch:normal;font-size:xx-small;line-height:normal;font-family:'Bitstream Vera Sans';-inkscape-font-specification:'Bitstream Vera Sans';text-indent:0;text-align:start;text-decoration:none;text-decoration-line:none;text-decoration-color:currentColor;letter-spacing:normal;word-spacing:normal;text-transform:none;writing-mode:lr-tb;direction:ltr;text-anchor:start;display:inline;overflow:visible;visibility:visible;fill:#f1f2f2;fill-opacity:1;fill-rule:nonzero;stroke:none;stroke-width:2;marker:none;enable-background:accumulate"
       id="path10747"
       d="m 189.7795,222.00771 c -0.17789,0.0489 -0.3419,0.14729 -0.46875,0.28125 l -3.03125,3 c -0.2353,0.23074 -0.34458,0.58284 -0.28125,0.90625 v 0.8125 h 0.8125 0.1875 1.4707 l -1.1875,1.27359 c -0.21461,0.21931 -0.32135,0.53954 -0.28125,0.84375 -0.001,0.0312 -0.001,0.0625 0,0.0937 V 230 h 0.84375 0.15625 c 0.26386,0.004 0.52791,-0.099 0.71875,-0.28125 l 3,-2.99234 c 0.18369,-0.18976 0.28735,-0.45466 0.28125,-0.7187 0.003,-0.0416 0.003,-0.0834 0,-0.125 v -0.875 h -0.84375 -0.15625 -1.56445 l 1.3125,-1.28125 c 0.21461,-0.2193 0.32135,-0.53953 0.28125,-0.84375 10e-4,-0.0312 10e-4,-0.0625 0,-0.0937 v -0.7813 h -0.84375 -0.0937 c -0.0208,-6.4e-4 -0.0417,-6.4e-4 -0.0625,0 -0.0829,-0.0103 -0.16709,-0.0103 -0.25,0 z" />
    <path
       style="color:#f1f2f2;font-style:normal;font-variant:normal;font-weight:normal;font-stretch:normal;font-size:medium;line-height:normal;text-indent:0;text-align:start;text-decoration:none;text-decoration-line:none;text-decoration-color:currentColor;letter-spacing:normal;word-spacing:normal;text-transform:none;writing-mode:lr-tb;direction:ltr;baseline-shift:baseline;text-anchor:start;clip-rule:nonzero;display:inline;overflow:visible;visibility:visible;opacity:0.5;isolation:auto;color-interpolation:sRGB;color-interpolation-filters:linearRGB;fill:#f1f2f2;fill-opacity:1;fill-rule:nonzero;stroke:none;stroke-width:2.00264454;stroke-linecap:round;stroke-linejoin:miter;stroke-miterlimit:4;stroke-dasharray:none;stroke-dashoffset:0;stroke-opacity:1;marker:none;color-rendering:auto;image-rendering:auto;shape-rendering:auto;text-rendering:auto;enable-background:accumulate"
       id="path3434-5"
       d="m 186.46875,217.00586 c -0.49202,0 -0.7981,0.21605 -1.0332,0.45703 -0.2351,0.24098 -0.43555,0.55689 -0.43555,1.0293 V 219 h -2 v 14 l 12.00195,0.002 V 232.00005 219.002 h -2 v -0.39843 l -0.002,-0.0274 c -0.0239,-0.43046 -0.18017,-0.734 -0.41602,-1.01367 -0.23584,-0.27967 -0.62045,-0.58711 -1.20117,-0.55469 l 0.0566,-0.002 h -4.9707 z m 0.5332,2.00195 3.99805,0.002 v 1.99414 h 1.99805 v 9.99414 h -7.9961 v -9.9961 h 2 v -1.99414 z" />
  </g>
  <g
     transform="translate(-181.0002,-217)"
     style="display:inline"
     id="layer10" />
  <g
     transform="translate(-181.0002,-217)"
     id="layer11" />
  <g
     transform="translate(-181.0002,-217)"
     style="display:inline"
     id="layer13" />
  <g
     transform="translate(-181.0002,-217)"
     id="layer14" />
  <g
     transform="translate(-181.0002,-217)"
     style="display:inline"
     id="layer15" />
  <g
     transform="translate(-181.0002,-217)"
     style="display:inline"
     id="g71291" />
  <g
     transform="translate(-181.0002,-217)"
     style="display:inline"
     id="g4953" />
  <g
     transform="translate(-181.0002,-217)"
     style="display:inline"
     id="layer12" />
</svg>
