<?xml version="1.0" encoding="UTF-8" standalone="no"?>
<svg
   xmlns:dc="http://purl.org/dc/elements/1.1/"
   xmlns:cc="http://creativecommons.org/ns#"
   xmlns:rdf="http://www.w3.org/1999/02/22-rdf-syntax-ns#"
   xmlns:svg="http://www.w3.org/2000/svg"
   xmlns="http://www.w3.org/2000/svg"
   width="15.999998"
   version="1.1"
	 viewBox="-4 -4 24 24"

   id="svg7384"
   height="16">
  <metadata
     id="metadata90">
    <rdf:RDF>
      <cc:Work
         rdf:about="">
        <dc:format>image/svg+xml</dc:format>
        <dc:type
           rdf:resource="http://purl.org/dc/dcmitype/StillImage" />
        <dc:title>Gnome Symbolic Icon Theme</dc:title>
      </cc:Work>
    </rdf:RDF>
  </metadata>
  <title
     id="title9167">Gnome Symbolic Icon Theme</title>
  <defs
     id="defs7386" />
  <g
     transform="translate(-121.0002,-217)"
     style="display:inline"
     id="layer9">
    <path
       style="color:#f1f2f2;font-style:normal;font-variant:normal;font-weight:normal;font-stretch:normal;font-size:medium;line-height:normal;font-family:Sans;-inkscape-font-specification:Sans;text-indent:0;text-align:start;text-decoration:none;text-decoration-line:none;letter-spacing:normal;word-spacing:normal;text-transform:none;writing-mode:lr-tb;direction:ltr;baseline-shift:baseline;text-anchor:start;display:inline;overflow:visible;visibility:visible;opacity:0.35;fill:#f1f2f2;fill-opacity:1;stroke:none;stroke-width:2.00264454;marker:none;enable-background:accumulate"
       id="path5256"
       d="m 126.46895,217 c -0.49202,0 -0.79615,0.22777 -1.03125,0.46875 -0.2351,0.24098 -0.4375,0.55884 -0.4375,1.03125 v 0.5 h -1 -1 v 1 12 1 h 1 10 1 v -1 -12 -1 h -1 -1 v -0.375 -0.0312 -0.0312 c -0.0239,-0.43046 -0.17041,-0.72033 -0.40625,-1 -0.22357,-0.26511 -0.62489,-0.52941 -1.15625,-0.53125 v -0.0312 h -0.0625 -4.90625 z m 0.53125,2 h 4 v 1 0.53125 c 0.22927,0.13183 0.42611,0.29608 0.625,0.46875 h 0.375 1 v 2.75 0.0312 0.0312 7.1875 h -2.28125 c -0.0883,0.15116 -0.18924,0.28299 -0.3125,0.40625 -0.12326,0.12326 -0.25509,0.22419 -0.40625,0.3125 -0.1191,0.0711 -0.24126,0.14268 -0.375,0.1875 -0.031,0.0103 -0.0621,0.0225 -0.0937,0.0312 -0.0403,0.0113 -0.0836,0.0225 -0.125,0.0312 -0.12939,0.0269 -0.26966,0.0312 -0.40625,0.0312 -0.18098,0 -0.36372,-0.016 -0.53125,-0.0625 -0.032,-0.009 -0.0624,-0.0207 -0.0937,-0.0312 -0.13243,-0.044 -0.25597,-0.11796 -0.375,-0.1875 -0.15116,-0.0883 -0.28299,-0.18924 -0.40625,-0.3125 -0.12326,-0.12326 -0.22419,-0.25509 -0.3125,-0.40625 h -2.28125 v -6.9375 -3.0625 h 1 0.3125 c 0.20941,-0.18355 0.44239,-0.33113 0.6875,-0.46875 v -0.53125 -1 z" />
    <path
       style="color:#f1f2f2;display:inline;overflow:visible;visibility:visible;fill:#f1f2f2;fill-opacity:1;stroke:none;stroke-width:2;marker:none"
       id="path19592-2-3"
       d="m 128.81738,221.00473 c 1.64243,-0.092 3.0955,1.17008 3.1875,2.8125 -1e-4,1.40136 -0.37771,1.92177 -1.59375,2.84375 -0.19093,0.14364 -0.3256,0.2506 -0.375,0.3125 -0.0494,0.0621 -0.0312,0.0332 -0.0312,0.0312 0.007,0.52831 -0.47163,1 -1,1 -0.52837,0 -1.007,-0.47169 -1,-1 0,-0.50239 0.22424,-0.94342 0.46875,-1.25 0.24451,-0.30663 0.4913,-0.51638 0.71875,-0.6875 0.20405,-0.16056 0.46083,-0.38454 0.6875,-0.65625 0.0935,-0.1121 0.129,-0.30766 0.125,-0.4375 v -0.0312 c -0.0316,-0.56324 -0.49926,-0.9691 -1.0625,-0.9375 -0.56324,0.0316 -0.9691,0.43676 -0.9375,1 h -2 c -0.092,-1.64243 1.17007,-2.9079 2.8125,-3 z m 0.1875,8 c 0.55228,0 1,0.44772 1,1 0,0.55228 -0.44772,1 -1,1 -0.55228,0 -1,-0.44772 -1,-1 0,-0.55228 0.44772,-1 1,-1 z" />
  </g>
  <g
     transform="translate(-121.0002,-217)"
     style="display:inline"
     id="layer10" />
  <g
     transform="translate(-121.0002,-217)"
     id="layer11" />
  <g
     transform="translate(-121.0002,-217)"
     style="display:inline"
     id="layer13" />
  <g
     transform="translate(-121.0002,-217)"
     id="layer14" />
  <g
     transform="translate(-121.0002,-217)"
     style="display:inline"
     id="layer15" />
  <g
     transform="translate(-121.0002,-217)"
     style="display:inline"
     id="g71291" />
  <g
     transform="translate(-121.0002,-217)"
     style="display:inline"
     id="g4953" />
  <g
     transform="translate(-121.0002,-217)"
     style="display:inline"
     id="layer12" />
</svg>
