<?xml version="1.0" encoding="UTF-8" standalone="no"?>
<svg
   xmlns:dc="http://purl.org/dc/elements/1.1/"
   xmlns:cc="http://creativecommons.org/ns#"
   xmlns:rdf="http://www.w3.org/1999/02/22-rdf-syntax-ns#"
   xmlns:svg="http://www.w3.org/2000/svg"
   xmlns="http://www.w3.org/2000/svg"
   width="16"
   version="1.1"
	 viewBox="-4 -4 24 24"

   id="svg7384"
   height="16">
  <metadata
     id="metadata90">
    <rdf:RDF>
      <cc:Work
         rdf:about="">
        <dc:format>image/svg+xml</dc:format>
        <dc:type
           rdf:resource="http://purl.org/dc/dcmitype/StillImage" />
        <dc:title>Gnome Symbolic Icon Theme</dc:title>
      </cc:Work>
    </rdf:RDF>
  </metadata>
  <title
     id="title9167">Gnome Symbolic Icon Theme</title>
  <defs
     id="defs7386" />
  <g
     transform="translate(-161.0002,-217)"
     style="display:inline"
     id="layer9">
    <path
       style="fill:#f1f2f2;fill-opacity:1;stroke:none"
       id="rect6060"
       d="m 166.0002,222 v 2 h 6 v -2 z m 0,3 v 2 h 4 l 0.25,-0.125 1.75,-1.75 V 225 Z m 0,3.0625 V 230 h 3 v -0.8125 -1.125 z" />
    <path
       style="color:#f1f2f2;font-style:normal;font-variant:normal;font-weight:normal;font-stretch:normal;font-size:medium;line-height:normal;font-family:Sans;-inkscape-font-specification:Sans;text-indent:0;text-align:start;text-decoration:none;text-decoration-line:none;letter-spacing:normal;word-spacing:normal;text-transform:none;writing-mode:lr-tb;direction:ltr;baseline-shift:baseline;text-anchor:start;display:inline;overflow:visible;visibility:visible;fill:#f1f2f2;fill-opacity:1;stroke:none;stroke-width:2;marker:none;enable-background:accumulate"
       id="path6062"
       d="m 166.46875,217 c -0.49033,0 -0.79607,0.22846 -1.03125,0.46875 C 165.20232,217.70904 165,218.02725 165,218.5 v 0.5 h -1 -1 v 1 12 1 h 1 7 v -2 h -6 v -10 h 1 1 v -1 -1 h 4 v 1 1 h 1 1 v 3 h 2 v -4 -1 h -1 -1 v -0.375 -0.0312 -0.0312 c -0.0239,-0.4306 -0.17023,-0.72105 -0.40625,-1 -0.22374,-0.26444 -0.6267,-0.52931 -1.15625,-0.53125 v -0.0312 h -0.0625 -4.90625 z" />
    <path
       style="color:#f1f2f2;font-style:normal;font-variant:normal;font-weight:normal;font-stretch:normal;font-size:xx-small;line-height:normal;font-family:'Bitstream Vera Sans';-inkscape-font-specification:'Bitstream Vera Sans';text-indent:0;text-align:start;text-decoration:none;text-decoration-line:none;letter-spacing:normal;word-spacing:normal;text-transform:none;writing-mode:lr-tb;direction:ltr;text-anchor:start;display:inline;overflow:visible;visibility:visible;fill:#f1f2f2;fill-opacity:1;fill-rule:nonzero;stroke:none;stroke-width:2;marker:none;enable-background:accumulate"
       id="path6217"
       d="m 173.71895,224.96875 c -0.17789,0.0489 -0.3419,0.14729 -0.46875,0.28125 l -3,2.96875 c -0.2353,0.23073 -0.34458,0.61409 -0.28125,0.9375 v 0.8125 h 1 2.125 l -0.84375,1.25 c -0.15169,0.14917 -0.24515,0.35304 -0.28125,0.5625 v 0.375 0.8125 h 1 c 0.26386,0.004 0.52791,-0.13024 0.71875,-0.3125 l 3,-3 c 0.1837,-0.18978 0.28737,-0.42344 0.28125,-0.6875 0.003,-0.0416 0.003,-0.0834 0,-0.125 v -0.875 h -0.84375 -0.0937 c -0.0208,-6.5e-4 -0.0417,-6.5e-4 -0.0625,0 h -2.125 l 0.84375,-1.3125 c 0.15164,-0.14917 0.2451,-0.33095 0.2812,-0.53125 v -0.375 -0.78125 z" />
  </g>
  <g
     transform="translate(-161.0002,-217)"
     style="display:inline"
     id="layer10" />
  <g
     transform="translate(-161.0002,-217)"
     id="layer11" />
  <g
     transform="translate(-161.0002,-217)"
     style="display:inline"
     id="layer13" />
  <g
     transform="translate(-161.0002,-217)"
     id="layer14" />
  <g
     transform="translate(-161.0002,-217)"
     style="display:inline"
     id="layer15" />
  <g
     transform="translate(-161.0002,-217)"
     style="display:inline"
     id="g71291" />
  <g
     transform="translate(-161.0002,-217)"
     style="display:inline"
     id="g4953" />
  <g
     transform="translate(-161.0002,-217)"
     style="display:inline"
     id="layer12" />
</svg>
