<?xml version="1.0" encoding="UTF-8" standalone="no"?>
<svg
   xmlns:dc="http://purl.org/dc/elements/1.1/"
   xmlns:cc="http://creativecommons.org/ns#"
   xmlns:rdf="http://www.w3.org/1999/02/22-rdf-syntax-ns#"
   xmlns:svg="http://www.w3.org/2000/svg"
   xmlns="http://www.w3.org/2000/svg"
   width="16"
   version="1.1"
	 viewBox="-4 -4 24 24"

   id="svg7384"
   height="16.03327">
  <metadata
     id="metadata90">
    <rdf:RDF>
      <cc:Work
         rdf:about="">
        <dc:format>image/svg+xml</dc:format>
        <dc:type
           rdf:resource="http://purl.org/dc/dcmitype/StillImage" />
        <dc:title>Gnome Symbolic Icon Theme</dc:title>
      </cc:Work>
    </rdf:RDF>
  </metadata>
  <title
     id="title9167">Gnome Symbolic Icon Theme</title>
  <defs
     id="defs7386" />
  <g
     transform="translate(-263.0002,-648.99035)"
     style="display:inline"
     id="layer9" />
  <g
     transform="translate(-263.0002,-648.99035)"
     style="display:inline"
     id="layer10" />
  <g
     transform="translate(-263.0002,-648.99035)"
     id="layer11">
    <path
       style="color:#000000;font-style:normal;font-variant:normal;font-weight:normal;font-stretch:normal;font-size:medium;line-height:normal;font-family:Sans;-inkscape-font-specification:Sans;text-indent:0;text-align:start;text-decoration:none;text-decoration-line:none;letter-spacing:normal;word-spacing:normal;text-transform:none;writing-mode:lr-tb;direction:ltr;baseline-shift:baseline;text-anchor:start;display:inline;overflow:visible;visibility:visible;fill:#f1f2f2;fill-opacity:1;stroke:none;stroke-width:2;marker:none;enable-background:accumulate"
       id="path5241"
       d="M 269.875,649 A 1.0001,1.0001 0 0 0 269,650 v 3.5625 l -1.28125,-1.28125 a 1.016466,1.016466 0 1 0 -1.4375,1.4375 L 269,656.4375 v 1.125 l -2.71875,2.71875 a 1.016466,1.016466 0 1 0 1.4375,1.4375 L 269,660.4375 V 664 a 1.0001,1.0001 0 0 0 1.71875,0.71875 l 4,-4 a 1.0001,1.0001 0 0 0 0,-1.4375 L 272.4375,657 l 2.28125,-2.28125 a 1.0001,1.0001 0 0 0 0,-1.4375 l -4,-4 A 1.0001,1.0001 0 0 0 269.875,649 Z M 271,652.4375 272.5625,654 271,655.5625 Z m 0,6 L 272.5625,660 271,661.5625 Z" />
    <path
       id="rect5243"
       d="m 266.00021,652 h 1 v 1 h -1 z"
       style="fill:#f1f2f2;fill-opacity:1;stroke:none" />
    <path
       id="rect5245"
       d="m 266.00021,661 h 1 v 1 h -1 z"
       style="fill:#f1f2f2;fill-opacity:1;stroke:none" />
    <path
       id="rect5247"
       d="m 269.00021,664 h 1 v 1 h -1 z"
       style="fill:#f1f2f2;fill-opacity:1;stroke:none" />
    <path
       id="rect5249"
       d="m 269.00021,649 h 1 v 1 h -1 z"
       style="fill:#f1f2f2;fill-opacity:1;stroke:none" />
  </g>
  <g
     transform="translate(-263.0002,-648.99035)"
     style="display:inline"
     id="layer13" />
  <g
     transform="translate(-263.0002,-648.99035)"
     id="layer14" />
  <g
     transform="translate(-263.0002,-648.99035)"
     style="display:inline"
     id="layer15" />
  <g
     transform="translate(-263.0002,-648.99035)"
     style="display:inline"
     id="g71291" />
  <g
     transform="translate(-263.0002,-648.99035)"
     style="display:inline"
     id="g4953" />
  <g
     transform="translate(-263.0002,-648.99035)"
     style="display:inline"
     id="layer12" />
</svg>
