<?xml version="1.0" encoding="UTF-8" standalone="no"?>
<svg
   xmlns:osb="http://www.openswatchbook.org/uri/2009/osb"
   xmlns:dc="http://purl.org/dc/elements/1.1/"
   xmlns:cc="http://creativecommons.org/ns#"
   xmlns:rdf="http://www.w3.org/1999/02/22-rdf-syntax-ns#"
   xmlns:svg="http://www.w3.org/2000/svg"
   xmlns="http://www.w3.org/2000/svg"
   width="16.000002"
   version="1.1"
	 viewBox="-4 -4 24 24"

   id="svg7384"
   height="16.000183">
  <metadata
     id="metadata90">
    <rdf:RDF>
      <cc:Work
         rdf:about="">
        <dc:format>image/svg+xml</dc:format>
        <dc:type
           rdf:resource="http://purl.org/dc/dcmitype/StillImage" />
        <dc:title>Gnome Symbolic Icon Theme</dc:title>
      </cc:Work>
    </rdf:RDF>
  </metadata>
  <title
     id="title9167">Gnome Symbolic Icon Theme</title>
  <defs
     id="defs7386">
    <linearGradient
       osb:paint="solid"
       id="linearGradient19282"
       gradientTransform="matrix(-2.7365795,0.28202934,-0.18908311,-0.99988321,239.54008,-879.45557)">
      <stop
         style="stop-color:#666666;stop-opacity:1;"
         offset="0"
         id="stop19284" />
    </linearGradient>
  </defs>
  <g
     transform="translate(-61.000198,-316.99998)"
     style="display:inline"
     id="layer9">
    <path
       style="color:#000000;font-style:normal;font-variant:normal;font-weight:normal;font-stretch:normal;font-size:medium;line-height:normal;font-family:sans-serif;text-indent:0;text-align:start;text-decoration:none;text-decoration-line:none;text-decoration-style:solid;text-decoration-color:#000000;letter-spacing:normal;word-spacing:normal;text-transform:none;writing-mode:lr-tb;direction:ltr;baseline-shift:baseline;text-anchor:start;white-space:normal;clip-rule:nonzero;display:inline;overflow:visible;visibility:visible;opacity:0.5;isolation:auto;mix-blend-mode:normal;color-interpolation:sRGB;color-interpolation-filters:linearRGB;solid-color:#000000;solid-opacity:1;fill:#f1f2f2;fill-opacity:1;fill-rule:nonzero;stroke:none;stroke-width:2;stroke-linecap:round;stroke-linejoin:round;stroke-miterlimit:4;stroke-dasharray:none;stroke-dashoffset:0;stroke-opacity:1;color-rendering:auto;image-rendering:auto;shape-rendering:auto;text-rendering:auto;enable-background:accumulate"
       id="path3807-2"
       d="m 67.0002,317 v 0.99414 0.006 3.58594 l -1.29297,-1.29297 C 65.46955,320.04558 65.11501,320.006 64.78536,320.006 h -0.75977 v 0.70117 c 0,0.36616 -6.1e-4,0.74235 0.26758,1 l 2.70703,2.70703 v 1.17188 l -2.70703,2.70703 c -0.23813,0.22889 -0.29297,0.56073 -0.29297,0.88658 v 0.81445 h 0.79297 c 0.33837,0 0.67802,-0.0422 0.91406,-0.28711 l 1.29297,-1.29297 V 332 v 0.006 0.99414 h 0.99414 c 0.26723,0.002 0.52395,-0.10399 0.71289,-0.29297 l 2.29297,-2.29311 V 327 h 1.41406 l -2,-2 2.29297,-2.29297 c 0.39037,-0.39053 0.39037,-1.02353 0,-1.41406 l -4,-4 C 68.51829,317.10399 68.26157,316.99849 67.99434,317 Z m 2,3.41406 1.58594,1.58594 -1.58594,1.58594 z m 0,6 1.58594,1.58594 -1.58594,1.58594 z"
       clip-path="none" />
    <path
       style="color:#f1f2f2;display:inline;overflow:visible;visibility:visible;fill:#cc0000;fill-opacity:1;stroke:none;stroke-width:2;marker:none"
       id="path3761-2-3-5-4-8-9-8-0-9"
       d="m 72.0002,328 h 1.375 l 1.125,1.09375 L 75.59395,328 h 1.40625 v 1.46875 l -1.09375,1.0625 1.09375,1.0625 V 333 H 75.5627 L 74.5002,331.9375 73.4377,333 h -1.4375 v -1.40625 l 1.0625,-1.0625 -1.0625,-1.0625 z" />
  </g>
  <g
     transform="translate(-61.000198,-316.99998)"
     style="display:inline"
     id="layer10" />
  <g
     transform="translate(-61.000198,-316.99998)"
     id="layer11" />
  <g
     transform="translate(-61.000198,-316.99998)"
     style="display:inline"
     id="layer13" />
  <g
     transform="translate(-61.000198,-316.99998)"
     id="layer14" />
  <g
     transform="translate(-61.000198,-316.99998)"
     style="display:inline"
     id="layer15" />
  <g
     transform="translate(-61.000198,-316.99998)"
     style="display:inline"
     id="g71291" />
  <g
     transform="translate(-61.000198,-316.99998)"
     style="display:inline"
     id="g4953" />
  <g
     transform="translate(-61.000198,-316.99998)"
     style="display:inline"
     id="layer12" />
</svg>
