<?xml version="1.0" encoding="UTF-8" standalone="no"?>
<svg id="svg8" xmlns="http://www.w3.org/2000/svg" version="1.1" viewBox="-4 -4 24 24"><g id="g6" color="#f1f2f2" fill="#f1f2f2"><path id="path2" style="text-decoration-line:none;text-transform:none;text-indent:0" d="m0 1v13h6c0.175 0 0.5245 0.15175 0.8125 0.34375 0.287 0.192 0.46875 0.375 0.46875 0.375l0.7188 0.719 0.7188-0.75s0.8962-0.688 1.2812-0.688h6v-13h-6c-0.877 0-1.5602 0.3475-2.0312 0.6875-0.03-0.02-0.0306-0.0113-0.0626-0.0313-0.46-0.306-1.0782-0.6562-1.9062-0.6562h-5zm2 2h4c0.138 0 0.5145 0.1468 0.8125 0.3438 0.1114 0.0734 0.1083 0.0804 0.1875 0.1406v6.5156h2v-6.5059c0.2834-0.1997 0.7264-0.4941 1-0.4941h4v9h-4c-0.877 0-1.5602 0.348-2.0312 0.688-0.02-0.014-0.0113-0.019-0.0313-0.032-0.46-0.31-1.1025-0.656-1.9375-0.656h-4z"/></g></svg>
