<?xml version="1.0" encoding="UTF-8" standalone="no"?>
<svg
   xmlns:osb="http://www.openswatchbook.org/uri/2009/osb"
   xmlns:dc="http://purl.org/dc/elements/1.1/"
   xmlns:cc="http://creativecommons.org/ns#"
   xmlns:rdf="http://www.w3.org/1999/02/22-rdf-syntax-ns#"
   xmlns:svg="http://www.w3.org/2000/svg"
   xmlns="http://www.w3.org/2000/svg"
   width="16.0002"
   version="1.1"
	 viewBox="-4 -4 24 24"

   id="svg7384"
   height="16">
  <metadata
     id="metadata90">
    <rdf:RDF>
      <cc:Work
         rdf:about="">
        <dc:format>image/svg+xml</dc:format>
        <dc:type
           rdf:resource="http://purl.org/dc/dcmitype/StillImage" />
        <dc:title>Gnome Symbolic Icon Theme</dc:title>
      </cc:Work>
    </rdf:RDF>
  </metadata>
  <title
     id="title9167">Gnome Symbolic Icon Theme</title>
  <defs
     id="defs7386">
    <linearGradient
       osb:paint="solid"
       id="linearGradient19282"
       gradientTransform="matrix(-2.7365795,0.28202934,-0.18908311,-0.99988321,239.54008,-879.45557)">
      <stop
         style="stop-color:#666666;stop-opacity:1;"
         offset="0"
         id="stop19284" />
    </linearGradient>
  </defs>
  <g
     transform="translate(-101.0002,-867)"
     style="display:inline"
     id="layer9" />
  <g
     transform="translate(-101.0002,-867)"
     style="display:inline"
     id="layer10" />
  <g
     transform="translate(-101.0002,-867)"
     id="layer11" />
  <g
     transform="translate(-101.0002,-867)"
     style="display:inline"
     id="layer13" />
  <g
     transform="translate(-101.0002,-867)"
     id="layer14" />
  <g
     transform="translate(-101.0002,-867)"
     style="display:inline"
     id="layer15" />
  <g
     transform="translate(-101.0002,-867)"
     style="display:inline"
     id="g71291" />
  <g
     transform="translate(-101.0002,-867)"
     style="display:inline"
     id="g4953" />
  <g
     transform="translate(-101.0002,-867)"
     style="display:inline"
     id="layer12">
    <path
       style="color:#f1f2f2;font-style:normal;font-variant:normal;font-weight:normal;font-stretch:normal;font-size:medium;line-height:normal;font-family:'Bitstream Vera Sans';-inkscape-font-specification:'Bitstream Vera Sans';text-indent:0;text-align:start;text-decoration:none;text-decoration-line:none;letter-spacing:normal;word-spacing:normal;text-transform:none;writing-mode:lr-tb;direction:ltr;text-anchor:start;display:inline;overflow:visible;visibility:visible;fill:#cc0000;fill-opacity:1;stroke:none;stroke-width:2;marker:none;enable-background:accumulate"
       id="rect3217-6-2-2-4-2"
       d="m 112.00038,878 h -1.00001 c -0.25689,10e-6 -0.52845,0.12983 -0.71875,0.31251 l -1.28124,1.28124 -1.28125,-1.28125 c -0.19004,-0.18293 -0.46186,-0.3125 -0.71878,-0.31245 h -1 l -1e-5,1 c 0,0.30945 0.0903,0.55231 0.2813,0.74998 l 2.71876,2.65625 2.71874,-2.65625 c 0.19093,-0.19772 0.28126,-0.44056 0.28126,-0.75 v -1 z" />
    <path
       style="display:inline;opacity:1;fill:#cc0000;fill-opacity:1;stroke:none;enable-background:new"
       id="rect5922-5"
       d="m 101.25983,873.64243 c -0.34368,-0.34368 -0.34865,-1.07502 -2e-5,-1.42366 l 0.0404,-0.0403 c 4.26664,-4.24462 11.16673,-4.2381 15.42494,0.0201 l 0.02,0.0201 c 0.35061,0.35061 0.31853,1.07025 -0.0201,1.44378 l -1.93063,1.99693 c -0.35652,0.35653 -0.93056,0.35652 -1.28709,10e-6 l -1.28709,-1.2871 c -0.35652,-0.35653 -0.35653,-0.93055 -1e-5,-1.28709 l 0.30167,-0.30165 c -2.22715,-1.06378 -4.81163,-1.06378 -7.03876,10e-6 l 0.30166,0.30164 c 0.35653,0.35654 0.35652,0.93056 0,1.2871 l -1.28709,1.28708 c -0.35653,0.35653 -0.93663,0.3625 -1.28709,0 z" />
  </g>
</svg>
