<?xml version="1.0" encoding="UTF-8" standalone="no"?>
<svg
   xmlns:osb="http://www.openswatchbook.org/uri/2009/osb"
   xmlns:dc="http://purl.org/dc/elements/1.1/"
   xmlns:cc="http://creativecommons.org/ns#"
   xmlns:rdf="http://www.w3.org/1999/02/22-rdf-syntax-ns#"
   xmlns:svg="http://www.w3.org/2000/svg"
   xmlns="http://www.w3.org/2000/svg"
   width="16"
   version="1.1"
	 viewBox="-4 -4 24 24"

   id="svg7384"
   height="16">
  <metadata
     id="metadata90">
    <rdf:RDF>
      <cc:Work
         rdf:about="">
        <dc:format>image/svg+xml</dc:format>
        <dc:type
           rdf:resource="http://purl.org/dc/dcmitype/StillImage" />
        <dc:title>Gnome Symbolic Icon Theme</dc:title>
      </cc:Work>
    </rdf:RDF>
  </metadata>
  <title
     id="title9167">Gnome Symbolic Icon Theme</title>
  <defs
     id="defs7386">
    <linearGradient
       osb:paint="solid"
       id="linearGradient19282"
       gradientTransform="matrix(-2.7365795,0.28202934,-0.18908311,-0.99988321,239.54008,-879.45557)">
      <stop
         style="stop-color:#666666;stop-opacity:1;"
         offset="0"
         id="stop19284" />
    </linearGradient>
  </defs>
  <g
     transform="translate(-81.000204,-867)"
     style="display:inline"
     id="layer9" />
  <g
     transform="translate(-81.000204,-867)"
     style="display:inline"
     id="layer10" />
  <g
     transform="translate(-81.000204,-867)"
     id="layer11" />
  <g
     transform="translate(-81.000204,-867)"
     style="display:inline"
     id="layer13" />
  <g
     transform="translate(-81.000204,-867)"
     id="layer14" />
  <g
     transform="translate(-81.000204,-867)"
     style="display:inline"
     id="layer15" />
  <g
     transform="translate(-81.000204,-867)"
     style="display:inline"
     id="g71291" />
  <g
     transform="translate(-81.000204,-867)"
     style="display:inline"
     id="g4953" />
  <g
     transform="translate(-81.000204,-867)"
     style="display:inline"
     id="layer12">
    <path
       style="opacity:1;fill:#f1f2f2;fill-opacity:1;stroke:none"
       id="rect5922"
       d="m 94.03162,868.00336 c 0.53403,0 0.96875,0.42699 0.96875,0.96875 v 0.0625 c -0.01714,6.61281 -5.38317,11.96875 -12,11.96875 h -0.0312 c -0.54483,0 -0.9688,-0.446 -0.9688,-1 v -1 -2 c 0,-0.554 0.446,-1 1,-1 h 2 c 0.554,0 1,0.446 1,1 v 0.46875 c 2.55686,-0.90388 4.56487,-2.91189 5.46875,-5.46875 h -0.46875 c -0.55401,0 -1,-0.44599 -1,-1 v -2 c 0,-0.55401 0.44599,-1 1,-1 h 1 1 0.96875 0.0312 0.0312 z" />
  </g>
</svg>
