<?xml version="1.0" encoding="UTF-8" standalone="no"?>
<svg
   xmlns:osb="http://www.openswatchbook.org/uri/2009/osb"
   xmlns:dc="http://purl.org/dc/elements/1.1/"
   xmlns:cc="http://creativecommons.org/ns#"
   xmlns:rdf="http://www.w3.org/1999/02/22-rdf-syntax-ns#"
   xmlns:svg="http://www.w3.org/2000/svg"
   xmlns="http://www.w3.org/2000/svg"
   width="16.000004"
   version="1.1"
	 viewBox="-4 -4 24 24"

   id="svg7384"
   height="16.000002">
  <metadata
     id="metadata90">
    <rdf:RDF>
      <cc:Work
         rdf:about="">
        <dc:format>image/svg+xml</dc:format>
        <dc:type
           rdf:resource="http://purl.org/dc/dcmitype/StillImage" />
        <dc:title>Gnome Symbolic Icon Theme</dc:title>
      </cc:Work>
    </rdf:RDF>
  </metadata>
  <title
     id="title9167">Gnome Symbolic Icon Theme</title>
  <defs
     id="defs7386">
    <linearGradient
       osb:paint="solid"
       id="linearGradient19282"
       gradientTransform="matrix(-2.7365795,0.28202934,-0.18908311,-0.99988321,239.54008,-879.45557)">
      <stop
         style="stop-color:#666666;stop-opacity:1;"
         offset="0"
         id="stop19284" />
    </linearGradient>
  </defs>
  <g
     transform="translate(-141.0002,-317)"
     style="display:inline"
     id="layer9">
    <path
       style="color:#f1f2f2;font-style:normal;font-variant:normal;font-weight:normal;font-stretch:normal;font-size:xx-small;line-height:normal;font-family:Sans;-inkscape-font-specification:Sans;text-indent:0;text-align:start;text-decoration:none;text-decoration-line:none;letter-spacing:normal;word-spacing:normal;text-transform:none;writing-mode:lr-tb;direction:ltr;baseline-shift:baseline;text-anchor:start;display:inline;overflow:visible;visibility:visible;opacity:0.5;fill:#f1f2f2;fill-opacity:1;fill-rule:nonzero;stroke:none;stroke-width:2;marker:none;enable-background:accumulate"
       id="path44196"
       d="m 149.99715,317.00012 v 0.78125 a 1.001098,1.001098 0 0 0 1.03125,1.21875 h 0.59375 l -2.5625,2.5625 -2.375,-2.28125 a 1.0054782,1.0054782 0 0 0 -0.71875,-0.28125 h -0.125 -0.84375 v 0.75 a 1.0054782,1.0054782 0 0 0 0,0.0937 1.0054782,1.0054782 0 0 0 0.28125,0.875 l 3.09375,2.96875 0.6875,0.6875 0.71875,-0.6875 3.21875,-3.25 v 0.5625 a 1.0001,1.0001 0 0 0 1,1 h 1 v -0.84375 a 1.0001,1.0001 0 0 0 0,-0.1562 v -3 -1 h -1 -2.96875 a 1.0001,1.0001 0 0 0 -0.0312,0 z" />
    <path
       style="display:inline;opacity:1;fill:#f1f2f2;fill-opacity:1;stroke:none;enable-background:new"
       id="rect5922-5-0"
       d="m 141.2661,330.71341 c -0.34368,-0.34368 -0.34865,-1.07502 -2e-5,-1.42366 l 0.0404,-0.0403 c 4.26664,-4.24462 11.16673,-4.2381 15.42494,0.0201 l 0.02,0.0201 c 0.35061,0.35061 0.31852,1.07025 -0.0201,1.44378 l -1.93062,1.99693 c -0.35652,0.35653 -0.93056,0.35652 -1.28709,10e-6 l -1.28709,-1.2871 c -0.35652,-0.35653 -0.35653,-0.93055 -1e-5,-1.28709 l 0.30167,-0.30165 c -2.22715,-1.06378 -4.81163,-1.06378 -7.03876,10e-6 l 0.30166,0.30164 c 0.35653,0.35654 0.35652,0.93056 0,1.2871 l -1.28709,1.28708 c -0.35653,0.35653 -0.93663,0.3625 -1.28709,0 z" />
  </g>
  <g
     transform="translate(-141.0002,-317)"
     style="display:inline"
     id="layer10" />
  <g
     transform="translate(-141.0002,-317)"
     id="layer11" />
  <g
     transform="translate(-141.0002,-317)"
     style="display:inline"
     id="layer13" />
  <g
     transform="translate(-141.0002,-317)"
     id="layer14" />
  <g
     transform="translate(-141.0002,-317)"
     style="display:inline"
     id="layer15" />
  <g
     transform="translate(-141.0002,-317)"
     style="display:inline"
     id="g71291" />
  <g
     transform="translate(-141.0002,-317)"
     style="display:inline"
     id="g4953" />
  <g
     transform="translate(-141.0002,-317)"
     style="display:inline"
     id="layer12" />
</svg>
