<?xml version="1.0" encoding="UTF-8" standalone="no"?>
<svg
   xmlns:dc="http://purl.org/dc/elements/1.1/"
   xmlns:cc="http://creativecommons.org/ns#"
   xmlns:rdf="http://www.w3.org/1999/02/22-rdf-syntax-ns#"
   xmlns:svg="http://www.w3.org/2000/svg"
   xmlns="http://www.w3.org/2000/svg"
   width="16"
   height="16"
   version="1.1"
	 viewBox="-4 -4 24 24"

   id="svg7384">
  <title
     id="title9167">Gnome Symbolic Icon Theme</title>
  <metadata
     id="metadata90">
    <rdf:RDF>
      <cc:Work
         rdf:about="">
        <dc:format>image/svg+xml</dc:format>
        <dc:type
           rdf:resource="http://purl.org/dc/dcmitype/StillImage" />
        <dc:title>Gnome Symbolic Icon Theme</dc:title>
      </cc:Work>
    </rdf:RDF>
  </metadata>
  <defs
     id="defs7386" />
  <g
     style="display:inline"
     id="layer9"
     transform="translate(-80,-338)" />
  <g
     id="layer10"
     transform="translate(-80,-338)">
    <path
       style="color:#f1f2f2;display:inline;overflow:visible;visibility:visible;fill:#f1f2f2;fill-opacity:1;fill-rule:nonzero;stroke:none;stroke-width:3;marker:none;enable-background:accumulate"
       id="rect5238"
       d="m 86,340 c -0.549959,0 -1,0.45004 -1,1 v 1 h -3 c -0.552014,0 -1,0.45004 -1,1 v 8 c 0,0.54996 0.447986,1 1,1 h 12 c 0.552014,0 1,-0.45004 1,-1 v -8 c 0,-0.54996 -0.447986,-1 -1,-1 h -3 v -1 c 0,-0.54996 -0.450041,-1 -1,-1 z m 2,3 c 2.209139,0 4,1.79086 4,4 0,2.20914 -1.790861,4 -4,4 -2.209139,0 -4,-1.79086 -4,-4 0,-2.20914 1.790861,-4 4,-4 z m 0,2 c -1.10457,0 -2,0.89543 -2,2 0,1.10457 0.89543,2 2,2 1.10457,0 2,-0.89543 2,-2 0,-1.10457 -0.89543,-2 -2,-2 z" />
  </g>
  <g
     id="layer11"
     transform="translate(-80,-338)" />
  <g
     id="layer12"
     transform="translate(-80,-338)" />
  <g
     id="layer13"
     transform="translate(-80,-338)" />
  <g
     id="layer14"
     transform="translate(-80,-338)" />
  <g
     id="layer15"
     transform="translate(-80,-338)" />
</svg>
