<?xml version="1.0" encoding="UTF-8" standalone="no"?>
<svg
   xmlns:dc="http://purl.org/dc/elements/1.1/"
   xmlns:cc="http://creativecommons.org/ns#"
   xmlns:rdf="http://www.w3.org/1999/02/22-rdf-syntax-ns#"
   xmlns:svg="http://www.w3.org/2000/svg"
   xmlns="http://www.w3.org/2000/svg"
   width="16"
   version="1.1"
	 viewBox="-4 -4 24 24"

   id="svg7384"
   height="16">
  <metadata
     id="metadata90">
    <rdf:RDF>
      <cc:Work
         rdf:about="">
        <dc:format>image/svg+xml</dc:format>
        <dc:type
           rdf:resource="http://purl.org/dc/dcmitype/StillImage" />
        <dc:title>Gnome Symbolic Icon Theme</dc:title>
      </cc:Work>
    </rdf:RDF>
  </metadata>
  <title
     id="title9167">Gnome Symbolic Icon Theme</title>
  <defs
     id="defs7386" />
  <g
     transform="translate(-181.0002,-467)"
     style="display:inline"
     id="layer9" />
  <g
     transform="translate(-181.0002,-467)"
     style="display:inline"
     id="layer10">
    <path
       style="color:#000000;display:inline;overflow:visible;visibility:visible;fill:#f1f2f2;fill-opacity:1;fill-rule:nonzero;stroke:none;stroke-width:1;marker:none;enable-background:accumulate"
       id="rect3057"
       d="m 192.5018,468 c 1.933,0 3.5,1.567 3.5,3.5 0,1.11938 -0.526,2.10932 -1.34375,2.75 0.20995,0.18305 0.34375,0.4483 0.34375,0.75 -0.002,2 0,3.05212 0,6 0,0.554 -0.446,1 -1,1 h -9 c -0.554,0 -1,-0.446 -1,-1 v -2.15625 l -2.5625,1.90625 c -0.0194,0.013 -0.0404,0.0236 -0.0625,0.0312 -0.0309,0.005 -0.0628,0.005 -0.0937,0 -0.0207,0.002 -0.0418,0.002 -0.0625,0 -0.0221,-0.008 -0.0431,-0.0182 -0.0625,-0.0312 -0.0221,-0.008 -0.0431,-0.0181 -0.0625,-0.0312 -0.0112,-0.01 -0.0217,-0.02 -0.0312,-0.0312 -0.0112,-0.01 -0.0217,-0.02 -0.0312,-0.0312 -0.0131,-0.0194 -0.0236,-0.0404 -0.0312,-0.0625 -0.002,-0.0207 -0.002,-0.0418 0,-0.0625 v -6.0625 c -0.002,-0.0207 -0.002,-0.0418 0,-0.0625 0.008,-0.0221 0.0181,-0.0431 0.0312,-0.0625 0.01,-0.0112 0.02,-0.0217 0.0312,-0.0312 0.01,-0.0112 0.02,-0.0217 0.0312,-0.0312 0.01,-0.0112 0.02,-0.0217 0.0312,-0.0312 0.01,-0.0112 0.02,-0.0217 0.0312,-0.0312 0.0194,-0.013 0.0404,-0.0236 0.0625,-0.0312 0.0309,-0.005 0.0628,-0.005 0.0937,0 0.0104,-6e-4 0.0208,-6e-4 0.0312,0 0.0112,0.01 0.0217,0.02 0.0312,0.0312 0.0221,0.008 0.0431,0.0181 0.0625,0.0312 l 2.5625,1.90625 v -1.15625 c 0,-0.3017 0.1338,-0.56695 0.34375,-0.75 -0.81775,-0.64068 -1.34375,-1.63062 -1.34375,-2.75 0,-1.933 1.567,-3.5 3.5,-3.5 1.2836,0 2.39085,0.68846 3,1.71875 0.60915,-1.03029 1.7164,-1.71875 3,-1.71875 z m 0,2 c -0.82843,0 -1.5,0.67157 -1.5,1.5 0,0.82843 0.67157,1.5 1.5,1.5 0.82843,0 1.5,-0.67157 1.5,-1.5 0,-0.82843 -0.67157,-1.5 -1.5,-1.5 z m -6,0 c -0.82843,0 -1.5,0.67157 -1.5,1.5 0,0.82843 0.67157,1.5 1.5,1.5 0.82843,0 1.5,-0.67157 1.5,-1.5 0,-0.82843 -0.67157,-1.5 -1.5,-1.5 z m 3,3.28125 c -0.15809,0.26739 -0.34144,0.50321 -0.5625,0.71875 h 1.125 c -0.22106,-0.21554 -0.40441,-0.45136 -0.5625,-0.71875 z" />
  </g>
  <g
     transform="translate(-181.0002,-467)"
     id="layer11" />
  <g
     transform="translate(-181.0002,-467)"
     style="display:inline"
     id="layer13" />
  <g
     transform="translate(-181.0002,-467)"
     id="layer14" />
  <g
     transform="translate(-181.0002,-467)"
     style="display:inline"
     id="layer15" />
  <g
     transform="translate(-181.0002,-467)"
     style="display:inline"
     id="g71291" />
  <g
     transform="translate(-181.0002,-467)"
     style="display:inline"
     id="g4953" />
  <g
     transform="translate(-181.0002,-467)"
     style="display:inline"
     id="layer12" />
</svg>
