<?xml version="1.0" encoding="UTF-8" standalone="no"?>
<svg
   xmlns:dc="http://purl.org/dc/elements/1.1/"
   xmlns:cc="http://creativecommons.org/ns#"
   xmlns:rdf="http://www.w3.org/1999/02/22-rdf-syntax-ns#"
   xmlns:svg="http://www.w3.org/2000/svg"
   xmlns="http://www.w3.org/2000/svg"
   width="16"
   height="16"
   version="1.1"
	 viewBox="-4 -4 24 24"

   id="svg7384">
  <metadata
     id="metadata90">
    <rdf:RDF>
      <cc:Work
         rdf:about="">
        <dc:format>image/svg+xml</dc:format>
        <dc:type
           rdf:resource="http://purl.org/dc/dcmitype/StillImage" />
        <dc:title>Gnome Symbolic Icon Theme</dc:title>
      </cc:Work>
    </rdf:RDF>
  </metadata>
  <title
     id="title9167">Gnome Symbolic Icon Theme</title>
  <defs
     id="defs7386" />
  <g
     style="display:inline"
     id="layer9"
     transform="translate(-101.0002,-397)">
    <g
       style="fill:#f1f2f2;fill-opacity:1"
       id="g4053-3-8"
       transform="translate(81.0002,121)" />
    <path
       style="color:#f1f2f2;display:inline;overflow:visible;visibility:visible;fill:#f1f2f2;fill-opacity:1;fill-rule:nonzero;stroke:none;stroke-width:2;marker:none"
       id="rect4063-6-6"
       d="m 106.0002,397 c -1.64469,0 -3,1.35529 -3,3 v 3 h 2 v -3 c 0,-0.57129 0.42873,-1 1,-1 h 2 c 0.57127,0 1,0.42871 1,1 v 0.25 c 0.26687,-0.14912 0.55674,-0.25 0.875,-0.25 h 1.125 c 0,-1.64471 -1.35531,-3 -3,-3 z m -3.0625,9 c -0.554,0 -1.06473,0.44979 -1,1 V 407.53125 412 h 10.0625 v -2 h -2.125 c -1.01035,0 -1.875,-0.86466 -1.875,-1.875 V 406 Z" />
    <path
       style="color:#f1f2f2;display:inline;overflow:visible;visibility:visible;fill:#ff6600;fill-opacity:1;fill-rule:nonzero;stroke:none;stroke-width:2;marker:none"
       id="path10898-3-1"
       d="m 109.875,401 c -0.49245,0 -0.875,0.38256 -0.875,0.875 v 6.25 c 0,0.49244 0.38255,0.875 0.875,0.875 h 6.25 c 0.49245,0 0.875,-0.38256 0.875,-0.875 v -6.25 C 117,401.38256 116.61745,401 116.125,401 Z m 2.125,1 h 2 v 4 h -2 z m 0,5 h 2 v 1 h -2 z"
       class="warning" />
  </g>
  <g
     id="layer10"
     transform="translate(-101.0002,-397)" />
  <g
     id="layer11"
     transform="translate(-101.0002,-397)" />
  <g
     id="layer12"
     transform="translate(-101.0002,-397)" />
  <g
     id="layer13"
     transform="translate(-101.0002,-397)" />
  <g
     id="layer14"
     transform="translate(-101.0002,-397)" />
  <g
     style="display:inline"
     id="layer15"
     transform="translate(-101.0002,-397)" />
  <g
     style="display:inline"
     id="g4953"
     transform="translate(-101.0002,-397)" />
</svg>
