<?xml version="1.0" encoding="UTF-8" standalone="no"?>
<svg
   xmlns:dc="http://purl.org/dc/elements/1.1/"
   xmlns:cc="http://creativecommons.org/ns#"
   xmlns:rdf="http://www.w3.org/1999/02/22-rdf-syntax-ns#"
   xmlns:svg="http://www.w3.org/2000/svg"
   xmlns="http://www.w3.org/2000/svg"
   width="16"
   version="1.1"
	 viewBox="-4 -4 24 24"

   id="svg7384"
   height="16">
  <metadata
     id="metadata90">
    <rdf:RDF>
      <cc:Work
         rdf:about="">
        <dc:format>image/svg+xml</dc:format>
        <dc:type
           rdf:resource="http://purl.org/dc/dcmitype/StillImage" />
        <dc:title>Gnome Symbolic Icon Theme</dc:title>
      </cc:Work>
    </rdf:RDF>
  </metadata>
  <title
     id="title9167">Gnome Symbolic Icon Theme</title>
  <defs
     id="defs7386" />
  <g
     transform="translate(-201.0002,-237)"
     style="display:inline"
     id="layer9">
    <path
       style="color:#f1f2f2;display:inline;overflow:visible;visibility:visible;fill:#f1f2f2;fill-opacity:1;fill-rule:nonzero;stroke:none;stroke-width:2;marker:none"
       id="rect4063-6"
       d="m 208.0002,237 c -1.64469,0 -3,1.35529 -3,3 v 3 h 2 v -3 c 0,-0.57129 0.42873,-1 1,-1 h 2 c 0.57127,0 1,0.42871 1,1 v 6 h -7 c -0.554,0 -1,0.446 -1,1 V 247.53125 253 h 12 V 247.53125 247 c 0,-0.554 -0.446,-1 -1,-1 h -1 v -6 c 0,-1.64471 -1.35531,-3 -3,-3 z" />
  </g>
  <g
     transform="translate(-201.0002,-237)"
     style="display:inline"
     id="layer10" />
  <g
     transform="translate(-201.0002,-237)"
     id="layer11" />
  <g
     transform="translate(-201.0002,-237)"
     style="display:inline"
     id="layer13" />
  <g
     transform="translate(-201.0002,-237)"
     id="layer14" />
  <g
     transform="translate(-201.0002,-237)"
     style="display:inline"
     id="layer15" />
  <g
     transform="translate(-201.0002,-237)"
     style="display:inline"
     id="g71291" />
  <g
     transform="translate(-201.0002,-237)"
     style="display:inline"
     id="g4953" />
  <g
     transform="translate(-201.0002,-237)"
     style="display:inline"
     id="layer12" />
</svg>
