<svg xmlns="http://www.w3.org/2000/svg" enable-background="new 0 0 1024 1024" xml:space="preserve" version="1.1" y="0px" x="0px" viewBox="-4 -4 24 24"><g fill="#f1f2f2" transform="matrix(.016222 0 0 .016222 6.997 .056276)"><path d="m33.053 58.174c-12.56 0.85-25.073 2.304-37.323 4.214l-17.819 89.692c-33.35 8.74-64.817 22.191-93.427 39.851l-76.692-51.289c-36.03 26.43-67.88 58.331-94.27 94.391l52.613 78.739c-16.01 27.81-28.69 58.056-36.48 90.056l-94.15 18.541c-3.42 21.79-5.177 44.13-5.177 66.82 0 22.76 1.737 45.11 5.177 66.94l95.956 18.902c8.2 30.72 20.78 59.845 36.6 86.565l-54.419 81.749c26.44 36.11 58.291 68.061 94.391 94.511l81.869-54.54c26.72 15.82 55.724 28.521 86.444 36.721l19.023 95.956c21.84 3.44 44.18 5.177 66.94 5.177 22.69 0 45.05-1.767 66.82-5.177l18.541-94.029c32-7.79 62.246-20.35 90.056-36.36l78.739 52.372c36.1-26.42 67.941-58.311 94.391-94.391l-51.048-76.572c17.66-28.62 30.87-59.957 39.61-93.307l89.695-17.939c1.92-12.25 3.3638-24.642 4.2138-37.202v-58.753c-0.84999-12.49-2.1935-24.782-4.0934-36.962l-88.01-17.578c-8.28-34.66-21.53-67.309-39.37-97.039l49.001-73.442c-26.41-36.02-58.24-67.88-94.27-94.27l-73.321 49.001c-29.72-17.85-62.379-30.969-97.039-39.249l-17.58-88.013c-12.18-1.9-24.472-3.2435-36.962-4.0935zm39.61 179.51c67.07 0 130.22 26.072 177.7 73.442l-69.22 69.35c-28.98-28.91-67.537-44.787-108.48-44.787-84.64 0-153.51 68.855-153.51 153.51 0 84.64 68.855 153.51 153.51 153.51 40.94 0 79.497-15.867 108.48-44.787l69.228 69.348c-47.48 47.37-110.63 73.442-177.7 73.442-67.18 0-130.33-26.182-177.83-73.683-47.5-47.5-73.682-110.66-73.682-177.83 0-67.18 26.182-130.33 73.682-177.83s110.66-73.682 177.83-73.682z" fill="#f1f2f2"/></g><g id="C" transform="translate(0,-1008)"><g transform="matrix(.016222 0 0 .016222 -.29780 1007.7)"/></g></svg>
