<?xml version="1.0" encoding="UTF-8" standalone="no"?>
<svg
   xmlns:dc="http://purl.org/dc/elements/1.1/"
   xmlns:cc="http://creativecommons.org/ns#"
   xmlns:rdf="http://www.w3.org/1999/02/22-rdf-syntax-ns#"
   xmlns:svg="http://www.w3.org/2000/svg"
   xmlns="http://www.w3.org/2000/svg"
   id="svg10"
   version="1.1"
   viewBox="-4 -4 24 24">
  <metadata
     id="metadata16">
    <rdf:RDF>
      <cc:Work
         rdf:about="">
        <dc:format>image/svg+xml</dc:format>
        <dc:type
           rdf:resource="http://purl.org/dc/dcmitype/StillImage" />
        <dc:title></dc:title>
      </cc:Work>
    </rdf:RDF>
  </metadata>
  <defs
     id="defs14" />
  <path
     id="path2"
     fill="#f1f2f2"
     opacity=".965"
     d="M5 11v3H4c-1 0-1 0-1 1s0 1 1.01 1H12c1 0 1 0 1-1s0-1-1-1h-1v-3z" />
  <path
     id="path4"
     fill="#f1f2f2"
     d="M.8 1a.8.8 0 0 0-.8.8v10.4a.8.8 0 0 0 .8.8h14.4a.8.8 0 0 0 .8-.8V1.8a.8.8 0 0 0-.8-.8zM2 3h12v7H2z" />
</svg>
