<?xml version="1.0" encoding="UTF-8" standalone="no"?>
<svg
   xmlns:dc="http://purl.org/dc/elements/1.1/"
   xmlns:cc="http://creativecommons.org/ns#"
   xmlns:rdf="http://www.w3.org/1999/02/22-rdf-syntax-ns#"
   xmlns:svg="http://www.w3.org/2000/svg"
   xmlns="http://www.w3.org/2000/svg"
   width="16"
   version="1.1"
	 viewBox="-4 -4 24 24"

   id="svg7384"
   height="16">
  <metadata
     id="metadata90">
    <rdf:RDF>
      <cc:Work
         rdf:about="">
        <dc:format>image/svg+xml</dc:format>
        <dc:type
           rdf:resource="http://purl.org/dc/dcmitype/StillImage" />
        <dc:title>Gnome Symbolic Icon Theme</dc:title>
      </cc:Work>
    </rdf:RDF>
  </metadata>
  <title
     id="title9167">Gnome Symbolic Icon Theme</title>
  <defs
     id="defs7386" />
  <g
     transform="translate(-261.0002,-727)"
     style="display:inline"
     id="layer9" />
  <g
     transform="translate(-261.0002,-727)"
     style="display:inline"
     id="layer10" />
  <g
     transform="translate(-261.0002,-727)"
     id="layer11" />
  <g
     transform="translate(-261.0002,-727)"
     style="display:inline"
     id="layer13" />
  <g
     transform="translate(-261.0002,-727)"
     id="layer14" />
  <g
     transform="translate(-261.0002,-727)"
     style="display:inline"
     id="layer15" />
  <g
     transform="translate(-261.0002,-727)"
     style="display:inline"
     id="g71291" />
  <g
     transform="translate(-261.0002,-727)"
     style="display:inline"
     id="g4953" />
  <g
     transform="translate(-261.0002,-727)"
     style="display:inline"
     id="layer12">
    <path
       style="fill:#f1f2f2;fill-opacity:1;stroke:none"
       id="path3940-5-0"
       d="m 269.55489,735.09373 c -0.70541,0.62353 -1.53918,0.90625 -2.55469,0.90625 -1.01551,0 -1.85318,-0.29053 -2.55859,-0.91406 -1.10938,0.36328 -2.43603,1.28775 -2.4375,2.90234 l -0.004,3.01172 c -7.2e-4,0.554 0.446,1.00002 1,1.00002 h 8 c 0.554,0 1,-0.44602 1,-1.00002 v -3 c 0,-1.38672 -1.10231,-2.5558 -2.44531,-2.90625 z" />
    <path
       id="path3942-6-0"
       d="M 52,342.5 A 2.5,2.5 0 0 1 49.5,345 2.5,2.5 0 0 1 47,342.5 2.5,2.5 0 0 1 49.5,340 2.5,2.5 0 0 1 52,342.5 Z"
       style="color:#f1f2f2;display:inline;overflow:visible;visibility:visible;fill:#f1f2f2;fill-opacity:1;fill-rule:nonzero;stroke:none;stroke-width:2;marker:none;enable-background:accumulate"
       transform="matrix(1.2,0,0,1.2,207.6002,320.99997)" />
    <path
       style="display:inline;fill:#669900;fill-opacity:1;stroke:none"
       id="path26815-7"
       d="M 273.00019,728.00327 V 730 h -1.99999 v 1.99673 h 1.99999 v 1.99673 h 2.00001 v -1.99673 h 2 V 730 h -2 v -1.99673 z" />
  </g>
</svg>
