<?xml version="1.0" encoding="UTF-8" standalone="no"?>
<svg
   xmlns:dc="http://purl.org/dc/elements/1.1/"
   xmlns:cc="http://creativecommons.org/ns#"
   xmlns:rdf="http://www.w3.org/1999/02/22-rdf-syntax-ns#"
   xmlns:svg="http://www.w3.org/2000/svg"
   xmlns="http://www.w3.org/2000/svg"
   width="16"
   height="16"
   version="1.1"
	 viewBox="-4 -4 24 24"

   id="svg7384">
  <metadata
     id="metadata90">
    <rdf:RDF>
      <cc:Work
         rdf:about="">
        <dc:format>image/svg+xml</dc:format>
        <dc:type
           rdf:resource="http://purl.org/dc/dcmitype/StillImage" />
        <dc:title>Gnome Symbolic Icon Theme</dc:title>
      </cc:Work>
    </rdf:RDF>
  </metadata>
  <title
     id="title9167">Gnome Symbolic Icon Theme</title>
  <defs
     id="defs7386" />
  <g
     style="display:inline"
     id="layer9"
     transform="translate(-281.0002,-257)">
    <path
       style="color:#f1f2f2;display:inline;overflow:visible;visibility:visible;fill:#f1f2f2;fill-opacity:1;stroke:none;stroke-width:2;marker:none"
       id="path19592"
       d="m 289,257.03125 c -0.40018,0 -0.81534,0.15911 -1.125,0.46875 l -6.375,6.375 c -0.61932,0.61929 -0.61932,1.63071 0,2.25 l 6.375,6.375 c 0.61931,0.61929 1.63068,0.61929 2.25,0 l 6.375,-6.375 c 0.61932,-0.61929 0.61931,-1.63071 0,-2.25 l -6.375,-6.375 c -0.30966,-0.30964 -0.72482,-0.46875 -1.125,-0.46875 z M 288.8125,260 c 1.64243,-0.092 3.0955,1.17008 3.1875,2.8125 -10e-5,1.40136 -0.37771,1.92177 -1.59375,2.84375 -0.19093,0.14364 -0.3256,0.2506 -0.375,0.3125 C 289.98185,266.03085 290,266.002 290,266 c 0.007,0.52831 -0.47163,1 -1,1 -0.52837,0 -1.007,-0.47169 -1,-1 0,-0.50239 0.22424,-0.94342 0.46875,-1.25 0.24451,-0.30663 0.4913,-0.51638 0.71875,-0.6875 0.20405,-0.16056 0.46083,-0.38454 0.6875,-0.65625 0.0935,-0.1121 0.129,-0.30766 0.125,-0.4375 v -0.0313 c -0.0316,-0.56324 -0.49926,-0.9691 -1.0625,-0.9375 -0.56324,0.0316 -0.9691,0.43676 -0.9375,1 h -2 c -0.092,-1.64243 1.17007,-2.9079 2.8125,-3 z M 289,268 c 0.55228,0 1,0.44772 1,1 0,0.55228 -0.44772,1 -1,1 -0.55228,0 -1,-0.44772 -1,-1 0,-0.55228 0.44772,-1 1,-1 z" />
  </g>
  <g
     id="layer10"
     transform="translate(-281.0002,-257)" />
  <g
     id="layer11"
     transform="translate(-281.0002,-257)" />
  <g
     id="layer12"
     transform="translate(-281.0002,-257)" />
  <g
     id="layer13"
     transform="translate(-281.0002,-257)" />
  <g
     id="layer14"
     transform="translate(-281.0002,-257)" />
  <g
     style="display:inline"
     id="layer15"
     transform="translate(-281.0002,-257)" />
  <g
     style="display:inline"
     id="g4953"
     transform="translate(-281.0002,-257)" />
</svg>
