<?xml version="1.0" encoding="UTF-8" standalone="no"?>
<svg id="svg12" xmlns="http://www.w3.org/2000/svg" version="1.1" viewBox="-4 -4 24 24"><g id="g10" style="fill:#f1f2f2" transform="matrix(3.7843 0 0 3.7798 -.027843 .019125)"><path id="path2" d="m0.54 0.522v0.53h3.17v-0.53zm1.582 1.059c-0.876 0-1.058 0.529-1.587 0.926 0.529 0.397 0.71 0.926 1.587 0.926s1.058-0.53 1.588-0.926c-0.53-0.397-0.711-0.926-1.588-0.926zm0 0.264c0.439 0 0.794 0.296 0.794 0.662 0 0.365-0.355 0.661-0.794 0.661-0.438 0-0.793-0.296-0.793-0.661 0-0.366 0.355-0.662 0.793-0.662zm0.009 0.265a0.322 0.397 0 0 0 -0.323 0.397 0.322 0.397 0 0 0 0.323 0.397 0.322 0.397 0 0 0 0.322 -0.397 0.322 0.397 0 0 0 -0.322 -0.397zm-2.121-2.117h0.265v4.233h-0.264z"/><path id="path4" d="m0.01-0.007h4.228v0.265h-4.228z"/><path id="path6" d="m3.974-0.007h0.264v4.233h-0.264z"/><path id="path8" d="m0.01 3.962h4.228v0.264h-4.228z"/></g></svg>
