<svg xmlns="http://www.w3.org/2000/svg" viewBox="0 0 4.2333332 4.2333335">
    <g fill="#f1f2f2">
        <path d="M.54.522v.53h3.17v-.53H.54zm1.582 1.059c-.876 0-1.058.529-1.587.926.529.397.71.926 1.587.926s1.058-.53 1.588-.926c-.53-.397-.711-.926-1.588-.926zm0 .264c.439 0 .794.296.794.662 0 .365-.355.661-.794.661-.438 0-.793-.296-.793-.661 0-.366.355-.662.793-.662zm.009.265a.322.397 0 0 0-.323.397.322.397 0 0 0 .323.397.322.397 0 0 0 .322-.397.322.397 0 0 0-.322-.397zM.01-.007h.265v4.233H.011z"/>
        <path d="M.01-.007h4.228v.265H.01z"/>
        <path d="M3.974-.007h.264v4.233h-.264z"/>
        <path d="M.01 3.962h4.228v.264H.01z"/>
    </g>
</svg>
