<?xml version="1.0" encoding="UTF-8" standalone="no"?>
<svg
   xmlns:dc="http://purl.org/dc/elements/1.1/"
   xmlns:cc="http://creativecommons.org/ns#"
   xmlns:rdf="http://www.w3.org/1999/02/22-rdf-syntax-ns#"
   xmlns:svg="http://www.w3.org/2000/svg"
   xmlns="http://www.w3.org/2000/svg"
   width="16"
   version="1.1"
	 viewBox="-4 -4 24 24"

   id="svg7384"
   height="16">
  <metadata
     id="metadata90">
    <rdf:RDF>
      <cc:Work
         rdf:about="">
        <dc:format>image/svg+xml</dc:format>
        <dc:type
           rdf:resource="http://purl.org/dc/dcmitype/StillImage" />
        <dc:title>Gnome Symbolic Icon Theme</dc:title>
      </cc:Work>
    </rdf:RDF>
  </metadata>
  <title
     id="title9167">Gnome Symbolic Icon Theme</title>
  <defs
     id="defs7386" />
  <g
     transform="translate(-81,-317)"
     style="display:inline"
     id="layer9">
    <path
       id="rect4906-43-6"
       d="m 81.499998,324 h 2.000204 c 0.276999,0 0.499998,0.223 0.499998,0.5 v 1 c 0,0.277 -0.222999,0.5 -0.499998,0.5 H 81.499998 C 81.222999,326 81,325.777 81,325.5 v -1 c 0,-0.277 0.222999,-0.5 0.499998,-0.5 z"
       style="color:#f1f2f2;display:inline;overflow:visible;visibility:visible;fill:#f1f2f2;fill-opacity:1;fill-rule:nonzero;stroke:none;stroke-width:2;marker:none;enable-background:new" />
    <path
       id="rect4906-4-6-6"
       d="m 94.499998,324 h 2.0002 c 0.27689,0 0.4998,0.223 0.4998,0.5 v 1 c 0,0.277 -0.22291,0.5 -0.4998,0.5 h -2.0002 c -0.276889,0 -0.4998,-0.223 -0.4998,-0.5 v -1 c 0,-0.277 0.222911,-0.5 0.4998,-0.5 z"
       style="color:#f1f2f2;display:inline;overflow:visible;visibility:visible;fill:#f1f2f2;fill-opacity:1;fill-rule:nonzero;stroke:none;stroke-width:2;marker:none;enable-background:new" />
    <path
       id="rect8386"
       d="m -174.3772,291.74222 h 2.0002 c 0.277,0 0.5,0.223 0.5,0.5 v 1 c 0,0.277 -0.223,0.5 -0.5,0.5 h -2.0002 c -0.277,0 -0.5,-0.223 -0.5,-0.5 v -1 c 0,-0.277 0.223,-0.5 0.5,-0.5 z"
       style="color:#f1f2f2;display:inline;overflow:visible;visibility:visible;fill:#f1f2f2;fill-opacity:1;fill-rule:nonzero;stroke:none;stroke-width:2;marker:none;enable-background:new"
       transform="rotate(-45)" />
    <path
       id="rect8388"
       d="m -161.3772,291.74222 h 2.0002 c 0.27689,0 0.4998,0.223 0.4998,0.5 v 1 c 0,0.277 -0.22291,0.5 -0.4998,0.5 h -2.0002 c -0.27689,0 -0.4998,-0.223 -0.4998,-0.5 v -1 c 0,-0.277 0.22291,-0.5 0.4998,-0.5 z"
       style="color:#f1f2f2;display:inline;overflow:visible;visibility:visible;fill:#f1f2f2;fill-opacity:1;fill-rule:nonzero;stroke:none;stroke-width:2;marker:none;enable-background:new"
       transform="rotate(-45)" />
    <path
       id="rect8390"
       d="m -332.5,88.000031 h 2.0002 c 0.277,0 0.5,0.223 0.5,0.5 v 1 c 0,0.277 -0.223,0.5 -0.5,0.5 H -332.5 c -0.277,0 -0.5,-0.223 -0.5,-0.5 v -1 c 0,-0.277 0.223,-0.5 0.5,-0.5 z"
       style="color:#f1f2f2;display:inline;overflow:visible;visibility:visible;fill:#f1f2f2;fill-opacity:1;fill-rule:nonzero;stroke:none;stroke-width:2;marker:none;enable-background:new"
       transform="rotate(-90)" />
    <path
       id="rect8392"
       d="m -319.50002,88.000031 h 2.0002 c 0.27689,0 0.4998,0.223 0.4998,0.5 v 1 c 0,0.277 -0.22291,0.5 -0.4998,0.5 h -2.0002 c -0.27689,0 -0.4998,-0.223 -0.4998,-0.5 v -1 c 0,-0.277 0.22291,-0.5 0.4998,-0.5 z"
       style="color:#f1f2f2;display:inline;overflow:visible;visibility:visible;fill:#f1f2f2;fill-opacity:1;fill-rule:nonzero;stroke:none;stroke-width:2;marker:none;enable-background:new"
       transform="rotate(-90)" />
    <path
       id="rect8394"
       d="m -300.24222,-167.87718 h 2.0002 c 0.277,0 0.5,0.223 0.5,0.5 v 1 c 0,0.277 -0.223,0.5 -0.5,0.5 h -2.0002 c -0.277,0 -0.5,-0.223 -0.5,-0.5 v -1 c 0,-0.277 0.223,-0.5 0.5,-0.5 z"
       style="color:#f1f2f2;display:inline;overflow:visible;visibility:visible;fill:#f1f2f2;fill-opacity:1;fill-rule:nonzero;stroke:none;stroke-width:2;marker:none;enable-background:new"
       transform="rotate(-135)" />
    <path
       id="rect8396"
       d="m -287.24223,-167.87718 h 2.0002 c 0.27688,0 0.4998,0.223 0.4998,0.5 v 1 c 0,0.277 -0.22292,0.5 -0.4998,0.5 h -2.0002 c -0.27689,0 -0.4998,-0.223 -0.4998,-0.5 v -1 c 0,-0.277 0.22291,-0.5 0.4998,-0.5 z"
       style="color:#f1f2f2;display:inline;overflow:visible;visibility:visible;fill:#f1f2f2;fill-opacity:1;fill-rule:nonzero;stroke:none;stroke-width:2;marker:none;enable-background:new"
       transform="rotate(-135)" />
    <path
       style="color:#000000;font-style:normal;font-variant:normal;font-weight:normal;font-stretch:normal;font-size:medium;line-height:normal;font-family:Sans;-inkscape-font-specification:Sans;text-indent:0;text-align:start;text-decoration:none;text-decoration-line:none;letter-spacing:normal;word-spacing:normal;text-transform:none;writing-mode:lr-tb;direction:ltr;baseline-shift:baseline;text-anchor:start;display:inline;overflow:visible;visibility:visible;fill:#f1f2f2;fill-opacity:1;stroke:none;stroke-width:2.13605189;marker:none;enable-background:accumulate"
       id="path32729"
       d="m 88.988538,321.00774 c -2.197297,0 -3.979304,1.78201 -3.979304,3.9793 0,2.1973 1.782007,4.00857 3.979304,4.00857 2.197297,0 4.008564,-1.81127 4.008564,-4.00857 0,-2.19729 -1.811267,-3.9793 -4.008564,-3.9793 z m 0,1.98965 c 1.116415,0 2.018912,0.87324 2.018912,1.98965 0,1.11642 -0.902497,2.01891 -2.018912,2.01891 -1.116415,0 -1.989652,-0.90249 -1.989652,-2.01891 0,-1.11641 0.873237,-1.98965 1.989652,-1.98965 z" />
  </g>
  <g
     transform="translate(-81,-317)"
     style="display:inline"
     id="layer10" />
  <g
     transform="translate(-81,-317)"
     id="layer11" />
  <g
     transform="translate(-81,-317)"
     style="display:inline"
     id="layer13" />
  <g
     transform="translate(-81,-317)"
     id="layer14" />
  <g
     transform="translate(-81,-317)"
     style="display:inline"
     id="layer15" />
  <g
     transform="translate(-81,-317)"
     style="display:inline"
     id="g71291" />
  <g
     transform="translate(-81,-317)"
     style="display:inline"
     id="g4953" />
  <g
     transform="translate(-81,-317)"
     style="display:inline"
     id="layer12" />
</svg>
