<?xml version="1.0" encoding="UTF-8" standalone="no"?>
<svg
   xmlns:dc="http://purl.org/dc/elements/1.1/"
   xmlns:cc="http://creativecommons.org/ns#"
   xmlns:rdf="http://www.w3.org/1999/02/22-rdf-syntax-ns#"
   xmlns:svg="http://www.w3.org/2000/svg"
   xmlns="http://www.w3.org/2000/svg"
   width="16"
   version="1.1"
	 viewBox="-4 -4 24 24"

   id="svg7384"
   height="16.012238">
  <metadata
     id="metadata90">
    <rdf:RDF>
      <cc:Work
         rdf:about="">
        <dc:format>image/svg+xml</dc:format>
        <dc:type
           rdf:resource="http://purl.org/dc/dcmitype/StillImage" />
        <dc:title>Gnome Symbolic Icon Theme</dc:title>
      </cc:Work>
    </rdf:RDF>
  </metadata>
  <title
     id="title9167">Gnome Symbolic Icon Theme</title>
  <defs
     id="defs7386" />
  <g
     transform="translate(-363.0002,-807)"
     style="display:inline"
     id="layer9" />
  <g
     transform="translate(-363.0002,-807)"
     style="display:inline"
     id="layer10" />
  <g
     transform="translate(-363.0002,-807)"
     id="layer11" />
  <g
     transform="translate(-363.0002,-807)"
     style="display:inline"
     id="layer13" />
  <g
     transform="translate(-363.0002,-807)"
     id="layer14" />
  <g
     transform="translate(-363.0002,-807)"
     style="display:inline"
     id="layer15" />
  <g
     transform="translate(-363.0002,-807)"
     style="display:inline"
     id="g71291" />
  <g
     transform="translate(-363.0002,-807)"
     style="display:inline"
     id="g4953" />
  <g
     transform="translate(-363.0002,-807)"
     style="display:inline"
     id="layer12">
    <path
       style="color:#f1f2f2;display:inline;overflow:visible;visibility:visible;fill:#f1f2f2;fill-opacity:1;fill-rule:nonzero;stroke:none;stroke-width:1;marker:none;enable-background:accumulate"
       id="path27387"
       d="m 365.9377,807.99992 c -0.6325,0.0455 -1.02766,0.72053 -0.9375,1.3125 0.003,4.24997 0.0212,8.50019 0.0312,12.75 0.057,0.62486 0.69233,1.02649 1.28125,0.9375 3.25298,-0.003 6.49717,-0.0214 9.75,-0.0312 0.62425,-0.0569 1.02639,-0.69174 0.9375,-1.28124 -0.004,-3.25599 -0.0161,-6.52565 -0.0312,-9.78125 -0.0941,-0.59835 -0.66512,-0.91375 -1.03125,-1.34375 -0.80258,-0.78918 -1.55462,-1.60577 -2.375,-2.37501 -0.49046,-0.30313 -1.11077,-0.1456 -1.65625,-0.1875 z m 4.0625,3 h 1 v 1 c 0,0.25689 -0.12983,0.52846 -0.3125,0.71876 l -1.28125,1.28124 h 3.125 c 1.92184,0 3.5,1.57952 3.5,3.5 0,1.10035 -0.51808,2.07852 -1.32206,2.71329 l -1.1452,-1.63125 c 0.27211,-0.27101 0.43601,-0.65283 0.43601,-1.08204 0,-0.84095 -0.66911,-1.75588 -1.46875,-1.49999 h -3.125 l 1.28125,1.28124 c 0.18267,0.19029 0.3125,0.46186 0.3125,0.71875 v 1.00001 h -1 c -0.30945,0 -0.55232,-0.0904 -0.75,-0.28125 l -3.65625,-3.71876 3.65625,-3.71875 c 0.19768,-0.191 0.44055,-0.28125 0.75,-0.28125 z" />
  </g>
</svg>
