<?xml version="1.0" encoding="UTF-8" standalone="no"?>
<svg
   xmlns:dc="http://purl.org/dc/elements/1.1/"
   xmlns:cc="http://creativecommons.org/ns#"
   xmlns:rdf="http://www.w3.org/1999/02/22-rdf-syntax-ns#"
   xmlns:svg="http://www.w3.org/2000/svg"
   xmlns="http://www.w3.org/2000/svg"
   version="1.1"
	 viewBox="-4 -4 24 24"

   width="16"
   height="16"
   id="svg7384">
  <metadata
     id="metadata90">
    <rdf:RDF>
      <cc:Work
         rdf:about="">
        <dc:format>image/svg+xml</dc:format>
        <dc:type
           rdf:resource="http://purl.org/dc/dcmitype/StillImage" />
        <dc:title>Gnome Symbolic Icon Theme</dc:title>
      </cc:Work>
    </rdf:RDF>
  </metadata>
  <title
     id="title9167">Gnome Symbolic Icon Theme</title>
  <defs
     id="defs7386" />
  <g
     transform="translate(-101.0002,-647)"
     style="display:inline"
     id="layer9" />
  <g
     transform="translate(-101.0002,-647)"
     id="layer10" />
  <g
     transform="translate(-101.0002,-647)"
     id="layer11" />
  <g
     transform="translate(-101.0002,-647)"
     id="layer13" />
  <g
     transform="translate(-101.0002,-647)"
     id="layer14" />
  <g
     transform="translate(-101.0002,-647)"
     style="display:inline"
     id="layer15" />
  <g
     transform="translate(-101.0002,-647)"
     id="g71291"
     style="display:inline" />
  <g
     transform="translate(-101.0002,-647)"
     id="g4953"
     style="display:inline" />
  <g
     transform="translate(-101.0002,-647)"
     style="display:inline"
     id="layer12">
    <path
       id="path3613-6"
       d="m 105.0002,652 v 1 c 10e-6,0.2653 0.0931,0.53058 0.28125,0.71875 l 3,3 L 108.5627,657 h 0.875 l 0.28125,-0.28125 3,-3 c 0.18819,-0.18817 0.28124,-0.45345 0.28125,-0.71875 v -1 h -1 c -0.2653,10e-6 -0.53059,0.0931 -0.71875,0.28125 l -2.28125,2.28125 -2.28125,-2.28125 C 106.53079,652.0931 106.2655,652.00001 106.0002,652 Z"
       style="color:#000000;font-style:normal;font-variant:normal;font-weight:normal;font-stretch:normal;font-size:medium;line-height:normal;font-family:'Bitstream Vera Sans';-inkscape-font-specification:'Bitstream Vera Sans';text-indent:0;text-align:start;text-decoration:none;text-decoration-line:none;letter-spacing:normal;word-spacing:normal;text-transform:none;writing-mode:lr-tb;direction:ltr;text-anchor:start;display:inline;overflow:visible;visibility:visible;fill:#f1f2f2;fill-opacity:1;stroke:none;stroke-width:2;marker:none;enable-background:accumulate" />
    <path
       id="path4388-5"
       d="m 108,650 v 5 h 2 v -5 z"
       style="color:#000000;font-style:normal;font-variant:normal;font-weight:normal;font-stretch:normal;font-size:medium;line-height:normal;font-family:Sans;-inkscape-font-specification:Sans;text-indent:0;text-align:start;text-decoration:none;text-decoration-line:none;letter-spacing:normal;word-spacing:normal;text-transform:none;writing-mode:lr-tb;direction:ltr;baseline-shift:baseline;text-anchor:start;display:inline;overflow:visible;visibility:visible;fill:#f1f2f2;fill-opacity:1;stroke:none;stroke-width:2;marker:none;enable-background:accumulate" />
    <path
       id="rect11668-7-5-4"
       d="m 104.0002,658 v 4 h 10 v -4 z m 3.34375,1.4375 c 0.0208,-10e-4 0.0417,-10e-4 0.0625,0 0.29096,-0.0556 0.59898,0.20383 0.59375,0.5 V 660 h 2 v -0.0625 c -0.004,-0.26416 0.23582,-0.50712 0.5,-0.50712 0.26418,0 0.50373,0.24296 0.5,0.50712 V 660 c 0,0.54535 -0.45465,1 -1,1 h -2 c -0.54535,0 -1,-0.45465 -1,-1 v -0.0625 c -0.0108,-0.21706 0.13723,-0.43234 0.34375,-0.5 z"
       style="color:#000000;display:inline;overflow:visible;visibility:visible;fill:#f1f2f2;fill-opacity:1;fill-rule:evenodd;stroke:none;stroke-width:1;marker:none;enable-background:accumulate" />
    <path
       id="rect4390"
       d="m 104,647 c -0.54535,0 -1,0.45465 -1,1 v 2 c 0,0.54535 0.45465,1 1,1 h 10 c 0.54535,0 1,-0.45465 1,-1 v -2 c 0,-0.54535 -0.45465,-1 -1,-1 z m 0,1 h 10 v 2 h -10 z"
       style="color:#f1f2f2;font-style:normal;font-variant:normal;font-weight:normal;font-stretch:normal;font-size:medium;line-height:normal;font-family:Sans;-inkscape-font-specification:Sans;text-indent:0;text-align:start;text-decoration:none;text-decoration-line:none;letter-spacing:normal;word-spacing:normal;text-transform:none;writing-mode:lr-tb;direction:ltr;baseline-shift:baseline;text-anchor:start;display:inline;overflow:visible;visibility:visible;fill:#f1f2f2;fill-opacity:1;stroke:none;stroke-width:1;marker:none;enable-background:accumulate" />
    <path
       id="rect4390-9-1"
       d="m 105.40625,656 a 0.50005,0.50005 0 0 0 -0.3125,0.21875 l -1,1.5 a 0.50005,0.50005 0 1 0 0.8125,0.5625 l 1,-1.5 a 0.50005,0.50005 0 0 0 -0.5,-0.78125 z m 7,0 a 0.50005,0.50005 0 0 0 -0.3125,0.78125 l 1,1.5 a 0.50005,0.50005 0 1 0 0.8125,-0.5625 l -1,-1.5 a 0.50005,0.50005 0 0 0 -0.5,-0.21875 z"
       style="color:#f1f2f2;font-style:normal;font-variant:normal;font-weight:normal;font-stretch:normal;font-size:medium;line-height:normal;font-family:Sans;-inkscape-font-specification:Sans;text-indent:0;text-align:start;text-decoration:none;text-decoration-line:none;letter-spacing:normal;word-spacing:normal;text-transform:none;writing-mode:lr-tb;direction:ltr;baseline-shift:baseline;text-anchor:start;display:inline;overflow:visible;visibility:visible;fill:#f1f2f2;fill-opacity:1;stroke:none;stroke-width:1;marker:none;enable-background:accumulate" />
  </g>
</svg>
