<?xml version="1.0" encoding="UTF-8" standalone="no"?>
<svg
   xmlns:dc="http://purl.org/dc/elements/1.1/"
   xmlns:cc="http://creativecommons.org/ns#"
   xmlns:rdf="http://www.w3.org/1999/02/22-rdf-syntax-ns#"
   xmlns:svg="http://www.w3.org/2000/svg"
   xmlns="http://www.w3.org/2000/svg"
   height="16"
   id="svg7384"
   version="1.1"
	 viewBox="-4 -4 24 24"

   width="15.973606">
  <metadata
     id="metadata90">
    <rdf:RDF>
      <cc:Work
         rdf:about="">
        <dc:format>image/svg+xml</dc:format>
        <dc:type
           rdf:resource="http://purl.org/dc/dcmitype/StillImage" />
        <dc:title>Gnome Symbolic Icon Theme</dc:title>
      </cc:Work>
    </rdf:RDF>
  </metadata>
  <title
     id="title9167">Gnome Symbolic Icon Theme</title>
  <defs
     id="defs7386" />
  <g
     id="layer9"
     style="display:inline"
     transform="translate(-221.00011,-807)" />
  <g
     id="layer10"
     style="display:inline"
     transform="translate(-221.00011,-807)" />
  <g
     id="layer11"
     transform="translate(-221.00011,-807)" />
  <g
     id="layer13"
     style="display:inline"
     transform="translate(-221.00011,-807)" />
  <g
     id="layer14"
     transform="translate(-221.00011,-807)" />
  <g
     id="layer15"
     style="display:inline"
     transform="translate(-221.00011,-807)" />
  <g
     id="g71291"
     style="display:inline"
     transform="translate(-221.00011,-807)" />
  <g
     id="g4953"
     style="display:inline"
     transform="translate(-221.00011,-807)" />
  <g
     id="layer12"
     style="display:inline"
     transform="translate(-221.00011,-807)">
    <path
       d="m 223.8125,808.03125 a 1.0001,1.0001 0 0 0 -0.8125,1 v 12.9375 a 1.0001,1.0001 0 0 0 1,1 h 10 a 1.0001,1.0001 0 0 0 1,-1 v -5.03125 a 1.0001,1.0001 0 1 0 -2,0 v 4.03125 h -8 v -10.9375 h 1.96875 a 1.0001,1.0001 0 1 0 0,-2 H 224 a 1.0001,1.0001 0 0 0 -0.1875,0 z"
       id="path13099"
       style="color:#000000;font-style:normal;font-variant:normal;font-weight:normal;font-stretch:normal;font-size:medium;line-height:normal;font-family:Sans;-inkscape-font-specification:Sans;text-indent:0;text-align:start;text-decoration:none;text-decoration-line:none;letter-spacing:normal;word-spacing:normal;text-transform:none;writing-mode:lr-tb;direction:ltr;baseline-shift:baseline;text-anchor:start;display:inline;overflow:visible;visibility:visible;fill:#f1f2f2;fill-opacity:1;stroke:none;stroke-width:2;marker:none;enable-background:accumulate" />
    <path
       d="m 230.00021,808.99662 v 1.99673 h -2 v 1.99673 h 2 v 1.99674 h 2 v -1.99674 h 2 v -1.99673 h -2 v -1.99673 z"
       id="path13075"
       style="display:inline;fill:#669900;fill-opacity:1;stroke:none" />
  </g>
</svg>
