<?xml version="1.0" encoding="UTF-8" standalone="no"?>
<svg
   xmlns:dc="http://purl.org/dc/elements/1.1/"
   xmlns:cc="http://creativecommons.org/ns#"
   xmlns:rdf="http://www.w3.org/1999/02/22-rdf-syntax-ns#"
   xmlns:svg="http://www.w3.org/2000/svg"
   xmlns="http://www.w3.org/2000/svg"
   width="16"
   height="16"
   version="1.1"
	 viewBox="-4 -4 24 24"

   id="svg7384">
  <metadata
     id="metadata90">
    <rdf:RDF>
      <cc:Work
         rdf:about="">
        <dc:format>image/svg+xml</dc:format>
        <dc:type
           rdf:resource="http://purl.org/dc/dcmitype/StillImage" />
        <dc:title>Gnome Symbolic Icon Theme</dc:title>
      </cc:Work>
    </rdf:RDF>
  </metadata>
  <title
     id="title9167">Gnome Symbolic Icon Theme</title>
  <defs
     id="defs7386" />
  <g
     style="display:inline"
     id="layer9"
     transform="translate(-340,-646)" />
  <g
     id="layer10"
     transform="translate(-340,-646)" />
  <g
     id="layer11"
     transform="translate(-340,-646)" />
  <g
     id="layer13"
     transform="translate(-340,-646)" />
  <g
     id="layer14"
     transform="translate(-340,-646)" />
  <g
     style="display:inline"
     id="layer15"
     transform="translate(-340,-646)" />
  <g
     style="display:inline"
     id="g71291"
     transform="translate(-340,-646)" />
  <g
     style="display:inline"
     id="g4953"
     transform="translate(-340,-646)" />
  <g
     style="display:inline"
     id="layer12"
     transform="translate(-340,-646)">
    <path
       style="fill:#f1f2f2;fill-opacity:1;stroke:none"
       id="path3757"
       d="m 342.0002,652 v 7 h 12.01999 z m 2,3.05362 3.11558,1.97763 h -3.11558 z" />
    <path
       style="color:#000000;font-style:normal;font-variant:normal;font-weight:normal;font-stretch:normal;font-size:medium;line-height:normal;font-family:Sans;-inkscape-font-specification:Sans;text-indent:0;text-align:start;text-decoration:none;text-decoration-line:none;letter-spacing:normal;word-spacing:normal;text-transform:none;writing-mode:lr-tb;direction:ltr;baseline-shift:baseline;text-anchor:start;display:inline;overflow:visible;visibility:visible;fill:#f1f2f2;fill-opacity:1;stroke:none;stroke-width:2;marker:none;enable-background:accumulate"
       id="path5034"
       d="m 343.0162,647.01427 c -0.52358,5e-5 -0.99995,0.47642 -1,1 v 2.5625 l 2,1.1875 v -2.75 h 4.5625 l 3.40625,3.40625 v 3.625 l 2,1.1875 v -5.25 c -0.002,-0.26843 -0.11756,-0.53419 -0.3125,-0.71875 l -3.96875,-3.9375 c -0.18456,-0.19494 -0.45032,-0.31049 -0.71875,-0.3125 z m -1,13 v 0.96875 c 5e-5,0.52358 0.47642,0.99995 1,1 h 9.96875 c 0.52358,-5e-5 0.99995,-0.47642 1,-1 v -0.96875 z" />
  </g>
</svg>
