<?xml version="1.0" encoding="UTF-8" standalone="no"?>
<svg
   xmlns:dc="http://purl.org/dc/elements/1.1/"
   xmlns:cc="http://creativecommons.org/ns#"
   xmlns:rdf="http://www.w3.org/1999/02/22-rdf-syntax-ns#"
   xmlns:svg="http://www.w3.org/2000/svg"
   xmlns="http://www.w3.org/2000/svg"
   width="16"
   version="1.1"
	 viewBox="-4 -4 24 24"

   id="svg7384"
   height="16">
  <metadata
     id="metadata90">
    <rdf:RDF>
      <cc:Work
         rdf:about="">
        <dc:format>image/svg+xml</dc:format>
        <dc:type
           rdf:resource="http://purl.org/dc/dcmitype/StillImage" />
        <dc:title>Gnome Symbolic Icon Theme</dc:title>
      </cc:Work>
    </rdf:RDF>
  </metadata>
  <title
     id="title9167">Gnome Symbolic Icon Theme</title>
  <defs
     id="defs7386" />
  <g
     transform="translate(-41.0002,-887)"
     style="display:inline"
     id="layer9" />
  <g
     transform="translate(-41.0002,-887)"
     id="layer10" />
  <g
     transform="translate(-41.0002,-887)"
     id="layer11" />
  <g
     transform="translate(-41.0002,-887)"
     id="layer13" />
  <g
     transform="translate(-41.0002,-887)"
     id="layer14" />
  <g
     transform="translate(-41.0002,-887)"
     style="display:inline"
     id="layer15" />
  <g
     transform="translate(-41.0002,-887)"
     style="display:inline"
     id="g71291" />
  <g
     transform="translate(-41.0002,-887)"
     style="display:inline"
     id="g4953" />
  <g
     transform="translate(-41.0002,-887)"
     style="display:inline"
     id="layer12">
    <path
       style="color:#f1f2f2;font-style:normal;font-variant:normal;font-weight:normal;font-stretch:normal;font-size:medium;line-height:normal;font-family:'Bitstream Vera Sans';-inkscape-font-specification:'Bitstream Vera Sans';text-indent:0;text-align:start;text-decoration:none;text-decoration-line:none;letter-spacing:normal;word-spacing:normal;text-transform:none;writing-mode:lr-tb;direction:ltr;text-anchor:start;display:inline;overflow:visible;visibility:visible;fill:#f1f2f2;fill-opacity:1;stroke:none;stroke-width:2;marker:none;enable-background:accumulate"
       id="path8864"
       d="m 43.000002,892 v 1 c 0,0.25689 0.12983,0.52846 0.3125,0.71875 l 1.28125,1.28125 -1.28125,1.28125 c -0.18267,0.19029 -0.3125,0.46186 -0.3125,0.71875 v 1 h 1 c 0.30945,0 0.55232,-0.0903 0.75,-0.28125 L 47.406252,895 44.750002,892.28125 C 44.552322,892.0903 44.309452,892 44.000002,892 Z" />
    <path
       style="color:#f1f2f2;font-style:normal;font-variant:normal;font-weight:normal;font-stretch:normal;font-size:medium;line-height:normal;font-family:'Bitstream Vera Sans';-inkscape-font-specification:'Bitstream Vera Sans';text-indent:0;text-align:start;text-decoration:none;text-decoration-line:none;letter-spacing:normal;word-spacing:normal;text-transform:none;writing-mode:lr-tb;direction:ltr;text-anchor:start;display:inline;overflow:visible;visibility:visible;fill:#f1f2f2;fill-opacity:1;stroke:none;stroke-width:2;marker:none;enable-background:accumulate"
       id="path8866"
       d="m 55.000202,892 v 1 c 0,0.25689 -0.12983,0.52846 -0.3125,0.71875 L 53.406452,895 l 1.28125,1.28125 c 0.18267,0.19029 0.3125,0.46186 0.3125,0.71875 v 1 h -1 c -0.30945,0 -0.55232,-0.0903 -0.75,-0.28125 L 50.593952,895 l 2.65625,-2.71875 C 53.447882,892.0903 53.690752,892 54.000202,892 Z" />
  </g>
</svg>
