<?xml version="1.0" encoding="UTF-8" standalone="no"?>
<svg
   xmlns:dc="http://purl.org/dc/elements/1.1/"
   xmlns:cc="http://creativecommons.org/ns#"
   xmlns:rdf="http://www.w3.org/1999/02/22-rdf-syntax-ns#"
   xmlns:svg="http://www.w3.org/2000/svg"
   xmlns="http://www.w3.org/2000/svg"
   width="16"
   version="1.1"
	 viewBox="-4 -4 24 24"

   id="svg7384"
   height="16">
  <metadata
     id="metadata90">
    <rdf:RDF>
      <cc:Work
         rdf:about="">
        <dc:format>image/svg+xml</dc:format>
        <dc:type
           rdf:resource="http://purl.org/dc/dcmitype/StillImage" />
        <dc:title>Gnome Symbolic Icon Theme</dc:title>
      </cc:Work>
    </rdf:RDF>
  </metadata>
  <title
     id="title9167">Gnome Symbolic Icon Theme</title>
  <defs
     id="defs7386" />
  <g
     transform="translate(-181.0002,-767)"
     style="display:inline"
     id="layer9" />
  <g
     transform="translate(-181.0002,-767)"
     style="display:inline"
     id="layer10" />
  <g
     transform="translate(-181.0002,-767)"
     id="layer11" />
  <g
     transform="translate(-181.0002,-767)"
     style="display:inline"
     id="layer13" />
  <g
     transform="translate(-181.0002,-767)"
     id="layer14" />
  <g
     transform="translate(-181.0002,-767)"
     style="display:inline"
     id="layer15" />
  <g
     transform="translate(-181.0002,-767)"
     style="display:inline"
     id="g71291" />
  <g
     transform="translate(-181.0002,-767)"
     style="display:inline"
     id="g4953" />
  <g
     transform="translate(-181.0002,-767)"
     style="display:inline"
     id="layer12">
    <path
       style="color:#000000;display:inline;overflow:visible;visibility:visible;fill:#f1f2f2;fill-opacity:1;fill-rule:nonzero;stroke:none;stroke-width:1;marker:none;enable-background:accumulate"
       id="path43079"
       d="m 191.0002,769 6,6 -6,6 h -9.0353 c -0.53033,-0.0221 -0.9647,-0.49177 -0.9647,-1 v -10 c 0,-0.53079 0.34561,-1 1.0089,-1 z m -1,3 h -1 c -0.0104,-1.2e-4 -0.0208,-4.6e-4 -0.0313,0 -0.25495,0.0112 -0.50987,0.12858 -0.6875,0.3125 l -1.2812,1.28125 -1.3125,-1.28125 C 185.42208,772.082 185.24103,772.007 185.0002,772 h -1 v 1 c 0,0.28647 0.0343,0.55065 0.25,0.75 l 1.28125,1.28125 -1.25,1.25 c -0.18819,0.18817 -0.28124,0.45345 -0.28125,0.71875 v 1 h 1 c 0.2653,-10e-6 0.53059,-0.0931 0.71875,-0.28125 l 1.28125,-1.28125 1.28125,1.28125 C 188.46961,777.90694 188.73491,778 189.0002,778 h 1 v -1 c 0,-0.26529 -0.0931,-0.53058 -0.28125,-0.71875 l -1.28125,-1.25 1.28125,-1.28125 c 0.21074,-0.19463 0.30316,-0.46925 0.28125,-0.75 z" />
  </g>
</svg>
