<?xml version="1.0" encoding="UTF-8" standalone="no"?>
<svg
   xmlns:dc="http://purl.org/dc/elements/1.1/"
   xmlns:cc="http://creativecommons.org/ns#"
   xmlns:rdf="http://www.w3.org/1999/02/22-rdf-syntax-ns#"
   xmlns:svg="http://www.w3.org/2000/svg"
   xmlns="http://www.w3.org/2000/svg"
   width="16.0002"
   version="1.1"
	 viewBox="-4 -4 24 24"

   id="svg7384"
   height="16">
  <metadata
     id="metadata90">
    <rdf:RDF>
      <cc:Work
         rdf:about="">
        <dc:format>image/svg+xml</dc:format>
        <dc:type
           rdf:resource="http://purl.org/dc/dcmitype/StillImage" />
        <dc:title>Gnome Symbolic Icon Theme</dc:title>
      </cc:Work>
    </rdf:RDF>
  </metadata>
  <title
     id="title9167">Gnome Symbolic Icon Theme</title>
  <defs
     id="defs7386" />
  <g
     transform="translate(-181.0002,-767)"
     style="display:inline"
     id="layer9" />
  <g
     transform="translate(-181.0002,-767)"
     style="display:inline"
     id="layer10" />
  <g
     transform="translate(-181.0002,-767)"
     id="layer11" />
  <g
     transform="translate(-181.0002,-767)"
     style="display:inline"
     id="layer13" />
  <g
     transform="translate(-181.0002,-767)"
     id="layer14" />
  <g
     transform="translate(-181.0002,-767)"
     style="display:inline"
     id="layer15" />
  <g
     transform="translate(-181.0002,-767)"
     style="display:inline"
     id="g71291" />
  <g
     transform="translate(-181.0002,-767)"
     style="display:inline"
     id="g4953" />
  <g
     transform="translate(-181.0002,-767)"
     style="display:inline"
     id="layer12">
    <path
       style="color:#000000;font-style:normal;font-variant:normal;font-weight:normal;font-stretch:normal;font-size:medium;line-height:normal;font-family:Sans;-inkscape-font-specification:Sans;text-indent:0;text-align:start;text-decoration:none;text-decoration-line:none;letter-spacing:normal;word-spacing:normal;text-transform:none;writing-mode:lr-tb;direction:ltr;baseline-shift:baseline;text-anchor:start;display:inline;overflow:visible;visibility:visible;fill:#f1f2f2;fill-opacity:1;stroke:none;stroke-width:1.99999988;marker:none;enable-background:new"
       id="path27941-3"
       d="m 186.5002,767 c -3.02528,0 -5.5,2.4784 -5.5,5.5 0,1.99861 1.08914,3.75057 2.70067,4.70973 l 1.36183,-1.52223 c -1.22112,-0.54149 -2.0625,-1.75673 -2.0625,-3.1875 0,-1.94138 1.55626,-3.5 3.5,-3.5 1.3972,0 2.59519,0.79765 3.15625,1.96875 L 191.1252,769.5 c -0.98492,-1.50354 -2.7028,-2.5 -4.625,-2.5 z m 4.90625,8.96875 -1.40625,1.40625 3.28125,3.3125 c 0.36811,0.37651 1.04567,0.38405 1.42208,0.0158 0.3764,-0.36822 0.38375,-1.04578 0.0154,-1.42208 z" />
    <path
       style="fill:#f1f2f2;fill-opacity:1;fill-rule:evenodd;stroke:none"
       id="path2273-6-2-8"
       d="m 184.00201,778 8.99819,-9 c 1,0 2,1 2,2 l -9,9 h -2 z" />
    <path
       style="display:inline;overflow:visible;visibility:visible;fill:#f1f2f2;fill-opacity:1;fill-rule:nonzero;stroke:none;stroke-width:1;marker:none;enable-background:new"
       id="path4113-1-6-3-4"
       d="m 194.0002,768 c 1,0 2,1 2,2 l 1,-1 c 0,-1 -0.75185,-2 -2,-2 z" />
  </g>
</svg>
