<?xml version="1.0" encoding="UTF-8" standalone="no"?>
<svg
   xmlns:dc="http://purl.org/dc/elements/1.1/"
   xmlns:cc="http://creativecommons.org/ns#"
   xmlns:rdf="http://www.w3.org/1999/02/22-rdf-syntax-ns#"
   xmlns:svg="http://www.w3.org/2000/svg"
   xmlns="http://www.w3.org/2000/svg"
   width="16"
   height="16"
   version="1.1"
	 viewBox="-4 -4 24 24"

   id="svg7384">
  <metadata
     id="metadata90">
    <rdf:RDF>
      <cc:Work
         rdf:about="">
        <dc:format>image/svg+xml</dc:format>
        <dc:type
           rdf:resource="http://purl.org/dc/dcmitype/StillImage" />
        <dc:title>Gnome Symbolic Icon Theme</dc:title>
      </cc:Work>
    </rdf:RDF>
  </metadata>
  <title
     id="title9167">Gnome Symbolic Icon Theme</title>
  <defs
     id="defs7386" />
  <g
     style="display:inline"
     id="layer9"
     transform="translate(-120,-538)" />
  <g
     id="layer10"
     transform="translate(-120,-538)" />
  <g
     id="layer11"
     transform="translate(-120,-538)" />
  <g
     id="layer12"
     transform="translate(-120,-538)">
    <g
       style="display:inline"
       id="g27035"
       transform="translate(79,-222)">
      <path
         style="color:#000000;display:inline;overflow:visible;visibility:visible;fill:#f1f2f2;fill-opacity:1;fill-rule:nonzero;stroke:none;stroke-width:1;marker:none;enable-background:accumulate"
         id="path27041"
         d="m 126,540 -6,6 6,6 h 9.0353 C 135.56563,551.9779 136,551.50823 136,551 v -10 c 0,-0.53079 -0.34561,-1 -1.0089,-1 z m 1,3 h 1 c 0.0104,-1.2e-4 0.0208,-4.6e-4 0.0313,0 0.25495,0.0112 0.50987,0.12858 0.6875,0.3125 l 1.2812,1.28125 1.3125,-1.28125 C 131.57812,543.082 131.75917,543.007 132,543 h 1 v 1 c 0,0.28647 -0.0343,0.55065 -0.25,0.75 l -1.28125,1.28125 1.25,1.25 C 132.90694,547.46942 132.99999,547.7347 133,548 v 1 h -1 c -0.2653,-10e-6 -0.53059,-0.0931 -0.71875,-0.28125 L 130,547.4375 l -1.28125,1.28125 C 128.53059,548.90694 128.26529,549 128,549 h -1 v -1 c 0,-0.26529 0.0931,-0.53058 0.28125,-0.71875 l 1.28125,-1.25 -1.28125,-1.28125 C 127.07051,544.55537 126.97809,544.28075 127,544 Z"
         transform="translate(-79,222)" />
    </g>
  </g>
  <g
     id="layer13"
     transform="translate(-120,-538)" />
  <g
     id="layer14"
     transform="translate(-120,-538)" />
  <g
     id="layer15"
     transform="translate(-120,-538)" />
</svg>
