<?xml version="1.0" encoding="UTF-8" standalone="no"?>
<svg
   xmlns:dc="http://purl.org/dc/elements/1.1/"
   xmlns:cc="http://creativecommons.org/ns#"
   xmlns:rdf="http://www.w3.org/1999/02/22-rdf-syntax-ns#"
   xmlns:svg="http://www.w3.org/2000/svg"
   xmlns="http://www.w3.org/2000/svg"
   width="16"
   version="1.1"
	 viewBox="-4 -4 24 24"

   id="svg7384"
   height="16">
  <metadata
     id="metadata90">
    <rdf:RDF>
      <cc:Work
         rdf:about="">
        <dc:format>image/svg+xml</dc:format>
        <dc:type
           rdf:resource="http://purl.org/dc/dcmitype/StillImage" />
        <dc:title>Gnome Symbolic Icon Theme</dc:title>
      </cc:Work>
    </rdf:RDF>
  </metadata>
  <title
     id="title9167">Gnome Symbolic Icon Theme</title>
  <defs
     id="defs7386" />
  <g
     transform="translate(-481.00021,-681)"
     style="display:inline"
     id="layer9" />
  <g
     transform="translate(-481.00021,-681)"
     style="display:inline"
     id="layer10" />
  <g
     transform="translate(-481.00021,-681)"
     id="layer11" />
  <g
     transform="translate(-481.00021,-681)"
     style="display:inline"
     id="layer13" />
  <g
     transform="translate(-481.00021,-681)"
     id="layer14" />
  <g
     transform="translate(-481.00021,-681)"
     style="display:inline"
     id="layer15" />
  <g
     transform="translate(-481.00021,-681)"
     style="display:inline"
     id="g71291">
    <path
       style="display:inline;fill:#f1f2f2;fill-opacity:1;stroke:none;enable-background:new"
       id="path10086"
       d="m 496.0002,686.76617 c 0,-2.07495 -1.68742,-3.75698 -3.76925,-3.75698 -1.37132,0 -2.57123,0.73006 -3.23065,1.8214 -0.65942,-1.09135 -1.85953,-1.8214 -3.23085,-1.8214 -2.08183,0 -3.76925,1.68203 -3.76925,3.75698 0,1.07968 0.45777,2.05239 1.18953,2.73766 h -10e-4 l 5.72506,5.49617 5.89867,-5.49617 h -0.002 c 0.73186,-0.68517 1.18933,-1.65788 1.18933,-2.73766" />
  </g>
  <g
     transform="translate(-481.00021,-681)"
     style="display:inline"
     id="g4953" />
  <g
     transform="translate(-481.00021,-681)"
     style="display:inline"
     id="layer12" />
</svg>
