<?xml version="1.0" encoding="UTF-8" standalone="no"?>
<svg
   xmlns:dc="http://purl.org/dc/elements/1.1/"
   xmlns:cc="http://creativecommons.org/ns#"
   xmlns:rdf="http://www.w3.org/1999/02/22-rdf-syntax-ns#"
   xmlns:svg="http://www.w3.org/2000/svg"
   xmlns="http://www.w3.org/2000/svg"
   width="16"
   version="1.1"
	 viewBox="-4 -4 24 24"

   id="svg7384"
   height="16">
  <metadata
     id="metadata90">
    <rdf:RDF>
      <cc:Work
         rdf:about="">
        <dc:format>image/svg+xml</dc:format>
        <dc:type
           rdf:resource="http://purl.org/dc/dcmitype/StillImage" />
        <dc:title>Gnome Symbolic Icon Theme</dc:title>
      </cc:Work>
    </rdf:RDF>
  </metadata>
  <title
     id="title9167">Gnome Symbolic Icon Theme</title>
  <defs
     id="defs7386" />
  <g
     transform="translate(-461.0002,-679)"
     style="display:inline"
     id="layer9" />
  <g
     transform="translate(-461.0002,-679)"
     style="display:inline"
     id="layer10" />
  <g
     transform="translate(-461.0002,-679)"
     id="layer11" />
  <g
     transform="translate(-461.0002,-679)"
     style="display:inline"
     id="layer13" />
  <g
     transform="translate(-461.0002,-679)"
     id="layer14" />
  <g
     transform="translate(-461.0002,-679)"
     style="display:inline"
     id="layer15" />
  <g
     transform="translate(-461.0002,-679)"
     style="display:inline"
     id="g71291">
    <path
       style="fill:#f1f2f2;fill-opacity:1;stroke:none"
       id="path8527"
       d="m 469.0002,680 c -2.79099,0 -5.18831,1.63698 -6.3125,4 h 2.5625 c 0.35037,-0.58405 0.99227,-0.96875 1.71875,-0.96875 0.56579,0 1.07266,0.24358 1.4375,0.625 0.20065,-0.13245 0.41238,-0.15625 0.5625,-0.15625 0.16562,0 0.39413,0.0219 0.59375,0.15625 0.36484,-0.38142 0.87171,-0.625 1.4375,-0.625 0.72648,0 1.36838,0.3847 1.71875,0.96875 h 2.59375 c -1.12419,-2.36302 -3.52151,-4 -6.3125,-4 z m -2.03125,4.03125 c -0.56265,0 -1,0.43735 -1,1 V 686 c 0,0.56265 0.43735,1 1,1 0.56265,0 1,-0.43735 1,-1 v -0.96875 c 0,-0.56265 -0.43735,-1 -1,-1 z m 4.03125,0 c -0.56265,0 -1,0.43735 -1,1 V 686 c 0,0.56265 0.43735,1 1,1 0.56265,0 1,-0.43735 1,-1 v -0.96875 c 0,-0.56265 -0.43735,-1 -1,-1 z m -2.03125,0.78125 c 10e-4,0.009 -0.0322,0.0218 -0.0312,0.0312 0.006,0.0624 0.0312,0.12364 0.0312,0.1875 v 0.96875 c 0,1.09935 -0.90065,2 -2,2 -1.09935,0 -2,-0.90065 -2,-2 v -0.96875 c 0,-0.0105 -1.6e-4,-0.0208 0,-0.0312 h -2.6875 c -0.18662,0.63065 -0.28125,1.30883 -0.28125,2 0,3.86599 3.13401,7 7,7 3.86599,0 7,-3.13401 7,-7 0,-0.69117 -0.0946,-1.36935 -0.28125,-2 h -2.71875 c 1.6e-4,0.0105 0,0.0207 0,0.0312 V 686 c 0,1.09935 -0.90065,2 -2,2 -1.09935,0 -2,-0.90065 -2,-2 v -0.96875 c 0,-0.042 -0.003,-0.0836 0,-0.125 -0.001,-0.0208 -0.001,-0.0417 0,-0.0625 -0.0109,-0.01 -0.0213,-0.0204 -0.0312,-0.0312 z m -4.96875,4.25 c 0.99656,0.6369 4.01648,0.9375 5,0.9375 0.98352,0 3.80457,0.0308 5,-0.9375 v 0.5 c 0,0.68098 -1.74415,1.40625 -5,1.40625 -3.25585,0 -5,-0.87374 -5,-1.40625 z" />
  </g>
  <g
     transform="translate(-461.0002,-679)"
     style="display:inline"
     id="g4953" />
  <g
     transform="translate(-461.0002,-679)"
     style="display:inline"
     id="layer12" />
</svg>
