<?xml version="1.0" encoding="UTF-8" standalone="no"?>
<svg
   xmlns:dc="http://purl.org/dc/elements/1.1/"
   xmlns:cc="http://creativecommons.org/ns#"
   xmlns:rdf="http://www.w3.org/1999/02/22-rdf-syntax-ns#"
   xmlns:svg="http://www.w3.org/2000/svg"
   xmlns="http://www.w3.org/2000/svg"
   width="16"
   version="1.1"
	 viewBox="-4 -4 24 24"

   id="svg7384"
   height="16">
  <metadata
     id="metadata90">
    <rdf:RDF>
      <cc:Work
         rdf:about="">
        <dc:format>image/svg+xml</dc:format>
        <dc:type
           rdf:resource="http://purl.org/dc/dcmitype/StillImage" />
        <dc:title>Gnome Symbolic Icon Theme</dc:title>
      </cc:Work>
    </rdf:RDF>
  </metadata>
  <title
     id="title9167">Gnome Symbolic Icon Theme</title>
  <defs
     id="defs7386" />
  <g
     transform="translate(-561.04735,-539.18755)"
     style="display:inline"
     id="layer9" />
  <g
     transform="translate(-561.04735,-539.18755)"
     id="layer10" />
  <g
     transform="translate(-561.04735,-539.18755)"
     id="layer11" />
  <g
     transform="translate(-561.04735,-539.18755)"
     id="layer13" />
  <g
     transform="translate(-561.04735,-539.18755)"
     id="layer14" />
  <g
     transform="translate(-561.04735,-539.18755)"
     style="display:inline"
     id="layer15" />
  <g
     transform="translate(-561.04735,-539.18755)"
     style="display:inline"
     id="g71291">
    <path
       style="fill:#f1f2f2;fill-opacity:1;stroke:none"
       id="path6081"
       d="m 569.0627,540.1875 c -3.86599,0 -7,3.13401 -7,7 0,3.86599 3.13401,7 7,7 3.86599,0 7,-3.13401 7,-7 0,-3.86599 -3.13401,-7 -7,-7 z m -2,4 c 0.55833,0 1.03125,0.47292 1.03125,1.03125 v 0.96875 c 0,0.55833 -0.47292,1 -1.03125,1 -0.55833,0 -1,-0.44167 -1,-1 v -0.96875 c 0,-0.55833 0.44167,-1.03125 1,-1.03125 z m 4,0 c 0.55833,0 1,0.47292 1,1.03125 v 0.96875 c 0,0.55833 -0.44167,1 -1,1 -0.55833,0 -1,-0.44167 -1,-1 v -0.96875 c 0,-0.55833 0.44167,-1.03125 1,-1.03125 z m -6.41236,2.71875 c 0.77942,3.30615 4.69296,4.43234 7.7053,3.28697 0.007,0.59795 -0.19508,1.09717 -1.15444,1.28594 -2.16551,0.4261 -5.16082,-0.14239 -6.68,-2.59331 -0.6661,-1.07464 -0.12703,-1.68512 0.12914,-1.97969 z" />
  </g>
  <g
     transform="translate(-561.04735,-539.18755)"
     style="display:inline"
     id="g4953" />
  <g
     transform="translate(-561.04735,-539.18755)"
     style="display:inline"
     id="layer12" />
</svg>
