<?xml version="1.0" encoding="UTF-8" standalone="no"?>
<svg
   xmlns:dc="http://purl.org/dc/elements/1.1/"
   xmlns:cc="http://creativecommons.org/ns#"
   xmlns:rdf="http://www.w3.org/1999/02/22-rdf-syntax-ns#"
   xmlns:svg="http://www.w3.org/2000/svg"
   xmlns="http://www.w3.org/2000/svg"
   width="16"
   version="1.1"
	 viewBox="-4 -4 24 24"

   id="svg7384"
   height="16">
  <metadata
     id="metadata90">
    <rdf:RDF>
      <cc:Work
         rdf:about="">
        <dc:format>image/svg+xml</dc:format>
        <dc:type
           rdf:resource="http://purl.org/dc/dcmitype/StillImage" />
        <dc:title>Gnome Symbolic Icon Theme</dc:title>
      </cc:Work>
    </rdf:RDF>
  </metadata>
  <title
     id="title9167">Gnome Symbolic Icon Theme</title>
  <defs
     id="defs7386" />
  <g
     transform="translate(-541.0002,-639)"
     style="display:inline"
     id="layer9" />
  <g
     transform="translate(-541.0002,-639)"
     style="display:inline"
     id="layer10" />
  <g
     transform="translate(-541.0002,-639)"
     id="layer11" />
  <g
     transform="translate(-541.0002,-639)"
     style="display:inline"
     id="layer13" />
  <g
     transform="translate(-541.0002,-639)"
     id="layer14" />
  <g
     transform="translate(-541.0002,-639)"
     style="display:inline"
     id="layer15" />
  <g
     transform="translate(-541.0002,-639)"
     style="display:inline"
     id="g71291">
    <path
       style="display:inline;fill:#f1f2f2;fill-opacity:1;stroke:none"
       id="path71360-4"
       d="m 549.00022,640 c -3.86599,0 -7,3.13401 -7,7 0,3.86599 3.13401,7 7,7 3.86599,0 7,-3.13401 7,-7 0,-3.86599 -3.13401,-7 -7,-7 z m -2,4 c 0.55833,0 1.03125,0.47292 1.03125,1.03125 V 646 c 0,0.55833 -0.47292,1 -1.03125,1 -0.55833,0 -1,-0.44167 -1,-1 v -0.96875 c 0,-0.55833 0.44167,-1.03125 1,-1.03125 z m 4,0 c 0.55833,0 1,0.47292 1,1.03125 V 646 c 0,0.55833 -0.44167,1 -1,1 -0.55833,0 -1,-0.44167 -1,-1 v -0.96875 c 0,-0.55833 0.44167,-1.03125 1,-1.03125 z m -2,4.59375 c 1.05921,0 1.92914,0.9211 1.9375,2.03125 0,1.11641 -0.87235,2.03125 -1.9375,2.03125 -1.06515,0 -1.9375,-0.91484 -1.9375,-2.03125 0,-1.11641 0.87235,-2.03125 1.9375,-2.03125 z" />
  </g>
  <g
     transform="translate(-541.0002,-639)"
     style="display:inline"
     id="g4953" />
  <g
     transform="translate(-541.0002,-639)"
     style="display:inline"
     id="layer12" />
</svg>
