<?xml version="1.0" encoding="UTF-8" standalone="no"?>
<svg
   xmlns:dc="http://purl.org/dc/elements/1.1/"
   xmlns:cc="http://creativecommons.org/ns#"
   xmlns:rdf="http://www.w3.org/1999/02/22-rdf-syntax-ns#"
   xmlns:svg="http://www.w3.org/2000/svg"
   xmlns="http://www.w3.org/2000/svg"
   width="16"
   version="1.1"
	 viewBox="-4 -4 24 24"

   id="svg7384"
   height="16">
  <metadata
     id="metadata90">
    <rdf:RDF>
      <cc:Work
         rdf:about="">
        <dc:format>image/svg+xml</dc:format>
        <dc:type
           rdf:resource="http://purl.org/dc/dcmitype/StillImage" />
        <dc:title>Gnome Symbolic Icon Theme</dc:title>
      </cc:Work>
    </rdf:RDF>
  </metadata>
  <title
     id="title9167">Gnome Symbolic Icon Theme</title>
  <defs
     id="defs7386" />
  <g
     transform="translate(-542.00019,-538.9688)"
     style="display:inline"
     id="layer9" />
  <g
     transform="translate(-542.00019,-538.9688)"
     id="layer10" />
  <g
     transform="translate(-542.00019,-538.9688)"
     id="layer11" />
  <g
     transform="translate(-542.00019,-538.9688)"
     id="layer13" />
  <g
     transform="translate(-542.00019,-538.9688)"
     id="layer14" />
  <g
     transform="translate(-542.00019,-538.9688)"
     style="display:inline"
     id="layer15" />
  <g
     transform="translate(-542.00019,-538.9688)"
     style="display:inline"
     id="g71291">
    <path
       style="fill:#f1f2f2;fill-opacity:1;stroke:none"
       id="path6000"
       d="m 550.00019,539.96875 c -3.86599,0 -7,3.13401 -7,7 0,3.86599 3.13401,7 7,7 3.86599,0 7,-3.13401 7,-7 0,-3.86599 -3.13401,-7 -7,-7 z m -2,4 c 0.55833,0 1.03125,0.47292 1.03125,1.03125 v 0.96875 c 0,0.55833 -0.47292,1 -1.03125,1 -0.55833,0 -1,-0.44167 -1,-1 V 545 c 0,-0.55833 0.44167,-1.03125 1,-1.03125 z m 4,0 c 0.55833,0 1,0.47292 1,1.03125 v 0.96875 c 0,0.55833 -0.44167,1 -1,1 -0.55833,0 -1,-0.44167 -1,-1 V 545 c 0,-0.55833 0.44167,-1.03125 1,-1.03125 z m -5.40637,3.8125 c 0.0644,-0.009 -0.27909,0.0131 -0.21225,0.0312 4.48078,-0.0312 1.44996,2.58157 6.58725,2.64342 0.26734,0.0725 0.41625,0.35766 0.34375,0.625 -0.0725,0.26736 -0.3264,0.41625 -0.59375,0.34375 -4.94757,-0.0138 -2.90625,-2.70587 -6.1875,-2.64337 -0.26734,-0.0725 -0.41625,-0.35766 -0.34375,-0.625 0.0544,-0.20051 0.21312,-0.34894 0.40625,-0.375 z" />
  </g>
  <g
     transform="translate(-542.00019,-538.9688)"
     style="display:inline"
     id="g4953" />
  <g
     transform="translate(-542.00019,-538.9688)"
     style="display:inline"
     id="layer12" />
</svg>
