<?xml version="1.0" encoding="UTF-8" standalone="no"?>
<svg
   xmlns:dc="http://purl.org/dc/elements/1.1/"
   xmlns:cc="http://creativecommons.org/ns#"
   xmlns:rdf="http://www.w3.org/1999/02/22-rdf-syntax-ns#"
   xmlns:svg="http://www.w3.org/2000/svg"
   xmlns="http://www.w3.org/2000/svg"
   version="1.1"
	 viewBox="-4 -4 24 24"

   id="svg7384"
   height="16"
   width="16">
  <metadata
     id="metadata90">
    <rdf:RDF>
      <cc:Work
         rdf:about="">
        <dc:format>image/svg+xml</dc:format>
        <dc:type
           rdf:resource="http://purl.org/dc/dcmitype/StillImage" />
        <dc:title>Gnome Symbolic Icon Theme</dc:title>
      </cc:Work>
    </rdf:RDF>
  </metadata>
  <title
     id="title9167">Gnome Symbolic Icon Theme</title>
  <defs
     id="defs7386" />
  <g
     id="layer9"
     style="display:inline"
     transform="translate(-601.00018,-519)" />
  <g
     id="layer10"
     transform="translate(-601.00018,-519)" />
  <g
     id="layer11"
     transform="translate(-601.00018,-519)" />
  <g
     id="layer13"
     transform="translate(-601.00018,-519)" />
  <g
     id="layer14"
     transform="translate(-601.00018,-519)" />
  <g
     id="layer15"
     style="display:inline"
     transform="translate(-601.00018,-519)" />
  <g
     id="g71291"
     style="display:inline"
     transform="translate(-601.00018,-519)">
    <path
       id="path71360-0"
       style="display:inline;overflow:visible;fill:#f1f2f2;fill-opacity:1;stroke:none"
       d="m 609.0002,520 c -3.86599,0 -7,3.13401 -7,7 0,3.86599 3.13401,7 7,7 3.86599,0 7,-3.13401 7,-7 0,-3.86599 -3.13401,-7 -7,-7 z m -2,4 c 0.55833,0 1.03125,0.47292 1.03125,1.03125 V 526 c 0,0.55833 -0.47292,1 -1.03125,1 -0.55833,0 -1,-0.44167 -1,-1 v -0.96875 c 0,-0.55833 0.44167,-1.03125 1,-1.03125 z m 4,0 c 0.55833,0 1,0.47292 1,1.03125 V 526 c 0,0.55833 -0.44167,1 -1,1 -0.55833,0 -1,-0.44167 -1,-1 v -0.96875 c 0,-0.55833 0.44167,-1.03125 1,-1.03125 z m 3,5.94286 c -0.76555,-0.42797 -1.6121,-0.92076 -2.47566,-0.93995 -0.65285,0.0193 -1.23894,0.6539 -1.52434,0.69709 -0.54153,0.31352 -1.55932,0.19637 -2,0 -0.91691,-0.43721 -0.92121,-0.68027 -1.54333,-0.70038 -0.85242,0.0189 -1.83128,0.40453 -2.45667,0.94324 v -0.5 c 0.42161,-1.08586 2.38082,-2.04455 4,-0.87083 0.34921,0.22009 0.42727,0.26657 1.01479,0.33656 0.15925,0.0555 0.59227,-0.0338 0.98521,-0.33659 1.5816,-1.15342 3.29222,-0.11851 4,0.87086 z" />
  </g>
  <g
     id="g4953"
     style="display:inline"
     transform="translate(-601.00018,-519)" />
  <g
     id="layer12"
     style="display:inline"
     transform="translate(-601.00018,-519)" />
</svg>
