<?xml version="1.0" encoding="UTF-8" standalone="no"?>
<svg
   xmlns:dc="http://purl.org/dc/elements/1.1/"
   xmlns:cc="http://creativecommons.org/ns#"
   xmlns:rdf="http://www.w3.org/1999/02/22-rdf-syntax-ns#"
   xmlns:svg="http://www.w3.org/2000/svg"
   xmlns="http://www.w3.org/2000/svg"
   width="16"
   version="1.1"
	 viewBox="-4 -4 24 24"

   id="svg7384"
   height="16">
  <metadata
     id="metadata90">
    <rdf:RDF>
      <cc:Work
         rdf:about="">
        <dc:format>image/svg+xml</dc:format>
        <dc:type
           rdf:resource="http://purl.org/dc/dcmitype/StillImage" />
        <dc:title>Gnome Symbolic Icon Theme</dc:title>
      </cc:Work>
    </rdf:RDF>
  </metadata>
  <title
     id="title9167">Gnome Symbolic Icon Theme</title>
  <defs
     id="defs7386" />
  <g
     transform="translate(-621.00019,-519)"
     style="display:inline"
     id="layer9" />
  <g
     transform="translate(-621.00019,-519)"
     id="layer10" />
  <g
     transform="translate(-621.00019,-519)"
     id="layer11" />
  <g
     transform="translate(-621.00019,-519)"
     id="layer13" />
  <g
     transform="translate(-621.00019,-519)"
     id="layer14" />
  <g
     transform="translate(-621.00019,-519)"
     style="display:inline"
     id="layer15" />
  <g
     transform="translate(-621.00019,-519)"
     style="display:inline"
     id="g71291">
    <path
       style="display:inline;fill:#f1f2f2;fill-opacity:1;stroke:none"
       id="path4824"
       d="m 629.0002,520 c -3.86599,0 -7,3.13401 -7,7 0,3.86599 3.13401,7 7,7 3.86599,0 7,-3.13401 7,-7 0,-3.86599 -3.13401,-7 -7,-7 z m -2,4 c 0.55833,0 1.03125,0.40972 1.03125,0.875 v 0.78125 c 0,0.46528 -0.47292,0.84375 -1.03125,0.84375 -0.55833,0 -1,-0.37847 -1,-0.84375 V 524.875 c 0,-0.46528 0.44167,-0.875 1,-0.875 z m 4,0 c 0.55833,0 1,0.37848 1,0.84375 v 0.8125 c 0,0.46527 -0.44167,0.84375 -1,0.84375 -0.55833,0 -1,-0.37848 -1,-0.84375 v -0.8125 c 0,-0.46527 0.44167,-0.84375 1,-0.84375 z m 1.75,2.28125 c 1.20777,0.44874 2.04627,0.93632 2.21875,1.5625 0.17247,0.62616 -0.30586,1.24159 -0.9375,1.25 -0.51878,0.007 -0.7686,-0.2154 -0.9375,-0.875 -0.16672,-0.66017 0.0828,-1.29237 -0.34375,-1.9375 z m -3.78125,2.6875 c 2.58832,0 3.96875,0.98014 3.96875,1.5625 v 0.53125 c -0.79224,-0.69651 -3.18687,-1 -3.96875,-1 -0.78187,0 -3.01841,-0.059 -3.96875,1 v -0.53125 c 0,-0.74472 1.38044,-1.5625 3.96875,-1.5625 z" />
  </g>
  <g
     transform="translate(-621.00019,-519)"
     style="display:inline"
     id="g4953" />
  <g
     transform="translate(-621.00019,-519)"
     style="display:inline"
     id="layer12" />
</svg>
