<?xml version="1.0" encoding="UTF-8" standalone="no"?>
<svg
   xmlns:dc="http://purl.org/dc/elements/1.1/"
   xmlns:cc="http://creativecommons.org/ns#"
   xmlns:rdf="http://www.w3.org/1999/02/22-rdf-syntax-ns#"
   xmlns:svg="http://www.w3.org/2000/svg"
   xmlns="http://www.w3.org/2000/svg"
   width="16"
   version="1.1"
	 viewBox="-4 -4 24 24"

   id="svg7384"
   height="16">
  <metadata
     id="metadata90">
    <rdf:RDF>
      <cc:Work
         rdf:about="">
        <dc:format>image/svg+xml</dc:format>
        <dc:type
           rdf:resource="http://purl.org/dc/dcmitype/StillImage" />
        <dc:title>Gnome Symbolic Icon Theme</dc:title>
      </cc:Work>
    </rdf:RDF>
  </metadata>
  <title
     id="title9167">Gnome Symbolic Icon Theme</title>
  <defs
     id="defs7386" />
  <g
     transform="translate(-662.0002,-539)"
     style="display:inline"
     id="layer9" />
  <g
     transform="translate(-662.0002,-539)"
     id="layer10" />
  <g
     transform="translate(-662.0002,-539)"
     id="layer11" />
  <g
     transform="translate(-662.0002,-539)"
     id="layer13" />
  <g
     transform="translate(-662.0002,-539)"
     id="layer14" />
  <g
     transform="translate(-662.0002,-539)"
     style="display:inline"
     id="layer15" />
  <g
     transform="translate(-662.0002,-539)"
     style="display:inline"
     id="g71291">
    <path
       style="display:inline;fill:#f1f2f2;fill-opacity:1;stroke:none"
       id="path7221"
       d="m 670.00022,540 c -3.86599,0 -7,3.13401 -7,7 0,3.86599 3.13401,7 7,7 3.86599,0 7,-3.13401 7,-7 0,-3.86599 -3.13401,-7 -7,-7 z m -2.46875,5.17678 c 0.73437,0 1.46875,0.44603 1.46875,1.3125 -1.5,-0.33848 -3.125,1.73294 -3,0 0.0625,-0.86647 0.79688,-1.3125 1.53125,-1.3125 z m 4.9375,0 c 0.73437,0 1.46875,0.44603 1.53125,1.3125 0.125,1.73294 -1.5,-0.33848 -3,0 0,-0.86647 0.73438,-1.3125 1.46875,-1.3125 z m -5.99908,2.55805 c 0.41493,0 0.75,0.33507 0.75,0.75 0,0.41493 -0.33507,0.75 -0.75,0.75 -0.41493,0 -0.75,-0.33507 -0.75,-0.75 0,-0.41493 0.33507,-0.75 0.75,-0.75 z m 7.01647,0 c 0.41493,0 0.75,0.33507 0.75,0.75 0,0.41493 -0.33507,0.75 -0.75,0.75 -0.41493,0 -0.75,-0.33507 -0.75,-0.75 0,-0.41493 0.33507,-0.75 0.75,-0.75 z m -4.09015,2.26249 h 1.17187 c 0.20621,0 0.54688,0.223 0.54688,0.5 0,0.277 -0.34067,0.51562 -0.54688,0.51562 h -1.17187 c -0.20621,0 -0.48438,-0.23862 -0.48438,-0.51562 0,-0.277 0.27817,-0.5 0.48438,-0.5 z" />
  </g>
  <g
     transform="translate(-662.0002,-539)"
     style="display:inline"
     id="g4953" />
  <g
     transform="translate(-662.0002,-539)"
     style="display:inline"
     id="layer12" />
</svg>
