<?xml version="1.0" encoding="UTF-8" standalone="no"?>
<svg
   xmlns:dc="http://purl.org/dc/elements/1.1/"
   xmlns:cc="http://creativecommons.org/ns#"
   xmlns:rdf="http://www.w3.org/1999/02/22-rdf-syntax-ns#"
   xmlns:svg="http://www.w3.org/2000/svg"
   xmlns="http://www.w3.org/2000/svg"
   width="16"
   height="16"
   version="1.1"
	 viewBox="-4 -4 24 24"

   id="svg7384">
  <metadata
     id="metadata90">
    <rdf:RDF>
      <cc:Work
         rdf:about="">
        <dc:format>image/svg+xml</dc:format>
        <dc:type
           rdf:resource="http://purl.org/dc/dcmitype/StillImage" />
        <dc:title>Gnome Symbolic Icon Theme</dc:title>
      </cc:Work>
    </rdf:RDF>
  </metadata>
  <title
     id="title9167">Gnome Symbolic Icon Theme</title>
  <defs
     id="defs7386" />
  <g
     style="display:inline"
     id="layer9"
     transform="translate(-461.0002,-519)" />
  <g
     id="layer10"
     transform="translate(-461.0002,-519)" />
  <g
     id="layer11"
     transform="translate(-461.0002,-519)" />
  <g
     id="layer13"
     transform="translate(-461.0002,-519)" />
  <g
     id="layer14"
     transform="translate(-461.0002,-519)" />
  <g
     style="display:inline"
     id="layer15"
     transform="translate(-461.0002,-519)" />
  <g
     style="display:inline"
     id="g71291"
     transform="translate(-461.0002,-519)">
    <path
       style="fill:#f1f2f2;fill-opacity:1;stroke:none"
       id="path87316"
       d="m 469.0002,520 c -3.86599,0 -7,3.13401 -7,7 0,3.86599 3.13401,7 7,7 3.86599,0 7,-3.13401 7,-7 0,-3.86599 -3.13401,-7 -7,-7 z m -4,4.125 c 0,0 0.47388,0.83875 1.25,0.84375 h 1.75 V 526 c 0,0.55616 -0.66683,1 -1.5,1 -0.83315,0 -1.5,-0.44384 -1.5,-1 z m 8,0 V 526 c 0,0.55616 -0.66685,1 -1.5,1 -0.83317,0 -1.5,-0.44384 -1.5,-1 v -1.03125 h 1.71875 c 0.77612,-0.005 1.28125,-0.84375 1.28125,-0.84375 z M 469.03145,528 c 3.25585,0 3,0.38381 3,0.76164 v 0.26609 h -6.03125 v -0.28818 c 0,-0.34953 -0.2246,-0.73955 3.03125,-0.73955 z" />
  </g>
  <g
     style="display:inline"
     id="g4953"
     transform="translate(-461.0002,-519)" />
  <g
     style="display:inline"
     id="layer12"
     transform="translate(-461.0002,-519)" />
</svg>
