<?xml version="1.0" encoding="UTF-8" standalone="no"?>
<svg
   xmlns:dc="http://purl.org/dc/elements/1.1/"
   xmlns:cc="http://creativecommons.org/ns#"
   xmlns:rdf="http://www.w3.org/1999/02/22-rdf-syntax-ns#"
   xmlns:svg="http://www.w3.org/2000/svg"
   xmlns="http://www.w3.org/2000/svg"
   width="16"
   version="1.1"
	 viewBox="-4 -4 24 24"

   id="svg7384"
   height="16">
  <metadata
     id="metadata90">
    <rdf:RDF>
      <cc:Work
         rdf:about="">
        <dc:format>image/svg+xml</dc:format>
        <dc:type
           rdf:resource="http://purl.org/dc/dcmitype/StillImage" />
        <dc:title>Gnome Symbolic Icon Theme</dc:title>
      </cc:Work>
    </rdf:RDF>
  </metadata>
  <title
     id="title9167">Gnome Symbolic Icon Theme</title>
  <defs
     id="defs7386" />
  <g
     transform="translate(-641.00019,-519)"
     style="display:inline"
     id="layer9" />
  <g
     transform="translate(-641.00019,-519)"
     id="layer10" />
  <g
     transform="translate(-641.00019,-519)"
     id="layer11" />
  <g
     transform="translate(-641.00019,-519)"
     id="layer13" />
  <g
     transform="translate(-641.00019,-519)"
     id="layer14" />
  <g
     transform="translate(-641.00019,-519)"
     style="display:inline"
     id="layer15" />
  <g
     transform="translate(-641.00019,-519)"
     style="display:inline"
     id="g71291">
    <g
       transform="translate(19.999996,-18)"
       id="g5238">
      <path
         transform="translate(241.0002,217)"
         style="fill:#f1f2f2;fill-opacity:1;stroke:none"
         id="path5202"
         d="m 388,321 c -3.86599,0 -7,3.13401 -7,7 0,3.86599 3.13401,7 7,7 3.86599,0 7,-3.13401 7,-7 0,-3.86599 -3.13401,-7 -7,-7 z m -2.46875,4 c 0.73437,0 1.46875,0.22506 1.46875,1.09153 -2.56066,-0.60365 -2.41789,1.68874 -3,0.22097 -0.32026,-0.80753 0.79688,-1.3125 1.53125,-1.3125 z m 4.9375,0 c 0.73437,0 1.70462,0.46125 1.53125,1.3125 -0.31694,1.55616 -0.52773,-0.9572 -3,-0.22097 C 389,325.22506 389.73438,325 390.46875,325 Z M 387,328 c 0.41039,-0.01 0.74927,0.13366 1.03125,0.34375 0.28192,-0.21009 0.65216,-0.3567 1.0625,-0.34375 0.63161,0.0199 0.90651,0.7599 0.9062,1.18745 -5.5e-4,0.77497 0.47532,0.76512 1,0.82812 -0.63413,0.15122 -0.98711,1.22486 -0.98438,1.76563 0.005,0.97211 -0.93028,1.2559 -2.01562,1.25 -1.08536,-0.004 -1.98715,-0.25121 -1.98437,-1.23437 10e-4,-0.40742 -0.35236,-1.59059 -1.03125,-1.76563 0.67889,-0.0931 1.01562,-0.24993 1.01562,-0.85938 0,-0.80891 0.52875,-1.16033 1.00005,-1.17182 z" />
      <path
         style="fill:#f1f2f2;fill-opacity:1;stroke:none"
         id="path5217"
         d="m 630.00013,547.27423 c -0.16971,0.0801 -0.32084,0.16013 -0.322,0.27191 -0.0182,0.26976 -0.37424,0.48105 -0.67205,0.47943 -0.29781,-7.8e-4 -0.5939,-0.20967 -0.59392,-0.47943 7.8e-4,-0.11178 -0.11135,-0.18959 -0.27191,-0.27191 0.5291,-0.39533 1.25299,-0.33834 1.85988,0 z" />
    </g>
  </g>
  <g
     transform="translate(-641.00019,-519)"
     style="display:inline"
     id="g4953" />
  <g
     transform="translate(-641.00019,-519)"
     style="display:inline"
     id="layer12" />
</svg>
