<?xml version="1.0" encoding="UTF-8" standalone="no"?>
<svg
   xmlns:dc="http://purl.org/dc/elements/1.1/"
   xmlns:cc="http://creativecommons.org/ns#"
   xmlns:rdf="http://www.w3.org/1999/02/22-rdf-syntax-ns#"
   xmlns:svg="http://www.w3.org/2000/svg"
   xmlns="http://www.w3.org/2000/svg"
   width="15.973606"
   version="1.1"
	 viewBox="-4 -4 24 24"

   id="svg7384"
   height="16">
  <metadata
     id="metadata90">
    <rdf:RDF>
      <cc:Work
         rdf:about="">
        <dc:format>image/svg+xml</dc:format>
        <dc:type
           rdf:resource="http://purl.org/dc/dcmitype/StillImage" />
        <dc:title>Gnome Symbolic Icon Theme</dc:title>
      </cc:Work>
    </rdf:RDF>
  </metadata>
  <title
     id="title9167">Gnome Symbolic Icon Theme</title>
  <defs
     id="defs7386" />
  <g
     transform="translate(-181.00011,-807)"
     style="display:inline"
     id="layer9" />
  <g
     transform="translate(-181.00011,-807)"
     style="display:inline"
     id="layer10" />
  <g
     transform="translate(-181.00011,-807)"
     id="layer11" />
  <g
     transform="translate(-181.00011,-807)"
     style="display:inline"
     id="layer13" />
  <g
     transform="translate(-181.00011,-807)"
     id="layer14" />
  <g
     transform="translate(-181.00011,-807)"
     style="display:inline"
     id="layer15" />
  <g
     transform="translate(-181.00011,-807)"
     style="display:inline"
     id="g71291" />
  <g
     transform="translate(-181.00011,-807)"
     style="display:inline"
     id="g4953" />
  <g
     transform="translate(-181.00011,-807)"
     style="display:inline"
     id="layer12">
    <path
       style="color:#000000;display:inline;overflow:visible;visibility:visible;fill:#f1f2f2;fill-opacity:1;fill-rule:nonzero;stroke:none;stroke-width:1.70000005;marker:none;enable-background:accumulate"
       id="path5742"
       d="m 188.00019,807 v 1.03125 c -3.16245,0.26289 -5.68961,2.80226 -5.9375,5.96875 h -1.06249 v 1 h 1.06249 c 0.24791,3.16676 2.77466,5.70624 5.9375,5.96875 V 822 h 1 v -1.03125 c 3.18813,-0.23381 5.72399,-2.78064 5.96875,-5.96875 h 1.03125 v -1 h -1.03125 c -0.2448,-3.18868 -2.77982,-5.76697 -5.96875,-6 v -1 z m 0.53125,2.8125 c 2.60638,0 4.68751,2.08113 4.68751,4.6875 0,2.60637 -2.08113,4.6875 -4.68751,4.6875 -2.60637,0 -4.75,-2.08113 -4.75,-4.6875 0,-2.60637 2.14363,-4.6875 4.75,-4.6875 z M 188.50019,811 c -1.93299,0 -3.5,1.567 -3.5,3.5 0,1.933 1.56701,3.5 3.5,3.5 1.933,0 3.5,-1.567 3.5,-3.5 0,-1.933 -1.567,-3.5 -3.5,-3.5 z" />
  </g>
</svg>
