<?xml version="1.0" encoding="UTF-8" standalone="no"?>
<svg id="svg4" xmlns="http://www.w3.org/2000/svg" version="1.1" viewBox="-4 -4 24 24"><path id="path2" style="color:#000000;text-indent:0;text-decoration-line:none;stroke-width:.99557;text-transform:none;fill:#f1f2f2" d="m3.4779 1c-1.3609 0-2.4779 1.101-2.4779 2.469v9.062c0 1.369 1.117 2.469 2.4779 2.469h9.0441c1.361 0 2.478-1.101 2.478-2.469v-9.061c0-1.37-1.117-2.47-2.478-2.47zm0 1h9.0442c0.83653 0 1.4867 0.64 1.4867 1.469v9.062c0 0.828-0.6502 1.469-1.4867 1.469h-9.0441c-0.8356 0-1.4867-0.64-1.4867-1.469v-9.061c0-0.828 0.65119-1.469 1.4867-1.469z" overflow="visible" font-weight="400"/><circle id="path4489" r="2" style="opacity:.8;stroke-width:1.3333;fill:#f1f2f2" cx="5" cy="8"/><circle id="circle4491" cx="11" cy="8" r="2" style="opacity:.6;stroke-width:1.3333;fill:#f1f2f2"/></svg>
