<svg xmlns="http://www.w3.org/2000/svg" viewBox="-4 -4 24 24">
    <path style="text-indent:0;text-decoration-line:none;text-transform:none" d="M3.478 1A2.476 2.476 0 0 0 1 3.469v9.062A2.475 2.475 0 0 0 3.478 15h9.044A2.476 2.476 0 0 0 15 12.531V3.47C15 2.1 13.883 1 12.522 1zm0 1h9.044c.837 0 1.487.64 1.487 1.469v9.062c0 .828-.65 1.469-1.487 1.469H3.478c-.836 0-1.487-.64-1.487-1.469V3.47c0-.828.651-1.469 1.487-1.469z" overflow="visible" font-weight="400" color="#000" fill="#f1f2f2"/>
    <circle r="2" cx="5" cy="8" opacity=".8" fill="#f1f2f2"/>
    <circle cx="11" cy="8" r="2" opacity=".6" fill="#f1f2f2"/>
</svg>
