<?xml version="1.0" encoding="UTF-8" standalone="no"?>
<svg
   xmlns:dc="http://purl.org/dc/elements/1.1/"
   xmlns:cc="http://creativecommons.org/ns#"
   xmlns:rdf="http://www.w3.org/1999/02/22-rdf-syntax-ns#"
   xmlns:svg="http://www.w3.org/2000/svg"
   xmlns="http://www.w3.org/2000/svg"
   width="16.000002"
   version="1.1"
	 viewBox="-4 -4 24 24"

   id="svg7384"
   height="16">
  <metadata
     id="metadata90">
    <rdf:RDF>
      <cc:Work
         rdf:about="">
        <dc:format>image/svg+xml</dc:format>
        <dc:type
           rdf:resource="http://purl.org/dc/dcmitype/StillImage" />
        <dc:title>Gnome Symbolic Icon Theme</dc:title>
      </cc:Work>
    </rdf:RDF>
  </metadata>
  <title
     id="title9167">Gnome Symbolic Icon Theme</title>
  <defs
     id="defs7386" />
  <g
     transform="translate(-41.0002,-397)"
     style="display:inline"
     id="layer9">
    <path
       style="display:inline;fill:#f1f2f2;fill-opacity:1;stroke:none"
       id="rect3845-5"
       d="m 41.53145,398 c -0.28913,0 -0.53125,0.24212 -0.53125,0.53125 v 13.93755 c 0,0.2985 0.23264,0.5312 0.53125,0.5312 h 12.9375 c 0.2986,0 0.53125,-0.2326 0.53125,-0.5312 l 2,-8.9376 C 57.0002,403.2421 56.75808,403 56.46895,403 H 46.0002 l -2,7.5 c 0,0.277 -0.223,0.5 -0.5,0.5 -0.277,0 -0.5,-0.223 -0.5,-0.5 l 2,-8 c 0,-0.277 0.223,-0.5 0.5,-0.5 h 0.96875 8.53125 v -1.4062 C 55.0002,400.2666 54.73354,400 54.40645,400 H 47.0002 v -1.46875 C 47.0002,398.2421 46.75808,398 46.46895,398 Z" />
  </g>
  <g
     transform="translate(-41.0002,-397)"
     style="display:inline"
     id="layer10" />
  <g
     transform="translate(-41.0002,-397)"
     id="layer11" />
  <g
     transform="translate(-41.0002,-397)"
     style="display:inline"
     id="layer13" />
  <g
     transform="translate(-41.0002,-397)"
     id="layer14" />
  <g
     transform="translate(-41.0002,-397)"
     style="display:inline"
     id="layer15" />
  <g
     transform="translate(-41.0002,-397)"
     style="display:inline"
     id="g71291" />
  <g
     transform="translate(-41.0002,-397)"
     style="display:inline"
     id="g4953" />
  <g
     transform="translate(-41.0002,-397)"
     style="display:inline"
     id="layer12" />
</svg>
