<?xml version="1.0" encoding="UTF-8" standalone="no"?>
<svg
   xmlns:dc="http://purl.org/dc/elements/1.1/"
   xmlns:cc="http://creativecommons.org/ns#"
   xmlns:rdf="http://www.w3.org/1999/02/22-rdf-syntax-ns#"
   xmlns:svg="http://www.w3.org/2000/svg"
   xmlns="http://www.w3.org/2000/svg"
   width="16.0002"
   version="1.1"
	 viewBox="-4 -4 24 24"

   id="svg7384"
   height="16">
  <metadata
     id="metadata90">
    <rdf:RDF>
      <cc:Work
         rdf:about="">
        <dc:format>image/svg+xml</dc:format>
        <dc:type
           rdf:resource="http://purl.org/dc/dcmitype/StillImage" />
        <dc:title>Gnome Symbolic Icon Theme</dc:title>
      </cc:Work>
    </rdf:RDF>
  </metadata>
  <title
     id="title9167">Gnome Symbolic Icon Theme</title>
  <defs
     id="defs7386" />
  <g
     transform="translate(-241,-827)"
     style="display:inline"
     id="layer9" />
  <g
     transform="translate(-241,-827)"
     style="display:inline"
     id="layer10" />
  <g
     transform="translate(-241,-827)"
     id="layer11" />
  <g
     transform="translate(-241,-827)"
     style="display:inline"
     id="layer13" />
  <g
     transform="translate(-241,-827)"
     id="layer14" />
  <g
     transform="translate(-241,-827)"
     style="display:inline"
     id="layer15" />
  <g
     transform="translate(-241,-827)"
     style="display:inline"
     id="g71291" />
  <g
     transform="translate(-241,-827)"
     style="display:inline"
     id="g4953" />
  <g
     transform="translate(-241,-827)"
     style="display:inline"
     id="layer12">
    <path
       style="color:#f1f2f2;font-style:normal;font-variant:normal;font-weight:normal;font-stretch:normal;font-size:medium;line-height:normal;font-family:'Bitstream Vera Sans';-inkscape-font-specification:'Bitstream Vera Sans';text-indent:0;text-align:start;text-decoration:none;text-decoration-line:none;letter-spacing:normal;word-spacing:normal;text-transform:none;writing-mode:lr-tb;direction:ltr;text-anchor:start;display:inline;overflow:visible;visibility:visible;fill:#f1f2f2;fill-opacity:1;stroke:none;stroke-width:2;marker:none;enable-background:accumulate"
       id="path26548"
       d="m 241,832 v 1 c 0,0.25689 0.12983,0.52846 0.3125,0.71875 L 242.59375,835 241.3125,836.28125 C 241.12983,836.47154 241,836.74311 241,837 v 1 h 1 c 0.30945,0 0.55232,-0.0903 0.75,-0.28125 L 245.40625,835 242.75,832.28125 C 242.55232,832.0903 242.30945,832 242,832 Z" />
    <path
       style="color:#f1f2f2;font-style:normal;font-variant:normal;font-weight:normal;font-stretch:normal;font-size:medium;line-height:normal;font-family:'Bitstream Vera Sans';-inkscape-font-specification:'Bitstream Vera Sans';text-indent:0;text-align:start;text-decoration:none;text-decoration-line:none;letter-spacing:normal;word-spacing:normal;text-transform:none;writing-mode:lr-tb;direction:ltr;text-anchor:start;display:inline;overflow:visible;visibility:visible;fill:#f1f2f2;fill-opacity:1;stroke:none;stroke-width:2;marker:none;enable-background:accumulate"
       id="path26550"
       d="m 257.0002,832 v 1 c 0,0.25689 -0.12983,0.52846 -0.3125,0.71875 L 255.40645,835 l 1.28125,1.28125 c 0.18267,0.19029 0.3125,0.46186 0.3125,0.71875 v 1 h -1 c -0.30945,0 -0.55232,-0.0903 -0.75,-0.28125 L 252.59395,835 255.2502,832.28125 C 255.44788,832.0903 255.69075,832 256.0002,832 Z" />
    <path
       style="color:#000000;font-style:normal;font-variant:normal;font-weight:normal;font-stretch:normal;font-size:medium;line-height:normal;font-family:Sans;-inkscape-font-specification:Sans;text-indent:0;text-align:start;text-decoration:none;text-decoration-line:none;letter-spacing:normal;word-spacing:normal;text-transform:none;writing-mode:lr-tb;direction:ltr;baseline-shift:baseline;text-anchor:start;display:inline;overflow:visible;visibility:visible;fill:#f1f2f2;fill-opacity:1;stroke:none;stroke-width:2;marker:none;enable-background:accumulate"
       id="path11643-3-2-67"
       d="m 248,830 v 2 h 1.90625 c -0.0552,0 0.0937,0.17104 0.0937,0.0937 v 0.9375 h -1 c -1.71588,0 -3.03787,1.10986 -3.0625,2.46875 -0.0123,0.67944 0.3195,1.35323 0.875,1.8125 0.5555,0.45927 1.30959,0.71875 2.1875,0.71875 h 2 1 v -1 -4.9375 C 252,830.92256 251.10309,830 249.90625,830 Z m 1,5.03125 h 1 v 1 h -1 c -0.51941,0 -0.78011,-0.14571 -0.90625,-0.25 -0.12614,-0.10429 -0.15755,-0.17804 -0.15625,-0.25 0.003,-0.14393 0.0927,-0.5 1.0625,-0.5 z" />
  </g>
</svg>
