<?xml version="1.0" encoding="UTF-8" standalone="no"?>
<svg
   xmlns:dc="http://purl.org/dc/elements/1.1/"
   xmlns:cc="http://creativecommons.org/ns#"
   xmlns:rdf="http://www.w3.org/1999/02/22-rdf-syntax-ns#"
   xmlns:svg="http://www.w3.org/2000/svg"
   xmlns="http://www.w3.org/2000/svg"
   width="16"
   height="16"
   version="1.1"
	 viewBox="-4 -4 24 24"

   id="svg7384">
  <metadata
     id="metadata90">
    <rdf:RDF>
      <cc:Work
         rdf:about="">
        <dc:format>image/svg+xml</dc:format>
        <dc:type
           rdf:resource="http://purl.org/dc/dcmitype/StillImage" />
        <dc:title>Gnome Symbolic Icon Theme</dc:title>
      </cc:Work>
    </rdf:RDF>
  </metadata>
  <title
     id="title9167">Gnome Symbolic Icon Theme</title>
  <defs
     id="defs7386" />
  <g
     style="display:inline"
     id="layer9"
     transform="translate(-220.0002,-706)" />
  <g
     id="layer10"
     transform="translate(-220.0002,-706)" />
  <g
     id="layer11"
     transform="translate(-220.0002,-706)" />
  <g
     id="layer12"
     transform="translate(-220.0002,-706)">
    <path
       style="color:#000000;font-style:normal;font-variant:normal;font-weight:normal;font-stretch:normal;font-size:medium;line-height:normal;font-family:Sans;-inkscape-font-specification:Sans;text-indent:0;text-align:start;text-decoration:none;text-decoration-line:none;letter-spacing:normal;word-spacing:normal;text-transform:none;writing-mode:lr-tb;direction:ltr;baseline-shift:baseline;text-anchor:start;display:inline;overflow:visible;visibility:visible;fill:#f1f2f2;fill-opacity:1;stroke:none;stroke-width:2;marker:none;enable-background:accumulate"
       id="path11643-3-5"
       d="m 224.5,709 v 2 h 6 c 0.42816,0 0.59383,0.26733 0.46875,0.71875 L 230.625,713 h -5.25 c -1.83854,0 -3.12514,1.35237 -3.5,2.75 -0.18743,0.69881 -0.16219,1.47883 0.25,2.15625 0.41219,0.67742 1.24797,1.09375 2.15625,1.09375 h 6 0.75 l 0.21875,-0.71875 1.65625,-6 C 233.34093,710.71247 232.1802,709 230.5,709 Z m 0.875,6 h 4.6875 l -0.5625,2 h -5.21875 c -0.39787,0 -0.42459,-0.0837 -0.46875,-0.15625 -0.0442,-0.0726 -0.0808,-0.29256 0,-0.59375 0.16157,-0.60237 0.71778,-1.25 1.5625,-1.25 z" />
  </g>
  <g
     id="layer13"
     transform="translate(-220.0002,-706)" />
  <g
     id="layer14"
     transform="translate(-220.0002,-706)" />
  <g
     style="display:inline"
     id="layer15"
     transform="translate(-220.0002,-706)" />
  <g
     style="display:inline"
     id="g4953"
     transform="translate(-220.0002,-706)" />
</svg>
