<?xml version="1.0" encoding="UTF-8" standalone="no"?>
<svg
   xmlns:dc="http://purl.org/dc/elements/1.1/"
   xmlns:cc="http://creativecommons.org/ns#"
   xmlns:rdf="http://www.w3.org/1999/02/22-rdf-syntax-ns#"
   xmlns:svg="http://www.w3.org/2000/svg"
   xmlns="http://www.w3.org/2000/svg"
   width="16.00001"
   id="svg7384"
   height="15.999999"
   version="1.1"
	 viewBox="-4 -4 24 24"
>
  <metadata
     id="metadata90">
    <rdf:RDF>
      <cc:Work
         rdf:about="">
        <dc:format>image/svg+xml</dc:format>
        <dc:type
           rdf:resource="http://purl.org/dc/dcmitype/StillImage" />
        <dc:title>Gnome Symbolic Icon Theme</dc:title>
      </cc:Work>
    </rdf:RDF>
  </metadata>
  <title
     id="title9167">Gnome Symbolic Icon Theme</title>
  <defs
     id="defs7386" />
  <g
     style="display:inline"
     id="layer9"
     transform="translate(-301.00019,-647)" />
  <g
     id="layer10"
     transform="translate(-301.00019,-647)" />
  <g
     id="layer11"
     transform="translate(-301.00019,-647)" />
  <g
     id="layer13"
     transform="translate(-301.00019,-647)" />
  <g
     id="layer14"
     transform="translate(-301.00019,-647)" />
  <g
     style="display:inline"
     id="layer15"
     transform="translate(-301.00019,-647)" />
  <g
     style="display:inline"
     id="g71291"
     transform="translate(-301.00019,-647)" />
  <g
     style="display:inline"
     id="g4953"
     transform="translate(-301.00019,-647)" />
  <g
     style="display:inline"
     id="layer12"
     transform="translate(-301.00019,-647)">
    <path
       style="color:#000000;font-style:normal;font-variant:normal;font-weight:normal;font-stretch:normal;font-size:xx-small;line-height:normal;font-family:Sans;-inkscape-font-specification:Sans;text-indent:0;text-align:start;text-decoration:none;text-decoration-line:none;letter-spacing:normal;word-spacing:normal;text-transform:none;writing-mode:lr-tb;direction:ltr;baseline-shift:baseline;text-anchor:start;display:inline;overflow:visible;visibility:visible;fill:#f1f2f2;fill-opacity:1;stroke:none;stroke-width:2;marker:none;enable-background:accumulate"
       id="path11643-3-2-9"
       d="m 307.00032,647.04926 v 2 h 6 c 0.42816,0 1,0.61414 1,1 v 1 h -5 c -0.91927,0 -1.7356,0.38396 -2.25,0.96875 -0.5144,0.58479 -0.75639,1.31063 -0.75,2.03125 0.006,0.72062 0.26893,1.45271 0.78125,2.03125 0.51232,0.57854 1.31047,0.96875 2.21875,0.96875 h 6 1 v -1 -6 c 0,-1.63434 -1.3198,-3 -3,-3 z m 2,6 h 5 v 2 h -5 c -0.39787,0 -0.56691,-0.10979 -0.71875,-0.28125 -0.15184,-0.17146 -0.27877,-0.43937 -0.28125,-0.71875 -0.002,-0.27938 0.10467,-0.55354 0.25,-0.71875 0.14533,-0.16521 0.32764,-0.28125 0.75,-0.28125 z" />
    <path
       style="color:#000000;font-style:normal;font-variant:normal;font-weight:normal;font-stretch:normal;font-size:medium;line-height:normal;font-family:'Bitstream Vera Sans';-inkscape-font-specification:'Bitstream Vera Sans';text-indent:0;text-align:start;text-decoration:none;text-decoration-line:none;letter-spacing:normal;word-spacing:normal;text-transform:none;writing-mode:lr-tb;direction:ltr;text-anchor:start;display:inline;overflow:visible;visibility:visible;fill:#f1f2f2;fill-opacity:1;stroke:none;stroke-width:2;marker:none;enable-background:accumulate"
       id="path4484"
       d="m 305.0002,662.00001 -1,-10e-6 c -0.26531,-3e-5 -0.53058,-0.0931 -0.71875,-0.28124 l -2,-2.00001 -0.28126,-0.28125 v -0.87499 l 0.28126,-0.28126 2,-1.99999 c 0.18818,-0.18821 0.45347,-0.28121 0.71876,-0.28121 l 1,-10e-6 v 1 c 4e-5,0.26531 -0.0931,0.53059 -0.28121,0.71877 l -1.28126,1.28124 1.28125,1.28125 c 0.18815,0.18817 0.28125,0.45345 0.28125,0.71875 v 1 z" />
    <path
       style="color:#000000;font-style:normal;font-variant:normal;font-weight:normal;font-stretch:normal;font-size:medium;line-height:normal;font-family:Sans;-inkscape-font-specification:Sans;text-indent:0;text-align:start;text-decoration:none;text-decoration-line:none;letter-spacing:normal;word-spacing:normal;text-transform:none;writing-mode:lr-tb;direction:ltr;baseline-shift:baseline;text-anchor:start;display:inline;overflow:visible;visibility:visible;fill:#f1f2f2;fill-opacity:1;stroke:none;stroke-width:2;marker:none;enable-background:accumulate"
       id="path4486"
       d="m 303,658 v 2 h 12.9375 v -2 z" />
  </g>
</svg>
