<?xml version="1.0" encoding="UTF-8" standalone="no"?>
<svg
   xmlns:dc="http://purl.org/dc/elements/1.1/"
   xmlns:cc="http://creativecommons.org/ns#"
   xmlns:rdf="http://www.w3.org/1999/02/22-rdf-syntax-ns#"
   xmlns:svg="http://www.w3.org/2000/svg"
   xmlns="http://www.w3.org/2000/svg"
   id="svg7384"
   version="1.1"
	 viewBox="-4 -4 24 24"

   height="16.000019"
   width="16">
  <metadata
     id="metadata90">
    <rdf:RDF>
      <cc:Work
         rdf:about="">
        <dc:format>image/svg+xml</dc:format>
        <dc:type
           rdf:resource="http://purl.org/dc/dcmitype/StillImage" />
        <dc:title>Gnome Symbolic Icon Theme</dc:title>
      </cc:Work>
    </rdf:RDF>
  </metadata>
  <title
     id="title9167">Gnome Symbolic Icon Theme</title>
  <defs
     id="defs7386" />
  <g
     transform="translate(-122,-489.99998)"
     id="layer9"
     style="display:inline" />
  <g
     transform="translate(-122,-489.99998)"
     id="layer10" />
  <g
     transform="translate(-122,-489.99998)"
     id="layer11">
    <path
       d="M 124.1875,490 C 122.98196,490 122,491.01672 122,492.21875 v 10.5625 c 0,1.20203 0.98197,2.21875 2.1875,2.21875 h 11.625 c 1.20553,0 2.1875,-1.01671 2.1875,-2.21875 v -10.5625 C 138,491.01671 137.01804,490 135.8125,490 Z m 0,2 h 11.625 c 0.1228,0 0.1875,0.0809 0.1875,0.21875 v 10.5625 C 136,502.91909 135.93531,503 135.8125,503 h -11.625 C 124.06469,503 124,502.9191 124,502.78125 v -10.5625 C 124,492.0809 124.0647,492 124.1875,492 Z"
       id="rect11749-5-9"
       style="color:#f1f2f2;font-style:normal;font-variant:normal;font-weight:normal;font-stretch:normal;font-size:medium;line-height:normal;font-family:'Bitstream Vera Sans';-inkscape-font-specification:'Bitstream Vera Sans';text-indent:0;text-align:start;text-decoration:none;text-decoration-line:none;letter-spacing:normal;word-spacing:normal;text-transform:none;writing-mode:lr-tb;direction:ltr;text-anchor:start;display:inline;overflow:visible;visibility:visible;fill:#cc0000;fill-opacity:1;stroke:none;stroke-width:2;marker:none;enable-background:accumulate" />
    <path
       d="m 126.3125,495.90625 a 0.60006002,0.60006002 0 0 0 -0.25,1.03125 l 1.5625,1.5625 -1.5625,1.5625 a 0.61871843,0.61871843 0 1 0 0.875,0.875 l 2,-2 a 0.60006002,0.60006002 0 0 0 0,-0.875 l -2,-2 a 0.60006002,0.60006002 0 0 0 -0.625,-0.15625 z"
       id="path11751-2-3"
       style="color:#f1f2f2;font-style:normal;font-variant:normal;font-weight:normal;font-stretch:normal;font-size:medium;line-height:normal;font-family:'Bitstream Vera Sans';-inkscape-font-specification:'Bitstream Vera Sans';text-indent:0;text-align:start;text-decoration:none;text-decoration-line:none;letter-spacing:normal;word-spacing:normal;text-transform:none;writing-mode:lr-tb;direction:ltr;text-anchor:start;display:inline;overflow:visible;visibility:visible;fill:#cc0000;fill-opacity:1;stroke:none;stroke-width:1.20000005;marker:none;enable-background:accumulate" />
    <path
       id="rect4987"
       d="m 130,500 h 3 v 1.00001 h -3 z"
       style="color:#f1f2f2;display:inline;overflow:visible;visibility:visible;fill:#cc0000;fill-opacity:1;fill-rule:nonzero;stroke:none;stroke-width:1;marker:none;enable-background:accumulate" />
  </g>
  <g
     transform="translate(-122,-489.99998)"
     id="layer12" />
  <g
     transform="translate(-122,-489.99998)"
     id="layer13" />
  <g
     transform="translate(-122,-489.99998)"
     id="layer14" />
  <g
     transform="translate(-122,-489.99998)"
     id="layer15"
     style="display:inline" />
  <g
     transform="translate(-122,-489.99998)"
     id="g4953"
     style="display:inline" />
</svg>
