<?xml version="1.0" encoding="UTF-8" standalone="no"?>
<svg
   xmlns:dc="http://purl.org/dc/elements/1.1/"
   xmlns:cc="http://creativecommons.org/ns#"
   xmlns:rdf="http://www.w3.org/1999/02/22-rdf-syntax-ns#"
   xmlns:svg="http://www.w3.org/2000/svg"
   xmlns="http://www.w3.org/2000/svg"
   xmlns:sodipodi="http://sodipodi.sourceforge.net/DTD/sodipodi-0.dtd"
   xmlns:inkscape="http://www.inkscape.org/namespaces/inkscape"
   width="16.012655"
   version="1.1"
	 viewBox="-4 -4 24 24"

   id="svg7384"
   height="15.999979"
   sodipodi:docname="go-home.svg"
   inkscape:version="0.92.1 r15371">
  <sodipodi:namedview
     pagecolor="#ffffff"
     bordercolor="#666666"
     borderopacity="1"
     objecttolerance="10"
     gridtolerance="10"
     guidetolerance="10"
     inkscape:pageopacity="0"
     inkscape:pageshadow="2"
     inkscape:window-width="1249"
     inkscape:window-height="406"
     id="namedview26"
     showgrid="false"
     inkscape:zoom="14.750019"
     inkscape:cx="4.8537894"
     inkscape:cy="7.9999895"
     inkscape:window-x="1203"
     inkscape:window-y="340"
     inkscape:window-maximized="0"
     inkscape:current-layer="layer12" />
  <metadata
     id="metadata90">
    <rdf:RDF>
      <cc:Work
         rdf:about="">
        <dc:format>image/svg+xml</dc:format>
        <dc:type
           rdf:resource="http://purl.org/dc/dcmitype/StillImage" />
        <dc:title>Gnome Symbolic Icon Theme</dc:title>
      </cc:Work>
    </rdf:RDF>
  </metadata>
  <title
     id="title9167">Gnome Symbolic Icon Theme</title>
  <defs
     id="defs7386" />
  <g
     transform="translate(-44.993672,-949.00003)"
     style="display:inline"
     id="layer9" />
  <g
     transform="translate(-44.993672,-949.00003)"
     style="display:inline"
     id="layer10" />
  <g
     transform="translate(-44.993672,-949.00003)"
     id="layer11" />
  <g
     transform="translate(-44.993672,-949.00003)"
     style="display:inline"
     id="layer13" />
  <g
     transform="translate(-44.993672,-949.00003)"
     id="layer14" />
  <g
     transform="translate(-44.993672,-949.00003)"
     style="display:inline"
     id="layer15" />
  <g
     transform="translate(-44.993672,-949.00003)"
     style="display:inline"
     id="g71291" />
  <g
     transform="translate(-44.993672,-949.00003)"
     style="display:inline"
     id="g4953" />
  <g
     transform="translate(-44.993672,-949.00003)"
     style="display:inline"
     id="layer12">
    <g
       transform="matrix(1,0,0,0.99999871,-112.37982,189.09791)"
       id="g5273">
      <title
         id="title5275">go-home</title>
      <g
         transform="matrix(0.02603569,0,0,0.02603569,345.96663,902.07624)"
         style="fill:#f1f2f2;fill-opacity:1"
         id="g5277">
        <g
           style="fill:#f1f2f2;fill-opacity:1"
           id="g5279" />
        <g
           style="fill:#f1f2f2;fill-opacity:1"
           id="g5281" />
      </g>
      <g
         transform="matrix(0,1,1,0,-360.61998,639.9031)"
         id="g5283" />
    </g>
    <path
       style="color:#000000;font-style:normal;font-variant:normal;font-weight:normal;font-stretch:normal;font-size:medium;line-height:normal;font-family:Sans;-inkscape-font-specification:Sans;text-indent:0;text-align:start;text-decoration:none;text-decoration-line:none;letter-spacing:normal;word-spacing:normal;text-transform:none;writing-mode:lr-tb;direction:ltr;baseline-shift:baseline;text-anchor:start;display:inline;overflow:visible;visibility:visible;fill:#f1f2f2;fill-opacity:1;stroke:none;stroke-width:2;marker:none;enable-background:accumulate"
       id="path5287"
       d="M 47.78125,954 A 1.0001,1.0001 0 0 0 47,955 v 7 a 1.0001,1.0001 0 0 0 1,1 h 10 a 1.0001,1.0001 0 0 0 1,-1 v -7 a 1.0001,1.0001 0 1 0 -2,0 v 6 h -8 v -6 a 1.0001,1.0001 0 0 0 -1.21875,-1 z" />
    <path
       style="color:#000000;font-style:normal;font-variant:normal;font-weight:normal;font-stretch:normal;font-size:medium;line-height:normal;font-family:Sans;-inkscape-font-specification:Sans;text-indent:0;text-align:start;text-decoration:none;text-decoration-line:none;letter-spacing:normal;word-spacing:normal;text-transform:none;writing-mode:lr-tb;direction:ltr;baseline-shift:baseline;text-anchor:start;display:inline;overflow:visible;visibility:visible;fill:#f1f2f2;fill-opacity:1;stroke:none;stroke-width:2;marker:none;enable-background:accumulate"
       id="path5289"
       d="m 52.90625,950 a 1.0001,1.0001 0 0 0 -0.5,0.1875 l -7,5 a 1.0063276,1.0063276 0 1 0 1.1875,1.625 L 53,952.25 l 6.40625,4.5625 a 1.0063276,1.0063276 0 1 0 1.1875,-1.625 l -7,-5 A 1.0001,1.0001 0 0 0 52.90625,950 Z" />
    <path
       id="rect5293"
       d="m -60.500366,956 c 0.277,0 0.5,0.223 0.5,0.5 0,0.277 -0.223,0.5 -0.5,0.5 -0.277,0 -0.5,-0.223 -0.5,-0.5 0,-0.277 0.223,-0.5 0.5,-0.5 z"
       style="display:inline;fill:#f1f2f2;fill-opacity:1;stroke:none"
       transform="scale(-1,1)" />
    <path
       id="rect5295"
       d="m -45.500366,956 c 0.277,0 0.5,0.223 0.5,0.5 0,0.277 -0.223,0.5 -0.5,0.5 -0.277,0 -0.5,-0.223 -0.5,-0.5 0,-0.277 0.223,-0.5 0.5,-0.5 z"
       style="display:inline;fill:#f1f2f2;fill-opacity:1;stroke:none"
       transform="scale(-1,1)" />
  </g>
</svg>
