<?xml version="1.0" encoding="UTF-8" standalone="no"?>
<svg
   xmlns:dc="http://purl.org/dc/elements/1.1/"
   xmlns:cc="http://creativecommons.org/ns#"
   xmlns:rdf="http://www.w3.org/1999/02/22-rdf-syntax-ns#"
   xmlns:svg="http://www.w3.org/2000/svg"
   xmlns="http://www.w3.org/2000/svg"
   width="16.000002"
   version="1.1"
	 viewBox="-4 -4 24 24"

   id="svg7384"
   height="16">
  <metadata
     id="metadata90">
    <rdf:RDF>
      <cc:Work
         rdf:about="">
        <dc:format>image/svg+xml</dc:format>
        <dc:type
           rdf:resource="http://purl.org/dc/dcmitype/StillImage" />
        <dc:title>Gnome Symbolic Icon Theme</dc:title>
      </cc:Work>
    </rdf:RDF>
  </metadata>
  <title
     id="title9167">Gnome Symbolic Icon Theme</title>
  <defs
     id="defs7386" />
  <g
     transform="translate(-123.0002,-669)"
     style="display:inline"
     id="layer9" />
  <g
     transform="translate(-123.0002,-669)"
     style="display:inline"
     id="layer10" />
  <g
     transform="translate(-123.0002,-669)"
     id="layer11">
    <path
       style="fill:#f1f2f2;fill-opacity:1;stroke:none"
       id="path8268-0-7"
       d="m 125.5002,670 c -1.385,0 -2.5,1.11499 -2.5,2.5 v 1.4375 c 0.71291,-0.50478 1.57073,-0.94508 2.5,-0.94508 h 7.0625 c 1.26706,0 2.41714,0.69286 3.21875,1.57008 L 139.0002,672 h -4 c -0.23235,-1.14125 -1.22562,-2 -2.4375,-2 z" />
    <path
       style="fill:#f1f2f2;fill-opacity:1;stroke:none"
       id="path27962"
       d="m 125.5002,675 c -1.385,0 -2.5,1.11499 -2.5,2.5 v 5 c 0,1.385 1.115,2.5 2.5,2.5 h 7.0625 c 1.38501,0 2.48022,-1.11514 2.5,-2.5 v -2.375 L 139.0002,677 h -4 c -0.23235,-1.14125 -1.22562,-2 -2.4375,-2 z m 3.9375,1 c 1.31394,-0.0736 2.4889,0.93606 2.5625,2.25 -8e-5,1.12109 -0.30842,1.54366 -1.28125,2.28125 -0.15274,0.11491 -0.24173,0.20048 -0.28125,0.25 -0.0395,0.0497 -0.0312,0.0328 -0.0312,0.0312 0.006,0.42265 -0.3898,0.78125 -0.8125,0.78125 -0.4227,0 -0.78685,-0.3586 -0.78125,-0.78125 0,-0.40191 0.17939,-0.75474 0.375,-1 0.19561,-0.24531 0.38054,-0.42561 0.5625,-0.5625 0.16324,-0.12845 0.38116,-0.31388 0.5625,-0.53125 0.0748,-0.0897 0.097,-0.23988 0.0937,-0.34375 v -0.0312 c -0.0253,-0.45059 -0.39316,-0.77528 -0.84375,-0.75 -0.45059,0.0253 -0.77528,0.36191 -0.75,0.8125 h -1.625 c -0.0736,-1.31395 0.93606,-2.33257 2.25,-2.40625 z m 0.15625,6.40625 c 0.44182,0 0.8125,0.37067 0.8125,0.8125 0,0.44182 -0.37068,0.78125 -0.8125,0.78125 -0.44182,0 -0.78125,-0.33943 -0.78125,-0.78125 0,-0.44183 0.33943,-0.8125 0.78125,-0.8125 z" />
  </g>
  <g
     transform="translate(-123.0002,-669)"
     style="display:inline"
     id="layer13" />
  <g
     transform="translate(-123.0002,-669)"
     id="layer14" />
  <g
     transform="translate(-123.0002,-669)"
     style="display:inline"
     id="layer15" />
  <g
     transform="translate(-123.0002,-669)"
     style="display:inline"
     id="g71291" />
  <g
     transform="translate(-123.0002,-669)"
     style="display:inline"
     id="g4953" />
  <g
     transform="translate(-123.0002,-669)"
     style="display:inline"
     id="layer12" />
</svg>
