<?xml version="1.0" encoding="UTF-8" standalone="no"?>
<svg
   xmlns:dc="http://purl.org/dc/elements/1.1/"
   xmlns:cc="http://creativecommons.org/ns#"
   xmlns:rdf="http://www.w3.org/1999/02/22-rdf-syntax-ns#"
   xmlns:svg="http://www.w3.org/2000/svg"
   xmlns="http://www.w3.org/2000/svg"
   width="16"
   version="1.1"
	 viewBox="-4 -4 24 24"

   id="svg7384"
   height="16">
  <metadata
     id="metadata90">
    <rdf:RDF>
      <cc:Work
         rdf:about="">
        <dc:format>image/svg+xml</dc:format>
        <dc:type
           rdf:resource="http://purl.org/dc/dcmitype/StillImage" />
        <dc:title>Gnome Symbolic Icon Theme</dc:title>
      </cc:Work>
    </rdf:RDF>
  </metadata>
  <title
     id="title9167">Gnome Symbolic Icon Theme</title>
  <defs
     id="defs7386" />
  <g
     transform="translate(-341.0002,-827)"
     style="display:inline"
     id="layer9" />
  <g
     transform="translate(-341.0002,-827)"
     style="display:inline"
     id="layer10" />
  <g
     transform="translate(-341.0002,-827)"
     id="layer11" />
  <g
     transform="translate(-341.0002,-827)"
     style="display:inline"
     id="layer13" />
  <g
     transform="translate(-341.0002,-827)"
     id="layer14" />
  <g
     transform="translate(-341.0002,-827)"
     style="display:inline"
     id="layer15" />
  <g
     transform="translate(-341.0002,-827)"
     style="display:inline"
     id="g71291" />
  <g
     transform="translate(-341.0002,-827)"
     style="display:inline"
     id="g4953" />
  <g
     transform="translate(-341.0002,-827)"
     style="display:inline"
     id="layer12">
    <path
       id="path67"
       d="m 7.9549515,15.20505 c -0.736079,0 -1.8727276,-4.246301 -2.3932141,-4.766787 C 5.0412509,9.9177761 0.79494952,8.7811279 0.79494953,8.0450489 0.79494954,7.3089699 5.041251,6.1723213 5.5617374,5.6518348 6.0822239,5.1313484 7.2188721,0.88504695 7.9549511,0.88504696 c 0.736079,10e-9 1.8727276,4.24630144 2.3932139,4.76678794 0.520487,0.5204864 4.766788,1.6571346 4.766788,2.3932136 0,0.736079 -4.246301,1.8727276 -4.766788,2.3932145 -0.5204863,0.520486 -1.6571345,4.766787 -2.3932135,4.766787 z"
       style="color:#000000;display:inline;overflow:visible;visibility:visible;fill:#f1f2f2;fill-opacity:1;fill-rule:nonzero;stroke:none;stroke-width:2.03395915;marker:none;enable-background:accumulate"
       transform="matrix(0.97765337,0,0,0.97765339,341.22302,827.13473)" />
  </g>
</svg>
