<?xml version="1.0" encoding="UTF-8" standalone="no"?>
<svg
   xmlns:osb="http://www.openswatchbook.org/uri/2009/osb"
   xmlns:dc="http://purl.org/dc/elements/1.1/"
   xmlns:cc="http://creativecommons.org/ns#"
   xmlns:rdf="http://www.w3.org/1999/02/22-rdf-syntax-ns#"
   xmlns:svg="http://www.w3.org/2000/svg"
   xmlns="http://www.w3.org/2000/svg"
   width="16.53125"
   version="1.1"
	 viewBox="-4 -4 24 24"

   id="svg7384"
   height="16">
  <metadata
     id="metadata90">
    <rdf:RDF>
      <cc:Work
         rdf:about="">
        <dc:format>image/svg+xml</dc:format>
        <dc:type
           rdf:resource="http://purl.org/dc/dcmitype/StillImage" />
        <dc:title>Gnome Symbolic Icon Theme</dc:title>
      </cc:Work>
    </rdf:RDF>
  </metadata>
  <title
     id="title9167">Gnome Symbolic Icon Theme</title>
  <defs
     id="defs7386">
    <linearGradient
       osb:paint="solid"
       id="linearGradient19282"
       gradientTransform="matrix(-2.7365795,0.28202934,-0.18908311,-0.99988321,239.54008,-879.45557)">
      <stop
         style="stop-color:#666666;stop-opacity:1;"
         offset="0"
         id="stop19284" />
    </linearGradient>
  </defs>
  <g
     transform="translate(-260.7502,-547)"
     style="display:inline"
     id="layer9" />
  <g
     transform="translate(-260.7502,-547)"
     style="display:inline"
     id="layer10">
    <path
       style="color:#000000;font-style:normal;font-variant:normal;font-weight:normal;font-stretch:normal;font-size:medium;line-height:normal;font-family:Sans;-inkscape-font-specification:Sans;text-indent:0;text-align:start;text-decoration:none;text-decoration-line:none;letter-spacing:normal;word-spacing:normal;text-transform:none;writing-mode:lr-tb;direction:ltr;baseline-shift:baseline;text-anchor:start;display:inline;overflow:visible;visibility:visible;fill:#f1f2f2;fill-opacity:1;stroke:none;stroke-width:2;marker:none;enable-background:new"
       id="path12732"
       d="m 269.0021,547.00379 -1.0019,0.0275 0.0312,0.5 c 0.0471,0.46556 -0.20254,0.96951 -0.59375,1.21875 -0.35305,0.24895 -0.90493,0.1983 -1.59375,0.21875 -0.34855,0.003 -0.70297,0.0839 -1.03125,0.28125 -0.32828,0.19733 -0.64985,0.5469 -0.71875,1 -0.15832,0.89239 0.45382,1.63343 1.15625,1.78125 0.80729,0.17604 1.64453,0.0756 2.625,0 0.25579,-0.0197 0.60056,0.0205 0.8125,0.125 0.33374,0.26075 0.28443,0.40291 0.28125,0.875 h -4.90625 -0.75 l -0.21875,0.71875 -1.96875,7 -0.375,1.28125 h 1.34375 13.875 1.3125 l -0.375,-1.28125 -1.81315,-6.02719 -1.58617,1.53661 1.14932,3.77183 h -11.28125 l 1.4375,-5 h 3.3125 l 1.84375,-1.9687 v -0.0312 -0.46875 c -0.003,-0.61146 -0.40574,-1.09656 -0.84375,-1.3125 -0.43801,-0.21594 -0.93011,-0.25063 -1.34375,-0.21875 -0.99591,0.0768 -1.73951,0.12494 -2.3125,0 h -0.0312 c -0.19949,-0.042 -0.41743,-0.20971 -0.34375,-0.625 0.0189,-0.12428 0.0777,-0.19648 0.21875,-0.28125 0.14101,-0.0848 0.35246,-0.15487 0.53125,-0.15625 h 0.0312 c 0.56397,-0.0167 1.37705,0.11764 2.09375,-0.40625 0.81874,-0.59848 1.15373,-1.39515 1.0625,-2.125 z" />
    <path
       style="color:#000000;font-style:normal;font-variant:normal;font-weight:normal;font-stretch:normal;font-size:medium;line-height:normal;font-family:sans-serif;text-indent:0;text-align:start;text-decoration:none;text-decoration-line:none;text-decoration-style:solid;text-decoration-color:#000000;letter-spacing:normal;word-spacing:normal;text-transform:none;writing-mode:lr-tb;direction:ltr;baseline-shift:baseline;text-anchor:start;white-space:normal;clip-rule:evenodd;display:inline;overflow:visible;visibility:visible;opacity:1;isolation:auto;mix-blend-mode:normal;color-interpolation:sRGB;color-interpolation-filters:linearRGB;solid-color:#000000;solid-opacity:1;fill:#f1f2f2;fill-opacity:1;fill-rule:evenodd;stroke:none;stroke-width:2.03800011;stroke-linecap:butt;stroke-linejoin:miter;stroke-miterlimit:4;stroke-dasharray:none;stroke-dashoffset:0;stroke-opacity:1;marker:none;paint-order:normal;color-rendering:auto;image-rendering:optimizeQuality;shape-rendering:geometricPrecision;text-rendering:geometricPrecision;enable-background:accumulate"
       id="path12757"
       d="m 275.012,551.35352 c -0.40883,-0.40883 -1.07168,-0.40883 -1.48051,0 -0.0349,0.0354 -0.0672,0.0733 -0.0967,0.11324 l -4.95263,4.95262 -0.45047,1.89789 1.87026,-0.38976 4.99956,-4.99958 c 0.0389,-0.0287 0.0759,-0.0601 0.11048,-0.0939 0.40883,-0.40883 0.40883,-1.07167 0,-1.4805 z" />
  </g>
  <g
     transform="translate(-260.7502,-547)"
     id="layer11" />
  <g
     transform="translate(-260.7502,-547)"
     style="display:inline"
     id="layer13" />
  <g
     transform="translate(-260.7502,-547)"
     id="layer14" />
  <g
     transform="translate(-260.7502,-547)"
     style="display:inline"
     id="layer15" />
  <g
     transform="translate(-260.7502,-547)"
     style="display:inline"
     id="g71291" />
  <g
     transform="translate(-260.7502,-547)"
     style="display:inline"
     id="g4953" />
  <g
     transform="translate(-260.7502,-547)"
     style="display:inline"
     id="layer12" />
</svg>
