<?xml version="1.0" encoding="UTF-8" standalone="no"?>
<svg
   xmlns:dc="http://purl.org/dc/elements/1.1/"
   xmlns:cc="http://creativecommons.org/ns#"
   xmlns:rdf="http://www.w3.org/1999/02/22-rdf-syntax-ns#"
   xmlns:svg="http://www.w3.org/2000/svg"
   xmlns="http://www.w3.org/2000/svg"
   id="svg7384"
   height="16"
   width="16"
   version="1.1"
	 viewBox="-4 -4 24 24"
>
  <metadata
     id="metadata90">
    <rdf:RDF>
      <cc:Work
         rdf:about="">
        <dc:format>image/svg+xml</dc:format>
        <dc:type
           rdf:resource="http://purl.org/dc/dcmitype/StillImage" />
        <dc:title>Gnome Symbolic Icon Theme</dc:title>
      </cc:Work>
    </rdf:RDF>
  </metadata>
  <title
     id="title9167">Gnome Symbolic Icon Theme</title>
  <defs
     id="defs7386" />
  <g
     transform="translate(-321.0002,-447)"
     id="layer9"
     style="display:inline" />
  <g
     transform="translate(-321.0002,-447)"
     id="layer10">
    <path
       id="path3789"
       style="fill:#f1f2f2;fill-opacity:1;fill-rule:nonzero;stroke:none"
       d="m 324.15645,451 c -1.74549,0 -3.15625,1.79086 -3.15625,4 0,2.20914 1.41076,4 3.15625,4 1.74549,0 3.15625,-1.79086 3.15625,-4 0,-2.20914 -1.41076,-4 -3.15625,-4 z m -0.15625,2 h 1 v 1 h 1 v 1 h -1 v 1 h -1 v -1 h -1 v -1 h 1 z" />
    <path
       id="path3793"
       style="fill:#f1f2f2;fill-opacity:1;fill-rule:nonzero;stroke:none"
       d="m 333.84395,451 c -1.74549,0 -3.15625,1.79086 -3.15625,4 0,2.20914 1.41076,4 3.15625,4 1.74549,0 3.15625,-1.79086 3.15625,-4 0,-2.20914 -1.41076,-4 -3.15625,-4 z m -1.34375,1.5 c 0.55228,0 1,0.44772 1,1 0,0.55228 -0.44772,1 -1,1 -0.55228,0 -1,-0.44772 -1,-1 0,-0.55228 0.44772,-1 1,-1 z m 2,2 c 0.55228,0 1,0.44772 1,1 0,0.55228 -0.44772,1 -1,1 -0.55228,0 -1,-0.44772 -1,-1 0,-0.55228 0.44772,-1 1,-1 z" />
    <path
       id="rect3791"
       style="fill:#f1f2f2;fill-opacity:1;fill-rule:nonzero;stroke:none"
       d="m 324.0002,451 v 2 h 1 v 1 h 1 v 1 h -1 v 1 h -1 v 1 h 10 l -0.0926,-0.61304 c -0.29201,-0.17461 -0.62963,-0.53434 -0.62963,-0.89931 0,-0.36496 0.35614,-0.78025 0.64815,-0.95486 L 334.0002,451 Z m 8.5,1.5 c 0.55228,0 1,0.44772 1,1 0,0.55228 -0.44772,1 -1,1 -0.55228,0 -1,-0.44772 -1,-1 0,-0.55228 0.44772,-1 1,-1 z" />
  </g>
  <g
     transform="translate(-321.0002,-447)"
     id="layer11" />
  <g
     transform="translate(-321.0002,-447)"
     id="layer13" />
  <g
     transform="translate(-321.0002,-447)"
     id="layer14" />
  <g
     transform="translate(-321.0002,-447)"
     id="layer15"
     style="display:inline" />
  <g
     id="g71291"
     transform="translate(-321.0002,-447)"
     style="display:inline" />
  <g
     transform="translate(-321.0002,-447)"
     id="g4953"
     style="display:inline" />
  <g
     transform="translate(-321.0002,-447)"
     id="layer12"
     style="display:inline" />
</svg>
