<?xml version="1.0" encoding="UTF-8" standalone="no"?>
<svg
   xmlns:dc="http://purl.org/dc/elements/1.1/"
   xmlns:cc="http://creativecommons.org/ns#"
   xmlns:rdf="http://www.w3.org/1999/02/22-rdf-syntax-ns#"
   xmlns:svg="http://www.w3.org/2000/svg"
   xmlns="http://www.w3.org/2000/svg"
   width="16"
   version="1.1"
	 viewBox="-4 -4 24 24"

   id="svg7384"
   height="16">
  <metadata
     id="metadata90">
    <rdf:RDF>
      <cc:Work
         rdf:about="">
        <dc:format>image/svg+xml</dc:format>
        <dc:type
           rdf:resource="http://purl.org/dc/dcmitype/StillImage" />
        <dc:title>Gnome Symbolic Icon Theme</dc:title>
      </cc:Work>
    </rdf:RDF>
  </metadata>
  <title
     id="title9167">Gnome Symbolic Icon Theme</title>
  <defs
     id="defs7386" />
  <g
     transform="translate(-241,-447)"
     style="display:inline"
     id="layer9" />
  <g
     transform="translate(-241,-447)"
     style="display:inline"
     id="layer10">
    <path
       style="color:#000000;display:inline;overflow:visible;visibility:visible;fill:#f1f2f2;fill-opacity:1;fill-rule:nonzero;stroke:none;stroke-width:1;marker:none;enable-background:accumulate"
       id="rect8806"
       d="m 244.5002,447 c 0,0 -1.5,0 -1.5,1.5 v 9 c 0,1.5 1.5,1.5 1.5,1.5 h 1.5 v 2 c 0,0.554 0.446,1 1,1 h 4 c 0.554,0 1,-0.446 1,-1 v -2 h 1.5 c 1.5,0 1.5,-1.5 1.5,-1.5 v -9 c 0,-1.5 -1.5,-1.5 -1.5,-1.5 z m 0.5,2 h 2 v 2 h -2 z m 3,0 h 2 v 2 h -2 z m 3,0 h 2 v 2 h -2 z m -6,3 h 2 v 2 h -2 z m 3,0 h 2 v 2 h -2 z m 3,0 h 2 v 2 h -2 z m -6,3 h 2 v 2 h -2 z m 3,0 h 2 v 2 h -2 z m 3,0 h 2 v 2 h -2 z m -3,3 h 2 v 2 h -2 z" />
  </g>
  <g
     transform="translate(-241,-447)"
     id="layer11" />
  <g
     transform="translate(-241,-447)"
     style="display:inline"
     id="layer13" />
  <g
     transform="translate(-241,-447)"
     id="layer14" />
  <g
     transform="translate(-241,-447)"
     style="display:inline"
     id="layer15" />
  <g
     transform="translate(-241,-447)"
     style="display:inline"
     id="g71291" />
  <g
     transform="translate(-241,-447)"
     style="display:inline"
     id="g4953" />
  <g
     transform="translate(-241,-447)"
     style="display:inline"
     id="layer12" />
</svg>
