<?xml version="1.0" encoding="UTF-8" standalone="no"?>
<svg
   xmlns:dc="http://purl.org/dc/elements/1.1/"
   xmlns:cc="http://creativecommons.org/ns#"
   xmlns:rdf="http://www.w3.org/1999/02/22-rdf-syntax-ns#"
   xmlns:svg="http://www.w3.org/2000/svg"
   xmlns="http://www.w3.org/2000/svg"
   width="16"
   version="1.1"
	 viewBox="-4 -4 24 24"

   id="svg7384"
   height="15.981833">
  <metadata
     id="metadata90">
    <rdf:RDF>
      <cc:Work
         rdf:about="">
        <dc:format>image/svg+xml</dc:format>
        <dc:type
           rdf:resource="http://purl.org/dc/dcmitype/StillImage" />
        <dc:title>Gnome Symbolic Icon Theme</dc:title>
      </cc:Work>
    </rdf:RDF>
  </metadata>
  <title
     id="title9167">Gnome Symbolic Icon Theme</title>
  <defs
     id="defs7386" />
  <g
     transform="translate(-61.0002,-807.03638)"
     style="display:inline"
     id="layer9" />
  <g
     transform="translate(-61.0002,-807.03638)"
     id="layer10" />
  <g
     transform="translate(-61.0002,-807.03638)"
     id="layer11" />
  <g
     transform="translate(-61.0002,-807.03638)"
     id="layer13" />
  <g
     transform="translate(-61.0002,-807.03638)"
     id="layer14" />
  <g
     transform="translate(-61.0002,-807.03638)"
     style="display:inline"
     id="layer15" />
  <g
     transform="translate(-61.0002,-807.03638)"
     style="display:inline"
     id="g71291" />
  <g
     transform="translate(-61.0002,-807.03638)"
     style="display:inline"
     id="g4953" />
  <g
     transform="translate(-61.0002,-807.03638)"
     style="display:inline"
     id="layer12">
    <path
       style="color:#f1f2f2;font-style:normal;font-variant:normal;font-weight:normal;font-stretch:normal;font-size:medium;line-height:normal;font-family:'Bitstream Vera Sans';-inkscape-font-specification:'Bitstream Vera Sans';text-indent:0;text-align:start;text-decoration:none;text-decoration-line:none;letter-spacing:normal;word-spacing:normal;text-transform:none;writing-mode:lr-tb;direction:ltr;text-anchor:start;display:inline;overflow:visible;visibility:visible;fill:#f1f2f2;fill-opacity:1;stroke:none;stroke-width:2;marker:none;enable-background:accumulate"
       id="path12141"
       d="m 72.001437,819.02276 h -1.000104 c -0.256939,1e-5 -0.52852,0.10844 -0.718842,0.26103 l -1.281366,1.07023 -1.281376,-1.07023 c -0.190072,-0.15281 -0.461903,-0.26103 -0.718862,-0.26099 h -1.000104 l -1e-5,0.83531 c 0,0.25848 0.09021,0.46133 0.281332,0.62645 l 2.741452,2.53365 2.696608,-2.53365 c 0.190962,-0.16516 0.281292,-0.368 0.281292,-0.62647 v -0.83531 z" />
    <path
       style="color:#000000;font-style:normal;font-variant:normal;font-weight:normal;font-stretch:normal;font-size:medium;line-height:normal;font-family:Sans;-inkscape-font-specification:Sans;text-indent:0;text-align:start;text-decoration:none;text-decoration-line:none;letter-spacing:normal;word-spacing:normal;text-transform:none;writing-mode:lr-tb;direction:ltr;baseline-shift:baseline;text-anchor:start;display:inline;overflow:visible;visibility:visible;fill:#f1f2f2;fill-opacity:1;stroke:none;stroke-width:1.89557707;marker:none;enable-background:accumulate"
       id="path12155"
       d="m 70.804241,811.07609 a 0.93589869,1.0099261 0 0 0 0.185131,1.99773 h 4.936783 a 0.93589869,1.0099261 0 1 0 0,-1.99773 h -4.936783 a 0.93589869,1.0099261 0 0 0 -0.185131,0 z" />
    <path
       style="color:#000000;font-style:normal;font-variant:normal;font-weight:normal;font-stretch:normal;font-size:medium;line-height:normal;font-family:Sans;-inkscape-font-specification:Sans;text-indent:0;text-align:start;text-decoration:none;text-decoration-line:none;letter-spacing:normal;word-spacing:normal;text-transform:none;writing-mode:lr-tb;direction:ltr;baseline-shift:baseline;text-anchor:start;display:inline;overflow:visible;visibility:visible;fill:#f1f2f2;fill-opacity:1;stroke:none;stroke-width:1.89557707;marker:none;enable-background:accumulate"
       id="path12167"
       d="m 61.813375,811.07609 c -0.449901,0.10227 -0.78916,0.59895 -0.743395,1.08834 0.04581,0.4894 0.470284,0.9044 0.930216,0.90939 h 4.916121 c 0.535231,0.0854 1.083884,-0.42019 1.083884,-0.99887 0,-0.57867 -0.548653,-1.08427 -1.083884,-0.99886 h -4.916121 c -0.06211,-0.007 -0.124754,-0.007 -0.186821,0 z" />
    <path
       style="color:#000000;font-style:normal;font-variant:normal;font-weight:normal;font-stretch:normal;font-size:medium;line-height:normal;font-family:Sans;-inkscape-font-specification:Sans;text-indent:0;text-align:start;text-decoration:none;text-decoration-line:none;letter-spacing:normal;word-spacing:normal;text-transform:none;writing-mode:lr-tb;direction:ltr;baseline-shift:baseline;text-anchor:start;display:inline;overflow:visible;visibility:visible;fill:#f1f2f2;fill-opacity:1;stroke:none;stroke-width:2.00102353;marker:none;enable-background:new"
       id="path16654"
       d="m 67.058903,807.99999 c -0.854177,0.12953 -1.568589,0.69462 -1.906257,1.46875 -0.07101,0.16272 -0.118204,0.34541 -0.156248,0.53125 h 8.003803 c -0.0261,-0.12512 -0.05351,-0.26249 -0.09371,-0.375 -0.346459,-0.96755 -1.269294,-1.625 -2.343747,-1.625 h -3.128807 c -0.126964,0 -0.252979,-0.0185 -0.374993,0 z m -2.062505,6 c 0.235307,1.13195 1.239871,2 2.437498,2 h 3.128807 c 1.197617,0 2.202201,-0.86805 2.437498,-2 z" />
  </g>
</svg>
