<?xml version="1.0" encoding="UTF-8" standalone="no"?>
<svg
   xmlns:dc="http://purl.org/dc/elements/1.1/"
   xmlns:cc="http://creativecommons.org/ns#"
   xmlns:rdf="http://www.w3.org/1999/02/22-rdf-syntax-ns#"
   xmlns:svg="http://www.w3.org/2000/svg"
   xmlns="http://www.w3.org/2000/svg"
   width="16.000132"
   version="1.1"
	 viewBox="-4 -4 24 24"

   id="svg7384"
   height="15.999935">
  <metadata
     id="metadata90">
    <rdf:RDF>
      <cc:Work
         rdf:about="">
        <dc:format>image/svg+xml</dc:format>
        <dc:type
           rdf:resource="http://purl.org/dc/dcmitype/StillImage" />
        <dc:title>Gnome Symbolic Icon Theme</dc:title>
      </cc:Work>
    </rdf:RDF>
  </metadata>
  <title
     id="title9167">Gnome Symbolic Icon Theme</title>
  <defs
     id="defs7386" />
  <g
     transform="translate(-81.000135,-807)"
     style="display:inline"
     id="layer9" />
  <g
     transform="translate(-81.000135,-807)"
     id="layer10" />
  <g
     transform="translate(-81.000135,-807)"
     id="layer11" />
  <g
     transform="translate(-81.000135,-807)"
     id="layer13" />
  <g
     transform="translate(-81.000135,-807)"
     id="layer14" />
  <g
     transform="translate(-81.000135,-807)"
     style="display:inline"
     id="layer15" />
  <g
     transform="translate(-81.000135,-807)"
     style="display:inline"
     id="g71291" />
  <g
     transform="translate(-81.000135,-807)"
     style="display:inline"
     id="g4953" />
  <g
     transform="translate(-81.000135,-807)"
     style="display:inline"
     id="layer12">
    <path
       style="color:#f1f2f2;font-style:normal;font-variant:normal;font-weight:normal;font-stretch:normal;font-size:medium;line-height:normal;font-family:'Bitstream Vera Sans';-inkscape-font-specification:'Bitstream Vera Sans';text-indent:0;text-align:start;text-decoration:none;text-decoration-line:none;letter-spacing:normal;word-spacing:normal;text-transform:none;writing-mode:lr-tb;direction:ltr;text-anchor:start;display:inline;overflow:visible;visibility:visible;fill:#f1f2f2;fill-opacity:1;stroke:none;stroke-width:2;marker:none;enable-background:accumulate"
       id="path7325"
       d="m 92.000179,819 h -0.999993 c -0.256903,10e-6 -0.528453,0.11786 -0.718755,0.28369 l -1.281223,1.16309 -1.281234,-1.1631 C 87.52893,819.11762 87.257123,819 87.000201,819.00004 h -0.999993 l -1e-5,0.90779 c 0,0.28091 0.09021,0.50137 0.281297,0.68082 l 2.718741,2.41128 2.718704,-2.41128 c 0.190934,-0.17949 0.281258,-0.39993 0.281258,-0.68084 v -0.90778 z" />
    <path
       style="color:#000000;font-style:normal;font-variant:normal;font-weight:normal;font-stretch:normal;font-size:medium;line-height:normal;font-family:Sans;-inkscape-font-specification:Sans;text-indent:0;text-align:start;text-decoration:none;text-decoration-line:none;letter-spacing:normal;word-spacing:normal;text-transform:none;writing-mode:lr-tb;direction:ltr;baseline-shift:baseline;text-anchor:start;display:inline;overflow:visible;visibility:visible;fill:#f1f2f2;fill-opacity:1;stroke:none;stroke-width:2;marker:none;enable-background:accumulate"
       id="path7493"
       d="m 85,807 v 2 h 6 c 0.428164,0 1,0.61414 1,1 v 1 h -5 c -0.919269,0 -1.735601,0.38396 -2.25,0.96875 -0.514399,0.58479 -0.756392,1.31063 -0.75,2.03125 0.0064,0.72062 0.268927,1.45271 0.78125,2.03125 C 85.293573,816.60979 86.091722,817 87,817 h 6 1 v -1 -6 c 0,-1.63434 -1.319804,-3 -3,-3 z m 2,6 h 5 v 2 h -5 c -0.397872,0 -0.566911,-0.10979 -0.71875,-0.28125 C 86.129411,814.54729 86.002478,814.27938 86,814 c -0.0025,-0.27938 0.104672,-0.55354 0.25,-0.71875 C 86.395328,813.11604 86.577639,813 87,813 Z" />
  </g>
</svg>
