<?xml version="1.0" encoding="UTF-8" standalone="no"?>
<svg id="svg26" xmlns="http://www.w3.org/2000/svg" version="1.1" viewBox="-4 -4 24 24"><path id="path10" style="fill:#f1f2f2" d="m1.4551 1c-0.80602 0-1.4551 0.6529-1.4551 1.4629v13.537l4.0723-3.99h10.473c0.806 0 1.455-0.652 1.455-1.463v-8.0841c0-0.81-0.649-1.4629-1.455-1.4629zm4.5449 2h1v1h-1v5h1v1h-1c-1 0-1 0-1-1v-5c0-1 0-1 1-1zm2.1992 2h2.6018c0.111 0 0.199 0.0884 0.199 0.1992v0.6016c0 0.1108-0.088 0.1992-0.199 0.1992h-2.6018c-0.1108 0-0.1992-0.0884-0.1992-0.1992v-0.6016c0-0.1108 0.0884-0.1992 0.1992-0.1992zm0 2h2.6018c0.111 0 0.199 0.0884 0.199 0.1992v0.6016c0 0.1108-0.088 0.1992-0.199 0.1992h-2.6018c-0.1108 0-0.1992-0.0884-0.1992-0.1992v-0.6016c0-0.1108 0.0884-0.1992 0.1992-0.1992z"/></svg>
