<svg xmlns="http://www.w3.org/2000/svg" version="1" viewBox="-4 -4 24 24"><path d="m8.0352 0c-6.4167 0.034783-9.5694 16 0.0996 16 9.1492 0 6.3942-16.035-0.0996-16zm-0.1954 2.002a2.7582 2.2119 45 0 1 0.7422 0.0761 2.7582 2.2119 45 0 0 -0.7422 -0.0761zm1.2364 0.248a2.7582 2.2119 45 0 1 0.4726 0.2617 2.7582 2.2119 45 0 1 0.3711 0.2871 2.7582 2.2119 45 0 0 -0.3711 -0.2871 2.7582 2.2119 45 0 0 -0.4726 -0.2617zm1.0408 0.7402a2.7582 2.2119 45 0 1 0.348 0.4258 2.7582 2.2119 45 0 0 -0.348 -0.4258zm-3.9803 0.1993a2.7582 2.2119 45 0 0 -0.1152 0.4492 2.7582 2.2119 45 0 0 -0.0156 0.4824 2.7582 2.2119 45 0 1 0.0156 -0.4824 2.7582 2.2119 45 0 1 0.1152 -0.4492zm-0.1308 0.9335a2.7582 2.2119 45 0 0 0.082 0.4981 2.7582 2.2119 45 0 1 -0.082 -0.4981zm4.9061 0.2559a2.7582 2.2119 45 0 1 0.082 0.4981 2.7582 2.2119 45 0 0 -0.082 -0.4981zm0.082 0.5a2.7582 2.2119 45 0 1 -0.015 0.4824 2.7582 2.2119 45 0 1 -0.116 0.4492 2.7582 2.2119 45 0 0 0.116 -0.4492 2.7582 2.2119 45 0 0 0.015 -0.4824zm-4.4588 0.7051a2.7582 2.2119 45 0 0 0.3476 0.4258 2.7582 2.2119 45 0 1 -0.3476 -0.4258zm0.5449 0.6172a2.7582 2.2119 45 0 0 0.2793 0.2187 2.7582 2.2119 45 0 1 -0.2793 -0.2187zm0.459 0.3418a2.7582 2.2119 45 0 0 0.3847 0.207 2.7582 2.2119 45 0 1 -0.3847 -0.207zm0.9218 0.3867a2.7582 2.2119 45 0 0 0.6993 0.0683 2.7582 2.2119 45 0 1 -0.6993 -0.0683z" fill-rule="evenodd" stroke-width=".39158" fill="#f1f2f2"/></svg>
