<?xml version="1.0" encoding="UTF-8" standalone="no"?>
<svg
   xmlns:dc="http://purl.org/dc/elements/1.1/"
   xmlns:cc="http://creativecommons.org/ns#"
   xmlns:rdf="http://www.w3.org/1999/02/22-rdf-syntax-ns#"
   xmlns:svg="http://www.w3.org/2000/svg"
   xmlns="http://www.w3.org/2000/svg"
   xmlns:sodipodi="http://sodipodi.sourceforge.net/DTD/sodipodi-0.dtd"
   xmlns:inkscape="http://www.inkscape.org/namespaces/inkscape"

   version="1.1"
	 viewBox="-4 -4 24 24"

   id="svg45"
   sodipodi:docname="lightdm-gtk-greeter-settings.svg"
   inkscape:version="0.92.1 r15371">
  <metadata
     id="metadata49">
    <rdf:RDF>
      <cc:Work
         rdf:about="">
        <dc:format>image/svg+xml</dc:format>
        <dc:type
           rdf:resource="http://purl.org/dc/dcmitype/StillImage" />
        <dc:title></dc:title>
      </cc:Work>
    </rdf:RDF>
  </metadata>
  <sodipodi:namedview
     pagecolor="#ffffff"
     bordercolor="#666666"
     borderopacity="1"
     objecttolerance="10"
     gridtolerance="10"
     guidetolerance="10"
     inkscape:pageopacity="0"
     inkscape:pageshadow="2"
     inkscape:window-width="1790"
     inkscape:window-height="879"
     id="namedview47"
     showgrid="true"
     inkscape:zoom="22.356819"
     inkscape:cx="6.4719208"
     inkscape:cy="12.672275"
     inkscape:window-x="0"
     inkscape:window-y="22"
     inkscape:window-maximized="0"
     inkscape:current-layer="svg45">
    <inkscape:grid
       type="xygrid"
       id="grid4527" />
  </sodipodi:namedview>
  <defs
     id="defs17" />
  <path
     d="m 5,11 v 3 H 4 c -1,0 -1,0 -1,1 0,1 0,1 1.0103692,1 H 12 c 1,0 1,0 1,-1 0,-1 0,-1 -1,-1 h -1 v -3 z"
     id="path19"
     style="opacity:0.96499999;fill:#f1f2f2"
     inkscape:connector-curvature="0"
     sodipodi:nodetypes="ccccccccccc" />
  <path
     style="fill:#f1f2f2"
     d="M 0.80078125,1 C 0.35758124,1 0,1.3575812 0,1.8007812 V 12.199219 C 0,12.642419 0.35758124,13 0.80078125,13 H 15.199219 C 15.642419,13 16,12.642419 16,12.199219 V 1.8007812 C 16,1.3575812 15.642419,1 15.199219,1 Z M 2,3 h 12 v 7 H 2 Z"
     id="rect23"
     inkscape:connector-curvature="0" />
  <g
     id="g43"
     style="fill:#f1f2f2;fill-rule:evenodd"
     transform="translate(0,1)">
    <path
       d="M 5,5 H 6 V 6 H 5 Z M 7,5 H 8 V 6 H 7 Z m 2,0 h 1 V 6 H 9 Z"
       id="path41"
       style="fill:#f1f2f2"
       inkscape:connector-curvature="0" />
  </g>
</svg>
