<?xml version="1.0" encoding="UTF-8" standalone="no"?>
<svg
   xmlns:dc="http://purl.org/dc/elements/1.1/"
   xmlns:cc="http://creativecommons.org/ns#"
   xmlns:rdf="http://www.w3.org/1999/02/22-rdf-syntax-ns#"
   xmlns:svg="http://www.w3.org/2000/svg"
   xmlns="http://www.w3.org/2000/svg"
   width="16"
   height="16"
   version="1.1"
	 viewBox="-4 -4 24 24"

   id="svg7384">
  <metadata
     id="metadata90">
    <rdf:RDF>
      <cc:Work
         rdf:about="">
        <dc:format>image/svg+xml</dc:format>
        <dc:type
           rdf:resource="http://purl.org/dc/dcmitype/StillImage" />
        <dc:title>Gnome Symbolic Icon Theme</dc:title>
      </cc:Work>
    </rdf:RDF>
  </metadata>
  <title
     id="title9167">Gnome Symbolic Icon Theme</title>
  <defs
     id="defs7386" />
  <g
     style="display:inline"
     id="layer9"
     transform="translate(-100.99995,-297)">
    <path
       style="color:#000000;font-style:normal;font-variant:normal;font-weight:normal;font-stretch:normal;font-size:medium;line-height:normal;font-family:'Bitstream Vera Sans';-inkscape-font-specification:'Bitstream Vera Sans';text-indent:0;text-align:start;text-decoration:none;text-decoration-line:none;letter-spacing:normal;word-spacing:normal;text-transform:none;writing-mode:lr-tb;direction:ltr;text-anchor:start;display:inline;overflow:visible;visibility:visible;fill:#f1f2f2;fill-opacity:1;stroke:none;stroke-width:15.34865284;marker:none;enable-background:accumulate"
       id="path35480"
       d="m 106.98492,302.01596 a 0.99827605,1.0019266 0 0 1 -0.98363,-1.01579 c 0,-2.19827 1.7971,-4.00194 3.98737,-4.00194 2.19027,0 3.98736,1.80367 3.98736,4.00194 a 0.99827605,1.0019266 0 1 1 -1.99571,0 c 0,-1.11542 -0.88029,-1.99893 -1.99165,-1.99893 -1.11136,0 -1.99165,0.88351 -1.99165,1.99893 a 0.99827605,1.0019266 0 0 1 -1.01209,1.01579 z" />
    <path
       style="color:#000000;font-style:normal;font-variant:normal;font-weight:normal;font-stretch:normal;font-size:medium;line-height:normal;font-family:'Bitstream Vera Sans';-inkscape-font-specification:'Bitstream Vera Sans';text-indent:0;text-align:start;text-decoration:none;text-decoration-line:none;letter-spacing:normal;word-spacing:normal;text-transform:none;writing-mode:lr-tb;direction:ltr;text-anchor:start;display:inline;overflow:visible;visibility:visible;fill:#f1f2f2;fill-opacity:1;stroke:none;stroke-width:30.64129829;marker:none;enable-background:accumulate"
       id="path35482"
       d="m 108.4998,309.0008 c -1.36887,0 -2.50071,-1.13184 -2.50071,-2.50071 a 1.00049,1.0004893 0 1 1 2.00098,0 c 0,0.28799 0.21174,0.49973 0.49973,0.49973 0.28799,0 0.49974,-0.21174 0.49974,-0.49973 a 1.0004883,1.0004876 0 1 1 2.00097,0 c 0,1.36887 -1.13184,2.50071 -2.50071,2.50071 z" />
    <path
       style="color:#000000;font-style:normal;font-variant:normal;font-weight:normal;font-stretch:normal;font-size:medium;line-height:normal;font-family:'Bitstream Vera Sans';-inkscape-font-specification:'Bitstream Vera Sans';text-indent:0;text-align:start;text-decoration:none;text-decoration-line:none;letter-spacing:normal;word-spacing:normal;text-transform:none;writing-mode:lr-tb;direction:ltr;text-anchor:start;display:inline;overflow:visible;visibility:visible;fill:#f1f2f2;fill-opacity:1;fill-rule:nonzero;stroke:none;stroke-width:2;marker:none;enable-background:new"
       id="path35484"
       d="M 109.78125,302 A 1.0001,1.0001 0 0 0 109,303 v 3.46875 a 1.0001,1.0001 0 1 0 2,0 V 303 a 1.0001,1.0001 0 0 0 -1.21875,-1 z" />
    <path
       style="color:#000000;font-style:normal;font-variant:normal;font-weight:normal;font-stretch:normal;font-size:medium;line-height:normal;font-family:'Bitstream Vera Sans';-inkscape-font-specification:'Bitstream Vera Sans';text-indent:0;text-align:start;text-decoration:none;text-decoration-line:none;letter-spacing:normal;word-spacing:normal;text-transform:none;writing-mode:lr-tb;direction:ltr;text-anchor:start;display:inline;overflow:visible;visibility:visible;fill:#f1f2f2;fill-opacity:1;fill-rule:nonzero;stroke:none;stroke-width:2;marker:none;enable-background:new"
       id="path35486"
       d="M 112.78125,300 A 1.0001,1.0001 0 0 0 112,301 v 6.8125 a 1.0001,1.0001 0 1 0 2,0 V 301 a 1.0001,1.0001 0 0 0 -1.21875,-1 z" />
    <path
       style="color:#000000;font-style:normal;font-variant:normal;font-weight:normal;font-stretch:normal;font-size:medium;line-height:normal;font-family:'Bitstream Vera Sans';-inkscape-font-specification:'Bitstream Vera Sans';text-indent:0;text-align:start;text-decoration:none;text-decoration-line:none;letter-spacing:normal;word-spacing:normal;text-transform:none;writing-mode:lr-tb;direction:ltr;text-anchor:start;display:inline;overflow:visible;visibility:visible;fill:#f1f2f2;fill-opacity:1;fill-rule:nonzero;stroke:none;stroke-width:2;marker:none;enable-background:new"
       id="path35488"
       d="M 106.78125,300 A 1.0001,1.0001 0 0 0 106,301 v 5.40625 a 1.0001,1.0001 0 1 0 2,0 V 301 a 1.0001,1.0001 0 0 0 -1.21875,-1 z" />
    <path
       style="color:#000000;font-style:normal;font-variant:normal;font-weight:normal;font-stretch:normal;font-size:medium;line-height:normal;font-family:'Bitstream Vera Sans';-inkscape-font-specification:'Bitstream Vera Sans';text-indent:0;text-align:start;text-decoration:none;text-decoration-line:none;letter-spacing:normal;word-spacing:normal;text-transform:none;writing-mode:lr-tb;direction:ltr;text-anchor:start;display:inline;overflow:visible;visibility:visible;fill:#f1f2f2;fill-opacity:1;fill-rule:nonzero;stroke:none;stroke-width:2;marker:none;enable-background:new"
       id="path35490"
       d="M 103.78125,301 A 1.0001,1.0001 0 0 0 103,302 v 6 a 1.0001,1.0001 0 1 0 2,0 v -6 a 1.0001,1.0001 0 0 0 -1.21875,-1 z" />
    <path
       style="color:#000000;font-style:normal;font-variant:normal;font-weight:normal;font-stretch:normal;font-size:medium;line-height:normal;font-family:'Bitstream Vera Sans';-inkscape-font-specification:'Bitstream Vera Sans';text-indent:0;text-align:start;text-decoration:none;text-decoration-line:none;letter-spacing:normal;word-spacing:normal;text-transform:none;writing-mode:lr-tb;direction:ltr;text-anchor:start;display:inline;overflow:visible;visibility:visible;fill:#f1f2f2;fill-opacity:1;stroke:none;stroke-width:2;marker:none;enable-background:new"
       id="path35494"
       d="m 112.84375,307 a 1.0001,1.0001 0 0 0 -0.65625,0.40625 L 109.5,311 h -2.03125 l -2.6875,-3.53125 a 1.0001,1.0001 0 1 0 -1.5625,1.1875 l 3,3.9375 A 1.0001,1.0001 0 0 0 107,313 h 3 a 1.0001,1.0001 0 0 0 0.8125,-0.40625 l 3,-4 A 1.0001,1.0001 0 0 0 112.84375,307 Z" />
  </g>
  <g
     id="layer10"
     transform="translate(-100.99995,-297)" />
  <g
     id="layer11"
     transform="translate(-100.99995,-297)" />
  <g
     id="layer12"
     transform="translate(-100.99995,-297)" />
  <g
     id="layer13"
     transform="translate(-100.99995,-297)" />
  <g
     id="layer14"
     transform="translate(-100.99995,-297)" />
  <g
     style="display:inline"
     id="layer15"
     transform="translate(-100.99995,-297)" />
</svg>
