<?xml version="1.0" encoding="UTF-8" standalone="no"?>
<svg
   xmlns:dc="http://purl.org/dc/elements/1.1/"
   xmlns:cc="http://creativecommons.org/ns#"
   xmlns:rdf="http://www.w3.org/1999/02/22-rdf-syntax-ns#"
   xmlns:svg="http://www.w3.org/2000/svg"
   xmlns="http://www.w3.org/2000/svg"
   version="1.1"
	 viewBox="-4 -4 24 24"

   width="16"
   height="16"
   id="svg7384">
  <metadata
     id="metadata90">
    <rdf:RDF>
      <cc:Work
         rdf:about="">
        <dc:format>image/svg+xml</dc:format>
        <dc:type
           rdf:resource="http://purl.org/dc/dcmitype/StillImage" />
        <dc:title>Gnome Symbolic Icon Theme</dc:title>
      </cc:Work>
    </rdf:RDF>
  </metadata>
  <title
     id="title9167">Gnome Symbolic Icon Theme</title>
  <defs
     id="defs7386" />
  <g
     style="display:inline"
     transform="translate(-81.00015,-687)"
     id="layer9" />
  <g
     transform="translate(-81.00015,-687)"
     id="layer10" />
  <g
     transform="translate(-81.00015,-687)"
     id="layer11" />
  <g
     transform="translate(-81.00015,-687)"
     id="layer13" />
  <g
     transform="translate(-81.00015,-687)"
     id="layer14" />
  <g
     style="display:inline"
     transform="translate(-81.00015,-687)"
     id="layer15" />
  <g
     style="display:inline"
     id="g71291"
     transform="translate(-81.00015,-687)" />
  <g
     style="display:inline"
     transform="translate(-81.00015,-687)"
     id="g4953" />
  <g
     style="display:inline"
     transform="translate(-81.00015,-687)"
     id="layer12">
    <path
       style="color:#000000;font-style:normal;font-variant:normal;font-weight:normal;font-stretch:normal;font-size:medium;line-height:normal;font-family:'Bitstream Vera Sans';-inkscape-font-specification:'Bitstream Vera Sans';text-indent:0;text-align:start;text-decoration:none;text-decoration-line:none;letter-spacing:normal;word-spacing:normal;text-transform:none;writing-mode:lr-tb;direction:ltr;text-anchor:start;display:inline;overflow:visible;visibility:visible;fill:#f1f2f2;fill-opacity:1;stroke:none;stroke-width:2;marker:none;enable-background:accumulate"
       id="path3613-6-6-9"
       d="m 90.00016,694.00001 -10e-6,-1 c -3e-5,-0.26531 -0.0931,-0.53058 -0.28124,-0.71876 L 86.7189,689.28126 86.43765,689 h -0.87499 l -0.28126,0.28126 -2.99999,3 c -0.18821,0.18818 -0.28121,0.45347 -0.28121,0.71876 l -1e-5,1 h 1 c 0.26531,4e-5 0.53059,-0.0931 0.71877,-0.28121 l 2.28124,-2.28126 2.28125,2.28125 c 0.18817,0.18815 0.45345,0.28125 0.71875,0.28125 h 1 z" />
    <path
       style="color:#000000;font-style:normal;font-variant:normal;font-weight:normal;font-stretch:normal;font-size:medium;line-height:normal;font-family:Sans;-inkscape-font-specification:Sans;text-indent:0;text-align:start;text-decoration:none;text-decoration-line:none;letter-spacing:normal;word-spacing:normal;text-transform:none;writing-mode:lr-tb;direction:ltr;baseline-shift:baseline;text-anchor:start;display:inline;overflow:visible;visibility:visible;fill:#f1f2f2;fill-opacity:1;stroke:none;stroke-width:2;marker:none;enable-background:accumulate"
       id="path35770-1"
       d="m 85,691 v 7 h 2 v -7 z" />
    <path
       style="color:#000000;font-style:normal;font-variant:normal;font-weight:normal;font-stretch:normal;font-size:medium;line-height:normal;font-family:'Bitstream Vera Sans';-inkscape-font-specification:'Bitstream Vera Sans';text-indent:0;text-align:start;text-decoration:none;text-decoration-line:none;letter-spacing:normal;word-spacing:normal;text-transform:none;writing-mode:lr-tb;direction:ltr;text-anchor:start;display:inline;overflow:visible;visibility:visible;fill:#f1f2f2;fill-opacity:1;stroke:none;stroke-width:2;marker:none;enable-background:accumulate"
       id="path3613-6-6-9-5"
       d="m 96.00016,694.99999 -10e-6,1 c -3e-5,0.26531 -0.0931,0.53058 -0.28124,0.71876 L 92.7189,699.71874 92.43765,700 h -0.87499 l -0.28126,-0.28126 -2.99999,-3 c -0.18821,-0.18818 -0.28121,-0.45347 -0.28121,-0.71876 l -1e-5,-1 h 1 c 0.26531,-4e-5 0.53059,0.0931 0.71877,0.28121 l 2.28124,2.28126 2.28125,-2.28125 c 0.18817,-0.18815 0.45345,-0.28125 0.71875,-0.28125 h 1 z" />
    <path
       style="color:#000000;font-style:normal;font-variant:normal;font-weight:normal;font-stretch:normal;font-size:medium;line-height:normal;font-family:Sans;-inkscape-font-specification:Sans;text-indent:0;text-align:start;text-decoration:none;text-decoration-line:none;letter-spacing:normal;word-spacing:normal;text-transform:none;writing-mode:lr-tb;direction:ltr;baseline-shift:baseline;text-anchor:start;display:inline;overflow:visible;visibility:visible;fill:#f1f2f2;fill-opacity:1;stroke:none;stroke-width:2;marker:none;enable-background:accumulate"
       id="path35770-1-5"
       d="m 91,691 v 7 h 2 v -7 z" />
  </g>
</svg>
