<?xml version="1.0" encoding="UTF-8" standalone="no"?>
<svg
   xmlns:dc="http://purl.org/dc/elements/1.1/"
   xmlns:cc="http://creativecommons.org/ns#"
   xmlns:rdf="http://www.w3.org/1999/02/22-rdf-syntax-ns#"
   xmlns:svg="http://www.w3.org/2000/svg"
   xmlns="http://www.w3.org/2000/svg"
   width="16"
   height="16"
   version="1.1"
	 viewBox="-4 -4 24 24"

   id="svg7384">
  <metadata
     id="metadata90">
    <rdf:RDF>
      <cc:Work
         rdf:about="">
        <dc:format>image/svg+xml</dc:format>
        <dc:type
           rdf:resource="http://purl.org/dc/dcmitype/StillImage" />
        <dc:title>Gnome Symbolic Icon Theme</dc:title>
      </cc:Work>
    </rdf:RDF>
  </metadata>
  <title
     id="title9167">Gnome Symbolic Icon Theme</title>
  <defs
     id="defs7386" />
  <g
     style="display:inline"
     id="layer9"
     transform="translate(-80.99995,-297)">
    <g
       style="opacity:0.25"
       id="g35737"
       transform="translate(61.0002,1.000001)" />
    <path
       style="color:#000000;font-style:normal;font-variant:normal;font-weight:normal;font-stretch:normal;font-size:medium;line-height:normal;font-family:'Bitstream Vera Sans';-inkscape-font-specification:'Bitstream Vera Sans';text-indent:0;text-align:start;text-decoration:none;text-decoration-line:none;letter-spacing:normal;word-spacing:normal;text-transform:none;writing-mode:lr-tb;direction:ltr;text-anchor:start;display:inline;overflow:visible;visibility:visible;fill:#f1f2f2;fill-opacity:1;stroke:none;stroke-width:2;marker:none;enable-background:accumulate"
       id="path3613-6-6"
       d="M 89.000002,301.99999 87.999999,302 c -0.265308,3e-5 -0.530582,0.0931 -0.718754,0.28124 l -2.999999,3.00001 -0.281254,0.28125 2e-6,0.87499 0.281255,0.28126 3.000003,2.99999 c 0.188182,0.18821 0.45347,0.28121 0.718754,0.28121 l 1.000001,10e-6 3e-6,-1 c 3.8e-5,-0.26531 -0.0931,-0.53059 -0.281208,-0.71877 l -2.281257,-2.28124 2.281247,-2.28125 c 0.18815,-0.18817 0.281244,-0.45345 0.281249,-0.71875 l 3e-6,-1 z" />
    <path
       style="color:#000000;font-style:normal;font-variant:normal;font-weight:normal;font-stretch:normal;font-size:medium;line-height:normal;font-family:Sans;-inkscape-font-specification:Sans;text-indent:0;text-align:start;text-decoration:none;text-decoration-line:none;letter-spacing:normal;word-spacing:normal;text-transform:none;writing-mode:lr-tb;direction:ltr;baseline-shift:baseline;text-anchor:start;display:inline;overflow:visible;visibility:visible;fill:#f1f2f2;fill-opacity:1;stroke:none;stroke-width:2;marker:none;enable-background:accumulate"
       id="path35770"
       d="m 93,301 v 2.5 c 0,0.84027 -0.65973,1.5 -1.5,1.5 H 86 v 2 h 5.5 c 1.921152,0 3.5,-1.57885 3.5,-3.5 V 301 Z" />
  </g>
  <g
     id="layer10"
     transform="translate(-80.99995,-297)" />
  <g
     id="layer11"
     transform="translate(-80.99995,-297)" />
  <g
     id="layer12"
     transform="translate(-80.99995,-297)" />
  <g
     id="layer13"
     transform="translate(-80.99995,-297)" />
  <g
     id="layer14"
     transform="translate(-80.99995,-297)" />
  <g
     style="display:inline"
     id="layer15"
     transform="translate(-80.99995,-297)" />
</svg>
