<?xml version="1.0" encoding="UTF-8" standalone="no"?>
<svg
   xmlns:dc="http://purl.org/dc/elements/1.1/"
   xmlns:cc="http://creativecommons.org/ns#"
   xmlns:rdf="http://www.w3.org/1999/02/22-rdf-syntax-ns#"
   xmlns:svg="http://www.w3.org/2000/svg"
   xmlns="http://www.w3.org/2000/svg"
   width="16"
   height="16"
   version="1.1"
	 viewBox="-4 -4 24 24"

   id="svg7384">
  <metadata
     id="metadata90">
    <rdf:RDF>
      <cc:Work
         rdf:about="">
        <dc:format>image/svg+xml</dc:format>
        <dc:type
           rdf:resource="http://purl.org/dc/dcmitype/StillImage" />
        <dc:title>Gnome Symbolic Icon Theme</dc:title>
      </cc:Work>
    </rdf:RDF>
  </metadata>
  <title
     id="title9167">Gnome Symbolic Icon Theme</title>
  <defs
     id="defs7386" />
  <g
     style="display:inline"
     id="layer9"
     transform="translate(-40.99995,-297)">
    <path
       style="color:#000000;font-style:normal;font-variant:normal;font-weight:normal;font-stretch:normal;font-size:medium;line-height:normal;font-family:'Bitstream Vera Sans';-inkscape-font-specification:'Bitstream Vera Sans';text-indent:0;text-align:start;text-decoration:none;text-decoration-line:none;letter-spacing:normal;word-spacing:normal;text-transform:none;writing-mode:lr-tb;direction:ltr;text-anchor:start;display:inline;overflow:visible;visibility:visible;fill:#f1f2f2;fill-opacity:1;stroke:none;stroke-width:1.99999976;marker:none;enable-background:accumulate"
       id="path35600"
       d="m 43.78125,301 a 1.0000999,1.0000999 0 0 0 -0.40625,1.78125 l 5,4 0.625,0.5 0.625,-0.5 5,-4 a 1.0004882,1.0004882 0 1 0 -1.25,-1.5625 l -4.375,3.5 -4.375,-3.5 A 1.0000999,1.0000999 0 0 0 43.78125,301 Z" />
    <path
       style="color:#000000;font-style:normal;font-variant:normal;font-weight:normal;font-stretch:normal;font-size:medium;line-height:normal;font-family:'Bitstream Vera Sans';-inkscape-font-specification:'Bitstream Vera Sans';text-indent:0;text-align:start;text-decoration:none;text-decoration-line:none;letter-spacing:normal;word-spacing:normal;text-transform:none;writing-mode:lr-tb;direction:ltr;text-anchor:start;display:inline;overflow:visible;visibility:visible;fill:#f1f2f2;fill-opacity:1;stroke:none;stroke-width:2;marker:none;enable-background:accumulate"
       id="rect35604"
       d="M 42.90625,300 A 1.0001,1.0001 0 0 0 42,301 v 9 a 1.0001,1.0001 0 0 0 1,1 h 12 a 1.0001,1.0001 0 0 0 1,-1 v -9 a 1.0001,1.0001 0 0 0 -1,-1 H 43 a 1.0001,1.0001 0 0 0 -0.09375,0 z M 44,302 h 10 v 7 H 44 Z" />
  </g>
  <g
     id="layer10"
     transform="translate(-40.99995,-297)" />
  <g
     id="layer11"
     transform="translate(-40.99995,-297)" />
  <g
     id="layer12"
     transform="translate(-40.99995,-297)" />
  <g
     id="layer13"
     transform="translate(-40.99995,-297)" />
  <g
     id="layer14"
     transform="translate(-40.99995,-297)" />
  <g
     style="display:inline"
     id="layer15"
     transform="translate(-40.99995,-297)" />
</svg>
