<?xml version="1.0" encoding="UTF-8" standalone="no"?>
<svg
   xmlns:dc="http://purl.org/dc/elements/1.1/"
   xmlns:cc="http://creativecommons.org/ns#"
   xmlns:rdf="http://www.w3.org/1999/02/22-rdf-syntax-ns#"
   xmlns:svg="http://www.w3.org/2000/svg"
   xmlns="http://www.w3.org/2000/svg"
   width="16"
   version="1.1"
	 viewBox="-4 -4 24 24"

   id="svg7384"
   height="16.001099">
  <metadata
     id="metadata90">
    <rdf:RDF>
      <cc:Work
         rdf:about="">
        <dc:format>image/svg+xml</dc:format>
        <dc:type
           rdf:resource="http://purl.org/dc/dcmitype/StillImage" />
        <dc:title>Gnome Symbolic Icon Theme</dc:title>
      </cc:Work>
    </rdf:RDF>
  </metadata>
  <title
     id="title9167">Gnome Symbolic Icon Theme</title>
  <defs
     id="defs7386" />
  <g
     transform="translate(-60.99995,-296.9989)"
     style="display:inline"
     id="layer9">
    <path
       style="color:#000000;font-style:normal;font-variant:normal;font-weight:normal;font-stretch:normal;font-size:medium;line-height:normal;font-family:Sans;-inkscape-font-specification:Sans;text-indent:0;text-align:start;text-decoration:none;text-decoration-line:none;letter-spacing:normal;word-spacing:normal;text-transform:none;writing-mode:lr-tb;direction:ltr;baseline-shift:baseline;text-anchor:start;display:inline;overflow:visible;visibility:visible;opacity:0.5;fill:#f1f2f2;fill-opacity:1;stroke:none;stroke-width:1;marker:none;enable-background:accumulate"
       id="path35631"
       d="m 68.8752,297 a 1.0001,1.0001 0 0 0 -0.5,0.25 l -4.90625,4 a 1.0001,1.0001 0 0 0 -0.0625,0.0312 c 0,0 -0.32587,0.29728 -0.65625,0.75 -0.22334,0.30605 -0.3527,0.8316 -0.5,1.3125 a 1.0001,1.0001 0 0 0 -0.03125,0.0312 1.0001,1.0001 0 0 0 -0.21875,0.5625 c -5.1e-4,0.0118 3.6e-4,0.0195 0,0.0312 a 1.0001,1.0001 0 0 0 0,0.0312 1.0001,1.0001 0 0 0 0,0.15625 v 7.84375 a 1.0001,1.0001 0 0 0 1,1 h 12 a 1.0001,1.0001 0 0 0 1,-1 v -7.84375 a 1.0001,1.0001 0 0 0 0,-0.15625 1.0001,1.0001 0 0 0 -0.21875,-0.65625 1.0001,1.0001 0 0 0 -0.03125,-0.0312 c -0.32774,-1.18787 -1.125,-2 -1.125,-2 a 1.0001,1.0001 0 0 0 -0.0312,-0.0312 L 69.6252,297.25 a 1.0001,1.0001 0 0 0 -0.65625,-0.25 1.0001,1.0001 0 0 0 -0.0937,0 z m 0.125,2.28125 4.3125,3.53125 0.0312,0.0312 c 0.021,0.0255 0.18032,0.24952 0.34375,0.5 l -4.68745,3.53125 -4.6875,-3.53125 c 0.0259,-0.0394 0.0349,-0.0872 0.0625,-0.125 0.1908,-0.26146 0.31874,-0.41421 0.34375,-0.4375 L 64.7502,302.75 Z m -5,5.09375 4.6875,3.53125 0.3125,0.21875 0.3125,-0.21875 4.6875,-3.53125 V 311 h -10 z" />
  </g>
  <g
     transform="translate(-60.99995,-296.9989)"
     id="layer10" />
  <g
     transform="translate(-60.99995,-296.9989)"
     id="layer11" />
  <g
     transform="translate(-60.99995,-296.9989)"
     id="layer13" />
  <g
     transform="translate(-60.99995,-296.9989)"
     id="layer14" />
  <g
     transform="translate(-60.99995,-296.9989)"
     style="display:inline"
     id="layer15" />
  <g
     transform="translate(-60.99995,-296.9989)"
     style="display:inline"
     id="g71291" />
  <g
     transform="translate(-60.99995,-296.9989)"
     style="display:inline"
     id="g4953" />
  <g
     transform="translate(-60.99995,-296.9989)"
     style="display:inline"
     id="layer12" />
</svg>
