<svg xmlns="http://www.w3.org/2000/svg" version="1.1" viewBox="-4 -4 24 24"><g fill="#f1f2f2"><path style="text-decoration-line:none;text-transform:none;text-indent:0" d="m5.0078 1.8242a1 1 0 0 0 -0.168 0.0137 1 1 0 0 0 -0.3476 0.1328 6.956 6.956 0 0 0 -2.5449 2.5176c-1.94 3.33-0.8115 7.6497 2.5175 9.5897 1.4193 0.827 3.0177 1.092 4.5352 0.871v-2.031a4.973 4.973 0 0 1 -3.5176 -0.58 4.982 4.982 0 0 1 -1.8203 -6.8048l0.0274-0.0273a5.041 5.041 0 0 1 1.8203 -1.8204 1 1 0 0 0 -0.502 -1.8613zm6.0472 0.0078a1.0088 1.0088 0 0 0 -0.537 1.8809 4.975 4.975 0 0 1 2.062 6.2871h2.135c0.88-3.0171-0.352-6.3813-3.18-8.0293a1.0088 1.0088 0 0 0 -0.48 -0.1387z"/><path style="text-decoration-line:none;text-transform:none;text-indent:0" font-family="Sans" d="m10.98 7.806a0.853 1 0 0 0 -0.853 -0.782h-4.262a0.853 1 0 1 0 0 2h4.262a0.853 1 0 0 0 0.852 -1.218z" overflow="visible" font-weight="400"/><path style="text-decoration-line:none;text-transform:none;text-indent:0" d="m7.7734 1.0273c-1.1308 0.0335-2.2679 0.3391-3.3086 0.9454-3.329 1.94-4.4575 6.2598-2.5175 9.5893a6.956 6.956 0 0 0 2.5449 2.518 1 1 0 0 0 0.3476 0.135 1 1 0 0 0 0.67 -1.85 5.041 5.041 0 0 1 -1.8203 -1.82l-0.0274-0.027a4.982 4.982 0 0 1 1.8203 -6.8032 4.973 4.973 0 0 1 6.8286 1.795 4.975 4.975 0 0 1 0.277 4.4902h2.121c0.524-1.7898 0.35-3.7823-0.656-5.5098-1.333-2.2893-3.792-3.5365-6.2796-3.4629z"/></g><path style="color:#f1f2f2" d="m11 11h1.375l1.125 1.094 1.093-1.094h1.407v1.469l-1.094 1.062 1.094 1.063v1.406h-1.438l-1.062-1.063-1.063 1.063h-1.437v-1.406l1.062-1.063-1.062-1.061z" overflow="visible" fill="#c00"/></svg>
