<?xml version="1.0" encoding="UTF-8" standalone="no"?>
<svg
   xmlns:dc="http://purl.org/dc/elements/1.1/"
   xmlns:cc="http://creativecommons.org/ns#"
   xmlns:rdf="http://www.w3.org/1999/02/22-rdf-syntax-ns#"
   xmlns:svg="http://www.w3.org/2000/svg"
   xmlns="http://www.w3.org/2000/svg"
   version="1.1"
	 viewBox="-4 -4 24 24"

   height="16"
   id="svg7384"
   width="16">
  <metadata
     id="metadata90">
    <rdf:RDF>
      <cc:Work
         rdf:about="">
        <dc:format>image/svg+xml</dc:format>
        <dc:type
           rdf:resource="http://purl.org/dc/dcmitype/StillImage" />
        <dc:title>Gnome Symbolic Icon Theme</dc:title>
      </cc:Work>
    </rdf:RDF>
  </metadata>
  <title
     id="title9167">Gnome Symbolic Icon Theme</title>
  <defs
     id="defs7386" />
  <g
     id="layer9"
     transform="translate(-60.999948,-277)"
     style="display:inline">
    <path
       d="m 62,280 v 2 h 3 c 0.571297,0 1,0.4287 1,1 v 4 c 0,1.6447 1.355297,3 3,3 h 6 v -2 h -6 c -0.571297,0 -1,-0.4287 -1,-1 v -4 c 0,-1.6447 -1.355297,-3 -3,-3 z"
       id="path4544"
       style="color:#f1f2f2;font-style:normal;font-variant:normal;font-weight:normal;font-stretch:normal;font-size:medium;line-height:normal;font-family:Sans;-inkscape-font-specification:Sans;text-indent:0;text-align:start;text-decoration:none;text-decoration-line:none;letter-spacing:normal;word-spacing:normal;text-transform:none;writing-mode:lr-tb;direction:ltr;baseline-shift:baseline;text-anchor:start;display:inline;overflow:visible;visibility:visible;fill:#f1f2f2;fill-opacity:1;stroke:none;stroke-width:2;marker:none;enable-background:accumulate" />
    <path
       d="m 72.78125,286 a 1.0001,1.0001 0 0 0 -0.5,1.71875 L 73.5625,289 l -1.28125,1.28125 a 1.016466,1.016466 0 1 0 1.4375,1.4375 l 2,-2 0.6875,-0.71875 -0.6875,-0.71875 -2,-2 A 1.0001,1.0001 0 0 0 72.78125,286 Z"
       id="rect3217-6-2"
       style="color:#f1f2f2;font-style:normal;font-variant:normal;font-weight:normal;font-stretch:normal;font-size:medium;line-height:normal;font-family:Sans;-inkscape-font-specification:Sans;text-indent:0;text-align:start;text-decoration:none;text-decoration-line:none;letter-spacing:normal;word-spacing:normal;text-transform:none;writing-mode:lr-tb;direction:ltr;baseline-shift:baseline;text-anchor:start;display:inline;overflow:visible;visibility:visible;fill:#f1f2f2;fill-opacity:1;stroke:none;stroke-width:2;marker:none;enable-background:accumulate" />
    <path
       d="m 72.78125,278 a 1.0001,1.0001 0 0 0 -0.5,1.71875 L 73.5625,281 l -1.28125,1.28125 a 1.016466,1.016466 0 1 0 1.4375,1.4375 l 2,-2 0.6875,-0.71875 -0.6875,-0.71875 -2,-2 A 1.0001,1.0001 0 0 0 72.78125,278 Z"
       id="rect3217-6-2-2"
       style="color:#f1f2f2;font-style:normal;font-variant:normal;font-weight:normal;font-stretch:normal;font-size:medium;line-height:normal;font-family:Sans;-inkscape-font-specification:Sans;text-indent:0;text-align:start;text-decoration:none;text-decoration-line:none;letter-spacing:normal;word-spacing:normal;text-transform:none;writing-mode:lr-tb;direction:ltr;baseline-shift:baseline;text-anchor:start;display:inline;overflow:visible;visibility:visible;fill:#f1f2f2;fill-opacity:1;stroke:none;stroke-width:2;marker:none;enable-background:accumulate" />
    <path
       d="m 68.99995,280 c -0.229573,0 -0.440853,0.0438 -0.65625,0.0937 0.481303,0.5511 0.861254,1.17761 1.03125,1.90625 h 5.625 v -2 h -6 z m -7,8 v 2 h 3 c 0.229573,0 0.440853,-0.0438 0.65625,-0.0937 -0.481303,-0.55115 -0.861254,-1.17766 -1.03125,-1.9063 z"
       id="path4544-1"
       style="color:#f1f2f2;font-style:normal;font-variant:normal;font-weight:normal;font-stretch:normal;font-size:medium;line-height:normal;font-family:'Andale Mono';text-indent:0pt;text-align:start;text-decoration:none;text-decoration-line:none;letter-spacing:normal;word-spacing:normal;text-transform:none;direction:ltr;text-anchor:start;display:inline;overflow:visible;visibility:visible;fill:#f1f2f2;fill-opacity:1;stroke:none;stroke-width:2;marker:none" />
    <path
       id="rect4723-9"
       d="m 72,286 h 1 v 1 h -1 z"
       style="color:#000000;display:inline;overflow:visible;visibility:visible;fill:#f1f2f2;fill-opacity:1;fill-rule:nonzero;stroke:none;stroke-width:2;marker:none;enable-background:accumulate" />
    <path
       id="rect4723-0-7"
       d="m 72,291 h 1 v 1 h -1 z"
       style="color:#000000;display:inline;overflow:visible;visibility:visible;fill:#f1f2f2;fill-opacity:1;fill-rule:nonzero;stroke:none;stroke-width:2;marker:none;enable-background:accumulate" />
    <path
       id="rect4723-9-6"
       d="m 72,278 h 1 v 1 h -1 z"
       style="color:#000000;display:inline;overflow:visible;visibility:visible;fill:#f1f2f2;fill-opacity:1;fill-rule:nonzero;stroke:none;stroke-width:2;marker:none;enable-background:accumulate" />
    <path
       id="rect4723-0-7-8"
       d="m 72,283 h 1 v 1 h -1 z"
       style="color:#000000;display:inline;overflow:visible;visibility:visible;fill:#f1f2f2;fill-opacity:1;fill-rule:nonzero;stroke:none;stroke-width:2;marker:none;enable-background:accumulate" />
  </g>
  <g
     id="layer10"
     transform="translate(-60.999948,-277)" />
  <g
     id="layer11"
     transform="translate(-60.999948,-277)" />
  <g
     id="layer13"
     transform="translate(-60.999948,-277)" />
  <g
     id="layer14"
     transform="translate(-60.999948,-277)" />
  <g
     id="layer15"
     transform="translate(-60.999948,-277)"
     style="display:inline" />
  <g
     id="g71291"
     style="display:inline"
     transform="translate(-60.999948,-277)" />
  <g
     id="g4953"
     transform="translate(-60.999948,-277)"
     style="display:inline" />
  <g
     id="layer12"
     style="display:inline"
     transform="translate(-60.999948,-277)" />
</svg>
