<?xml version="1.0" encoding="UTF-8" standalone="no"?>
<svg
   xmlns:dc="http://purl.org/dc/elements/1.1/"
   xmlns:cc="http://creativecommons.org/ns#"
   xmlns:rdf="http://www.w3.org/1999/02/22-rdf-syntax-ns#"
   xmlns:svg="http://www.w3.org/2000/svg"
   xmlns="http://www.w3.org/2000/svg"
   width="16"
   version="1.1"
	 viewBox="-4 -4 24 24"

   id="svg7384"
   height="16">
  <metadata
     id="metadata90">
    <rdf:RDF>
      <cc:Work
         rdf:about="">
        <dc:format>image/svg+xml</dc:format>
        <dc:type
           rdf:resource="http://purl.org/dc/dcmitype/StillImage" />
        <dc:title>Gnome Symbolic Icon Theme</dc:title>
      </cc:Work>
    </rdf:RDF>
  </metadata>
  <title
     id="title9167">Gnome Symbolic Icon Theme</title>
  <defs
     id="defs7386" />
  <g
     transform="translate(-160.99995,-277)"
     style="display:inline"
     id="layer9">
    <path
       style="color:#f1f2f2;font-style:normal;font-variant:normal;font-weight:normal;font-stretch:normal;font-size:medium;line-height:normal;font-family:Sans;-inkscape-font-specification:Sans;text-indent:0;text-align:start;text-decoration:none;text-decoration-line:none;letter-spacing:normal;word-spacing:normal;text-transform:none;writing-mode:lr-tb;direction:ltr;baseline-shift:baseline;text-anchor:start;display:inline;overflow:visible;visibility:visible;fill:#f1f2f2;fill-opacity:1;stroke:none;stroke-width:2;marker:none;enable-background:accumulate"
       id="path5375"
       d="m 173,280 c -1.6447,0 -3,1.3553 -3,3 v 4 c 0,0.5713 -0.4287,1 -1,1 h -6 v 2 h 6 c 1.6447,0 3,-1.3553 3,-3 v -4 c 0,-0.5713 0.4287,-1 1,-1 h 3 v -2 z" />
    <path
       style="color:#f1f2f2;font-style:normal;font-variant:normal;font-weight:normal;font-stretch:normal;font-size:medium;line-height:normal;font-family:Sans;-inkscape-font-specification:Sans;text-indent:0;text-align:start;text-decoration:none;text-decoration-line:none;letter-spacing:normal;word-spacing:normal;text-transform:none;writing-mode:lr-tb;direction:ltr;baseline-shift:baseline;text-anchor:start;display:inline;overflow:visible;visibility:visible;fill:#f1f2f2;fill-opacity:1;stroke:none;stroke-width:2;marker:none;enable-background:accumulate"
       id="path5377"
       d="m 164.875,286 a 1.0001,1.0001 0 0 0 -0.59375,0.28125 l -2,2 -0.6875,0.71875 0.6875,0.71875 2,2 a 1.016466,1.016466 0 1 0 1.4375,-1.4375 L 164.4375,289 l 1.28125,-1.28125 A 1.0001,1.0001 0 0 0 164.875,286 Z" />
    <path
       style="color:#f1f2f2;font-style:normal;font-variant:normal;font-weight:normal;font-stretch:normal;font-size:medium;line-height:normal;font-family:Sans;-inkscape-font-specification:Sans;text-indent:0;text-align:start;text-decoration:none;text-decoration-line:none;letter-spacing:normal;word-spacing:normal;text-transform:none;writing-mode:lr-tb;direction:ltr;baseline-shift:baseline;text-anchor:start;display:inline;overflow:visible;visibility:visible;fill:#f1f2f2;fill-opacity:1;stroke:none;stroke-width:2;marker:none;enable-background:accumulate"
       id="path5379"
       d="m 164.875,278 a 1.0001,1.0001 0 0 0 -0.59375,0.28125 l -2,2 -0.6875,0.71875 0.6875,0.71875 2,2 a 1.016466,1.016466 0 1 0 1.4375,-1.4375 L 164.4375,281 l 1.28125,-1.28125 A 1.0001,1.0001 0 0 0 164.875,278 Z" />
    <path
       style="color:#f1f2f2;font-style:normal;font-variant:normal;font-weight:normal;font-stretch:normal;font-size:medium;line-height:normal;font-family:'Andale Mono';text-indent:0pt;text-align:start;text-decoration:none;text-decoration-line:none;letter-spacing:normal;word-spacing:normal;text-transform:none;direction:ltr;text-anchor:start;display:inline;overflow:visible;visibility:visible;fill:#f1f2f2;fill-opacity:1;stroke:none;stroke-width:2;marker:none"
       id="path5381"
       d="m 168.99995,280 c 0.22957,0 0.44085,0.0438 0.65625,0.0937 -0.4813,0.5511 -0.86125,1.17761 -1.03125,1.90625 h -5.625 v -2 h 6 z m 7,8 v 2 h -3 c -0.22957,0 -0.44085,-0.0438 -0.65625,-0.0937 0.4813,-0.55115 0.86125,-1.17766 1.03125,-1.9063 z" />
    <path
       id="rect5383"
       d="m -165.99989,286 h 1 v 1 h -1 z"
       style="color:#000000;display:inline;overflow:visible;visibility:visible;fill:#f1f2f2;fill-opacity:1;fill-rule:nonzero;stroke:none;stroke-width:2;marker:none;enable-background:accumulate"
       transform="scale(-1,1)" />
    <path
       id="rect5385"
       d="m -165.99989,291 h 1 v 1 h -1 z"
       style="color:#000000;display:inline;overflow:visible;visibility:visible;fill:#f1f2f2;fill-opacity:1;fill-rule:nonzero;stroke:none;stroke-width:2;marker:none;enable-background:accumulate"
       transform="scale(-1,1)" />
    <path
       id="rect5387"
       d="m -165.99989,278 h 1 v 1 h -1 z"
       style="color:#000000;display:inline;overflow:visible;visibility:visible;fill:#f1f2f2;fill-opacity:1;fill-rule:nonzero;stroke:none;stroke-width:2;marker:none;enable-background:accumulate"
       transform="scale(-1,1)" />
    <path
       id="rect5389"
       d="m -165.99989,283 h 1 v 1 h -1 z"
       style="color:#000000;display:inline;overflow:visible;visibility:visible;fill:#f1f2f2;fill-opacity:1;fill-rule:nonzero;stroke:none;stroke-width:2;marker:none;enable-background:accumulate"
       transform="scale(-1,1)" />
  </g>
  <g
     transform="translate(-160.99995,-277)"
     id="layer10" />
  <g
     transform="translate(-160.99995,-277)"
     id="layer11" />
  <g
     transform="translate(-160.99995,-277)"
     id="layer13" />
  <g
     transform="translate(-160.99995,-277)"
     id="layer14" />
  <g
     transform="translate(-160.99995,-277)"
     style="display:inline"
     id="layer15" />
  <g
     transform="translate(-160.99995,-277)"
     style="display:inline"
     id="g71291" />
  <g
     transform="translate(-160.99995,-277)"
     style="display:inline"
     id="g4953" />
  <g
     transform="translate(-160.99995,-277)"
     style="display:inline"
     id="layer12" />
</svg>
