<?xml version="1.0" encoding="UTF-8" standalone="no"?>
<svg
   xmlns:dc="http://purl.org/dc/elements/1.1/"
   xmlns:cc="http://creativecommons.org/ns#"
   xmlns:rdf="http://www.w3.org/1999/02/22-rdf-syntax-ns#"
   xmlns:svg="http://www.w3.org/2000/svg"
   xmlns="http://www.w3.org/2000/svg"
   width="16"
   height="16"
   version="1.1"
	 viewBox="-4 -4 24 24"

   id="svg7384">
  <metadata
     id="metadata90">
    <rdf:RDF>
      <cc:Work
         rdf:about="">
        <dc:format>image/svg+xml</dc:format>
        <dc:type
           rdf:resource="http://purl.org/dc/dcmitype/StillImage" />
        <dc:title>Gnome Symbolic Icon Theme</dc:title>
      </cc:Work>
    </rdf:RDF>
  </metadata>
  <title
     id="title9167">Gnome Symbolic Icon Theme</title>
  <defs
     id="defs7386" />
  <g
     style="display:inline"
     id="layer9"
     transform="translate(-40.99995,-277)">
    <path
       style="color:#000000;font-style:normal;font-variant:normal;font-weight:normal;font-stretch:normal;font-size:medium;line-height:normal;font-family:Sans;-inkscape-font-specification:Sans;text-indent:0;text-align:start;text-decoration:none;text-decoration-line:none;letter-spacing:normal;word-spacing:normal;text-transform:none;writing-mode:lr-tb;direction:ltr;baseline-shift:baseline;text-anchor:start;display:inline;overflow:visible;visibility:visible;fill:#f1f2f2;fill-opacity:1;stroke:none;stroke-width:2;marker:none;enable-background:accumulate"
       id="path4516"
       d="m 50.875,286 a 1.0001,1.0001 0 0 0 -0.59375,0.28125 l -2,2 -0.6875,0.71875 0.6875,0.71875 2,2 a 1.016466,1.016466 0 1 0 1.4375,-1.4375 L 50.4375,289 51.71875,287.71875 A 1.0001,1.0001 0 0 0 50.875,286 Z" />
    <path
       style="color:#000000;font-style:normal;font-variant:normal;font-weight:normal;font-stretch:normal;font-size:medium;line-height:normal;font-family:Sans;-inkscape-font-specification:Sans;text-indent:0;text-align:start;text-decoration:none;text-decoration-line:none;letter-spacing:normal;word-spacing:normal;text-transform:none;writing-mode:lr-tb;direction:ltr;baseline-shift:baseline;text-anchor:start;display:inline;overflow:visible;visibility:visible;fill:#f1f2f2;fill-opacity:1;stroke:none;stroke-width:2;marker:none;enable-background:accumulate"
       id="path3991"
       d="m 45,280 c -1.644703,0 -3,1.3553 -3,3 v 4 c 0,1.6447 1.355297,3 3,3 h 1 v -2 h -1 c -0.571297,0 -1,-0.4287 -1,-1 v -4 c 0,-0.5713 0.428703,-1 1,-1 h 8 c 0.571297,0 1,0.4287 1,1 v 4 c 0,0.5713 -0.428703,1 -1,1 h -4 v 2 h 4 c 1.644703,0 3,-1.3553 3,-3 v -4 c 0,-1.6447 -1.355297,-3 -3,-3 z" />
    <path
       id="rect4723"
       d="m 51,286 h 1 v 1 h -1 z"
       style="color:#000000;display:inline;overflow:visible;visibility:visible;fill:#f1f2f2;fill-opacity:1;fill-rule:nonzero;stroke:none;stroke-width:2;marker:none;enable-background:accumulate" />
    <path
       id="rect4723-0"
       d="m 51,291 h 1 v 1 h -1 z"
       style="color:#000000;display:inline;overflow:visible;visibility:visible;fill:#f1f2f2;fill-opacity:1;fill-rule:nonzero;stroke:none;stroke-width:2;marker:none;enable-background:accumulate" />
  </g>
  <g
     id="layer10"
     transform="translate(-40.99995,-277)" />
  <g
     id="layer11"
     transform="translate(-40.99995,-277)" />
  <g
     id="layer12"
     transform="translate(-40.99995,-277)" />
  <g
     id="layer13"
     transform="translate(-40.99995,-277)" />
  <g
     id="layer14"
     transform="translate(-40.99995,-277)" />
  <g
     style="display:inline"
     id="layer15"
     transform="translate(-40.99995,-277)" />
  <g
     style="display:inline"
     id="g4953"
     transform="translate(-40.99995,-277)" />
</svg>
