<?xml version="1.0" encoding="UTF-8" standalone="no"?>
<svg
   xmlns:dc="http://purl.org/dc/elements/1.1/"
   xmlns:cc="http://creativecommons.org/ns#"
   xmlns:rdf="http://www.w3.org/1999/02/22-rdf-syntax-ns#"
   xmlns:svg="http://www.w3.org/2000/svg"
   xmlns="http://www.w3.org/2000/svg"
   width="16"
   height="16"
   version="1.1"
	 viewBox="-4 -4 24 24"

   id="svg7384">
  <metadata
     id="metadata90">
    <rdf:RDF>
      <cc:Work
         rdf:about="">
        <dc:format>image/svg+xml</dc:format>
        <dc:type
           rdf:resource="http://purl.org/dc/dcmitype/StillImage" />
        <dc:title>Gnome Symbolic Icon Theme</dc:title>
      </cc:Work>
    </rdf:RDF>
  </metadata>
  <title
     id="title9167">Gnome Symbolic Icon Theme</title>
  <defs
     id="defs7386" />
  <g
     style="display:inline"
     id="layer9"
     transform="translate(-201.0002,-448)" />
  <g
     id="layer10"
     transform="translate(-201.0002,-448)">
    <g
       id="g39787"
       transform="translate(153.0002,50)" />
    <path
       style="color:#f1f2f2;font-style:normal;font-variant:normal;font-weight:normal;font-stretch:normal;font-size:medium;line-height:normal;font-family:Sans;-inkscape-font-specification:Sans;text-indent:0;text-align:start;text-decoration:none;text-decoration-line:none;letter-spacing:normal;word-spacing:normal;text-transform:none;writing-mode:lr-tb;direction:ltr;baseline-shift:baseline;text-anchor:start;display:inline;overflow:visible;visibility:visible;fill:#f1f2f2;fill-opacity:1;stroke:none;stroke-width:5.61250019;marker:none;enable-background:accumulate"
       id="path39797"
       d="m 208.98907,448.99554 c -3.84231,0 -6.99332,3.15102 -6.99332,6.99332 0,3.8423 3.15101,7.01559 6.99332,7.01559 3.8423,0 7.01559,-3.17329 7.01559,-7.01559 0,-3.8423 -3.17329,-6.99332 -7.01559,-6.99332 z m 0,4.00891 c 1.68054,0 3.00668,1.30387 3.00668,2.98441 0,1.68054 -1.32614,3.00668 -3.00668,3.00668 -1.68055,0 -2.98441,-1.32614 -2.98441,-3.00668 0,-1.68054 1.30386,-2.98441 2.98441,-2.98441 z" />
    <path
       style="color:#f1f2f2;font-style:normal;font-variant:normal;font-weight:normal;font-stretch:normal;font-size:medium;line-height:normal;font-family:Sans;-inkscape-font-specification:Sans;text-indent:0;text-align:start;text-decoration:none;text-decoration-line:none;letter-spacing:normal;word-spacing:normal;text-transform:none;writing-mode:lr-tb;direction:ltr;baseline-shift:baseline;text-anchor:start;display:inline;overflow:visible;visibility:visible;fill:#f1f2f2;fill-opacity:1;stroke:none;stroke-width:1.87825239;marker:none;enable-background:accumulate"
       id="path40342"
       d="m 209.00524,454.0058 c -1.09865,0 -2.01317,0.89789 -2.01317,1.99654 0,1.09864 0.91452,1.99653 2.01317,1.99653 1.09865,0 1.99654,-0.89789 1.99654,-1.99653 0,-1.09865 -0.89789,-1.99654 -1.99654,-1.99654 z m 0,0.99827 c 0.55821,0 0.99827,0.44006 0.99827,0.99827 0,0.5582 -0.44006,0.99826 -0.99827,0.99826 -0.55821,0 -0.99827,-0.44006 -0.99827,-0.99826 0,-0.55821 0.44006,-0.99827 0.99827,-0.99827 z" />
  </g>
  <g
     id="layer11"
     transform="translate(-201.0002,-448)" />
  <g
     id="layer12"
     transform="translate(-201.0002,-448)" />
  <g
     id="layer13"
     transform="translate(-201.0002,-448)" />
  <g
     id="layer14"
     transform="translate(-201.0002,-448)" />
  <g
     style="display:inline"
     id="layer15"
     transform="translate(-201.0002,-448)" />
  <g
     style="display:inline"
     id="g4953"
     transform="translate(-201.0002,-448)" />
</svg>
