<?xml version="1.0" encoding="UTF-8" standalone="no"?>
<svg
   xmlns:dc="http://purl.org/dc/elements/1.1/"
   xmlns:cc="http://creativecommons.org/ns#"
   xmlns:rdf="http://www.w3.org/1999/02/22-rdf-syntax-ns#"
   xmlns:svg="http://www.w3.org/2000/svg"
   xmlns="http://www.w3.org/2000/svg"
   width="16"
   version="1.1"
	 viewBox="-4 -4 24 24"

   id="svg7384"
   height="16.001099">
  <metadata
     id="metadata90">
    <rdf:RDF>
      <cc:Work
         rdf:about="">
        <dc:format>image/svg+xml</dc:format>
        <dc:type
           rdf:resource="http://purl.org/dc/dcmitype/StillImage" />
        <dc:title>Gnome Symbolic Icon Theme</dc:title>
      </cc:Work>
    </rdf:RDF>
  </metadata>
  <title
     id="title9167">Gnome Symbolic Icon Theme</title>
  <defs
     id="defs7386">
    <clipPath
       id="clipPath6810-7-87"
       clipPathUnits="userSpaceOnUse">
      <rect
         y="281"
         x="21"
         width="14"
         style="color:#f1f2f2;fill:none;stroke:#ffffff;stroke-width:2;stroke-linecap:round;stroke-linejoin:round;stroke-miterlimit:4;stroke-opacity:1;stroke-dasharray:none;stroke-dashoffset:0;marker:none;visibility:visible;display:inline;overflow:visible"
         id="rect6812-2-4"
         height="11" />
    </clipPath>
  </defs>
  <g
     transform="translate(-141,-197)"
     style="display:inline"
     id="layer9">
    <path
       style="color:#000000;display:inline;overflow:visible;visibility:visible;opacity:0.5;fill:#f1f2f2;fill-opacity:1;stroke:none;stroke-width:1.2784189;marker:none;enable-background:accumulate"
       id="path8179"
       d="m 154.0002,198 c -1.10457,0 -2,0.89543 -2,2 0,1.10457 0.89543,2 2,2 1.10457,0 2,-0.89543 2,-2 0,-1.10457 -0.89543,-2 -2,-2 z m 0,1 c 0.55228,0 1,0.44771 1,1 0,0.55228 -0.44772,1 -1,1 -0.55229,0 -1,-0.44772 -1,-1 0,-0.55229 0.44771,-1 1,-1 z" />
    <path
       id="rect12259"
       d="m 146.5001,198 c 1.38494,0 2.4999,1.115 2.4999,2.5 v 5 c 0,1.385 -1.11496,2.5 -2.4999,2.5 -1.38495,0 -2.4999,-1.115 -2.4999,-2.5 v -5 c 0,-1.385 1.11495,-2.5 2.4999,-2.5 z"
       style="color:#f1f2f2;display:inline;overflow:visible;visibility:visible;fill:#f1f2f2;fill-opacity:1;fill-rule:nonzero;stroke:none;stroke-width:2;marker:none" />
    <path
       transform="matrix(0.993968,0,0,1,118.7069,-78.486135)"
       style="color:#f1f2f2;font-style:normal;font-variant:normal;font-weight:normal;font-stretch:normal;font-size:medium;line-height:normal;font-family:Sans;-inkscape-font-specification:Sans;text-indent:0;text-align:start;text-decoration:none;text-decoration-line:none;letter-spacing:normal;word-spacing:normal;text-transform:none;writing-mode:lr-tb;direction:ltr;baseline-shift:baseline;text-anchor:start;display:inline;overflow:visible;visibility:visible;fill:#f1f2f2;fill-opacity:1;stroke:none;stroke-width:1.00302994;marker:none;enable-background:accumulate"
       id="rect12261"
       d="m 27.96875,273.625 c -2.502477,0 -4.53125,2.02877 -4.53125,4.53125 v 5.8125 c 0,2.50248 2.028773,4.53125 4.53125,4.53125 2.502477,0 4.53125,-2.02877 4.53125,-4.53125 v -5.8125 c 0,-2.50248 -2.028773,-4.53125 -4.53125,-4.53125 z m 0,1 c 1.964148,0 3.53125,1.5671 3.53125,3.53125 v 5.8125 c 0,1.96415 -1.567102,3.53125 -3.53125,3.53125 -1.964148,0 -3.53125,-1.5671 -3.53125,-3.53125 v -5.8125 c 0,-1.96415 1.567102,-3.53125 3.53125,-3.53125 z"
       clip-path="url(#clipPath6810-7-87)" />
    <path
       id="path12263"
       d="m 24,361 a 1,1 0 0 1 -1,1 1,1 0 0 1 -1,-1 1,1 0 0 1 1,-1 1,1 0 0 1 1,1 z"
       style="color:#f1f2f2;display:inline;overflow:visible;visibility:visible;fill:#f1f2f2;fill-opacity:1;stroke:none;stroke-width:2;marker:none"
       transform="matrix(0.5,0,0,0.5,131,22)" />
    <path
       id="path12265"
       d="m 24,361 a 1,1 0 0 1 -1,1 1,1 0 0 1 -1,-1 1,1 0 0 1 1,-1 1,1 0 0 1 1,1 z"
       style="color:#f1f2f2;display:inline;overflow:visible;visibility:visible;fill:#f1f2f2;fill-opacity:1;stroke:none;stroke-width:2;marker:none"
       transform="matrix(0.5,0,0,0.5,139,22)" />
    <path
       style="color:#f1f2f2;font-style:normal;font-variant:normal;font-weight:normal;font-stretch:normal;font-size:medium;line-height:normal;font-family:Sans;-inkscape-font-specification:Sans;text-indent:0;text-align:start;text-decoration:none;text-decoration-line:none;letter-spacing:normal;word-spacing:normal;text-transform:none;writing-mode:lr-tb;direction:ltr;baseline-shift:baseline;text-anchor:start;display:inline;overflow:visible;visibility:visible;fill:#f1f2f2;fill-opacity:1;stroke:none;stroke-width:2;marker:none;enable-background:accumulate"
       id="path12267"
       d="M 142.90625,211 A 1.001098,1.001098 0 1 0 143,213 h 7 a 1.0001,1.0001 0 1 0 0,-2 h -7 a 1.0001,1.0001 0 0 0 -0.0937,0 z" />
    <path
       id="rect12269"
       d="m 142,212 h 9 v 1 h -9 z"
       style="color:#f1f2f2;display:inline;overflow:visible;visibility:visible;fill:#f1f2f2;fill-opacity:1;stroke:none;stroke-width:1;marker:none" />
    <path
       id="rect12271"
       d="m 145,209 h 3 v 4 h -3 z"
       style="color:#f1f2f2;display:inline;overflow:visible;visibility:visible;fill:#f1f2f2;fill-opacity:1;stroke:none;stroke-width:1;marker:none" />
    <path
       id="path12275"
       d="M -186.0625,184.0625 A 1.9375,1.9375 0 0 1 -188,186 a 1.9375,1.9375 0 0 1 -1.9375,-1.9375 1.9375,1.9375 0 0 1 1.9375,-1.9375 1.9375,1.9375 0 0 1 1.9375,1.9375 z"
       style="color:#000000;display:inline;overflow:visible;visibility:visible;fill:#f1f2f2;fill-opacity:1;stroke:none;stroke-width:1.2784189;marker:none;enable-background:accumulate"
       transform="matrix(1.0322581,0,0,1.0322551,348.06472,20.000543)" />
    <path
       style="color:#000000;display:inline;overflow:visible;visibility:visible;opacity:0.5;fill:#f1f2f2;fill-opacity:1;stroke:none;stroke-width:1.2784189;marker:none;enable-background:accumulate"
       id="path8174"
       d="m 154.0002,203 c -1.10457,0 -2,0.89543 -2,2 0,1.10457 0.89543,2 2,2 1.10457,0 2,-0.89543 2,-2 0,-1.10457 -0.89543,-2 -2,-2 z m 0,1 c 0.55228,0 1,0.44771 1,1 0,0.55228 -0.44772,1 -1,1 -0.55228,0 -1,-0.44772 -1,-1 0,-0.55229 0.44772,-1 1,-1 z" />
  </g>
  <g
     transform="translate(-141,-197)"
     style="display:inline"
     id="layer10" />
  <g
     transform="translate(-141,-197)"
     id="layer11" />
  <g
     transform="translate(-141,-197)"
     style="display:inline"
     id="layer13" />
  <g
     transform="translate(-141,-197)"
     id="layer14" />
  <g
     transform="translate(-141,-197)"
     style="display:inline"
     id="layer15" />
  <g
     transform="translate(-141,-197)"
     style="display:inline"
     id="g71291" />
  <g
     transform="translate(-141,-197)"
     style="display:inline"
     id="g4953" />
  <g
     transform="translate(-141,-197)"
     style="display:inline"
     id="layer12" />
</svg>
