<?xml version="1.0" encoding="UTF-8" standalone="no"?>
<svg
   xmlns:osb="http://www.openswatchbook.org/uri/2009/osb"
   xmlns:dc="http://purl.org/dc/elements/1.1/"
   xmlns:cc="http://creativecommons.org/ns#"
   xmlns:rdf="http://www.w3.org/1999/02/22-rdf-syntax-ns#"
   xmlns:svg="http://www.w3.org/2000/svg"
   xmlns="http://www.w3.org/2000/svg"
   width="16"
   version="1.1"
	 viewBox="-4 -4 24 24"

   id="svg7384"
   height="16">
  <metadata
     id="metadata90">
    <rdf:RDF>
      <cc:Work
         rdf:about="">
        <dc:format>image/svg+xml</dc:format>
        <dc:type
           rdf:resource="http://purl.org/dc/dcmitype/StillImage" />
        <dc:title>Gnome Symbolic Icon Theme</dc:title>
      </cc:Work>
    </rdf:RDF>
  </metadata>
  <title
     id="title9167">Gnome Symbolic Icon Theme</title>
  <defs
     id="defs7386">
    <linearGradient
       osb:paint="solid"
       id="linearGradient19282"
       gradientTransform="matrix(-2.7365795,0.28202934,-0.18908311,-0.99988321,239.54008,-879.45557)">
      <stop
         style="stop-color:#666666;stop-opacity:1;"
         offset="0"
         id="stop19284" />
    </linearGradient>
  </defs>
  <g
     transform="translate(-81.0004,-567)"
     style="display:inline"
     id="layer9" />
  <g
     transform="translate(-81.0004,-567)"
     style="display:inline"
     id="layer10">
    <path
       style="color:#000000;display:inline;overflow:visible;visibility:visible;fill:#f1f2f2;fill-opacity:1;fill-rule:nonzero;stroke:none;stroke-width:2;marker:none;enable-background:new"
       id="path26971"
       d="m 92.10532,577 c -0.78136,0.64834 -1.68021,1.51805 -3.06472,2.0098 l -7.0404,-0.01 v 3 h 14 v -3 l -2,-2 z m -0.60512,1.79687 c 0.38953,0 0.70313,0.3136 0.70313,0.70313 0,0.38953 -0.3136,0.70313 -0.70313,0.70313 -0.38953,0 -0.70313,-0.3136 -0.70313,-0.70313 0,-0.38953 0.3136,-0.70313 0.70313,-0.70313 z m 2,0.0234 c 0.37655,0 0.67969,0.30314 0.67969,0.67969 0,0.37655 -0.30314,0.67969 -0.67969,0.67969 -0.37655,0 -0.67969,-0.30314 -0.67969,-0.67969 0,-0.37655 0.30314,-0.67969 0.67969,-0.67969 z" />
    <path
       style="display:inline;opacity:1;fill:#f1f2f2;fill-opacity:1;stroke:none;enable-background:new"
       id="rect5922-4"
       d="m 92.446603,570.05447 c 0.327975,0 0.594959,0.26223 0.594959,0.59496 v 0.0383 c -0.01051,4.06126 -3.306079,7.35062 -7.36981,7.35062 h -0.01916 c -0.334607,0 -0.594989,-0.27391 -0.594989,-0.61415 v -0.61415 -1.22831 c 0,-0.34023 0.273912,-0.61414 0.614151,-0.61414 h 1.228301 c 0.34024,0 0.614151,0.27391 0.614151,0.61414 v 0.28789 c 1.570298,-0.55512 2.803519,-1.78834 3.358638,-3.35864 h -0.287883 c -0.340246,0 -0.61415,-0.27391 -0.61415,-0.61415 v -1.2283 c 0,-0.34025 0.273904,-0.61415 0.61415,-0.61415 h 0.614151 0.614151 0.594958 0.01916 0.01916 z" />
  </g>
  <g
     transform="translate(-81.0004,-567)"
     id="layer11" />
  <g
     transform="translate(-81.0004,-567)"
     style="display:inline"
     id="layer13" />
  <g
     transform="translate(-81.0004,-567)"
     id="layer14" />
  <g
     transform="translate(-81.0004,-567)"
     style="display:inline"
     id="layer15" />
  <g
     transform="translate(-81.0004,-567)"
     style="display:inline"
     id="g71291" />
  <g
     transform="translate(-81.0004,-567)"
     style="display:inline"
     id="g4953" />
  <g
     transform="translate(-81.0004,-567)"
     style="display:inline"
     id="layer12" />
</svg>
