<svg xmlns="http://www.w3.org/2000/svg" version="1.1" viewBox="-4 -4 24 24"><path stroke-width="0.35" fill="#f1f2f2" d="m8.2051 1.002a7 7 0 0 0 -7.2051 6.996 7 7 0 1 0 14 0 7 7 0 0 0 -6.7949 -6.996zm0.4551 1a5.5 5.5 0 0 1 5.3398 5.498 5.5 5.5 0 0 1 -11 0 5.5 5.5 0 0 1 5.6602 -5.498zm-0.543 2a4 4 0 0 0 -4.1172 3.998 4 4 0 0 0 8 0 4 4 0 0 0 -3.8828 -3.998zm-1.1172 1.998l3 2-3 2v-4z"/><path stroke-width=".24590" fill="#ebebeb" d="m8.1172 4.002a4 4 0 0 0 -4.1172 3.998 4 4 0 0 0 8 0 4 4 0 0 0 -3.8828 -3.998zm-1.1172 1.998l3 2-3 2v-4z"/><path opacity=".2" fill="none" d="m6.747 6.1618v3.6764l3.0653-1.8382z"/></svg>
