<?xml version="1.0" encoding="UTF-8" standalone="no"?>
<svg
   xmlns:dc="http://purl.org/dc/elements/1.1/"
   xmlns:cc="http://creativecommons.org/ns#"
   xmlns:rdf="http://www.w3.org/1999/02/22-rdf-syntax-ns#"
   xmlns:svg="http://www.w3.org/2000/svg"
   xmlns="http://www.w3.org/2000/svg"
   width="16.000002"
   version="1.1"
	 viewBox="-4 -4 24 24"

   id="svg7384"
   height="16">
  <metadata
     id="metadata90">
    <rdf:RDF>
      <cc:Work
         rdf:about="">
        <dc:format>image/svg+xml</dc:format>
        <dc:type
           rdf:resource="http://purl.org/dc/dcmitype/StillImage" />
        <dc:title>Gnome Symbolic Icon Theme</dc:title>
      </cc:Work>
    </rdf:RDF>
  </metadata>
  <title
     id="title9167">Gnome Symbolic Icon Theme</title>
  <defs
     id="defs7386" />
  <g
     transform="translate(-61.0002,-467)"
     style="display:inline"
     id="layer9" />
  <g
     transform="translate(-61.0002,-467)"
     id="layer10">
    <path
       style="fill:#f1f2f2;fill-opacity:1;stroke:none"
       id="path16980"
       d="m 65.468952,468 c -0.82099,0 -1.46875,0.64776 -1.46875,1.46875 v 11.0625 c 0,0.82099 0.64776,1.46875 1.46875,1.46875 h 7.0625 c 0.82099,0 1.46875,-0.64776 1.46875,-1.46875 v -11.0625 c 0,-0.82099 -0.64776,-1.46875 -1.46875,-1.46875 z m -0.46875,1 h 8 v 5 h -8 z m 4,6 c 1.65685,0 3,1.34315 3,3 0,1.65685 -1.34315,3 -3,3 -1.65685,0 -3,-1.34315 -3,-3 0,-1.65685 1.34315,-3 3,-3 z" />
    <path
       id="path16982"
       d="m -170,261 a 1,1 0 0 1 -1,1 1,1 0 0 1 -1,-1 1,1 0 0 1 1,-1 1,1 0 0 1 1,1 z"
       style="fill:#f1f2f2;fill-opacity:1;stroke:none"
       transform="matrix(1.5,0,0,1.5,325.5002,86.5)" />
  </g>
  <g
     transform="translate(-61.0002,-467)"
     id="layer11" />
  <g
     transform="translate(-61.0002,-467)"
     id="layer13" />
  <g
     transform="translate(-61.0002,-467)"
     id="layer14" />
  <g
     transform="translate(-61.0002,-467)"
     style="display:inline"
     id="layer15" />
  <g
     transform="translate(-61.0002,-467)"
     style="display:inline"
     id="g71291" />
  <g
     transform="translate(-61.0002,-467)"
     style="display:inline"
     id="g4953" />
  <g
     transform="translate(-61.0002,-467)"
     style="display:inline"
     id="layer12" />
</svg>
