<?xml version="1.0" encoding="UTF-8" standalone="no"?>
<svg
   xmlns:dc="http://purl.org/dc/elements/1.1/"
   xmlns:cc="http://creativecommons.org/ns#"
   xmlns:rdf="http://www.w3.org/1999/02/22-rdf-syntax-ns#"
   xmlns:svg="http://www.w3.org/2000/svg"
   xmlns="http://www.w3.org/2000/svg"
   width="16"
   height="16"
   version="1.1"
	 viewBox="-4 -4 24 24"

   id="svg7384">
  <metadata
     id="metadata90">
    <rdf:RDF>
      <cc:Work
         rdf:about="">
        <dc:format>image/svg+xml</dc:format>
        <dc:type
           rdf:resource="http://purl.org/dc/dcmitype/StillImage" />
        <dc:title>Gnome Symbolic Icon Theme</dc:title>
      </cc:Work>
    </rdf:RDF>
  </metadata>
  <title
     id="title9167">Gnome Symbolic Icon Theme</title>
  <defs
     id="defs7386" />
  <g
     style="display:inline"
     id="layer9"
     transform="translate(-81.0002,-237)">
    <path
       style="color:#f1f2f2;display:inline;overflow:visible;visibility:visible;fill:#f1f2f2;fill-opacity:1;stroke:none;stroke-width:2;marker:none"
       id="path1244"
       d="m 83.0627,237 c -1.15073,0 -2.0625,0.91177 -2.0625,2.0625 v 11.875 c 0,1.15073 0.91177,2.0625 2.0625,2.0625 h 11.875 c 1.15073,0 2.0625,-0.91177 2.0625,-2.0625 v -11.875 C 97.0002,237.91177 96.08843,237 94.9377,237 Z m -0.0625,3 h 4 a 1.0001,1.0001 0 0 1 0.875,1.4375 l -1.375,2.78125 c 0.35458,0.11552 0.74913,0.19557 0.96875,0.4375 0.33238,0.36614 0.53125,0.8102 0.53125,1.34375 v 2 c 0,1.11243 -0.90732,2 -2,2 h -3 v -2 h 3 v -2 h -1 a 1.0001,1.0001 0 0 1 -0.875,-1.4375 L 85.3752,242 h -2.375 z m 8.0625,0.0312 h 1.84375 0.0625 c 0.003,-1e-4 -0.003,0.0315 0,0.0312 0.52731,-0.0204 1.07254,0.076 1.5,0.46875 0.41475,0.38112 0.59343,1.00751 0.5625,1.59375 h 0.0312 v 0.125 0.75 h -2 v -0.875 -0.0625 -0.0312 c -0.0176,-0.002 0.003,-0.002 -0.0312,0 h -0.0312 -0.0312 -1.90625 c -0.0276,0 -0.022,0.002 -0.0312,0 -0.006,0.004 -0.0292,-0.003 -0.0312,0 -0.007,0.0224 0.007,0.0466 0,0.0625 v 0.0312 5.8125 c -0.0237,-0.0217 0,0.0625 0,0.0625 h 1.96875 c 0.007,-0.0193 0.0294,-0.016 0.0312,0 8.8e-4,0.008 0,-0.0555 0,-0.0312 v -1.9375 h -1 v -2 h 2 1 v 1 2.9375 c 0,0.56264 -0.22708,0.99952 -0.5625,1.375 -0.31592,0.35364 -0.85192,0.632 -1.46875,0.625 v 0.0312 h -0.0937 -1.875 c -0.6248,0 -0.99413,-0.24123 -1.34375,-0.5625 -0.33105,-0.30421 -0.64392,-0.78987 -0.625,-1.4375 6e-5,-0.002 -0.0313,0.002 -0.0312,0 V 247.9062 242.0937 242 241.9375 c 0.0625,-0.43728 0.20536,-0.88912 0.5625,-1.28125 0.35715,-0.39213 0.94608,-0.625 1.5,-0.625 z" />
  </g>
  <g
     id="layer10"
     transform="translate(-81.0002,-237)" />
  <g
     id="layer11"
     transform="translate(-81.0002,-237)" />
  <g
     id="layer12"
     transform="translate(-81.0002,-237)" />
  <g
     id="layer13"
     transform="translate(-81.0002,-237)" />
  <g
     id="layer14"
     transform="translate(-81.0002,-237)" />
  <g
     style="display:inline"
     id="layer15"
     transform="translate(-81.0002,-237)" />
  <g
     style="display:inline"
     id="g4953"
     transform="translate(-81.0002,-237)" />
</svg>
