<?xml version="1.0" encoding="UTF-8" standalone="no"?>
<svg
   xmlns:dc="http://purl.org/dc/elements/1.1/"
   xmlns:cc="http://creativecommons.org/ns#"
   xmlns:rdf="http://www.w3.org/1999/02/22-rdf-syntax-ns#"
   xmlns:svg="http://www.w3.org/2000/svg"
   xmlns="http://www.w3.org/2000/svg"
   width="16"
   version="1.1"
	 viewBox="-4 -4 24 24"

   id="svg7384"
   height="16">
  <metadata
     id="metadata90">
    <rdf:RDF>
      <cc:Work
         rdf:about="">
        <dc:format>image/svg+xml</dc:format>
        <dc:type
           rdf:resource="http://purl.org/dc/dcmitype/StillImage" />
        <dc:title>Gnome Symbolic Icon Theme</dc:title>
      </cc:Work>
    </rdf:RDF>
  </metadata>
  <title
     id="title9167">Gnome Symbolic Icon Theme</title>
  <defs
     id="defs7386" />
  <g
     transform="translate(-401.0002,-157)"
     style="display:inline"
     id="layer9">
    <path
       style="color:#f1f2f2;display:inline;overflow:visible;visibility:visible;fill:#f1f2f2;fill-opacity:1;fill-rule:nonzero;stroke:none;stroke-width:2;marker:none"
       id="path4215"
       d="m 408.0002,158 c -1.6447,0 -3,1.3553 -3,3 v 3 h -1 c -0.554,0 -1,0.446 -1,1 V 165.53125 171 h 5 2 5 V 165.53125 165 c 0,-0.554 -0.446,-1 -1,-1 h -1 v -3 c 0,-1.6447 -1.3553,-3 -3,-3 z m 0,2 h 2 c 0.5713,0 1,0.4287 1,1 v 3 h -4 v -3 c 0,-0.5713 0.4287,-1 1,-1 z" />
  </g>
  <g
     transform="translate(-401.0002,-157)"
     style="display:inline"
     id="layer10" />
  <g
     transform="translate(-401.0002,-157)"
     id="layer11" />
  <g
     transform="translate(-401.0002,-157)"
     style="display:inline"
     id="layer13" />
  <g
     transform="translate(-401.0002,-157)"
     id="layer14" />
  <g
     transform="translate(-401.0002,-157)"
     style="display:inline"
     id="layer15" />
  <g
     transform="translate(-401.0002,-157)"
     style="display:inline"
     id="g71291" />
  <g
     transform="translate(-401.0002,-157)"
     style="display:inline"
     id="g4953" />
  <g
     transform="translate(-401.0002,-157)"
     style="display:inline"
     id="layer12" />
</svg>
