<?xml version="1.0" encoding="UTF-8" standalone="no"?>
<svg
   xmlns:dc="http://purl.org/dc/elements/1.1/"
   xmlns:cc="http://creativecommons.org/ns#"
   xmlns:rdf="http://www.w3.org/1999/02/22-rdf-syntax-ns#"
   xmlns:svg="http://www.w3.org/2000/svg"
   xmlns="http://www.w3.org/2000/svg"
   width="16"
   version="1.1"
	 viewBox="-4 -4 24 24"

   id="svg7384"
   height="16">
  <metadata
     id="metadata90">
    <rdf:RDF>
      <cc:Work
         rdf:about="">
        <dc:format>image/svg+xml</dc:format>
        <dc:type
           rdf:resource="http://purl.org/dc/dcmitype/StillImage" />
        <dc:title>Gnome Symbolic Icon Theme</dc:title>
      </cc:Work>
    </rdf:RDF>
  </metadata>
  <title
     id="title9167">Gnome Symbolic Icon Theme</title>
  <defs
     id="defs7386" />
  <g
     transform="translate(-81.0002,-237)"
     style="display:inline"
     id="layer9">
    <path
       style="color:#f1f2f2;display:inline;overflow:visible;visibility:visible;fill:#f1f2f2;fill-opacity:1;stroke:none;stroke-width:2;marker:none"
       id="path8649"
       d="m 83.0627,237 c -1.15073,0 -2.0625,0.91177 -2.0625,2.0625 v 11.875 c 0,1.15073 0.91177,2.0625 2.0625,2.0625 h 11.875 c 1.15073,0 2.0625,-0.91177 2.0625,-2.0625 v -11.875 C 97.0002,237.91177 96.08843,237 94.9377,237 Z m 2,3 h 2 v 4 h 3.9375 v -4 h 2 v 10 h -2 v -4 h -3.9375 v 4 h -2 z" />
  </g>
  <g
     transform="translate(-81.0002,-237)"
     style="display:inline"
     id="layer10" />
  <g
     transform="translate(-81.0002,-237)"
     id="layer11" />
  <g
     transform="translate(-81.0002,-237)"
     style="display:inline"
     id="layer13" />
  <g
     transform="translate(-81.0002,-237)"
     id="layer14" />
  <g
     transform="translate(-81.0002,-237)"
     style="display:inline"
     id="layer15" />
  <g
     transform="translate(-81.0002,-237)"
     style="display:inline"
     id="g71291" />
  <g
     transform="translate(-81.0002,-237)"
     style="display:inline"
     id="g4953" />
  <g
     transform="translate(-81.0002,-237)"
     style="display:inline"
     id="layer12" />
</svg>
