<?xml version="1.0" encoding="UTF-8" standalone="no"?>
<svg
   xmlns:dc="http://purl.org/dc/elements/1.1/"
   xmlns:cc="http://creativecommons.org/ns#"
   xmlns:rdf="http://www.w3.org/1999/02/22-rdf-syntax-ns#"
   xmlns:svg="http://www.w3.org/2000/svg"
   xmlns="http://www.w3.org/2000/svg"
   width="16"
   version="1.1"
	 viewBox="-4 -4 24 24"

   id="svg7384"
   height="16">
  <metadata
     id="metadata90">
    <rdf:RDF>
      <cc:Work
         rdf:about="">
        <dc:format>image/svg+xml</dc:format>
        <dc:type
           rdf:resource="http://purl.org/dc/dcmitype/StillImage" />
        <dc:title>Gnome Symbolic Icon Theme</dc:title>
      </cc:Work>
    </rdf:RDF>
  </metadata>
  <title
     id="title9167">Gnome Symbolic Icon Theme</title>
  <defs
     id="defs7386" />
  <g
     transform="translate(-61.0002,-177)"
     style="display:inline"
     id="layer9">
    <path
       id="path6305-5"
       d="m 29,209 a 1,1 0 0 1 -1,1 1,1 0 0 1 -1,-1 1,1 0 0 1 1,-1 1,1 0 0 1 1,1 z"
       clip-path="none"
       style="display:inline;fill:#f1f2f2;fill-opacity:1;stroke:none"
       transform="matrix(1.9999995,0,0,1.9999995,13.00022,-227.9999)" />
    <path
       style="color:#000000;display:inline;overflow:visible;visibility:visible;opacity:0.35;fill:#f1f2f2;fill-opacity:1;fill-rule:nonzero;stroke:none;stroke-width:1;marker:none;enable-background:accumulate"
       id="rect11714-9"
       d="m 69.00019,179.0002 c -2.81422,0 -5.17173,1 -7,2.58557 v 1.41443 h 1.48072 c 1.51928,-1.26466 3.21936,-2 5.51928,-2 2.29992,0 4,0.77953 5.51928,2 h 1.48072 v -1.38128 c -1.64044,-1.46575 -4.18578,-2.61872 -7,-2.61872 z" />
    <path
       style="color:#000000;display:inline;overflow:visible;visibility:visible;fill:#f1f2f2;fill-opacity:1;fill-rule:nonzero;stroke:none;stroke-width:1;marker:none;enable-background:accumulate"
       id="rect11703-2"
       d="m 69.00019,182.0002 c -2.16664,0 -4.01982,0.73878 -5,2 v 1 h 2 c 0.78878,-0.60652 1.75887,-1 3,-1 1.24113,0 2.21938,0.39348 3,1 h 2 v -1 c -0.99478,-1.2229 -2.8734,-2 -5,-2 z" />
    <path
       style="color:#000000;font-style:normal;font-variant:normal;font-weight:normal;font-stretch:normal;font-size:medium;line-height:normal;font-family:Sans;-inkscape-font-specification:Sans;text-indent:0;text-align:start;text-decoration:none;text-decoration-line:none;letter-spacing:normal;word-spacing:normal;text-transform:none;writing-mode:lr-tb;direction:ltr;baseline-shift:baseline;text-anchor:start;display:inline;overflow:visible;visibility:visible;fill:#f1f2f2;fill-opacity:1;stroke:none;stroke-width:2.32782054;marker:none;enable-background:accumulate"
       mask="none"
       id="path6297-8"
       d="m 69.00019,185.0002 c -1.25733,0 -2.21571,0.31165 -3,1 v 1 h 3 0.375 2.625 v -1 c -0.8369,-0.67206 -1.74267,-1 -3,-1 z"
       clip-path="none" />
  </g>
  <g
     transform="translate(-61.0002,-177)"
     style="display:inline"
     id="layer10" />
  <g
     transform="translate(-61.0002,-177)"
     id="layer11" />
  <g
     transform="translate(-61.0002,-177)"
     style="display:inline"
     id="layer13" />
  <g
     transform="translate(-61.0002,-177)"
     id="layer14" />
  <g
     transform="translate(-61.0002,-177)"
     style="display:inline"
     id="layer15" />
  <g
     transform="translate(-61.0002,-177)"
     style="display:inline"
     id="g71291" />
  <g
     transform="translate(-61.0002,-177)"
     style="display:inline"
     id="g4953" />
  <g
     transform="translate(-61.0002,-177)"
     style="display:inline"
     id="layer12" />
</svg>
