<?xml version="1.0" encoding="UTF-8" standalone="no"?>
<svg
   xmlns:dc="http://purl.org/dc/elements/1.1/"
   xmlns:cc="http://creativecommons.org/ns#"
   xmlns:rdf="http://www.w3.org/1999/02/22-rdf-syntax-ns#"
   xmlns:svg="http://www.w3.org/2000/svg"
   xmlns="http://www.w3.org/2000/svg"
   width="16"
   version="1.1"
	 viewBox="-4 -4 24 24"

   id="svg7384"
   height="16">
  <metadata
     id="metadata90">
    <rdf:RDF>
      <cc:Work
         rdf:about="">
        <dc:format>image/svg+xml</dc:format>
        <dc:type
           rdf:resource="http://purl.org/dc/dcmitype/StillImage" />
        <dc:title>Gnome Symbolic Icon Theme</dc:title>
      </cc:Work>
    </rdf:RDF>
  </metadata>
  <title
     id="title9167">Gnome Symbolic Icon Theme</title>
  <defs
     id="defs7386" />
  <g
     transform="translate(-141.0002,-237)"
     style="display:inline"
     id="layer9">
    <path
       style="color:#000000;display:inline;overflow:visible;visibility:visible;fill:#ff6600;fill-opacity:1;fill-rule:nonzero;stroke:none;stroke-width:4;marker:none;enable-background:accumulate"
       id="rect12924"
       d="m 144.0002,238 c -2.00009,0 -2,2 -2,2 v 10 c 0,2 2,2 2,2 l 10,-0.0937 c 1.99991,-0.0187 2,-1.90625 2,-1.90625 v -10 c 0,-2 -2,-2 -2,-2 h -10 z m 5,2.03125 c 1.81426,0 3.62896,0.61811 5,1.875 V 243 h -1.8125 c -1.84307,-1.41031 -4.53193,-1.41031 -6.375,0 h -1.8125 v -1.09375 c 1.37103,-1.25689 3.18574,-1.875 5,-1.875 z m 0,3.0625 c 1.04363,0 2.0799,0.33741 2.875,1 0.0433,0.0185 0.0851,0.0394 0.125,0.0625 V 245 h -6 v -0.8125 c 0.0387,-0.0339 0.0805,-0.0652 0.125,-0.0937 0.79509,-0.66259 1.83137,-1 2.875,-1 z m 0,2.90625 c 1.10457,0 2,0.89543 2,2 0,1.10457 -0.89543,2 -2,2 -1.10457,0 -2,-0.89543 -2,-2 0,-1.10457 0.89543,-2 2,-2 z"
       class="warning" />
  </g>
  <g
     transform="translate(-141.0002,-237)"
     style="display:inline"
     id="layer10" />
  <g
     transform="translate(-141.0002,-237)"
     id="layer11" />
  <g
     transform="translate(-141.0002,-237)"
     style="display:inline"
     id="layer13" />
  <g
     transform="translate(-141.0002,-237)"
     id="layer14" />
  <g
     transform="translate(-141.0002,-237)"
     style="display:inline"
     id="layer15" />
  <g
     transform="translate(-141.0002,-237)"
     style="display:inline"
     id="g71291" />
  <g
     transform="translate(-141.0002,-237)"
     style="display:inline"
     id="g4953" />
  <g
     transform="translate(-141.0002,-237)"
     style="display:inline"
     id="layer12" />
</svg>
