<?xml version="1.0" encoding="UTF-8" standalone="no"?>
<svg
   xmlns:osb="http://www.openswatchbook.org/uri/2009/osb"
   xmlns:dc="http://purl.org/dc/elements/1.1/"
   xmlns:cc="http://creativecommons.org/ns#"
   xmlns:rdf="http://www.w3.org/1999/02/22-rdf-syntax-ns#"
   xmlns:svg="http://www.w3.org/2000/svg"
   xmlns="http://www.w3.org/2000/svg"
   width="16"
   version="1.1"
	 viewBox="-4 -4 24 24"

   id="svg7384"
   height="16">
  <metadata
     id="metadata90">
    <rdf:RDF>
      <cc:Work
         rdf:about="">
        <dc:format>image/svg+xml</dc:format>
        <dc:type
           rdf:resource="http://purl.org/dc/dcmitype/StillImage" />
        <dc:title>Gnome Symbolic Icon Theme</dc:title>
      </cc:Work>
    </rdf:RDF>
  </metadata>
  <title
     id="title9167">Gnome Symbolic Icon Theme</title>
  <defs
     id="defs7386">
    <linearGradient
       osb:paint="solid"
       id="linearGradient19282"
       gradientTransform="matrix(-2.7365795,0.28202934,-0.18908311,-0.99988321,239.54008,-879.45557)">
      <stop
         style="stop-color:#666666;stop-opacity:1;"
         offset="0"
         id="stop19284" />
    </linearGradient>
  </defs>
  <g
     transform="translate(-241.0002,-237)"
     style="display:inline"
     id="layer9">
    <path
       style="color:#f1f2f2;font-style:normal;font-variant:normal;font-weight:normal;font-stretch:normal;font-size:medium;line-height:normal;font-family:sans-serif;text-indent:0;text-align:start;text-decoration:none;text-decoration-line:none;text-decoration-style:solid;text-decoration-color:#000000;letter-spacing:normal;word-spacing:normal;text-transform:none;writing-mode:lr-tb;direction:ltr;baseline-shift:baseline;text-anchor:start;white-space:normal;clip-rule:nonzero;display:inline;overflow:visible;visibility:visible;opacity:0.5;isolation:auto;mix-blend-mode:normal;color-interpolation:sRGB;color-interpolation-filters:linearRGB;solid-color:#000000;solid-opacity:1;fill:#f1f2f2;fill-opacity:1;fill-rule:nonzero;stroke:none;stroke-width:2;stroke-linecap:butt;stroke-linejoin:miter;stroke-miterlimit:4;stroke-dasharray:none;stroke-dashoffset:0;stroke-opacity:1;marker:none;color-rendering:auto;image-rendering:auto;shape-rendering:auto;text-rendering:auto;enable-background:accumulate"
       id="path4998"
       d="m 245.0002,248 v 1.00977 h 3 V 250 h -5 v 2 h 12 v -2 h -5 v -0.99023 h 3 V 248 Z" />
    <path
       style="color:#f1f2f2;display:inline;overflow:visible;visibility:visible;opacity:0.5;fill:#f1f2f2;fill-opacity:1;fill-rule:nonzero;stroke:none;stroke-width:1;marker:none"
       id="rect5002"
       d="m 249.0002,238 c -1.64501,0 -3,1.355 -3,3 v 1 h -1 v 1.00977 h 8 V 242 h -1 v -1 c 0,-1.645 -1.35499,-3 -3,-3 z m 0,2 c 0.56413,0 1,0.43588 1,1 v 1 h -2 v -1 c 0,-0.56412 0.43587,-1 1,-1 z" />
    <path
       id="path4955-1-1"
       d="m 246.0002,245.5 a 1.5,1.5 0 0 1 -1.5,1.5 1.5,1.5 0 0 1 -1.5,-1.5 1.5,1.5 0 0 1 1.5,-1.5 1.5,1.5 0 0 1 1.5,1.5 z"
       style="display:inline;fill:#f1f2f2;fill-opacity:1;stroke:none" />
    <path
       id="path4957-2-6"
       d="m 250.0002,245.5 a 1.5,1.5 0 0 1 -1.5,1.5 1.5,1.5 0 0 1 -1.5,-1.5 1.5,1.5 0 0 1 1.5,-1.5 1.5,1.5 0 0 1 1.5,1.5 z"
       style="display:inline;fill:#f1f2f2;fill-opacity:1;stroke:none" />
    <path
       id="path4959-4-4"
       d="m 254.0002,245.5 a 1.5,1.5 0 0 1 -1.5,1.5 1.5,1.5 0 0 1 -1.5,-1.5 1.5,1.5 0 0 1 1.5,-1.5 1.5,1.5 0 0 1 1.5,1.5 z"
       style="display:inline;fill:#f1f2f2;fill-opacity:1;stroke:none" />
  </g>
  <g
     transform="translate(-241.0002,-237)"
     style="display:inline"
     id="layer10" />
  <g
     transform="translate(-241.0002,-237)"
     id="layer11" />
  <g
     transform="translate(-241.0002,-237)"
     style="display:inline"
     id="layer13" />
  <g
     transform="translate(-241.0002,-237)"
     id="layer14" />
  <g
     transform="translate(-241.0002,-237)"
     style="display:inline"
     id="layer15" />
  <g
     transform="translate(-241.0002,-237)"
     style="display:inline"
     id="g71291" />
  <g
     transform="translate(-241.0002,-237)"
     style="display:inline"
     id="g4953" />
  <g
     transform="translate(-241.0002,-237)"
     style="display:inline"
     id="layer12" />
</svg>
