<?xml version="1.0" encoding="UTF-8" standalone="no"?>
<svg
   xmlns:dc="http://purl.org/dc/elements/1.1/"
   xmlns:cc="http://creativecommons.org/ns#"
   xmlns:rdf="http://www.w3.org/1999/02/22-rdf-syntax-ns#"
   xmlns:svg="http://www.w3.org/2000/svg"
   xmlns="http://www.w3.org/2000/svg"
   width="16.00025"
   height="16"
   version="1.1"
	 viewBox="-4 -4 24 24"

   id="svg7384">
  <title
     id="title9167">Gnome Symbolic Icon Theme</title>
  <metadata
     id="metadata90">
    <rdf:RDF>
      <cc:Work
         rdf:about="">
        <dc:format>image/svg+xml</dc:format>
        <dc:type
           rdf:resource="http://purl.org/dc/dcmitype/StillImage" />
        <dc:title>Gnome Symbolic Icon Theme</dc:title>
      </cc:Work>
    </rdf:RDF>
  </metadata>
  <defs
     id="defs7386" />
  <g
     style="display:inline"
     id="layer9"
     transform="translate(-60.99995,-237)">
    <path
       style="color:#f1f2f2;display:inline;overflow:visible;visibility:visible;fill:#f1f2f2;fill-opacity:1;stroke:none;stroke-width:2;marker:none"
       id="rect7011"
       d="m 63.06245,237 c -1.150728,0 -2.0625,0.91177 -2.0625,2.0625 v 11.875 c 0,1.15073 0.911772,2.0625 2.0625,2.0625 h 11.875 c 1.150728,0 2.0625,-0.91177 2.0625,-2.0625 v -11.875 c 0,-1.15073 -0.911772,-2.0625 -2.0625,-2.0625 z m 4.0625,3.03125 h 3.78125 0.0625 c 0.0032,-1e-4 -0.0032,0.0314 0,0.0312 0.527306,-0.0204 1.072537,0.076 1.5,0.46875 0.414747,0.38112 0.59343,1.00751 0.5625,1.59375 h 0.03125 v 0.125 0.75 h -2 v -0.875 -0.0625 -0.0312 c -0.01759,-0.002 0.0033,-0.002 -0.03125,0 H 70.99995 70.9687 67.12495 c -0.02762,0 -0.02197,0.002 -0.03125,0 -0.0064,0.004 -0.02919,-0.003 -0.03125,0 -0.0073,0.0224 0.0068,0.0466 0,0.0625 v 0.0312 5.8125 c -0.02367,-0.0217 -0.0031,0.0605 0,0.0625 h 3.90625 c 0.0068,-0.0193 0.02945,-0.016 0.03125,0 8.77e-4,0.008 0,-0.0554 0,-0.0312 v -1.9375 h -2 v -2 h 3 1 v 1 2.9375 c 0,0.56264 -0.227078,0.99952 -0.5625,1.375 -0.31592,0.35364 -0.851921,0.632 -1.46875,0.625 v 0.0312 h -0.09375 -3.8125 c -0.624797,0 -0.994128,-0.24123 -1.34375,-0.5625 -0.331051,-0.30421 -0.64392,-0.78987 -0.625,-1.4375 6e-5,-0.002 -0.03131,0.002 -0.03125,0 v -0.0937 -5.8125 -0.0937 -0.0625 c 0.06247,-0.43728 0.205355,-0.88912 0.5625,-1.28125 0.357145,-0.39213 0.946079,-0.625 1.5,-0.625 z" />
  </g>
  <g
     id="layer10"
     transform="translate(-60.99995,-237)" />
  <g
     id="layer11"
     transform="translate(-60.99995,-237)" />
  <g
     id="layer12"
     transform="translate(-60.99995,-237)" />
  <g
     id="layer13"
     transform="translate(-60.99995,-237)" />
  <g
     id="layer14"
     transform="translate(-60.99995,-237)" />
  <g
     id="layer15"
     transform="translate(-60.99995,-237)" />
</svg>
