<?xml version="1.0" encoding="UTF-8" standalone="no"?>
<svg
   xmlns:dc="http://purl.org/dc/elements/1.1/"
   xmlns:cc="http://creativecommons.org/ns#"
   xmlns:rdf="http://www.w3.org/1999/02/22-rdf-syntax-ns#"
   xmlns:svg="http://www.w3.org/2000/svg"
   xmlns="http://www.w3.org/2000/svg"
   width="16"
   version="1.1"
	 viewBox="-4 -4 24 24"

   id="svg7384"
   height="16">
  <metadata
     id="metadata90">
    <rdf:RDF>
      <cc:Work
         rdf:about="">
        <dc:format>image/svg+xml</dc:format>
        <dc:type
           rdf:resource="http://purl.org/dc/dcmitype/StillImage" />
        <dc:title>Gnome Symbolic Icon Theme</dc:title>
      </cc:Work>
    </rdf:RDF>
  </metadata>
  <title
     id="title9167">Gnome Symbolic Icon Theme</title>
  <defs
     id="defs7386" />
  <g
     transform="translate(-161.0002,-258)"
     style="display:inline"
     id="layer9">
    <path
       style="color:#000000;display:inline;overflow:visible;visibility:visible;fill:#f1f2f2;fill-opacity:1;fill-rule:nonzero;stroke:none;stroke-width:1px;marker:none;enable-background:accumulate"
       id="rect5222-6"
       d="m 167.0002,259 c -1.00916,0.005 -1,1 -1,1 v 11 c 0,1 1,1 1,1 h 4 c 1,0 1,-1 1,-1 v -8 c 9e-4,-0.554 -0.446,-1 -1,-1 h -3 v -2 c 0,0 -0.009,-0.99447 -1,-1 z m 0,4 h 4 v 3.03125 l -4,-0.0312 z m 0,4 h 1 v 1 h 1 v -1 h 1 v 1 h 1 v 1 h -1 v 1 h 1 v 1 h -1 v -1 h -1 v 1 h -1 v -1 h -1 v -1 h 1 v -1 h -1 z m 1,2 v 1 h 1 v -1 z m 1,0 h 1 v -1 h -1 z" />
    <path
       style="color:#f1f2f2;font-style:normal;font-variant:normal;font-weight:normal;font-stretch:normal;font-size:medium;line-height:normal;font-family:'Bitstream Vera Sans';-inkscape-font-specification:'Bitstream Vera Sans';text-indent:0;text-align:start;text-decoration:none;text-decoration-line:none;letter-spacing:normal;word-spacing:normal;text-transform:none;writing-mode:lr-tb;direction:ltr;text-anchor:start;display:inline;overflow:visible;visibility:visible;fill:#f1f2f2;fill-opacity:1;stroke:none;stroke-width:2;marker:none;enable-background:accumulate"
       id="rect3217-6-2-2-4-8-8"
       d="m 177.0002,263 v 1 c 0,0.25689 -0.12983,0.52846 -0.3125,0.71875 L 175.40645,266 l 1.28125,1.28125 c 0.18267,0.19029 0.3125,0.46186 0.3125,0.71875 v 1 h -1 c -0.30945,0 -0.55232,-0.0903 -0.75,-0.28125 L 172.59395,266 175.2502,263.28125 C 175.44788,263.0903 175.69075,263 176.0002,263 Z" />
    <path
       style="color:#f1f2f2;font-style:normal;font-variant:normal;font-weight:normal;font-stretch:normal;font-size:medium;line-height:normal;font-family:'Bitstream Vera Sans';-inkscape-font-specification:'Bitstream Vera Sans';text-indent:0;text-align:start;text-decoration:none;text-decoration-line:none;letter-spacing:normal;word-spacing:normal;text-transform:none;writing-mode:lr-tb;direction:ltr;text-anchor:start;display:inline;overflow:visible;visibility:visible;fill:#f1f2f2;fill-opacity:1;stroke:none;stroke-width:2;marker:none;enable-background:accumulate"
       id="path5302"
       d="m 161.0002,263 v 1 c 0,0.25689 0.12983,0.52846 0.3125,0.71875 l 1.28125,1.28125 -1.28125,1.28125 c -0.18267,0.19029 -0.3125,0.46186 -0.3125,0.71875 v 1 h 1 c 0.30945,0 0.55232,-0.0903 0.75,-0.28125 L 165.40645,266 162.7502,263.28125 C 162.55252,263.0903 162.30965,263 162.0002,263 Z" />
  </g>
  <g
     transform="translate(-161.0002,-258)"
     style="display:inline"
     id="layer10" />
  <g
     transform="translate(-161.0002,-258)"
     id="layer11" />
  <g
     transform="translate(-161.0002,-258)"
     style="display:inline"
     id="layer13" />
  <g
     transform="translate(-161.0002,-258)"
     id="layer14" />
  <g
     transform="translate(-161.0002,-258)"
     style="display:inline"
     id="layer15" />
  <g
     transform="translate(-161.0002,-258)"
     style="display:inline"
     id="g71291" />
  <g
     transform="translate(-161.0002,-258)"
     style="display:inline"
     id="g4953" />
  <g
     transform="translate(-161.0002,-258)"
     style="display:inline"
     id="layer12" />
</svg>
