<?xml version="1.0" encoding="UTF-8" standalone="no"?>
<svg
   xmlns:dc="http://purl.org/dc/elements/1.1/"
   xmlns:cc="http://creativecommons.org/ns#"
   xmlns:rdf="http://www.w3.org/1999/02/22-rdf-syntax-ns#"
   xmlns:svg="http://www.w3.org/2000/svg"
   xmlns="http://www.w3.org/2000/svg"
   width="16"
   version="1.1"
	 viewBox="-4 -4 24 24"

   id="svg7384"
   height="16">
  <metadata
     id="metadata90">
    <rdf:RDF>
      <cc:Work
         rdf:about="">
        <dc:format>image/svg+xml</dc:format>
        <dc:type
           rdf:resource="http://purl.org/dc/dcmitype/StillImage" />
        <dc:title>Gnome Symbolic Icon Theme</dc:title>
      </cc:Work>
    </rdf:RDF>
  </metadata>
  <title
     id="title9167">Gnome Symbolic Icon Theme</title>
  <defs
     id="defs7386" />
  <g
     transform="translate(-141.0002,-257)"
     style="display:inline"
     id="layer9">
    <path
       style="color:#f1f2f2;display:inline;overflow:visible;visibility:visible;opacity:0.35;fill:#f1f2f2;fill-opacity:1;fill-rule:nonzero;stroke:none;stroke-width:3;marker:none"
       id="rect4162"
       d="m 141.02205,266 v 3 3 h 1 2 v -3 h -2 v -3 z" />
    <path
       style="color:#f1f2f2;display:inline;overflow:visible;visibility:visible;opacity:0.35;fill:#f1f2f2;fill-opacity:1;fill-rule:nonzero;stroke:none;stroke-width:3;marker:none"
       id="rect4162-9"
       d="m 152.99995,257.0221 v 7 h 2 v 5 h -2 v 3 h 3 v -3 -5 -1 -6 z" />
    <path
       style="color:#f1f2f2;display:inline;overflow:visible;visibility:visible;opacity:0.35;fill:#f1f2f2;fill-opacity:1;fill-rule:nonzero;stroke:none;stroke-width:3;marker:none"
       id="rect4162-92"
       d="m 144.99995,269 v 3 h 3 v -3 z" />
    <path
       style="color:#f1f2f2;display:inline;overflow:visible;visibility:visible;opacity:0.35;fill:#f1f2f2;fill-opacity:1;fill-rule:nonzero;stroke:none;stroke-width:3;marker:none"
       id="rect4162-92-3"
       d="m 148.99995,269 v 3 h 3 v -3 z" />
    <path
       style="color:#f1f2f2;display:inline;overflow:visible;visibility:visible;opacity:0.35;fill:#f1f2f2;fill-opacity:1;fill-rule:nonzero;stroke:none;stroke-width:3;marker:none"
       id="rect4162-92-5"
       d="m 144.99995,263 v 1 h 3 v -1 z" />
    <path
       style="color:#f1f2f2;display:inline;overflow:visible;visibility:visible;opacity:0.35;fill:#f1f2f2;fill-opacity:1;fill-rule:nonzero;stroke:none;stroke-width:3;marker:none"
       id="rect4162-92-3-0"
       d="m 148.99995,260 v 4 h 3 v -4 z" />
    <path
       id="path4955-3"
       d="m 29,209 a 1,1 0 0 1 -1,1 1,1 0 0 1 -1,-1 1,1 0 0 1 1,-1 1,1 0 0 1 1,1 z"
       style="display:inline;fill:#f1f2f2;fill-opacity:1;stroke:none"
       transform="matrix(1.5,0,0,1.5,102.5,-46.999999)" />
    <path
       id="path4957-3"
       d="m 29,209 a 1,1 0 0 1 -1,1 1,1 0 0 1 -1,-1 1,1 0 0 1 1,-1 1,1 0 0 1 1,1 z"
       style="display:inline;fill:#f1f2f2;fill-opacity:1;stroke:none"
       transform="matrix(1.5,0,0,1.5,106.5,-46.999999)" />
    <path
       id="path4959-7"
       d="m 29,209 a 1,1 0 0 1 -1,1 1,1 0 0 1 -1,-1 1,1 0 0 1 1,-1 1,1 0 0 1 1,1 z"
       style="display:inline;fill:#f1f2f2;fill-opacity:1;stroke:none"
       transform="matrix(1.5,0,0,1.5,110.49995,-46.999999)" />
  </g>
  <g
     transform="translate(-141.0002,-257)"
     style="display:inline"
     id="layer10" />
  <g
     transform="translate(-141.0002,-257)"
     id="layer11" />
  <g
     transform="translate(-141.0002,-257)"
     style="display:inline"
     id="layer13" />
  <g
     transform="translate(-141.0002,-257)"
     id="layer14" />
  <g
     transform="translate(-141.0002,-257)"
     style="display:inline"
     id="layer15" />
  <g
     transform="translate(-141.0002,-257)"
     style="display:inline"
     id="g71291" />
  <g
     transform="translate(-141.0002,-257)"
     style="display:inline"
     id="g4953" />
  <g
     transform="translate(-141.0002,-257)"
     style="display:inline"
     id="layer12" />
</svg>
