<?xml version="1.0" encoding="UTF-8" standalone="no"?>
<svg
   xmlns:dc="http://purl.org/dc/elements/1.1/"
   xmlns:cc="http://creativecommons.org/ns#"
   xmlns:rdf="http://www.w3.org/1999/02/22-rdf-syntax-ns#"
   xmlns:svg="http://www.w3.org/2000/svg"
   xmlns="http://www.w3.org/2000/svg"
   width="16.000031"
   version="1.1"
	 viewBox="-4 -4 24 24"

   id="svg7384"
   height="16">
  <metadata
     id="metadata90">
    <rdf:RDF>
      <cc:Work
         rdf:about="">
        <dc:format>image/svg+xml</dc:format>
        <dc:type
           rdf:resource="http://purl.org/dc/dcmitype/StillImage" />
        <dc:title>Gnome Symbolic Icon Theme</dc:title>
      </cc:Work>
    </rdf:RDF>
  </metadata>
  <title
     id="title9167">Gnome Symbolic Icon Theme</title>
  <defs
     id="defs7386" />
  <g
     transform="translate(-401.00018,-177)"
     style="display:inline"
     id="layer9">
    <path
       style="color:#000000;font-style:normal;font-variant:normal;font-weight:normal;font-stretch:normal;font-size:medium;line-height:normal;font-family:Sans;-inkscape-font-specification:Sans;text-indent:0;text-align:start;text-decoration:none;text-decoration-line:none;letter-spacing:normal;word-spacing:normal;text-transform:none;writing-mode:lr-tb;direction:ltr;baseline-shift:baseline;text-anchor:start;display:inline;overflow:visible;visibility:visible;opacity:0.5;fill:#f1f2f2;fill-opacity:1;stroke:none;stroke-width:1.99999976;marker:none;enable-background:accumulate"
       id="path16225"
       d="m 406.0002,184 c -0.30943,4e-5 -0.61463,0.0905 -0.8125,0.28125 L 401.59395,188 l 3.65625,3.71875 c 0.19771,0.19101 0.44055,0.28124 0.75,0.28125 h 1 v -1 c -5e-5,-0.25688 -0.12958,-0.52871 -0.3125,-0.71875 L 405.40645,189 h 5.59375 v -2 h -5.625 l 1.21875,-1.28125 c 0.18273,-0.19024 0.40624,-0.46185 0.40625,-0.71875 v -1 z" />
    <path
       style="color:#f1f2f2;display:inline;overflow:visible;visibility:visible;fill:#cc0000;fill-opacity:1;stroke:none;stroke-width:2;marker:none"
       id="path3761-2-3-5-4-8-9-8-0-1-7-8-8"
       d="m 412.00018,188 h 1.375 l 1.125,1.09375 L 415.59393,188 h 1.40625 v 1.46875 l -1.09375,1.0625 1.09375,1.0625 V 193 h -1.4375 l -1.0625,-1.0625 -1.0625,1.0625 h -1.4375 v -1.40625 l 1.0625,-1.0625 -1.0625,-1.0625 z" />
    <path
       style="color:#000000;font-style:normal;font-variant:normal;font-weight:normal;font-stretch:normal;font-size:medium;line-height:normal;font-family:Sans;-inkscape-font-specification:Sans;text-indent:0;text-align:start;text-decoration:none;text-decoration-line:none;letter-spacing:normal;word-spacing:normal;text-transform:none;writing-mode:lr-tb;direction:ltr;baseline-shift:baseline;text-anchor:start;display:inline;overflow:visible;visibility:visible;opacity:0.5;fill:#f1f2f2;fill-opacity:1;stroke:none;stroke-width:1.99999976;marker:none;enable-background:accumulate"
       id="path16205-6"
       d="m 412.0002,186 c 0.30943,-4e-5 0.61463,-0.0905 0.8125,-0.28125 L 416.40645,182 412.7502,178.28125 c -0.19771,-0.19101 -0.44055,-0.28124 -0.75,-0.28125 h -1 v 1 c 5e-5,0.25688 0.12958,0.52871 0.3125,0.71875 L 412.59395,181 h -4.59374 c -0.52831,-0.007 -1,0.47164 -1,1 0,0.52836 0.47169,1.00747 1,1 h 4.62499 l -1.21875,1.28125 c -0.18273,0.19024 -0.40624,0.46185 -0.40625,0.71875 v 1 z" />
  </g>
  <g
     transform="translate(-401.00018,-177)"
     style="display:inline"
     id="layer10" />
  <g
     transform="translate(-401.00018,-177)"
     id="layer11" />
  <g
     transform="translate(-401.00018,-177)"
     style="display:inline"
     id="layer13" />
  <g
     transform="translate(-401.00018,-177)"
     id="layer14" />
  <g
     transform="translate(-401.00018,-177)"
     style="display:inline"
     id="layer15" />
  <g
     transform="translate(-401.00018,-177)"
     style="display:inline"
     id="g71291" />
  <g
     transform="translate(-401.00018,-177)"
     style="display:inline"
     id="g4953" />
  <g
     transform="translate(-401.00018,-177)"
     style="display:inline"
     id="layer12" />
</svg>
