<?xml version="1.0" encoding="UTF-8" standalone="no"?>
<svg id="svg6" xmlns="http://www.w3.org/2000/svg" viewBox="-4 -4 24 24" version="1.1"><path id="rect4493" style="fill:#323232" d="m8.3574 8c0.3562 0 0.6426-0.2864 0.6426-0.6426v-7.3574h-9v8z"/><rect id="rect4491" style="fill:#f1f2f2" transform="scale(-1)" ry=".5" height="7" width="8" y="-8" x="-9"/><path id="path4725" style="color:#f1f2f2;fill:#323232" d="m5.4617 1.981c0.822 0 1.4811 0.72574 1.5 1.4845l0.0383 1.5345h0.5c0.277 0 0.5 0.205 0.5 0.461v1.539h-6v-1.539c0-0.256 0.223-0.461 0.5-0.461h0.5l-0.0383-1.5345c-0.01896-0.75976 0.678-1.4845 1.5-1.4845zm0 1.0225h-1c-0.286 0-0.50658 0.19808-0.5 0.462l0.0383 1.5345h2l-0.0383-1.5345c-0.0066-0.2639-0.214-0.462-0.5-0.462z" overflow="visible"/></svg>
