<?xml version="1.0" encoding="UTF-8" standalone="no"?>
<svg id="svg2" xmlns="http://www.w3.org/2000/svg" viewBox="-4 -4 24 24" version="1.1"><path id="rect4586" style="fill:#ffffff" d="m1 3v6h2v-6h-2zm4 0v10h2v-5-3h2v2h2v-2h2v2h2v-2-2h-8-2zm-4 8v2h2v-2h-2z"/><path id="path4718" style="color:#000000;text-indent:0;text-decoration-line:none;text-transform:none;fill:#f1f2f2" d="m-9.5-4.026c-3.578 0-6.5 2.922-6.5 6.5s2.922 6.5 6.5 6.5c0.17 0 0.333-0.018 0.5-0.031v-2.031c-0.167 0.018-0.327 0.062-0.5 0.062a4.485 4.485 0 0 1 -4.5 -4.5c0-2.497 2.003-4.5 4.5-4.5s4.5 2.003 4.5 4.5c0 0.173-0.044 0.333-0.063 0.5h2.032c0.013-0.167 0.031-0.33 0.031-0.5 0-3.578-2.922-6.5-6.5-6.5z" overflow="visible" font-weight="400"/><path id="path4720" style="color:#000000;text-indent:0;text-decoration-line:none;text-transform:none;fill:#f1f2f2" d="m-9.594-1.026a0.5 0.5 0 0 0 -0.406 0.5v2.5h-1.5a0.5 0.5 0 1 0 0 1h2a0.5 0.5 0 0 0 0.5 -0.5v-3a0.5 0.5 0 0 0 -0.594 -0.5z" overflow="visible" font-weight="400"/><path id="path4722" style="color:#f1f2f2;fill:#5e86d7" d="m8.875 15.956a0.86 0.86 0 0 1 -0.875 -0.866v-6.195a0.86 0.86 0 0 1 0.875 -0.868h6.25a0.86 0.86 0 0 1 0.875 0.868v6.194a0.86 0.86 0 0 1 -0.875 0.868zm2.125-0.99h2v-3.966h-2zm0-4.957h2v-0.991h-2z" class="warning" overflow="visible"/></svg>
