<svg xmlns="http://www.w3.org/2000/svg" xmlns:osb="http://www.openswatchbook.org/uri/2009/osb" version="1.1" viewBox="-4 -4 24 24"><title>Gnome Symbolic Icon Theme</title><g transform="translate(-403.03 185)"><path style="color:#000000;enable-background:new" d="m405-185v2 12c0 2-1 2-1 2h1s1 0 1-1h1c0 1-1 1-1 1h1s1 0 1-1h6c0 1-0.67515 1-1 1h1s1 0 1-1h1c0 1-1 1-1 1h1s1 0 1-2v-12-2h-3v2 2h-6v-2-2zm1 1h1v1h-1zm9 0h1v1h-1zm-9 2h1v1h-1zm9 0h1v1h-1zm-9 2h1v1h-1zm2 0h6v4h-6zm7 0h1v1h-1zm-9 2h1v1h-1zm9 0h1v1h-1zm-9 2h1v1h-1zm9 0h1v1h-1zm-7 1h6v4h-6zm-2 1h1v1h-1zm9 0h1v1h-1zm-9 2h1v1h-1zm9 0h1v1h-1z" fill="#f1f2f2"/></g></svg>
