<svg xmlns="http://www.w3.org/2000/svg" version="1.1" viewBox="-4 -4 24 24"><title>Gnome Symbolic Icon Theme</title><g transform="translate(-143 -175)" fill="#f1f2f2"><path style="color:#000000" d="m16.5 22.688a1.75 1.8125 0 0 1 -1.75 1.812 1.75 1.8125 0 0 1 -1.75 -1.812 1.75 1.8125 0 0 1 1.75 -1.813 1.75 1.8125 0 0 1 1.75 1.813z" transform="matrix(.29307 0 0 .27586 151.16 179.24)"/><path d="m153 191h5s0.33504-1 0-2c-0.18036 0.15698-1.5656 1-2.5 1-0.93443 0-2.1393-0.68603-2.5-1-0.31243 1.2258 0 2 0 2z"/><path d="m143 175v16h8.5v-2h-6.5v-12h12v4h2v-6z"/><path d="m145 181v2.2188c0 2.3186 2.7814 4.586 6.5625 4.75-0.62469-0.74109-1.0312-1.6716-1.0312-2.7188 0-1.2461 0.61867-2.4721 1.4688-3.25-6 0.76452-7-1-7-1z"/><path d="m150 180c-1.6667-1.4366-3.3333-1.3936-5 0 0-1.1046 1.1193-2 2.5-2s2.5 0.89542 2.5 2z"/><path d="m152 180c1.6667-1.4366 3.3333-1.3936 5 0 0-1.1046-1.1193-2-2.5-2s-2.5 0.89542-2.5 2z"/><path d="m155.5 182c-1.933 0-3.5 1.567-3.5 3.5s1.567 3.5 3.5 3.5 3.5-1.567 3.5-3.5-1.567-3.5-3.5-3.5zm0 2c0.82955 0 1.5 0.67158 1.5 1.5s-0.67045 1.5-1.5 1.5-1.5-0.67158-1.5-1.5 0.67045-1.5 1.5-1.5z"/></g></svg>
