<?xml version="1.0" encoding="UTF-8" standalone="no"?>
<svg
   xmlns:dc="http://purl.org/dc/elements/1.1/"
   xmlns:cc="http://creativecommons.org/ns#"
   xmlns:rdf="http://www.w3.org/1999/02/22-rdf-syntax-ns#"
   xmlns:svg="http://www.w3.org/2000/svg"
   xmlns="http://www.w3.org/2000/svg"
   width="16"
   height="16"
   version="1.1"
	 viewBox="-4 -4 24 24"

   id="svg7384">
  <metadata
     id="metadata90">
    <rdf:RDF>
      <cc:Work
         rdf:about="">
        <dc:format>image/svg+xml</dc:format>
        <dc:type
           rdf:resource="http://purl.org/dc/dcmitype/StillImage" />
        <dc:title>Gnome Symbolic Icon Theme</dc:title>
      </cc:Work>
    </rdf:RDF>
  </metadata>
  <title
     id="title9167">Gnome Symbolic Icon Theme</title>
  <defs
     id="defs7386" />
  <g
     style="display:inline"
     id="layer9"
     transform="translate(-482,-300)" />
  <g
     id="layer10"
     transform="translate(-482,-300)" />
  <g
     id="layer11"
     transform="translate(-482,-300)" />
  <g
     id="layer12"
     transform="translate(-482,-300)" />
  <g
     id="layer13"
     transform="translate(-482,-300)" />
  <g
     id="layer14"
     transform="translate(-482,-300)">
    <path
       style="color:#f1f2f2;display:inline;overflow:visible;visibility:visible;fill:#f1f2f2;fill-opacity:1;fill-rule:nonzero;stroke:none;stroke-width:2;marker:none;enable-background:accumulate"
       id="rect7268"
       d="m 485.0002,308 h 10 v 7.05898 c 0,0.4922 -0.47266,0.9375 -0.99609,0.9375 h -8.00391 c -0.53906,0 -1,-0.42964 -1,-1 z" />
    <path
       style="color:#000000;font-style:normal;font-variant:normal;font-weight:normal;font-stretch:normal;font-size:medium;line-height:normal;font-family:Sans;-inkscape-font-specification:Sans;text-indent:0;text-align:start;text-decoration:none;text-decoration-line:none;letter-spacing:normal;word-spacing:normal;text-transform:none;writing-mode:lr-tb;direction:ltr;baseline-shift:baseline;text-anchor:start;display:inline;overflow:visible;visibility:visible;fill:#f1f2f2;fill-opacity:1;stroke:none;stroke-width:2;marker:none;enable-background:accumulate"
       id="path7270"
       d="m 488.6875,302.96875 a 1.0001,1.0001 0 0 0 -0.65625,0.375 l -2.8125,3.46875 A 1.0001,1.0001 0 0 0 485,307.4375 v 1 a 1.0001,1.0001 0 1 0 2,0 v -0.65625 l 2.59375,-3.15625 a 1.0001,1.0001 0 0 0 -0.90625,-1.65625 z" />
    <path
       style="color:#000000;font-style:normal;font-variant:normal;font-weight:normal;font-stretch:normal;font-size:medium;line-height:normal;font-family:Sans;-inkscape-font-specification:Sans;text-indent:0;text-align:start;text-decoration:none;text-decoration-line:none;letter-spacing:normal;word-spacing:normal;text-transform:none;writing-mode:lr-tb;direction:ltr;baseline-shift:baseline;text-anchor:start;display:inline;overflow:visible;visibility:visible;fill:#f1f2f2;fill-opacity:1;stroke:none;stroke-width:2;marker:none;enable-background:accumulate"
       id="path7272"
       d="m 490.90625,305.96875 a 1.0001221,1.0001221 0 1 0 -0.0312,2 l 2.15625,0.375 V 308.5 a 1.0001,1.0001 0 1 0 2,0 v -1 a 1.0001,1.0001 0 0 0 -0.8125,-1 l -3,-0.5 a 1.0001,1.0001 0 0 0 -0.3125,-0.0312 z" />
  </g>
  <g
     style="display:inline"
     id="layer15"
     transform="translate(-482,-300)" />
  <g
     style="display:inline"
     id="g4953"
     transform="translate(-482,-300)" />
</svg>
