<?xml version="1.0" encoding="UTF-8" standalone="no"?>
<svg id="svg39" xmlns="http://www.w3.org/2000/svg" viewBox="-4 -4 24 24" version="1.1"><path id="path4489" style="stroke-width:.39396;fill:#f1f2f2" d="m8 3c-1.2975 0-2.3495 1.1473-2.6973 2.416-0.3962-0.2224-0.8246-0.3828-1.3027-0.3828-1.5771 0-3.0566 1.1688-3.0566 2.8555-0.00004 0.3536 0.0917 0.678 0.1953 0.9941-0.78479 0.4702-1.1387 1.3362-1.1387 2.3672 0.00042008 1.519 1.1523 2.75 2.5723 2.75h10.856c1.42 0 2.572-1.231 2.572-2.75 0-1.03-0.354-1.8962-1.139-2.3672 0.104-0.3161 0.196-0.6405 0.196-0.9941 0-1.6867-1.48-2.8555-3.057-2.8555-0.478 0-0.907 0.1604-1.303 0.3828-0.348-1.2687-1.3995-2.416-2.697-2.416zm-1.8008 3h0.6016c0.0586 0 0.108 0.0265 0.1445 0.0664a2.5 2.5 0 0 1 0.5547 -0.0664 2.5 2.5 0 0 1 2.5 2.5 2.5 2.5 0 0 1 -2.5 2.5 2.5 2.5 0 0 1 -0.5 -0.055v1.856c0 0.111-0.0884 0.199-0.1992 0.199h-0.6016c-0.1108 0-0.1992-0.088-0.1992-0.199v-6.6018c0-0.1108 0.0884-0.1992 0.1992-0.1992zm1.3008 1a1.5 1.5 0 0 0 -0.5 0.0879v2.8242a1.5 1.5 0 0 0 0.5 0.0879 1.5 1.5 0 0 0 1.5 -1.5 1.5 1.5 0 0 0 -1.5 -1.5z"/></svg>
