<?xml version="1.0" encoding="UTF-8" standalone="no"?>
<svg
   xmlns:dc="http://purl.org/dc/elements/1.1/"
   xmlns:cc="http://creativecommons.org/ns#"
   xmlns:rdf="http://www.w3.org/1999/02/22-rdf-syntax-ns#"
   xmlns:svg="http://www.w3.org/2000/svg"
   xmlns="http://www.w3.org/2000/svg"
   id="svg7384"
   height="16"
   version="1.1"
	 viewBox="-4 -4 24 24"

   width="15.999999">
  <metadata
     id="metadata90">
    <rdf:RDF>
      <cc:Work
         rdf:about="">
        <dc:format>image/svg+xml</dc:format>
        <dc:type
           rdf:resource="http://purl.org/dc/dcmitype/StillImage" />
        <dc:title>Gnome Symbolic Icon Theme</dc:title>
      </cc:Work>
    </rdf:RDF>
  </metadata>
  <title
     id="title9167">Gnome Symbolic Icon Theme</title>
  <defs
     id="defs7386" />
  <g
     transform="translate(-243.0002,-509)"
     style="display:inline"
     id="layer9" />
  <g
     transform="translate(-243.0002,-509)"
     id="layer10" />
  <g
     transform="translate(-243.0002,-509)"
     id="layer11">
    <path
       style="color:#000000;display:inline;overflow:visible;visibility:visible;fill:#f1f2f2;fill-opacity:1;fill-rule:nonzero;stroke:none;stroke-width:1;marker:none;enable-background:accumulate"
       id="rect5333-9"
       d="m 244.5019,517 c -0.83194,0 -1.5017,0.669 -1.5017,1.5 v 4 c 0,0.831 0.66976,1.5 1.5017,1.5 h 9.01024 c 0.83194,0 1.5017,-0.669 1.5017,-1.5 v -4 c 0,-0.831 -0.66976,-1.5 -1.5017,-1.5 z m 0.0626,1 c 3.18558,0.26867 6.11566,0.23073 8.88509,0 0.30226,-0.0252 0.56314,0.25953 0.56314,0.5625 v 2.875 c 0,0.30297 -0.26175,0.52842 -0.56314,0.5625 -3.00415,0.33966 -5.96427,0.32696 -8.88509,0 -0.30144,-0.0337 -0.56314,-0.25953 -0.56314,-0.5625 v -2.875 c 0,-0.30297 0.26089,-0.58799 0.56314,-0.5625 z" />
    <path
       style="color:#000000;display:inline;overflow:visible;visibility:visible;fill:#f1f2f2;fill-opacity:1;fill-rule:nonzero;stroke:none;stroke-width:1;marker:none;enable-background:accumulate"
       id="rect5333-9-8"
       d="m 252.511,509 c -0.83194,0 -1.5017,0.669 -1.5017,1.5 v 4 c 0,0.831 0.66976,1.5 1.5017,1.5 h 4.00455 c 0.83195,0 1.50171,-0.669 1.50171,-1.5 v -4 c 0,-0.831 -0.66976,-1.5 -1.50171,-1.5 z m 0.0626,1 c 1.29314,0.1279 2.58627,0.12207 3.87941,0 0.30197,-0.0285 0.56314,0.25953 0.56314,0.5625 v 2.875 c 0,0.30297 -0.26208,0.52562 -0.56314,0.5625 -1.25472,0.1537 -2.54147,0.17922 -3.87941,0 -0.30063,-0.0403 -0.56314,-0.25953 -0.56314,-0.5625 v -2.875 c 0,-0.30297 0.2613,-0.59235 0.56314,-0.5625 z" />
    <path
       style="color:#000000;display:inline;overflow:visible;visibility:visible;fill:#f1f2f2;fill-opacity:1;fill-rule:nonzero;stroke:none;stroke-width:1;marker:none;enable-background:accumulate"
       id="path11636"
       d="m 244.5019,510 c -0.83194,0 -1.5017,0.669 -1.5017,1.5 v 3 c 0,0.831 0.66976,1.5 1.5017,1.5 h 4.00455 c 0.83195,0 1.50171,-0.669 1.50171,-1.5 v -3 c 0,-0.831 -0.66976,-1.5 -1.50171,-1.5 z m 0.0626,1 c 1.69195,0.19941 2.84796,0.13085 3.8794,0 0.3009,-0.0382 0.56314,0.25953 0.56314,0.5625 v 2.875 c 0,0.30297 -0.26231,0.5238 -0.56314,0.5625 -1.21498,0.1563 -2.49789,0.17677 -3.8794,0 -0.30087,-0.0385 -0.56314,-0.25953 -0.56314,-0.5625 v -2.875 c 0,-0.30297 0.2619,-0.598 0.56314,-0.5625 z" />
  </g>
  <g
     transform="translate(-243.0002,-509)"
     id="layer13" />
  <g
     transform="translate(-243.0002,-509)"
     id="layer14" />
  <g
     transform="translate(-243.0002,-509)"
     style="display:inline"
     id="layer15" />
  <g
     transform="translate(-243.0002,-509)"
     style="display:inline"
     id="g71291" />
  <g
     transform="translate(-243.0002,-509)"
     style="display:inline"
     id="g4953" />
  <g
     transform="translate(-243.0002,-509)"
     style="display:inline"
     id="layer12" />
</svg>
