<?xml version="1.0" encoding="UTF-8" standalone="no"?>
<svg
   xmlns:dc="http://purl.org/dc/elements/1.1/"
   xmlns:cc="http://creativecommons.org/ns#"
   xmlns:rdf="http://www.w3.org/1999/02/22-rdf-syntax-ns#"
   xmlns:svg="http://www.w3.org/2000/svg"
   xmlns="http://www.w3.org/2000/svg"
   width="16"
   height="16"
   version="1.1"
	 viewBox="-4 -4 24 24"

   id="svg7384">
  <title
     id="title9167">Gnome Symbolic Icon Theme</title>
  <metadata
     id="metadata90">
    <rdf:RDF>
      <cc:Work
         rdf:about="">
        <dc:format>image/svg+xml</dc:format>
        <dc:type
           rdf:resource="http://purl.org/dc/dcmitype/StillImage" />
        <dc:title>Gnome Symbolic Icon Theme</dc:title>
      </cc:Work>
    </rdf:RDF>
  </metadata>
  <defs
     id="defs7386" />
  <g
     style="display:inline"
     id="layer9"
     transform="translate(-41.982553,-381.00459)" />
  <g
     id="layer10"
     transform="translate(-41.982553,-381.00459)" />
  <g
     id="layer11"
     transform="translate(-41.982553,-381.00459)">
    <path
       style="display:inline;overflow:visible;visibility:visible;fill:#f1f2f2;fill-opacity:1;stroke:none;stroke-width:2;marker:none"
       id="path3850"
       d="m 49.982553,381.00459 c -4.418276,0 -8,3.58172 -8,8 0,4.41828 3.581724,8 8,8 4.418276,0 8,-3.58172 8,-8 0,-4.41828 -3.581724,-8 -8,-8 z m 0,1.94321 c 1.121291,0 2.030093,0.9088 2.030093,2.03009 0,1.12128 -0.908802,2.03008 -2.030093,2.03008 -1.121291,0 -2.030093,-0.9088 -2.030093,-2.03008 0,-1.12129 0.908802,-2.03009 2.030093,-2.03009 z m -4.797388,4.12017 c 3.206661,-0.0458 6.412936,-0.0154 9.619527,0.0113 0,0 0.430917,-0.008 0.430917,0.42408 v 0.20861 C 55.235609,387.93778 55,388 55,388 l -2.985178,0.57817 v 2.1109 l 1.354691,3.90641 c 0.136799,0.22572 -0.158388,0.2902 -0.158388,0.2902 l -0.526496,0.005 c -0.253171,0 -0.348086,-0.21303 -0.348086,-0.21303 l -2.071779,-3.59156 c -0.222279,-0.5041 -0.236169,-0.43981 -0.44654,7.7e-4 l -2.168947,3.58622 c -0.07254,0.21764 -0.355596,0.22239 -0.355596,0.22239 l -0.570299,-0.009 c 0,0 -0.208476,-0.006 -0.160647,-0.20918 l 1.387549,-3.9888 v -2.1109 l -2.891946,-0.5548 c -0.232448,-0.0787 -0.328841,-0.29434 -0.328841,-0.29434 v -0.21764 c 0,0 -0.0097,-0.44343 0.455668,-0.44343 z" />
  </g>
  <g
     id="layer12"
     transform="translate(-41.982553,-381.00459)" />
  <g
     id="layer13"
     transform="translate(-41.982553,-381.00459)" />
  <g
     id="layer14"
     transform="translate(-41.982553,-381.00459)" />
  <g
     id="layer15"
     transform="translate(-41.982553,-381.00459)" />
</svg>
