<?xml version="1.0" encoding="UTF-8" standalone="no"?>
<svg
   xmlns:dc="http://purl.org/dc/elements/1.1/"
   xmlns:cc="http://creativecommons.org/ns#"
   xmlns:rdf="http://www.w3.org/1999/02/22-rdf-syntax-ns#"
   xmlns:svg="http://www.w3.org/2000/svg"
   xmlns="http://www.w3.org/2000/svg"
   width="16"
   version="1.1"
	 viewBox="-4 -4 24 24"

   id="svg7384"
   height="16">
  <metadata
     id="metadata90">
    <rdf:RDF>
      <cc:Work
         rdf:about="">
        <dc:format>image/svg+xml</dc:format>
        <dc:type
           rdf:resource="http://purl.org/dc/dcmitype/StillImage" />
        <dc:title>Gnome Symbolic Icon Theme</dc:title>
      </cc:Work>
    </rdf:RDF>
  </metadata>
  <title
     id="title9167">Gnome Symbolic Icon Theme</title>
  <defs
     id="defs7386" />
  <g
     transform="translate(-323.02908,-649.02581)"
     style="display:inline"
     id="layer9" />
  <g
     transform="translate(-323.02908,-649.02581)"
     id="layer10" />
  <g
     transform="translate(-323.02908,-649.02581)"
     id="layer11">
    <path
       style="color:#000000;display:inline;overflow:visible;visibility:visible;opacity:0.5;fill:#c3c3c3;fill-opacity:1;fill-rule:nonzero;stroke:none;stroke-width:2;marker:none;enable-background:accumulate"
       id="rect68948"
       d="m 331.9377,653 c 0.0187,0.16677 0.0625,0.32822 0.0625,0.5 0,2.48528 -2.01472,4.5 -4.5,4.5 -0.11769,0 -0.22834,-0.0224 -0.34375,-0.0312 v 2.21875 c 0,1.00412 0.80838,1.8125 1.8125,1.8125 l 1.54511,-5e-5 2,2.04688 2.0625,-2.04688 h 1.61114 c 1.00413,0 1.8125,-0.80838 1.8125,-1.8125 v -5.375 c 0,-1.00412 -0.80837,-1.8125 -1.8125,-1.8125 z" />
    <path
       style="color:#000000;display:inline;overflow:visible;visibility:visible;fill:#f1f2f2;fill-opacity:1;fill-rule:nonzero;stroke:none;marker:none;enable-background:accumulate"
       id="path68953"
       d="m 327.5002,650 c -1.933,0 -3.5,1.567 -3.5,3.5 0,1.933 1.567,3.5 3.5,3.5 1.933,0 3.5,-1.567 3.5,-3.5 0,-1.933 -1.567,-3.5 -3.5,-3.5 z m -0.53125,1 h 1.03125 l -0.0625,1.375 a 0.19951718,0.19951718 0 0 0 0,0.0625 0.19951718,0.19951718 0 0 0 0,0.0312 0.19951718,0.19951718 0 0 0 0.125,0.125 0.19951718,0.19951718 0 0 0 0.0312,0 0.19951718,0.19951718 0 0 0 0.0625,0 0.19951718,0.19951718 0 0 0 0.0625,0 0.19951718,0.19951718 0 0 0 0.0312,-0.0312 l 1.15625,-0.75 0.5,0.90625 -1.21875,0.625 a 0.19951718,0.19951718 0 0 0 -0.0312,0 0.19951718,0.19951718 0 0 0 -0.0312,0.0312 0.19951718,0.19951718 0 0 0 -0.0312,0.0937 0.19951718,0.19951718 0 0 0 0,0.0625 0.19951718,0.19951718 0 0 0 0,0.0312 0.19951718,0.19951718 0 0 0 0.0312,0.0625 0.19951718,0.19951718 0 0 0 0.0312,0.0312 0.19951718,0.19951718 0 0 0 0.0312,0.0312 l 1.25,0.625 -0.53125,0.90625 -1.15625,-0.781 a 0.19951718,0.19951718 0 0 0 -0.0312,0 0.19951718,0.19951718 0 0 0 -0.0625,-0.0312 0.19951718,0.19951718 0 0 0 -0.0625,0 0.19951718,0.19951718 0 0 0 -0.125,0.0937 0.19951718,0.19951718 0 0 0 -0.0312,0.0312 0.19951718,0.19951718 0 0 0 0,0.0312 0.19951718,0.19951718 0 0 0 0,0.0625 L 328.0002,656 h -1.03125 l 0.0937,-1.375 a 0.19951718,0.19951718 0 0 0 -0.0312,-0.0937 0.19951718,0.19951718 0 0 0 -0.0312,-0.0625 0.19951718,0.19951718 0 0 0 -0.0625,-0.0312 0.19951718,0.19951718 0 0 0 -0.0625,-0.0312 0.19951718,0.19951718 0 0 0 -0.0312,0 0.19951718,0.19951718 0 0 0 -0.0937,0.0312 l -1.1875,0.78125 -0.5,-0.90625 1.25,-0.625 a 0.19951718,0.19951718 0 0 0 0.0312,-0.0312 0.19951718,0.19951718 0 0 0 0.0312,-0.0312 0.19951718,0.19951718 0 0 0 0.0312,-0.0625 0.19951718,0.19951718 0 0 0 0,-0.0312 0.19951718,0.19951718 0 0 0 0,-0.0625 0.19951718,0.19951718 0 0 0 0,-0.0312 0.19951718,0.19951718 0 0 0 -0.0312,-0.0625 0.19951718,0.19951718 0 0 0 -0.0312,-0.0312 0.19951718,0.19951718 0 0 0 -0.0312,0 l -1.25,-0.625 0.5,-0.90625 1.1875,0.75 a 0.19951718,0.19951718 0 0 0 0.0312,0.0312 0.19951718,0.19951718 0 0 0 0.0625,0 0.19951718,0.19951718 0 0 0 0.0625,0 0.19951718,0.19951718 0 0 0 0.0312,0 0.19951718,0.19951718 0 0 0 0.0312,-0.0312 0.19951718,0.19951718 0 0 0 0.0312,-0.0312 0.19951718,0.19951718 0 0 0 0.0312,-0.0312 0.19951718,0.19951718 0 0 0 0,-0.0312 0.19951718,0.19951718 0 0 0 0.0312,-0.0625 0.19951718,0.19951718 0 0 0 0,-0.0312 z" />
  </g>
  <g
     transform="translate(-323.02908,-649.02581)"
     id="layer13" />
  <g
     transform="translate(-323.02908,-649.02581)"
     id="layer14" />
  <g
     transform="translate(-323.02908,-649.02581)"
     style="display:inline"
     id="layer15" />
  <g
     transform="translate(-323.02908,-649.02581)"
     style="display:inline"
     id="g71291" />
  <g
     transform="translate(-323.02908,-649.02581)"
     style="display:inline"
     id="g4953" />
  <g
     transform="translate(-323.02908,-649.02581)"
     style="display:inline"
     id="layer12" />
</svg>
