<?xml version="1.0" encoding="UTF-8" standalone="no"?>
<svg
   xmlns:dc="http://purl.org/dc/elements/1.1/"
   xmlns:cc="http://creativecommons.org/ns#"
   xmlns:rdf="http://www.w3.org/1999/02/22-rdf-syntax-ns#"
   xmlns:svg="http://www.w3.org/2000/svg"
   xmlns="http://www.w3.org/2000/svg"
   width="16"
   height="16"
   version="1.1"
	 viewBox="-4 -4 24 24"

   id="svg7384">
  <metadata
     id="metadata90">
    <rdf:RDF>
      <cc:Work
         rdf:about="">
        <dc:format>image/svg+xml</dc:format>
        <dc:type
           rdf:resource="http://purl.org/dc/dcmitype/StillImage" />
        <dc:title>Gnome Symbolic Icon Theme</dc:title>
      </cc:Work>
    </rdf:RDF>
  </metadata>
  <title
     id="title9167">Gnome Symbolic Icon Theme</title>
  <defs
     id="defs7386" />
  <g
     style="display:inline"
     id="layer9"
     transform="translate(-241,-257)">
    <g
       id="g10938"
       transform="translate(193,-141)" />
    <path
       style="fill:#f1f2f2;fill-opacity:1;stroke:none"
       id="path10944"
       d="m 243,261 c -0.5,0 -1,0.5 -1,1 v 4 c 0,0.5 0.5,1 1,1 h 1 v -2 l 12,0.004 c 0,0 0,-1.38374 0,-3.00391 0,-0.5 -0.5,-1 -1,-1 z" />
    <path
       style="fill:#f1f2f2;fill-opacity:1;stroke:none"
       id="path10946"
       d="m 245,258 v 2 h 8 v -2 z" />
    <path
       style="fill:#f1f2f2;fill-opacity:1;stroke:none"
       id="path10948"
       d="m 245,266 v 5 h 4 l -0.006,-5 z" />
    <path
       style="color:#f1f2f2;display:inline;overflow:visible;visibility:visible;fill:#cc0000;fill-opacity:1;fill-rule:nonzero;stroke:none;stroke-width:1.90939796;marker:none;enable-background:accumulate"
       id="path3482-5"
       d="m 253.5,266 c -1.93299,0 -3.5,1.56701 -3.5,3.5 0,1.93299 1.56701,3.5 3.5,3.5 1.93299,0 3.5,-1.56701 3.5,-3.5 0,-1.93299 -1.56701,-3.5 -3.5,-3.5 z m -2.5,2.96875 h 5 V 270 h -5 z"
       class="error" />
  </g>
  <g
     id="layer10"
     transform="translate(-241,-257)" />
  <g
     id="layer11"
     transform="translate(-241,-257)" />
  <g
     id="layer12"
     transform="translate(-241,-257)" />
  <g
     id="layer13"
     transform="translate(-241,-257)" />
  <g
     id="layer14"
     transform="translate(-241,-257)" />
  <g
     id="layer15"
     transform="translate(-241,-257)" />
</svg>
