<?xml version="1.0" encoding="UTF-8" standalone="no"?>
<svg
   xmlns:dc="http://purl.org/dc/elements/1.1/"
   xmlns:cc="http://creativecommons.org/ns#"
   xmlns:rdf="http://www.w3.org/1999/02/22-rdf-syntax-ns#"
   xmlns:svg="http://www.w3.org/2000/svg"
   xmlns="http://www.w3.org/2000/svg"
   width="16.000002"
   version="1.1"
	 viewBox="-4 -4 24 24"

   id="svg7384"
   height="16">
  <metadata
     id="metadata90">
    <rdf:RDF>
      <cc:Work
         rdf:about="">
        <dc:format>image/svg+xml</dc:format>
        <dc:type
           rdf:resource="http://purl.org/dc/dcmitype/StillImage" />
        <dc:title>Gnome Symbolic Icon Theme</dc:title>
      </cc:Work>
    </rdf:RDF>
  </metadata>
  <title
     id="title9167">Gnome Symbolic Icon Theme</title>
  <defs
     id="defs7386" />
  <g
     transform="translate(-141.0002,-467)"
     style="display:inline"
     id="layer9" />
  <g
     transform="translate(-141.0002,-467)"
     id="layer10">
    <path
       style="display:inline;fill:#f1f2f2;fill-opacity:1;stroke:none"
       id="path11106-2"
       d="m 147.0002,479 v 2 h -5.53125 c -0.26299,0 -0.46875,0.2057 -0.46875,0.4688 v 1.0624 c 0,0.263 0.20576,0.4688 0.46875,0.4688 4.35417,0 8.70833,0 13.0625,0 0.26299,0 0.46875,-0.2058 0.46875,-0.4688 v -1.0624 c 0,-0.263 -0.20575,-0.4688 -0.46875,-0.4688 h -5.53125 v -2 z" />
    <path
       style="color:#000000;display:inline;overflow:visible;visibility:visible;fill:#f1f2f2;fill-opacity:1;fill-rule:nonzero;stroke:none;stroke-width:1;marker:none;enable-background:new"
       id="rect8035"
       d="m 145.04707,469.125 v 5.8702 h 5.95313 v -3.9327 l -2,-1.9375 z m -2.04687,5.8858 v 3.9579 h 9.96875 v -3.9579 h -0.95312 l -0.002,0.9802 -8.02875,0.035 v -1.0156 z" />
  </g>
  <g
     transform="translate(-141.0002,-467)"
     id="layer11" />
  <g
     transform="translate(-141.0002,-467)"
     id="layer13" />
  <g
     transform="translate(-141.0002,-467)"
     id="layer14" />
  <g
     transform="translate(-141.0002,-467)"
     style="display:inline"
     id="layer15" />
  <g
     transform="translate(-141.0002,-467)"
     style="display:inline"
     id="g71291" />
  <g
     transform="translate(-141.0002,-467)"
     style="display:inline"
     id="g4953" />
  <g
     transform="translate(-141.0002,-467)"
     style="display:inline"
     id="layer12" />
</svg>
