<?xml version="1.0" encoding="UTF-8" standalone="no"?>
<svg
   xmlns:dc="http://purl.org/dc/elements/1.1/"
   xmlns:cc="http://creativecommons.org/ns#"
   xmlns:rdf="http://www.w3.org/1999/02/22-rdf-syntax-ns#"
   xmlns:svg="http://www.w3.org/2000/svg"
   xmlns="http://www.w3.org/2000/svg"
   width="16"
   version="1.1"
	 viewBox="-4 -4 24 24"

   id="svg7384"
   height="16">
  <metadata
     id="metadata90">
    <rdf:RDF>
      <cc:Work
         rdf:about="">
        <dc:format>image/svg+xml</dc:format>
        <dc:type
           rdf:resource="http://purl.org/dc/dcmitype/StillImage" />
        <dc:title>Gnome Symbolic Icon Theme</dc:title>
      </cc:Work>
    </rdf:RDF>
  </metadata>
  <title
     id="title9167">Gnome Symbolic Icon Theme</title>
  <defs
     id="defs7386" />
  <g
     transform="translate(-261.0002,-747)"
     style="display:inline"
     id="layer9" />
  <g
     transform="translate(-261.0002,-747)"
     id="layer10" />
  <g
     transform="translate(-261.0002,-747)"
     id="layer11" />
  <g
     transform="translate(-261.0002,-747)"
     id="layer13" />
  <g
     transform="translate(-261.0002,-747)"
     id="layer14" />
  <g
     transform="translate(-261.0002,-747)"
     style="display:inline"
     id="layer15" />
  <g
     transform="translate(-261.0002,-747)"
     style="display:inline"
     id="g71291" />
  <g
     transform="translate(-261.0002,-747)"
     style="display:inline"
     id="g4953" />
  <g
     transform="translate(-261.0002,-747)"
     style="display:inline"
     id="layer12">
    <path
       style="color:#f1f2f2;font-style:normal;font-variant:normal;font-weight:normal;font-stretch:normal;font-size:medium;line-height:normal;font-family:Sans;-inkscape-font-specification:Sans;text-indent:0;text-align:start;text-decoration:none;text-decoration-line:none;letter-spacing:normal;word-spacing:normal;text-transform:none;writing-mode:lr-tb;direction:ltr;baseline-shift:baseline;text-anchor:start;display:inline;overflow:visible;visibility:visible;fill:#cc0000;fill-opacity:1;stroke:none;stroke-width:2;marker:none;enable-background:accumulate"
       id="rect4631"
       d="m 266.6875,749 -0.3125,0.28125 -3.09375,3.0625 -0.28125,0.3125 v 0.40625 3.8125 0.40625 l 0.28125,0.3125 3.09375,3.125 0.3125,0.28125 h 0.40625 3.8125 0.40625 l 0.3125,-0.28125 3.09375,-3.125 0.28125,-0.3125 v -0.40625 -3.8125 -0.40625 l -0.28125,-0.3125 -3.09375,-3.0625 L 271.3125,749 h -0.40625 -3.8125 z m 0.84375,2 H 270.5 l 2.5,2.5 v 2.96875 L 270.46875,759 h -2.9375 L 265,756.46875 V 753.5 Z" />
    <path
       style="color:#f1f2f2;display:inline;overflow:visible;visibility:visible;fill:#cc0000;fill-opacity:1;stroke:none;stroke-width:2;marker:none;enable-background:accumulate"
       id="rect4631-4"
       d="m 267.85645,752 -1.85625,1.83921 v 2.2892 L 267.85645,758 h 2.28921 l 1.85454,-1.87159 v -2.2892 L 270.14566,752 Z" />
  </g>
</svg>
