<?xml version="1.0" encoding="UTF-8" standalone="no"?>
<svg
   xmlns:dc="http://purl.org/dc/elements/1.1/"
   xmlns:cc="http://creativecommons.org/ns#"
   xmlns:rdf="http://www.w3.org/1999/02/22-rdf-syntax-ns#"
   xmlns:svg="http://www.w3.org/2000/svg"
   xmlns="http://www.w3.org/2000/svg"
   width="16"
   version="1.1"
	 viewBox="-4 -4 24 24"

   id="svg7384"
   height="16">
  <metadata
     id="metadata90">
    <rdf:RDF>
      <cc:Work
         rdf:about="">
        <dc:format>image/svg+xml</dc:format>
        <dc:type
           rdf:resource="http://purl.org/dc/dcmitype/StillImage" />
        <dc:title>Gnome Symbolic Icon Theme</dc:title>
      </cc:Work>
    </rdf:RDF>
  </metadata>
  <title
     id="title9167">Gnome Symbolic Icon Theme</title>
  <defs
     id="defs7386" />
  <g
     transform="translate(-381.00015,-317)"
     style="display:inline"
     id="layer9">
    <path
       style="color:#f1f2f2;font-style:normal;font-variant:normal;font-weight:normal;font-stretch:normal;font-size:medium;line-height:normal;font-family:'Andale Mono';-inkscape-font-specification:Sans;text-indent:0pt;text-align:start;text-decoration:none;text-decoration-line:none;letter-spacing:normal;word-spacing:normal;text-transform:none;writing-mode:lr-tb;direction:ltr;baseline-shift:baseline;text-anchor:start;display:inline;overflow:visible;visibility:visible;fill:#f1f2f2;fill-opacity:1;stroke:none;stroke-width:0.99817187;marker:none;enable-background:accumulate"
       id="path8781"
       d="m 389,318 c -3.85775,0 -7,3.14224 -7,7 0,3.85771 3.14225,7 7,7 3.85771,0 7,-3.14229 7,-7 0,-3.85776 -3.14229,-7 -7,-7 z m 0,1 c 3.31731,0 6,2.68264 6,6 0,3.31731 -2.68269,6 -6,6 -3.31735,0 -6,-2.68269 -6,-6 0,-3.31736 2.68265,-6 6,-6 z" />
  </g>
  <g
     transform="translate(-381.00015,-317)"
     style="display:inline"
     id="layer10" />
  <g
     transform="translate(-381.00015,-317)"
     id="layer11" />
  <g
     transform="translate(-381.00015,-317)"
     style="display:inline"
     id="layer13" />
  <g
     transform="translate(-381.00015,-317)"
     id="layer14" />
  <g
     transform="translate(-381.00015,-317)"
     style="display:inline"
     id="layer15" />
  <g
     transform="translate(-381.00015,-317)"
     style="display:inline"
     id="g71291" />
  <g
     transform="translate(-381.00015,-317)"
     style="display:inline"
     id="g4953" />
  <g
     transform="translate(-381.00015,-317)"
     style="display:inline"
     id="layer12" />
</svg>
