<?xml version="1.0" encoding="UTF-8" standalone="no"?>
<svg
   xmlns:dc="http://purl.org/dc/elements/1.1/"
   xmlns:cc="http://creativecommons.org/ns#"
   xmlns:rdf="http://www.w3.org/1999/02/22-rdf-syntax-ns#"
   xmlns:svg="http://www.w3.org/2000/svg"
   xmlns="http://www.w3.org/2000/svg"
   width="16.042253"
   version="1.1"
	 viewBox="-4 -4 24 24"

   id="svg7384"
   height="16.064297">
  <metadata
     id="metadata90">
    <rdf:RDF>
      <cc:Work
         rdf:about="">
        <dc:format>image/svg+xml</dc:format>
        <dc:type
           rdf:resource="http://purl.org/dc/dcmitype/StillImage" />
        <dc:title>Gnome Symbolic Icon Theme</dc:title>
      </cc:Work>
    </rdf:RDF>
  </metadata>
  <title
     id="title9167">Gnome Symbolic Icon Theme</title>
  <defs
     id="defs7386" />
  <g
     transform="translate(-201.0002,-356.9357)"
     style="display:inline"
     id="layer9">
    <path
       style="color:#000000;font-style:normal;font-variant:normal;font-weight:normal;font-stretch:normal;font-size:medium;line-height:normal;font-family:Sans;-inkscape-font-specification:Sans;text-indent:0;text-align:start;text-decoration:none;text-decoration-line:none;letter-spacing:normal;word-spacing:normal;text-transform:none;writing-mode:lr-tb;direction:ltr;baseline-shift:baseline;text-anchor:start;display:inline;overflow:visible;visibility:visible;fill:#ff6600;fill-opacity:1;stroke:none;stroke-width:1;marker:none;enable-background:accumulate"
       id="path20685"
       d="m 207.03145,361.9375 c -1.08877,0 -2,0.87892 -2,1.96875 V 365 h -0.96875 v 4.0625 h 5.96875 V 365 h -1.03125 v -1.09375 c 0,-1.08983 -0.87998,-1.96875 -1.96875,-1.96875 z m 0,1 c 0.54629,0 0.96875,0.41732 0.96875,0.96875 V 365 h -1.96875 v -1.09375 c 0,-0.55143 0.45371,-0.96875 1,-0.96875 z" />
    <path
       style="color:#000000;font-style:normal;font-variant:normal;font-weight:normal;font-stretch:normal;font-size:medium;line-height:normal;font-family:sans-serif;text-indent:0;text-align:start;text-decoration:none;text-decoration-line:none;text-decoration-style:solid;text-decoration-color:#000000;letter-spacing:normal;word-spacing:normal;text-transform:none;writing-mode:lr-tb;direction:ltr;baseline-shift:baseline;text-anchor:start;white-space:normal;clip-rule:nonzero;display:inline;overflow:visible;visibility:visible;opacity:1;isolation:auto;mix-blend-mode:normal;color-interpolation:sRGB;color-interpolation-filters:linearRGB;solid-color:#000000;solid-opacity:1;fill:#f1f2f2;fill-opacity:1;fill-rule:nonzero;stroke:none;stroke-width:2;stroke-linecap:butt;stroke-linejoin:miter;stroke-miterlimit:4;stroke-dasharray:none;stroke-dashoffset:0;stroke-opacity:1;marker:none;color-rendering:auto;image-rendering:auto;shape-rendering:auto;text-rendering:auto;enable-background:new"
       id="path20687"
       d="m 207.30859,356.93555 c -0.51485,8e-5 -1.02844,0.19445 -1.41406,0.58007 l -4.24414,4.24219 c -0.77125,0.77125 -0.77612,2.06041 0.004,2.83203 l 0.38476,0.37891 1.40625,-1.42187 -0.38086,-0.375 4.24414,-4.24219 7.74024,7.79101 c 0,0 0.002,0.002 0.002,0.002 l -4.24219,4.24414 -1.21093,-1.26368 -1.44532,1.38282 1.23438,1.28711 0.008,0.008 c 0.77124,0.77124 2.05689,0.77124 2.82813,0 l 4.24218,-4.24219 c 0.77127,-0.77125 0.76737,-2.05523 0.002,-2.82617 l -7.74219,-7.79492 c -0.38575,-0.38832 -0.90116,-0.58212 -1.41602,-0.58203 z" />
  </g>
  <g
     transform="translate(-201.0002,-356.9357)"
     style="display:inline"
     id="layer10" />
  <g
     transform="translate(-201.0002,-356.9357)"
     id="layer11" />
  <g
     transform="translate(-201.0002,-356.9357)"
     style="display:inline"
     id="layer13" />
  <g
     transform="translate(-201.0002,-356.9357)"
     id="layer14" />
  <g
     transform="translate(-201.0002,-356.9357)"
     style="display:inline"
     id="layer15" />
  <g
     transform="translate(-201.0002,-356.9357)"
     style="display:inline"
     id="g71291" />
  <g
     transform="translate(-201.0002,-356.9357)"
     style="display:inline"
     id="g4953" />
  <g
     transform="translate(-201.0002,-356.9357)"
     style="display:inline"
     id="layer12" />
</svg>
