<?xml version="1.0" encoding="UTF-8" standalone="no"?>
<svg
   xmlns:dc="http://purl.org/dc/elements/1.1/"
   xmlns:cc="http://creativecommons.org/ns#"
   xmlns:rdf="http://www.w3.org/1999/02/22-rdf-syntax-ns#"
   xmlns:svg="http://www.w3.org/2000/svg"
   xmlns="http://www.w3.org/2000/svg"
   id="svg7384"
   height="16"
   width="16"
   version="1.1"
	 viewBox="-4 -4 24 24"
>
  <metadata
     id="metadata90">
    <rdf:RDF>
      <cc:Work
         rdf:about="">
        <dc:format>image/svg+xml</dc:format>
        <dc:type
           rdf:resource="http://purl.org/dc/dcmitype/StillImage" />
        <dc:title>Gnome Symbolic Icon Theme</dc:title>
      </cc:Work>
    </rdf:RDF>
  </metadata>
  <title
     id="title9167">Gnome Symbolic Icon Theme</title>
  <defs
     id="defs7386" />
  <g
     transform="translate(-281.00023,-447)"
     id="layer9"
     style="display:inline" />
  <g
     transform="translate(-281.00023,-447)"
     id="layer10">
    <path
       id="rect4640-8"
       style="color:#000000;font-style:normal;font-variant:normal;font-weight:normal;font-stretch:normal;font-size:medium;line-height:normal;font-family:Sans;-inkscape-font-specification:Sans;text-indent:0;text-align:start;text-decoration:none;text-decoration-line:none;letter-spacing:normal;word-spacing:normal;text-transform:none;writing-mode:lr-tb;direction:ltr;baseline-shift:baseline;text-anchor:start;display:inline;overflow:visible;visibility:visible;fill:#f1f2f2;fill-opacity:1;fill-rule:nonzero;stroke:none;stroke-width:2;marker:none;enable-background:accumulate"
       d="m 284.0002,447 c -0.57847,0 -1.0598,0.19914 -1.46875,0.5625 -0.20447,0.18168 -0.38952,0.41779 -0.5,0.75 -0.11048,0.33221 -0.11181,0.77424 0.0625,1.125 l 1,2 c 0.0882,0.17755 0.20315,0.42726 0.375,0.6875 0.24004,-0.0728 0.4938,-0.125 0.75,-0.125 h 9.5625 c 0.2562,0 0.50996,0.0522 0.75,0.125 0.17185,-0.26025 0.28676,-0.50995 0.375,-0.6875 l 1,-2 c 0.17431,-0.35076 0.17298,-0.79279 0.0625,-1.125 -0.11048,-0.33221 -0.29553,-0.56832 -0.5,-0.75 C 295.06,447.19914 294.57867,447 294.0002,447 Z m 0.125,2 h 9.75 l -0.78125,1.5625 c -0.1179,0.23724 -0.17682,0.37121 -0.21875,0.4375 h -7.75 c -0.0419,-0.0663 -0.10085,-0.20026 -0.21875,-0.4375 z" />
    <path
       id="rect4640"
       style="color:#000000;font-style:normal;font-variant:normal;font-weight:normal;font-stretch:normal;font-size:medium;line-height:normal;font-family:Sans;-inkscape-font-specification:Sans;text-indent:0;text-align:start;text-decoration:none;text-decoration-line:none;letter-spacing:normal;word-spacing:normal;text-transform:none;writing-mode:lr-tb;direction:ltr;baseline-shift:baseline;text-anchor:start;display:inline;overflow:visible;visibility:visible;fill:#f1f2f2;fill-opacity:1;fill-rule:nonzero;stroke:none;stroke-width:2;marker:none;enable-background:accumulate"
       d="m 285.0002,453 c -0.4875,0 -0.93518,0.14403 -1.3125,0.4375 -0.37732,0.29347 -0.6875,0.78189 -0.6875,1.34375 V 463 h 12 v -8.21875 c 0,-0.56186 -0.31018,-1.05028 -0.6875,-1.34375 C 293.93538,453.14403 293.4877,453 293.0002,453 Z m 0,1 h 8 v 6 h -8 z m 7,7 h 1 v 1 h -1 z" />
    <path
       id="rect5505"
       d="m 284.00021,-451 h 10.00002 v 2 h -10.00002 z"
       style="color:#000000;display:inline;overflow:visible;visibility:visible;opacity:0.35;fill:#f1f2f2;fill-opacity:1;fill-rule:nonzero;stroke:none;stroke-width:2;marker:none;enable-background:accumulate"
       transform="scale(1,-1)" />
    <path
       id="rect5431"
       d="m 286.00021,458.03125 h 5.99999 v 1 h -5.99999 z"
       style="color:#000000;display:inline;overflow:visible;visibility:visible;fill:#f1f2f2;fill-opacity:1;fill-rule:nonzero;stroke:none;stroke-width:2;marker:none;enable-background:accumulate" />
    <path
       id="rect5431-4"
       style="color:#000000;display:inline;overflow:visible;visibility:visible;opacity:0.35;fill:#f1f2f2;fill-opacity:1;fill-rule:nonzero;stroke:none;stroke-width:2;marker:none;enable-background:accumulate"
       d="m 286.00021,455.03125 h 5.99999 V 456 l -5.99999,1 z" />
  </g>
  <g
     transform="translate(-281.00023,-447)"
     id="layer11" />
  <g
     transform="translate(-281.00023,-447)"
     id="layer13" />
  <g
     transform="translate(-281.00023,-447)"
     id="layer14" />
  <g
     transform="translate(-281.00023,-447)"
     id="layer15"
     style="display:inline" />
  <g
     id="g71291"
     transform="translate(-281.00023,-447)"
     style="display:inline" />
  <g
     transform="translate(-281.00023,-447)"
     id="g4953"
     style="display:inline" />
  <g
     transform="translate(-281.00023,-447)"
     id="layer12"
     style="display:inline" />
</svg>
