<?xml version="1.0" encoding="UTF-8" standalone="no"?>
<svg
   xmlns:dc="http://purl.org/dc/elements/1.1/"
   xmlns:cc="http://creativecommons.org/ns#"
   xmlns:rdf="http://www.w3.org/1999/02/22-rdf-syntax-ns#"
   xmlns:svg="http://www.w3.org/2000/svg"
   xmlns="http://www.w3.org/2000/svg"
   width="16"
   id="svg7384"
   height="16"
   version="1.1"
	 viewBox="-4 -4 24 24"
>
  <metadata
     id="metadata90">
    <rdf:RDF>
      <cc:Work
         rdf:about="">
        <dc:format>image/svg+xml</dc:format>
        <dc:type
           rdf:resource="http://purl.org/dc/dcmitype/StillImage" />
        <dc:title>Gnome Symbolic Icon Theme</dc:title>
      </cc:Work>
    </rdf:RDF>
  </metadata>
  <title
     id="title9167">Gnome Symbolic Icon Theme</title>
  <defs
     id="defs7386" />
  <g
     style="display:inline"
     transform="translate(-300.99995,-217)"
     id="layer9">
    <path
       style="color:#f1f2f2;font-style:normal;font-variant:normal;font-weight:normal;font-stretch:normal;font-size:medium;line-height:normal;font-family:Sans;-inkscape-font-specification:Sans;text-indent:0;text-align:start;text-decoration:none;text-decoration-line:none;letter-spacing:normal;word-spacing:normal;text-transform:none;writing-mode:lr-tb;direction:ltr;baseline-shift:baseline;text-anchor:start;display:inline;overflow:visible;visibility:visible;fill:#f1f2f2;fill-opacity:1;stroke:none;stroke-width:2;marker:none;enable-background:accumulate"
       id="rect3259-2-8"
       d="m 303,218 v 1 6 c 0,2.07167 1.5096,3.68102 2.84375,4.875 1.33415,1.19398 2.65625,2 2.65625,2 l 0.5,0.28125 0.53125,-0.3125 c 0,0 1.29429,-0.79757 2.625,-2 C 313.48696,228.64132 315,227.0443 315,225 v -6 -1 h -1 -10 z m 2,2 h 8 v 5 c 0,0.91968 -0.98696,2.31843 -2.15625,3.375 -0.90589,0.81857 -1.47889,1.139 -1.84375,1.375 -0.35377,-0.22243 -0.92859,-0.52475 -1.84375,-1.34375 C 305.9904,227.3629 305,225.97901 305,225 Z" />
    <path
       style="color:#f1f2f2;display:inline;overflow:visible;visibility:visible;fill:#f1f2f2;fill-opacity:1;stroke:none;stroke-width:2;marker:none"
       id="rect4034-7-1"
       d="m 308.99995,221 v 7.5 c -0.41988,-0.29448 -0.58096,-0.35517 -1.15625,-0.875 -1.08858,-0.98364 -1.84375,-2.26762 -1.84375,-2.625 v -4 z" />
  </g>
  <g
     transform="translate(-300.99995,-217)"
     id="layer10" />
  <g
     transform="translate(-300.99995,-217)"
     id="layer11" />
  <g
     transform="translate(-300.99995,-217)"
     id="layer13" />
  <g
     transform="translate(-300.99995,-217)"
     id="layer14" />
  <g
     style="display:inline"
     transform="translate(-300.99995,-217)"
     id="layer15" />
  <g
     style="display:inline"
     id="g71291"
     transform="translate(-300.99995,-217)" />
  <g
     style="display:inline"
     transform="translate(-300.99995,-217)"
     id="g4953" />
  <g
     style="display:inline"
     transform="translate(-300.99995,-217)"
     id="layer12" />
</svg>
