<svg xmlns="http://www.w3.org/2000/svg" version="1.1" viewBox="-4 -4 24 24"><path fill="#f1f2f2" d="m4.4258 0c-2.444 0-4.4258 1.9533-4.4258 4.3633 0 0.805 0.22142 1.559 0.60742 2.207a7.456 7.456 0 0 0 -0.1543 1.5137c0 4.156 3.4178 7.523 7.6328 7.523 0.477 0 0.9435-0.042 1.3965-0.125 0.6226 0.33 1.3346 0.518 2.0916 0.518 2.444 0 4.426-1.953 4.426-4.363 0-0.696-0.167-1.355-0.461-1.9378 0.115-0.52 0.178-1.0602 0.178-1.6152 0-4.156-3.417-7.5977-7.6311-7.5977-0.446 0.00003-0.8826 0.11062-1.3066 0.18362a4.449 4.449 0 0 0 -2.3535 -0.66992zm3.2988 2.9062a5.924 5.924 0 0 1 1.7598 0.1973c0.9786 0.285 1.9576 1.0403 2.0816 2.1133 0.119 0.674-0.746 0.9237-1.423 0.7207-0.5884-0.159-0.5087-0.1281-0.8657-0.5391-0.35-0.526-1.0283-0.6141-1.6093-0.5761-0.572 0.024-1.2959 0.2801-1.4219 0.9101-0.086 0.533 0.4489 0.5619 0.8789 0.7149 1.321 0.442 2.7993 0.5483 3.947 1.4043 0.859 0.644 1.086 1.8349 0.836 2.8344-0.247 1.063-1.161 1.854-2.1814 2.16a6.074 6.074 0 0 1 -3.5821 -0.039c-1.126-0.386-2.0965-1.437-2.1445-2.661-0.032-0.6635 0.4809-1.3011 1.0879-1.0601 0.61 0.246 0.903 0.7271 1.25 1.2071 0.416 0.682 1.2915 0.813 2.0195 0.717 0.654-0.066 1.4267-0.477 1.4727-1.2073 0.073-0.581-0.4306-0.6084-0.9336-0.7734-1.256-0.421-2.6629-0.5112-3.7559-1.3262-0.687-0.497-1.0243-1.3613-0.9453-2.1933 0.046-1.04 0.8263-1.9197 1.7793-2.2657l0.0547-0.0195 0.0527-0.0215a5.924 5.924 0 0 1 1.6426 -0.2969z"/></svg>
