<?xml version="1.0" encoding="UTF-8" standalone="no"?>
<svg
   xmlns:dc="http://purl.org/dc/elements/1.1/"
   xmlns:cc="http://creativecommons.org/ns#"
   xmlns:rdf="http://www.w3.org/1999/02/22-rdf-syntax-ns#"
   xmlns:svg="http://www.w3.org/2000/svg"
   xmlns="http://www.w3.org/2000/svg"
   xmlns:sodipodi="http://sodipodi.sourceforge.net/DTD/sodipodi-0.dtd"
   xmlns:inkscape="http://www.inkscape.org/namespaces/inkscape"
   id="svg8"
   version="1.1"
	 viewBox="-4 -4 24 24"

   viewBox="0 0 14.999999 14.999999"
   width="16"
   height="16"
   sodipodi:docname="steam.svg"
   inkscape:version="0.92.1 r15371">
  <sodipodi:namedview
     pagecolor="#ffffff"
     bordercolor="#666666"
     borderopacity="1"
     objecttolerance="10"
     gridtolerance="10"
     guidetolerance="10"
     inkscape:pageopacity="0"
     inkscape:pageshadow="2"
     inkscape:window-width="2075"
     inkscape:window-height="840"
     id="namedview7"
     showgrid="false"
     inkscape:zoom="4.9166667"
     inkscape:cx="-0.61016949"
     inkscape:cy="24"
     inkscape:window-x="0"
     inkscape:window-y="22"
     inkscape:window-maximized="0"
     inkscape:current-layer="svg8" />
  <metadata
     id="metadata14">
    <rdf:RDF>
      <cc:Work
         rdf:about="">
        <dc:format>image/svg+xml</dc:format>
        <dc:type
           rdf:resource="http://purl.org/dc/dcmitype/StillImage" />
        <dc:title></dc:title>
      </cc:Work>
    </rdf:RDF>
  </metadata>
  <defs
     id="defs12" />
  <g
     style="fill:#f1f2f2;stroke-linecap:round"
     id="g6">
    <path
       id="rect2"
       transform="scale(0.31249998)"
       d="M 6,0 C 2.6759998,0 0,2.6759998 0,6 v 13.464844 l 15.357422,9.542968 a 9.0016006,9.0016006 0 0 1 5.640625,-2 9.0016006,9.0016006 0 0 1 0.986328,0.06055 l 1.330078,-3.996093 A 10.499201,10.499201 0 0 1 20.998047,16.511719 10.499201,10.499201 0 0 1 31.5,6.0058594 10.499201,10.499201 0 0 1 42,16.511719 10.499201,10.499201 0 0 1 33.136719,26.871094 l -4.455078,4.460937 A 9.0016006,9.0016006 0 0 1 30,36.013672 9.0016006,9.0016006 0 0 1 20.998047,45.017578 9.0016006,9.0016006 0 0 1 12,36.013672 9.0016006,9.0016006 0 0 1 12.269531,33.855469 L 0,25.845703 V 42 c 0,3.324 2.6759998,6 6,6 H 8.9980469 V 47.9941 H 42 V 48 c 3.324,0 6,-2.676 6,-6 V 6 C 48,2.6759998 45.324,0 42,0 V 0.01367188 H 8.9882812 V 0 Z M 31.5,9.0039062 A 7.5008005,7.5008005 0 0 0 24,16.511719 7.5008005,7.5008005 0 0 0 31.5,24.013672 7.5008005,7.5008005 0 0 0 38.998047,16.511719 7.5008005,7.5008005 0 0 0 31.5,9.0039062 Z m 0,3.0097658 a 4.4992003,4.4992003 0 0 1 4.5,4.498047 4.4992003,4.4992003 0 0 1 -4.5,4.5 4.4992003,4.4992003 0 0 1 -4.501953,-4.5 A 4.4992003,4.4992003 0 0 1 31.5,12.013672 Z M 21.001953,30.003906 a 6.0000004,6.0000004 0 0 0 -2.847656,0.734375 l 4.097656,2.548828 a 3.0016002,3.0016002 0 0 1 0.183594,0.0918 3.0016002,3.0016002 0 0 1 0.152344,0.0957 3.0016002,3.0016002 0 0 1 0.03516,0.01563 3.0016002,3.0016002 0 0 1 0.03711,0.02344 3.0016002,3.0016002 0 0 1 0.150391,0.111328 3.0016002,3.0016002 0 0 1 0.1875,0.154297 3.0016002,3.0016002 0 0 1 0.169922,0.164062 3.0016002,3.0016002 0 0 1 0.04883,0.04687 3.0016002,3.0016002 0 0 1 0.07617,0.08594 3.0016002,3.0016002 0 0 1 0.03125,0.04297 3.0016002,3.0016002 0 0 1 0.148437,0.197265 3.0016002,3.0016002 0 0 1 0.126953,0.205078 3.0016002,3.0016002 0 0 1 0.0957,0.173828 3.0016002,3.0016002 0 0 1 0.01758,0.03711 3.0016002,3.0016002 0 0 1 0.01172,0.02539 3.0016002,3.0016002 0 0 1 0.07422,0.185547 3.0016002,3.0016002 0 0 1 0.03125,0.06445 3.0016002,3.0016002 0 0 1 0.01563,0.05469 3.0016002,3.0016002 0 0 1 0.04883,0.185547 3.0016002,3.0016002 0 0 1 0.01563,0.04883 3.0016002,3.0016002 0 0 1 0.0332,0.123047 3.0016002,3.0016002 0 0 1 0.0059,0.05273 3.0016002,3.0016002 0 0 1 0.03516,0.232422 3.0016002,3.0016002 0 0 0 0,0.0078 3.0016002,3.0016002 0 0 1 0.01563,0.300781 3.0016002,3.0016002 0 0 1 -0.01563,0.291016 3.0016002,3.0016002 0 0 1 0,0.01172 3.0016002,3.0016002 0 0 1 -0.0059,0.03516 3.0016002,3.0016002 0 0 1 -0.0293,0.228516 3.0016002,3.0016002 0 0 1 -0.0059,0.02148 3.0016002,3.0016002 0 0 1 -0.05469,0.210938 3.0016002,3.0016002 0 0 1 -0.0078,0.02344 3.0016002,3.0016002 0 0 1 -0.0625,0.1875 3.0016002,3.0016002 0 0 1 -0.02344,0.07422 3.0016002,3.0016002 0 0 1 -0.01953,0.03125 3.0016002,3.0016002 0 0 1 -0.0625,0.154297 3.0016002,3.0016002 0 0 1 -0.03516,0.08594 3.0016002,3.0016002 0 0 1 -0.04492,0.08398 3.0016002,3.0016002 0 0 1 -0.113281,0.181641 3.0016002,3.0016002 0 0 0 -0.0059,0.0039 3.0016002,3.0016002 0 0 1 -0.105469,0.160156 3.0016002,3.0016002 0 0 1 -0.09961,0.121094 3.0016002,3.0016002 0 0 1 -0.01953,0.02539 3.0016002,3.0016002 0 0 1 -0.134765,0.150391 3.0016002,3.0016002 0 0 1 -0.07031,0.07031 3.0016002,3.0016002 0 0 1 -0.15039,0.134765 3.0016002,3.0016002 0 0 1 -0.02539,0.01953 3.0016002,3.0016002 0 0 1 -0.121094,0.09961 3.0016002,3.0016002 0 0 1 -0.15625,0.105469 3.0016002,3.0016002 0 0 0 -0.0078,0.0059 3.0016002,3.0016002 0 0 1 -0.181641,0.111328 3.0016002,3.0016002 0 0 1 -0.08203,0.04883 3.0016002,3.0016002 0 0 1 -0.08789,0.03125 3.0016002,3.0016002 0 0 1 -0.15039,0.06445 3.0016002,3.0016002 0 0 1 -0.03125,0.01953 3.0016002,3.0016002 0 0 1 -0.07031,0.02148 3.0016002,3.0016002 0 0 1 -0.191406,0.06445 3.0016002,3.0016002 0 0 1 -0.119141,0.03125 3.0016002,3.0016002 0 0 1 -0.140625,0.0332 3.0016002,3.0016002 0 0 1 -0.228515,0.03125 3.0016002,3.0016002 0 0 1 -0.04687,0.0078 3.0016002,3.0016002 0 0 1 -0.291016,0.01563 3.0016002,3.0016002 0 0 1 -0.265625,-0.01563 3.0016002,3.0016002 0 0 1 -0.04492,0 3.0016002,3.0016002 0 0 1 -0.289062,-0.04297 3.0016002,3.0016002 0 0 1 -0.210938,-0.05469 3.0016002,3.0016002 0 0 1 -0.111328,-0.03516 3.0016002,3.0016002 0 0 1 -0.105469,-0.03711 3.0016002,3.0016002 0 0 1 -0.205078,-0.07813 3.0016002,3.0016002 0 0 1 -0.01367,-0.01172 3.0016002,3.0016002 0 0 1 -0.261718,-0.138672 3.0016002,3.0016002 0 0 1 -0.240235,-0.160156 3.0016002,3.0016002 0 0 1 -0.01172,0 3.0016002,3.0016002 0 0 1 -0.22461,-0.181641 l -4,-2.613281 a 6.0000004,6.0000004 0 0 0 -0.01953,0.371094 6.0000004,6.0000004 0 0 0 6,6 6.0000004,6.0000004 0 0 0 6,-6 6.0000004,6.0000004 0 0 0 -6,-6.007813 z"
       style="fill:#f1f2f2;fill-opacity:0.98600003;stroke-width:2.99840021;stroke-linejoin:round;paint-order:markers stroke fill"
       inkscape:connector-curvature="0" />
  </g>
</svg>
