<?xml version="1.0" encoding="UTF-8" standalone="no"?>
<svg
   xmlns:dc="http://purl.org/dc/elements/1.1/"
   xmlns:cc="http://creativecommons.org/ns#"
   xmlns:rdf="http://www.w3.org/1999/02/22-rdf-syntax-ns#"
   xmlns:svg="http://www.w3.org/2000/svg"
   xmlns="http://www.w3.org/2000/svg"
   width="16"
   version="1.1"
	 viewBox="-4 -4 24 24"

   id="svg7384"
   height="16">
  <metadata
     id="metadata90">
    <rdf:RDF>
      <cc:Work
         rdf:about="">
        <dc:format>image/svg+xml</dc:format>
        <dc:type
           rdf:resource="http://purl.org/dc/dcmitype/StillImage" />
        <dc:title>Gnome Symbolic Icon Theme</dc:title>
      </cc:Work>
    </rdf:RDF>
  </metadata>
  <title
     id="title9167">Gnome Symbolic Icon Theme</title>
  <defs
     id="defs7386" />
  <g
     transform="translate(-43.000399,-649)"
     style="display:inline"
     id="layer9" />
  <g
     transform="translate(-43.000399,-649)"
     style="display:inline"
     id="layer10" />
  <g
     transform="translate(-43.000399,-649)"
     id="layer11">
    <path
       style="fill:#f1f2f2;fill-opacity:1;stroke:none"
       id="path9137"
       d="m 56.288664,658.6875 c -0.493789,0.47964 -1.077431,0.69712 -1.788291,0.69712 -0.71086,0 -1.297231,-0.22349 -1.79102,-0.70313 -0.77657,0.27945 -1.705229,0.99058 -1.706257,2.23257 l -0.0027,2.3167 C 50.999881,663.65691 51.312586,664 51.700387,664 h 5.600024 c 0.387802,0 0.700003,-0.34309 0.700003,-0.76924 v -2.30769 c 0,-1.0667 -0.77162,-1.96599 -1.711724,-2.23557 z" />
    <path
       id="path9139"
       d="M 52,342.5 A 2.5,2.5 0 0 1 49.5,345 2.5,2.5 0 0 1 47,342.5 2.5,2.5 0 0 1 49.5,340 2.5,2.5 0 0 1 52,342.5 Z"
       style="color:#f1f2f2;display:inline;overflow:visible;visibility:visible;fill:#f1f2f2;fill-opacity:1;fill-rule:nonzero;stroke:none;stroke-width:2;marker:none;enable-background:accumulate"
       transform="matrix(0.92307481,0,0,0.92307481,8.808202,340.15457)" />
    <path
       style="fill:#f1f2f2;fill-opacity:1;stroke:none"
       id="path9178"
       d="m 49.288642,654.6875 c -0.493789,0.47964 -1.077431,0.69712 -1.788291,0.69712 -0.71086,0 -1.297231,-0.22349 -1.79102,-0.70313 -0.77657,0.27945 -1.705229,0.99058 -1.706257,2.23257 l -0.0027,2.3167 C 43.999859,659.65691 44.312564,660 44.700365,660 h 5.735381 c 0.06219,-0.3952 0.261624,-0.72266 0.564646,-1 v -2.07693 c 0,-1.0667 -0.77162,-1.96599 -1.711724,-2.23557 z" />
    <path
       id="path9180"
       d="M 52,342.5 A 2.5,2.5 0 0 1 49.5,345 2.5,2.5 0 0 1 47,342.5 2.5,2.5 0 0 1 49.5,340 2.5,2.5 0 0 1 52,342.5 Z"
       style="color:#f1f2f2;display:inline;overflow:visible;visibility:visible;fill:#f1f2f2;fill-opacity:1;fill-rule:nonzero;stroke:none;stroke-width:2;marker:none;enable-background:accumulate"
       transform="matrix(0.92307481,0,0,0.92307481,1.80818,336.15457)" />
  </g>
  <g
     transform="translate(-43.000399,-649)"
     style="display:inline"
     id="layer13" />
  <g
     transform="translate(-43.000399,-649)"
     id="layer14" />
  <g
     transform="translate(-43.000399,-649)"
     style="display:inline"
     id="layer15" />
  <g
     transform="translate(-43.000399,-649)"
     style="display:inline"
     id="g71291" />
  <g
     transform="translate(-43.000399,-649)"
     style="display:inline"
     id="g4953" />
  <g
     transform="translate(-43.000399,-649)"
     style="display:inline"
     id="layer12" />
</svg>
