<?xml version="1.0" encoding="UTF-8" standalone="no"?>
<svg
   xmlns:dc="http://purl.org/dc/elements/1.1/"
   xmlns:cc="http://creativecommons.org/ns#"
   xmlns:rdf="http://www.w3.org/1999/02/22-rdf-syntax-ns#"
   xmlns:svg="http://www.w3.org/2000/svg"
   xmlns="http://www.w3.org/2000/svg"
   id="svg7384"
   version="1.1"
	 viewBox="-4 -4 24 24"

   height="16.02426"
   width="16">
  <metadata
     id="metadata90">
    <rdf:RDF>
      <cc:Work
         rdf:about="">
        <dc:format>image/svg+xml</dc:format>
        <dc:type
           rdf:resource="http://purl.org/dc/dcmitype/StillImage" />
        <dc:title>Gnome Symbolic Icon Theme</dc:title>
      </cc:Work>
    </rdf:RDF>
  </metadata>
  <title
     id="title9167">Gnome Symbolic Icon Theme</title>
  <defs
     id="defs7386" />
  <g
     transform="translate(-100,-685.97574)"
     id="layer9"
     style="display:inline" />
  <g
     transform="translate(-100,-685.97574)"
     id="layer10" />
  <g
     transform="translate(-100,-685.97574)"
     id="layer11" />
  <g
     transform="rotate(90,400.48861,300.51139)"
     id="layer12">
    <path
       d="m 104.84002,687.8125 a 0.99998337,1.0002168 0 0 0 -0.34813,0.13393 c -1.05343,0.60965 -1.93145,1.46598 -2.54405,2.51786 -1.93955,3.33036 -0.81232,7.64928 2.51727,9.58928 3.32959,1.94001 7.64749,0.8125 9.58705,-2.51786 1.93955,-3.33035 0.81232,-7.64927 -2.51727,-9.58928 a 1.0081498,1.0083851 0 1 0 -1.01762,1.74107 c 2.39572,1.39588 3.18978,4.43408 1.79422,6.83036 -1.39555,2.39628 -4.43303,3.19052 -6.82876,1.79464 -2.38544,-1.38989 -3.19179,-4.41207 -1.821,-6.80357 l 0.0268,-0.0268 c 0.43759,-0.75138 1.06851,-1.38594 1.821,-1.82142 a 0.99998337,1.0002168 0 0 0 -0.66949,-1.84822 z"
       id="path3869-2"
       style="color:#000000;font-style:normal;font-variant:normal;font-weight:normal;font-stretch:normal;font-size:medium;line-height:normal;font-family:Sans;-inkscape-font-specification:Sans;text-indent:0;text-align:start;text-decoration:none;text-decoration-line:none;letter-spacing:normal;word-spacing:normal;text-transform:none;writing-mode:lr-tb;direction:ltr;baseline-shift:baseline;text-anchor:start;display:inline;overflow:visible;visibility:visible;fill:#f1f2f2;fill-opacity:1;stroke:none;stroke-width:2.333606;marker:none;enable-background:accumulate" />
    <path
       d="M 107.78125,686 A 1.0001,1.0001 0 0 0 107,687 v 5 a 1.0001,1.0001 0 1 0 2,0 v -5 a 1.0001,1.0001 0 0 0 -1.21875,-1 z"
       id="path4710"
       style="color:#000000;font-style:normal;font-variant:normal;font-weight:normal;font-stretch:normal;font-size:medium;line-height:normal;font-family:Sans;-inkscape-font-specification:Sans;text-indent:0;text-align:start;text-decoration:none;text-decoration-line:none;letter-spacing:normal;word-spacing:normal;text-transform:none;writing-mode:lr-tb;direction:ltr;baseline-shift:baseline;text-anchor:start;display:inline;overflow:visible;visibility:visible;fill:#f1f2f2;fill-opacity:1;stroke:none;stroke-width:2;marker:none;enable-background:accumulate" />
  </g>
  <g
     transform="translate(-100,-685.97574)"
     id="layer13" />
  <g
     transform="translate(-100,-685.97574)"
     id="layer14" />
  <g
     transform="translate(-100,-685.97574)"
     id="layer15"
     style="display:inline" />
  <g
     transform="translate(-100,-685.97574)"
     id="g4953"
     style="display:inline" />
  <path
     transform="matrix(-0.6208523,0,0,1.1547006,6.0663632,-1.2413576)"
     d="m -16,8.0242594 c 0,-0.3464102 2.7,-1.9052555 3,-1.7320504 0.3,0.1732051 0.3,3.2908966 0,3.4641016 -0.3,0.1732051 -3,-1.3856411 -3,-1.7320512 z"
     id="path4499"
     style="opacity:1;fill:#f1f2f2;fill-opacity:1;stroke:none;stroke-width:2;stroke-miterlimit:4;stroke-dasharray:none;stroke-opacity:1" />
</svg>
