<?xml version="1.0" encoding="UTF-8" standalone="no"?>
<svg
   xmlns:dc="http://purl.org/dc/elements/1.1/"
   xmlns:cc="http://creativecommons.org/ns#"
   xmlns:rdf="http://www.w3.org/1999/02/22-rdf-syntax-ns#"
   xmlns:svg="http://www.w3.org/2000/svg"
   xmlns="http://www.w3.org/2000/svg"
   height="16"
   id="svg7384"
   version="1.1"
	 viewBox="-4 -4 24 24"

   width="16">
  <metadata
     id="metadata90">
    <rdf:RDF>
      <cc:Work
         rdf:about="">
        <dc:format>image/svg+xml</dc:format>
        <dc:type
           rdf:resource="http://purl.org/dc/dcmitype/StillImage" />
        <dc:title>Gnome Symbolic Icon Theme</dc:title>
      </cc:Work>
    </rdf:RDF>
  </metadata>
  <title
     id="title9167">Gnome Symbolic Icon Theme</title>
  <defs
     id="defs7386" />
  <g
     id="layer9"
     style="display:inline"
     transform="translate(-241.0002,-747)" />
  <g
     id="layer10"
     style="display:inline"
     transform="translate(-241.0002,-747)" />
  <g
     id="layer11"
     transform="translate(-241.0002,-747)" />
  <g
     id="layer13"
     style="display:inline"
     transform="translate(-241.0002,-747)" />
  <g
     id="layer14"
     transform="translate(-241.0002,-747)" />
  <g
     id="layer15"
     style="display:inline"
     transform="translate(-241.0002,-747)" />
  <g
     id="g71291"
     style="display:inline"
     transform="translate(-241.0002,-747)" />
  <g
     id="g4953"
     style="display:inline"
     transform="translate(-241.0002,-747)" />
  <g
     id="layer12"
     style="display:inline"
     transform="translate(-241.0002,-747)">
    <path
       d="m 247.71895,749 c -0.19186,0.009 -0.37223,0.0353 -0.5625,0.0625 -1.52218,0.21741 -2.97815,1.02304 -3.96875,2.34375 -1.98119,2.64144 -1.42267,6.42505 1.21875,8.40625 2.64147,1.98122 6.42504,1.42267 8.40625,-1.21875 0.12268,-0.17164 0.18932,-0.38275 0.1875,-0.59375 v -1 h -1 c -0.31415,-10e-4 -0.62517,0.15406 -0.8125,0.40625 -1.33265,1.77674 -3.81702,2.11387 -5.59375,0.78125 -1.77674,-1.33264 -2.1139,-3.81699 -0.78125,-5.59375 1.33265,-1.77674 3.817,-2.11389 5.59375,-0.78125 0.42946,0.32212 0.76954,0.73295 1.03125,1.1875 h -1.4375 c -0.55228,0 -1,0.44772 -1,1 v 1 h 6 v -5 -1 h -1 c -0.55229,0 -1,0.44772 -1,1 v 1.6875 c -0.38225,-0.57796 -0.84927,-1.08223 -1.40625,-1.5 -1.15563,-0.86677 -2.53199,-1.25227 -3.875,-1.1875 z"
       id="path4597"
       style="color:#f1f2f2;font-style:normal;font-variant:normal;font-weight:normal;font-stretch:normal;font-size:medium;line-height:normal;font-family:Sans;-inkscape-font-specification:Sans;text-indent:0;text-align:start;text-decoration:none;text-decoration-line:none;letter-spacing:normal;word-spacing:normal;text-transform:none;writing-mode:lr-tb;direction:ltr;baseline-shift:baseline;text-anchor:start;display:inline;overflow:visible;visibility:visible;fill:#f1f2f2;fill-opacity:1;stroke:none;stroke-width:2;marker:none;enable-background:accumulate" />
  </g>
</svg>
