<?xml version="1.0" encoding="UTF-8" standalone="no"?>
<svg
   xmlns:osb="http://www.openswatchbook.org/uri/2009/osb"
   xmlns:dc="http://purl.org/dc/elements/1.1/"
   xmlns:cc="http://creativecommons.org/ns#"
   xmlns:rdf="http://www.w3.org/1999/02/22-rdf-syntax-ns#"
   xmlns:svg="http://www.w3.org/2000/svg"
   xmlns="http://www.w3.org/2000/svg"
   width="16"
   version="1.1"
	 viewBox="-4 -4 24 24"

   id="svg7384"
   height="16">
  <metadata
     id="metadata90">
    <rdf:RDF>
      <cc:Work
         rdf:about="">
        <dc:format>image/svg+xml</dc:format>
        <dc:type
           rdf:resource="http://purl.org/dc/dcmitype/StillImage" />
        <dc:title>Gnome Symbolic Icon Theme</dc:title>
      </cc:Work>
    </rdf:RDF>
  </metadata>
  <title
     id="title9167">Gnome Symbolic Icon Theme</title>
  <defs
     id="defs7386">
    <linearGradient
       osb:paint="solid"
       id="linearGradient19282"
       gradientTransform="matrix(-2.7365795,0.28202934,-0.18908311,-0.99988321,239.54008,-879.45557)">
      <stop
         style="stop-color:#666666;stop-opacity:1;"
         offset="0"
         id="stop19284" />
    </linearGradient>
  </defs>
  <g
     transform="translate(-283.02908,-629.02581)"
     style="display:inline"
     id="layer9" />
  <g
     transform="translate(-283.02908,-629.02581)"
     style="display:inline"
     id="layer10" />
  <g
     transform="translate(-283.02908,-629.02581)"
     id="layer11">
    <path
       style="fill:#f1f2f2;fill-opacity:1;fill-rule:evenodd;stroke:none"
       id="path2273-6-2"
       d="m 288.03089,639.02581 6.99819,-7 2,2 -7,7 h -2 z" />
    <path
       style="color:#000000;font-style:normal;font-variant:normal;font-weight:normal;font-stretch:normal;font-size:medium;line-height:normal;font-family:Sans;-inkscape-font-specification:Sans;text-indent:0;text-align:start;text-decoration:none;text-decoration-line:none;letter-spacing:normal;word-spacing:normal;text-transform:none;writing-mode:lr-tb;direction:ltr;baseline-shift:baseline;text-anchor:start;display:inline;overflow:visible;visibility:visible;fill:#f1f2f2;fill-opacity:1;stroke:none;stroke-width:2;marker:none;enable-background:accumulate"
       id="path6682-6"
       d="m 284.12283,629.02581 c -0.56869,5e-5 -1.0937,0.50285 -1.09375,1.0625 v 12.84375 0.25 0.78125 c 5e-5,0.55965 0.52506,1.06245 1.09375,1.0625 h 4.34375 1.125 5.34375 c 0.55754,-5e-5 1.07398,-0.48468 1.09375,-1.03125 3.9e-4,-0.0109 0,-0.0204 0,-0.0312 v -6.93755 l -2,2 v 4 h -9 v -12 h 5 l 2,2 1.53125,-1.53125 -2.1875,-2.125 c -0.20046,-0.20837 -0.48969,-0.3416 -0.78125,-0.34375 z" />
    <path
       style="color:#000000;clip-rule:nonzero;display:inline;overflow:visible;visibility:visible;opacity:1;isolation:auto;mix-blend-mode:normal;color-interpolation:sRGB;color-interpolation-filters:linearRGB;solid-color:#000000;solid-opacity:1;fill:#f1f2f2;fill-opacity:1;fill-rule:evenodd;stroke:none;stroke-width:1;stroke-linecap:butt;stroke-linejoin:miter;stroke-miterlimit:4;stroke-dasharray:none;stroke-dashoffset:0;stroke-opacity:1;marker:none;marker-start:none;marker-mid:none;marker-end:none;paint-order:normal;color-rendering:auto;image-rendering:auto;shape-rendering:auto;text-rendering:auto;enable-background:accumulate"
       id="rect9831-8"
       d="m 297.21904,630.03711 c -0.13169,0 -0.26338,0.0504 -0.36429,0.15136 l -1.16217,1.16089 2.00493,2.00493 1.16217,-1.16217 c 0.20182,-0.20182 0.20182,-0.52678 0,-0.7286 l -1.27634,-1.27505 c -0.10087,-0.10088 -0.2326,-0.15136 -0.3643,-0.15136 z" />
  </g>
  <g
     transform="translate(-283.02908,-629.02581)"
     style="display:inline"
     id="layer13" />
  <g
     transform="translate(-283.02908,-629.02581)"
     id="layer14" />
  <g
     transform="translate(-283.02908,-629.02581)"
     style="display:inline"
     id="layer15" />
  <g
     transform="translate(-283.02908,-629.02581)"
     style="display:inline"
     id="g71291" />
  <g
     transform="translate(-283.02908,-629.02581)"
     style="display:inline"
     id="g4953" />
  <g
     transform="translate(-283.02908,-629.02581)"
     style="display:inline"
     id="layer12" />
</svg>
