<?xml version="1.0" encoding="UTF-8" standalone="no"?>
<svg
   xmlns:dc="http://purl.org/dc/elements/1.1/"
   xmlns:cc="http://creativecommons.org/ns#"
   xmlns:rdf="http://www.w3.org/1999/02/22-rdf-syntax-ns#"
   xmlns:svg="http://www.w3.org/2000/svg"
   xmlns="http://www.w3.org/2000/svg"
   width="16"
   version="1.1"
	 viewBox="-4 -4 24 24"

   id="svg7384"
   height="16">
  <metadata
     id="metadata90">
    <rdf:RDF>
      <cc:Work
         rdf:about="">
        <dc:format>image/svg+xml</dc:format>
        <dc:type
           rdf:resource="http://purl.org/dc/dcmitype/StillImage" />
        <dc:title>Gnome Symbolic Icon Theme</dc:title>
      </cc:Work>
    </rdf:RDF>
  </metadata>
  <title
     id="title9167">Gnome Symbolic Icon Theme</title>
  <defs
     id="defs7386" />
  <g
     transform="translate(-241.0002,-547)"
     style="display:inline"
     id="layer9" />
  <g
     transform="translate(-241.0002,-547)"
     style="display:inline"
     id="layer10">
    <path
       style="fill:#f1f2f2;fill-opacity:1;stroke:none"
       id="path27207"
       d="m 244.6252,550.00758 c -1.45425,0 -2.625,1.03817 -2.625,2.49242 v 7.875 c 0,1.45425 1.17075,2.625 2.625,2.625 h 8.75 c 1.45425,0 2.625,-1.17075 2.625,-2.625 V 552.5 c 0,-1.45425 -1.17075,-2.49242 -2.625,-2.49242 z M 245.5002,551 h 7 c 2.00417,0.53702 1.9805,6.85657 0,8 h -7 c -2.31899,-1.57669 -1.58576,-7.08446 0,-8 z m 7.52285,11.04907 h -1.0457 v -1.04571 h 1.0457 z" />
    <path
       id="path27232"
       d="m 6,331 a 1,1 0 0 1 -1,1 1,1 0 0 1 -1,-1 1,1 0 0 1 1,-1 1,1 0 0 1 1,1 z"
       style="color:#000000;display:inline;overflow:visible;visibility:visible;fill:#f1f2f2;fill-opacity:1;stroke:none;stroke-width:1;marker:none;enable-background:new"
       transform="translate(241.0002,217)" />
    <path
       id="path27234"
       d="m 6,331 a 1,1 0 0 1 -1,1 1,1 0 0 1 -1,-1 1,1 0 0 1 1,-1 1,1 0 0 1 1,1 z"
       style="color:#000000;display:inline;overflow:visible;visibility:visible;fill:#f1f2f2;fill-opacity:1;stroke:none;stroke-width:1;marker:none;enable-background:new"
       transform="translate(246.98851,217)" />
    <path
       style="color:#000000;font-style:normal;font-variant:normal;font-weight:normal;font-stretch:normal;font-size:medium;line-height:normal;font-family:Sans;-inkscape-font-specification:Sans;text-indent:0;text-align:start;text-decoration:none;text-decoration-line:none;letter-spacing:normal;word-spacing:normal;text-transform:none;writing-mode:lr-tb;direction:ltr;baseline-shift:baseline;text-anchor:start;display:inline;overflow:visible;visibility:visible;fill:#f1f2f2;fill-opacity:1;stroke:none;stroke-width:1;marker:none;enable-background:new"
       id="path27236"
       d="m 246.34375,547.65625 -0.6875,0.6875 2.46875,2.5 L 248.25,551 h 0.21875 1.09375 l 0.21875,-0.0312 0.125,-0.125 2.4375,-2.5 -0.6875,-0.6875 -2.34375,2.34375 h -0.65625 l -2.3125,-2.34375 z" />
  </g>
  <g
     transform="translate(-241.0002,-547)"
     id="layer11" />
  <g
     transform="translate(-241.0002,-547)"
     style="display:inline"
     id="layer13" />
  <g
     transform="translate(-241.0002,-547)"
     id="layer14" />
  <g
     transform="translate(-241.0002,-547)"
     style="display:inline"
     id="layer15" />
  <g
     transform="translate(-241.0002,-547)"
     style="display:inline"
     id="g71291" />
  <g
     transform="translate(-241.0002,-547)"
     style="display:inline"
     id="g4953" />
  <g
     transform="translate(-241.0002,-547)"
     style="display:inline"
     id="layer12" />
</svg>
