<?xml version="1.0" encoding="UTF-8" standalone="no"?>
<svg
   xmlns:dc="http://purl.org/dc/elements/1.1/"
   xmlns:cc="http://creativecommons.org/ns#"
   xmlns:rdf="http://www.w3.org/1999/02/22-rdf-syntax-ns#"
   xmlns:svg="http://www.w3.org/2000/svg"
   xmlns="http://www.w3.org/2000/svg"
   width="16"
   version="1.1"
	 viewBox="-4 -4 24 24"

   id="svg7384"
   height="16">
  <metadata
     id="metadata90">
    <rdf:RDF>
      <cc:Work
         rdf:about="">
        <dc:format>image/svg+xml</dc:format>
        <dc:type
           rdf:resource="http://purl.org/dc/dcmitype/StillImage" />
        <dc:title>Gnome Symbolic Icon Theme</dc:title>
      </cc:Work>
    </rdf:RDF>
  </metadata>
  <title
     id="title9167">Gnome Symbolic Icon Theme</title>
  <defs
     id="defs7386" />
  <g
     transform="translate(-241,-567)"
     style="display:inline"
     id="layer9" />
  <g
     transform="translate(-241,-567)"
     style="display:inline"
     id="layer10">
    <path
       style="color:#f1f2f2;font-style:normal;font-variant:normal;font-weight:normal;font-stretch:normal;font-size:medium;line-height:normal;font-family:Sans;-inkscape-font-specification:Sans;text-indent:0;text-align:start;text-decoration:none;text-decoration-line:none;letter-spacing:normal;word-spacing:normal;text-transform:none;writing-mode:lr-tb;direction:ltr;baseline-shift:baseline;text-anchor:start;display:inline;overflow:visible;visibility:visible;fill:#f1f2f2;fill-opacity:1;stroke:none;stroke-width:1.99999988;marker:none;enable-background:accumulate"
       id="rect27244"
       d="M 245.1875,567 C 243.9859,567 243,567.98758 243,569.1875 v 11.625 c 0,1.19992 0.9859,2.1875 2.1875,2.1875 h 7.625 c 1.2016,0 2.1875,-0.98758 2.1875,-2.1875 v -11.625 C 255,567.98758 254.0141,567 252.8125,567 Z m 0,2 h 7.625 c 0.1238,0 0.1875,0.0566 0.1875,0.1875 v 11.625 c 0,0.1309 -0.0637,0.1875 -0.1875,0.1875 h -7.625 C 245.0637,581 245,580.9434 245,580.8125 v -11.625 C 245,569.0566 245.0637,569 245.1875,569 Z" />
    <path
       style="color:#f1f2f2;font-style:normal;font-variant:normal;font-weight:normal;font-stretch:normal;font-size:xx-small;line-height:normal;font-family:'Bitstream Vera Sans';-inkscape-font-specification:'Bitstream Vera Sans';text-indent:0;text-align:start;text-decoration:none;text-decoration-line:none;letter-spacing:normal;word-spacing:normal;text-transform:none;writing-mode:lr-tb;direction:ltr;text-anchor:start;display:inline;overflow:visible;visibility:visible;fill:#f1f2f2;fill-opacity:1;fill-rule:nonzero;stroke:none;stroke-width:2;marker:none;enable-background:accumulate"
       id="path10747-1"
       d="m 249.7795,572 c -0.17789,0.0489 -0.3419,0.14729 -0.46875,0.28125 l -3.03125,3 c -0.2353,0.23073 -0.34458,0.58284 -0.28125,0.90625 V 577 h 0.8125 0.1875 1.4707 l -1.1875,1.27358 c -0.21461,0.21931 -0.32135,0.53954 -0.28125,0.84375 -0.001,0.0312 -0.001,0.0625 0,0.0937 v 0.78125 h 0.84375 0.15625 c 0.26386,0.004 0.52791,-0.099 0.71875,-0.28125 l 3,-2.99233 c 0.18369,-0.18977 0.28735,-0.45465 0.28125,-0.7187 0.003,-0.0416 0.003,-0.0834 0,-0.125 V 575 h -0.84375 -0.15625 -1.56445 l 1.3125,-1.28125 c 0.21461,-0.21931 0.32135,-0.53954 0.28125,-0.84375 10e-4,-0.0312 10e-4,-0.0625 0,-0.0937 V 572 h -0.84375 -0.0937 c -0.0208,-6.3e-4 -0.0417,-6.3e-4 -0.0625,0 -0.0829,-0.0103 -0.16709,-0.0103 -0.25,0 z" />
  </g>
  <g
     transform="translate(-241,-567)"
     id="layer11" />
  <g
     transform="translate(-241,-567)"
     style="display:inline"
     id="layer13" />
  <g
     transform="translate(-241,-567)"
     id="layer14" />
  <g
     transform="translate(-241,-567)"
     style="display:inline"
     id="layer15" />
  <g
     transform="translate(-241,-567)"
     style="display:inline"
     id="g71291" />
  <g
     transform="translate(-241,-567)"
     style="display:inline"
     id="g4953" />
  <g
     transform="translate(-241,-567)"
     style="display:inline"
     id="layer12" />
</svg>
