<?xml version="1.0" encoding="UTF-8" standalone="no"?>
<svg
   xmlns:osb="http://www.openswatchbook.org/uri/2009/osb"
   xmlns:dc="http://purl.org/dc/elements/1.1/"
   xmlns:cc="http://creativecommons.org/ns#"
   xmlns:rdf="http://www.w3.org/1999/02/22-rdf-syntax-ns#"
   xmlns:svg="http://www.w3.org/2000/svg"
   xmlns="http://www.w3.org/2000/svg"
   width="16"
   version="1.1"
	 viewBox="-4 -4 24 24"

   id="svg7384"
   height="16.000637">
  <metadata
     id="metadata90">
    <rdf:RDF>
      <cc:Work
         rdf:about="">
        <dc:format>image/svg+xml</dc:format>
        <dc:type
           rdf:resource="http://purl.org/dc/dcmitype/StillImage" />
        <dc:title>Gnome Symbolic Icon Theme</dc:title>
      </cc:Work>
    </rdf:RDF>
  </metadata>
  <title
     id="title9167">Gnome Symbolic Icon Theme</title>
  <defs
     id="defs7386">
    <linearGradient
       osb:paint="solid"
       id="linearGradient19282"
       gradientTransform="matrix(-2.7365795,0.28202934,-0.18908311,-0.99988321,239.54008,-879.45557)">
      <stop
         style="stop-color:#666666;stop-opacity:1;"
         offset="0"
         id="stop19284" />
    </linearGradient>
  </defs>
  <g
     transform="translate(-101.0002,-396.99936)"
     style="display:inline"
     id="layer9">
    <path
       style="fill:#f1f2f2;fill-opacity:1;stroke:none"
       id="path11920"
       d="m 107.70528,397 c -0.31595,0.0265 -0.52774,0.33667 -0.4375,0.64062 l 0.42578,1.54297 c -0.42482,0.10963 -0.83882,0.26266 -1.23828,0.45703 l -1.02149,-1.76562 c -0.0919,-0.16463 -0.26863,-0.26356 -0.45703,-0.25586 -0.38079,0.0138 -0.60682,0.43144 -0.41015,0.75781 l 1.01757,1.75782 c -0.3383,0.21721 -0.66636,0.45108 -0.97656,0.70312 l -1.2539,-1.25391 c -0.0945,-0.0967 -0.22418,-0.1509 -0.35938,-0.15039 -0.44709,0.002 -0.6672,0.54472 -0.34766,0.85743 l 1.22071,1.2207 c -0.28147,0.26634 -0.54674,0.52461 -0.79297,0.79297 l -0.7207,-0.72071 c -0.0945,-0.0967 -0.22418,-0.1509 -0.35938,-0.15039 -0.44709,0.002 -0.6672,0.54472 -0.34766,0.85743 l 0.76368,0.76367 C 101.52489,404.13059 101.0002,405 101.0002,405 c 0,0 0.8718,1.45034 2.27539,2.92383 l 1.10742,-1.10742 C 103.48662,405.88257 103.0002,405 103.0002,405 c 0,0 2.13401,-4 6,-4 0.37919,0 0.73655,0.0478 1.08203,0.11719 l 1.4668,-1.4668 c -0.2562,-0.12492 -0.51595,-0.24003 -0.78321,-0.33203 l 0.57032,-1.64648 c 0.1182,-0.32287 -0.11717,-0.66594 -0.46094,-0.67188 -0.21868,-0.003 -0.41409,0.136 -0.48242,0.34375 l -0.59766,1.7207 C 109.53367,399.02291 109.26843,399 109.0002,399 c -0.10545,0 -0.20804,0.0187 -0.3125,0.0254 l -0.45508,-1.65039 c -0.0563,-0.21805 -0.25139,-0.37157 -0.47656,-0.375 -0.0169,-8.6e-4 -0.0339,-8.6e-4 -0.0508,0 z m 8.28515,4.43359 c -0.12976,0.004 -0.25303,0.0575 -0.34375,0.15039 l -0.7207,0.72071 c -0.0612,-0.0667 -0.13019,-0.13193 -0.19336,-0.19727 l -1.09765,1.0957 c 0.8841,0.92646 1.36523,1.79688 1.36523,1.79688 0,0 -2.13401,4 -6,4 -0.36779,0 -0.71469,-0.0458 -1.05078,-0.11133 l -1.47852,1.47852 c 0.79576,0.38497 1.64436,0.63281 2.5293,0.63281 4.41828,0 8,-6 8,-6 0,0 -0.52469,-0.86941 -1.41016,-1.94531 l 0.76368,-0.76367 c 0.32529,-0.31801 0.0914,-0.86992 -0.36329,-0.85743 z M 109.0002,402 c -1.65685,0 -3,1.34315 -3,3 0,0.0621 0.0139,0.12046 0.0176,0.18164 l 1.84375,-1.84375 c 0.0659,-0.23651 0.24478,-0.41384 0.47656,-0.47656 l 0.84375,-0.84375 C 109.12066,402.01386 109.06231,402 109.0002,402 Z m 2.98438,2.85352 -3.13282,3.13086 c 0.0502,0.002 0.0976,0.0156 0.14844,0.0156 1.65685,0 3,-1.34315 3,-3 0,-0.0501 -0.0132,-0.0969 -0.0156,-0.14648 z" />
    <path
       style="color:#000000;font-style:normal;font-variant:normal;font-weight:normal;font-stretch:normal;font-size:medium;line-height:normal;font-family:sans-serif;text-indent:0;text-align:start;text-decoration:none;text-decoration-line:none;text-decoration-style:solid;text-decoration-color:#000000;letter-spacing:normal;word-spacing:normal;text-transform:none;writing-mode:lr-tb;direction:ltr;baseline-shift:baseline;text-anchor:start;white-space:normal;clip-rule:nonzero;display:inline;overflow:visible;visibility:visible;opacity:1;isolation:auto;mix-blend-mode:normal;color-interpolation:sRGB;color-interpolation-filters:linearRGB;solid-color:#000000;solid-opacity:1;fill:#f1f2f2;fill-opacity:1;fill-rule:nonzero;stroke:none;stroke-width:2;stroke-linecap:round;stroke-linejoin:miter;stroke-miterlimit:4;stroke-dasharray:none;stroke-dashoffset:0;stroke-opacity:1;marker:none;paint-order:normal;color-rendering:auto;image-rendering:auto;shape-rendering:auto;text-rendering:auto;enable-background:accumulate"
       id="path16981"
       d="m 115.02168,398.02734 v 0.004 a 1.0001,1.0001 0 0 0 -0.0605,-0.002 1.0001,1.0001 0 0 0 -0.6875,0.30273 L 102.3186,410.2852 a 1.0001,1.0001 0 0 0 -0.28711,0.92187 v 0.79297 h 0.88672 a 1.0001,1.0001 0 0 0 0.81445,-0.30078 l 11.95508,-11.95313 a 1.0001,1.0001 0 0 0 0.30273,-0.71875 v -1 h -0.96875 z" />
  </g>
  <g
     transform="translate(-101.0002,-396.99936)"
     style="display:inline"
     id="layer10" />
  <g
     transform="translate(-101.0002,-396.99936)"
     id="layer11" />
  <g
     transform="translate(-101.0002,-396.99936)"
     style="display:inline"
     id="layer13" />
  <g
     transform="translate(-101.0002,-396.99936)"
     id="layer14" />
  <g
     transform="translate(-101.0002,-396.99936)"
     style="display:inline"
     id="layer15" />
  <g
     transform="translate(-101.0002,-396.99936)"
     style="display:inline"
     id="g71291" />
  <g
     transform="translate(-101.0002,-396.99936)"
     style="display:inline"
     id="g4953" />
  <g
     transform="translate(-101.0002,-396.99936)"
     style="display:inline"
     id="layer12" />
</svg>
