<?xml version="1.0" encoding="UTF-8" standalone="no"?>
<svg
   xmlns:dc="http://purl.org/dc/elements/1.1/"
   xmlns:cc="http://creativecommons.org/ns#"
   xmlns:rdf="http://www.w3.org/1999/02/22-rdf-syntax-ns#"
   xmlns:svg="http://www.w3.org/2000/svg"
   xmlns="http://www.w3.org/2000/svg"
   width="16.000202"
   version="1.1"
	 viewBox="-4 -4 24 24"

   id="svg7384"
   height="16.000031">
  <metadata
     id="metadata90">
    <rdf:RDF>
      <cc:Work
         rdf:about="">
        <dc:format>image/svg+xml</dc:format>
        <dc:type
           rdf:resource="http://purl.org/dc/dcmitype/StillImage" />
        <dc:title>Gnome Symbolic Icon Theme</dc:title>
      </cc:Work>
    </rdf:RDF>
  </metadata>
  <title
     id="title9167">Gnome Symbolic Icon Theme</title>
  <defs
     id="defs7386" />
  <g
     transform="translate(-102.0002,-648.99997)"
     style="display:inline"
     id="layer9" />
  <g
     transform="translate(-102.0002,-648.99997)"
     style="display:inline"
     id="layer10" />
  <g
     transform="translate(-102.0002,-648.99997)"
     id="layer11">
    <path
       style="fill:#f1f2f2;fill-opacity:1;stroke:none"
       id="path9219"
       d="m 109.55489,655.09373 c -0.70541,0.62353 -1.53918,0.90625 -2.55469,0.90625 -1.01551,0 -1.85318,-0.29053 -2.55859,-0.91406 -1.10938,0.36328 -2.43603,1.28775 -2.4375,2.90234 l -0.004,3.01172 c -7.2e-4,0.554 0.446,1.00002 1,1.00002 h 6 v -5 c -0.011,-0.32734 0.3599,-0.99776 1,-1 l 1.14063,-0.004 c -0.71485,-0.60547 -1.157,-0.79019 -1.58594,-0.90236 z" />
    <path
       id="path9221"
       d="M 52,342.5 A 2.5,2.5 0 0 1 49.5,345 2.5,2.5 0 0 1 47,342.5 2.5,2.5 0 0 1 49.5,340 2.5,2.5 0 0 1 52,342.5 Z"
       style="color:#f1f2f2;display:inline;overflow:visible;visibility:visible;fill:#f1f2f2;fill-opacity:1;fill-rule:nonzero;stroke:none;stroke-width:2;marker:none;enable-background:accumulate"
       transform="matrix(1.2,0,0,1.2,47.6002,240.99997)" />
    <path
       style="color:#f1f2f2;display:inline;overflow:visible;visibility:visible;fill:#f1f2f2;fill-opacity:1;fill-rule:nonzero;stroke:none;stroke-width:2;marker:none;enable-background:accumulate"
       id="path9233"
       d="m 110.8754,657 c -0.49245,0 -0.875,0.38256 -0.875,0.875 v 6.25 c 0,0.49244 0.38255,0.875 0.875,0.875 h 6.25 c 0.49245,0 0.875,-0.38256 0.875,-0.875 v -6.25 c 0,-0.49244 -0.38255,-0.875 -0.875,-0.875 z m 2.125,1 h 2 v 1 h -2 z m 0,2 h 2 v 4 h -2 z" />
  </g>
  <g
     transform="translate(-102.0002,-648.99997)"
     style="display:inline"
     id="layer13" />
  <g
     transform="translate(-102.0002,-648.99997)"
     id="layer14" />
  <g
     transform="translate(-102.0002,-648.99997)"
     style="display:inline"
     id="layer15" />
  <g
     transform="translate(-102.0002,-648.99997)"
     style="display:inline"
     id="g71291" />
  <g
     transform="translate(-102.0002,-648.99997)"
     style="display:inline"
     id="g4953" />
  <g
     transform="translate(-102.0002,-648.99997)"
     style="display:inline"
     id="layer12" />
</svg>
