<?xml version="1.0" encoding="UTF-8" standalone="no"?>
<svg
   xmlns:dc="http://purl.org/dc/elements/1.1/"
   xmlns:cc="http://creativecommons.org/ns#"
   xmlns:rdf="http://www.w3.org/1999/02/22-rdf-syntax-ns#"
   xmlns:svg="http://www.w3.org/2000/svg"
   xmlns="http://www.w3.org/2000/svg"
   width="16.012655"
   version="1.1"
	 viewBox="-4 -4 24 24"

   id="svg7384"
   height="15.999979">
  <metadata
     id="metadata90">
    <rdf:RDF>
      <cc:Work
         rdf:about="">
        <dc:format>image/svg+xml</dc:format>
        <dc:type
           rdf:resource="http://purl.org/dc/dcmitype/StillImage" />
        <dc:title>Gnome Symbolic Icon Theme</dc:title>
      </cc:Work>
    </rdf:RDF>
  </metadata>
  <title
     id="title9167">Gnome Symbolic Icon Theme</title>
  <defs
     id="defs7386" />
  <g
     transform="translate(-562.99367,-175.00002)"
     style="display:inline"
     id="layer9" />
  <g
     transform="translate(-562.99367,-175.00002)"
     style="display:inline"
     id="layer10" />
  <g
     transform="translate(-562.99367,-175.00002)"
     id="layer11" />
  <g
     transform="translate(-562.99367,-175.00002)"
     style="display:inline"
     id="layer13">
    <g
       transform="matrix(1,0,0,0.99999871,405.62018,-584.9021)"
       id="g5388">
      <title
         id="title5390">go-home</title>
      <g
         transform="matrix(0.02603569,0,0,0.02603569,345.96663,902.07624)"
         style="fill:#f1f2f2;fill-opacity:1"
         id="g5392">
        <g
           style="fill:#f1f2f2;fill-opacity:1"
           id="g5394" />
        <g
           style="fill:#f1f2f2;fill-opacity:1"
           id="g5396" />
      </g>
      <g
         transform="matrix(0,1,1,0,-360.61998,639.9031)"
         id="g5398" />
    </g>
    <path
       style="color:#000000;font-style:normal;font-variant:normal;font-weight:normal;font-stretch:normal;font-size:medium;line-height:normal;font-family:Sans;-inkscape-font-specification:Sans;text-indent:0;text-align:start;text-decoration:none;text-decoration-line:none;letter-spacing:normal;word-spacing:normal;text-transform:none;writing-mode:lr-tb;direction:ltr;baseline-shift:baseline;text-anchor:start;display:inline;overflow:visible;visibility:visible;fill:#f1f2f2;fill-opacity:1;stroke:none;stroke-width:2;marker:none;enable-background:accumulate"
       id="path5414"
       d="M 565.78125,180 A 1.0001,1.0001 0 0 0 565,181 v 7 a 1.0001,1.0001 0 0 0 1,1 h 10 a 1.0001,1.0001 0 0 0 1,-1 v -7 a 1.0001,1.0001 0 1 0 -2,0 v 6 h -8 v -6 a 1.0001,1.0001 0 0 0 -1.21875,-1 z" />
    <path
       style="color:#000000;font-style:normal;font-variant:normal;font-weight:normal;font-stretch:normal;font-size:medium;line-height:normal;font-family:Sans;-inkscape-font-specification:Sans;text-indent:0;text-align:start;text-decoration:none;text-decoration-line:none;letter-spacing:normal;word-spacing:normal;text-transform:none;writing-mode:lr-tb;direction:ltr;baseline-shift:baseline;text-anchor:start;display:inline;overflow:visible;visibility:visible;fill:#f1f2f2;fill-opacity:1;stroke:none;stroke-width:2;marker:none;enable-background:accumulate"
       id="path6184"
       d="m 570.90625,176 a 1.0001,1.0001 0 0 0 -0.5,0.1875 l -7,5 a 1.0063276,1.0063276 0 1 0 1.1875,1.625 L 571,178.25 l 6.40625,4.5625 a 1.0063276,1.0063276 0 1 0 1.1875,-1.625 l -7,-5 A 1.0001,1.0001 0 0 0 570.90625,176 Z" />
    <path
       id="rect6261"
       d="m 569.00024,182.99998 h 3 v 6 h -3 z"
       style="color:#f1f2f2;display:inline;overflow:visible;visibility:visible;fill:#f1f2f2;fill-opacity:1;fill-rule:nonzero;stroke:none;stroke-width:2;marker:none;enable-background:accumulate" />
    <path
       id="rect8452-7"
       d="m -578.50037,181.99998 c 0.277,0 0.5,0.223 0.5,0.5 0,0.277 -0.223,0.5 -0.5,0.5 -0.277,0 -0.5,-0.223 -0.5,-0.5 0,-0.277 0.223,-0.5 0.5,-0.5 z"
       style="display:inline;fill:#f1f2f2;fill-opacity:1;stroke:none"
       transform="scale(-1,1)" />
    <path
       id="rect8452-8"
       d="m -563.50037,181.99998 c 0.277,0 0.5,0.223 0.5,0.5 0,0.277 -0.223,0.5 -0.5,0.5 -0.277,0 -0.5,-0.223 -0.5,-0.5 0,-0.277 0.223,-0.5 0.5,-0.5 z"
       style="display:inline;fill:#f1f2f2;fill-opacity:1;stroke:none"
       transform="scale(-1,1)" />
  </g>
  <g
     transform="translate(-562.99367,-175.00002)"
     id="layer14" />
  <g
     transform="translate(-562.99367,-175.00002)"
     style="display:inline"
     id="layer15" />
  <g
     transform="translate(-562.99367,-175.00002)"
     style="display:inline"
     id="g71291" />
  <g
     transform="translate(-562.99367,-175.00002)"
     style="display:inline"
     id="g4953" />
  <g
     transform="translate(-562.99367,-175.00002)"
     style="display:inline"
     id="layer12" />
</svg>
