<?xml version="1.0" encoding="UTF-8" standalone="no"?>
<svg
   xmlns:dc="http://purl.org/dc/elements/1.1/"
   xmlns:cc="http://creativecommons.org/ns#"
   xmlns:rdf="http://www.w3.org/1999/02/22-rdf-syntax-ns#"
   xmlns:svg="http://www.w3.org/2000/svg"
   xmlns="http://www.w3.org/2000/svg"
   width="16"
   version="1.1"
	 viewBox="-4 -4 24 24"

   id="svg7384"
   height="16">
  <metadata
     id="metadata90">
    <rdf:RDF>
      <cc:Work
         rdf:about="">
        <dc:format>image/svg+xml</dc:format>
        <dc:type
           rdf:resource="http://purl.org/dc/dcmitype/StillImage" />
        <dc:title>Gnome Symbolic Icon Theme</dc:title>
      </cc:Work>
    </rdf:RDF>
  </metadata>
  <title
     id="title9167">Gnome Symbolic Icon Theme</title>
  <defs
     id="defs7386" />
  <g
     transform="translate(-101.0002,-357)"
     style="display:inline"
     id="layer9">
    <path
       style="fill:#f1f2f2;fill-opacity:1;stroke:none"
       id="path8297"
       d="m 104.5002,358 c -1.385,0 -2.5,1.115 -2.5,2.5 v 5 c 0,1.385 1.115,2.5 2.5,2.5 h 6.375 l 3.125,4 v -4.0625 c 1.14126,-0.23235 2,-1.22563 2,-2.4375 v -5 c 0,-1.385 -1.115,-2.5 -2.5,-2.5 z m 0,2 h 9 c 0.277,0 0.5,0.223 0.5,0.5 v 5 c 0,0.277 -0.223,0.5 -0.5,0.5 h -9 c -0.277,0 -0.5,-0.223 -0.5,-0.5 v -5 c 0,-0.277 0.223,-0.5 0.5,-0.5 z" />
  </g>
  <g
     transform="translate(-101.0002,-357)"
     style="display:inline"
     id="layer10" />
  <g
     transform="translate(-101.0002,-357)"
     id="layer11" />
  <g
     transform="translate(-101.0002,-357)"
     style="display:inline"
     id="layer13" />
  <g
     transform="translate(-101.0002,-357)"
     id="layer14" />
  <g
     transform="translate(-101.0002,-357)"
     style="display:inline"
     id="layer15" />
  <g
     transform="translate(-101.0002,-357)"
     style="display:inline"
     id="g71291" />
  <g
     transform="translate(-101.0002,-357)"
     style="display:inline"
     id="g4953" />
  <g
     transform="translate(-101.0002,-357)"
     style="display:inline"
     id="layer12" />
</svg>
