<?xml version="1.0" encoding="UTF-8" standalone="no"?>
<svg
   xmlns:dc="http://purl.org/dc/elements/1.1/"
   xmlns:cc="http://creativecommons.org/ns#"
   xmlns:rdf="http://www.w3.org/1999/02/22-rdf-syntax-ns#"
   xmlns:svg="http://www.w3.org/2000/svg"
   xmlns="http://www.w3.org/2000/svg"
   width="16.000002"
   version="1.1"
	 viewBox="-4 -4 24 24"

   id="svg7384"
   height="16">
  <metadata
     id="metadata90">
    <rdf:RDF>
      <cc:Work
         rdf:about="">
        <dc:format>image/svg+xml</dc:format>
        <dc:type
           rdf:resource="http://purl.org/dc/dcmitype/StillImage" />
        <dc:title>Gnome Symbolic Icon Theme</dc:title>
      </cc:Work>
    </rdf:RDF>
  </metadata>
  <title
     id="title9167">Gnome Symbolic Icon Theme</title>
  <defs
     id="defs7386" />
  <g
     transform="translate(378.9998,-515)"
     style="display:inline"
     id="layer9" />
  <g
     transform="translate(378.9998,-515)"
     id="layer10" />
  <g
     transform="translate(378.9998,-515)"
     id="layer11" />
  <g
     transform="translate(378.9998,-515)"
     id="layer13">
    <path
       style="display:inline;fill:#f1f2f2;fill-opacity:1;stroke:none"
       id="path5441"
       d="m -378.46855,516 c -0.28913,0 -0.53125,0.24212 -0.53125,0.53125 v 13.93755 c 0,0.2985 0.23264,0.5312 0.53125,0.5312 h 14.9375 c 0.2986,0 0.53125,-0.2326 0.53125,-0.5312 v -8.9376 c 0,-0.2891 -0.24212,-0.5312 -0.53125,-0.5312 h -12.46875 v 7.5 c 0,0.277 -0.223,0.5 -0.5,0.5 -0.277,0 -0.5,-0.223 -0.5,-0.5 v -8 c 0,-0.277 0.223,-0.5 0.5,-0.5 h 2.96875 8.53125 v -1.4062 c 0,-0.3272 -0.26666,-0.5938 -0.59375,-0.5938 h -7.40625 v -1.46875 c 0,-0.28915 -0.24212,-0.53125 -0.53125,-0.53125 z" />
  </g>
  <g
     transform="translate(378.9998,-515)"
     id="layer14" />
  <g
     transform="translate(378.9998,-515)"
     style="display:inline"
     id="layer15" />
  <g
     transform="translate(378.9998,-515)"
     style="display:inline"
     id="g71291" />
  <g
     transform="translate(378.9998,-515)"
     style="display:inline"
     id="g4953" />
  <g
     transform="translate(378.9998,-515)"
     style="display:inline"
     id="layer12" />
</svg>
