<?xml version="1.0" encoding="UTF-8" standalone="no"?>
<svg
   xmlns:dc="http://purl.org/dc/elements/1.1/"
   xmlns:cc="http://creativecommons.org/ns#"
   xmlns:rdf="http://www.w3.org/1999/02/22-rdf-syntax-ns#"
   xmlns:svg="http://www.w3.org/2000/svg"
   xmlns="http://www.w3.org/2000/svg"
   width="16"
   version="1.1"
	 viewBox="-4 -4 24 24"

   id="svg7384"
   height="16">
  <metadata
     id="metadata90">
    <rdf:RDF>
      <cc:Work
         rdf:about="">
        <dc:format>image/svg+xml</dc:format>
        <dc:type
           rdf:resource="http://purl.org/dc/dcmitype/StillImage" />
        <dc:title>Gnome Symbolic Icon Theme</dc:title>
      </cc:Work>
    </rdf:RDF>
  </metadata>
  <title
     id="title9167">Gnome Symbolic Icon Theme</title>
  <defs
     id="defs7386" />
  <g
     transform="translate(-161.0002,-357)"
     style="display:inline"
     id="layer9">
    <path
       style="opacity:1;fill:#f1f2f2;fill-opacity:1;stroke:none"
       id="path8354"
       d="m 164.5002,358 c -1.385,0 -2.5,1.115 -2.5,2.5 v 0.5 h 14 v -0.5 c 0,-1.385 -1.115,-2.5 -2.5,-2.5 z m -2.4375,8 c 0.23235,1.14126 1.22562,2 2.4375,2 h 6.375 l 3.125,4 v -4.0625 c 0.97406,-0.20133 1.73857,-0.96043 1.9375,-1.9375 z" />
    <path
       id="path4955-6"
       d="m 29,209 a 1,1 0 0 1 -1,1 1,1 0 0 1 -1,-1 1,1 0 0 1 1,-1 1,1 0 0 1 1,1 z"
       style="display:inline;fill:#f1f2f2;fill-opacity:1;stroke:none"
       transform="matrix(1.5,0,0,1.5,122.4999,50)" />
    <path
       id="path4957-7"
       d="m 29,209 a 1,1 0 0 1 -1,1 1,1 0 0 1 -1,-1 1,1 0 0 1 1,-1 1,1 0 0 1 1,1 z"
       style="display:inline;fill:#f1f2f2;fill-opacity:1;stroke:none"
       transform="matrix(1.5,0,0,1.5,126.4999,50)" />
    <path
       id="path4959-1"
       d="m 29,209 a 1,1 0 0 1 -1,1 1,1 0 0 1 -1,-1 1,1 0 0 1 1,-1 1,1 0 0 1 1,1 z"
       style="display:inline;fill:#f1f2f2;fill-opacity:1;stroke:none"
       transform="matrix(1.5,0,0,1.5,130.4999,50)" />
  </g>
  <g
     transform="translate(-161.0002,-357)"
     style="display:inline"
     id="layer10" />
  <g
     transform="translate(-161.0002,-357)"
     id="layer11" />
  <g
     transform="translate(-161.0002,-357)"
     style="display:inline"
     id="layer13" />
  <g
     transform="translate(-161.0002,-357)"
     id="layer14" />
  <g
     transform="translate(-161.0002,-357)"
     style="display:inline"
     id="layer15" />
  <g
     transform="translate(-161.0002,-357)"
     style="display:inline"
     id="g71291" />
  <g
     transform="translate(-161.0002,-357)"
     style="display:inline"
     id="g4953" />
  <g
     transform="translate(-161.0002,-357)"
     style="display:inline"
     id="layer12" />
</svg>
