<?xml version="1.0" encoding="UTF-8" standalone="no"?>
<svg id="svg10" xmlns="http://www.w3.org/2000/svg" version="1.1" viewBox="-4 -4 24 24"><g id="g8" color="#f1f2f2" fill="#f1f2f2"><path id="path4" style="text-indent:0;stroke-width:1.1821;text-transform:none;text-decoration-line:none" d="m3.5551 5.0349a0.73467 0.68476 0 0 0 -0.30611 1.1778l1.9126 1.7827-1.9138 1.7838a0.75794 0.70645 0 1 0 1.0714 0.99861l2.4489-2.2827a0.73467 0.68476 0 0 0 0 -0.99861l-2.4489-2.2826a0.73467 0.68476 0 0 0 -0.7653 -0.1792z" overflow="visible" font-weight="400"/><path id="path6" style="stroke-width:1.1547" overflow="visible" d="m8 10h4v1h-4z"/><path id="rect20" style="opacity:.9;fill:#f1f2f2" d="m1 1c-0.554 0-1 0.446-1 1v12c0 0.554 0.446 1 1 1h14c0.554 0 1-0.446 1-1v-12c0-0.554-0.446-1-1-1h-14zm0.8574 1h12.286c0.474 0 0.857 0.3826 0.857 0.8574v10.286c0 0.474-0.383 0.857-0.857 0.857h-12.286c-0.4744 0-0.857-0.383-0.857-0.857v-10.286c0-0.4744 0.3826-0.857 0.8574-0.857z"/></g></svg>
