<svg xmlns="http://www.w3.org/2000/svg" version="1.1" viewBox="-4 -4 24 24"><path style="text-decoration-color:#000;isolation:auto;mix-blend-mode:normal;text-indent:0;text-decoration-line:none;text-transform:none;text-decoration-style:solid" fill="#f1f2f2" d="m8 0v0.0019531c-3.145-0.043-6.1623 1.9509-7.3633 4.8789l0.00002 0.0019c-0.877 2.08-0.80492 4.4719-0.04492 6.5472l0.00195 0.002v0.002a0.402 0.402 0 0 0 0.01758 0.039c0.155 0.315 0.31739 0.619 0.40037 0.892 0.085 0.277 0.1001 0.499-0.0019 0.748v0.002a0.402 0.402 0 0 0 -0.01957 0.059l-0.90625 2.306c-0.069996 0.282 0.19075 0.555 0.46875 0.491 0.80997-0.188 2.0133-0.822 2.7793-0.955 0.296 0.01 0.5965 0.124 0.9375 0.279 0.347 0.157 0.7381 0.349 1.2051 0.41 2.268 0.554 4.8104 0.374 6.8344-0.963l0.005-0.004 0.008-0.006c2.555-1.605 4.017-4.718 3.61-7.7242-0.372-3.468-3.226-6.4072-6.6468-6.9062a8.2 8.2 0 0 0 -1.2793 -0.099647l-0.0059-0.001953zm-3.6348 4a8.258 8.258 0 0 1 0.4239 0.0078c0.136 0.008 0.318-0.0548 0.498 0.4102 0.185 0.478 0.6276 1.6534 0.6836 1.7734 0.055 0.119 0.0916 0.258 0.0176 0.418-0.074 0.159-0.1107 0.2594-0.2207 0.3984-0.111 0.139-0.2321 0.311-0.3321 0.418-0.111 0.119-0.2257 0.2463-0.0957 0.4863 0.129 0.239 0.5715 1.0213 1.2305 1.6543 0.845 0.8126 1.5603 1.0656 1.7813 1.1856 0.222 0.12 0.3485 0.099 0.4785-0.061 0.129-0.159 0.5531-0.6961 0.7011-0.9351 0.148-0.24 0.2951-0.1992 0.4978-0.1192 0.203 0.08 1.293 0.6553 1.514 0.7753 0.222 0.119 0.37 0.179 0.426 0.279 0.055 0.099 0.055 0.577-0.129 1.135-0.185 0.558-1.071 1.069-1.496 1.137-0.3822 0.062-0.8648 0.085-1.3948-0.096-0.322-0.11-0.7337-0.256-1.2617-0.502-2.221-1.035-3.6732-3.4452-3.7832-3.6052-0.111-0.16-0.9043-1.2947-0.9043-2.4707 0-1.175 0.5724-1.7513 0.7754-1.9903a0.788 0.788 0 0 1 0.5898 -0.2988z"/></svg>
