<?xml version="1.0" encoding="UTF-8" standalone="no"?>
<svg
   xmlns:dc="http://purl.org/dc/elements/1.1/"
   xmlns:cc="http://creativecommons.org/ns#"
   xmlns:rdf="http://www.w3.org/1999/02/22-rdf-syntax-ns#"
   xmlns:svg="http://www.w3.org/2000/svg"
   xmlns="http://www.w3.org/2000/svg"
   id="svg45"
   version="1.1"
	 viewBox="-4 -4 24 24"

>
  <metadata
     id="metadata49">
    <rdf:RDF>
      <cc:Work
         rdf:about="">
        <dc:format>image/svg+xml</dc:format>
        <dc:type
           rdf:resource="http://purl.org/dc/dcmitype/StillImage" />
        <dc:title></dc:title>
      </cc:Work>
    </rdf:RDF>
  </metadata>
  <defs
     id="defs17" />
  <path
     style="opacity:0.96499999;fill:#f1f2f2"
     id="path19"
     d="m 5,11 v 3 H 4 c -1,0 -1,0 -1,1 0,1 0,1 1.0103692,1 H 12 c 1,0 1,0 1,-1 0,-1 0,-1 -1,-1 h -1 v -3 z" />
  <path
     id="rect23"
     d="M 0.80078125,1 C 0.35758124,1 0,1.3575812 0,1.8007812 V 12.199219 C 0,12.642419 0.35758124,13 0.80078125,13 H 15.199219 C 15.642419,13 16,12.642419 16,12.199219 V 1.8007812 C 16,1.3575812 15.642419,1 15.199219,1 Z M 2,3 h 12 v 7 H 2 Z"
     style="fill:#f1f2f2" />
</svg>
