<?xml version="1.0" encoding="UTF-8" standalone="no"?>
<svg
   xmlns:dc="http://purl.org/dc/elements/1.1/"
   xmlns:cc="http://creativecommons.org/ns#"
   xmlns:rdf="http://www.w3.org/1999/02/22-rdf-syntax-ns#"
   xmlns:svg="http://www.w3.org/2000/svg"
   xmlns="http://www.w3.org/2000/svg"
   width="16"
   version="1.1"
	 viewBox="-4 -4 24 24"

   id="svg7384"
   height="16">
  <metadata
     id="metadata90">
    <rdf:RDF>
      <cc:Work
         rdf:about="">
        <dc:format>image/svg+xml</dc:format>
        <dc:type
           rdf:resource="http://purl.org/dc/dcmitype/StillImage" />
        <dc:title>Gnome Symbolic Icon Theme</dc:title>
      </cc:Work>
    </rdf:RDF>
  </metadata>
  <title
     id="title9167">Gnome Symbolic Icon Theme</title>
  <defs
     id="defs7386" />
  <g
     transform="translate(-120.99995,-297)"
     style="display:inline"
     id="layer9">
    <path
       style="color:#000000;font-style:normal;font-variant:normal;font-weight:normal;font-stretch:normal;font-size:medium;line-height:normal;font-family:Sans;-inkscape-font-specification:Sans;text-indent:0;text-align:start;text-decoration:none;text-decoration-line:none;letter-spacing:normal;word-spacing:normal;text-transform:none;writing-mode:lr-tb;direction:ltr;baseline-shift:baseline;text-anchor:start;display:inline;overflow:visible;visibility:visible;fill:#f1f2f2;fill-opacity:1;stroke:none;stroke-width:2;marker:none;enable-background:accumulate"
       id="path8023"
       d="m 130.78125,302 a 1.0001,1.0001 0 0 0 -0.5,1.71875 l 2,2 0.71875,0.6875 0.71875,-0.6875 2,-2 a 1.016466,1.016466 0 1 0 -1.4375,-1.4375 L 133,303.5625 131.71875,302.28125 A 1.0001,1.0001 0 0 0 130.78125,302 Z" />
    <path
       style="color:#000000;font-style:normal;font-variant:normal;font-weight:normal;font-stretch:normal;font-size:medium;line-height:normal;font-family:Sans;-inkscape-font-specification:Sans;text-indent:0;text-align:start;text-decoration:none;text-decoration-line:none;letter-spacing:normal;word-spacing:normal;text-transform:none;writing-mode:lr-tb;direction:ltr;baseline-shift:baseline;text-anchor:start;display:inline;overflow:visible;visibility:visible;fill:#f1f2f2;fill-opacity:1;stroke:none;stroke-width:2;marker:none;enable-background:accumulate"
       id="path8025"
       d="m 127,298 c -1.6447,0 -3,1.3553 -3,3 v 8 c 0,1.6447 1.3553,3 3,3 h 4 v -2 h -4 c -0.5713,0 -1,-0.4287 -1,-1 v -8 c 0,-0.5713 0.4287,-1 1,-1 h 4 c 0.5713,0 1,0.4287 1,1 v 4 h 2 v -4 c 0,-1.6447 -1.3553,-3 -3,-3 z" />
    <path
       id="rect8027"
       d="m -302.99994,129.99995 h 1 v 1 h -1 z"
       style="color:#000000;display:inline;overflow:visible;visibility:visible;fill:#f1f2f2;fill-opacity:1;fill-rule:nonzero;stroke:none;stroke-width:2;marker:none;enable-background:accumulate"
       transform="rotate(-90)" />
    <path
       id="rect8029"
       d="m -302.99994,134.99995 h 1 v 1 h -1 z"
       style="color:#000000;display:inline;overflow:visible;visibility:visible;fill:#f1f2f2;fill-opacity:1;fill-rule:nonzero;stroke:none;stroke-width:2;marker:none;enable-background:accumulate"
       transform="rotate(-90)" />
  </g>
  <g
     transform="translate(-120.99995,-297)"
     id="layer10" />
  <g
     transform="translate(-120.99995,-297)"
     id="layer11" />
  <g
     transform="translate(-120.99995,-297)"
     id="layer13" />
  <g
     transform="translate(-120.99995,-297)"
     id="layer14" />
  <g
     transform="translate(-120.99995,-297)"
     style="display:inline"
     id="layer15" />
  <g
     transform="translate(-120.99995,-297)"
     style="display:inline"
     id="g71291" />
  <g
     transform="translate(-120.99995,-297)"
     style="display:inline"
     id="g4953" />
  <g
     transform="translate(-120.99995,-297)"
     style="display:inline"
     id="layer12" />
</svg>
