<?xml version="1.0" encoding="UTF-8" standalone="no"?>
<svg
   xmlns:dc="http://purl.org/dc/elements/1.1/"
   xmlns:cc="http://creativecommons.org/ns#"
   xmlns:rdf="http://www.w3.org/1999/02/22-rdf-syntax-ns#"
   xmlns:svg="http://www.w3.org/2000/svg"
   xmlns="http://www.w3.org/2000/svg"
   width="16"
   version="1.1"
	 viewBox="-4 -4 24 24"

   id="svg7384"
   height="16.000336">
  <metadata
     id="metadata90">
    <rdf:RDF>
      <cc:Work
         rdf:about="">
        <dc:format>image/svg+xml</dc:format>
        <dc:type
           rdf:resource="http://purl.org/dc/dcmitype/StillImage" />
        <dc:title>Gnome Symbolic Icon Theme</dc:title>
      </cc:Work>
    </rdf:RDF>
  </metadata>
  <title
     id="title9167">Gnome Symbolic Icon Theme</title>
  <defs
     id="defs7386" />
  <g
     transform="translate(-141,-866.99979)"
     style="display:inline"
     id="layer9" />
  <g
     transform="translate(-141,-866.99979)"
     id="layer10" />
  <g
     transform="translate(-141,-866.99979)"
     id="layer11" />
  <g
     transform="translate(-141,-866.99979)"
     id="layer13" />
  <g
     transform="translate(-141,-866.99979)"
     id="layer14" />
  <g
     transform="translate(-141,-866.99979)"
     style="display:inline"
     id="layer15" />
  <g
     transform="translate(-141,-866.99979)"
     style="display:inline"
     id="g71291" />
  <g
     transform="translate(-141,-866.99979)"
     style="display:inline"
     id="g4953" />
  <g
     transform="translate(-141,-866.99979)"
     style="display:inline"
     id="layer12">
    <path
       id="rect42942-5-3-1-6-9-9"
       d="m -150.6252,878 h 3.25004 c 0.20775,0 0.375,0.16725 0.375,0.375 v 1.25 c 0,0.20775 -0.16725,0.375 -0.375,0.375 h -3.25004 c -0.20775,0 -0.375,-0.16725 -0.375,-0.375 v -1.25 c 0,-0.20775 0.16725,-0.375 0.375,-0.375 z"
       style="color:#f1f2f2;display:inline;overflow:visible;visibility:visible;opacity:0.35;fill:#f1f2f2;fill-opacity:1;stroke:none;stroke-width:1;marker:none"
       transform="scale(-1,1)" />
    <path
       id="rect42944-7-5-3-5-0-8-8"
       d="m -150.6252,866.99976 h 3.25004 c 0.20775,0 0.375,0.16725 0.375,0.375 v 1.25021 c 0,0.20775 -0.16725,0.375 -0.375,0.375 h -3.25004 c -0.20775,0 -0.375,-0.16725 -0.375,-0.375 v -1.25021 c 0,-0.20775 0.16725,-0.375 0.375,-0.375 z"
       style="color:#f1f2f2;display:inline;overflow:visible;visibility:visible;opacity:0.35;fill:#f1f2f2;fill-opacity:1;stroke:none;stroke-width:1;marker:none"
       transform="scale(-1,1)" />
    <path
       id="rect42944-7-5-3-5-1-5-8-7-4"
       d="m -150.6252,881 h 3.25004 c 0.20775,0 0.375,0.16725 0.375,0.375 v 1.25 c 0,0.20775 -0.16725,0.375 -0.375,0.375 h -3.25004 c -0.20775,0 -0.375,-0.16725 -0.375,-0.375 v -1.25 c 0,-0.20775 0.16725,-0.375 0.375,-0.375 z"
       style="color:#f1f2f2;display:inline;overflow:visible;visibility:visible;opacity:0.35;fill:#f1f2f2;fill-opacity:1;stroke:none;stroke-width:1;marker:none"
       transform="scale(-1,1)" />
    <path
       id="rect42942-5-3-1-1-2-4-0-0"
       d="m -150.6252,869.99976 h 3.25004 c 0.20775,0 0.375,0.16725 0.375,0.375 v 1.25021 c 0,0.20775 -0.16725,0.375 -0.375,0.375 h -3.25004 c -0.20775,0 -0.375,-0.16725 -0.375,-0.375 v -1.25021 c 0,-0.20775 0.16725,-0.375 0.375,-0.375 z"
       style="color:#f1f2f2;display:inline;overflow:visible;visibility:visible;opacity:0.35;fill:#f1f2f2;fill-opacity:1;stroke:none;stroke-width:1;marker:none"
       transform="scale(-1,1)" />
    <path
       id="rect42942-5-3-1-6-6-3-8"
       d="m -155.0002,874 h 12.00001 v 2 h -12.00001 z"
       style="color:#f1f2f2;display:inline;overflow:visible;visibility:visible;fill:#f1f2f2;fill-opacity:1;stroke:none;stroke-width:1;marker:none"
       transform="scale(-1,1)" />
  </g>
</svg>
