<?xml version="1.0" encoding="UTF-8" standalone="no"?>
<svg
   xmlns:dc="http://purl.org/dc/elements/1.1/"
   xmlns:cc="http://creativecommons.org/ns#"
   xmlns:rdf="http://www.w3.org/1999/02/22-rdf-syntax-ns#"
   xmlns:svg="http://www.w3.org/2000/svg"
   xmlns="http://www.w3.org/2000/svg"
   width="16"
   version="1.1"
	 viewBox="-4 -4 24 24"

   id="svg7384"
   height="16">
  <metadata
     id="metadata90">
    <rdf:RDF>
      <cc:Work
         rdf:about="">
        <dc:format>image/svg+xml</dc:format>
        <dc:type
           rdf:resource="http://purl.org/dc/dcmitype/StillImage" />
        <dc:title>Gnome Symbolic Icon Theme</dc:title>
      </cc:Work>
    </rdf:RDF>
  </metadata>
  <title
     id="title9167">Gnome Symbolic Icon Theme</title>
  <defs
     id="defs7386" />
  <g
     transform="translate(-181,-867.00012)"
     style="display:inline"
     id="layer9" />
  <g
     transform="translate(-181,-867.00012)"
     id="layer10" />
  <g
     transform="translate(-181,-867.00012)"
     id="layer11" />
  <g
     transform="translate(-181,-867.00012)"
     id="layer13" />
  <g
     transform="translate(-181,-867.00012)"
     id="layer14" />
  <g
     transform="translate(-181,-867.00012)"
     style="display:inline"
     id="layer15" />
  <g
     transform="translate(-181,-867.00012)"
     style="display:inline"
     id="g71291" />
  <g
     transform="translate(-181,-867.00012)"
     style="display:inline"
     id="g4953" />
  <g
     transform="translate(-181,-867.00012)"
     style="display:inline"
     id="layer12">
    <path
       style="color:#f1f2f2;font-style:normal;font-variant:normal;font-weight:normal;font-stretch:normal;font-size:medium;line-height:normal;font-family:Sans;-inkscape-font-specification:Sans;text-indent:0;text-align:start;text-decoration:none;text-decoration-line:none;letter-spacing:normal;word-spacing:normal;text-transform:none;writing-mode:lr-tb;direction:ltr;baseline-shift:baseline;text-anchor:start;display:inline;overflow:visible;visibility:visible;fill:#f1f2f2;fill-opacity:1;stroke:none;stroke-width:2;marker:none;enable-background:accumulate"
       id="rect7352-28-4-8"
       d="m 181,868 v 1 11 1 h 1 5 c 0.1754,0 0.52538,0.15166 0.8125,0.34375 0.28712,0.19209 0.46875,0.375 0.46875,0.375 L 189,882.4375 l 0.71875,-0.75 c 0,0 0.8963,-0.6875 1.28125,-0.6875 h 5 1 v -1 -11 -1 h -1 -5 c -0.87652,0 -1.56017,0.34756 -2.03125,0.6875 -0.0301,-0.0207 -0.031,-0.0105 -0.0625,-0.0312 C 188.44557,868.35254 187.82811,868 187,868 h -5 z m 2,2 h 4 c 0.13821,0 0.51476,0.14746 0.8125,0.34375 0.29774,0.19629 0.5,0.375 0.5,0.375 l 0.71875,0.6875 0.6875,-0.71875 c 0,0 0.89975,-0.6875 1.28125,-0.6875 h 4 v 9 h -4 c -0.87693,0 -1.56008,0.34735 -2.03125,0.6875 -0.0196,-0.0135 -0.011,-0.0177 -0.0312,-0.0312 C 188.47725,879.34834 187.83512,879 187,879 h -4 z" />
    <path
       id="rect42942-5-3-1-4-4-5-9"
       d="m -186.62521,871.99976 h 2.25001 c 0.20775,0 0.375,0.16725 0.375,0.375 v 1.25 c 0,0.20775 -0.16725,0.375 -0.375,0.375 h -2.25001 c -0.20775,0 -0.375,-0.16725 -0.375,-0.375 v -1.25 c 0,-0.20775 0.16725,-0.375 0.375,-0.375 z"
       style="color:#f1f2f2;display:inline;overflow:visible;visibility:visible;opacity:0.35;fill:#f1f2f2;fill-opacity:1;stroke:none;stroke-width:1;marker:none"
       transform="scale(-1,1)" />
    <path
       id="rect42944-7-5-3-5-1-5-0-2-62-5"
       d="m -186.62521,874.99976 h 2.25001 c 0.20775,0 0.375,0.16725 0.375,0.375 v 1.25021 c 0,0.20775 -0.16725,0.375 -0.375,0.375 h -2.25001 c -0.20775,0 -0.375,-0.16725 -0.375,-0.375 v -1.25021 c 0,-0.20775 0.16725,-0.375 0.375,-0.375 z"
       style="color:#f1f2f2;display:inline;overflow:visible;visibility:visible;opacity:0.35;fill:#f1f2f2;fill-opacity:1;stroke:none;stroke-width:1;marker:none"
       transform="scale(-1,1)" />
    <path
       id="rect42942-5-3-1-4-4-6-0-1"
       d="m -193.62521,871.99976 h 2.25001 c 0.20775,0 0.375,0.16725 0.375,0.375 v 1.25021 c 0,0.20775 -0.16725,0.375 -0.375,0.375 h -2.25001 c -0.20775,0 -0.375,-0.16725 -0.375,-0.375 v -1.25021 c 0,-0.20775 0.16725,-0.375 0.375,-0.375 z"
       style="color:#f1f2f2;display:inline;overflow:visible;visibility:visible;opacity:0.35;fill:#f1f2f2;fill-opacity:1;stroke:none;stroke-width:1;marker:none"
       transform="scale(-1,1)" />
    <path
       id="rect42944-7-5-3-5-1-5-0-2-6-4-6"
       d="m -193.62521,874.99976 h 2.25001 c 0.20775,0 0.375,0.16725 0.375,0.375 v 1.25021 c 0,0.20775 -0.16725,0.375 -0.375,0.375 h -2.25001 c -0.20775,0 -0.375,-0.16725 -0.375,-0.375 v -1.25021 c 0,-0.20775 0.16725,-0.375 0.375,-0.375 z"
       style="color:#f1f2f2;display:inline;overflow:visible;visibility:visible;opacity:0.35;fill:#f1f2f2;fill-opacity:1;stroke:none;stroke-width:1;marker:none"
       transform="scale(-1,1)" />
  </g>
</svg>
