<svg xmlns="http://www.w3.org/2000/svg" viewBox="-4 -4 24 24" version="1.1"><path fill="#f1f2f2" d="m7.0293 2c-0.5001 0-0.7733 0.373-0.9043 0.8008l-0.6855 2.2383 4.6505 0.0156-0.7775-2.2539c-0.1461-0.4239-0.4023-0.8008-0.9023-0.8008zm-2.209 5.0625-0.61328 2h7.2637l-0.68945-2zm-1.2266 4l-0.5937 1.938h-1.3809c-0.37173 0-0.67188 0.20511-0.67188 0.45898v1.1445c0 0.25387 0.30014 0.45898 0.67188 0.45898h12.588c0.37173 0 0.67188-0.20511 0.67188-0.45898v-1.145c0-0.254-0.3-0.459-0.672-0.459h-1.3789l-0.66797-1.9375z"/></svg>
