<?xml version="1.0" encoding="UTF-8" standalone="no"?>
<svg
   xmlns:dc="http://purl.org/dc/elements/1.1/"
   xmlns:cc="http://creativecommons.org/ns#"
   xmlns:rdf="http://www.w3.org/1999/02/22-rdf-syntax-ns#"
   xmlns:svg="http://www.w3.org/2000/svg"
   xmlns="http://www.w3.org/2000/svg"
   width="16"
   height="16"
   version="1.1"
	 viewBox="-4 -4 24 24"

   id="svg7384">
  <metadata
     id="metadata90">
    <rdf:RDF>
      <cc:Work
         rdf:about="">
        <dc:format>image/svg+xml</dc:format>
        <dc:type
           rdf:resource="http://purl.org/dc/dcmitype/StillImage" />
        <dc:title>Gnome Symbolic Icon Theme</dc:title>
      </cc:Work>
    </rdf:RDF>
  </metadata>
  <title
     id="title9167">Gnome Symbolic Icon Theme</title>
  <defs
     id="defs7386" />
  <g
     style="display:inline"
     id="layer9"
     transform="translate(-161,-277)">
    <path
       style="color:#000000;display:inline;overflow:visible;visibility:visible;fill:#f1f2f2;fill-opacity:1;stroke:none;stroke-width:2.40000033;marker:none;enable-background:accumulate"
       id="path5094-5-04-4-6-4-8"
       d="m 170.5,281 c -1.28379,0 -2.32658,0.97301 -2.46875,2.21875 C 167.70449,283.09667 167.36934,283 167,283 c -1.65685,0 -3,1.34315 -3,3 0,0.0982 0.022,0.1855 0.0312,0.28125 C 163.73151,286.10201 163.37464,286 163,286 c -1.10457,0 -2,0.89543 -2,2 0,1.10457 0.89543,2 2,2 h 12.5 c 0.82843,0 1.5,-0.67157 1.5,-1.5 0,-0.82843 -0.67157,-1.5 -1.5,-1.5 -0.20711,0 -0.41429,0.0491 -0.59375,0.125 0.0526,-0.20194 0.0937,-0.40658 0.0937,-0.625 0,-1.22936 -0.89334,-2.22819 -2.0625,-2.4375 0.0419,-0.18136 0.0625,-0.36843 0.0625,-0.5625 0,-1.38071 -1.11929,-2.5 -2.5,-2.5 z" />
  </g>
  <g
     id="layer10"
     transform="translate(-161,-277)" />
  <g
     id="layer11"
     transform="translate(-161,-277)" />
  <g
     id="layer12"
     transform="translate(-161,-277)" />
  <g
     id="layer13"
     transform="translate(-161,-277)" />
  <g
     id="layer14"
     transform="translate(-161,-277)" />
  <g
     style="display:inline"
     id="layer15"
     transform="translate(-161,-277)" />
  <g
     style="display:inline"
     id="g4953"
     transform="translate(-161,-277)" />
</svg>
