<?xml version="1.0" encoding="UTF-8" standalone="no"?>
<svg
   xmlns:dc="http://purl.org/dc/elements/1.1/"
   xmlns:cc="http://creativecommons.org/ns#"
   xmlns:rdf="http://www.w3.org/1999/02/22-rdf-syntax-ns#"
   xmlns:svg="http://www.w3.org/2000/svg"
   xmlns="http://www.w3.org/2000/svg"
   version="1.1"
	 viewBox="-4 -4 24 24"

   width="16"
   height="16"
   id="svg7384">
  <metadata
     id="metadata90">
    <rdf:RDF>
      <cc:Work
         rdf:about="">
        <dc:format>image/svg+xml</dc:format>
        <dc:type
           rdf:resource="http://purl.org/dc/dcmitype/StillImage" />
        <dc:title>Gnome Symbolic Icon Theme</dc:title>
      </cc:Work>
    </rdf:RDF>
  </metadata>
  <title
     id="title9167">Gnome Symbolic Icon Theme</title>
  <defs
     id="defs7386" />
  <g
     style="display:inline"
     transform="translate(-201,-277)"
     id="layer9">
    <path
       style="color:#000000;display:inline;overflow:visible;visibility:visible;fill:#f1f2f2;fill-opacity:1;stroke:none;stroke-width:2.40000033;marker:none;enable-background:accumulate"
       d="m 210.49169,278 c -1.27668,0 -2.31369,0.97301 -2.45508,2.21875 C 207.71166,280.09667 207.37837,280 207.01107,280 c -1.64767,0 -2.98339,1.34315 -2.98339,3 0,0.0982 0.0219,0.1855 0.031,0.28125 C 203.76073,283.10201 203.40579,283 203.03322,283 c -1.09845,0 -1.98893,0.89543 -1.98893,2 0,1.10457 0.89048,2 1.98893,2 h 0.37293 c 0.16455,-0.35221 0.36642,-0.68097 0.65261,-0.96875 l 2.45508,-2.46875 2.45508,2.46875 c 0.28329,0.28486 0.46455,0.62003 0.62154,0.96875 h 0.46616 l 1.42954,-1.4375 1.42954,1.4375 h 2.54831 c 0.82384,0 1.4917,-0.67157 1.4917,-1.5 0,-0.82843 -0.66786,-1.5 -1.4917,-1.5 -0.20596,0 -0.412,0.0491 -0.59046,0.125 0.0524,-0.20194 0.0931,-0.40658 0.0931,-0.625 0,-1.22936 -0.88839,-2.22819 -2.05108,-2.4375 0.0417,-0.18136 0.0621,-0.36843 0.0621,-0.5625 0,-1.38071 -1.11309,-2.5 -2.48615,-2.5 z"
       id="path5094-5-04-4-6" />
    <path
       style="color:#000000;font-style:normal;font-variant:normal;font-weight:normal;font-stretch:normal;font-size:medium;line-height:normal;font-family:Sans;-inkscape-font-specification:Sans;text-indent:0;text-align:start;text-decoration:none;text-decoration-line:none;letter-spacing:normal;word-spacing:normal;text-transform:none;writing-mode:lr-tb;direction:ltr;baseline-shift:baseline;text-anchor:start;display:inline;overflow:visible;visibility:visible;fill:#f1f2f2;fill-opacity:1;stroke:none;stroke-width:1;marker:none;enable-background:accumulate"
       d="m 206.5,284.90625 -0.34375,0.375 -1.4375,1.40625 c -0.97212,0.97212 -0.97212,2.55913 0,3.53125 0.97212,0.97212 2.59038,0.97213 3.5625,0 0.97212,-0.97212 0.97212,-2.55913 0,-3.53125 l -1.4375,-1.40625 z m 0,1.40625 1.0625,1.09375 c 0.58998,0.58998 0.58998,1.53502 0,2.125 -0.58996,0.58997 -1.53502,0.58998 -2.125,0 v -0.0312 c -0.56791,-0.59117 -0.58256,-1.51119 0,-2.09375 z"
       id="path5927-5-0-8-7-0-1" />
    <path
       style="color:#000000;font-style:normal;font-variant:normal;font-weight:normal;font-stretch:normal;font-size:medium;line-height:normal;font-family:Sans;-inkscape-font-specification:Sans;text-indent:0;text-align:start;text-decoration:none;text-decoration-line:none;letter-spacing:normal;word-spacing:normal;text-transform:none;writing-mode:lr-tb;direction:ltr;baseline-shift:baseline;text-anchor:start;display:inline;overflow:visible;visibility:visible;fill:#f1f2f2;fill-opacity:1;stroke:none;stroke-width:1;marker:none;enable-background:accumulate"
       d="m 211.5,286.90625 -0.34375,0.375 -1.4375,1.40625 c -0.97212,0.97212 -0.97212,2.55913 0,3.53125 0.97212,0.97212 2.59038,0.97213 3.5625,0 0.97212,-0.97212 0.97212,-2.55913 0,-3.53125 l -1.4375,-1.40625 z m 0,1.40625 1.0625,1.09375 c 0.58998,0.58998 0.58998,1.53502 0,2.125 -0.58996,0.58997 -1.53502,0.58998 -2.125,0 v -0.0312 c -0.56791,-0.59117 -0.58256,-1.51119 0,-2.09375 z"
       id="path5927-5-0-8-7-0-4" />
  </g>
  <g
     transform="translate(-201,-277)"
     id="layer10" />
  <g
     transform="translate(-201,-277)"
     id="layer11" />
  <g
     transform="translate(-201,-277)"
     id="layer13" />
  <g
     transform="translate(-201,-277)"
     id="layer14" />
  <g
     style="display:inline"
     transform="translate(-201,-277)"
     id="layer15" />
  <g
     style="display:inline"
     transform="translate(-201,-277)"
     id="g71291" />
  <g
     style="display:inline"
     transform="translate(-201,-277)"
     id="g4953" />
  <g
     style="display:inline"
     transform="translate(-201,-277)"
     id="layer12" />
</svg>
