<?xml version="1.0" encoding="UTF-8" standalone="no"?>
<svg
   xmlns:dc="http://purl.org/dc/elements/1.1/"
   xmlns:cc="http://creativecommons.org/ns#"
   xmlns:rdf="http://www.w3.org/1999/02/22-rdf-syntax-ns#"
   xmlns:svg="http://www.w3.org/2000/svg"
   xmlns="http://www.w3.org/2000/svg"
   width="16.02536"
   version="1.1"
	 viewBox="-4 -4 24 24"

   id="svg7384"
   height="16">
  <metadata
     id="metadata90">
    <rdf:RDF>
      <cc:Work
         rdf:about="">
        <dc:format>image/svg+xml</dc:format>
        <dc:type
           rdf:resource="http://purl.org/dc/dcmitype/StillImage" />
        <dc:title>Gnome Symbolic Icon Theme</dc:title>
      </cc:Work>
    </rdf:RDF>
  </metadata>
  <title
     id="title9167">Gnome Symbolic Icon Theme</title>
  <defs
     id="defs7386" />
  <path
     id="rect10862"
     d="M 2.0605469 1.0195312 C 0.93623679 1.0195312 -2.9605947e-16 1.9557681 0 3.0800781 L 0 6.828125 L 0 10.970703 L 0 12 L 0 14.277344 C 0 14.725485 0.36045308 15.019531 0.80859375 15.019531 L 15.191406 15.019531 C 15.639547 15.019531 16 14.725486 16 14.277344 L 16 12 L 16.025391 12 L 16.025391 3.0800781 C 16.025391 2.9968229 16.009964 2.9168264 16 2.8359375 L 16 8 L 14.025391 8 L 14.025391 13.019531 L 3 13.019531 L 2.8085938 13.019531 L 2 13.019531 L 2 12.335938 L 2.0253906 12.335938 C 2.0185269 12.293368 2 12.255511 2 12.210938 L 2 9.9550781 L 2 6.0195312 L 2 5.0800781 C 2 5.0294781 2.00965 5.0195312 2.0605469 5.0195312 L 8.1757812 5.0195312 L 9 5.0195312 L 9 1.0195312 L 8.1757812 1.0195312 L 2.0605469 1.0195312 z M 15 12.091797 L 15 12.210938 C 15 12.222048 14.994641 12.231187 14.994141 12.242188 L 15 12.091797 z "
     style="color:#000000;font-style:normal;font-variant:normal;font-weight:normal;font-stretch:normal;font-size:medium;line-height:normal;font-family:sans-serif;text-indent:0;text-align:start;text-decoration:none;text-decoration-line:none;text-decoration-style:solid;text-decoration-color:#000000;letter-spacing:normal;word-spacing:normal;text-transform:none;writing-mode:lr-tb;direction:ltr;baseline-shift:baseline;text-anchor:start;white-space:normal;clip-rule:nonzero;display:inline;overflow:visible;visibility:visible;opacity:1;isolation:auto;mix-blend-mode:normal;color-interpolation:sRGB;color-interpolation-filters:linearRGB;solid-color:#000000;solid-opacity:1;fill:#f1f2f2;fill-opacity:1;fill-rule:nonzero;stroke:none;stroke-width:2;stroke-linecap:butt;stroke-linejoin:miter;stroke-miterlimit:4;stroke-dasharray:none;stroke-dashoffset:0;stroke-opacity:1;marker:none;paint-order:normal;color-rendering:auto;image-rendering:auto;shape-rendering:auto;text-rendering:auto;enable-background:accumulate" />
  <path
     d="M 12,1.00654 V 3.00327 H 10 V 5 h 2 v 1.99673 h 2 V 5 h 2 V 3.00327 H 14 V 1.00654 Z"
     id="path26815"
     style="display:inline;fill:#669900;fill-opacity:1;stroke:none" />
</svg>
