<svg xmlns="http://www.w3.org/2000/svg" viewBox="-4 -4 24 24">
    <g color="#000" fill="#f1f2f2">
        <path style="line-height:normal;-inkscape-font-specification:Sans;text-indent:0;text-align:start;text-decoration-line:none;text-transform:none;marker:none" d="M2.813 1A1 1 0 0 0 2 2v13a1 1 0 0 0 1 1h10a1 1 0 0 0 1-1V5.562a1 1 0 0 0-.281-.718L10.156 1.28A1 1 0 0 0 9.438 1H3a1 1 0 0 0-.093 0 1 1 0 0 0-.094 0zM4 3h5v3h3v8H4z" font-weight="400" font-family="Sans" overflow="visible"/>
        <path d="M5 4h1v1H5zm2 0h1v1H7zM5 6h1v1H5zm2 0h1v1H7zm-2 6h1v1H5zm2 0h1v1H7zm2 0h1v1H9zm-4-.989h6V10L9.531 7.449l-1.53 2.047-1.47-1.063L5.001 10z" style="marker:none" overflow="visible"/>
    </g>
</svg>
