<svg xmlns="http://www.w3.org/2000/svg" version="1.1" xmlns:xlink="http://www.w3.org/1999/xlink" viewBox="-4 -4 24 24"><g fill="#f1f2f2"><path stroke-linejoin="round" d="m0.84766 1c-0.46988 0-0.84766 0.3778-0.84766 0.8477v12.304c0 0.47 0.37778 0.848 0.84766 0.848h14.304c0.47 0 0.848-0.378 0.848-0.848v-12.304c0-0.4702-0.378-0.848-0.848-0.848h-14.304zm1.6523 2h11c0.277 0 0.5 0.223 0.5 0.5v9c0 0.277-0.223 0.5-0.5 0.5h-11c-0.277 0-0.5-0.223-0.5-0.5v-9c0-0.277 0.223-0.5 0.5-0.5z" stroke-linecap="round" stroke-width=".40234"/><path d="m3.138 4a0.138 0.138 0 0 0 -0.138 0.138v3.862h4v-3.862a0.138 0.138 0 0 0 -0.138 -0.138z" fill-opacity=".978" stroke-width=".219"/><path d="m9.138 5c-0.076 0-0.138 0.045-0.138 0.1v2.9h4v-2.9c0-0.056-0.062-0.101-0.138-0.101z" fill-opacity=".978" stroke-width="0.187"/><path d="m6.138 10c-0.076 0-0.138 0.03-0.138 0.069v1.931h4v-1.931c0-0.038-0.062-0.069-0.138-0.069z" fill-opacity=".978" stroke-width=".155"/></g></svg>
