<?xml version="1.0" encoding="UTF-8" standalone="no"?>
<svg
   xmlns:dc="http://purl.org/dc/elements/1.1/"
   xmlns:cc="http://creativecommons.org/ns#"
   xmlns:rdf="http://www.w3.org/1999/02/22-rdf-syntax-ns#"
   xmlns:svg="http://www.w3.org/2000/svg"
   xmlns="http://www.w3.org/2000/svg"
   id="svg7384"
   height="16"
   version="1.1"
	 viewBox="-4 -4 24 24"

   width="15.981825">
  <metadata
     id="metadata90">
    <rdf:RDF>
      <cc:Work
         rdf:about="">
        <dc:format>image/svg+xml</dc:format>
        <dc:type
           rdf:resource="http://purl.org/dc/dcmitype/StillImage" />
        <dc:title>Gnome Symbolic Icon Theme</dc:title>
      </cc:Work>
    </rdf:RDF>
  </metadata>
  <title
     id="title9167">Gnome Symbolic Icon Theme</title>
  <defs
     id="defs7386" />
  <g
     transform="translate(-181.0002,-667)"
     style="display:inline"
     id="layer9" />
  <g
     transform="translate(-181.0002,-667)"
     id="layer10" />
  <g
     transform="translate(-181.0002,-667)"
     id="layer11" />
  <g
     transform="translate(-181.0002,-667)"
     id="layer13" />
  <g
     transform="translate(-181.0002,-667)"
     id="layer14" />
  <g
     transform="translate(-181.0002,-667)"
     style="display:inline"
     id="layer15" />
  <g
     transform="translate(-181.0002,-667)"
     style="display:inline"
     id="g71291" />
  <g
     transform="translate(-181.0002,-667)"
     style="display:inline"
     id="g4953" />
  <g
     transform="translate(-181.0002,-667)"
     style="display:inline"
     id="layer12">
    <path
       style="color:#f1f2f2;display:inline;overflow:visible;visibility:visible;fill:#f1f2f2;fill-opacity:1;stroke:none;stroke-width:2;marker:none"
       id="rect11749-5-0-1-8"
       d="m 184.1877,669 c -0.6627,0 -1.1875,0.54899 -1.1875,1.21875 v 9.5625 c 0,0.66976 0.5248,1.21875 1.1875,1.21875 h 9.625 c 0.6627,0 1.1875,-0.54899 1.1875,-1.21875 v -9.5625 c 0,-0.66976 -0.5248,-1.21875 -1.1875,-1.21875 z m 3.8125,3 h 2 v 2 h 2 v 2 h -2 v 2 h -2 v -2 h -2 v -2 h 2 z" />
  </g>
</svg>
