<?xml version="1.0" encoding="UTF-8" standalone="no"?>
<svg
   xmlns:dc="http://purl.org/dc/elements/1.1/"
   xmlns:cc="http://creativecommons.org/ns#"
   xmlns:rdf="http://www.w3.org/1999/02/22-rdf-syntax-ns#"
   xmlns:svg="http://www.w3.org/2000/svg"
   xmlns="http://www.w3.org/2000/svg"
   xmlns:sodipodi="http://sodipodi.sourceforge.net/DTD/sodipodi-0.dtd"
   xmlns:inkscape="http://www.inkscape.org/namespaces/inkscape"
   version="1.1"
   viewBox="0 0 16 16"
   id="svg14"
   sodipodi:docname="emblem-symbolic-link.svg"
   inkscape:version="0.92.1 r15371">
  <metadata
     id="metadata20">
    <rdf:RDF>
      <cc:Work
         rdf:about="">
        <dc:format>image/svg+xml</dc:format>
        <dc:type
           rdf:resource="http://purl.org/dc/dcmitype/StillImage" />
        <dc:title></dc:title>
      </cc:Work>
    </rdf:RDF>
  </metadata>
  <defs
     id="defs18" />
  <sodipodi:namedview
     pagecolor="#ffffff"
     bordercolor="#666666"
     borderopacity="1"
     objecttolerance="10"
     gridtolerance="10"
     guidetolerance="10"
     inkscape:pageopacity="0"
     inkscape:pageshadow="2"
     inkscape:window-width="2560"
     inkscape:window-height="1034"
     id="namedview16"
     showgrid="true"
     inkscape:zoom="33.889477"
     inkscape:cx="-0.47457627"
     inkscape:cy="8"
     inkscape:window-x="0"
     inkscape:window-y="22"
     inkscape:window-maximized="1"
     inkscape:current-layer="svg14">
    <inkscape:grid
       type="xygrid"
       id="grid4497" />
  </sodipodi:namedview>
  <path
     style="color:#000000;text-decoration-line:none;text-transform:none;text-indent:0;fill:#333333;fill-opacity:1"
     d="M 6.2871094 1.984375 C 6.1990826 1.9809765 6.0727313 1.9844526 5.9101562 2.0097656 C 4.7261562 2.1918756 3.7167812 2.9703394 3.2382812 4.0683594 A 1.0022 1.0022 0 0 0 3.2285156 4.0898438 C 3.1327156 4.3237438 3.0598719 4.5668594 3.0136719 4.8183594 A 1.0022 1.0022 0 0 0 3.9082031 5.9960938 L 1.9453125 5.9960938 L 2.0527344 6.0019531 C 1.9180444 5.9874391 1.7831275 5.9874381 1.6484375 6.0019531 A 1.0022 1.0022 0 0 0 1.5429688 6.0195312 C 0.98771875 6.1397312 0.60444562 6.4872937 0.35351562 6.8710938 C 0.10261562 7.2548937 -0.044730625 7.70515 0.005859375 8.21875 C 0.10580937 9.23525 0.90172375 9.9890531 1.9335938 10.001953 A 1.0022 1.0022 0 0 0 1.9453125 10.001953 L 3.9335938 10.001953 A 1.0022 1.0022 0 0 0 3.0195312 11.205078 C 3.3507312 12.793378 4.7572531 14.001953 6.4394531 14.001953 L 9.5683594 14.001953 C 11.249959 14.001953 12.656328 12.792025 12.986328 11.203125 A 1.0022 1.0022 0 0 0 12.167969 10.011719 L 13.904297 10.011719 L 13.753906 10 C 14.976506 10.18548 16.001953 9.2667819 16.001953 8.0449219 C 16.001953 6.9739219 15.309352 6.1486188 14.232422 6.0117188 C 14.082192 5.9926227 13.916333 5.9923431 13.751953 6.0175781 L 13.904297 6.0058594 L 11.671875 6.0058594 C 11.671104 6.0046239 11.670696 6.0031869 11.669922 6.0019531 L 12.005859 6.0019531 A 1.0022 1.0022 0 0 0 12.986328 4.796875 C 12.961328 4.673675 12.933469 4.5049094 12.855469 4.2871094 A 1.0022 1.0022 0 0 0 12.853516 4.2832031 C 12.352516 2.9029031 11.026994 1.9837469 9.5585938 1.9980469 L 6.4375 1.9980469 C 6.424842 1.9980469 6.3751361 1.9877735 6.2871094 1.984375 z "
     id="path2" />
  <g
     fill="#f1f2f2"
     id="g12">
    <path
       style="color:#000000;text-decoration-line:none;text-transform:none;text-indent:0"
       stroke-width=".98795"
       d="m1.7554 6.9977c-0.4549 0.0985-0.79768 0.6517-0.7512 1.1238 0.0465 0.473 0.4752 0.8727 0.9403 0.8785h3.9595c0.5409 0.0821 1.096-0.4055 1.096-0.9654 0-0.558-0.5551-1.1199-1.096-1.0369h-3.9596c-0.062824-0.00677-0.12625-0.00677-0.18907 0z"
       id="path4" />
    <path
       style="color:#000000;text-decoration-line:none;text-transform:none;text-indent:0"
       stroke-width="1.0001"
       d="m6.0635 3c-0.8457 0.1296-1.5658 0.6838-1.9075 1.468-0.0702 0.1715-0.1225 0.3498-0.156 0.532h8.0061c-0.026-0.126-0.054-0.263-0.094-0.375-0.357-0.9839-1.297-1.6352-2.3435-1.625h-3.1307c-0.1261 0-0.2521-0.019-0.3741 0z"
       id="path6" />
    <path
       style="color:#000000;text-decoration-line:none;text-transform:none;text-indent:0"
       stroke-width="1.0001"
       d="m4 11c0.23606 1.132 1.2403 2 2.4386 2h3.1298c1.1973 0 2.2026-0.868 2.4377-2z"
       id="path8" />
    <path
       style="color:#000000;text-decoration-line:none;text-transform:none;text-indent:0"
       d="m9.7554 7.0082c-0.4549 0.0985-0.7977 0.6517-0.7512 1.1238 0.0465 0.473 0.4752 0.8727 0.9403 0.8785h3.9595c0.54092 0.082061 1.096-0.40548 1.096-0.96543 0-0.55802-0.55508-1.1199-1.096-1.0369h-3.9596c-0.062824-0.00677-0.12625-0.00677-0.18907 0z"
       stroke-width=".98795"
       id="path10" />
  </g>
</svg>
