<?xml version="1.0" encoding="UTF-8" standalone="no"?>
<svg
   xmlns:dc="http://purl.org/dc/elements/1.1/"
   xmlns:cc="http://creativecommons.org/ns#"
   xmlns:rdf="http://www.w3.org/1999/02/22-rdf-syntax-ns#"
   xmlns:svg="http://www.w3.org/2000/svg"
   xmlns="http://www.w3.org/2000/svg"
   xmlns:sodipodi="http://sodipodi.sourceforge.net/DTD/sodipodi-0.dtd"
   xmlns:inkscape="http://www.inkscape.org/namespaces/inkscape"
   width="16"
   height="16"
   version="1.1"
   id="svg7384"
   sodipodi:docname="emblem-important.svg"
   inkscape:version="0.92.1 r15371">
  <sodipodi:namedview
     pagecolor="#ffffff"
     bordercolor="#666666"
     borderopacity="1"
     objecttolerance="10"
     gridtolerance="10"
     guidetolerance="10"
     inkscape:pageopacity="0"
     inkscape:pageshadow="2"
     inkscape:window-width="2560"
     inkscape:window-height="1034"
     id="namedview15"
     showgrid="true"
     inkscape:zoom="14.75"
     inkscape:cx="-29.186441"
     inkscape:cy="8"
     inkscape:window-x="0"
     inkscape:window-y="22"
     inkscape:window-maximized="1"
     inkscape:current-layer="svg7384">
    <inkscape:grid
       type="xygrid"
       id="grid4498" />
  </sodipodi:namedview>
  <metadata
     id="metadata90">
    <rdf:RDF>
      <cc:Work
         rdf:about="">
        <dc:format>image/svg+xml</dc:format>
        <dc:type
           rdf:resource="http://purl.org/dc/dcmitype/StillImage" />
        <dc:title>Gnome Symbolic Icon Theme</dc:title>
      </cc:Work>
    </rdf:RDF>
  </metadata>
  <title
     id="title9167">Gnome Symbolic Icon Theme</title>
  <defs
     id="defs7386" />
  <path
     style="fill:#323232;fill-opacity:1;stroke:none"
     d="M 8 0 C 3.593558 0 0 3.59356 0 8 C 0 12.40644 3.593558 16 8 16 C 12.406442 16 16 12.40644 16 8 C 16 3.59356 12.406442 0 8 0 z M 8.0117188 1.9648438 A 1.00012 1.00012 0 0 1 8.015625 1.9648438 C 8.017232 1.9652781 8.1260472 1.9879109 8.1835938 2 L 7.6660156 2 C 7.6849647 1.9951087 7.7266018 1.9843405 7.7265625 1.984375 L 7.8164062 1.9726562 C 7.8162452 1.9726663 8.0043637 1.9648437 8.0117188 1.9648438 z "
     id="path4492" />
  <g
     style="display:inline"
     id="layer9"
     transform="translate(-462,-381.99998)" />
  <g
     id="layer10"
     transform="translate(-462,-381.99998)" />
  <g
     id="layer11"
     transform="translate(-462,-381.99998)" />
  <g
     id="layer12"
     transform="translate(-462,-381.99998)" />
  <g
     id="layer13"
     transform="translate(-462,-381.99998)" />
  <g
     id="layer14"
     transform="translate(-462,-381.99998)" />
  <g
     transform="translate(-346.1907,-963.1781)"
     id="g35541">
    <path
       inkscape:connector-curvature="0"
       transform="translate(284.1907,141.17812)"
       d="m 70,823 c -3.86599,0 -7,3.13401 -7,7 0,3.86599 3.13401,7 7,7 3.86599,0 7,-3.13401 7,-7 0,-3.86599 -3.13401,-7 -7,-7 z m -0.09375,1.96875 A 1.0001,1.0001 0 0 1 71,826 v 5 a 1.0001,1.0001 0 1 1 -2,0 v -5 a 1.0001,1.0001 0 0 1 0.78125,-1 1.0001,1.0001 0 0 1 0.125,-0.0313 z M 70,833 c 0.552285,0 1,0.44772 1,1 0,0.55228 -0.447715,1 -1,1 -0.552285,0 -1,-0.44772 -1,-1 0,-0.55228 0.447715,-1 1,-1 z"
       id="path35543"
       style="fill:#f1f2f2;fill-opacity:1;stroke:none" />
  </g>
</svg>
