<?xml version="1.0" encoding="UTF-8" standalone="no"?>
<svg
   xmlns:dc="http://purl.org/dc/elements/1.1/"
   xmlns:cc="http://creativecommons.org/ns#"
   xmlns:rdf="http://www.w3.org/1999/02/22-rdf-syntax-ns#"
   xmlns:svg="http://www.w3.org/2000/svg"
   xmlns="http://www.w3.org/2000/svg"
   xmlns:sodipodi="http://sodipodi.sourceforge.net/DTD/sodipodi-0.dtd"
   xmlns:inkscape="http://www.inkscape.org/namespaces/inkscape"
   version="1.1"
   height="16"
   width="16"
   id="svg7384"
   sodipodi:docname="emblem-system.svg"
   inkscape:version="0.92.1 r15371">
  <sodipodi:namedview
     pagecolor="#ffffff"
     bordercolor="#666666"
     borderopacity="1"
     objecttolerance="10"
     gridtolerance="10"
     guidetolerance="10"
     inkscape:pageopacity="0"
     inkscape:pageshadow="2"
     inkscape:window-width="2333"
     inkscape:window-height="666"
     id="namedview16"
     showgrid="true"
     inkscape:zoom="33.889477"
     inkscape:cx="-0.33898305"
     inkscape:cy="11.540922"
     inkscape:window-x="0"
     inkscape:window-y="22"
     inkscape:window-maximized="0"
     inkscape:current-layer="layer15">
    <inkscape:grid
       type="xygrid"
       id="grid4497" />
  </sodipodi:namedview>
  <metadata
     id="metadata90">
    <rdf:RDF>
      <cc:Work
         rdf:about="">
        <dc:format>image/svg+xml</dc:format>
        <dc:type
           rdf:resource="http://purl.org/dc/dcmitype/StillImage" />
        <dc:title>Gnome Symbolic Icon Theme</dc:title>
      </cc:Work>
    </rdf:RDF>
  </metadata>
  <title
     id="title9167">Gnome Symbolic Icon Theme</title>
  <defs
     id="defs7386" />
  <g
     transform="translate(-441.0002,-400.99999)"
     style="display:inline"
     id="layer9" />
  <g
     transform="translate(-441.0002,-400.99999)"
     id="layer10" />
  <g
     transform="translate(-441.0002,-400.99999)"
     id="layer11" />
  <g
     transform="translate(-441.0002,-400.99999)"
     id="layer13" />
  <g
     transform="translate(-441.0002,-400.99999)"
     id="layer14" />
  <g
     transform="translate(-441.0002,-400.99999)"
     style="display:inline"
     id="layer15">
    <path
       sodipodi:type="inkscape:offset"
       inkscape:radius="1.00001"
       inkscape:original="M 449 402 C 448.77935 402 448.55919 402.01135 448.34375 402.03125 L 447.9375 404.125 C 447.60304 404.1983 447.27445 404.30089 446.96875 404.4375 L 445.4375 402.96875 C 445.04887 403.19886 444.71055 403.48283 444.375 403.78125 L 445.28125 405.6875 C 445.05883 405.93649 444.857 406.21 444.6875 406.5 L 442.59375 406.21875 C 442.41603 406.62752 442.28503 407.05512 442.1875 407.5 L 444.03125 408.5 C 444.01415 408.66809 444 408.8274 444 409 C 444 409.1726 444.01425 409.33191 444.03125 409.5 L 442.1875 410.5 C 442.285 410.94488 442.41603 411.37248 442.59375 411.78125 L 444.6875 411.5 C 444.857 411.79 445.05883 412.06351 445.28125 412.3125 L 444.375 414.21875 C 444.71055 414.51717 445.04887 414.80114 445.4375 415.03125 L 446.96875 413.5625 C 447.27445 413.69911 447.60304 413.80166 447.9375 413.875 L 448.34375 415.96875 C 448.55919 415.98875 448.77935 416 449 416 C 449.22065 416 449.44081 415.98865 449.65625 415.96875 L 450.0625 413.875 C 450.39696 413.8017 450.72555 413.69911 451.03125 413.5625 L 452.5625 415.03125 C 452.95113 414.80114 453.28945 414.51717 453.625 414.21875 L 452.71875 412.3125 C 452.94117 412.06351 453.143 411.79 453.3125 411.5 L 455.40625 411.78125 C 455.58397 411.37248 455.71497 410.94488 455.8125 410.5 L 453.96875 409.5 C 453.98585 409.33191 454 409.1726 454 409 C 454 408.8274 453.98575 408.66809 453.96875 408.5 L 455.8125 407.5 C 455.715 407.05512 455.58397 406.62752 455.40625 406.21875 L 453.3125 406.5 C 453.143 406.21 452.94117 405.93649 452.71875 405.6875 L 453.625 403.78125 C 453.28945 403.48283 452.95113 403.19886 452.5625 402.96875 L 451.03125 404.4375 C 450.72555 404.30089 450.39696 404.19834 450.0625 404.125 L 449.65625 402.03125 C 449.44081 402.01125 449.22065 402 449 402 z M 449 406 C 450.65685 406 452 407.34315 452 409 C 452 410.65685 450.65685 412 449 412 C 447.34315 412 446 410.65685 446 409 C 446 407.34315 447.34315 406 449 406 z "
       style="color:#000000;display:inline;overflow:visible;visibility:visible;fill:#323232;fill-opacity:1;fill-rule:nonzero;stroke:none;marker:none;enable-background:accumulate"
       id="path4493"
       d="m 449,401 c -0.25494,0 -0.50515,0.0127 -0.74805,0.0352 a 1.00011,1.00011 0 0 0 -0.89062,0.80468 l -0.25977,1.33985 -0.97265,-0.9336 a 1.00011,1.00011 0 0 0 -1.20118,-0.13867 c -0.48005,0.28424 -0.86722,0.61489 -1.21679,0.92578 a 1.00011,1.00011 0 0 0 -0.23828,1.17774 l 0.56836,1.19336 -1.31446,-0.17578 a 1.00011,1.00011 0 0 0 -1.05078,0.59179 c -0.20775,0.47784 -0.3559,0.96793 -0.46484,1.46485 a 1.00011,1.00011 0 0 0 0.5,1.09375 l 1.14453,0.62109 -1.14453,0.62109 a 1.00011,1.00011 0 0 0 -0.5,1.09375 c 0.10892,0.49701 0.25711,0.98705 0.46484,1.46485 a 1.00011,1.00011 0 0 0 1.05078,0.59179 l 1.31446,-0.17578 -0.56836,1.19336 a 1.00011,1.00011 0 0 0 0.23828,1.17774 c 0.34957,0.31089 0.73674,0.64154 1.21679,0.92578 a 1.00011,1.00011 0 0 0 1.20118,-0.13867 l 0.97265,-0.9336 0.25977,1.33985 a 1.00011,1.00011 0 0 0 0.89062,0.80468 C 448.49546,416.98745 448.74536,417 449,417 c 0.25494,0 0.50515,-0.0127 0.74805,-0.0352 a 1.00011,1.00011 0 0 0 0.89062,-0.80468 l 0.25977,-1.33985 0.97265,0.9336 a 1.00011,1.00011 0 0 0 1.20118,0.13867 c 0.48005,-0.28424 0.86722,-0.61489 1.21679,-0.92578 a 1.00011,1.00011 0 0 0 0.23828,-1.17774 l -0.56836,-1.19336 1.31446,0.17578 a 1.00011,1.00011 0 0 0 1.05078,-0.59179 c 0.20775,-0.47784 0.3559,-0.96793 0.46484,-1.46485 a 1.00011,1.00011 0 0 0 -0.5,-1.09375 L 455.14453,409 l 1.14453,-0.62109 a 1.00011,1.00011 0 0 0 0.5,-1.09375 c -0.10892,-0.49701 -0.25711,-0.98705 -0.46484,-1.46485 a 1.00011,1.00011 0 0 0 -1.05078,-0.59179 l -1.31446,0.17578 0.56836,-1.19336 a 1.00011,1.00011 0 0 0 -0.23828,-1.17774 c -0.34957,-0.31089 -0.73674,-0.64154 -1.21679,-0.92578 a 1.00011,1.00011 0 0 0 -1.20118,0.13867 l -0.97265,0.9336 -0.25977,-1.33985 a 1.00011,1.00011 0 0 0 -0.89062,-0.80468 C 449.50454,401.01255 449.25464,401 449,401 Z m 0,6 c 1.1164,0 2,0.8836 2,2 0,1.1164 -0.8836,2 -2,2 -1.1164,0 -2,-0.8836 -2,-2 0,-1.1164 0.8836,-2 2,-2 z" />
    <path
       style="color:#000000;display:inline;overflow:visible;visibility:visible;fill:#f1f2f2;fill-opacity:1;fill-rule:nonzero;stroke:none;marker:none;enable-background:accumulate"
       d="m 449.0004,402.00002 c -0.22065,0 -0.44081,0.0113 -0.65625,0.0312 l -0.40625,2.09375 c -0.33446,0.0733 -0.66305,0.17589 -0.96875,0.3125 l -1.53125,-1.46875 c -0.38863,0.23011 -0.72695,0.51408 -1.0625,0.8125 l 0.90625,1.90625 c -0.22242,0.24899 -0.42425,0.5225 -0.59375,0.8125 l -2.09375,-0.28125 c -0.17772,0.40877 -0.30872,0.83637 -0.40625,1.28125 l 1.84375,1 c -0.0171,0.16809 -0.0312,0.3274 -0.0312,0.5 0,0.1726 0.0142,0.33191 0.0312,0.5 l -1.84375,1 c 0.0975,0.44488 0.22853,0.87248 0.40625,1.28125 l 2.09375,-0.28125 c 0.1695,0.29 0.37133,0.56351 0.59375,0.8125 l -0.90625,1.90625 c 0.33555,0.29842 0.67387,0.58239 1.0625,0.8125 l 1.53125,-1.46875 c 0.3057,0.13661 0.63429,0.23916 0.96875,0.3125 l 0.40625,2.09375 c 0.21544,0.02 0.4356,0.0312 0.65625,0.0312 0.22065,0 0.44081,-0.0113 0.65625,-0.0312 l 0.40625,-2.09375 c 0.33446,-0.0733 0.66305,-0.17589 0.96875,-0.3125 l 1.53125,1.46875 c 0.38863,-0.23011 0.72695,-0.51408 1.0625,-0.8125 l -0.90625,-1.90625 c 0.22242,-0.24899 0.42425,-0.5225 0.59375,-0.8125 l 2.09375,0.28125 c 0.17772,-0.40877 0.30872,-0.83637 0.40625,-1.28125 l -1.84375,-1 c 0.0171,-0.16809 0.0312,-0.3274 0.0312,-0.5 0,-0.1726 -0.0142,-0.33191 -0.0312,-0.5 l 1.84375,-1 c -0.0975,-0.44488 -0.22853,-0.87248 -0.40625,-1.28125 l -2.09375,0.28125 c -0.1695,-0.29 -0.37133,-0.56351 -0.59375,-0.8125 l 0.90625,-1.90625 c -0.33555,-0.29842 -0.67387,-0.58239 -1.0625,-0.8125 l -1.53125,1.46875 c -0.3057,-0.13661 -0.63429,-0.23916 -0.96875,-0.3125 l -0.40625,-2.09375 c -0.21544,-0.02 -0.4356,-0.0312 -0.65625,-0.0312 z m 0,4 c 1.65685,0 3,1.34315 3,3 0,1.65685 -1.34315,3 -3,3 -1.65685,0 -3,-1.34315 -3,-3 0,-1.65685 1.34315,-3 3,-3 z"
       id="path35543-6-4" />
  </g>
  <g
     transform="translate(-441.0002,-400.99999)"
     style="display:inline"
     id="g71291" />
  <g
     transform="translate(-441.0002,-400.99999)"
     style="display:inline"
     id="g4953" />
  <g
     transform="translate(-441.0002,-400.99999)"
     style="display:inline"
     id="layer12" />
</svg>
