<?xml version="1.0" encoding="UTF-8" standalone="no"?>
<svg
   xmlns:dc="http://purl.org/dc/elements/1.1/"
   xmlns:cc="http://creativecommons.org/ns#"
   xmlns:rdf="http://www.w3.org/1999/02/22-rdf-syntax-ns#"
   xmlns:svg="http://www.w3.org/2000/svg"
   xmlns="http://www.w3.org/2000/svg"
   xmlns:sodipodi="http://sodipodi.sourceforge.net/DTD/sodipodi-0.dtd"
   xmlns:inkscape="http://www.inkscape.org/namespaces/inkscape"
   width="16"
   height="16"
   version="1.1"
   id="svg7384"
   sodipodi:docname="emblem-music.svg"
   inkscape:version="0.92.1 r15371">
  <sodipodi:namedview
     pagecolor="#ffffff"
     bordercolor="#666666"
     borderopacity="1"
     objecttolerance="10"
     gridtolerance="10"
     guidetolerance="10"
     inkscape:pageopacity="0"
     inkscape:pageshadow="2"
     inkscape:window-width="2560"
     inkscape:window-height="1034"
     id="namedview20"
     showgrid="true"
     inkscape:snap-bbox="true"
     inkscape:bbox-nodes="true"
     inkscape:zoom="25.683421"
     inkscape:cx="2.3293691"
     inkscape:cy="8"
     inkscape:window-x="0"
     inkscape:window-y="22"
     inkscape:window-maximized="1"
     inkscape:current-layer="layer15">
    <inkscape:grid
       type="xygrid"
       id="grid4497" />
  </sodipodi:namedview>
  <metadata
     id="metadata90">
    <rdf:RDF>
      <cc:Work
         rdf:about="">
        <dc:format>image/svg+xml</dc:format>
        <dc:type
           rdf:resource="http://purl.org/dc/dcmitype/StillImage" />
        <dc:title>Gnome Symbolic Icon Theme</dc:title>
      </cc:Work>
    </rdf:RDF>
  </metadata>
  <title
     id="title9167">Gnome Symbolic Icon Theme</title>
  <defs
     id="defs7386" />
  <g
     style="display:inline"
     id="layer9"
     transform="translate(-582,-381.99998)" />
  <g
     id="layer10"
     transform="translate(-582,-381.99998)" />
  <g
     id="layer11"
     transform="translate(-582,-381.99998)" />
  <g
     id="layer13"
     transform="translate(-582,-381.99998)" />
  <g
     id="layer14"
     transform="translate(-582,-381.99998)" />
  <g
     style="display:inline"
     id="layer15"
     transform="translate(-582,-381.99998)">
    <rect
       style="opacity:1;fill:#323232;fill-opacity:1;stroke:none;stroke-width:2.995152;stroke-miterlimit:4;stroke-dasharray:none;stroke-opacity:1"
       id="rect4505"
       width="4"
       height="4"
       x="585"
       y="390.99997"
       ry="1.6337467" />
    <rect
       style="opacity:1;fill:#323232;fill-opacity:1;stroke:none;stroke-width:2.34324646;stroke-miterlimit:4;stroke-dasharray:none;stroke-opacity:1"
       id="rect4507"
       width="3.9999995"
       height="3.9999895"
       x="592"
       y="390.99997"
       ry="1.4141825" />
    <path
       sodipodi:type="inkscape:offset"
       inkscape:radius="1"
       inkscape:original="M 6 2 L 6 4 L 6 8.1738281 A 2.9999969 3 0 0 0 5 8 A 2.9999969 3 0 0 0 2 11 A 2.9999969 3 0 0 0 5 14 A 2.9999969 3 0 0 0 8 11 L 8 4 L 13 4 L 13 8.1738281 A 2.9999969 3 0 0 0 12 8 A 2.9999969 3 0 0 0 9 11 A 2.9999969 3 0 0 0 12 14 A 2.9999969 3 0 0 0 15 11 L 15 2 L 13 2 L 8 2 L 6 2 z M 5 10 A 0.99999923 1.0000052 0 0 1 6 11 A 0.99999923 1.0000052 0 0 1 5 12 A 0.99999923 1.0000052 0 0 1 4 11 A 0.99999923 1.0000052 0 0 1 5 10 z M 12 10 A 0.99999923 1.0000052 0 0 1 13 11 A 0.99999923 1.0000052 0 0 1 12 12 A 0.99999923 1.0000052 0 0 1 11 11 A 0.99999923 1.0000052 0 0 1 12 10 z "
       style="color:#000000;display:inline;overflow:visible;visibility:visible;fill:#323232;fill-opacity:1;fill-rule:nonzero;stroke:none;stroke-width:1.46650386;marker:none;enable-background:new"
       id="path4501"
       d="M 6,1 A 1.0001,1.0001 0 0 0 5,2 V 4 7 C 3.9528023,6.9999989 2.9123557,7.4313943 2.171875,8.171875 1.4313943,8.9123557 1,9.952802 1,11 1,12.047198 1.4313943,13.087644 2.171875,13.828125 2.9123557,14.568606 3.9528023,15.000001 5,15 6.0471977,15.000001 7.0876443,14.568606 7.828125,13.828125 8.1164471,13.539803 8.3126753,13.178431 8.5,12.816406 8.6873247,13.178431 8.8835529,13.539803 9.171875,13.828125 9.9123557,14.568606 10.952802,15.000001 12,15 c 1.047198,10e-7 2.087644,-0.431394 2.828125,-1.171875 C 15.568606,13.087644 16,12.047198 16,11 V 2 A 1.0001,1.0001 0 0 0 15,1 H 13 8 Z m 3,4 h 3 V 7 C 10.952802,6.9999989 9.9123557,7.4313943 9.171875,8.171875 9.0983158,8.2454342 9.0673336,8.3504899 9,8.4296875 Z M 5,9 c 2.6e-6,0 0.7656235,0.1523431 0.765625,0.1523438 1.5e-6,6e-7 0.6484381,0.4335943 0.6484375,0.4335937 -6e-7,-6e-7 0.433595,0.6484405 0.4335937,0.6484375 C 6.847655,10.234372 7,11.000004 7,11 c 0,-4e-6 -0.152345,0.765628 -0.1523438,0.765625 1.3e-6,-3e-6 -0.4335943,0.648438 -0.4335937,0.648437 6e-7,0 -0.648436,0.433594 -0.6484375,0.433594 C 5.7656235,12.847657 5.0000026,13 5,13 c -2.6e-6,0 -0.7656235,-0.152343 -0.765625,-0.152344 -1.5e-6,0 -0.6484381,-0.433594 -0.6484375,-0.433594 6e-7,1e-6 -0.433595,-0.64844 -0.4335937,-0.648437 C 3.152345,11.765628 3,10.999996 3,11 c 0,4e-6 0.152345,-0.765628 0.1523438,-0.765625 -1.3e-6,3e-6 0.4335943,-0.6484381 0.4335937,-0.6484375 -6e-7,6e-7 0.648436,-0.4335931 0.6484375,-0.4335937 C 4.2343765,9.1523431 4.9999974,9 5,9 Z m 7,0 c 3e-6,0 0.765624,0.1523431 0.765625,0.1523438 10e-7,6e-7 0.648438,0.4335943 0.648437,0.4335937 0,-6e-7 0.433596,0.6484405 0.433594,0.6484375 C 13.847655,10.234372 14,11.000004 14,11 c 0,-4e-6 -0.152345,0.765628 -0.152344,0.765625 2e-6,-3e-6 -0.433594,0.648438 -0.433594,0.648437 1e-6,0 -0.648436,0.433594 -0.648437,0.433594 C 12.765624,12.847657 12.000003,13 12,13 c -3e-6,0 -0.765624,-0.152343 -0.765625,-0.152344 -10e-7,0 -0.648438,-0.433594 -0.648437,-0.433594 0,1e-6 -0.433596,-0.64844 -0.433594,-0.648437 C 10.152345,11.765628 10,10.999996 10,11 c 0,4e-6 0.152345,-0.765628 0.152344,-0.765625 -2e-6,3e-6 0.433594,-0.6484381 0.433594,-0.6484375 -1e-6,6e-7 0.648436,-0.4335931 0.648437,-0.4335937 C 11.234376,9.1523431 11.999997,9 12,9 Z"
       transform="translate(582,381.99998)" />
    <path
       style="color:#000000;display:inline;overflow:visible;visibility:visible;fill:#f1f2f2;fill-opacity:1;fill-rule:nonzero;stroke:none;stroke-width:1.46650386;marker:none;enable-background:new"
       d="M 6 2 L 6 4 L 6 8.1738281 A 2.9999969 3 0 0 0 5 8 A 2.9999969 3 0 0 0 2 11 A 2.9999969 3 0 0 0 5 14 A 2.9999969 3 0 0 0 8 11 L 8 4 L 13 4 L 13 8.1738281 A 2.9999969 3 0 0 0 12 8 A 2.9999969 3 0 0 0 9 11 A 2.9999969 3 0 0 0 12 14 A 2.9999969 3 0 0 0 15 11 L 15 2 L 13 2 L 8 2 L 6 2 z M 5 10 A 0.99999923 1.0000052 0 0 1 6 11 A 0.99999923 1.0000052 0 0 1 5 12 A 0.99999923 1.0000052 0 0 1 4 11 A 0.99999923 1.0000052 0 0 1 5 10 z M 12 10 A 0.99999923 1.0000052 0 0 1 13 11 A 0.99999923 1.0000052 0 0 1 12 12 A 0.99999923 1.0000052 0 0 1 11 11 A 0.99999923 1.0000052 0 0 1 12 10 z "
       transform="translate(582,381.99998)"
       id="rect6190" />
  </g>
  <g
     style="display:inline"
     id="g71291"
     transform="translate(-582,-381.99998)" />
  <g
     style="display:inline"
     id="g4953"
     transform="translate(-582,-381.99998)" />
  <g
     style="display:inline"
     id="layer12"
     transform="translate(-582,-381.99998)" />
</svg>
