<svg xmlns="http://www.w3.org/2000/svg" version="1.1" viewBox="0 0 16 16"><g stroke-width="1.0001" font-weight="400" fill="#f1f2f2"><path style="color:#000000;text-decoration-line:none;text-transform:none;text-indent:0" d="m6.4336 3.998c-0.025347 0-0.20225-0.038897-0.52734 0.011719-1.184 0.1822-2.1935 0.9607-2.6719 2.0587a1.0019 1.0019 0 0 0 -0.00977 0.021484c-0.0958 0.2338-0.1666 0.477-0.2129 0.7285a1.0019 1.0019 0 0 0 -0.0176 0.1796h-0.9941l0.11133 0.00586c-0.1373-0.015486-0.27285-0.015486-0.41016 0a1.0019 1.0019 0 0 0 -0.10938 0.019531c-0.5666 0.1285-0.94449 0.4942-1.1874 0.8848-0.24292 0.3906-0.3799 0.8409-0.33203 1.3496 0.0946 1.0072 0.86094 1.8042 1.914 1.8182a1.0019 1.0019 0 0 0 0.013672 0h0.99805a1.0019 1.0019 0 0 0 0.017578 0.12891c0.33118 1.5881 1.7378 2.7969 3.4199 2.7969h3.1289c1.6815 0 3.0898-1.2089 3.4199-2.7988a1.0019 1.0019 0 0 0 0.01758 -0.12891h1.2285l-0.16211-0.01367c0.63123 0.10365 1.3064-0.2769 1.5938-0.70898 0.28732-0.43209 0.36719-0.87569 0.36719-1.3145 0-0.43876-0.07987-0.88432-0.36719-1.3164-0.287-0.4315-0.962-0.812-1.594-0.7084l0.16211-0.013672h-1.2246a1.0019 1.0019 0 0 0 -0.021 -0.2011c-0.027-0.133-0.058-0.3019-0.132-0.5098a1.0019 1.0019 0 0 0 -0.002 -0.00391c-0.502-1.3802-1.827-2.2995-3.2953-2.2852zm1.1172 4.004h0.789c-0.2081 0.3908-0.2997 0.8086-0.2636 1.2128 0.024646 0.27593 0.19556 0.52525 0.32812 0.7832h-0.7969c0.1623-0.2978 0.3965-0.5563 0.3965-0.9238 0-0.43619-0.2394-0.75017-0.45312-1.0723z" transform="translate(-.062791 -1.002)" fill="#333"/><path style="color:#000000;text-decoration-line:none;text-transform:none;text-indent:0" d="m9.7436 6.998c-1.0886 0.25443-0.92871 2.0561 0.18505 2.073h4.2386c1.0625 0.17446 1.0625-2.2475 0-2.073h-4.2384c-0.061532-0.00659-0.12352-0.00659-0.18505 0zm-7.9933 0c-0.45012 0.102-0.78921 0.675-0.7432 1.164 0.046012 0.49 0.47013 0.904 0.93025 0.91h3.9172c0.53514 0.085 1.0843-0.42 1.0843-1 0-0.578-0.54915-1.16-1.0843-1.074h-3.9173c-0.062153-0.00701-0.1249-0.00701-0.18705 0zm4.2473-3c-0.84571 0.12962-1.5658 0.68381-1.9075 1.468-0.07023 0.17148-0.12252 0.34976-0.15604 0.532h8.0061c-0.02601-0.126-0.05401-0.263-0.09403-0.375-0.35728-0.98386-1.2967-1.6352-2.3436-1.625h-3.1307c-0.12603 0-0.25207-0.019-0.3741 0zm-2.0636 6c0.23606 1.132 1.2403 2 2.4386 2h3.1298c1.1973 0 2.2026-0.868 2.4377-2z" overflow="visible"/></g></svg>
