<?xml version="1.0" encoding="UTF-8" standalone="no"?>
<svg
   xmlns:dc="http://purl.org/dc/elements/1.1/"
   xmlns:cc="http://creativecommons.org/ns#"
   xmlns:rdf="http://www.w3.org/1999/02/22-rdf-syntax-ns#"
   xmlns:svg="http://www.w3.org/2000/svg"
   xmlns="http://www.w3.org/2000/svg"
   height="16.008873"
   width="16"
   id="svg7384"
   version="1.1">
  <metadata
     id="metadata90">
    <rdf:RDF>
      <cc:Work
         rdf:about="">
        <dc:format>image/svg+xml</dc:format>
        <dc:type
           rdf:resource="http://purl.org/dc/dcmitype/StillImage" />
        <dc:title>Gnome Symbolic Icon Theme</dc:title>
      </cc:Work>
    </rdf:RDF>
  </metadata>
  <title
     id="title9167">Gnome Symbolic Icon Theme</title>
  <defs
     id="defs7386" />
  <g
     style="display:inline"
     id="layer9"
     transform="translate(-163.0002,-508.99113)" />
  <g
     id="layer10"
     transform="translate(-163.0002,-508.99113)" />
  <g
     id="layer11"
     transform="translate(-163.0002,-508.99113)">
    <path
       style="color:#000000;font-style:normal;font-variant:normal;font-weight:normal;font-stretch:normal;font-size:medium;line-height:normal;font-family:Sans;-inkscape-font-specification:Sans;text-indent:0;text-align:start;text-decoration:none;text-decoration-line:none;letter-spacing:normal;word-spacing:normal;text-transform:none;writing-mode:lr-tb;direction:ltr;baseline-shift:baseline;text-anchor:start;display:inline;overflow:visible;visibility:visible;fill:#f1f2f2;fill-opacity:1;stroke:none;stroke-width:1;marker:none;enable-background:accumulate"
       id="path3601-2"
       d="m 168.40625,515 a 0.50219246,0.50219246 0 1 0 0.0937,1 h 6 a 0.50005,0.50005 0 1 0 0,-1 h -6 a 0.50005,0.50005 0 0 0 -0.0937,0 z" />
    <path
       style="color:#000000;font-style:normal;font-variant:normal;font-weight:normal;font-stretch:normal;font-size:medium;line-height:normal;font-family:Sans;-inkscape-font-specification:Sans;text-indent:0;text-align:start;text-decoration:none;text-decoration-line:none;letter-spacing:normal;word-spacing:normal;text-transform:none;writing-mode:lr-tb;direction:ltr;baseline-shift:baseline;text-anchor:start;display:inline;overflow:visible;visibility:visible;fill:#f1f2f2;fill-opacity:1;stroke:none;stroke-width:1;marker:none;enable-background:accumulate"
       id="path3601-2-3"
       d="m 168.40625,517 a 0.50219246,0.50219246 0 1 0 0.0937,1 h 5 a 0.50005,0.50005 0 1 0 0,-1 h -5 a 0.50005,0.50005 0 0 0 -0.0937,0 z" />
    <path
       style="color:#000000;font-style:normal;font-variant:normal;font-weight:normal;font-stretch:normal;font-size:medium;line-height:normal;font-family:Sans;-inkscape-font-specification:Sans;text-indent:0;text-align:start;text-decoration:none;text-decoration-line:none;letter-spacing:normal;word-spacing:normal;text-transform:none;writing-mode:lr-tb;direction:ltr;baseline-shift:baseline;text-anchor:start;display:inline;overflow:visible;visibility:visible;fill:#f1f2f2;fill-opacity:1;stroke:none;stroke-width:1;marker:none;enable-background:accumulate"
       id="path3601-2-3-2"
       d="m 168.40625,519 a 0.50219246,0.50219246 0 1 0 0.0937,1 h 6 a 0.50005,0.50005 0 1 0 0,-1 h -6 a 0.50005,0.50005 0 0 0 -0.0937,0 z" />
    <path
       style="color:#000000;font-style:normal;font-variant:normal;font-weight:normal;font-stretch:normal;font-size:medium;line-height:normal;font-family:Sans;-inkscape-font-specification:Sans;text-indent:0;text-align:start;text-decoration:none;text-decoration-line:none;letter-spacing:normal;word-spacing:normal;text-transform:none;writing-mode:lr-tb;direction:ltr;baseline-shift:baseline;text-anchor:start;display:inline;overflow:visible;visibility:visible;fill:#f1f2f2;fill-opacity:1;stroke:none;stroke-width:1;marker:none;enable-background:accumulate"
       id="path3601-2-3-3"
       d="m 168.40625,521 a 0.50219246,0.50219246 0 1 0 0.0937,1 h 3 a 0.50005,0.50005 0 1 0 0,-1 h -3 a 0.50005,0.50005 0 0 0 -0.0937,0 z" />
    <path
       style="color:#000000;font-style:normal;font-variant:normal;font-weight:normal;font-stretch:normal;font-size:medium;line-height:normal;font-family:Sans;-inkscape-font-specification:Sans;text-indent:0;text-align:start;text-decoration:none;text-decoration-line:none;letter-spacing:normal;word-spacing:normal;text-transform:none;writing-mode:lr-tb;direction:ltr;text-anchor:start;display:inline;overflow:visible;visibility:visible;fill:#f1f2f2;fill-opacity:1;stroke:none;stroke-width:2;marker:none;enable-background:new"
       id="rect10788"
       d="m 167.0002,510 c -1.0907,0 -2,0.9093 -2,2 v 11 c 0,1.0907 0.9093,2 2,2 h 9 c 1.0907,0 2,-0.9093 2,-2 v -11 c 0,-1.0907 -0.9093,-2 -2,-2 0,4.33333 0,8.66667 0,13 h -9 c 0,-4.33333 0,-8.66667 0,-13 z" />
    <path
       style="color:#000000;font-style:normal;font-variant:normal;font-weight:normal;font-stretch:normal;font-size:medium;line-height:normal;font-family:Sans;-inkscape-font-specification:Sans;text-indent:0;text-align:start;text-decoration:none;text-decoration-line:none;letter-spacing:normal;word-spacing:normal;text-transform:none;writing-mode:lr-tb;direction:ltr;baseline-shift:baseline;text-anchor:start;display:inline;overflow:visible;visibility:visible;fill:#f1f2f2;fill-opacity:1;stroke:none;stroke-width:1;marker:none;enable-background:accumulate"
       id="path3601-2-3-3-9"
       d="M 168.40625,509 A 0.50005,0.50005 0 0 0 168,509.5 v 3 a 0.50005,0.50005 0 1 0 1,0 v -3 a 0.50005,0.50005 0 0 0 -0.59375,-0.5 z" />
    <path
       style="color:#000000;font-style:normal;font-variant:normal;font-weight:normal;font-stretch:normal;font-size:medium;line-height:normal;font-family:Sans;-inkscape-font-specification:Sans;text-indent:0;text-align:start;text-decoration:none;text-decoration-line:none;letter-spacing:normal;word-spacing:normal;text-transform:none;writing-mode:lr-tb;direction:ltr;baseline-shift:baseline;text-anchor:start;display:inline;overflow:visible;visibility:visible;fill:#f1f2f2;fill-opacity:1;stroke:none;stroke-width:1;marker:none;enable-background:accumulate"
       id="path3601-2-3-3-9-3"
       d="M 170.40625,509 A 0.50005,0.50005 0 0 0 170,509.5 v 3 a 0.50005,0.50005 0 1 0 1,0 v -3 a 0.50005,0.50005 0 0 0 -0.59375,-0.5 z" />
    <path
       style="color:#000000;font-style:normal;font-variant:normal;font-weight:normal;font-stretch:normal;font-size:medium;line-height:normal;font-family:Sans;-inkscape-font-specification:Sans;text-indent:0;text-align:start;text-decoration:none;text-decoration-line:none;letter-spacing:normal;word-spacing:normal;text-transform:none;writing-mode:lr-tb;direction:ltr;baseline-shift:baseline;text-anchor:start;display:inline;overflow:visible;visibility:visible;fill:#f1f2f2;fill-opacity:1;stroke:none;stroke-width:1;marker:none;enable-background:accumulate"
       id="path3601-2-3-3-9-3-3"
       d="M 172.40625,509 A 0.50005,0.50005 0 0 0 172,509.5 v 3 a 0.50005,0.50005 0 1 0 1,0 v -3 a 0.50005,0.50005 0 0 0 -0.59375,-0.5 z" />
    <path
       style="color:#000000;font-style:normal;font-variant:normal;font-weight:normal;font-stretch:normal;font-size:medium;line-height:normal;font-family:Sans;-inkscape-font-specification:Sans;text-indent:0;text-align:start;text-decoration:none;text-decoration-line:none;letter-spacing:normal;word-spacing:normal;text-transform:none;writing-mode:lr-tb;direction:ltr;baseline-shift:baseline;text-anchor:start;display:inline;overflow:visible;visibility:visible;fill:#f1f2f2;fill-opacity:1;stroke:none;stroke-width:1;marker:none;enable-background:accumulate"
       id="path3601-2-3-3-9-3-3-7"
       d="M 174.40625,509 A 0.50005,0.50005 0 0 0 174,509.5 v 3 a 0.50005,0.50005 0 1 0 1,0 v -3 a 0.50005,0.50005 0 0 0 -0.59375,-0.5 z" />
  </g>
  <g
     id="layer13"
     transform="translate(-163.0002,-508.99113)" />
  <g
     id="layer14"
     transform="translate(-163.0002,-508.99113)" />
  <g
     style="display:inline"
     id="layer15"
     transform="translate(-163.0002,-508.99113)" />
  <g
     style="display:inline"
     id="g71291"
     transform="translate(-163.0002,-508.99113)" />
  <g
     style="display:inline"
     id="g4953"
     transform="translate(-163.0002,-508.99113)" />
  <g
     style="display:inline"
     id="layer12"
     transform="translate(-163.0002,-508.99113)" />
</svg>
