<?xml version="1.0" encoding="UTF-8" standalone="no"?>
<svg
   xmlns:dc="http://purl.org/dc/elements/1.1/"
   xmlns:cc="http://creativecommons.org/ns#"
   xmlns:rdf="http://www.w3.org/1999/02/22-rdf-syntax-ns#"
   xmlns:svg="http://www.w3.org/2000/svg"
   xmlns="http://www.w3.org/2000/svg"
   height="16"
   width="15.999999"
   id="svg7384"
   version="1.1">
  <metadata
     id="metadata90">
    <rdf:RDF>
      <cc:Work
         rdf:about="">
        <dc:format>image/svg+xml</dc:format>
        <dc:type
           rdf:resource="http://purl.org/dc/dcmitype/StillImage" />
        <dc:title>Gnome Symbolic Icon Theme</dc:title>
      </cc:Work>
    </rdf:RDF>
  </metadata>
  <title
     id="title9167">Gnome Symbolic Icon Theme</title>
  <defs
     id="defs7386" />
  <g
     transform="translate(-223.0002,-509)"
     style="display:inline"
     id="layer9" />
  <g
     transform="translate(-223.0002,-509)"
     id="layer10" />
  <g
     transform="translate(-223.0002,-509)"
     id="layer11">
    <path
       style="color:#f1f2f2;font-style:normal;font-variant:normal;font-weight:normal;font-stretch:normal;font-size:medium;line-height:normal;font-family:'Bitstream Vera Sans';-inkscape-font-specification:'Bitstream Vera Sans';text-indent:0;text-align:start;text-decoration:none;text-decoration-line:none;letter-spacing:normal;word-spacing:normal;text-transform:none;writing-mode:lr-tb;direction:ltr;text-anchor:start;display:inline;overflow:visible;visibility:visible;fill:#f1f2f2;fill-opacity:1;fill-rule:nonzero;stroke:none;stroke-width:2;marker:none;enable-background:accumulate"
       id="rect11749-5-9-2-7"
       d="m 226.70248,510 c -1.53288,0 -2.71875,1.31948 -2.71875,2.84375 v 8.34375 c 0,1.52427 1.18587,2.84375 2.71875,2.84375 h 8.57897 c 1.53288,0 2.75,-1.31948 2.75,-2.84375 v -8.34375 c 0,-1.52427 -1.21712,-2.84375 -2.75,-2.84375 z m 0.78125,1.03125 c 3.52668,0.25598 5.31717,0.13378 7.04772,0 0.75419,-0.0583 1.53125,0.61584 1.53125,1.4375 v 7.375 c 0,0.66541 -0.53119,1.09567 -1.1875,1.1875 -2.83642,0.39685 -4.75306,0.44007 -7.67272,0 -0.65529,-0.0988 -1.1875,-0.52209 -1.1875,-1.1875 V 512.5 c 0,-0.82166 0.71429,-1.52351 1.46875,-1.46875 z" />
    <path
       style="color:#000000;font-style:normal;font-variant:normal;font-weight:normal;font-stretch:normal;font-size:medium;line-height:normal;font-family:Sans;-inkscape-font-specification:Sans;text-indent:0;text-align:start;text-decoration:none;text-decoration-line:none;letter-spacing:normal;word-spacing:normal;text-transform:none;writing-mode:lr-tb;direction:ltr;baseline-shift:baseline;text-anchor:start;display:inline;overflow:visible;visibility:visible;fill:#f1f2f2;fill-opacity:1;stroke:none;stroke-width:1;marker:none;enable-background:accumulate"
       id="path11643"
       d="m 233.53125,514.96875 -2.90625,0.0625 0.0312,1 2.84375,-0.0625 c 0.2071,0.0159 0.33933,0.0958 0.40625,0.15625 0.0669,0.0604 0.125,0.10938 0.125,0.28125 V 517 h -2.46875 -0.0312 c -0.45298,-0.0248 -0.89083,0.15721 -1.15625,0.4375 -0.27171,0.28694 -0.39313,0.66382 -0.40625,1.03125 -0.0131,0.36743 0.0835,0.75908 0.34375,1.0625 0.25437,0.29652 0.69445,0.4734 1.15625,0.46875 0.0108,-1.1e-4 0.0204,3.2e-4 0.0312,0 h 2.96875 0.5 v -0.5 l 0.0625,-3.09375 c 0,-0.40265 -0.16191,-0.78234 -0.4375,-1.03125 -0.27559,-0.24891 -0.63259,-0.37798 -1,-0.40625 h -0.0312 -0.0312 z M 231.46875,518 h 0.0312 0.0312 2.46875 l -0.0312,1 h -2.5 c -0.22008,0.007 -0.30527,-0.0437 -0.375,-0.125 -0.0697,-0.0813 -0.13026,-0.22753 -0.125,-0.375 0.005,-0.14747 0.0777,-0.29202 0.15625,-0.375 0.0786,-0.083 0.14359,-0.1401 0.34375,-0.125 z" />
    <path
       style="color:#000000;font-style:normal;font-variant:normal;font-weight:normal;font-stretch:normal;font-size:medium;line-height:normal;font-family:Sans;-inkscape-font-specification:Sans;text-indent:0;text-align:start;text-decoration:none;text-decoration-line:none;letter-spacing:normal;word-spacing:normal;text-transform:none;writing-mode:lr-tb;direction:ltr;baseline-shift:baseline;text-anchor:start;display:inline;overflow:visible;visibility:visible;fill:#f1f2f2;fill-opacity:1;stroke:none;stroke-width:1;marker:none;enable-background:accumulate"
       id="path11645"
       d="m 234.34375,512.03125 -3,1 0.3125,0.9375 3,-1 z" />
  </g>
  <g
     transform="translate(-223.0002,-509)"
     id="layer13" />
  <g
     transform="translate(-223.0002,-509)"
     id="layer14" />
  <g
     transform="translate(-223.0002,-509)"
     style="display:inline"
     id="layer15" />
  <g
     style="display:inline"
     transform="translate(-223.0002,-509)"
     id="g71291" />
  <g
     transform="translate(-223.0002,-509)"
     style="display:inline"
     id="g4953" />
  <g
     style="display:inline"
     transform="translate(-223.0002,-509)"
     id="layer12" />
</svg>
