<?xml version="1.0" encoding="UTF-8" standalone="no"?>
<svg
   xmlns:dc="http://purl.org/dc/elements/1.1/"
   xmlns:cc="http://creativecommons.org/ns#"
   xmlns:rdf="http://www.w3.org/1999/02/22-rdf-syntax-ns#"
   xmlns:svg="http://www.w3.org/2000/svg"
   xmlns="http://www.w3.org/2000/svg"
   width="16"
   height="16"
   version="1.1"
   id="svg7384">
  <metadata
     id="metadata90">
    <rdf:RDF>
      <cc:Work
         rdf:about="">
        <dc:format>image/svg+xml</dc:format>
        <dc:type
           rdf:resource="http://purl.org/dc/dcmitype/StillImage" />
        <dc:title>Gnome Symbolic Icon Theme</dc:title>
      </cc:Work>
    </rdf:RDF>
  </metadata>
  <title
     id="title9167">Gnome Symbolic Icon Theme</title>
  <defs
     id="defs7386" />
  <g
     style="display:inline"
     id="layer9"
     transform="translate(-219.99995,-606)" />
  <g
     id="layer10"
     transform="translate(-219.99995,-606)" />
  <g
     id="layer11"
     transform="translate(-219.99995,-606)" />
  <g
     id="layer12"
     transform="translate(-219.99995,-606)">
    <path
       id="path4222"
       transform="translate(219.99995,606)"
       d="m 8,1.03125 c -3.86004,0 -7,3.15572 -7,7 C 1,11.87553 4.13996,15 8,15 c 3.86004,0 7,-3.12447 7,-6.96875 0,-3.84428 -3.13996,-7 -7,-7 z m 0,2 c 1.0732117,0 2.061813,0.3703149 2.875,0.9375 l -6.9375,6.9375 C 3.3532745,10.095991 3,9.1151045 3,8.03125 c 0,-2.7656 2.22305,-5 5,-5 z m 4.25,2.375 c 0.478184,0.7650438 0.78125,1.6531264 0.78125,2.625 C 13.03125,10.79685 10.77694,13 8,13 7.042944,13 6.1649106,12.70449 5.40625,12.25 Z"
       style="color:#000000;font-style:normal;font-variant:normal;font-weight:normal;font-stretch:normal;font-size:medium;line-height:normal;font-family:Sans;-inkscape-font-specification:Sans;text-indent:0;text-align:start;text-decoration:none;text-decoration-line:none;letter-spacing:normal;word-spacing:normal;text-transform:none;writing-mode:lr-tb;direction:ltr;baseline-shift:baseline;text-anchor:start;display:inline;overflow:visible;visibility:visible;fill:#cc0000;fill-opacity:1;stroke:none;stroke-width:1.97519779;marker:none;enable-background:accumulate" />
  </g>
  <g
     id="layer13"
     transform="translate(-219.99995,-606)" />
  <g
     id="layer14"
     transform="translate(-219.99995,-606)" />
  <g
     style="display:inline"
     id="layer15"
     transform="translate(-219.99995,-606)" />
  <g
     style="display:inline"
     id="g4953"
     transform="translate(-219.99995,-606)" />
</svg>
