<?xml version="1.0" encoding="UTF-8" standalone="no"?>
<svg
   xmlns:dc="http://purl.org/dc/elements/1.1/"
   xmlns:cc="http://creativecommons.org/ns#"
   xmlns:rdf="http://www.w3.org/1999/02/22-rdf-syntax-ns#"
   xmlns:svg="http://www.w3.org/2000/svg"
   xmlns="http://www.w3.org/2000/svg"
   version="1.1"
   id="svg7384"
   height="16.000002"
   width="16">
  <metadata
     id="metadata90">
    <rdf:RDF>
      <cc:Work
         rdf:about="">
        <dc:format>image/svg+xml</dc:format>
        <dc:type
           rdf:resource="http://purl.org/dc/dcmitype/StillImage" />
        <dc:title>Gnome Symbolic Icon Theme</dc:title>
      </cc:Work>
    </rdf:RDF>
  </metadata>
  <title
     id="title9167">Gnome Symbolic Icon Theme</title>
  <defs
     id="defs7386" />
  <g
     id="layer9"
     style="display:inline"
     transform="translate(-162.0002,-530)" />
  <g
     id="layer10"
     transform="translate(-162.0002,-530)" />
  <g
     id="layer11"
     transform="translate(-162.0002,-530)">
    <path
       id="rect5238-9"
       style="color:#f1f2f2;display:inline;overflow:visible;visibility:visible;fill:#f1f2f2;fill-opacity:1;fill-rule:nonzero;stroke:none;stroke-width:3;marker:none;enable-background:accumulate"
       d="m 176.0002,530 c 1.19992,0 2,0.7984 2,2 v 4 h -2 v -3.75 c 0,-0.1238 -0.0566,-0.25 -0.1875,-0.25 h -11.625 c -0.1309,0 -0.1875,0.1262 -0.1875,0.25 V 544 c -1.19992,0 -2,-0.9234 -2,-2.125 V 532 c 0,-1.2016 0.80008,-2 2,-2 z" />
    <path
       id="rect5238-8"
       style="color:#f1f2f2;display:inline;overflow:visible;visibility:visible;fill:#f1f2f2;fill-opacity:1;fill-rule:nonzero;stroke:none;stroke-width:3;marker:none;enable-background:accumulate"
       d="m 169.2502,536 c -0.47139,0 -0.74314,0.54175 -0.75,1 v 1 h -2.5 c -0.46865,0.0651 -1,0.5417 -1,1 v 6 c 0,0.4583 0.52685,1 1,1 h 10 c 0.47315,0 1,-0.5417 1,-1 v -6 c 0,-0.4583 -0.52685,-1 -1,-1 h -2.5 v -1 c 0,-0.4583 -0.34111,-1 -0.8125,-1 z m 1.75,3 c 1.65685,0 3,1.34315 3,3 0,1.65685 -1.34315,3 -3,3 -1.65685,0 -3,-1.34315 -3,-3 0,-1.65685 1.34315,-3 3,-3 z" />
    <path
       id="path2998"
       d="M -3.7537768,10.335032 A 0.96899819,1.335031 0 0 1 -4.722775,11.670063 0.96899819,1.335031 0 0 1 -5.6917732,10.335032 0.96899819,1.335031 0 0 1 -4.722775,9.0000014 0.96899819,1.335031 0 0 1 -3.7537768,10.335032 Z"
       style="fill:#f1f2f2;fill-opacity:1;fill-rule:nonzero;stroke:none"
       transform="matrix(2.0639875,0,0,1.4980924,180.74795,526.51717)" />
  </g>
  <g
     id="layer13"
     transform="translate(-162.0002,-530)" />
  <g
     id="layer14"
     transform="translate(-162.0002,-530)" />
  <g
     id="layer15"
     style="display:inline"
     transform="translate(-162.0002,-530)" />
  <g
     id="g71291"
     style="display:inline"
     transform="translate(-162.0002,-530)" />
  <g
     id="g4953"
     style="display:inline"
     transform="translate(-162.0002,-530)" />
  <g
     id="layer12"
     style="display:inline"
     transform="translate(-162.0002,-530)" />
</svg>
