<?xml version="1.0" encoding="UTF-8" standalone="no"?>
<svg
   xmlns:osb="http://www.openswatchbook.org/uri/2009/osb"
   xmlns:dc="http://purl.org/dc/elements/1.1/"
   xmlns:cc="http://creativecommons.org/ns#"
   xmlns:rdf="http://www.w3.org/1999/02/22-rdf-syntax-ns#"
   xmlns:svg="http://www.w3.org/2000/svg"
   xmlns="http://www.w3.org/2000/svg"
   width="16"
   version="1.1"
   id="svg7384"
   height="16">
  <metadata
     id="metadata90">
    <rdf:RDF>
      <cc:Work
         rdf:about="">
        <dc:format>image/svg+xml</dc:format>
        <dc:type
           rdf:resource="http://purl.org/dc/dcmitype/StillImage" />
        <dc:title>Gnome Symbolic Icon Theme</dc:title>
      </cc:Work>
    </rdf:RDF>
  </metadata>
  <title
     id="title9167">Gnome Symbolic Icon Theme</title>
  <defs
     id="defs7386">
    <linearGradient
       osb:paint="solid"
       id="linearGradient19282"
       gradientTransform="matrix(-2.7365795,0.28202934,-0.18908311,-0.99988321,239.54008,-879.45557)">
      <stop
         style="stop-color:#666666;stop-opacity:1;"
         offset="0"
         id="stop19284" />
    </linearGradient>
  </defs>
  <g
     transform="translate(-601.0002,-321)"
     style="display:inline"
     id="layer9" />
  <g
     transform="translate(-601.0002,-321)"
     style="display:inline"
     id="layer10" />
  <g
     transform="translate(-601.0002,-321)"
     id="layer11" />
  <g
     transform="translate(-601.0002,-321)"
     style="display:inline"
     id="layer13" />
  <g
     transform="translate(-601.0002,-321)"
     id="layer14">
    <path
       style="color:#000000;clip-rule:nonzero;display:inline;overflow:visible;visibility:visible;opacity:1;isolation:auto;mix-blend-mode:normal;color-interpolation:sRGB;color-interpolation-filters:linearRGB;solid-color:#000000;solid-opacity:1;fill:#f1f2f2;fill-opacity:1;fill-rule:nonzero;stroke:none;stroke-width:1.19753063;stroke-linecap:butt;stroke-linejoin:miter;stroke-miterlimit:4;stroke-dasharray:none;stroke-dashoffset:0;stroke-opacity:1;marker:none;color-rendering:auto;image-rendering:auto;shape-rendering:auto;text-rendering:auto;enable-background:new"
       id="rect6917"
       d="m 607.50022,322 c -0.831,0 -1.5,0.669 -1.5,1.5 v 1.5 h -3 c -0.554,0 -1,0.446 -1,1 v 3 h 1.5 c 0.831,0 1.5,0.669 1.5,1.5 0,0.831 -0.669,1.5 -1.5,1.5 h -1.5 v 3 c 0,0.554 0.446,1 1,1 h 3 v -1.5 c 0,-0.831 0.669,-1.5 1.5,-1.5 0.831,0 1.5,0.669 1.5,1.5 v 1.5 h 3 c 0.554,0 1,-0.446 1,-1 v -3 h 1.5 c 0.831,0 1.5,-0.669 1.5,-1.5 0,-0.831 -0.669,-1.5 -1.5,-1.5 h -1.5 v -3 c 0,-0.554 -0.446,-1 -1,-1 h -3 v -1.5 c 0,-0.831 -0.669,-1.5 -1.5,-1.5 z" />
  </g>
  <g
     transform="translate(-601.0002,-321)"
     style="display:inline"
     id="layer15" />
  <g
     transform="translate(-601.0002,-321)"
     style="display:inline"
     id="g71291" />
  <g
     transform="translate(-601.0002,-321)"
     style="display:inline"
     id="g4953" />
  <g
     transform="translate(-601.0002,-321)"
     style="display:inline"
     id="layer12" />
</svg>
