<?xml version="1.0" encoding="UTF-8" standalone="no"?>
<svg
   xmlns:dc="http://purl.org/dc/elements/1.1/"
   xmlns:cc="http://creativecommons.org/ns#"
   xmlns:rdf="http://www.w3.org/1999/02/22-rdf-syntax-ns#"
   xmlns:svg="http://www.w3.org/2000/svg"
   xmlns="http://www.w3.org/2000/svg"
   width="16"
   version="1.1"
   id="svg7384"
   height="16">
  <metadata
     id="metadata90">
    <rdf:RDF>
      <cc:Work
         rdf:about="">
        <dc:format>image/svg+xml</dc:format>
        <dc:type
           rdf:resource="http://purl.org/dc/dcmitype/StillImage" />
        <dc:title>Gnome Symbolic Icon Theme</dc:title>
      </cc:Work>
    </rdf:RDF>
  </metadata>
  <title
     id="title9167">Gnome Symbolic Icon Theme</title>
  <defs
     id="defs7386" />
  <g
     transform="translate(-221.0002,-397)"
     style="display:inline"
     id="layer9">
    <path
       style="color:#000000;font-style:normal;font-variant:normal;font-weight:normal;font-stretch:normal;font-size:medium;line-height:normal;font-family:Sans;-inkscape-font-specification:Sans;text-indent:0;text-align:start;text-decoration:none;text-decoration-line:none;letter-spacing:normal;word-spacing:normal;text-transform:none;writing-mode:lr-tb;direction:ltr;baseline-shift:baseline;text-anchor:start;display:inline;overflow:visible;visibility:visible;fill:#f1f2f2;fill-opacity:1;stroke:none;stroke-width:1;marker:none;enable-background:accumulate"
       id="path4639-4-4-7"
       d="M 227.40625,402 A 0.50005,0.50005 0 0 0 227,402.5 v 2.5 h -1.5 a 0.50005,0.50005 0 1 0 0,1 h 2 a 0.50005,0.50005 0 0 0 0.5,-0.5 v -3 a 0.50005,0.50005 0 0 0 -0.59375,-0.5 z" />
    <path
       style="color:#f1f2f2;display:inline;overflow:visible;visibility:visible;fill:#cc0000;fill-opacity:1;stroke:none;stroke-width:2;marker:none"
       id="path3761-2-3-5-4-8-9-8-0-1-6"
       d="m 231.99995,408 h 1.375 l 1.125,1.09375 L 235.5937,408 h 1.40625 v 1.46875 l -1.09375,1.0625 1.09375,1.0625 V 413 h -1.4375 l -1.0625,-1.0625 -1.0625,1.0625 h -1.4375 v -1.40625 l 1.0625,-1.0625 -1.0625,-1.0625 z" />
    <path
       style="color:#000000;font-style:normal;font-variant:normal;font-weight:normal;font-stretch:normal;font-size:xx-small;line-height:normal;font-family:Sans;-inkscape-font-specification:Sans;text-indent:0;text-align:start;text-decoration:none;text-decoration-line:none;letter-spacing:normal;word-spacing:normal;text-transform:none;writing-mode:lr-tb;direction:ltr;baseline-shift:baseline;text-anchor:start;display:inline;overflow:visible;visibility:visible;fill:#f1f2f2;fill-opacity:1;stroke:none;stroke-width:2.54545426;marker:none;enable-background:accumulate"
       id="path3869-9"
       d="m 227.5002,399 c -3.57801,0 -6.5,2.92199 -6.5,6.5 0,3.57801 2.92199,6.5 6.5,6.5 1.29116,0 2.48506,-0.37561 3.5,-1.03125 v -2.65625 c -0.82069,1.02721 -2.071,1.6875 -3.5,1.6875 -2.49713,0 -4.5,-2.00287 -4.5,-4.5 0,-2.49712 2.00287,-4.5 4.5,-4.5 2.49712,0 4.5,2.00288 4.5,4.5 0,0.53296 -0.11393,1.02721 -0.28125,1.5 h 2.09375 c 0.11483,-0.48186 0.1875,-0.98435 0.1875,-1.5 0,-3.57801 -2.922,-6.5 -6.5,-6.5 z" />
  </g>
  <g
     transform="translate(-221.0002,-397)"
     id="layer10" />
  <g
     transform="translate(-221.0002,-397)"
     id="layer11" />
  <g
     transform="translate(-221.0002,-397)"
     id="layer13" />
  <g
     transform="translate(-221.0002,-397)"
     id="layer14" />
  <g
     transform="translate(-221.0002,-397)"
     style="display:inline"
     id="layer15" />
  <g
     transform="translate(-221.0002,-397)"
     style="display:inline"
     id="g71291" />
  <g
     transform="translate(-221.0002,-397)"
     style="display:inline"
     id="g4953" />
  <g
     transform="translate(-221.0002,-397)"
     style="display:inline"
     id="layer12" />
</svg>
