<?xml version="1.0" encoding="UTF-8" standalone="no"?>
<svg
   xmlns:dc="http://purl.org/dc/elements/1.1/"
   xmlns:cc="http://creativecommons.org/ns#"
   xmlns:rdf="http://www.w3.org/1999/02/22-rdf-syntax-ns#"
   xmlns:svg="http://www.w3.org/2000/svg"
   xmlns="http://www.w3.org/2000/svg"
   width="16"
   version="1.1"
   id="svg7384"
   height="16">
  <metadata
     id="metadata90">
    <rdf:RDF>
      <cc:Work
         rdf:about="">
        <dc:format>image/svg+xml</dc:format>
        <dc:type
           rdf:resource="http://purl.org/dc/dcmitype/StillImage" />
        <dc:title>Gnome Symbolic Icon Theme</dc:title>
      </cc:Work>
    </rdf:RDF>
  </metadata>
  <title
     id="title9167">Gnome Symbolic Icon Theme</title>
  <defs
     id="defs7386" />
  <g
     transform="translate(-101.0002,-197)"
     style="display:inline"
     id="layer9">
    <path
       style="color:#f1f2f2;display:inline;overflow:visible;visibility:visible;fill:#f1f2f2;fill-opacity:1;fill-rule:nonzero;stroke:none;stroke-width:1;marker:none"
       id="path8126"
       d="m 101.0002,202 h 2.48438 l 2.96875,-3 0.54687,0.0156 v 12 l -0.47529,8.3e-4 L 103.48458,208 h -2.48438 z" />
    <path
       style="color:#000000;font-style:normal;font-variant:normal;font-weight:normal;font-stretch:normal;font-size:medium;line-height:normal;font-family:Sans;-inkscape-font-specification:Sans;text-indent:0;text-align:start;text-decoration:none;text-decoration-line:none;letter-spacing:normal;word-spacing:normal;text-transform:none;writing-mode:lr-tb;direction:ltr;baseline-shift:baseline;text-anchor:start;display:inline;overflow:visible;visibility:visible;opacity:0.35;fill:#f1f2f2;fill-opacity:1;stroke:none;stroke-width:1.10979295;marker:none;enable-background:accumulate"
       id="path8132"
       d="m 112.0002,198 v 1.4375 c 1.83194,2.09574 2.4091,4.95454 1.78125,7.5625 h 1.9375 c 0.59628,-3.14015 -0.20259,-6.51217 -2.40625,-9 z m -2,2 v 1.8125 c 1.4103,1.84307 1.4103,4.53193 0,6.375 V 210 h 1 v -3 h 1.71875 c 0.63623,-2.40215 0.0964,-5.12224 -1.625,-7 z"
       clip-path="none" />
    <path
       style="color:#f1f2f2;display:inline;overflow:visible;visibility:visible;fill:#cc0000;fill-opacity:1;stroke:none;stroke-width:2;marker:none"
       id="path3761-2-3-5-4-8-9-8-0-1-7"
       d="m 111.99995,208 h 1.375 l 1.125,1.09375 L 115.5937,208 h 1.40625 v 1.46875 l -1.09375,1.0625 1.09375,1.0625 V 213 h -1.4375 l -1.0625,-1.0625 -1.0625,1.0625 h -1.4375 v -1.40625 l 1.0625,-1.0625 -1.0625,-1.0625 z" />
    <path
       style="color:#000000;font-style:normal;font-variant:normal;font-weight:normal;font-stretch:normal;font-size:medium;line-height:normal;font-family:Sans;-inkscape-font-specification:Sans;text-indent:0;text-align:start;text-decoration:none;text-decoration-line:none;letter-spacing:normal;word-spacing:normal;text-transform:none;writing-mode:lr-tb;direction:ltr;baseline-shift:baseline;text-anchor:start;display:inline;overflow:visible;visibility:visible;opacity:0.35;fill:#f1f2f2;fill-opacity:1;stroke:none;stroke-width:2.32782054;marker:none;enable-background:accumulate"
       mask="none"
       id="path6297-4-2-2"
       d="m 110.00019,205.0002 c 0,-1.25733 -0.31165,-2.21571 -1,-3 h -1 v 3 0.375 2.625 h 1 c 0.67206,-0.8369 1,-1.74267 1,-3 z"
       clip-path="none" />
  </g>
  <g
     transform="translate(-101.0002,-197)"
     style="display:inline"
     id="layer10" />
  <g
     transform="translate(-101.0002,-197)"
     id="layer11" />
  <g
     transform="translate(-101.0002,-197)"
     style="display:inline"
     id="layer13" />
  <g
     transform="translate(-101.0002,-197)"
     id="layer14" />
  <g
     transform="translate(-101.0002,-197)"
     style="display:inline"
     id="layer15" />
  <g
     transform="translate(-101.0002,-197)"
     style="display:inline"
     id="g71291" />
  <g
     transform="translate(-101.0002,-197)"
     style="display:inline"
     id="g4953" />
  <g
     transform="translate(-101.0002,-197)"
     style="display:inline"
     id="layer12" />
</svg>
