<?xml version="1.0" encoding="UTF-8" standalone="no"?>
<svg
   xmlns:dc="http://purl.org/dc/elements/1.1/"
   xmlns:cc="http://creativecommons.org/ns#"
   xmlns:rdf="http://www.w3.org/1999/02/22-rdf-syntax-ns#"
   xmlns:svg="http://www.w3.org/2000/svg"
   xmlns="http://www.w3.org/2000/svg"
   width="16.000002"
   version="1.1"
   id="svg7384"
   height="16.000919">
  <metadata
     id="metadata90">
    <rdf:RDF>
      <cc:Work
         rdf:about="">
        <dc:format>image/svg+xml</dc:format>
        <dc:type
           rdf:resource="http://purl.org/dc/dcmitype/StillImage" />
        <dc:title>Gnome Symbolic Icon Theme</dc:title>
      </cc:Work>
    </rdf:RDF>
  </metadata>
  <title
     id="title9167">Gnome Symbolic Icon Theme</title>
  <defs
     id="defs7386" />
  <g
     transform="translate(-81.0002,-466.99908)"
     style="display:inline"
     id="layer9" />
  <g
     transform="translate(-81.0002,-466.99908)"
     id="layer10">
    <path
       style="fill:#f1f2f2;fill-opacity:1;stroke:none"
       id="path10296"
       d="m 88.968788,466.99908 c -3.305456,0 -6.023869,3.00835 -5.968586,5.71875 0.06164,3.02218 0.933593,4.69547 1.125,5.28125 1.583096,0 -0.125,0 1.400504,0 -1.16149,-2.29152 -1.049064,-5.1562 -1.049064,-5.1562 0,-2.37255 2.006651,-4.31249 4.492146,-4.3125 2.485496,0 4.499787,1.92062 4.492147,4.375 -0.02342,1.67413 -0.171684,2.28358 -1.005236,4.8125 h 1.570681 c 0.224499,-0.64458 0.973822,-2.06546 0.973822,-4.90625 0,-2.8298 -2.725958,-5.8125 -6.031414,-5.8125 z" />
    <path
       id="rect10298"
       d="m -232.83837,431.70209 c 0.87112,0 1.57242,0.83022 1.57242,1.86149 v 1.40894 c 0,1.03127 -0.7013,1.86149 -1.57242,1.86149 -0.87113,0 -1.57243,-0.83022 -1.57243,-1.86149 v -1.40894 c 0,-1.03127 0.7013,-1.86149 1.57243,-1.86149 z"
       style="fill:#f1f2f2;fill-opacity:1;stroke:none"
       transform="matrix(-0.96317422,-0.26887809,-0.3026725,0.95309462,0,0)" />
    <path
       id="rect10300"
       d="m -63.032312,479.60641 c 0.871123,0 1.572424,0.83023 1.572424,1.86149 v 1.40895 c 0,1.03127 -0.701301,1.86149 -1.572424,1.86149 -0.871123,0 -1.572424,-0.83022 -1.572424,-1.86149 v -1.40895 c 0,-1.03126 0.701301,-1.86149 1.572424,-1.86149 z"
       style="fill:#f1f2f2;fill-opacity:1;stroke:none"
       transform="matrix(0.96317422,-0.26887809,0.3026725,0.95309462,0,0)" />
    <path
       id="rect10302"
       d="m 88.047073,480.96875 h 1.9375 c 0.545344,0 0.984375,0.43903 0.984375,0.98437 0,0.54535 -0.439031,0.98438 -0.984375,0.98438 h -1.9375 c -0.545343,0 -0.984375,-0.43903 -0.984375,-0.98438 0,-0.54534 0.439032,-0.98437 0.984375,-0.98437 z"
       style="color:#000000;display:inline;overflow:visible;visibility:visible;fill:#f1f2f2;fill-opacity:1;fill-rule:nonzero;stroke:none;stroke-width:1;marker:none;enable-background:accumulate" />
    <path
       style="color:#000000;font-style:normal;font-variant:normal;font-weight:normal;font-stretch:normal;font-size:medium;line-height:normal;font-family:Sans;-inkscape-font-specification:Sans;text-indent:0;text-align:start;text-decoration:none;text-decoration-line:none;letter-spacing:normal;word-spacing:normal;text-transform:none;writing-mode:lr-tb;direction:ltr;baseline-shift:baseline;text-anchor:start;display:inline;overflow:visible;visibility:visible;fill:#f1f2f2;fill-opacity:1;stroke:none;stroke-width:1px;marker:none;enable-background:accumulate"
       id="path10304"
       d="m 93.59375,476.40625 a 0.50005,0.50005 0 0 0 -0.0625,0.96875 L 95,477.90625 l -0.03125,1.75 c -0.0049,0.53205 -0.135886,0.86771 -0.3125,1.0625 C 94.479636,480.91354 94.254364,481 93.9375,481 h -4.15625 a 0.50005,0.50005 0 1 0 0,1 h 4.15625 c 0.547554,0 1.092669,-0.21022 1.46875,-0.625 0.376081,-0.41478 0.555999,-1.00902 0.5625,-1.71875 L 96,477.5625 v -0.34375 l -0.3125,-0.125 -1.78125,-0.65625 a 0.50005,0.50005 0 0 0 -0.3125,-0.0312 z" />
  </g>
  <g
     transform="translate(-81.0002,-466.99908)"
     id="layer11" />
  <g
     transform="translate(-81.0002,-466.99908)"
     id="layer13" />
  <g
     transform="translate(-81.0002,-466.99908)"
     id="layer14" />
  <g
     transform="translate(-81.0002,-466.99908)"
     style="display:inline"
     id="layer15" />
  <g
     transform="translate(-81.0002,-466.99908)"
     style="display:inline"
     id="g71291" />
  <g
     transform="translate(-81.0002,-466.99908)"
     style="display:inline"
     id="g4953" />
  <g
     transform="translate(-81.0002,-466.99908)"
     style="display:inline"
     id="layer12" />
</svg>
