<?xml version="1.0" encoding="UTF-8" standalone="no"?>
<svg id="svg2408" xmlns="http://www.w3.org/2000/svg" xml:space="preserve" version="1.1" viewBox="0 0 16 16"><filter id="filter3794" style="color-interpolation-filters:sRGB" height="1.384" width="1.384" y="-.192" x="-.192"><feGaussianBlur id="feGaussianBlur3796" stdDeviation="5.28"/></filter><filter id="filter3218" style="color-interpolation-filters:sRGB"><feGaussianBlur id="feGaussianBlur3220" stdDeviation="1.71"/></filter><path id="rect3200" style="fill:#f1f2f2" d="m1.5 0c-0.831 0-1.5 0.669-1.5 1.5v13c0 0.831 0.669 1.5 1.5 1.5h8.5v-3.244l-0.2852-1.67h-4.3164l-1.3496 2.918c-0.0208 0.041-0.0667 0.069-0.1133 0.07h-2.1093c-0.0856-0.001-0.1489-0.105-0.1114-0.181l5.9551-12.848c0.0158-0.0344 0.0473-0.06093 0.084-0.07039 0.0093-0.00103 0.018-0.00103 0.0273 0h2.7638c0.06-0.00018 0.117 0.04689 0.127 0.10549l1.582 8.9199h3.746v-8.5c0-0.831-0.669-1.5-1.5-1.5h-13zm7.084 3.6895l-2.2988 5.4218h3.1699l-0.8711-5.4218z"/><g id="layer2" style="display:none" transform="translate(0,-80)"><g id="rect3745" style="opacity:.9;filter:url(#filter3218);display:inline"><linearGradient id="SVGID_1_" y2="62.786" gradientUnits="userSpaceOnUse" x2="37.868" gradientTransform="matrix(1.0059 0 0 -.9942 9.9104 69.418)" y1="-22.713" x1="37.868"><stop id="stop10" style="stop-color:#000000" offset="0"/><stop id="stop12" style="stop-color:#000000;stop-opacity:.58820" offset="1"/></linearGradient><path id="path14" style="fill:url(#SVGID_1_)" d="m12 7h72c3.866 0 7 3.134 7 7v71c0 3.866-3.134 7-7 7h-72c-3.866 0-7-3.134-7-7v-71c0-3.866 3.134-7 7-7z"/></g></g><path id="path6" style="color:#f1f2f2;fill:#cc0000" overflow="visible" d="m11 11h1.375l1.125 1.094 1.093-1.094h1.407v1.469l-1.094 1.062 1.094 1.063v1.406h-1.438l-1.062-1.063-1.063 1.063h-1.437v-1.406l1.062-1.063-1.062-1.061z"/></svg>
