<?xml version="1.0" encoding="UTF-8" standalone="no"?>
<svg
   xmlns:dc="http://purl.org/dc/elements/1.1/"
   xmlns:cc="http://creativecommons.org/ns#"
   xmlns:rdf="http://www.w3.org/1999/02/22-rdf-syntax-ns#"
   xmlns:svg="http://www.w3.org/2000/svg"
   xmlns="http://www.w3.org/2000/svg"
   width="16"
   version="1.1"
   id="svg7384"
   height="16">
  <metadata
     id="metadata90">
    <rdf:RDF>
      <cc:Work
         rdf:about="">
        <dc:format>image/svg+xml</dc:format>
        <dc:type
           rdf:resource="http://purl.org/dc/dcmitype/StillImage" />
        <dc:title>Gnome Symbolic Icon Theme</dc:title>
      </cc:Work>
    </rdf:RDF>
  </metadata>
  <title
     id="title9167">Gnome Symbolic Icon Theme</title>
  <defs
     id="defs7386" />
  <g
     transform="translate(-101.0002,-217)"
     style="display:inline"
     id="layer9">
    <path
       style="display:inline;fill:#cc0000;fill-opacity:1;stroke:none"
       id="rect6060-0"
       d="m 106.0002,227.99975 v 1.99999 h 2.00025 v -2 z"
       class="error" />
    <path
       style="color:#f1f2f2;font-style:normal;font-variant:normal;font-weight:normal;font-stretch:normal;font-size:medium;line-height:normal;font-family:Sans;-inkscape-font-specification:Sans;text-indent:0;text-align:start;text-decoration:none;text-decoration-line:none;letter-spacing:normal;word-spacing:normal;text-transform:none;writing-mode:lr-tb;direction:ltr;baseline-shift:baseline;text-anchor:start;display:inline;overflow:visible;visibility:visible;fill:#f1f2f2;fill-opacity:1;stroke:none;stroke-width:2;marker:none;enable-background:accumulate"
       id="path6062-4"
       d="m 106.46875,217 c -0.49033,0 -0.79607,0.22846 -1.03125,0.46875 C 105.20232,217.70904 105,218.02725 105,218.5 v 0.5 h -1 -1 v 1 12 1 h 1 4 v -2 h -3 v -10 h 1 1 v -1 -1 h 4 v 1 1 h 1 1 v 3 h 2 v -4 -1 h -1 -1 v -0.375 -0.0312 -0.0312 c -0.0239,-0.4306 -0.17023,-0.72105 -0.40625,-1 -0.22374,-0.26444 -0.6267,-0.52931 -1.15625,-0.53125 v -0.0312 h -0.0625 -4.90625 z" />
    <path
       style="color:#f1f2f2;display:inline;overflow:visible;visibility:visible;fill:#ff6600;fill-opacity:1;fill-rule:nonzero;stroke:none;stroke-width:2;marker:none"
       id="rect6718-3"
       d="m 109.8752,225 c -0.49245,0 -0.875,0.38256 -0.875,0.875 v 6.25 c 0,0.49244 0.38255,0.875 0.875,0.875 h 6.25 c 0.49245,0 0.875,-0.38256 0.875,-0.875 v -6.25 c 0,-0.49244 -0.38255,-0.875 -0.875,-0.875 z m 2.125,1 h 2 v 4 h -2 z m 0,5 h 2 v 1 h -2 z"
       class="warning" />
  </g>
  <g
     transform="translate(-101.0002,-217)"
     style="display:inline"
     id="layer10" />
  <g
     transform="translate(-101.0002,-217)"
     id="layer11" />
  <g
     transform="translate(-101.0002,-217)"
     style="display:inline"
     id="layer13" />
  <g
     transform="translate(-101.0002,-217)"
     id="layer14" />
  <g
     transform="translate(-101.0002,-217)"
     style="display:inline"
     id="layer15" />
  <g
     transform="translate(-101.0002,-217)"
     style="display:inline"
     id="g71291" />
  <g
     transform="translate(-101.0002,-217)"
     style="display:inline"
     id="g4953" />
  <g
     transform="translate(-101.0002,-217)"
     style="display:inline"
     id="layer12" />
</svg>
