<?xml version="1.0" encoding="UTF-8" standalone="no"?>
<svg xmlns="http://www.w3.org/2000/svg" version="1" viewBox="0 0 16 16">
 <path fill="#f1f2f2" d="m9 1l-2 2 2 2h-7v3h1c1.055 0.001 0.941 0.002 2 0l-5 3 1 3 4.2109-2.855a5.239 5.239 0 0 0 1.0489 1.925 5.445 5.445 0 0 0 1.834 1.399 5.61 5.61 0 0 0 2.4062 0.531 5.627 5.627 0 0 0 2.408 -0.539 5.481 5.481 0 0 0 1.832 -1.404 5.28 5.28 0 0 0 1.047 -1.93 5.162 5.162 0 0 0 -0.504 -4.0879c-0.57-0.857-0.775-1.1208-1.808-2.1758l-4.475-3.8633zm1.521 6a3.478 3 0 0 1 3.479 3 3.478 3 0 0 1 -3.479 3 3.478 3 0 0 1 -3.478 -3 3.478 3 0 0 1 3.478 -3z"/>
 <path stroke-linejoin="round" d="m12 10a1.5 1 0 0 1 -1.5 1 1.5 1 0 0 1 -1.5 -1 1.5 1 0 0 1 1.5 -1 1.5 1 0 0 1 1.5 1z" stroke-linecap="round" fill="#f1f2f2"/>
</svg>
