<?xml version="1.0" encoding="UTF-8" standalone="no"?>
<svg xmlns="http://www.w3.org/2000/svg" version="1.1" viewBox="0 0 16 16">
 <g fill="#f1f2f2">
  <path style="text-decoration-line:none;text-transform:none;text-indent:0" font-family="Sans" d="m3.437 1c-1.373 0-2.5 1.101-2.5 2.469v9.062c0 1.369 1.127 2.469 2.5 2.469h9.125c1.373 0 2.5-1.101 2.5-2.469v-9.061c0-1.37-1.127-2.47-2.5-2.47zm0 1h9.125c0.844 0 1.5 0.64 1.5 1.469v9.062c0 0.828-0.656 1.469-1.5 1.469h-9.125c-0.843 0-1.5-0.64-1.5-1.469v-9.061c0-0.828 0.657-1.469 1.5-1.469z" overflow="visible" font-weight="400"/>
  <rect ry="0.8" height="8" width="2" y="4" x="3" stroke-width=".89443"/>
  <rect ry="0.8" height="2" width="4" y="3" x="3" stroke-width="1.1547"/>
  <rect ry="0.8" height="2" width="4" y="11" x="3" stroke-width="1.1547"/>
  <rect transform="scale(-1,1)" ry="0.8" height="8" width="2" y="4" x="-13" stroke-width=".89443"/>
  <rect transform="scale(-1,1)" ry="0.8" height="2" width="4" y="3" x="-13" stroke-width="1.1547"/>
  <rect transform="scale(-1,1)" ry="0.8" height="2" width="4" y="11" x="-13" stroke-width="1.1547"/>
 </g>
</svg>
