<svg xmlns="http://www.w3.org/2000/svg" version="1.1" viewBox="0 0 16 16"><path fill="#f1f2f2" d="m10.576-0.033203c-0.166 0.012-0.31903 0.037687-0.45703 0.054688-0.013 0.001-0.02997-0.002-0.04297 0a0.347 0.347 0 0 0 -0.3045 0.2832l-0.3477 1.8945c-0.48 0.131-0.93538 0.31764-1.3594 0.55664l-1.5527-1.1113a0.347 0.347 0 0 0 -0.42383 0.00977c-0.482 0.376-0.91092 0.80439-1.2949 1.2754a0.347 0.347 0 0 0 -0.0098 0.4141l1.0547 1.5566c-0.28 0.468-0.49558 0.97467-0.64258 1.5137l-1.8476 0.2929a0.347 0.347 0 0 0 -0.293 0.295c-0.04 0.325-0.0547 0.6611-0.0547 0.9921 0 0.266 0.0062 0.53564 0.033203 0.80664a0.347 0.347 0 0 0 0.28125 0.30469l1.8594 0.33594c0.145 0.581 0.36506 1.1348 0.66406 1.6348l-1.0879 1.514a0.347 0.347 0 0 0 0.00977 0.42578 8.03 8.03 0 0 0 1.2402 1.23 0.347 0.347 0 0 0 0.41211 0.01172l1.5664-1.0684a5.87 5.87 0 0 0 1.6836 0.66406l0.29492 1.8301a0.347 0.347 0 0 0 0.30469 0.29492c0.252 0.023 0.501 0.021 0.738 0.021 0.343 0 0.67948-0.0097 1.0215-0.05469a0.347 0.347 0 0 0 0.29297 -0.2832l0.35938-1.8945a5.941 5.941 0 0 0 0.326 -0.118v-1.074l-2.197-2.514a2.09 2.09 0 0 1 -1.8909 -2.0776 2.09 2.09 0 0 1 1.9239 -2.086l2.164-2.4746v-1.0781a5.841 5.841 0 0 0 -0.4668 -0.15625l-0.295-1.873a0.347 0.347 0 0 0 -0.293 -0.29492 8.103 8.103 0 0 0 -0.945 -0.054683c-0.075 0-0.16377-0.003-0.25977 0-0.013 0-0.05686-0.004-0.13086 0 0.032-0.002 0.0228-0.004-0.0332 0z"/></svg>
