<?xml version="1.0" encoding="UTF-8" standalone="no"?>
<svg
   xmlns:dc="http://purl.org/dc/elements/1.1/"
   xmlns:cc="http://creativecommons.org/ns#"
   xmlns:rdf="http://www.w3.org/1999/02/22-rdf-syntax-ns#"
   xmlns:svg="http://www.w3.org/2000/svg"
   xmlns="http://www.w3.org/2000/svg"
   width="16"
   version="1.1"
   id="svg7384"
   height="16">
  <metadata
     id="metadata90">
    <rdf:RDF>
      <cc:Work
         rdf:about="">
        <dc:format>image/svg+xml</dc:format>
        <dc:type
           rdf:resource="http://purl.org/dc/dcmitype/StillImage" />
        <dc:title>Gnome Symbolic Icon Theme</dc:title>
      </cc:Work>
    </rdf:RDF>
  </metadata>
  <title
     id="title9167">Gnome Symbolic Icon Theme</title>
  <defs
     id="defs7386" />
  <g
     transform="translate(-401.00015,-337)"
     style="display:inline"
     id="layer9">
    <path
       style="color:#000000;font-style:normal;font-variant:normal;font-weight:normal;font-stretch:normal;font-size:medium;line-height:normal;font-family:Sans;-inkscape-font-specification:Sans;text-indent:0;text-align:start;text-decoration:none;text-decoration-line:none;letter-spacing:normal;word-spacing:normal;text-transform:none;writing-mode:lr-tb;direction:ltr;baseline-shift:baseline;text-anchor:start;display:inline;overflow:visible;visibility:visible;fill:#f1f2f2;fill-opacity:1;stroke:none;stroke-width:0.99115032;marker:none;enable-background:accumulate"
       id="rect9618-8"
       d="M 404.46875,338 C 403.10458,338 402,339.10458 402,340.46875 v 9.0625 c 0,1.36417 1.10458,2.46875 2.46875,2.46875 h 9.0625 C 414.89542,352 416,350.89542 416,349.53125 v -9.0625 C 416,339.10458 414.89542,338 413.53125,338 Z m 0,1 h 9.0625 c 0.83222,0 1.46875,0.63653 1.46875,1.46875 v 9.0625 C 415,350.36347 414.36347,351 413.53125,351 h -9.0625 C 403.63653,351 403,350.36347 403,349.53125 v -9.0625 C 403,339.63653 403.63653,339 404.46875,339 Z" />
    <path
       style="color:#000000;font-style:normal;font-variant:normal;font-weight:normal;font-stretch:normal;font-size:medium;line-height:normal;font-family:Sans;-inkscape-font-specification:Sans;text-indent:0;text-align:start;text-decoration:none;text-decoration-line:none;letter-spacing:normal;word-spacing:normal;text-transform:none;writing-mode:lr-tb;direction:ltr;baseline-shift:baseline;text-anchor:start;display:inline;overflow:visible;visibility:visible;fill:#f1f2f2;fill-opacity:1;stroke:none;stroke-width:3;marker:none;enable-background:accumulate"
       id="path8913-6-7-1-5-1"
       d="m 415.17698,339.82322 -5.67683,5.55178 -1.9375,-1.9375 -2.125,2.125 3,3 1.0625,1.0625 1.0625,-1.0625 4.61433,-4.73928 z" />
  </g>
  <g
     transform="translate(-401.00015,-337)"
     style="display:inline"
     id="layer10" />
  <g
     transform="translate(-401.00015,-337)"
     id="layer11" />
  <g
     transform="translate(-401.00015,-337)"
     style="display:inline"
     id="layer13" />
  <g
     transform="translate(-401.00015,-337)"
     id="layer14" />
  <g
     transform="translate(-401.00015,-337)"
     style="display:inline"
     id="layer15" />
  <g
     transform="translate(-401.00015,-337)"
     style="display:inline"
     id="g71291" />
  <g
     transform="translate(-401.00015,-337)"
     style="display:inline"
     id="g4953" />
  <g
     transform="translate(-401.00015,-337)"
     style="display:inline"
     id="layer12" />
</svg>
