<?xml version="1.0" encoding="UTF-8" standalone="no"?>
<svg
   xmlns:dc="http://purl.org/dc/elements/1.1/"
   xmlns:cc="http://creativecommons.org/ns#"
   xmlns:rdf="http://www.w3.org/1999/02/22-rdf-syntax-ns#"
   xmlns:svg="http://www.w3.org/2000/svg"
   xmlns="http://www.w3.org/2000/svg"
   width="16"
   version="1.1"
   id="svg7384"
   height="16">
  <metadata
     id="metadata90">
    <rdf:RDF>
      <cc:Work
         rdf:about="">
        <dc:format>image/svg+xml</dc:format>
        <dc:type
           rdf:resource="http://purl.org/dc/dcmitype/StillImage" />
        <dc:title>Gnome Symbolic Icon Theme</dc:title>
      </cc:Work>
    </rdf:RDF>
  </metadata>
  <title
     id="title9167">Gnome Symbolic Icon Theme</title>
  <defs
     id="defs7386" />
  <g
     transform="translate(-401.00015,-357)"
     style="display:inline"
     id="layer9">
    <path
       style="color:#000000;font-style:normal;font-variant:normal;font-weight:normal;font-stretch:normal;font-size:medium;line-height:normal;font-family:Sans;-inkscape-font-specification:Sans;text-indent:0;text-align:start;text-decoration:none;text-decoration-line:none;letter-spacing:normal;word-spacing:normal;text-transform:none;writing-mode:lr-tb;direction:ltr;baseline-shift:baseline;text-anchor:start;display:inline;overflow:visible;visibility:visible;fill:#f1f2f2;fill-opacity:1;stroke:none;stroke-width:0.9911505;marker:none;enable-background:accumulate"
       id="rect9696"
       d="M 404.46875,358 C 403.10458,358 402,359.10458 402,360.46875 v 9.0625 c 0,1.36417 1.10458,2.46875 2.46875,2.46875 h 9.0625 C 414.89542,372 416,370.89542 416,369.53125 v -9.0625 C 416,359.10458 414.89542,358 413.53125,358 Z m 0,1 h 9.0625 c 0.83222,0 1.46875,0.63653 1.46875,1.46875 v 9.0625 C 415,370.36347 414.36347,371 413.53125,371 h -9.0625 C 403.63653,371 403,370.36347 403,369.53125 v -9.0625 C 403,359.63653 403.63653,359 404.46875,359 Z" />
    <path
       style="color:#000000;font-style:normal;font-variant:normal;font-weight:normal;font-stretch:normal;font-size:medium;line-height:normal;font-family:Sans;-inkscape-font-specification:Sans;text-indent:0;text-align:start;text-decoration:none;text-decoration-line:none;letter-spacing:normal;word-spacing:normal;text-transform:none;writing-mode:lr-tb;direction:ltr;baseline-shift:baseline;text-anchor:start;display:inline;overflow:visible;visibility:visible;fill:#f1f2f2;fill-opacity:1;stroke:none;stroke-width:4;marker:none;enable-background:accumulate"
       id="path9616"
       d="m 405.6875,363.0625 a 2.0029885,2.0029885 0 1 0 0.21875,4 h 6.125 a 2.0002,2.0002 0 1 0 0,-4 h -6.125 a 2.0002,2.0002 0 0 0 -0.21875,0 z" />
  </g>
  <g
     transform="translate(-401.00015,-357)"
     style="display:inline"
     id="layer10" />
  <g
     transform="translate(-401.00015,-357)"
     id="layer11" />
  <g
     transform="translate(-401.00015,-357)"
     style="display:inline"
     id="layer13" />
  <g
     transform="translate(-401.00015,-357)"
     id="layer14" />
  <g
     transform="translate(-401.00015,-357)"
     style="display:inline"
     id="layer15" />
  <g
     transform="translate(-401.00015,-357)"
     style="display:inline"
     id="g71291" />
  <g
     transform="translate(-401.00015,-357)"
     style="display:inline"
     id="g4953" />
  <g
     transform="translate(-401.00015,-357)"
     style="display:inline"
     id="layer12" />
</svg>
