<?xml version="1.0" encoding="UTF-8" standalone="no"?>
<svg
   xmlns:dc="http://purl.org/dc/elements/1.1/"
   xmlns:cc="http://creativecommons.org/ns#"
   xmlns:rdf="http://www.w3.org/1999/02/22-rdf-syntax-ns#"
   xmlns:svg="http://www.w3.org/2000/svg"
   xmlns="http://www.w3.org/2000/svg"
   width="16"
   version="1.1"
   id="svg7384"
   height="16">
  <metadata
     id="metadata90">
    <rdf:RDF>
      <cc:Work
         rdf:about="">
        <dc:format>image/svg+xml</dc:format>
        <dc:type
           rdf:resource="http://purl.org/dc/dcmitype/StillImage" />
        <dc:title>Gnome Symbolic Icon Theme</dc:title>
      </cc:Work>
    </rdf:RDF>
  </metadata>
  <title
     id="title9167">Gnome Symbolic Icon Theme</title>
  <defs
     id="defs7386" />
  <g
     transform="translate(-201.0004,-867)"
     style="display:inline"
     id="layer9" />
  <g
     transform="translate(-201.0004,-867)"
     id="layer10" />
  <g
     transform="translate(-201.0004,-867)"
     id="layer11" />
  <g
     transform="translate(-201.0004,-867)"
     id="layer13" />
  <g
     transform="translate(-201.0004,-867)"
     id="layer14" />
  <g
     transform="translate(-201.0004,-867)"
     style="display:inline"
     id="layer15" />
  <g
     transform="translate(-201.0004,-867)"
     style="display:inline"
     id="g71291" />
  <g
     transform="translate(-201.0004,-867)"
     style="display:inline"
     id="g4953" />
  <g
     transform="translate(-201.0004,-867)"
     style="display:inline"
     id="layer12">
    <path
       id="path4955-1-2"
       d="m 29,209 a 1,1 0 0 1 -1,1 1,1 0 0 1 -1,-1 1,1 0 0 1 1,-1 1,1 0 0 1 1,1 z"
       style="display:inline;fill:#f1f2f2;fill-opacity:1;stroke:none"
       transform="matrix(2.000025,0,0,2.000025,147.99952,456.9948)" />
    <path
       id="path4957-2-4"
       d="m 29,209 a 1,1 0 0 1 -1,1 1,1 0 0 1 -1,-1 1,1 0 0 1 1,-1 1,1 0 0 1 1,1 z"
       style="display:inline;fill:#f1f2f2;fill-opacity:1;stroke:none"
       transform="matrix(2,0,0,2,153.00025,457)" />
    <path
       id="path4959-4-6"
       d="m 29,209 a 1,1 0 0 1 -1,1 1,1 0 0 1 -1,-1 1,1 0 0 1 1,-1 1,1 0 0 1 1,1 z"
       style="display:inline;fill:#f1f2f2;fill-opacity:1;stroke:none"
       transform="matrix(2,0,0,2,158.0002,457)" />
  </g>
</svg>
