<svg xmlns="http://www.w3.org/2000/svg" xmlns:osb="http://www.openswatchbook.org/uri/2009/osb" height="16" width="16" version="1.1" viewBox="0 0 4.2333332 4.2333335"><g transform="translate(0 -292.77)"><g id="draw-text-16px" transform="matrix(.26458 0 0 .26458 -84.137 71.479)"><g transform="translate(243.04 -31)"><g transform="translate(0,20)" fill="#f1f2f2"><path d="m2.0449 2v2h11.982v-2h-11.982zm5.9824 4c-3.3137 0-4 2-6 3.5 2 1.5 2.6863 3.5 6 3.5s3.9997-2 5.9997-3.5c-2-1.5-2.686-3.5-5.9997-3.5zm0 1c1.6569 0 2.9997 1.1193 2.9997 2.5 0 1.381-1.3428 2.5-2.9997 2.5-1.6568 0-3-1.119-3-2.5 0-1.3807 1.3432-2.5 3-2.5zm0.0313 1a1.2188 1.5 0 0 0 -1.2188 1.5 1.2188 1.5 0 0 0 1.2188 1.5 1.2188 1.5 0 0 0 1.2187 -1.5 1.2188 1.5 0 0 0 -1.2187 -1.5z" transform="translate(74.956 847.36)"/><path d="m75.003 847.36h0.99853v16h-0.99853z"/><path d="m75.003 847.36h15.976v1h-15.976z"/><path d="m89.981 847.36h0.99853v16h-0.99853z"/><path d="m75.003 862.36h15.976v1h-15.976z"/></g></g></g></g></svg>
