<?xml version="1.0" encoding="UTF-8" standalone="no"?>
<svg
   xmlns:dc="http://purl.org/dc/elements/1.1/"
   xmlns:cc="http://creativecommons.org/ns#"
   xmlns:rdf="http://www.w3.org/1999/02/22-rdf-syntax-ns#"
   xmlns:svg="http://www.w3.org/2000/svg"
   xmlns="http://www.w3.org/2000/svg"
   width="16"
   height="16"
   version="1.1"
   id="svg7384">
  <metadata
     id="metadata90">
    <rdf:RDF>
      <cc:Work
         rdf:about="">
        <dc:format>image/svg+xml</dc:format>
        <dc:type
           rdf:resource="http://purl.org/dc/dcmitype/StillImage" />
        <dc:title>Gnome Symbolic Icon Theme</dc:title>
      </cc:Work>
    </rdf:RDF>
  </metadata>
  <title
     id="title9167">Gnome Symbolic Icon Theme</title>
  <defs
     id="defs7386" />
  <g
     style="display:inline"
     id="layer9"
     transform="translate(-340.99994,-257)">
    <path
       style="color:#000000;font-style:normal;font-variant:normal;font-weight:normal;font-stretch:normal;font-size:medium;line-height:normal;font-family:'Bitstream Vera Sans';-inkscape-font-specification:'Bitstream Vera Sans';text-indent:0;text-align:start;text-decoration:none;text-decoration-line:none;letter-spacing:normal;word-spacing:normal;text-transform:none;writing-mode:lr-tb;direction:ltr;text-anchor:start;display:inline;overflow:visible;visibility:visible;fill:#f1f2f2;fill-opacity:1;stroke:none;stroke-width:2.00000024;marker:none;enable-background:accumulate"
       id="path19754"
       d="m 346,260 c -2.74958,0 -5,2.25042 -5,5 0,2.74958 2.25042,5 5,5 1.58622,0 2.90336,-0.84459 3.8125,-2 h 4.84375 0.75 l 0.21875,-0.75 1.03125,-4 0.3125,-1.25 h -1.28125 -5.875 c -0.90914,-1.15541 -2.22628,-2 -3.8125,-2 z m 0,2 c 1.11585,0 2.03788,0.59507 2.5625,1.5 l 0.3125,0.5 h 0.5625 4.96875 l -0.53125,2 h -4.4375 -0.5625 l -0.3125,0.5 c -0.52462,0.90493 -1.44665,1.5 -2.5625,1.5 -1.66868,0 -3,-1.33132 -3,-3 0,-1.66868 1.33132,-3 3,-3 z" />
    <path
       style="color:#000000;display:inline;overflow:visible;visibility:visible;opacity:0.35;fill:#f1f2f2;fill-opacity:1;fill-rule:nonzero;stroke:none;stroke-width:2;marker:none;enable-background:accumulate"
       id="path19764"
       d="M 355.49794,265 H 350 l -0.56256,1.99994 L 355,267 Z" />
    <path
       id="path19766"
       d="m 346,265 a 1,1 0 0 1 -1,1 1,1 0 0 1 -1,-1 1,1 0 0 1 1,-1 1,1 0 0 1 1,1 z"
       style="color:#000000;display:inline;overflow:visible;visibility:visible;fill:#f1f2f2;fill-opacity:1;fill-rule:nonzero;stroke:none;stroke-width:2;marker:none;enable-background:accumulate" />
  </g>
  <g
     id="layer10"
     transform="translate(-340.99994,-257)" />
  <g
     id="layer11"
     transform="translate(-340.99994,-257)" />
  <g
     id="layer12"
     transform="translate(-340.99994,-257)" />
  <g
     id="layer13"
     transform="translate(-340.99994,-257)" />
  <g
     id="layer14"
     transform="translate(-340.99994,-257)" />
  <g
     style="display:inline"
     id="layer15"
     transform="translate(-340.99994,-257)" />
  <g
     style="display:inline"
     id="g4953"
     transform="translate(-340.99994,-257)" />
</svg>
