<?xml version="1.0" encoding="UTF-8" standalone="no"?>
<svg
   xmlns:dc="http://purl.org/dc/elements/1.1/"
   xmlns:cc="http://creativecommons.org/ns#"
   xmlns:rdf="http://www.w3.org/1999/02/22-rdf-syntax-ns#"
   xmlns:svg="http://www.w3.org/2000/svg"
   xmlns="http://www.w3.org/2000/svg"
   width="16"
   version="1.1"
   id="svg7384"
   height="16">
  <metadata
     id="metadata90">
    <rdf:RDF>
      <cc:Work
         rdf:about="">
        <dc:format>image/svg+xml</dc:format>
        <dc:type
           rdf:resource="http://purl.org/dc/dcmitype/StillImage" />
        <dc:title>Gnome Symbolic Icon Theme</dc:title>
      </cc:Work>
    </rdf:RDF>
  </metadata>
  <title
     id="title9167">Gnome Symbolic Icon Theme</title>
  <defs
     id="defs7386" />
  <g
     transform="translate(-321,-257)"
     style="display:inline"
     id="layer9">
    <path
       style="color:#f1f2f2;display:inline;overflow:visible;visibility:visible;fill:#f1f2f2;fill-opacity:1;fill-rule:nonzero;stroke:none;stroke-width:1.78124988;marker:none;enable-background:new"
       id="path18112"
       d="m 328.90645,257.09375 c -0.5255,-0.0286 -1.03823,0.28305 -1.4375,0.96875 l -6.25,11.59375 C 320.68548,270.61964 321.26717,272 322.3127,272 h 13.15625 c 0.98172,0 1.90311,-1.15939 1.21875,-2.34375 L 330.3752,258.125 c -0.39872,-0.64617 -0.94325,-1.00262 -1.46875,-1.03125 z m 0.0625,3.9375 c 0.54448,-0.0172 1.04849,0.48677 1.03125,1.03125 V 266 c 0.007,0.52831 -0.47163,1 -1,1 -0.52836,0 -1.00747,-0.47169 -1,-1 v -3.9375 c -0.008,-0.4666 0.3541,-0.91253 0.8125,-1 0.0511,-0.0145 0.10345,-0.0249 0.15625,-0.0312 z M 329.0002,268 c 0.55228,0 1,0.44772 1,1 0,0.55228 -0.44772,1 -1,1 -0.55228,0 -1,-0.44772 -1,-1 0,-0.55228 0.44772,-1 1,-1 z" />
  </g>
  <g
     transform="translate(-321,-257)"
     style="display:inline"
     id="layer10" />
  <g
     transform="translate(-321,-257)"
     id="layer11" />
  <g
     transform="translate(-321,-257)"
     style="display:inline"
     id="layer13" />
  <g
     transform="translate(-321,-257)"
     id="layer14" />
  <g
     transform="translate(-321,-257)"
     style="display:inline"
     id="layer15" />
  <g
     transform="translate(-321,-257)"
     style="display:inline"
     id="g71291" />
  <g
     transform="translate(-321,-257)"
     style="display:inline"
     id="g4953" />
  <g
     transform="translate(-321,-257)"
     style="display:inline"
     id="layer12" />
</svg>
