<?xml version="1.0" encoding="UTF-8" standalone="no"?>
<svg
   xmlns:dc="http://purl.org/dc/elements/1.1/"
   xmlns:cc="http://creativecommons.org/ns#"
   xmlns:rdf="http://www.w3.org/1999/02/22-rdf-syntax-ns#"
   xmlns:svg="http://www.w3.org/2000/svg"
   xmlns="http://www.w3.org/2000/svg"
   width="16"
   version="1.1"
   id="svg7384"
   height="16.01759">
  <metadata
     id="metadata90">
    <rdf:RDF>
      <cc:Work
         rdf:about="">
        <dc:format>image/svg+xml</dc:format>
        <dc:type
           rdf:resource="http://purl.org/dc/dcmitype/StillImage" />
        <dc:title>Gnome Symbolic Icon Theme</dc:title>
      </cc:Work>
    </rdf:RDF>
  </metadata>
  <title
     id="title9167">Gnome Symbolic Icon Theme</title>
  <defs
     id="defs7386" />
  <g
     transform="translate(-360,-766)"
     style="display:inline"
     id="layer9" />
  <g
     transform="translate(-360,-766)"
     id="layer10" />
  <g
     transform="translate(-360,-766)"
     id="layer11" />
  <g
     transform="translate(-360,-766)"
     id="layer13" />
  <g
     transform="translate(-360,-766)"
     id="layer14" />
  <g
     transform="translate(-360,-766)"
     style="display:inline"
     id="layer15" />
  <g
     transform="translate(-360,-766)"
     style="display:inline"
     id="g71291" />
  <g
     transform="translate(-360,-766)"
     style="display:inline"
     id="g4953" />
  <g
     transform="translate(-360,-766)"
     style="display:inline"
     id="layer12">
    <path
       style="color:#000000;font-style:normal;font-variant:normal;font-weight:normal;font-stretch:normal;font-size:medium;line-height:normal;font-family:Sans;-inkscape-font-specification:Sans;text-indent:0;text-align:start;text-decoration:none;text-decoration-line:none;letter-spacing:normal;word-spacing:normal;text-transform:none;writing-mode:lr-tb;direction:ltr;baseline-shift:baseline;text-anchor:start;display:inline;overflow:visible;visibility:visible;fill:#f1f2f2;fill-opacity:1;stroke:none;stroke-width:2;marker:none;enable-background:accumulate"
       id="path6682"
       d="m 367.0002,780 h -2.96875 v -11 h 4.5625 l 3.40625,3.40625 v 5.57813 l 2,3.01563 v -9.03126 c -0.002,-0.26843 -0.11756,-0.53419 -0.3125,-0.71875 l -3.96875,-3.9375 c -0.18456,-0.19494 -0.45032,-0.31049 -0.71875,-0.3125 h -5.96875 c -0.52358,5e-5 -0.99995,0.47642 -1,1 v 12 0.25 0.71875 c 5e-5,0.52358 0.47642,0.99995 1,1 h 5.01562 z" />
    <path
       style="color:#000000;font-style:normal;font-variant:normal;font-weight:normal;font-stretch:normal;font-size:medium;line-height:normal;font-family:Sans;-inkscape-font-specification:Sans;text-indent:0;text-align:start;text-decoration:none;text-decoration-line:none;letter-spacing:normal;word-spacing:normal;text-transform:none;writing-mode:lr-tb;direction:ltr;text-anchor:start;display:inline;overflow:visible;visibility:visible;fill:#f1f2f2;fill-opacity:1;fill-rule:nonzero;stroke:none;stroke-width:3;marker:none;enable-background:accumulate"
       id="path3908-6-6"
       d="m 369.0201,773.86275 c -0.32486,-0.059 -0.6669,-0.0455 -0.99404,-0.003 l 0.9759,1.72872 c 0.20088,0.35507 -0.0237,0.76283 -0.45022,1.00909 l -0.76991,0.44451 c -0.43052,0.23932 -0.91014,0.20778 -1.11067,-0.14747 l -0.97565,-1.72885 c -0.20685,0.25617 -0.39602,0.54042 -0.51415,0.84765 -0.56538,1.4706 0.23676,2.8917 1.79162,3.17415 0.32485,0.0591 0.66688,0.0455 0.99402,0.003 0.0263,-0.004 1.5184,2.76504 1.5184,2.76504 l 3.50484,0.062 -2.66726,-4.12967 c 0.20681,-0.25617 0.37073,-0.54378 0.48887,-0.85103 0.56534,-1.47056 -0.23679,-2.89167 -1.79161,-3.17413 z" />
  </g>
</svg>
