<?xml version="1.0" encoding="UTF-8" standalone="no"?>
<svg
   xmlns:dc="http://purl.org/dc/elements/1.1/"
   xmlns:cc="http://creativecommons.org/ns#"
   xmlns:rdf="http://www.w3.org/1999/02/22-rdf-syntax-ns#"
   xmlns:svg="http://www.w3.org/2000/svg"
   xmlns="http://www.w3.org/2000/svg"
   width="16.000002"
   height="16"
   version="1.1"
   id="svg7384">
  <metadata
     id="metadata90">
    <rdf:RDF>
      <cc:Work
         rdf:about="">
        <dc:format>image/svg+xml</dc:format>
        <dc:type
           rdf:resource="http://purl.org/dc/dcmitype/StillImage" />
        <dc:title>Gnome Symbolic Icon Theme</dc:title>
      </cc:Work>
    </rdf:RDF>
  </metadata>
  <title
     id="title9167">Gnome Symbolic Icon Theme</title>
  <defs
     id="defs7386" />
  <g
     style="display:inline"
     id="layer9"
     transform="translate(-160.0002,-646)" />
  <g
     id="layer10"
     transform="translate(-160.0002,-646)" />
  <g
     id="layer11"
     transform="translate(-160.0002,-646)" />
  <g
     id="layer12"
     transform="translate(-160.0002,-646)">
    <path
       style="display:inline;fill:#f1f2f2;fill-opacity:1;stroke:none"
       id="rect3845-5-8"
       d="m 160.53145,651 c -0.28913,0 -0.53125,0.2421 -0.53125,0.5313 v 9.9375 c 0,0.2985 0.23264,0.5312 0.53125,0.5312 h 13.8125 c 0.2986,0 0.53125,-0.2326 0.53125,-0.5312 l 1.125,-4.9159 c 0,-0.2891 -0.24212,-0.5312 -0.53125,-0.5312 H 163.8752 l -0.875,3.4783 c 0,0.277 -0.223,0.5 -0.5,0.5 -0.277,0 -0.5,-0.223 -0.5,-0.5 v -4.9966 c 0,-0.277 0.223,-0.5 0.5,-0.5 h 0.46615 V 651 Z" />
    <path
       style="color:#000000;font-style:normal;font-variant:normal;font-weight:normal;font-stretch:normal;font-size:medium;line-height:normal;font-family:Sans;-inkscape-font-specification:Sans;text-indent:0;text-align:start;text-decoration:none;text-decoration-line:none;letter-spacing:normal;word-spacing:normal;text-transform:none;writing-mode:lr-tb;direction:ltr;baseline-shift:baseline;text-anchor:start;display:inline;overflow:visible;visibility:visible;fill:#f1f2f2;fill-opacity:1;stroke:none;stroke-width:1.99999988;marker:none;enable-background:accumulate"
       id="path1234-3"
       d="m 164.8127,647 c -0.4584,0.0875 -0.82072,0.5334 -0.8125,1 v 7 h 2 v -6 h 4 v 3 h 3 v 3 h 2 v -3.4375 c 0.006,-0.2641 -0.0976,-0.529 -0.28125,-0.7188 l -3.5625,-3.56245 c -0.18978,-0.1837 -0.45469,-0.28737 -0.71875,-0.28125 h -5.4375 c -0.0312,-10e-4 -0.0625,-10e-4 -0.0937,0 -0.0312,-10e-4 -0.0625,-10e-4 -0.0937,0 z" />
  </g>
  <g
     id="layer13"
     transform="translate(-160.0002,-646)" />
  <g
     id="layer14"
     transform="translate(-160.0002,-646)" />
  <g
     style="display:inline"
     id="layer15"
     transform="translate(-160.0002,-646)" />
  <g
     style="display:inline"
     id="g4953"
     transform="translate(-160.0002,-646)" />
</svg>
