<?xml version="1.0" encoding="UTF-8" standalone="no"?>
<svg
   xmlns:dc="http://purl.org/dc/elements/1.1/"
   xmlns:cc="http://creativecommons.org/ns#"
   xmlns:rdf="http://www.w3.org/1999/02/22-rdf-syntax-ns#"
   xmlns:svg="http://www.w3.org/2000/svg"
   xmlns="http://www.w3.org/2000/svg"
   width="16"
   height="16"
   version="1.1"
   id="svg7384">
  <metadata
     id="metadata90">
    <rdf:RDF>
      <cc:Work
         rdf:about="">
        <dc:format>image/svg+xml</dc:format>
        <dc:type
           rdf:resource="http://purl.org/dc/dcmitype/StillImage" />
        <dc:title>Gnome Symbolic Icon Theme</dc:title>
      </cc:Work>
    </rdf:RDF>
  </metadata>
  <title
     id="title9167">Gnome Symbolic Icon Theme</title>
  <defs
     id="defs7386" />
  <g
     style="display:inline"
     id="layer9"
     transform="translate(-40,-688)" />
  <g
     id="layer10"
     transform="translate(-40,-688)" />
  <g
     id="layer11"
     transform="translate(-40,-688)" />
  <g
     id="layer12"
     transform="translate(-40,-688)">
    <path
       style="color:#000000;font-style:normal;font-variant:normal;font-weight:normal;font-stretch:normal;font-size:medium;line-height:normal;font-family:Sans;-inkscape-font-specification:Sans;text-indent:0;text-align:start;text-decoration:none;text-decoration-line:none;letter-spacing:normal;word-spacing:normal;text-transform:none;writing-mode:lr-tb;direction:ltr;baseline-shift:baseline;text-anchor:start;display:inline;overflow:visible;visibility:visible;fill:#f1f2f2;fill-opacity:1;stroke:none;stroke-width:2.15384626;marker:none;enable-background:accumulate"
       id="path3869"
       d="m 47.5,688.0134 c -4.130291,0 -7.486607,3.35631 -7.486607,7.48661 0,4.13029 3.356316,7.4866 7.486607,7.4866 4.130291,0 7.486607,-3.35631 7.486607,-7.4866 0,-4.1303 -3.356316,-7.48661 -7.486607,-7.48661 z m 0,1.97321 c 3.049411,0 5.513393,2.46399 5.513393,5.5134 0,3.04941 -2.463982,5.51339 -5.513393,5.51339 -3.049411,0 -5.513393,-2.46398 -5.513393,-5.51339 0,-3.04941 2.463982,-5.5134 5.513393,-5.5134 z" />
    <path
       style="color:#000000;font-style:normal;font-variant:normal;font-weight:normal;font-stretch:normal;font-size:medium;line-height:normal;font-family:Sans;-inkscape-font-specification:Sans;text-indent:0;text-align:start;text-decoration:none;text-decoration-line:none;letter-spacing:normal;word-spacing:normal;text-transform:none;writing-mode:lr-tb;direction:ltr;baseline-shift:baseline;text-anchor:start;display:inline;overflow:visible;visibility:visible;fill:#f1f2f2;fill-opacity:1;stroke:none;stroke-width:1;marker:none;enable-background:accumulate"
       id="path4639"
       d="m 50.40625,692 a 0.50005,0.50005 0 0 0 -0.25,0.15625 L 47.5,694.8125 45.84375,693.15625 a 0.50005,0.50005 0 1 0 -0.6875,0.6875 l 2,2 a 0.50005,0.50005 0 0 0 0.6875,0 l 3,-3 A 0.50005,0.50005 0 0 0 50.40625,692 Z" />
  </g>
  <g
     id="layer13"
     transform="translate(-40,-688)" />
  <g
     id="layer14"
     transform="translate(-40,-688)" />
  <g
     style="display:inline"
     id="layer15"
     transform="translate(-40,-688)" />
  <g
     style="display:inline"
     id="g4953"
     transform="translate(-40,-688)" />
</svg>
