<?xml version="1.0" encoding="UTF-8" standalone="no"?>
<svg
   xmlns:dc="http://purl.org/dc/elements/1.1/"
   xmlns:cc="http://creativecommons.org/ns#"
   xmlns:rdf="http://www.w3.org/1999/02/22-rdf-syntax-ns#"
   xmlns:svg="http://www.w3.org/2000/svg"
   xmlns="http://www.w3.org/2000/svg"
   width="16"
   height="16"
   version="1.1"
   id="svg7384">
  <metadata
     id="metadata90">
    <rdf:RDF>
      <cc:Work
         rdf:about="">
        <dc:format>image/svg+xml</dc:format>
        <dc:type
           rdf:resource="http://purl.org/dc/dcmitype/StillImage" />
        <dc:title>Gnome Symbolic Icon Theme</dc:title>
      </cc:Work>
    </rdf:RDF>
  </metadata>
  <title
     id="title9167">Gnome Symbolic Icon Theme</title>
  <defs
     id="defs7386" />
  <g
     style="display:inline"
     id="layer9"
     transform="translate(-80,-648)" />
  <g
     id="layer10"
     transform="translate(-80,-648)" />
  <g
     id="layer11"
     transform="translate(-80,-648)" />
  <g
     id="layer12"
     transform="translate(-80,-648)">
    <path
       style="color:#f1f2f2;font-style:normal;font-variant:normal;font-weight:normal;font-stretch:normal;font-size:medium;line-height:normal;font-family:Sans;-inkscape-font-specification:Sans;text-indent:0;text-align:start;text-decoration:none;text-decoration-line:none;letter-spacing:normal;word-spacing:normal;text-transform:none;writing-mode:lr-tb;direction:ltr;baseline-shift:baseline;text-anchor:start;display:inline;overflow:visible;visibility:visible;fill:#f1f2f2;fill-opacity:1;stroke:none;stroke-width:1;marker:none;enable-background:accumulate"
       id="rect4390-9"
       d="m 84.40625,657 a 0.50005,0.50005 0 0 0 -0.3125,0.21875 l -1,1.5 a 0.50005,0.50005 0 1 0 0.8125,0.5625 l 1,-1.5 A 0.50005,0.50005 0 0 0 84.40625,657 Z m 7,0 a 0.50005,0.50005 0 0 0 -0.3125,0.78125 l 1,1.5 a 0.50005,0.50005 0 1 0 0.8125,-0.5625 l -1,-1.5 A 0.50005,0.50005 0 0 0 91.40625,657 Z" />
    <g
       id="g4555"
       transform="translate(-80,110)">
      <path
         style="color:#000000;font-style:normal;font-variant:normal;font-weight:normal;font-stretch:normal;font-size:medium;line-height:normal;font-family:'Bitstream Vera Sans';-inkscape-font-specification:'Bitstream Vera Sans';text-indent:0;text-align:start;text-decoration:none;text-decoration-line:none;letter-spacing:normal;word-spacing:normal;text-transform:none;writing-mode:lr-tb;direction:ltr;text-anchor:start;display:inline;overflow:visible;visibility:visible;fill:#f1f2f2;fill-opacity:1;stroke:none;stroke-width:2;marker:none;enable-background:accumulate"
         id="path3613"
         d="m 167,539 v 5.5625 l -1.28125,-1.28125 C 165.53059,543.0931 165.2653,543.00001 165,543 h -1 v 1 c 1e-5,0.2653 0.0931,0.53058 0.28125,0.71875 l 3,3 L 167.5625,548 h 0.875 l 0.28125,-0.28125 3,-3 C 171.90694,544.53058 171.99999,544.2653 172,544 v -1 h -1 c -0.2653,10e-6 -0.53059,0.0931 -0.71875,0.28125 L 169,544.5625 V 539 Z" />
      <path
         style="color:#000000;display:inline;overflow:visible;visibility:visible;fill:#f1f2f2;fill-opacity:1;fill-rule:evenodd;stroke:none;stroke-width:1;marker:none;enable-background:accumulate"
         id="rect11668-7-5"
         d="m 163,549 v 4 h 10 v -4 z m 3.34375,1.4375 c 0.0208,-10e-4 0.0417,-10e-4 0.0625,0 0.29096,-0.0556 0.59898,0.20383 0.59375,0.5 V 551 h 2 v -0.0625 c -0.004,-0.26416 0.23582,-0.50712 0.5,-0.50712 0.26418,0 0.50373,0.24296 0.5,0.50712 V 551 c 0,0.54535 -0.45465,1 -1,1 h -2 c -0.54535,0 -1,-0.45465 -1,-1 v -0.0625 c -0.0108,-0.21706 0.13723,-0.43234 0.34375,-0.5 z" />
    </g>
  </g>
  <g
     id="layer13"
     transform="translate(-80,-648)" />
  <g
     id="layer14"
     transform="translate(-80,-648)" />
  <g
     style="display:inline"
     id="layer15"
     transform="translate(-80,-648)" />
</svg>
