<?xml version="1.0" encoding="UTF-8" standalone="no"?>
<svg
   xmlns:dc="http://purl.org/dc/elements/1.1/"
   xmlns:cc="http://creativecommons.org/ns#"
   xmlns:rdf="http://www.w3.org/1999/02/22-rdf-syntax-ns#"
   xmlns:svg="http://www.w3.org/2000/svg"
   xmlns="http://www.w3.org/2000/svg"
   width="16"
   version="1.1"
   id="svg7384"
   height="16.012289">
  <metadata
     id="metadata90">
    <rdf:RDF>
      <cc:Work
         rdf:about="">
        <dc:format>image/svg+xml</dc:format>
        <dc:type
           rdf:resource="http://purl.org/dc/dcmitype/StillImage" />
        <dc:title>Gnome Symbolic Icon Theme</dc:title>
      </cc:Work>
    </rdf:RDF>
  </metadata>
  <title
     id="title9167">Gnome Symbolic Icon Theme</title>
  <defs
     id="defs7386" />
  <g
     transform="translate(-383.0002,-807)"
     style="display:inline"
     id="layer9" />
  <g
     transform="translate(-383.0002,-807)"
     style="display:inline"
     id="layer10" />
  <g
     transform="translate(-383.0002,-807)"
     id="layer11" />
  <g
     transform="translate(-383.0002,-807)"
     style="display:inline"
     id="layer13" />
  <g
     transform="translate(-383.0002,-807)"
     id="layer14" />
  <g
     transform="translate(-383.0002,-807)"
     style="display:inline"
     id="layer15" />
  <g
     transform="translate(-383.0002,-807)"
     style="display:inline"
     id="g71291" />
  <g
     transform="translate(-383.0002,-807)"
     style="display:inline"
     id="g4953" />
  <g
     transform="translate(-383.0002,-807)"
     style="display:inline"
     id="layer12">
    <path
       style="color:#f1f2f2;display:inline;overflow:visible;visibility:visible;fill:#f1f2f2;fill-opacity:1;fill-rule:evenodd;stroke:none;stroke-width:1;marker:none;enable-background:accumulate"
       id="path27474"
       d="m 385.9377,808 c -0.6325,0.0455 -1.02766,0.72053 -0.9375,1.3125 0.003,4.24996 0.0213,8.50019 0.0312,12.75 0.057,0.62486 0.69233,1.02649 1.28125,0.9375 3.25298,-0.003 6.49717,-0.0214 9.75,-0.0312 0.62425,-0.0569 1.02639,-0.69174 0.9375,-1.28125 -0.004,-3.25599 -0.0162,-6.52564 -0.0312,-9.78125 -0.0941,-0.59835 -0.66512,-0.91374 -1.03125,-1.34375 -0.80258,-0.78917 -1.55462,-1.60576 -2.375,-2.375 -0.49046,-0.30313 -1.11077,-0.1456 -1.65625,-0.1875 h -5.96875 z m 5.0625,3 h 1 c 0.30945,0 0.55232,0.0902 0.75,0.28125 L 396.40645,815 392.7502,818.71875 C 392.55252,818.9096 392.30965,819 392.0002,819 h -1 v -1 c 0,-0.25689 0.12983,-0.52846 0.3125,-0.71875 L 392.59395,816 h -3.125 c -0.93955,0 -1.46875,0.65905 -1.46875,1.5 0,0.42921 0.16539,0.82274 0.4375,1.09375 l -1.15625,1.625 c -0.80398,-0.63477 -1.3125,-1.6184 -1.3125,-2.71875 0,-1.92048 1.57816,-3.5 3.5,-3.5 h 3.125 l -1.28125,-1.28125 c -0.18267,-0.1903 -0.3125,-0.46186 -0.3125,-0.71875 z" />
  </g>
</svg>
