<?xml version="1.0" encoding="UTF-8" standalone="no"?>
<svg
   xmlns:dc="http://purl.org/dc/elements/1.1/"
   xmlns:cc="http://creativecommons.org/ns#"
   xmlns:rdf="http://www.w3.org/1999/02/22-rdf-syntax-ns#"
   xmlns:svg="http://www.w3.org/2000/svg"
   xmlns="http://www.w3.org/2000/svg"
   width="16.0002"
   version="1.1"
   id="svg7384"
   height="16">
  <metadata
     id="metadata90">
    <rdf:RDF>
      <cc:Work
         rdf:about="">
        <dc:format>image/svg+xml</dc:format>
        <dc:type
           rdf:resource="http://purl.org/dc/dcmitype/StillImage" />
        <dc:title>Gnome Symbolic Icon Theme</dc:title>
      </cc:Work>
    </rdf:RDF>
  </metadata>
  <title
     id="title9167">Gnome Symbolic Icon Theme</title>
  <defs
     id="defs7386" />
  <g
     transform="translate(-201,-467)"
     style="display:inline"
     id="layer9" />
  <g
     transform="translate(-201,-467)"
     style="display:inline"
     id="layer10">
    <path
       style="fill:#f1f2f2;fill-opacity:1;stroke:none"
       id="path8478"
       d="m 203.5002,468 c -1.385,0 -2.5,1.115 -2.5,2.5 v 8 c 0,1.385 1.115,2.5 2.5,2.5 v -2 c -0.277,0 -0.5,-0.223 -0.5,-0.5 V 477 h 0.5 11 0.5 v 1.5 c 0,0.277 -0.223,0.5 -0.5,0.5 v 2 c 1.385,0 2.5,-1.115 2.5,-2.5 v -8 c 0,-1.385 -1.115,-2.5 -2.5,-2.5 z" />
    <path
       style="color:#f1f2f2;font-style:normal;font-variant:normal;font-weight:normal;font-stretch:normal;font-size:medium;line-height:normal;font-family:Sans;-inkscape-font-specification:Sans;text-indent:0;text-align:start;text-decoration:none;text-decoration-line:none;letter-spacing:normal;word-spacing:normal;text-transform:none;writing-mode:lr-tb;direction:ltr;baseline-shift:baseline;text-anchor:start;display:inline;overflow:visible;visibility:visible;fill:#f1f2f2;fill-opacity:1;stroke:none;stroke-width:3.4283843;marker:none;enable-background:accumulate"
       id="path40815"
       d="m 203.8752,478.03876 c 0,2.69092 2.29876,4.90426 5.11583,4.90426 2.81708,0 5.13418,-2.21334 5.13418,-4.90426 h -2.017 c 0,1.65243 -1.38729,2.97759 -3.11718,2.97759 -1.72988,0 -3.09884,-1.32516 -3.09884,-2.97759 z" />
    <path
       style="color:#f1f2f2;font-style:normal;font-variant:normal;font-weight:normal;font-stretch:normal;font-size:medium;line-height:normal;font-family:Sans;-inkscape-font-specification:Sans;text-indent:0;text-align:start;text-decoration:none;text-decoration-line:none;letter-spacing:normal;word-spacing:normal;text-transform:none;writing-mode:lr-tb;direction:ltr;baseline-shift:baseline;text-anchor:start;display:inline;overflow:visible;visibility:visible;fill:#f1f2f2;fill-opacity:1;stroke:none;stroke-width:1.87825239;marker:none;enable-background:accumulate"
       id="path40342-8"
       d="m 207.0002,478 c 0,1.09864 0.90135,2 2,2 1.09865,0 2,-0.90136 2,-2 h -1 c 0,0.5582 -0.44179,1 -1,1 -0.55821,0 -1,-0.4418 -1,-1 z" />
  </g>
  <g
     transform="translate(-201,-467)"
     id="layer11" />
  <g
     transform="translate(-201,-467)"
     style="display:inline"
     id="layer13" />
  <g
     transform="translate(-201,-467)"
     id="layer14" />
  <g
     transform="translate(-201,-467)"
     style="display:inline"
     id="layer15" />
  <g
     transform="translate(-201,-467)"
     style="display:inline"
     id="g71291" />
  <g
     transform="translate(-201,-467)"
     style="display:inline"
     id="g4953" />
  <g
     transform="translate(-201,-467)"
     style="display:inline"
     id="layer12" />
</svg>
