<?xml version="1.0" encoding="UTF-8" standalone="no"?>
<svg
   xmlns:dc="http://purl.org/dc/elements/1.1/"
   xmlns:cc="http://creativecommons.org/ns#"
   xmlns:rdf="http://www.w3.org/1999/02/22-rdf-syntax-ns#"
   xmlns:svg="http://www.w3.org/2000/svg"
   xmlns="http://www.w3.org/2000/svg"
   width="16"
   height="16"
   version="1.1"
   id="svg7384">
  <metadata
     id="metadata90">
    <rdf:RDF>
      <cc:Work
         rdf:about="">
        <dc:format>image/svg+xml</dc:format>
        <dc:type
           rdf:resource="http://purl.org/dc/dcmitype/StillImage" />
        <dc:title>Gnome Symbolic Icon Theme</dc:title>
      </cc:Work>
    </rdf:RDF>
  </metadata>
  <title
     id="title9167">Gnome Symbolic Icon Theme</title>
  <defs
     id="defs7386" />
  <g
     style="display:inline"
     id="layer9"
     transform="translate(-182,-448)" />
  <g
     id="layer10"
     transform="translate(-182,-448)">
    <g
       id="g42757"
       transform="translate(134,50)" />
    <path
       style="color:#f1f2f2;font-style:normal;font-variant:normal;font-weight:normal;font-stretch:normal;font-size:medium;line-height:normal;font-family:'Bitstream Vera Sans';-inkscape-font-specification:'Bitstream Vera Sans';text-indent:0;text-align:start;text-decoration:none;text-decoration-line:none;letter-spacing:normal;word-spacing:normal;text-transform:none;writing-mode:lr-tb;direction:ltr;text-anchor:start;display:inline;overflow:visible;visibility:visible;fill:#f1f2f2;fill-opacity:1;stroke:none;stroke-width:1.99999988;marker:none;enable-background:accumulate"
       id="rect42761"
       d="M 185.1875,448 C 183.9859,448 183,448.98758 183,450.1875 v 11.625 c 0,1.19992 0.9859,2.1875 2.1875,2.1875 h 9.625 c 1.2016,0 2.1875,-0.98758 2.1875,-2.1875 v -11.625 C 197,448.98758 196.0141,448 194.8125,448 Z m 0,2 h 9.625 c 0.1238,0 0.1875,0.0566 0.1875,0.1875 v 11.625 c 0,0.1309 -0.0637,0.1875 -0.1875,0.1875 h -9.625 C 185.0637,462 185,461.9434 185,461.8125 v -11.625 C 185,450.0566 185.0637,450 185.1875,450 Z" />
    <path
       style="color:#000000;display:inline;overflow:visible;visibility:visible;fill:#f1f2f2;fill-opacity:1;fill-rule:nonzero;stroke:none;stroke-width:1;marker:none;enable-background:accumulate"
       id="path42765"
       d="m 189.84375,451 c -0.26556,0.0109 -0.54445,0.0586 -0.8125,0.125 -2.14441,0.53085 -3.4371,2.69934 -2.90625,4.84375 0.4498,1.81699 2.07532,3.0225 3.86571,3.02533 0.16806,2.7e-4 0.33757,-0.0101 0.5077,-0.0315 l -0.3888,-2.97965 c -0.0347,0.01 -0.0704,0.017 -0.10961,0.017 -0.55254,0 -1,-0.44746 -1,-1 0,-0.55254 0.44746,-1 1,-1 0.55254,0 1,0.44746 1,1 0,0.11765 -0.0285,0.22486 -0.0726,0.32494 l 2.70058,1.38685 c 0.38616,-0.83016 0.46978,-1.78065 0.24701,-2.68054 -0.46449,-1.87636 -2.1723,-3.10719 -4.03125,-3.03125 z" />
    <path
       style="color:#000000;display:inline;overflow:visible;visibility:visible;fill:#f1f2f2;fill-opacity:1;fill-rule:nonzero;stroke:none;stroke-width:1;marker:none;enable-background:accumulate"
       id="path42767"
       d="M 190.66095,456 192,460 c 0.73426,2.05595 3,0.38433 1.4966,-1 z" />
  </g>
  <g
     id="layer11"
     transform="translate(-182,-448)" />
  <g
     id="layer12"
     transform="translate(-182,-448)" />
  <g
     id="layer13"
     transform="translate(-182,-448)" />
  <g
     id="layer14"
     transform="translate(-182,-448)" />
  <g
     style="display:inline"
     id="layer15"
     transform="translate(-182,-448)" />
  <g
     style="display:inline"
     id="g4953"
     transform="translate(-182,-448)" />
</svg>
