<?xml version="1.0" encoding="UTF-8" standalone="no"?>
<svg
   xmlns:osb="http://www.openswatchbook.org/uri/2009/osb"
   xmlns:dc="http://purl.org/dc/elements/1.1/"
   xmlns:cc="http://creativecommons.org/ns#"
   xmlns:rdf="http://www.w3.org/1999/02/22-rdf-syntax-ns#"
   xmlns:svg="http://www.w3.org/2000/svg"
   xmlns="http://www.w3.org/2000/svg"
   width="16"
   version="1.1"
   id="svg7384"
   height="16">
  <metadata
     id="metadata90">
    <rdf:RDF>
      <cc:Work
         rdf:about="">
        <dc:format>image/svg+xml</dc:format>
        <dc:type
           rdf:resource="http://purl.org/dc/dcmitype/StillImage" />
        <dc:title>Gnome Symbolic Icon Theme</dc:title>
      </cc:Work>
    </rdf:RDF>
  </metadata>
  <title
     id="title9167">Gnome Symbolic Icon Theme</title>
  <defs
     id="defs7386">
    <linearGradient
       osb:paint="solid"
       id="linearGradient19282"
       gradientTransform="matrix(-2.7365795,0.28202934,-0.18908311,-0.99988321,239.54008,-879.45557)">
      <stop
         style="stop-color:#666666;stop-opacity:1;"
         offset="0"
         id="stop19284" />
    </linearGradient>
  </defs>
  <g
     transform="translate(-261.0002,-567)"
     style="display:inline"
     id="layer9" />
  <g
     transform="translate(-261.0002,-567)"
     style="display:inline"
     id="layer10">
    <path
       style="color:#f1f2f2;font-style:normal;font-variant:normal;font-weight:normal;font-stretch:normal;font-size:medium;line-height:normal;font-family:sans-serif;text-indent:0;text-align:start;text-decoration:none;text-decoration-line:none;text-decoration-style:solid;text-decoration-color:#000000;letter-spacing:normal;word-spacing:normal;text-transform:none;writing-mode:lr-tb;direction:ltr;baseline-shift:baseline;text-anchor:start;white-space:normal;clip-rule:nonzero;display:inline;overflow:visible;visibility:visible;opacity:1;isolation:auto;mix-blend-mode:normal;color-interpolation:sRGB;color-interpolation-filters:linearRGB;solid-color:#000000;solid-opacity:1;fill:#f1f2f2;fill-opacity:1;fill-rule:nonzero;stroke:none;stroke-width:1.99999976;stroke-linecap:butt;stroke-linejoin:miter;stroke-miterlimit:4;stroke-dasharray:none;stroke-dashoffset:0;stroke-opacity:1;marker:none;color-rendering:auto;image-rendering:auto;shape-rendering:auto;text-rendering:auto;enable-background:accumulate"
       id="rect42761-1"
       d="m 264.19571,567 c -1.20159,0 -2.19531,1.00125 -2.19531,2.20117 v 7.59766 c 0,1.19992 0.99372,2.20117 2.19531,2.20117 h 6.60938 c 1.20159,0 2.19531,-1.00125 2.19531,-2.20117 v -7.59766 c 0,-1.19992 -0.99372,-2.20117 -2.19531,-2.20117 z m 3.30469,2 c 1.92115,0 3.5,1.57885 3.5,3.5 0,1.92115 -1.57885,3.49958 -3.5,3.5 h -3.50586 l 0.006,-3.5 c -0.0237,-1.921 1.57885,-3.5 3.5,-3.5 z m 0,2 c -0.84027,0 -1.5,0.65973 -1.5,1.5 0,0.84027 0.65973,1.5 1.5,1.5 0.84027,0 1.5,-0.65973 1.5,-1.5 0,-0.84027 -0.65973,-1.5 -1.5,-1.5 z" />
    <path
       style="color:#f1f2f2;font-style:normal;font-variant:normal;font-weight:normal;font-stretch:normal;font-size:medium;line-height:normal;font-family:Sans;-inkscape-font-specification:Sans;text-indent:0;text-align:start;text-decoration:none;text-decoration-line:none;letter-spacing:normal;word-spacing:normal;text-transform:none;writing-mode:lr-tb;direction:ltr;baseline-shift:baseline;text-anchor:start;display:inline;overflow:visible;visibility:visible;fill:#f1f2f2;fill-opacity:1;stroke:none;stroke-width:1.99999976;marker:none;enable-background:accumulate"
       id="rect42761-1-8"
       d="m 274.0004,571 v 2.1875 6.8125 0.8125 c 0,0.1309 -0.0637,0.1875 -0.1875,0.1875 h -6.625 c -0.1238,0 -0.1875,-0.0566 -0.1875,-0.1875 V 580 h -2 v 0.8125 c 0,1.19992 0.9859,2.1875 2.1875,2.1875 h 6.625 c 1.2016,0 2.1875,-0.98758 2.1875,-2.1875 v -7.625 c 0,-1.13596 -0.88628,-2.08992 -2,-2.1875 z" />
  </g>
  <g
     transform="translate(-261.0002,-567)"
     id="layer11" />
  <g
     transform="translate(-261.0002,-567)"
     style="display:inline"
     id="layer13" />
  <g
     transform="translate(-261.0002,-567)"
     id="layer14" />
  <g
     transform="translate(-261.0002,-567)"
     style="display:inline"
     id="layer15" />
  <g
     transform="translate(-261.0002,-567)"
     style="display:inline"
     id="g71291" />
  <g
     transform="translate(-261.0002,-567)"
     style="display:inline"
     id="g4953" />
  <g
     transform="translate(-261.0002,-567)"
     style="display:inline"
     id="layer12" />
</svg>
