<?xml version="1.0" encoding="UTF-8" standalone="no"?>
<svg
   xmlns:osb="http://www.openswatchbook.org/uri/2009/osb"
   xmlns:dc="http://purl.org/dc/elements/1.1/"
   xmlns:cc="http://creativecommons.org/ns#"
   xmlns:rdf="http://www.w3.org/1999/02/22-rdf-syntax-ns#"
   xmlns:svg="http://www.w3.org/2000/svg"
   xmlns="http://www.w3.org/2000/svg"
   width="16"
   version="1.1"
   id="svg7384"
   height="16">
  <metadata
     id="metadata90">
    <rdf:RDF>
      <cc:Work
         rdf:about="">
        <dc:format>image/svg+xml</dc:format>
        <dc:type
           rdf:resource="http://purl.org/dc/dcmitype/StillImage" />
        <dc:title>Gnome Symbolic Icon Theme</dc:title>
      </cc:Work>
    </rdf:RDF>
  </metadata>
  <title
     id="title9167">Gnome Symbolic Icon Theme</title>
  <defs
     id="defs7386">
    <linearGradient
       osb:paint="solid"
       id="linearGradient19282"
       gradientTransform="matrix(-2.7365795,0.28202934,-0.18908311,-0.99988321,239.54008,-879.45557)">
      <stop
         style="stop-color:#666666;stop-opacity:1;"
         offset="0"
         id="stop19284" />
    </linearGradient>
  </defs>
  <g
     transform="translate(459,-447)"
     style="display:inline"
     id="layer9" />
  <g
     transform="translate(459,-447)"
     style="display:inline"
     id="layer10">
    <path
       style="fill:#f1f2f2;fill-opacity:1;stroke:none"
       id="path10063"
       d="m -456.00022,448.03456 c -1,0 -1,1 -1,1 v 12 c 0,0 0,1 1,1 h 10 c 0,0 1,0 1,-1 v -12 c 0,0 0,-1 -1,-1 z m 5,2 c 2.20914,0 4,1.79086 4,4 0,2.20914 -1.79086,4 -4,4 h -4 v -4 c 0,-2.20914 1.79086,-4 4,-4 z m 0,2 c -1.10457,0 -2,0.89543 -2,2 0,1.10457 0.89543,2 2,2 1.10457,0 2,-0.89543 2,-2 0,-1.10457 -0.89543,-2 -2,-2 z" />
  </g>
  <g
     transform="translate(459,-447)"
     id="layer11" />
  <g
     transform="translate(459,-447)"
     style="display:inline"
     id="layer13" />
  <g
     transform="translate(459,-447)"
     id="layer14" />
  <g
     transform="translate(459,-447)"
     style="display:inline"
     id="layer15" />
  <g
     transform="translate(459,-447)"
     style="display:inline"
     id="g71291" />
  <g
     transform="translate(459,-447)"
     style="display:inline"
     id="g4953" />
  <g
     transform="translate(459,-447)"
     style="display:inline"
     id="layer12" />
</svg>
