<?xml version="1.0" encoding="UTF-8" standalone="no"?>
<svg
   xmlns:osb="http://www.openswatchbook.org/uri/2009/osb"
   xmlns:dc="http://purl.org/dc/elements/1.1/"
   xmlns:cc="http://creativecommons.org/ns#"
   xmlns:rdf="http://www.w3.org/1999/02/22-rdf-syntax-ns#"
   xmlns:svg="http://www.w3.org/2000/svg"
   xmlns="http://www.w3.org/2000/svg"
   width="16"
   version="1.1"
   id="svg7384"
   height="16.010475">
  <metadata
     id="metadata90">
    <rdf:RDF>
      <cc:Work
         rdf:about="">
        <dc:format>image/svg+xml</dc:format>
        <dc:type
           rdf:resource="http://purl.org/dc/dcmitype/StillImage" />
        <dc:title>Gnome Symbolic Icon Theme</dc:title>
      </cc:Work>
    </rdf:RDF>
  </metadata>
  <title
     id="title9167">Gnome Symbolic Icon Theme</title>
  <defs
     id="defs7386">
    <linearGradient
       osb:paint="solid"
       id="linearGradient19282"
       gradientTransform="matrix(-2.7365795,0.28202934,-0.18908311,-0.99988321,239.54008,-879.45557)">
      <stop
         style="stop-color:#666666;stop-opacity:1;"
         offset="0"
         id="stop19284" />
    </linearGradient>
  </defs>
  <g
     transform="translate(-41.0002,-787)"
     style="display:inline"
     id="layer9" />
  <g
     transform="translate(-41.0002,-787)"
     style="display:inline"
     id="layer10" />
  <g
     transform="translate(-41.0002,-787)"
     id="layer11" />
  <g
     transform="translate(-41.0002,-787)"
     style="display:inline"
     id="layer13" />
  <g
     transform="translate(-41.0002,-787)"
     id="layer14" />
  <g
     transform="translate(-41.0002,-787)"
     style="display:inline"
     id="layer15" />
  <g
     transform="translate(-41.0002,-787)"
     style="display:inline"
     id="g71291" />
  <g
     transform="translate(-41.0002,-787)"
     style="display:inline"
     id="g4953" />
  <g
     transform="translate(-41.0002,-787)"
     style="display:inline"
     id="layer12">
    <path
       style="color:#000000;font-style:normal;font-variant:normal;font-weight:normal;font-stretch:normal;font-size:medium;line-height:normal;font-family:sans-serif;text-indent:0;text-align:start;text-decoration:none;text-decoration-line:none;text-decoration-style:solid;text-decoration-color:#000000;letter-spacing:normal;word-spacing:normal;text-transform:none;writing-mode:lr-tb;direction:ltr;baseline-shift:baseline;text-anchor:start;white-space:normal;clip-rule:nonzero;display:inline;overflow:visible;visibility:visible;opacity:1;isolation:auto;mix-blend-mode:normal;color-interpolation:sRGB;color-interpolation-filters:linearRGB;solid-color:#000000;solid-opacity:1;fill:#f1f2f2;fill-opacity:1;fill-rule:nonzero;stroke:none;stroke-width:2;stroke-linecap:butt;stroke-linejoin:round;stroke-miterlimit:4;stroke-dasharray:none;stroke-dashoffset:0;stroke-opacity:1;color-rendering:auto;image-rendering:auto;shape-rendering:auto;text-rendering:auto;enable-background:accumulate"
       id="path3940"
       d="m 44.5,796 c -1.921152,0 -3.5,1.57885 -3.5,3.5 0,1.92115 1.578848,3.5 3.5,3.5 1.921152,0 3.5,-1.57885 3.5,-3.5 0,-1.92115 -1.578848,-3.5 -3.5,-3.5 z m 0,2 c 0.840272,0 1.5,0.65973 1.5,1.5 0,0.84027 -0.659728,1.5 -1.5,1.5 -0.840272,0 -1.5,-0.65973 -1.5,-1.5 0,-0.84027 0.659728,-1.5 1.5,-1.5 z" />
    <path
       style="color:#000000;font-style:normal;font-variant:normal;font-weight:normal;font-stretch:normal;font-size:medium;line-height:normal;font-family:sans-serif;text-indent:0;text-align:start;text-decoration:none;text-decoration-line:none;text-decoration-style:solid;text-decoration-color:#000000;letter-spacing:normal;word-spacing:normal;text-transform:none;writing-mode:lr-tb;direction:ltr;baseline-shift:baseline;text-anchor:start;white-space:normal;clip-rule:nonzero;display:inline;overflow:visible;visibility:visible;opacity:1;isolation:auto;mix-blend-mode:normal;color-interpolation:sRGB;color-interpolation-filters:linearRGB;solid-color:#000000;solid-opacity:1;fill:#f1f2f2;fill-opacity:1;fill-rule:nonzero;stroke:none;stroke-width:2.00000024;stroke-linecap:butt;stroke-linejoin:round;stroke-miterlimit:4;stroke-dasharray:none;stroke-dashoffset:0;stroke-opacity:1;color-rendering:auto;image-rendering:auto;shape-rendering:auto;text-rendering:auto;enable-background:accumulate"
       id="path3942"
       d="m 53.5,796 c -1.921152,0 -3.5,1.57885 -3.5,3.5 0,1.92115 1.578848,3.5 3.5,3.5 1.921152,0 3.5,-1.57885 3.5,-3.5 0,-1.92115 -1.578848,-3.5 -3.5,-3.5 z m 0,2 c 0.840272,0 1.5,0.65973 1.5,1.5 0,0.84027 -0.659728,1.5 -1.5,1.5 -0.840272,0 -1.5,-0.65973 -1.5,-1.5 0,-0.84027 0.659728,-1.5 1.5,-1.5 z" />
    <path
       style="fill:#f1f2f2;fill-opacity:1;stroke:none"
       id="rect4875"
       d="m 44.096312,787 c -1.060411,0.554 -1.406518,1.7592 -0.794292,2.71875 L 47.722426,797 l -1.746288,2.36796 1.414082,2.08517 1.60998,-2.48438 1.57873,2.48438 1.401138,-1.99679 L 50.277974,797 54.69838,789.71875 C 55.310606,788.7592 54.964499,787.554 53.904088,787 l -4.903888,8 z" />
  </g>
</svg>
