<?xml version="1.0" encoding="UTF-8" standalone="no"?>
<svg
   xmlns:dc="http://purl.org/dc/elements/1.1/"
   xmlns:cc="http://creativecommons.org/ns#"
   xmlns:rdf="http://www.w3.org/1999/02/22-rdf-syntax-ns#"
   xmlns:svg="http://www.w3.org/2000/svg"
   xmlns="http://www.w3.org/2000/svg"
   width="16"
   height="16.00297"
   version="1.1"
   id="svg7384">
  <metadata
     id="metadata90">
    <rdf:RDF>
      <cc:Work
         rdf:about="">
        <dc:format>image/svg+xml</dc:format>
        <dc:type
           rdf:resource="http://purl.org/dc/dcmitype/StillImage" />
        <dc:title>Gnome Symbolic Icon Theme</dc:title>
      </cc:Work>
    </rdf:RDF>
  </metadata>
  <title
     id="title9167">Gnome Symbolic Icon Theme</title>
  <defs
     id="defs7386" />
  <g
     style="display:inline"
     id="layer9"
     transform="translate(-60,-668)" />
  <g
     id="layer10"
     transform="translate(-60,-668)" />
  <g
     id="layer11"
     transform="translate(-60,-668)" />
  <g
     id="layer12"
     transform="translate(-60,-668)">
    <path
       style="fill:#f1f2f2;fill-opacity:1;stroke:none"
       id="rect4897"
       d="m 64.031245,673.03127 v 6.96874 h 5.000005 l 1.990842,-1.98705 -0.0221,-4.98168 h -6.96875 z" />
    <path
       id="rect4899"
       d="m 65.530322,668 h 4.001846 c 0.293802,0 0.53033,0.23653 0.53033,0.53033 v 2.93934 c 0,0.2938 -0.236528,0.53033 -0.53033,0.53033 h -4.001846 c -0.293802,0 -0.53033,-0.23653 -0.53033,-0.53033 v -2.93934 c 0,-0.2938 0.236528,-0.53033 0.53033,-0.53033 z"
       style="fill:#f1f2f2;fill-opacity:1;stroke:none" />
    <path
       style="color:#000000;font-style:normal;font-variant:normal;font-weight:normal;font-stretch:normal;font-size:medium;line-height:normal;font-family:'Bitstream Vera Sans';-inkscape-font-specification:'Bitstream Vera Sans';text-indent:0;text-align:start;text-decoration:none;text-decoration-line:none;letter-spacing:normal;word-spacing:normal;text-transform:none;writing-mode:lr-tb;direction:ltr;text-anchor:start;display:inline;overflow:visible;visibility:visible;fill:#f1f2f2;fill-opacity:1;stroke:none;stroke-width:2;marker:none;enable-background:accumulate"
       id="path41043"
       d="m 62.5,669 c -0.293087,0 -0.646731,0.036 -1,0.3125 -0.353269,0.27647 -0.53125,0.76875 -0.53125,1.125 v 12.03125 c 0,0.384 0.127689,0.81517 0.4375,1.125 0.285418,0.28544 0.709136,0.38602 1.09375,0.375 v 0.0313 h 0.09375 9.875 c 0.362847,0 0.759922,-0.12788 1.0625,-0.40625 C 73.833828,683.31538 74,682.88305 74,682.46875 V 670.375 c 0,-0.33333 -0.118934,-0.72959 -0.40625,-1 C 73.306434,669.10459 72.924851,669 72.625,669 h -1.65625 v 2 H 72 v 11 h -9.03125 v -11 h 0.96875 v -2 z" />
  </g>
  <g
     id="layer13"
     transform="translate(-60,-668)" />
  <g
     id="layer14"
     transform="translate(-60,-668)" />
  <g
     style="display:inline"
     id="layer15"
     transform="translate(-60,-668)" />
</svg>
