<?xml version="1.0" encoding="UTF-8" standalone="no"?>
<svg
   xmlns:dc="http://purl.org/dc/elements/1.1/"
   xmlns:cc="http://creativecommons.org/ns#"
   xmlns:rdf="http://www.w3.org/1999/02/22-rdf-syntax-ns#"
   xmlns:svg="http://www.w3.org/2000/svg"
   xmlns="http://www.w3.org/2000/svg"
   width="16"
   id="svg7384"
   version="1.1"
   height="16">
  <metadata
     id="metadata90">
    <rdf:RDF>
      <cc:Work
         rdf:about="">
        <dc:format>image/svg+xml</dc:format>
        <dc:type
           rdf:resource="http://purl.org/dc/dcmitype/StillImage" />
        <dc:title>Gnome Symbolic Icon Theme</dc:title>
      </cc:Work>
    </rdf:RDF>
  </metadata>
  <title
     id="title9167">Gnome Symbolic Icon Theme</title>
  <defs
     id="defs7386" />
  <g
     style="display:inline"
     id="layer9"
     transform="translate(-141.00015,-667)" />
  <g
     id="layer10"
     transform="translate(-141.00015,-667)" />
  <g
     id="layer11"
     transform="translate(-141.00015,-667)" />
  <g
     id="layer13"
     transform="translate(-141.00015,-667)" />
  <g
     id="layer14"
     transform="translate(-141.00015,-667)" />
  <g
     style="display:inline"
     id="layer15"
     transform="translate(-141.00015,-667)" />
  <g
     style="display:inline"
     id="g71291"
     transform="translate(-141.00015,-667)" />
  <g
     style="display:inline"
     id="g4953"
     transform="translate(-141.00015,-667)" />
  <g
     style="display:inline"
     id="layer12"
     transform="translate(-141.00015,-667)">
    <path
       style="color:#000000;font-style:normal;font-variant:normal;font-weight:normal;font-stretch:normal;font-size:medium;line-height:normal;font-family:Sans;-inkscape-font-specification:Sans;text-indent:0;text-align:start;text-decoration:none;text-decoration-line:none;letter-spacing:normal;word-spacing:normal;text-transform:none;writing-mode:lr-tb;direction:ltr;baseline-shift:baseline;text-anchor:start;display:inline;overflow:visible;visibility:visible;fill:#f1f2f2;fill-opacity:1;stroke:none;stroke-width:2;marker:none;enable-background:accumulate"
       id="path35770-4-9-4"
       d="m 146.5,673 c -1.92115,0 -3.5,1.57885 -3.5,3.5 0,1.92115 1.57885,3.5 3.5,3.5 h 0.5 v -2 h -0.5 c -0.84027,0 -1.5,-0.65973 -1.5,-1.5 0,-0.84027 0.65973,-1.5 1.5,-1.5 h 6.5 v -2 z" />
    <path
       style="color:#f1f2f2;font-style:normal;font-variant:normal;font-weight:normal;font-stretch:normal;font-size:medium;line-height:normal;font-family:'Bitstream Vera Sans';-inkscape-font-specification:'Bitstream Vera Sans';text-indent:0;text-align:start;text-decoration:none;text-decoration-line:none;letter-spacing:normal;word-spacing:normal;text-transform:none;writing-mode:lr-tb;direction:ltr;text-anchor:start;display:inline;overflow:visible;visibility:visible;fill:#f1f2f2;fill-opacity:1;stroke:none;stroke-width:2;marker:none;enable-background:accumulate"
       id="rect3217-6-2-2-4-85"
       d="m 150.0002,670 v 1 c 0,0.25689 0.12983,0.52846 0.3125,0.71875 l 2.28125,2.28125 -2.28125,2.28125 c -0.18267,0.19029 -0.3125,0.46186 -0.3125,0.71875 v 1 h 1 c 0.30945,0 0.55232,-0.0903 0.75,-0.28125 L 155.40645,674 151.7502,670.28125 C 151.55252,670.0903 151.30965,670 151.0002,670 Z" />
  </g>
</svg>
