<svg xmlns="http://www.w3.org/2000/svg" version="1.1" viewBox="0 0 16 16"><title>Gnome Symbolic Icon Theme</title><g transform="translate(-183.02 -175.09)"><path d="m186.37 175.09c-1.8608 0-3.3438 1.483-3.3438 3.3438v5.3125c0 1.8608 1.483 3.3438 3.3438 3.3438h5.6562v4l3-4h0.65625c1.8608 0 3.3438-1.483 3.3438-3.3438v-5.3125c0-1.8608-1.483-3.3438-3.3438-3.3438zm4.6562 2c2.2091 0 4 1.7909 4 4s-1.7909 4-4 4-4-1.7909-4-4 1.7909-4 4-4zm-1.5 1.3594c-0.27593 0-0.5 0.31625-0.5 0.6875v0.65625c0 0.37126 0.22407 0.65625 0.5 0.65625 0.27592 0 0.5-0.28499 0.5-0.65625v-0.65625c0-0.37125-0.22408-0.6875-0.5-0.6875zm3 0c-0.27593 0-0.5 0.31625-0.5 0.6875v0.65625c0 0.37126 0.22499 0.65625 0.5 0.65625s0.5-0.28499 0.5-0.65625v-0.65625c0-0.37125-0.22408-0.6875-0.5-0.6875zm-4.5 2.1987v0.81694c0 0.36063 0.64206 1.625 2.9688 1.625 2.4953 0 3.0312-1.1638 3.0312-1.625v-0.77275c-0.48 0.79-1.08 1.3-3.04 1.3-2.0111 0-2.5399-0.62591-2.9688-1.3536z" fill="#f1f2f2"/></g></svg>
