<?xml version="1.0" encoding="UTF-8" standalone="no"?>
<svg
   xmlns:dc="http://purl.org/dc/elements/1.1/"
   xmlns:cc="http://creativecommons.org/ns#"
   xmlns:rdf="http://www.w3.org/1999/02/22-rdf-syntax-ns#"
   xmlns:svg="http://www.w3.org/2000/svg"
   xmlns="http://www.w3.org/2000/svg"
   width="16"
   version="1.1"
   id="svg7384"
   height="16">
  <metadata
     id="metadata90">
    <rdf:RDF>
      <cc:Work
         rdf:about="">
        <dc:format>image/svg+xml</dc:format>
        <dc:type
           rdf:resource="http://purl.org/dc/dcmitype/StillImage" />
        <dc:title>Gnome Symbolic Icon Theme</dc:title>
      </cc:Work>
    </rdf:RDF>
  </metadata>
  <title
     id="title9167">Gnome Symbolic Icon Theme</title>
  <defs
     id="defs7386" />
  <g
     transform="translate(-561,-518.99998)"
     style="display:inline"
     id="layer9" />
  <g
     transform="translate(-561,-518.99998)"
     id="layer10" />
  <g
     transform="translate(-561,-518.99998)"
     id="layer11" />
  <g
     transform="translate(-561,-518.99998)"
     id="layer13" />
  <g
     transform="translate(-561,-518.99998)"
     id="layer14" />
  <g
     transform="translate(-561,-518.99998)"
     style="display:inline"
     id="layer15" />
  <g
     transform="translate(-561,-518.99998)"
     style="display:inline"
     id="g71291">
    <path
       style="fill:#f1f2f2;fill-opacity:1;stroke:none"
       id="path4734"
       d="m 569.0002,520 c -3.86599,0 -7,3.13401 -7,7 0,3.86599 3.13401,7 7,7 3.86599,0 7,-3.13401 7,-7 0,-3.86599 -3.13401,-7 -7,-7 z m -2,4 c 0.55833,0 1.03125,0.47292 1.03125,1.03125 V 526 c 0,0.55833 -0.47292,1 -1.03125,1 -0.55833,0 -1,-0.44167 -1,-1 v -0.96875 c 0,-0.55833 0.44167,-1.03125 1,-1.03125 z m 3.4375,1 h 0.90625 c 0.5224,0 0.96875,0.21617 0.96875,0.5 0,0.28382 -0.44635,0.5 -0.96875,0.5 h -0.90625 c -0.52241,0 -0.9375,-0.21618 -0.9375,-0.5 0,-0.28383 0.41509,-0.5 0.9375,-0.5 z m -6.4375,3.0625 c 0.71531,1.0744 2.23523,1.9375 5,1.9375 2.45227,0 4.21082,-0.75041 5,-1.9375 v 0.5 c 0,0.68098 -0.8379,2.40625 -5,2.40625 -3.88085,0 -5,-1.87374 -5,-2.40625 z" />
  </g>
  <g
     transform="translate(-561,-518.99998)"
     style="display:inline"
     id="g4953" />
  <g
     transform="translate(-561,-518.99998)"
     style="display:inline"
     id="layer12" />
</svg>
