<?xml version="1.0" encoding="UTF-8" standalone="no"?>
<svg
   xmlns:dc="http://purl.org/dc/elements/1.1/"
   xmlns:cc="http://creativecommons.org/ns#"
   xmlns:rdf="http://www.w3.org/1999/02/22-rdf-syntax-ns#"
   xmlns:svg="http://www.w3.org/2000/svg"
   xmlns="http://www.w3.org/2000/svg"
   width="16"
   version="1.1"
   id="svg7384"
   height="16">
  <metadata
     id="metadata90">
    <rdf:RDF>
      <cc:Work
         rdf:about="">
        <dc:format>image/svg+xml</dc:format>
        <dc:type
           rdf:resource="http://purl.org/dc/dcmitype/StillImage" />
        <dc:title>Gnome Symbolic Icon Theme</dc:title>
      </cc:Work>
    </rdf:RDF>
  </metadata>
  <title
     id="title9167">Gnome Symbolic Icon Theme</title>
  <defs
     id="defs7386" />
  <g
     transform="translate(-601.00018,-539)"
     style="display:inline"
     id="layer9" />
  <g
     transform="translate(-601.00018,-539)"
     id="layer10" />
  <g
     transform="translate(-601.00018,-539)"
     id="layer11" />
  <g
     transform="translate(-601.00018,-539)"
     id="layer13" />
  <g
     transform="translate(-601.00018,-539)"
     id="layer14" />
  <g
     transform="translate(-601.00018,-539)"
     style="display:inline"
     id="layer15" />
  <g
     transform="translate(-601.00018,-539)"
     style="display:inline"
     id="g71291">
    <path
       style="fill:#f1f2f2;fill-opacity:1;stroke:none"
       id="path6411"
       d="m 609.00018,540 c -3.86599,0 -7,3.13401 -7,7 0,3.86599 3.13401,7 7,7 3.86599,0 7,-3.13401 7,-7 0,-3.86599 -3.13401,-7 -7,-7 z m -1.375,5.75 c 0.18146,-0.0534 0.34945,0.0626 0.375,0.25 0.0256,0.18743 -0.0998,0.3841 -0.28125,0.4375 l -2.78125,0.8125 c -0.18146,0.0534 -0.34945,-0.0313 -0.375,-0.21875 -0.0256,-0.18743 0.0998,-0.3841 0.28125,-0.4375 z m 2.625,0 c 0.0415,-0.006 0.0796,-0.0134 0.125,0 l 2.78125,0.84375 c 0.18146,0.0534 0.3068,0.25007 0.28125,0.4375 -0.0256,0.18743 -0.19354,0.27215 -0.375,0.21875 l -2.78125,-0.8125 c -0.18146,-0.0534 -0.3068,-0.25007 -0.28125,-0.4375 0.0192,-0.14057 0.12537,-0.2334 0.25,-0.25 z m -4.84375,3.25 h 7.1875 c 0.2216,0 0.40625,0.223 0.40625,0.5 0,0.277 -0.18465,0.5 -0.40625,0.5 h -7.1875 c -0.2216,0 -0.40625,-0.223 -0.40625,-0.5 0,-0.277 0.18465,-0.5 0.40625,-0.5 z" />
  </g>
  <g
     transform="translate(-601.00018,-539)"
     style="display:inline"
     id="g4953" />
  <g
     transform="translate(-601.00018,-539)"
     style="display:inline"
     id="layer12" />
</svg>
