<?xml version="1.0" encoding="UTF-8" standalone="no"?>
<svg
   xmlns:dc="http://purl.org/dc/elements/1.1/"
   xmlns:cc="http://creativecommons.org/ns#"
   xmlns:rdf="http://www.w3.org/1999/02/22-rdf-syntax-ns#"
   xmlns:svg="http://www.w3.org/2000/svg"
   xmlns="http://www.w3.org/2000/svg"
   width="16"
   height="16"
   version="1.1"
   id="svg7384">
  <metadata
     id="metadata90">
    <rdf:RDF>
      <cc:Work
         rdf:about="">
        <dc:format>image/svg+xml</dc:format>
        <dc:type
           rdf:resource="http://purl.org/dc/dcmitype/StillImage" />
        <dc:title>Gnome Symbolic Icon Theme</dc:title>
      </cc:Work>
    </rdf:RDF>
  </metadata>
  <title
     id="title9167">Gnome Symbolic Icon Theme</title>
  <defs
     id="defs7386" />
  <g
     style="display:inline"
     id="layer9"
     transform="translate(-441.0002,-519)" />
  <g
     id="layer10"
     transform="translate(-441.0002,-519)" />
  <g
     id="layer11"
     transform="translate(-441.0002,-519)" />
  <g
     id="layer13"
     transform="translate(-441.0002,-519)" />
  <g
     id="layer14"
     transform="translate(-441.0002,-519)" />
  <g
     style="display:inline"
     id="layer15"
     transform="translate(-441.0002,-519)" />
  <g
     style="display:inline"
     id="g71291"
     transform="translate(-441.0002,-519)">
    <path
       style="fill:#f1f2f2;fill-opacity:1;stroke:none"
       id="path86756"
       d="m 443.1877,523.09375 c -0.75477,1.11721 -1.1875,2.4565 -1.1875,3.90625 0,3.86599 3.13401,7 7,7 3.86599,0 7,-3.13401 7,-7 0,-1.44975 -0.43273,-2.78904 -1.1875,-3.90625 -0.19893,0.13572 -0.42444,0.25079 -0.625,0.34375 -0.85019,0.39407 -1.8545,0.5625 -2.9375,0.5625 h -4.5 c -1.083,0 -2.08731,-0.16843 -2.9375,-0.5625 -0.20056,-0.093 -0.42607,-0.20803 -0.625,-0.34375 z M 447.0002,525 c 0.55833,0 1.03125,0.47292 1.03125,1.03125 V 527 c 0,0.55833 -0.47292,1 -1.03125,1 -0.55833,0 -1,-0.44167 -1,-1 v -0.96875 c 0,-0.55833 0.44167,-1.03125 1,-1.03125 z m 4,0 c 0.55833,0 1,0.47292 1,1.03125 V 527 c 0,0.55833 -0.44167,1 -1,1 -0.55833,0 -1,-0.44167 -1,-1 v -0.96875 c 0,-0.55833 0.44167,-1.03125 1,-1.03125 z m -7,3.0625 c 0.71531,1.0744 2.23523,1.9375 5,1.9375 2.45227,0 4.21082,-0.75041 5,-1.9375 v 0.5 c 0,0.68098 -0.8379,2.40625 -5,2.40625 -3.88085,0 -5,-1.87374 -5,-2.40625 z" />
    <path
       style="color:#000000;font-style:normal;font-variant:normal;font-weight:normal;font-stretch:normal;font-size:medium;line-height:normal;font-family:Sans;-inkscape-font-specification:Sans;text-indent:0;text-align:start;text-decoration:none;text-decoration-line:none;letter-spacing:normal;word-spacing:normal;text-transform:none;writing-mode:lr-tb;direction:ltr;baseline-shift:baseline;text-anchor:start;display:inline;overflow:visible;visibility:visible;fill:#f1f2f2;fill-opacity:1;stroke:none;stroke-width:1;marker:none;enable-background:accumulate"
       id="rect86760"
       d="m 446.75,519 c -0.95862,0 -1.82664,0.18789 -2.5,0.5 -0.67336,0.31211 -1.25,0.79502 -1.25,1.5 0,0.70498 0.57664,1.18789 1.25,1.5 0.67336,0.31211 1.54138,0.5 2.5,0.5 h 4.5 c 0.95862,0 1.82664,-0.18789 2.5,-0.5 0.67336,-0.31211 1.25,-0.79502 1.25,-1.5 0,-0.70498 -0.57664,-1.18789 -1.25,-1.5 -0.67336,-0.31211 -1.54138,-0.5 -2.5,-0.5 z m 0,1 h 4.5 c 0.83424,0 1.59722,0.17611 2.09375,0.40625 C 453.84028,520.63639 454,520.87398 454,521 c 0,0.12602 -0.15972,0.36361 -0.65625,0.59375 C 452.84722,521.82389 452.08424,522 451.25,522 h -4.5 c -0.83424,0 -1.59722,-0.17611 -2.09375,-0.40625 C 444.15972,521.36361 444,521.12602 444,521 c 0,-0.12602 0.15972,-0.36361 0.65625,-0.59375 C 445.15278,520.17611 445.91576,520 446.75,520 Z" />
  </g>
  <g
     style="display:inline"
     id="g4953"
     transform="translate(-441.0002,-519)" />
  <g
     style="display:inline"
     id="layer12"
     transform="translate(-441.0002,-519)" />
</svg>
