<?xml version="1.0" encoding="UTF-8" standalone="no"?>
<svg
   xmlns:dc="http://purl.org/dc/elements/1.1/"
   xmlns:cc="http://creativecommons.org/ns#"
   xmlns:rdf="http://www.w3.org/1999/02/22-rdf-syntax-ns#"
   xmlns:svg="http://www.w3.org/2000/svg"
   xmlns="http://www.w3.org/2000/svg"
   width="16"
   version="1.1"
   id="svg7384"
   height="16">
  <metadata
     id="metadata90">
    <rdf:RDF>
      <cc:Work
         rdf:about="">
        <dc:format>image/svg+xml</dc:format>
        <dc:type
           rdf:resource="http://purl.org/dc/dcmitype/StillImage" />
        <dc:title>Gnome Symbolic Icon Theme</dc:title>
      </cc:Work>
    </rdf:RDF>
  </metadata>
  <title
     id="title9167">Gnome Symbolic Icon Theme</title>
  <defs
     id="defs7386" />
  <g
     transform="translate(-662.00018,-519)"
     style="display:inline"
     id="layer9" />
  <g
     transform="translate(-662.00018,-519)"
     id="layer10" />
  <g
     transform="translate(-662.00018,-519)"
     id="layer11" />
  <g
     transform="translate(-662.00018,-519)"
     id="layer13" />
  <g
     transform="translate(-662.00018,-519)"
     id="layer14" />
  <g
     transform="translate(-662.00018,-519)"
     style="display:inline"
     id="layer15" />
  <g
     transform="translate(-662.00018,-519)"
     style="display:inline"
     id="g71291">
    <path
       style="display:inline;overflow:visible;fill:#f1f2f2;fill-opacity:1;stroke:none"
       id="path7113"
       d="m 670.0002,520 c -3.86599,0 -7,3.13401 -7,7 0,3.86599 3.13401,7 7,7 3.86599,0 7,-3.13401 7,-7 0,-3.86599 -3.13401,-7 -7,-7 z m -3.6875,3.6875 c 0.0418,0.003 0.0839,0.007 0.125,0.0312 l 1.125,0.65625 1.15625,-0.65625 c 0.16541,-0.0917 0.34038,-0.0211 0.40625,0.15625 0.0659,0.17731 -0.0221,0.40825 -0.1875,0.5 l -0.71875,0.40625 0.71875,0.40625 c 0.16421,0.0939 0.22441,0.29229 0.15625,0.46875 -0.0683,0.17645 -0.24204,0.21885 -0.40625,0.125 l -1.125,-0.625 -1.15625,0.625 c -0.16541,0.0918 -0.34036,0.0523 -0.40625,-0.125 -0.0659,-0.17731 0.0221,-0.40825 0.1875,-0.5 l 0.6875,-0.40625 -0.6875,-0.375 c -0.16421,-0.0939 -0.25566,-0.32355 -0.1875,-0.5 0.0512,-0.13233 0.1874,-0.20014 0.3125,-0.1875 z m 5.15625,0 c 0.0418,0.003 0.0839,0.007 0.125,0.0312 l 1.125,0.65625 1.15625,-0.65625 c 0.16541,-0.0917 0.34038,-0.0211 0.40625,0.15625 0.0659,0.17731 -0.0221,0.40825 -0.1875,0.5 l -0.71875,0.40625 0.71875,0.40625 c 0.16421,0.0939 0.25566,0.29229 0.1875,0.46875 -0.0683,0.17645 -0.27329,0.21885 -0.4375,0.125 l -1.125,-0.65625 -1.15625,0.65625 c -0.16541,0.0918 -0.34036,0.0523 -0.40625,-0.125 -0.0659,-0.17731 0.0221,-0.40825 0.1875,-0.5 l 0.71875,-0.40625 -0.71875,-0.40625 c -0.16421,-0.0939 -0.25566,-0.2923 -0.1875,-0.46875 0.0512,-0.13233 0.1874,-0.20014 0.3125,-0.1875 z m -4.34375,4.34375 c 0.60381,-0.0539 1.26781,0.0911 1.875,0.53125 0.34921,0.22009 0.41248,0.27376 1,0.34375 0.15925,0.0555 0.60706,-0.041 1,-0.34375 0.28067,-0.20469 0.56128,-0.29566 0.84375,-0.375 1.30927,-0.36774 2.57407,0.4362 3.15625,1.25 v 0.5 c -0.51128,-0.28582 -1.06053,-0.59799 -1.625,-0.78125 l 0.46875,0.9375 c 0.32788,0.64742 0.13224,1.39897 -0.4375,1.6875 -0.56975,0.28853 -1.29712,-0.009 -1.625,-0.65625 l -0.59375,-1.15625 c -0.051,-0.1008 -0.0675,-0.20871 -0.0937,-0.3125 -0.0265,0.0104 -0.0709,0.0278 -0.0937,0.0312 -0.54153,0.31352 -1.55932,0.19637 -2,0 -0.91691,-0.43721 -0.90913,-0.66739 -1.53125,-0.6875 -0.85242,0.0189 -1.84336,0.39879 -2.46875,0.9375 v -0.5 c 0.26351,-0.67866 1.11865,-1.3165 2.125,-1.40625 z" />
  </g>
  <g
     transform="translate(-662.00018,-519)"
     style="display:inline"
     id="g4953" />
  <g
     transform="translate(-662.00018,-519)"
     style="display:inline"
     id="layer12" />
</svg>
