<?xml version="1.0" encoding="UTF-8" standalone="no"?>
<svg
   xmlns:dc="http://purl.org/dc/elements/1.1/"
   xmlns:cc="http://creativecommons.org/ns#"
   xmlns:rdf="http://www.w3.org/1999/02/22-rdf-syntax-ns#"
   xmlns:svg="http://www.w3.org/2000/svg"
   xmlns="http://www.w3.org/2000/svg"
   width="16"
   height="16"
   version="1.1"
   id="svg7384">
  <metadata
     id="metadata90">
    <rdf:RDF>
      <cc:Work
         rdf:about="">
        <dc:format>image/svg+xml</dc:format>
        <dc:type
           rdf:resource="http://purl.org/dc/dcmitype/StillImage" />
        <dc:title>Gnome Symbolic Icon Theme</dc:title>
      </cc:Work>
    </rdf:RDF>
  </metadata>
  <title
     id="title9167">Gnome Symbolic Icon Theme</title>
  <defs
     id="defs7386" />
  <g
     style="display:inline"
     id="layer9"
     transform="translate(-441.0002,-519)" />
  <g
     id="layer10"
     transform="translate(-441.0002,-519)" />
  <g
     id="layer11"
     transform="translate(-441.0002,-519)" />
  <g
     id="layer13"
     transform="translate(-441.0002,-519)" />
  <g
     id="layer14"
     transform="translate(-441.0002,-519)" />
  <g
     style="display:inline"
     id="layer15"
     transform="translate(-441.0002,-519)" />
  <g
     style="display:inline"
     id="g71291"
     transform="translate(-441.0002,-519)">
    <path
       style="fill:#f1f2f2;fill-opacity:1;stroke:none"
       id="path5253"
       d="m 449.0004,520.00002 c -3.86599,0 -7,3.13401 -7,7 0,3.86599 3.13401,7 7,7 3.86599,0 7,-3.13401 7,-7 0,-3.86599 -3.13401,-7 -7,-7 z m -2,4 c 0.55833,0 1.03125,0.47292 1.03125,1.03125 v 0.96875 c 0,0.55833 -0.47292,1 -1.03125,1 -0.55833,0 -1,-0.44167 -1,-1 v -0.96875 c 0,-0.55833 0.44167,-1.03125 1,-1.03125 z m 4,0 c 0.55833,0 1,0.47292 1,1.03125 v 0.96875 c 0,0.55833 -0.44167,1 -1,1 -0.55833,0 -1,-0.44167 -1,-1 v -0.96875 c 0,-0.55833 0.44167,-1.03125 1,-1.03125 z m -7,4.06981 c 0.99656,0.6369 4.01648,0.91724 5,0.91724 0.98352,0 3.80457,0.0511 5,-0.91724 v 0.5 c 0,0.68098 -1.74415,1.4043 -5,1.4043 -3.25585,0 -5,-0.87179 -5,-1.4043 z" />
  </g>
  <g
     style="display:inline"
     id="g4953"
     transform="translate(-441.0002,-519)" />
  <g
     style="display:inline"
     id="layer12"
     transform="translate(-441.0002,-519)" />
</svg>
