<?xml version="1.0" encoding="UTF-8" standalone="no"?>
<svg
   xmlns:dc="http://purl.org/dc/elements/1.1/"
   xmlns:cc="http://creativecommons.org/ns#"
   xmlns:rdf="http://www.w3.org/1999/02/22-rdf-syntax-ns#"
   xmlns:svg="http://www.w3.org/2000/svg"
   xmlns="http://www.w3.org/2000/svg"
   width="16"
   version="1.1"
   id="svg7384"
   height="16">
  <metadata
     id="metadata90">
    <rdf:RDF>
      <cc:Work
         rdf:about="">
        <dc:format>image/svg+xml</dc:format>
        <dc:type
           rdf:resource="http://purl.org/dc/dcmitype/StillImage" />
        <dc:title>Gnome Symbolic Icon Theme</dc:title>
      </cc:Work>
    </rdf:RDF>
  </metadata>
  <title
     id="title9167">Gnome Symbolic Icon Theme</title>
  <defs
     id="defs7386" />
  <g
     transform="translate(-581.00018,-539)"
     style="display:inline"
     id="layer9" />
  <g
     transform="translate(-581.00018,-539)"
     id="layer10" />
  <g
     transform="translate(-581.00018,-539)"
     id="layer11" />
  <g
     transform="translate(-581.00018,-539)"
     id="layer13" />
  <g
     transform="translate(-581.00018,-539)"
     id="layer14" />
  <g
     transform="translate(-581.00018,-539)"
     style="display:inline"
     id="layer15" />
  <g
     transform="translate(-581.00018,-539)"
     style="display:inline"
     id="g71291">
    <path
       style="fill:#f1f2f2;fill-opacity:1;stroke:none"
       id="path6188"
       d="m 589.00018,540 c -3.86599,0 -7,3.13401 -7,7 0,3.86599 3.13401,7 7,7 3.86599,0 7,-3.13401 7,-7 0,-3.86599 -3.13401,-7 -7,-7 z m -2,4 c 0.55833,0 1.03125,0.47292 1.03125,1.03125 V 546 c 0,0.55833 -0.47292,1 -1.03125,1 -0.55833,0 -1,-0.44167 -1,-1 v -0.96875 c 0,-0.55833 0.44167,-1.03125 1,-1.03125 z m 4,0 c 0.55833,0 1,0.47292 1,1.03125 V 546 c 0,0.55833 -0.44167,1 -1,1 -0.55833,0 -1,-0.44167 -1,-1 v -0.96875 c 0,-0.55833 0.44167,-1.03125 1,-1.03125 z m -7,4.0625 c 0.99656,0.6369 4.01648,0.9375 5,0.9375 0.49176,0 1.42862,0.0145 2.40625,-0.0937 0.97763,-0.10827 1.99604,-0.35958 2.59375,-0.84375 v 0.5 c 0,0.44149 -0.75339,0.91906 -2.15625,1.1875 l 0.25,0.53125 c 0.27902,0.60331 0.0833,1.27559 -0.4375,1.53125 l -0.25,0.125 c -0.52084,0.25561 -1.17494,-0.0293 -1.46875,-0.625 l -0.625,-1.28125 c -0.0171,-0.0347 -0.0191,-0.0351 -0.0312,-0.0625 -0.0961,10e-4 -0.18233,0 -0.28125,0 -3.25585,0 -5,-0.87374 -5,-1.40625 v -0.5 z" />
  </g>
  <g
     transform="translate(-581.00018,-539)"
     style="display:inline"
     id="g4953" />
  <g
     transform="translate(-581.00018,-539)"
     style="display:inline"
     id="layer12" />
</svg>
