<?xml version="1.0" encoding="UTF-8" standalone="no"?>
<svg
   xmlns:dc="http://purl.org/dc/elements/1.1/"
   xmlns:cc="http://creativecommons.org/ns#"
   xmlns:rdf="http://www.w3.org/1999/02/22-rdf-syntax-ns#"
   xmlns:svg="http://www.w3.org/2000/svg"
   xmlns="http://www.w3.org/2000/svg"
   width="16"
   height="16"
   version="1.1"
   id="svg7384">
  <metadata
     id="metadata90">
    <rdf:RDF>
      <cc:Work
         rdf:about="">
        <dc:format>image/svg+xml</dc:format>
        <dc:type
           rdf:resource="http://purl.org/dc/dcmitype/StillImage" />
        <dc:title>Gnome Symbolic Icon Theme</dc:title>
      </cc:Work>
    </rdf:RDF>
  </metadata>
  <title
     id="title9167">Gnome Symbolic Icon Theme</title>
  <defs
     id="defs7386" />
  <g
     style="display:inline"
     id="layer9"
     transform="translate(-442,-176)" />
  <g
     id="layer10"
     transform="translate(-442,-176)" />
  <g
     id="layer11"
     transform="translate(-442,-176)" />
  <g
     id="layer12"
     transform="translate(-442,-176)" />
  <g
     id="layer13"
     transform="translate(-442,-176)">
    <g
       id="g14154"
       transform="translate(234.0002,-820)">
      <path
         style="display:inline;fill:#f1f2f2;fill-opacity:1;stroke:none"
         id="rect3845"
         d="m 208.53105,997 c -0.28913,0 -0.53125,0.24212 -0.53125,0.53125 v 13.93755 c 0,0.2985 0.23264,0.5312 0.53125,0.5312 h 14.9375 c 0.2986,0 0.53125,-0.2326 0.53125,-0.5312 v -8.9376 c 0,-0.2891 -0.24212,-0.5312 -0.53125,-0.5312 H 210.9998 v 7.5 c 0,0.277 -0.223,0.5 -0.5,0.5 -0.277,0 -0.5,-0.223 -0.5,-0.5 v -8 c 0,-0.277 0.223,-0.5 0.5,-0.5 h 2.96875 8.53125 v -1.4062 c 0,-0.3272 -0.26666,-0.5938 -0.59375,-0.5938 h -7.40625 v -1.46875 C 213.9998,997.2421 213.75768,997 213.46855,997 Z" />
    </g>
  </g>
  <g
     id="layer14"
     transform="translate(-442,-176)" />
  <g
     style="display:inline"
     id="layer15"
     transform="translate(-442,-176)" />
</svg>
