<?xml version="1.0" encoding="UTF-8" standalone="no"?>
<svg
   xmlns:dc="http://purl.org/dc/elements/1.1/"
   xmlns:cc="http://creativecommons.org/ns#"
   xmlns:rdf="http://www.w3.org/1999/02/22-rdf-syntax-ns#"
   xmlns:svg="http://www.w3.org/2000/svg"
   xmlns="http://www.w3.org/2000/svg"
   width="16.000002"
   height="16"
   version="1.1"
   id="svg7384">
  <metadata
     id="metadata90">
    <rdf:RDF>
      <cc:Work
         rdf:about="">
        <dc:format>image/svg+xml</dc:format>
        <dc:type
           rdf:resource="http://purl.org/dc/dcmitype/StillImage" />
        <dc:title>Gnome Symbolic Icon Theme</dc:title>
      </cc:Work>
    </rdf:RDF>
  </metadata>
  <title
     id="title9167">Gnome Symbolic Icon Theme</title>
  <defs
     id="defs7386" />
  <g
     style="display:inline"
     id="layer9"
     transform="translate(-462,-176)" />
  <g
     id="layer10"
     transform="translate(-462,-176)" />
  <g
     id="layer11"
     transform="translate(-462,-176)" />
  <g
     id="layer12"
     transform="translate(-462,-176)" />
  <g
     id="layer13"
     transform="translate(-462,-176)">
    <g
       id="g14176"
       transform="translate(234.0002,-820)">
      <path
         style="display:inline;fill:#f1f2f2;fill-opacity:1;stroke:none"
         id="rect3861"
         d="m 228.53105,996 c -0.28913,0 -0.53125,0.24212 -0.53125,0.53125 v 10.93755 c 0,0.2985 0.23264,0.5312 0.53125,0.5312 h 5.46875 v 2 h -5.53125 c -0.26299,0 -0.46875,0.2057 -0.46875,0.4688 v 1.0624 c 0,0.263 0.20576,0.4688 0.46875,0.4688 4.35417,0 8.70833,0 13.0625,0 0.26299,0 0.46875,-0.2058 0.46875,-0.4688 v -1.0624 c 0,-0.263 -0.20575,-0.4688 -0.46875,-0.4688 h -5.53125 v -2 h 5.46875 c 0.2986,0 0.53125,-0.2326 0.53125,-0.5312 v -5.9376 c 0,-0.2891 -0.24212,-0.5312 -0.53125,-0.5312 H 230.9998 v 4.5 c 0,0.277 -0.223,0.5 -0.5,0.5 -0.277,0 -0.5,-0.223 -0.5,-0.5 v -5 c 0,-0.277 0.223,-0.5 0.5,-0.5 h 2.96875 6.53125 v -1.40625 c 0,-0.32713 -0.26666,-0.59375 -0.59375,-0.59375 h -6.375 v -1.46875 C 233.03105,996.2421 232.78893,996 232.4998,996 Z" />
    </g>
  </g>
  <g
     id="layer14"
     transform="translate(-462,-176)" />
  <g
     style="display:inline"
     id="layer15"
     transform="translate(-462,-176)" />
</svg>
