<?xml version="1.0" encoding="UTF-8" standalone="no"?>
<svg
   xmlns:dc="http://purl.org/dc/elements/1.1/"
   xmlns:cc="http://creativecommons.org/ns#"
   xmlns:rdf="http://www.w3.org/1999/02/22-rdf-syntax-ns#"
   xmlns:svg="http://www.w3.org/2000/svg"
   xmlns="http://www.w3.org/2000/svg"
   width="16"
   version="1.1"
   id="svg7384"
   height="16">
  <metadata
     id="metadata90">
    <rdf:RDF>
      <cc:Work
         rdf:about="">
        <dc:format>image/svg+xml</dc:format>
        <dc:type
           rdf:resource="http://purl.org/dc/dcmitype/StillImage" />
        <dc:title>Gnome Symbolic Icon Theme</dc:title>
      </cc:Work>
    </rdf:RDF>
  </metadata>
  <title
     id="title9167">Gnome Symbolic Icon Theme</title>
  <defs
     id="defs7386" />
  <g
     transform="translate(-461.0002,-195)"
     style="display:inline"
     id="layer9" />
  <g
     transform="translate(-461.0002,-195)"
     id="layer10" />
  <g
     transform="translate(-461.0002,-195)"
     id="layer11" />
  <g
     transform="translate(-461.0002,-195)"
     id="layer13">
    <path
       style="color:#000000;font-style:normal;font-variant:normal;font-weight:normal;font-stretch:normal;font-size:medium;line-height:normal;font-family:Sans;-inkscape-font-specification:Sans;text-indent:0;text-align:start;text-decoration:none;text-decoration-line:none;letter-spacing:normal;word-spacing:normal;text-transform:none;writing-mode:lr-tb;direction:ltr;baseline-shift:baseline;text-anchor:start;display:inline;overflow:visible;visibility:visible;fill:#f1f2f2;fill-opacity:1;stroke:none;stroke-width:1.94454503;marker:none;enable-background:new"
       id="path5005"
       d="m 464.50433,203.01365 c -1.92115,0 -3.50339,1.5501 -3.50339,3.47125 0,1.92115 1.58224,3.50339 3.50339,3.50339 1.92115,0 3.50339,-1.58224 3.50339,-3.50339 0,-1.92115 -1.58224,-3.47125 -3.50339,-3.47125 z m 0,1.99275 c 0.84027,0 1.51064,0.63823 1.51064,1.4785 0,0.84027 -0.67037,1.51063 -1.51064,1.51063 -0.84027,0 -1.51064,-0.67036 -1.51064,-1.51063 0,-0.84027 0.67037,-1.4785 1.51064,-1.4785 z" />
    <path
       style="color:#000000;font-style:normal;font-variant:normal;font-weight:normal;font-stretch:normal;font-size:medium;line-height:normal;font-family:Sans;-inkscape-font-specification:Sans;text-indent:0;text-align:start;text-decoration:none;text-decoration-line:none;letter-spacing:normal;word-spacing:normal;text-transform:none;writing-mode:lr-tb;direction:ltr;baseline-shift:baseline;text-anchor:start;display:inline;overflow:visible;visibility:visible;fill:#f1f2f2;fill-opacity:1;stroke:none;stroke-width:1.94454503;marker:none;enable-background:new"
       id="path5007"
       d="m 472.50433,203.01365 c -1.92115,0 -3.50339,1.5501 -3.50339,3.47125 0,1.92115 1.58224,3.50339 3.50339,3.50339 1.92115,0 3.50339,-1.58224 3.50339,-3.50339 0,-1.92115 -1.58224,-3.47125 -3.50339,-3.47125 z m 0,1.99275 c 0.84027,0 1.51064,0.63823 1.51064,1.4785 0,0.84027 -0.67037,1.51063 -1.51064,1.51063 -0.84027,0 -1.51064,-0.67036 -1.51064,-1.51063 0,-0.84027 0.67037,-1.4785 1.51064,-1.4785 z" />
    <path
       id="rect5009"
       d="m 466.0004,197.00002 h 2.00002 v 9.51572 h -2.00002 z"
       style="color:#000000;display:inline;overflow:visible;visibility:visible;fill:#f1f2f2;fill-opacity:1;fill-rule:nonzero;stroke:none;stroke-width:1.50793636;marker:none;enable-background:new" />
    <path
       id="rect5011"
       d="m 474.0004,197.00002 h 2.00004 v 9.56269 h -2.00004 z"
       style="color:#000000;display:inline;overflow:visible;visibility:visible;fill:#f1f2f2;fill-opacity:1;fill-rule:nonzero;stroke:none;stroke-width:1.50793636;marker:none;enable-background:new" />
    <path
       id="rect5013"
       d="m 466.0004,197.00002 h 10.00001 v 2 H 466.0004 Z"
       style="color:#000000;display:inline;overflow:visible;visibility:visible;fill:#f1f2f2;fill-opacity:1;fill-rule:nonzero;stroke:none;stroke-width:1.50793636;marker:none;enable-background:new" />
  </g>
  <g
     transform="translate(-461.0002,-195)"
     id="layer14" />
  <g
     transform="translate(-461.0002,-195)"
     style="display:inline"
     id="layer15" />
  <g
     transform="translate(-461.0002,-195)"
     style="display:inline"
     id="g71291" />
  <g
     transform="translate(-461.0002,-195)"
     style="display:inline"
     id="g4953" />
  <g
     transform="translate(-461.0002,-195)"
     style="display:inline"
     id="layer12" />
</svg>
