<?xml version="1.0" encoding="UTF-8" standalone="no"?>
<svg
   xmlns:osb="http://www.openswatchbook.org/uri/2009/osb"
   xmlns:dc="http://purl.org/dc/elements/1.1/"
   xmlns:cc="http://creativecommons.org/ns#"
   xmlns:rdf="http://www.w3.org/1999/02/22-rdf-syntax-ns#"
   xmlns:svg="http://www.w3.org/2000/svg"
   xmlns="http://www.w3.org/2000/svg"
   width="16.000002"
   version="1.1"
   id="svg7384"
   height="16">
  <metadata
     id="metadata90">
    <rdf:RDF>
      <cc:Work
         rdf:about="">
        <dc:format>image/svg+xml</dc:format>
        <dc:type
           rdf:resource="http://purl.org/dc/dcmitype/StillImage" />
        <dc:title>Gnome Symbolic Icon Theme</dc:title>
      </cc:Work>
    </rdf:RDF>
  </metadata>
  <title
     id="title9167">Gnome Symbolic Icon Theme</title>
  <defs
     id="defs7386">
    <linearGradient
       osb:paint="solid"
       id="linearGradient19282"
       gradientTransform="matrix(-2.7365795,0.28202934,-0.18908311,-0.99988321,239.54008,-879.45557)">
      <stop
         style="stop-color:#666666;stop-opacity:1;"
         offset="0"
         id="stop19284" />
    </linearGradient>
  </defs>
  <g
     transform="translate(-301.0002,-727)"
     style="display:inline"
     id="layer9" />
  <g
     transform="translate(-301.0002,-727)"
     style="display:inline"
     id="layer10" />
  <g
     transform="translate(-301.0002,-727)"
     id="layer11" />
  <g
     transform="translate(-301.0002,-727)"
     style="display:inline"
     id="layer13" />
  <g
     transform="translate(-301.0002,-727)"
     id="layer14" />
  <g
     transform="translate(-301.0002,-727)"
     style="display:inline"
     id="layer15" />
  <g
     transform="translate(-301.0002,-727)"
     style="display:inline"
     id="g71291" />
  <g
     transform="translate(-301.0002,-727)"
     style="display:inline"
     id="g4953" />
  <g
     transform="translate(-301.0002,-727)"
     style="display:inline"
     id="layer12">
    <path
       style="color:#000000;font-style:normal;font-variant:normal;font-weight:normal;font-stretch:normal;font-size:medium;line-height:normal;font-family:sans-serif;text-indent:0;text-align:start;text-decoration:none;text-decoration-line:none;text-decoration-style:solid;text-decoration-color:#000000;letter-spacing:normal;word-spacing:normal;text-transform:none;writing-mode:lr-tb;direction:ltr;baseline-shift:baseline;text-anchor:start;white-space:normal;clip-rule:nonzero;display:inline;overflow:visible;visibility:visible;opacity:1;isolation:auto;mix-blend-mode:normal;color-interpolation:sRGB;color-interpolation-filters:linearRGB;solid-color:#000000;solid-opacity:1;fill:#f1f2f2;fill-opacity:1;fill-rule:nonzero;stroke:none;stroke-width:2;stroke-linecap:round;stroke-linejoin:round;stroke-miterlimit:4;stroke-dasharray:none;stroke-dashoffset:0;stroke-opacity:1;color-rendering:auto;image-rendering:auto;shape-rendering:auto;text-rendering:auto;enable-background:accumulate"
       id="path7303"
       d="m 302.53143,728 c -0.84739,0 -1.53123,0.68385 -1.53123,1.53125 v 10.9375 c 0,0.81808 0.71311,1.53125 1.53123,1.53125 h 6.46867 a 1.0000875,1.0001 0 1 0 0,-2 h -5.99992 v -10 h 3.99995 v 1 a 1.0000875,1.0001 0 0 0 0.99998,1 h 6.99991 v 2 A 1.0000875,1.0001 0 1 0 317,734 v -2.40625 C 317,730.72323 316.27673,730 315.40627,730 h -6.40617 v -0.46875 c 0,-0.84738 -0.68389,-1.53125 -1.53123,-1.53125 z" />
    <path
       style="display:inline;fill:#669900;fill-opacity:1;stroke:none"
       id="path7307"
       d="m 313.0002,736.0098 v 1.9968 h -2 v 1.9967 h 2 V 742 h 2 v -1.9967 h 2 v -1.9967 h -2 v -1.9968 z" />
  </g>
</svg>
