<?xml version="1.0" encoding="UTF-8" standalone="no"?>
<svg
   xmlns:osb="http://www.openswatchbook.org/uri/2009/osb"
   xmlns:dc="http://purl.org/dc/elements/1.1/"
   xmlns:cc="http://creativecommons.org/ns#"
   xmlns:rdf="http://www.w3.org/1999/02/22-rdf-syntax-ns#"
   xmlns:svg="http://www.w3.org/2000/svg"
   xmlns="http://www.w3.org/2000/svg"
   width="16"
   version="1.1"
   id="svg7384"
   height="16">
  <metadata
     id="metadata90">
    <rdf:RDF>
      <cc:Work
         rdf:about="">
        <dc:format>image/svg+xml</dc:format>
        <dc:type
           rdf:resource="http://purl.org/dc/dcmitype/StillImage" />
        <dc:title>Gnome Symbolic Icon Theme</dc:title>
      </cc:Work>
    </rdf:RDF>
  </metadata>
  <title
     id="title9167">Gnome Symbolic Icon Theme</title>
  <defs
     id="defs7386">
    <linearGradient
       osb:paint="solid"
       id="linearGradient19282"
       gradientTransform="matrix(-2.7365795,0.28202934,-0.18908311,-0.99988321,239.54008,-879.45557)">
      <stop
         style="stop-color:#666666;stop-opacity:1;"
         offset="0"
         id="stop19284" />
    </linearGradient>
  </defs>
  <g
     transform="translate(-521.0002,-195)"
     style="display:inline"
     id="layer9" />
  <g
     transform="translate(-521.0002,-195)"
     style="display:inline"
     id="layer10" />
  <g
     transform="translate(-521.0002,-195)"
     id="layer11" />
  <g
     transform="translate(-521.0002,-195)"
     style="display:inline"
     id="layer13">
    <path
       style="color:#f1f2f2;font-style:normal;font-variant:normal;font-weight:normal;font-stretch:normal;font-size:medium;line-height:normal;font-family:'Andale Mono';-inkscape-font-specification:'Andale Mono';text-indent:0;text-align:start;text-decoration:none;text-decoration-line:none;letter-spacing:normal;word-spacing:normal;text-transform:none;writing-mode:lr-tb;direction:ltr;text-anchor:start;display:inline;overflow:visible;visibility:visible;fill:#f1f2f2;fill-opacity:1;fill-rule:nonzero;stroke:none;stroke-width:1.78124988;marker:none;enable-background:new"
       id="path11142"
       d="m 523.0002,203.00315 v 1 c -1.2e-4,0.0104 -4.6e-4,0.0208 0,0.0313 0.0112,0.25495 0.12858,0.50987 0.3125,0.6875 l 5.21875,5.28125 0.96875,-0.003 5.21875,-5.27805 c 0.18819,-0.18821 0.28125,-0.45351 0.28125,-0.7188 v -1 h -1.7071 c -0.26529,0 -0.53058,0.0931 -0.71875,0.28125 l -3.55574,3.84451 -0.003,0.14062 -0.0185,-0.14062 -3.5843,-3.84451 c -0.19463,-0.21074 -0.46925,-0.30316 -0.75,-0.28125 z" />
    <path
       id="rect81861"
       d="m 528.50018,202 h 1 c 0.277,0 0.5,0.223 0.5,0.5 v 1 c 0,0.277 -0.223,0.5 -0.5,0.5 h -1 c -0.277,0 -0.5,-0.223 -0.5,-0.5 v -1 c 0,-0.277 0.223,-0.5 0.5,-0.5 z"
       style="color:#000000;display:inline;overflow:visible;visibility:visible;fill:#f1f2f2;fill-opacity:1;fill-rule:nonzero;stroke:none;stroke-width:1.29999995;marker:none;enable-background:new" />
    <path
       id="rect81863"
       d="m 528.50018,196 h 1 c 0.277,0 0.5,0.223 0.5,0.5 v 1 c 0,0.277 -0.223,0.5 -0.5,0.5 h -1 c -0.277,0 -0.5,-0.223 -0.5,-0.5 v -1 c 0,-0.277 0.223,-0.5 0.5,-0.5 z"
       style="color:#000000;clip-rule:nonzero;display:inline;overflow:visible;visibility:visible;opacity:1;isolation:auto;mix-blend-mode:normal;color-interpolation:sRGB;color-interpolation-filters:linearRGB;solid-color:#000000;solid-opacity:1;fill:#f1f2f2;fill-opacity:1;fill-rule:nonzero;stroke:none;stroke-width:1.29999995;stroke-linecap:butt;stroke-linejoin:miter;stroke-miterlimit:4;stroke-dasharray:none;stroke-dashoffset:0;stroke-opacity:1;marker:none;color-rendering:auto;image-rendering:auto;shape-rendering:auto;text-rendering:auto;enable-background:new" />
    <path
       id="rect81886"
       d="m 528.50018,199 h 1 c 0.277,0 0.5,0.2007 0.5,0.45 v 1.1 c 0,0.2493 -0.223,0.45 -0.5,0.45 h -1 c -0.277,0 -0.5,-0.2007 -0.5,-0.45 v -1.1 c 0,-0.2493 0.223,-0.45 0.5,-0.45 z"
       style="color:#000000;clip-rule:nonzero;display:inline;overflow:visible;visibility:visible;opacity:1;isolation:auto;mix-blend-mode:normal;color-interpolation:sRGB;color-interpolation-filters:linearRGB;solid-color:#000000;solid-opacity:1;fill:#f1f2f2;fill-opacity:1;fill-rule:nonzero;stroke:none;stroke-width:1.29999995;stroke-linecap:butt;stroke-linejoin:miter;stroke-miterlimit:4;stroke-dasharray:none;stroke-dashoffset:0;stroke-opacity:1;marker:none;color-rendering:auto;image-rendering:auto;shape-rendering:auto;text-rendering:auto;enable-background:new" />
  </g>
  <g
     transform="translate(-521.0002,-195)"
     id="layer14" />
  <g
     transform="translate(-521.0002,-195)"
     style="display:inline"
     id="layer15" />
  <g
     transform="translate(-521.0002,-195)"
     style="display:inline"
     id="g71291" />
  <g
     transform="translate(-521.0002,-195)"
     style="display:inline"
     id="g4953" />
  <g
     transform="translate(-521.0002,-195)"
     style="display:inline"
     id="layer12" />
</svg>
