<?xml version="1.0" encoding="UTF-8" standalone="no"?>
<svg
   xmlns:dc="http://purl.org/dc/elements/1.1/"
   xmlns:cc="http://creativecommons.org/ns#"
   xmlns:rdf="http://www.w3.org/1999/02/22-rdf-syntax-ns#"
   xmlns:svg="http://www.w3.org/2000/svg"
   xmlns="http://www.w3.org/2000/svg"
   height="16"
   id="svg7384"
   version="1.1"
   width="16">
  <metadata
     id="metadata90">
    <rdf:RDF>
      <cc:Work
         rdf:about="">
        <dc:format>image/svg+xml</dc:format>
        <dc:type
           rdf:resource="http://purl.org/dc/dcmitype/StillImage" />
        <dc:title>Gnome Symbolic Icon Theme</dc:title>
      </cc:Work>
    </rdf:RDF>
  </metadata>
  <title
     id="title9167">Gnome Symbolic Icon Theme</title>
  <defs
     id="defs7386" />
  <g
     id="layer9"
     style="display:inline"
     transform="translate(-501,-321.00012)" />
  <g
     id="layer10"
     style="display:inline"
     transform="translate(-501,-321.00012)" />
  <g
     id="layer11"
     transform="translate(-501,-321.00012)" />
  <g
     id="layer13"
     style="display:inline"
     transform="translate(-501,-321.00012)" />
  <g
     id="layer14"
     transform="translate(-501,-321.00012)">
    <path
       d="m 503.8127,322.00012 a 1.0000999,1.0000999 0 0 0 -0.8125,1 v 13 a 1.0000999,1.0000999 0 0 0 1,1 h 9.99999 a 1.0000999,1.0000999 0 0 0 1,-1 v -9.4375 a 1.0000999,1.0000999 0 0 0 -0.28125,-0.71875 l -3.56249,-3.5625 a 1.0000999,1.0000999 0 0 0 -0.71875,-0.28125 h -6.4375 a 1.0000999,1.0000999 0 0 0 -0.0937,0 1.0000999,1.0000999 0 0 0 -0.0937,0 z m 1.1875,2 h 5 v 3 h 2.99999 v 8 h -7.99999 z"
       id="path35764"
       style="color:#000000;font-style:normal;font-variant:normal;font-weight:normal;font-stretch:normal;font-size:medium;line-height:normal;font-family:Sans;-inkscape-font-specification:Sans;text-indent:0;text-align:start;text-decoration:none;text-decoration-line:none;letter-spacing:normal;word-spacing:normal;text-transform:none;writing-mode:lr-tb;direction:ltr;baseline-shift:baseline;text-anchor:start;display:inline;overflow:visible;visibility:visible;fill:#f1f2f2;fill-opacity:1;stroke:none;stroke-width:1.99999988;marker:none;enable-background:accumulate" />
  </g>
  <g
     id="layer15"
     style="display:inline"
     transform="translate(-501,-321.00012)" />
  <g
     id="g71291"
     style="display:inline"
     transform="translate(-501,-321.00012)" />
  <g
     id="g4953"
     style="display:inline"
     transform="translate(-501,-321.00012)" />
  <g
     id="layer12"
     style="display:inline"
     transform="translate(-501,-321.00012)" />
</svg>
