<?xml version="1.0" encoding="UTF-8" standalone="no"?>
<svg
   xmlns:dc="http://purl.org/dc/elements/1.1/"
   xmlns:cc="http://creativecommons.org/ns#"
   xmlns:rdf="http://www.w3.org/1999/02/22-rdf-syntax-ns#"
   xmlns:svg="http://www.w3.org/2000/svg"
   xmlns="http://www.w3.org/2000/svg"
   width="16.000002"
   version="1.1"
   id="svg7384"
   height="16">
  <metadata
     id="metadata90">
    <rdf:RDF>
      <cc:Work
         rdf:about="">
        <dc:format>image/svg+xml</dc:format>
        <dc:type
           rdf:resource="http://purl.org/dc/dcmitype/StillImage" />
        <dc:title>Gnome Symbolic Icon Theme</dc:title>
      </cc:Work>
    </rdf:RDF>
  </metadata>
  <title
     id="title9167">Gnome Symbolic Icon Theme</title>
  <defs
     id="defs7386" />
  <g
     transform="translate(-81.0002,-397)"
     style="display:inline"
     id="layer9">
    <path
       style="display:inline;fill:#f1f2f2;fill-opacity:1;stroke:none"
       id="rect3845-2"
       d="m 81.53145,398 c -0.28913,0 -0.53125,0.24212 -0.53125,0.53125 v 13.9375 c 0,0.2985 0.23264,0.53125 0.53125,0.53125 h 14.9375 c 0.2986,0 0.53125,-0.23265 0.53125,-0.53125 v -8.9375 C 97.0002,403.24215 96.75808,403 96.46895,403 H 95.0002 v -2.40625 C 95.0002,400.26655 94.73354,400 94.40645,400 H 87.0002 v -1.46875 C 87.0002,398.2421 86.75808,398 86.46895,398 Z m 2.0625,6 h 1 c 0,0 0.55232,0.0902 0.75,0.28125 L 88.0002,407 85.34395,409.71875 C 85.14627,409.90995 84.9034,410 84.59395,410 h -1 v -1 c 0,-0.2569 0.12983,-0.52845 0.3125,-0.71875 L 85.1877,407 83.90645,405.71875 C 83.72378,405.52845 83.77561,405.18166 83.59395,405 Z m 9.40625,0 h 1 v 1 c 0,0.2569 -0.12983,0.52845 -0.3125,0.71875 L 92.40645,407 l 1.28125,1.28125 c 0.18267,0.1903 0.3125,0.46185 0.3125,0.71875 v 1 h -1 c -0.30945,0 -0.55232,-0.09 -0.75,-0.28125 L 89.59395,407 92.2502,404.28125 C 92.44788,404.09025 92.69075,404 93.0002,404 Z" />
  </g>
  <g
     transform="translate(-81.0002,-397)"
     style="display:inline"
     id="layer10" />
  <g
     transform="translate(-81.0002,-397)"
     id="layer11" />
  <g
     transform="translate(-81.0002,-397)"
     style="display:inline"
     id="layer13" />
  <g
     transform="translate(-81.0002,-397)"
     id="layer14" />
  <g
     transform="translate(-81.0002,-397)"
     style="display:inline"
     id="layer15" />
  <g
     transform="translate(-81.0002,-397)"
     style="display:inline"
     id="g71291" />
  <g
     transform="translate(-81.0002,-397)"
     style="display:inline"
     id="g4953" />
  <g
     transform="translate(-81.0002,-397)"
     style="display:inline"
     id="layer12" />
</svg>
