<?xml version="1.0" encoding="UTF-8" standalone="no"?>
<svg
   xmlns:dc="http://purl.org/dc/elements/1.1/"
   xmlns:cc="http://creativecommons.org/ns#"
   xmlns:rdf="http://www.w3.org/1999/02/22-rdf-syntax-ns#"
   xmlns:svg="http://www.w3.org/2000/svg"
   xmlns="http://www.w3.org/2000/svg"
   width="16"
   version="1.1"
   id="svg7384"
   height="16">
  <metadata
     id="metadata90">
    <rdf:RDF>
      <cc:Work
         rdf:about="">
        <dc:format>image/svg+xml</dc:format>
        <dc:type
           rdf:resource="http://purl.org/dc/dcmitype/StillImage" />
        <dc:title>Gnome Symbolic Icon Theme</dc:title>
      </cc:Work>
    </rdf:RDF>
  </metadata>
  <title
     id="title9167">Gnome Symbolic Icon Theme</title>
  <defs
     id="defs7386" />
  <g
     transform="translate(-581.0002,-321)"
     style="display:inline"
     id="layer9" />
  <g
     transform="translate(-581.0002,-321)"
     style="display:inline"
     id="layer10" />
  <g
     transform="translate(-581.0002,-321)"
     id="layer11" />
  <g
     transform="translate(-581.0002,-321)"
     style="display:inline"
     id="layer13" />
  <g
     transform="translate(-581.0002,-321)"
     id="layer14">
    <path
       style="color:#000000;font-style:normal;font-variant:normal;font-weight:normal;font-stretch:normal;font-size:medium;line-height:normal;font-family:sans-serif;text-indent:0;text-align:start;text-decoration:none;text-decoration-line:none;text-decoration-style:solid;text-decoration-color:#000000;letter-spacing:normal;word-spacing:normal;text-transform:none;writing-mode:lr-tb;direction:ltr;baseline-shift:baseline;text-anchor:start;white-space:normal;clip-rule:nonzero;display:inline;overflow:visible;visibility:visible;opacity:1;isolation:auto;mix-blend-mode:normal;color-interpolation:sRGB;color-interpolation-filters:linearRGB;solid-color:#000000;solid-opacity:1;fill:#f1f2f2;fill-opacity:1;fill-rule:nonzero;stroke:none;stroke-width:2;stroke-linecap:butt;stroke-linejoin:miter;stroke-miterlimit:4;stroke-dasharray:none;stroke-dashoffset:0;stroke-opacity:1;marker:none;color-rendering:auto;image-rendering:auto;shape-rendering:auto;text-rendering:auto;enable-background:accumulate"
       id="path10080"
       d="m 584,326.01172 v 2 h 1.91992 c -0.0552,0 0.084,0.15932 0.084,0.082 v 0.92383 h -1.00391 c -1.71588,0 -3.03006,1.12548 -3.05469,2.48437 -0.0123,0.67945 0.30583,1.363 0.86133,1.82227 0.5555,0.45927 1.31545,0.69922 2.19336,0.69922 h 3.00391 v -5.92969 c 0,-1.17119 -0.88715,-2.08203 -2.08399,-2.08203 h -1.91992 z m 1,5.00586 h 1.00391 v 1.00586 H 585 c -0.51941,0 -0.79379,-0.1379 -0.91992,-0.24219 -0.12614,-0.10429 -0.13607,-0.17218 -0.13477,-0.24414 0.003,-0.14393 0.0849,-0.51953 1.05469,-0.51953 z" />
    <path
       style="color:#000000;font-style:normal;font-variant:normal;font-weight:normal;font-stretch:normal;font-size:medium;line-height:normal;font-family:sans-serif;text-indent:0;text-align:start;text-decoration:none;text-decoration-line:none;text-decoration-style:solid;text-decoration-color:#000000;letter-spacing:normal;word-spacing:normal;text-transform:none;writing-mode:lr-tb;direction:ltr;baseline-shift:baseline;text-anchor:start;white-space:normal;clip-rule:nonzero;display:inline;overflow:visible;visibility:visible;opacity:1;isolation:auto;mix-blend-mode:normal;color-interpolation:sRGB;color-interpolation-filters:linearRGB;solid-color:#000000;solid-opacity:1;fill:#f1f2f2;fill-opacity:1;fill-rule:nonzero;stroke:none;stroke-width:2;stroke-linecap:butt;stroke-linejoin:miter;stroke-miterlimit:4;stroke-dasharray:none;stroke-dashoffset:0;stroke-opacity:1;marker:none;color-rendering:auto;image-rendering:auto;shape-rendering:auto;text-rendering:auto;enable-background:accumulate"
       id="path10082"
       d="m 588.99805,325 v 9.02344 H 592 c 0.93855,0 1.76882,-0.37254 2.29883,-0.95899 0.53,-0.58644 0.76574,-1.33658 0.75586,-2.0664 -0.01,-0.72982 -0.26223,-1.46579 -0.78907,-2.04297 C 593.73879,328.3779 592.92105,328 592,328 h -1.00195 v -3 z m 2,5 H 592 c 0.42179,0 0.62551,0.12569 0.78711,0.30273 0.1616,0.17705 0.26384,0.44685 0.26758,0.72266 0.004,0.27581 -0.0886,0.52949 -0.24024,0.69727 -0.15162,0.16777 -0.35569,0.30078 -0.81445,0.30078 h -1.00195 z" />
  </g>
  <g
     transform="translate(-581.0002,-321)"
     style="display:inline"
     id="layer15" />
  <g
     transform="translate(-581.0002,-321)"
     style="display:inline"
     id="g71291" />
  <g
     transform="translate(-581.0002,-321)"
     style="display:inline"
     id="g4953" />
  <g
     transform="translate(-581.0002,-321)"
     style="display:inline"
     id="layer12" />
</svg>
