<?xml version="1.0" encoding="UTF-8" standalone="no"?>
<svg
   xmlns:dc="http://purl.org/dc/elements/1.1/"
   xmlns:cc="http://creativecommons.org/ns#"
   xmlns:rdf="http://www.w3.org/1999/02/22-rdf-syntax-ns#"
   xmlns:svg="http://www.w3.org/2000/svg"
   xmlns="http://www.w3.org/2000/svg"
   width="16"
   height="16"
   version="1.1"
   id="svg7384">
  <metadata
     id="metadata90">
    <rdf:RDF>
      <cc:Work
         rdf:about="">
        <dc:format>image/svg+xml</dc:format>
        <dc:type
           rdf:resource="http://purl.org/dc/dcmitype/StillImage" />
        <dc:title>Gnome Symbolic Icon Theme</dc:title>
      </cc:Work>
    </rdf:RDF>
  </metadata>
  <title
     id="title9167">Gnome Symbolic Icon Theme</title>
  <defs
     id="defs7386" />
  <g
     style="display:inline"
     id="layer9"
     transform="translate(-180.0002,-706)" />
  <g
     id="layer10"
     transform="translate(-180.0002,-706)" />
  <g
     id="layer11"
     transform="translate(-180.0002,-706)" />
  <g
     id="layer12"
     transform="translate(-180.0002,-706)">
    <path
       style="color:#000000;font-style:normal;font-variant:normal;font-weight:normal;font-stretch:normal;font-size:medium;line-height:normal;font-family:Sans;-inkscape-font-specification:Sans;text-indent:0;text-align:start;text-decoration:none;text-decoration-line:none;letter-spacing:normal;word-spacing:normal;text-transform:none;writing-mode:lr-tb;direction:ltr;baseline-shift:baseline;text-anchor:start;display:inline;overflow:visible;visibility:visible;fill:#f1f2f2;fill-opacity:1;stroke:none;stroke-width:2;marker:none;enable-background:accumulate"
       id="path11643-3-2"
       d="m 184,708 v 2 h 6 c 0.42816,0 1,0.61414 1,1 v 1 h -5 c -0.91927,0 -1.7356,0.38396 -2.25,0.96875 -0.5144,0.58479 -0.75639,1.31063 -0.75,2.03125 0.006,0.72062 0.26893,1.45271 0.78125,2.03125 C 184.29357,717.60979 185.09172,718 186,718 h 6 1 v -1 -6 c 0,-1.63434 -1.3198,-3 -3,-3 z m 2,6 h 5 v 2 h -5 c -0.39787,0 -0.56691,-0.10979 -0.71875,-0.28125 C 185.12941,715.54729 185.00248,715.27938 185,715 c -0.002,-0.27938 0.10467,-0.55354 0.25,-0.71875 C 185.39533,714.11604 185.57764,714 186,714 Z" />
    <path
       style="color:#000000;font-style:normal;font-variant:normal;font-weight:normal;font-stretch:normal;font-size:medium;line-height:normal;font-family:Sans;-inkscape-font-specification:Sans;text-indent:0;text-align:start;text-decoration:none;text-decoration-line:none;letter-spacing:normal;word-spacing:normal;text-transform:none;writing-mode:lr-tb;direction:ltr;baseline-shift:baseline;text-anchor:start;display:inline;overflow:visible;visibility:visible;fill:#f1f2f2;fill-opacity:1;stroke:none;stroke-width:2;marker:none;enable-background:accumulate"
       id="path5100"
       d="m 182,719 v 2 h 12 v -2 z" />
  </g>
  <g
     id="layer13"
     transform="translate(-180.0002,-706)" />
  <g
     id="layer14"
     transform="translate(-180.0002,-706)" />
  <g
     style="display:inline"
     id="layer15"
     transform="translate(-180.0002,-706)" />
  <g
     style="display:inline"
     id="g4953"
     transform="translate(-180.0002,-706)" />
</svg>
