<?xml version="1.0" encoding="UTF-8" standalone="no"?>
<svg
   xmlns:dc="http://purl.org/dc/elements/1.1/"
   xmlns:cc="http://creativecommons.org/ns#"
   xmlns:rdf="http://www.w3.org/1999/02/22-rdf-syntax-ns#"
   xmlns:svg="http://www.w3.org/2000/svg"
   xmlns="http://www.w3.org/2000/svg"
   width="16"
   version="1.1"
   id="svg7384"
   height="16">
  <metadata
     id="metadata90">
    <rdf:RDF>
      <cc:Work
         rdf:about="">
        <dc:format>image/svg+xml</dc:format>
        <dc:type
           rdf:resource="http://purl.org/dc/dcmitype/StillImage" />
        <dc:title>Gnome Symbolic Icon Theme</dc:title>
      </cc:Work>
    </rdf:RDF>
  </metadata>
  <title
     id="title9167">Gnome Symbolic Icon Theme</title>
  <defs
     id="defs7386" />
  <g
     transform="translate(-221.0002,-747)"
     style="display:inline"
     id="layer9" />
  <g
     transform="translate(-221.0002,-747)"
     style="display:inline"
     id="layer10" />
  <g
     transform="translate(-221.0002,-747)"
     id="layer11" />
  <g
     transform="translate(-221.0002,-747)"
     style="display:inline"
     id="layer13" />
  <g
     transform="translate(-221.0002,-747)"
     id="layer14" />
  <g
     transform="translate(-221.0002,-747)"
     style="display:inline"
     id="layer15" />
  <g
     transform="translate(-221.0002,-747)"
     style="display:inline"
     id="g71291" />
  <g
     transform="translate(-221.0002,-747)"
     style="display:inline"
     id="g4953" />
  <g
     transform="translate(-221.0002,-747)"
     style="display:inline"
     id="layer12">
    <path
       id="rect8436"
       d="m -752,-235.0002 h 2 v 12 h -2 z"
       style="color:#f1f2f2;display:inline;overflow:visible;visibility:visible;fill:#f1f2f2;fill-opacity:1;fill-rule:nonzero;stroke:none;stroke-width:2;marker:none;enable-background:accumulate"
       transform="matrix(0,-1,-1,0,0,0)" />
    <path
       style="display:inline;fill:#f1f2f2;fill-opacity:1;stroke:none"
       id="rect6014-1-6-3-5-9-7"
       d="m 229.0002,752.5625 -5.71875,5.71875 c -0.19587,0.19587 -0.28125,0.46313 -0.28125,0.71875 v 1 h 1 c 0.25562,0 0.52288,-0.0854 0.71875,-0.28125 l 4.28125,-4.28125 4.28125,4.28125 C 233.47732,759.91462 233.74458,760 234.0002,760 h 1 v -1 c 0,-0.25562 -0.0854,-0.52288 -0.28125,-0.71875 z" />
  </g>
</svg>
