<?xml version="1.0" encoding="UTF-8" standalone="no"?>
<svg
   xmlns:dc="http://purl.org/dc/elements/1.1/"
   xmlns:cc="http://creativecommons.org/ns#"
   xmlns:rdf="http://www.w3.org/1999/02/22-rdf-syntax-ns#"
   xmlns:svg="http://www.w3.org/2000/svg"
   xmlns="http://www.w3.org/2000/svg"
   width="16"
   version="1.1"
   id="svg7384"
   height="16">
  <metadata
     id="metadata90">
    <rdf:RDF>
      <cc:Work
         rdf:about="">
        <dc:format>image/svg+xml</dc:format>
        <dc:type
           rdf:resource="http://purl.org/dc/dcmitype/StillImage" />
        <dc:title>Gnome Symbolic Icon Theme</dc:title>
      </cc:Work>
    </rdf:RDF>
  </metadata>
  <title
     id="title9167">Gnome Symbolic Icon Theme</title>
  <defs
     id="defs7386" />
  <g
     transform="translate(-243,-649)"
     style="display:inline"
     id="layer9" />
  <g
     transform="translate(-243,-649)"
     style="display:inline"
     id="layer10" />
  <g
     transform="translate(-243,-649)"
     id="layer11">
    <path
       style="color:#000000;font-style:normal;font-variant:normal;font-weight:normal;font-stretch:normal;font-size:medium;line-height:normal;font-family:Sans;-inkscape-font-specification:Sans;text-indent:0;text-align:start;text-decoration:none;text-decoration-line:none;letter-spacing:normal;word-spacing:normal;text-transform:none;writing-mode:lr-tb;direction:ltr;baseline-shift:baseline;text-anchor:start;display:inline;overflow:visible;visibility:visible;fill:#f1f2f2;fill-opacity:1;stroke:none;stroke-width:2;marker:none;enable-background:accumulate"
       id="path7920"
       d="m 247.03145,650 v 4 h -3 c -0.54534,0 -0.96875,0.42341 -0.96875,0.96875 0,0.54535 0.42341,1 0.96875,1 h 3 v 2.0625 h -3 c -0.54534,0 -0.96875,0.42341 -0.96875,0.96875 0,0.54535 0.42341,1 0.96875,1 h 3 v 4 l 1,-0.0937 c 3.67508,-0.34454 5.76683,-4.02303 5.9375,-6.875 0.23648,-0.0665 0.53042,0.0111 0.6875,0.1875 v 0.0312 c 0.16445,0.15757 0.37436,0.41118 0.625,0.65625 0.25064,0.24507 0.60354,0.47879 1.0625,0.53125 0.4719,0.04 0.88833,-0.15809 1.15625,-0.46875 0.26137,-0.30307 0.3995,-0.70745 0.375,-1.125 -2.3e-4,-0.011 3.9e-4,-0.0204 0,-0.0312 -0.0363,-1.00877 -0.73453,-1.69168 -1.21875,-2.21875 -0.32738,-0.35889 -0.51919,-0.79134 -0.40625,-1.125 0.0978,-0.28616 0.46274,-0.49156 0.8125,-0.46875 h 0.0312 0.0312 c 0.57283,-0.0201 0.70488,0.003 1.3125,0 v -1 c -0.56205,0.003 -0.73654,-0.0187 -1.3125,0 -0.0137,4.5e-4 -0.0172,-5e-4 -0.0312,0 -0.74361,-0.0366 -1.51171,0.36762 -1.78125,1.15625 -0.28648,0.84634 0.1721,1.62849 0.625,2.125 0.50634,0.55116 0.92597,1.0521 0.9375,1.59375 h 0.0312 c 0.0101,0.12705 -0.0578,0.32333 -0.15625,0.4375 -0.0985,0.11417 -0.19795,0.16596 -0.3125,0.15625 -0.16676,-0.0191 -0.2944,-0.11077 -0.46875,-0.28125 -0.16979,-0.16602 -0.35398,-0.39175 -0.59375,-0.625 -0.007,-0.007 -0.0247,0.007 -0.0312,0 -0.36526,-0.39563 -0.90243,-0.60685 -1.40625,-0.5625 -0.44674,-3.11853 -2.91199,-5.469 -5.90625,-5.90625 l -1,-0.0937 z m 1,2.09375 c 2.04247,0.42745 3.70504,2.1191 3.96875,4.3125 0.31355,2.60795 -1.39127,5.02493 -3.96875,5.53125 z" />
    <path
       style="color:#000000;display:inline;overflow:visible;visibility:visible;opacity:0.3;fill:#f1f2f2;fill-opacity:1;fill-rule:nonzero;stroke:none;stroke-width:1;marker:none;enable-background:accumulate"
       id="path7922"
       d="m 249.34395,652.875 c -0.77785,-0.13108 -1.21212,1.33576 -0.29427,0.81948 -0.0229,-0.92977 0.68165,0.0909 0.0766,0.26611 -0.45485,0.0897 -0.65532,-0.0705 -0.94235,0.45497 -0.35676,0.37222 -0.18167,1.19375 0.31937,0.50676 0.39013,-0.2891 0.62946,0.78353 0.59147,-0.0209 0.0744,0.16412 0.37541,0.50927 0.60493,0.35853 0.56636,0.11105 0.62179,0.66202 -0.016,0.52878 -0.63563,0.11569 -1.65077,-0.93807 -1.66318,0.26192 0.0198,0.64976 0.007,1.3 0.0109,1.95 0.95308,-0.34702 0.95854,1.07759 0.91402,1.71997 0.0923,0.50281 0.16312,1.89906 0.92481,1.20656 0.49057,-0.69648 0.93548,-1.37271 0.84745,-2.25365 0.23169,-0.35036 0.95594,-1.36279 0.0629,-1.29611 -0.33412,-0.25815 -0.69825,-1.71966 -0.18848,-0.8122 0.046,0.76672 0.7391,0.98167 1.0293,0.20833 0.35039,-0.39282 -0.91916,-0.47489 -0.30833,-0.69789 0.44865,0.57012 0.93158,0.0258 0.52953,-0.49467 -0.37325,-0.79864 -0.83934,-2.17532 -1.72159,-2.29708 -0.27079,0.22095 -0.49588,-0.13404 -0.12291,-0.20005 -0.18632,-0.13561 -0.46288,-0.0776 -0.65405,-0.20889 z" />
  </g>
  <g
     transform="translate(-243,-649)"
     style="display:inline"
     id="layer13" />
  <g
     transform="translate(-243,-649)"
     id="layer14" />
  <g
     transform="translate(-243,-649)"
     style="display:inline"
     id="layer15" />
  <g
     transform="translate(-243,-649)"
     style="display:inline"
     id="g71291" />
  <g
     transform="translate(-243,-649)"
     style="display:inline"
     id="g4953" />
  <g
     transform="translate(-243,-649)"
     style="display:inline"
     id="layer12" />
</svg>
