<?xml version="1.0" encoding="UTF-8" standalone="no"?>
<svg id="svg8" xmlns="http://www.w3.org/2000/svg" version="1.1" viewBox="0 0 16 16"><g id="g6" font-weight="400" font-family="Sans" fill="#f1f2f2"><path id="path2" style="text-decoration-line:none;text-transform:none;text-indent:0" d="m1.031 1.031v13.969h13.969v-13.969h-12.97zm0.969 0.969h12v12h-12z" overflow="visible"/><g id="g128" transform="translate(18.5)"><path id="path4662" style="color:#000000;text-indent:0;text-decoration-line:none;text-transform:none;fill:#f1f2f2" d="m-9.376 8.032c-0.466-0.065-1.046-0.13-1.531 0.25-0.403 0.315-0.829 0.977-1.157 1.28-0.328 0.305-0.66 0.438-0.594 0.438h-4.842v1h4.843c0.582 0 0.886-0.381 1.25-0.719 0.3425-0.326 0.7601-0.888 1.126-1.187 0.106-0.083 0.408-0.145 0.781-0.094 0.373 0.052 0.7 0.188 1.094 0.188 0.146 0 0.204 0.033 0.312 0.125 0.109 0.092 0.177 0.494 0.312 0.687 0.135 0.194 0.282 0.421 0.5 0.625s0.562 0.375 0.938 0.375h1.844v-1h-1.844c-0.1 0-0.152-0.002-0.25-0.093-0.13908-0.1449-0.2646-0.30222-0.375-0.47-0.14-0.2-0.229-0.67-0.468-0.874-0.26887-0.23569-0.61251-0.36854-0.97-0.375-0.032 0-0.502-0.092-0.968-0.156z"/><path id="path4664" style="fill-opacity:.97034;fill:#f1f2f2" d="m-14 4a1.5 1.5 0 0 0 -1.5 1.5 1.5 1.5 0 0 0 1.5 1.5 1.5 1.5 0 0 0 1.5 -1.5 1.5 1.5 0 0 0 -1.5 -1.5zm0 1a0.5 0.5 0 0 1 0.5 0.5 0.5 0.5 0 0 1 -0.5 0.5 0.5 0.5 0 0 1 -0.5 -0.5 0.5 0.5 0 0 1 0.5 -0.5z"/></g></g></svg>
