<?xml version="1.0" encoding="UTF-8" standalone="no"?>
<svg
   xmlns:dc="http://purl.org/dc/elements/1.1/"
   xmlns:cc="http://creativecommons.org/ns#"
   xmlns:rdf="http://www.w3.org/1999/02/22-rdf-syntax-ns#"
   xmlns:svg="http://www.w3.org/2000/svg"
   xmlns="http://www.w3.org/2000/svg"
   width="16"
   version="1.1"
   id="svg7384"
   height="16">
  <metadata
     id="metadata90">
    <rdf:RDF>
      <cc:Work
         rdf:about="">
        <dc:format>image/svg+xml</dc:format>
        <dc:type
           rdf:resource="http://purl.org/dc/dcmitype/StillImage" />
        <dc:title>Gnome Symbolic Icon Theme</dc:title>
      </cc:Work>
    </rdf:RDF>
  </metadata>
  <title
     id="title9167">Gnome Symbolic Icon Theme</title>
  <defs
     id="defs7386" />
  <g
     transform="translate(-621.03145,-301.03125)"
     style="display:inline"
     id="layer9" />
  <g
     transform="translate(-621.03145,-301.03125)"
     style="display:inline"
     id="layer10" />
  <g
     transform="translate(-621.03145,-301.03125)"
     id="layer11" />
  <g
     transform="translate(-621.03145,-301.03125)"
     style="display:inline"
     id="layer13" />
  <g
     transform="translate(-621.03145,-301.03125)"
     id="layer14">
    <path
       style="color:#000000;font-style:normal;font-variant:normal;font-weight:normal;font-stretch:normal;font-size:medium;line-height:normal;font-family:Sans;-inkscape-font-specification:Sans;text-indent:0;text-align:start;text-decoration:none;text-decoration-line:none;letter-spacing:normal;word-spacing:normal;text-transform:none;writing-mode:lr-tb;direction:ltr;baseline-shift:baseline;text-anchor:start;display:inline;overflow:visible;visibility:visible;fill:#f1f2f2;fill-opacity:1;stroke:none;stroke-width:2;marker:none;enable-background:new"
       id="rect35282"
       d="m 622.0625,302.0625 v 1 11.96875 1 h 1 11.96875 1 v -1 -11.96875 -1 h -1 -11.96875 z m 2,2 h 9.96875 v 9.96875 h -9.96875 z" />
    <path
       style="color:#000000;font-style:normal;font-variant:normal;font-weight:normal;font-stretch:normal;font-size:medium;line-height:normal;font-family:Sans;-inkscape-font-specification:Sans;text-indent:0;text-align:start;text-decoration:none;text-decoration-line:none;letter-spacing:normal;word-spacing:normal;text-transform:none;writing-mode:lr-tb;direction:ltr;baseline-shift:baseline;text-anchor:start;display:inline;overflow:visible;visibility:visible;fill:#f1f2f2;fill-opacity:1;stroke:none;stroke-width:1;marker:none;enable-background:accumulate"
       id="path35302"
       d="m 630.5625,309.34375 c -0.46643,-0.0643 -1.04585,-0.1297 -1.53125,0.25 -0.40319,0.3154 -0.7654,0.72703 -1.09375,1.03125 -0.32835,0.30422 -0.65996,0.4375 -0.59375,0.4375 H 623.5 v 1 h 3.84375 c 0.58207,0 0.88604,-0.38153 1.25,-0.71875 0.36396,-0.33722 0.75079,-0.69367 1.0625,-0.9375 0.10629,-0.0831 0.40859,-0.14514 0.78125,-0.0937 0.37266,0.0514 0.69959,0.1875 1.09375,0.1875 0.14648,0 0.20407,0.0328 0.3125,0.125 0.10843,0.0922 0.24045,0.24389 0.375,0.4375 0.13455,0.19361 0.28193,0.42119 0.5,0.625 0.21807,0.20381 0.56155,0.375 0.9375,0.375 H 634.5 v -1 h -0.84375 c -0.0991,0 -0.15147,-0.002 -0.25,-0.0937 -0.0985,-0.0921 -0.23537,-0.26783 -0.375,-0.46875 -0.13963,-0.20092 -0.29184,-0.42134 -0.53125,-0.625 -0.23941,-0.20366 -0.57764,-0.375 -0.96875,-0.375 -0.0328,0 -0.50232,-0.0919 -0.96875,-0.15625 z" />
    <path
       style="color:#000000;font-style:normal;font-variant:normal;font-weight:normal;font-stretch:normal;font-size:medium;line-height:normal;font-family:Sans;-inkscape-font-specification:Sans;text-indent:0;text-align:start;text-decoration:none;text-decoration-line:none;letter-spacing:normal;word-spacing:normal;text-transform:none;writing-mode:lr-tb;direction:ltr;baseline-shift:baseline;text-anchor:start;display:inline;overflow:visible;visibility:visible;fill:#f1f2f2;fill-opacity:1;stroke:none;stroke-width:1.18468678;marker:none;enable-background:accumulate"
       id="path35306"
       d="m 626.47137,304.91487 c -0.86024,0 -1.55632,0.72246 -1.55632,1.58269 0,0.86024 0.69608,1.55632 1.55632,1.55632 0.86024,0 1.5827,-0.69608 1.5827,-1.55632 0,-0.86023 -0.72246,-1.58269 -1.5827,-1.58269 z m 0,1.00237 c 0.3198,0 0.58032,0.26053 0.58032,0.58032 0,0.3198 -0.26052,0.55395 -0.58032,0.55395 -0.3198,0 -0.55394,-0.23415 -0.55394,-0.55395 0,-0.31979 0.23414,-0.58032 0.55394,-0.58032 z" />
  </g>
  <g
     transform="translate(-621.03145,-301.03125)"
     style="display:inline"
     id="layer15" />
  <g
     transform="translate(-621.03145,-301.03125)"
     style="display:inline"
     id="g71291" />
  <g
     transform="translate(-621.03145,-301.03125)"
     style="display:inline"
     id="g4953" />
  <g
     transform="translate(-621.03145,-301.03125)"
     style="display:inline"
     id="layer12" />
</svg>
