<?xml version="1.0" encoding="UTF-8" standalone="no"?>
<svg
   xmlns:dc="http://purl.org/dc/elements/1.1/"
   xmlns:cc="http://creativecommons.org/ns#"
   xmlns:rdf="http://www.w3.org/1999/02/22-rdf-syntax-ns#"
   xmlns:svg="http://www.w3.org/2000/svg"
   xmlns="http://www.w3.org/2000/svg"
   width="16"
   height="16"
   version="1.1"
   id="svg7384">
  <metadata
     id="metadata90">
    <rdf:RDF>
      <cc:Work
         rdf:about="">
        <dc:format>image/svg+xml</dc:format>
        <dc:type
           rdf:resource="http://purl.org/dc/dcmitype/StillImage" />
        <dc:title>Gnome Symbolic Icon Theme</dc:title>
      </cc:Work>
    </rdf:RDF>
  </metadata>
  <title
     id="title9167">Gnome Symbolic Icon Theme</title>
  <defs
     id="defs7386" />
  <g
     style="display:inline"
     id="layer9"
     transform="translate(-281,-448)" />
  <g
     id="layer10"
     transform="translate(-281,-448)">
    <path
       style="color:#f1f2f2;font-style:normal;font-variant:normal;font-weight:normal;font-stretch:normal;font-size:medium;line-height:normal;font-family:Sans;-inkscape-font-specification:Sans;text-indent:0;text-align:start;text-decoration:none;text-decoration-line:none;letter-spacing:normal;word-spacing:normal;text-transform:none;writing-mode:lr-tb;direction:ltr;baseline-shift:baseline;text-anchor:start;display:inline;overflow:visible;visibility:visible;fill:#f1f2f2;fill-opacity:1;stroke:none;stroke-width:2;marker:none;enable-background:accumulate"
       id="rect5837"
       d="m 284.03145,449 c -1.66919,0 -3.03125,1.36206 -3.03125,3.03125 v 7.9375 c 0,1.66919 1.36206,3.03125 3.03125,3.03125 h 8.9375 c 1.66919,0 3.03125,-1.36206 3.03125,-3.03125 v -7.9375 c 0,-1.66919 -1.36206,-3.03125 -3.03125,-3.03125 z m 0,2 h 8.9375 c 0.59578,0 1.03125,0.43547 1.03125,1.03125 V 458 h -11 v -5.96875 c 0,-0.59578 0.43547,-1.03125 1.03125,-1.03125 z m -1.03125,8 h 5 v 2 h -3.96875 c -0.59578,0 -1.03125,-0.43547 -1.03125,-1.03125 z m 6,0 h 5 v 0.96875 c 0,0.59578 -0.43547,1.03125 -1.03125,1.03125 h -3.96875 z" />
    <path
       id="rect5839-9"
       d="m 283.00018,451 h 11.00001 v 7 h -11.00001 z"
       style="color:#f1f2f2;display:inline;overflow:visible;visibility:visible;opacity:0.35;fill:#f1f2f2;fill-opacity:1;stroke:none;stroke-width:2;marker:none;enable-background:accumulate" />
  </g>
  <g
     id="layer11"
     transform="translate(-281,-448)" />
  <g
     style="display:inline"
     id="layer12"
     transform="translate(-281,-448)" />
  <g
     id="layer13"
     transform="translate(-281,-448)" />
  <g
     id="layer14"
     transform="translate(-281,-448)" />
  <g
     style="display:inline"
     id="layer15"
     transform="translate(-281,-448)" />
  <g
     style="display:inline"
     id="g4953"
     transform="translate(-281,-448)" />
</svg>
