<?xml version="1.0" encoding="UTF-8" standalone="no"?>
<svg
   xmlns:dc="http://purl.org/dc/elements/1.1/"
   xmlns:cc="http://creativecommons.org/ns#"
   xmlns:rdf="http://www.w3.org/1999/02/22-rdf-syntax-ns#"
   xmlns:svg="http://www.w3.org/2000/svg"
   xmlns="http://www.w3.org/2000/svg"
   width="16.000132"
   version="1.1"
   id="svg7384"
   height="15.99993">
  <metadata
     id="metadata90">
    <rdf:RDF>
      <cc:Work
         rdf:about="">
        <dc:format>image/svg+xml</dc:format>
        <dc:type
           rdf:resource="http://purl.org/dc/dcmitype/StillImage" />
        <dc:title>Gnome Symbolic Icon Theme</dc:title>
      </cc:Work>
    </rdf:RDF>
  </metadata>
  <title
     id="title9167">Gnome Symbolic Icon Theme</title>
  <defs
     id="defs7386" />
  <g
     transform="translate(-101.00014,-927)"
     style="display:inline"
     id="layer9" />
  <g
     transform="translate(-101.00014,-927)"
     id="layer10" />
  <g
     transform="translate(-101.00014,-927)"
     id="layer11" />
  <g
     transform="translate(-101.00014,-927)"
     id="layer13" />
  <g
     transform="translate(-101.00014,-927)"
     id="layer14" />
  <g
     transform="translate(-101.00014,-927)"
     style="display:inline"
     id="layer15" />
  <g
     transform="translate(-101.00014,-927)"
     style="display:inline"
     id="g71291" />
  <g
     transform="translate(-101.00014,-927)"
     style="display:inline"
     id="g4953" />
  <g
     transform="translate(-101.00014,-927)"
     style="display:inline"
     id="layer12">
    <path
       style="fill:#f1f2f2;fill-opacity:1;fill-rule:nonzero;stroke:none"
       id="path15214"
       d="m 109.0002,927 -4.99967,3.14259 v 4.71482 l 4.99951,3.14259 5.00049,-3.14259 v -4.71482 z m 0,6 -3.64507,-2.17601 3.64507,-2.29205 3.64623,2.29205 z" />
    <path
       style="color:#f1f2f2;font-style:normal;font-variant:normal;font-weight:normal;font-stretch:normal;font-size:medium;line-height:normal;font-family:'Bitstream Vera Sans';-inkscape-font-specification:'Bitstream Vera Sans';text-indent:0;text-align:start;text-decoration:none;text-decoration-line:none;letter-spacing:normal;word-spacing:normal;text-transform:none;writing-mode:lr-tb;direction:ltr;text-anchor:start;display:inline;overflow:visible;visibility:visible;fill:#f1f2f2;fill-opacity:1;stroke:none;stroke-width:2;marker:none;enable-background:accumulate"
       id="path15265"
       d="m 112.00019,939 h -0.99999 c -0.2569,10e-6 -0.52845,0.11786 -0.71875,0.28369 l -1.28123,1.16309 -1.28123,-1.1631 c -0.19004,-0.16606 -0.46185,-0.28368 -0.71877,-0.28364 h -1 l -1e-5,0.90779 c 0,0.28091 0.0902,0.50137 0.2813,0.68082 l 2.71874,2.41128 2.71871,-2.41128 c 0.19093,-0.17949 0.28125,-0.39993 0.28125,-0.68084 v -0.90778 z" />
  </g>
</svg>
