<svg xmlns="http://www.w3.org/2000/svg" version="1" viewBox="0 0 16 16"><g fill="#f1f2f2"><path d="m11.062 1a3.938 3.938 0 0 0 -3.937 3.9375c0.002 0.283 0.0337 0.5658 0.0957 0.8418l-0.7207 0.7207-2.5-2.5h-3v3l2.6113 2.3887-2.6113 2.6113v3h3l1-1h1v-1l0.7461-0.746 3.0039 2.746h2.25v-3l-2.5-2.5 0.719-0.7188a3.937 3.937 0 1 0 0.843 -7.7812zm-0.062 1a3 3 0 0 1 3 3 3 3 0 0 1 -3 3 3 3 0 0 1 -1 -0.1758v0.1758h-1v1h-1v1h1v1h1v1h1v2h-2v-1h-1v-1h-1v-1h-1v1h-1v1h-1v1h-2v-2h1v-1h1v-1h1v-1h-1v-1h-1v-1h-1v-2h2v1h1v1h1v1h1v-1h1v-1h0.1738a3 3 0 0 1 -0.1738 -1 3 3 0 0 1 3 -3z"/><path stroke-linejoin="round" opacity=".2" d="m11 2a3 3 0 0 0 -3 3 3 3 0 0 0 0.174 1h-0.174v1h-1v1h-1v-1h-1v-1h-1v-1h-2v2h1v1h1v1h1v1h-1v1h-1v1h-1v2h2v-1h1v-1h1v-1h1v1h1v1h1v1h2v-2h-1v-1h-1v-1h-1v-1h1v-1h1v-0.176a3 3 0 0 0 1 0.176 3 3 0 0 0 3 -3 3 3 0 0 0 -3 -3z" stroke-linecap="round" stroke-dasharray="3 1"/><circle stroke-linejoin="round" stroke-width="2.875" stroke-linecap="round" cy="5" cx="11" stroke-dasharray="8.625 2.875" r="1"/></g></svg>
