<svg xmlns="http://www.w3.org/2000/svg" version="1" viewBox="0 0 16 16"><g fill="#f1f2f2"><path d="m11.062 1a3.938 3.938 0 0 0 -3.937 3.9375c0.002 0.283 0.0337 0.5658 0.0957 0.8418l-0.7207 0.7207-2.5-2.5h-3v3l2.6113 2.3887-2.6113 2.6113v3h3l1-1h1v-1l0.7461-0.746 2.2539 2.06v-0.314-1h-1v-1h-1v-1h-1v1h-1v1h-1v1h-2v-2h1v-1h1v-1h1v-1h-1v-1h-1v-1h-1v-2h2v1h1v1h1v1h1v-1h1v-1h0.1738a3 3 0 0 1 -0.1738 -1 3 3 0 0 1 3 -3 3 3 0 0 1 3 3 3 3 0 0 1 -3 3 3 3 0 0 1 -1 -0.1758v0.1758h-1v1h1l0.219-0.2188a3.937 3.937 0 1 0 0.843 -7.7812zm-2.062 8h-1v1h1v-1z"/><path stroke-linejoin="round" opacity=".2" d="m11 2a3 3 0 0 0 -3 3 3 3 0 0 0 0.174 1h-0.174v1h-1v1h-1v-1h-1v-1h-1v-1h-2v2h1v1h1v1h1v1h-1v1h-1v1h-1v2h2v-1h1v-1h1v-1h1v1h1v1h1v1h2v-2h-1v-1h-1v-1h-1v-1h1v-1h1v-0.176a3 3 0 0 0 1 0.176 3 3 0 0 0 3 -3 3 3 0 0 0 -3 -3z" stroke-linecap="round" stroke-dasharray="3 1"/><circle stroke-linejoin="round" r="1" cx="11" cy="5" stroke-linecap="round" stroke-dasharray="8.625 2.875" stroke-width="2.875"/></g><path style="color:#f1f2f2" d="m12.5 9.93c-0.822 0-1.5 0.626-1.5 1.385v1.685h-0.5c-0.277 0-0.5 0.205-0.5 0.461v2.469h6v-2.469c0-0.256-0.223-0.461-0.5-0.461h-0.5v-1.685c0-0.76-0.678-1.385-1.5-1.385zm0 0.923h1c0.286 0 0.5 0.198 0.5 0.462v1.685h-2v-1.685c0-0.264 0.214-0.462 0.5-0.462z" overflow="visible" fill="#f60"/></svg>
