<?xml version="1.0" encoding="UTF-8" standalone="no"?>
<svg
   xmlns:dc="http://purl.org/dc/elements/1.1/"
   xmlns:cc="http://creativecommons.org/ns#"
   xmlns:rdf="http://www.w3.org/1999/02/22-rdf-syntax-ns#"
   xmlns:svg="http://www.w3.org/2000/svg"
   xmlns="http://www.w3.org/2000/svg"
   width="16.000002"
   version="1.1"
   id="svg7384"
   height="16">
  <metadata
     id="metadata90">
    <rdf:RDF>
      <cc:Work
         rdf:about="">
        <dc:format>image/svg+xml</dc:format>
        <dc:type
           rdf:resource="http://purl.org/dc/dcmitype/StillImage" />
        <dc:title>Gnome Symbolic Icon Theme</dc:title>
      </cc:Work>
    </rdf:RDF>
  </metadata>
  <title
     id="title9167">Gnome Symbolic Icon Theme</title>
  <defs
     id="defs7386" />
  <g
     transform="translate(-101.0002,-317)"
     style="display:inline"
     id="layer9">
    <path
       id="rect5434"
       d="m 101.47247,327 h 2.02773 c 0.26164,0 0.47227,0.223 0.47227,0.5 v 1 c 0,0.277 -0.21063,0.5 -0.47227,0.5 h -2.02773 c -0.26164,0 -0.47227,-0.223 -0.47227,-0.5 v -1 c 0,-0.277 0.21063,-0.5 0.47227,-0.5 z"
       style="color:#f1f2f2;display:inline;overflow:visible;visibility:visible;fill:#f1f2f2;fill-opacity:1;fill-rule:nonzero;stroke:none;stroke-width:2;marker:none;enable-background:new" />
    <path
       id="rect5436"
       d="m 114.48372,327 h 2.01647 c 0.277,0 0.5,0.223 0.5,0.5 v 1 c 0,0.277 -0.223,0.5 -0.5,0.5 h -2.01647 c -0.27699,0 -0.49999,-0.223 -0.49999,-0.5 v -1 c 0,-0.277 0.223,-0.5 0.49999,-0.5 z"
       style="color:#f1f2f2;display:inline;overflow:visible;visibility:visible;fill:#f1f2f2;fill-opacity:1;fill-rule:nonzero;stroke:none;stroke-width:2;marker:none;enable-background:new" />
    <path
       id="rect11183"
       d="m -149.37271,308.0058 h 2.01647 c 0.277,0 0.49999,0.223 0.49999,0.5 v 1 c 0,0.277 -0.22299,0.5 -0.49999,0.5 h -2.01647 c -0.277,0 -0.5,-0.223 -0.5,-0.5 v -1 c 0,-0.277 0.223,-0.5 0.5,-0.5 z"
       style="color:#f1f2f2;display:inline;overflow:visible;visibility:visible;fill:#f1f2f2;fill-opacity:1;fill-rule:nonzero;stroke:none;stroke-width:2;marker:none;enable-background:new"
       transform="rotate(-45)" />
    <path
       id="rect11189"
       d="m -303.51929,-155.85748 h 2.01647 c 0.277,0 0.5,0.223 0.5,0.5 v 1 c 0,0.277 -0.223,0.5 -0.5,0.5 h -2.01647 c -0.277,0 -0.5,-0.223 -0.5,-0.5 v -1 c 0,-0.277 0.223,-0.5 0.5,-0.5 z"
       style="color:#f1f2f2;display:inline;overflow:visible;visibility:visible;fill:#f1f2f2;fill-opacity:1;fill-rule:nonzero;stroke:none;stroke-width:2;marker:none;enable-background:new"
       transform="rotate(-135)" />
    <path
       id="rect5448"
       d="m -322.5,108.0002 h 2 c 0.277,0 0.5,0.223 0.5,0.5 v 0.99999 c 0,0.27701 -0.223,0.50001 -0.5,0.50001 h -2 c -0.277,0 -0.5,-0.223 -0.5,-0.50001 v -0.99999 c 0,-0.277 0.223,-0.5 0.5,-0.5 z"
       style="color:#f1f2f2;display:inline;overflow:visible;visibility:visible;fill:#f1f2f2;fill-opacity:1;fill-rule:nonzero;stroke:none;stroke-width:2;marker:none;enable-background:new"
       transform="rotate(-90)" />
    <path
       style="color:#000000;display:inline;overflow:visible;visibility:visible;fill:#f1f2f2;fill-opacity:1;fill-rule:nonzero;stroke:none;stroke-width:1px;marker:none;enable-background:accumulate"
       id="path7977"
       d="m 107.24548,326.00034 c -0.16704,0.009 -0.32215,0.11722 -0.37496,0.26083 l -0.83643,2.21705 c -0.10137,0.23354 0.12645,0.52786 0.4038,0.52166 0,0 1.0705,1.2e-4 2.56698,1.2e-4 1.49648,0 2.56698,-1.2e-4 2.56698,-1.2e-4 0.27735,0.006 0.50517,-0.28812 0.4038,-0.52166 l -0.83643,-2.21705 c -0.0727,-0.19298 -0.33686,-0.30615 -0.54801,-0.23475 -0.21274,0.0692 -0.82049,0.26083 -1.58634,0.26083 -0.76585,0 -1.37363,-0.19167 -1.58634,-0.26083 -0.0548,-0.0194 -0.11421,-0.0284 -0.17305,-0.026 z" />
  </g>
  <g
     transform="translate(-101.0002,-317)"
     style="display:inline"
     id="layer10" />
  <g
     transform="translate(-101.0002,-317)"
     id="layer11" />
  <g
     transform="translate(-101.0002,-317)"
     style="display:inline"
     id="layer13" />
  <g
     transform="translate(-101.0002,-317)"
     id="layer14" />
  <g
     transform="translate(-101.0002,-317)"
     style="display:inline"
     id="layer15" />
  <g
     transform="translate(-101.0002,-317)"
     style="display:inline"
     id="g71291" />
  <g
     transform="translate(-101.0002,-317)"
     style="display:inline"
     id="g4953" />
  <g
     transform="translate(-101.0002,-317)"
     style="display:inline"
     id="layer12" />
</svg>
