<svg xmlns="http://www.w3.org/2000/svg" version="1.1" xmlns:xlink="http://www.w3.org/1999/xlink" viewBox="0 0 16 16"><path stroke-width=".31816" fill="#f1f2f2" d="m8 1c-0.1496 0-0.2995 0.0573-0.4141 0.1719l-1.6093 1.6093c-0.0036 0.4695 0.0193 1.2442 0.0097 5.6915l5.1077-4.6211-2.6799-2.6797c-0.1146-0.1146-0.2645-0.1719-0.4141-0.1719zm-5 4.7578l-1.8281 1.8281c-0.22923 0.2292-0.22923 0.599 0 0.8282l1.7519 1.7519c0.0465-0.096 0.0219-0.055 0.0762-0.166-0.0003-4.5548-0.0001-4.0885 0-4.2422zm10.268 0.2676l-2.268 1.9746 2.121 2.121 1.707-1.7069c0.229-0.2292 0.229-0.599 0-0.8282l-1.56-1.5605zm-5.268 3.9746l-2.75 2.492 2.3359 2.336c0.2292 0.229 0.599 0.229 0.8282 0l2.2069-2.207-2.621-2.621z"/></svg>
