<?xml version="1.0" encoding="UTF-8" standalone="no"?>
<svg
   xmlns:dc="http://purl.org/dc/elements/1.1/"
   xmlns:cc="http://creativecommons.org/ns#"
   xmlns:rdf="http://www.w3.org/1999/02/22-rdf-syntax-ns#"
   xmlns:svg="http://www.w3.org/2000/svg"
   xmlns="http://www.w3.org/2000/svg"
   width="16"
   height="16"
   version="1.1"
   id="svg7384">
  <metadata
     id="metadata90">
    <rdf:RDF>
      <cc:Work
         rdf:about="">
        <dc:format>image/svg+xml</dc:format>
        <dc:type
           rdf:resource="http://purl.org/dc/dcmitype/StillImage" />
        <dc:title>Gnome Symbolic Icon Theme</dc:title>
      </cc:Work>
    </rdf:RDF>
  </metadata>
  <title
     id="title9167">Gnome Symbolic Icon Theme</title>
  <defs
     id="defs7386" />
  <g
     style="display:inline"
     id="layer9"
     transform="translate(-321.0002,-647)" />
  <g
     id="layer10"
     transform="translate(-321.0002,-647)" />
  <g
     id="layer11"
     transform="translate(-321.0002,-647)" />
  <g
     id="layer13"
     transform="translate(-321.0002,-647)" />
  <g
     id="layer14"
     transform="translate(-321.0002,-647)" />
  <g
     style="display:inline"
     id="layer15"
     transform="translate(-321.0002,-647)" />
  <g
     style="display:inline"
     id="g71291"
     transform="translate(-321.0002,-647)" />
  <g
     style="display:inline"
     id="g4953"
     transform="translate(-321.0002,-647)" />
  <g
     style="display:inline"
     id="layer12"
     transform="translate(-321.0002,-647)">
    <path
       style="color:#000000;font-style:normal;font-variant:normal;font-weight:normal;font-stretch:normal;font-size:medium;line-height:normal;font-family:'Bitstream Vera Sans';-inkscape-font-specification:'Bitstream Vera Sans';text-indent:0;text-align:start;text-decoration:none;text-decoration-line:none;letter-spacing:normal;word-spacing:normal;text-transform:none;writing-mode:lr-tb;direction:ltr;text-anchor:start;display:inline;overflow:visible;visibility:visible;fill:#f1f2f2;fill-opacity:1;stroke:none;stroke-width:1.99999976;marker:none;enable-background:accumulate"
       id="path35600-1"
       d="m 322.78093,648.71918 a 1.0000999,1.0000318 0 0 0 -0.40625,1.78113 l 5,3.99972 0.625,0.49997 0.625,-0.49997 5,-3.99972 a 1.0004907,1.0004225 0 1 0 -1.25,-1.5624 l -4.375,3.49977 -4.375,-3.49977 a 1.0000999,1.0000318 0 0 0 -0.84375,-0.21873 z" />
    <path
       style="color:#000000;font-style:normal;font-variant:normal;font-weight:normal;font-stretch:normal;font-size:medium;line-height:normal;font-family:'Bitstream Vera Sans';-inkscape-font-specification:'Bitstream Vera Sans';text-indent:0;text-align:start;text-decoration:none;text-decoration-line:none;letter-spacing:normal;word-spacing:normal;text-transform:none;writing-mode:lr-tb;direction:ltr;text-anchor:start;display:inline;overflow:visible;visibility:visible;fill:#f1f2f2;fill-opacity:1;stroke:none;stroke-width:2;marker:none;enable-background:accumulate"
       id="rect35604-4"
       d="m 321.81284,648.00075 c -0.45841,0.0875 -0.82073,0.53337 -0.8125,0.99993 v 8.9994 c 5e-5,0.52354 0.47641,0.99987 1,0.99992 h 5.99986 v -1.99986 h -4.99986 v -6.99952 h 10 l -1.4e-4,3.99972 h 2 l 1.4e-4,-4.99966 c -5e-5,-0.52354 -0.47642,-0.99988 -1,-0.99993 h -12 c -0.0312,-9.9e-4 -0.0625,-9.9e-4 -0.0937,0 -0.0312,-9.9e-4 -0.0625,-9.9e-4 -0.0937,0 z" />
    <path
       style="color:#f1f2f2;display:inline;overflow:visible;visibility:visible;fill:#ff6600;fill-opacity:1;fill-rule:nonzero;stroke:none;stroke-width:2;marker:none"
       id="path10898-2-9"
       d="m 329.8752,655.06919 c -0.49245,0 -0.875,0.37923 -0.875,0.8674 v 6.19571 c 0,0.48816 0.38255,0.8674 0.875,0.8674 h 6.25 c 0.49245,0 0.875,-0.37924 0.875,-0.8674 v -6.19571 c 0,-0.48817 -0.38255,-0.8674 -0.875,-0.8674 z m 2.125,0.99131 h 2 v 3.96526 h -2 z m 0,4.95657 h 2 v 0.99131 h -2 z"
       class="warning" />
  </g>
</svg>
