<?xml version="1.0" encoding="UTF-8" standalone="no"?>
<svg
   xmlns:dc="http://purl.org/dc/elements/1.1/"
   xmlns:cc="http://creativecommons.org/ns#"
   xmlns:rdf="http://www.w3.org/1999/02/22-rdf-syntax-ns#"
   xmlns:svg="http://www.w3.org/2000/svg"
   xmlns="http://www.w3.org/2000/svg"
   width="16"
   version="1.1"
   id="svg7384"
   height="16">
  <metadata
     id="metadata90">
    <rdf:RDF>
      <cc:Work
         rdf:about="">
        <dc:format>image/svg+xml</dc:format>
        <dc:type
           rdf:resource="http://purl.org/dc/dcmitype/StillImage" />
        <dc:title>Gnome Symbolic Icon Theme</dc:title>
      </cc:Work>
    </rdf:RDF>
  </metadata>
  <title
     id="title9167">Gnome Symbolic Icon Theme</title>
  <defs
     id="defs7386" />
  <g
     transform="translate(-360.00021,-786)"
     style="display:inline"
     id="layer9" />
  <g
     transform="translate(-360.00021,-786)"
     style="display:inline"
     id="layer10" />
  <g
     transform="translate(-360.00021,-786)"
     id="layer11" />
  <g
     transform="translate(-360.00021,-786)"
     style="display:inline"
     id="layer13" />
  <g
     transform="translate(-360.00021,-786)"
     id="layer14" />
  <g
     transform="translate(-360.00021,-786)"
     style="display:inline"
     id="layer15" />
  <g
     transform="translate(-360.00021,-786)"
     style="display:inline"
     id="g71291" />
  <g
     transform="translate(-360.00021,-786)"
     style="display:inline"
     id="g4953" />
  <g
     transform="translate(-360.00021,-786)"
     style="display:inline"
     id="layer12">
    <path
       style="fill:#f1f2f2;fill-opacity:1;stroke:none"
       id="path9296"
       d="m 361.0002,786 v 2 c 0.55228,0 1,0.44772 1,1 0,0.55228 -0.44772,1 -1,1 v 1 c 0.55229,0 1,0.44772 1,1 0,0.55228 -0.44771,1 -1,1 v 1 c 0.55228,0 1,0.44772 1,1 0,0.55228 -0.44772,1 -1,1 v 1 c 0.55228,0 1,0.44772 1,1 0,0.55228 -0.44772,1 -1,1 v 2 h 2 c 0,-0.55228 0.44772,-1 1,-1 0.55228,0 1,0.44772 1,1 h 1 c 0,-0.55228 0.44772,-1 1,-1 0.55228,0 1,0.44772 1,1 h 1 c 0,-0.55228 0.44772,-1 1,-1 0.55229,0 1,0.44772 1,1 h 1 c 0,-0.55228 0.44771,-1 1,-1 0.55229,0 1,0.44772 1,1 h 2 v -2 c -0.55229,0 -1,-0.44772 -1,-1 0,-0.55228 0.44771,-1 1,-1 v -1 c -0.55229,0 -1,-0.44772 -1,-1 0,-0.55228 0.44771,-1 1,-1 v -1 c -0.55229,0 -1,-0.44772 -1,-1 0,-0.55228 0.44771,-1 1,-1 v -1 c -0.55229,0 -1,-0.44772 -1,-1 0,-0.55228 0.44771,-1 1,-1 v -2 h -2 c 0,0.55228 -0.44771,1 -1,1 -0.55229,0 -1,-0.44772 -1,-1 h -1 c 0,0.55228 -0.44771,1 -1,1 -0.55228,0 -1,-0.44772 -1,-1 h -1 c 0,0.55228 -0.44772,1 -1,1 -0.55228,0 -1,-0.44772 -1,-1 h -1 c 0,0.55228 -0.44772,1 -1,1 -0.55228,0 -1,-0.44772 -1,-1 z m 2,2 h 11 v 11 h -2 v -2.0625 c 0,-1.0667 -0.77865,-1.98042 -1.71875,-2.25 -0.49379,0.47964 -1.07039,0.6875 -1.78125,0.6875 -0.71086,0 -1.28746,-0.20786 -1.78125,-0.6875 -0.77657,0.27945 -1.71772,0.97676 -1.71875,2.21875 V 799 h -2 z" />
    <path
       id="path9298"
       d="M 52,342.5 A 2.5,2.5 0 0 1 49.5,345 2.5,2.5 0 0 1 47,342.5 2.5,2.5 0 0 1 49.5,340 2.5,2.5 0 0 1 52,342.5 Z"
       style="color:#f1f2f2;display:inline;overflow:visible;visibility:visible;fill:#f1f2f2;fill-opacity:1;fill-rule:nonzero;stroke:none;stroke-width:2;marker:none;enable-background:accumulate"
       transform="matrix(0.92307481,0,0,0.92307481,322.80799,476.15456)" />
  </g>
</svg>
