<?xml version="1.0" encoding="UTF-8" standalone="no"?>
<svg
   xmlns:dc="http://purl.org/dc/elements/1.1/"
   xmlns:cc="http://creativecommons.org/ns#"
   xmlns:rdf="http://www.w3.org/1999/02/22-rdf-syntax-ns#"
   xmlns:svg="http://www.w3.org/2000/svg"
   xmlns="http://www.w3.org/2000/svg"
   width="16"
   version="1.1"
   id="svg7384"
   height="16">
  <metadata
     id="metadata90">
    <rdf:RDF>
      <cc:Work
         rdf:about="">
        <dc:format>image/svg+xml</dc:format>
        <dc:type
           rdf:resource="http://purl.org/dc/dcmitype/StillImage" />
        <dc:title>Gnome Symbolic Icon Theme</dc:title>
      </cc:Work>
    </rdf:RDF>
  </metadata>
  <title
     id="title9167">Gnome Symbolic Icon Theme</title>
  <defs
     id="defs7386" />
  <g
     transform="translate(-60.99995,-277)"
     style="display:inline"
     id="layer9">
    <path
       style="color:#000000;font-style:normal;font-variant:normal;font-weight:normal;font-stretch:normal;font-size:medium;line-height:normal;font-family:Sans;-inkscape-font-specification:Sans;text-indent:0;text-align:start;text-decoration:none;text-decoration-line:none;letter-spacing:normal;word-spacing:normal;text-transform:none;writing-mode:lr-tb;direction:ltr;baseline-shift:baseline;text-anchor:start;display:inline;overflow:visible;visibility:visible;fill:#f1f2f2;fill-opacity:1;stroke:none;stroke-width:2;marker:none;enable-background:accumulate"
       id="path8282"
       d="m 70.875,286 a 1.0001,1.0001 0 0 0 -0.59375,0.28125 l -2,2 -0.6875,0.71875 0.6875,0.71875 2,2 a 1.016466,1.016466 0 1 0 1.4375,-1.4375 L 70.4375,289 71.71875,287.71875 A 1.0001,1.0001 0 0 0 70.875,286 Z" />
    <path
       style="color:#000000;font-style:normal;font-variant:normal;font-weight:normal;font-stretch:normal;font-size:medium;line-height:normal;font-family:Sans;-inkscape-font-specification:Sans;text-indent:0;text-align:start;text-decoration:none;text-decoration-line:none;letter-spacing:normal;word-spacing:normal;text-transform:none;writing-mode:lr-tb;direction:ltr;baseline-shift:baseline;text-anchor:start;display:inline;overflow:visible;visibility:visible;fill:#f1f2f2;fill-opacity:1;stroke:none;stroke-width:2;marker:none;enable-background:accumulate"
       id="path8284"
       d="M 62.0002,286.00549 V 287 c 0,1.6447 1.355297,3 3,3 h 1 v -2 h -1 c -0.571297,0 -1,-0.4287 -1,-1 v -0.98346 z M 70.007523,282 H 73.0002 c 0.571297,0 1,0.4287 1,1 v 4 c 0,0.5713 -0.428703,1 -1,1 h -4 v 2 h 4 c 1.644703,0 3,-1.3553 3,-3 v -4 c 0,-1.6447 -1.355297,-3 -3,-3 h -2.981628 z" />
    <path
       id="rect8286"
       d="m 71,286 h 1 v 1 h -1 z"
       style="color:#000000;display:inline;overflow:visible;visibility:visible;fill:#f1f2f2;fill-opacity:1;fill-rule:nonzero;stroke:none;stroke-width:2;marker:none;enable-background:accumulate" />
    <path
       id="rect8288"
       d="m 71,291 h 1 v 1 h -1 z"
       style="color:#000000;display:inline;overflow:visible;visibility:visible;fill:#f1f2f2;fill-opacity:1;fill-rule:nonzero;stroke:none;stroke-width:2;marker:none;enable-background:accumulate" />
    <path
       style="color:#000000;display:inline;overflow:visible;visibility:visible;fill:#f1f2f2;fill-opacity:1;fill-rule:nonzero;stroke:none;stroke-width:0.36104703;marker:none;enable-background:accumulate"
       id="path8290"
       d="m 65.0002,277 c -2.209143,0 -4,1.79086 -4,4 0,2.20915 1.790857,4 4,4 2.209143,0 4,-1.79085 4,-4 0,-2.20914 -1.790857,-4 -4,-4 z m -1,2 h 2 v 4 h -2 v -2 h -1 v -1 z" />
  </g>
  <g
     transform="translate(-60.99995,-277)"
     style="display:inline"
     id="layer10" />
  <g
     transform="translate(-60.99995,-277)"
     id="layer11" />
  <g
     transform="translate(-60.99995,-277)"
     style="display:inline"
     id="layer13" />
  <g
     transform="translate(-60.99995,-277)"
     id="layer14" />
  <g
     transform="translate(-60.99995,-277)"
     style="display:inline"
     id="layer15" />
  <g
     transform="translate(-60.99995,-277)"
     style="display:inline"
     id="g71291" />
  <g
     transform="translate(-60.99995,-277)"
     style="display:inline"
     id="g4953" />
  <g
     transform="translate(-60.99995,-277)"
     style="display:inline"
     id="layer12" />
</svg>
