<?xml version="1.0" encoding="UTF-8" standalone="no"?>
<svg
   xmlns:dc="http://purl.org/dc/elements/1.1/"
   xmlns:cc="http://creativecommons.org/ns#"
   xmlns:rdf="http://www.w3.org/1999/02/22-rdf-syntax-ns#"
   xmlns:svg="http://www.w3.org/2000/svg"
   xmlns="http://www.w3.org/2000/svg"
   width="16.000002"
   version="1.1"
   id="svg7384"
   height="16">
  <metadata
     id="metadata90">
    <rdf:RDF>
      <cc:Work
         rdf:about="">
        <dc:format>image/svg+xml</dc:format>
        <dc:type
           rdf:resource="http://purl.org/dc/dcmitype/StillImage" />
        <dc:title>Gnome Symbolic Icon Theme</dc:title>
      </cc:Work>
    </rdf:RDF>
  </metadata>
  <title
     id="title9167">Gnome Symbolic Icon Theme</title>
  <defs
     id="defs7386" />
  <g
     transform="translate(-121.0002,-487)"
     style="display:inline"
     id="layer9" />
  <g
     transform="translate(-121.0002,-487)"
     style="display:inline"
     id="layer10">
    <g
       transform="translate(60.000002,20)"
       id="g43190" />
    <path
       style="color:#f1f2f2;font-style:normal;font-variant:normal;font-weight:normal;font-stretch:normal;font-size:xx-small;line-height:normal;font-family:sans-serif;-inkscape-font-specification:sans-serif;text-indent:0;text-align:start;text-decoration:none;text-decoration-line:none;letter-spacing:normal;word-spacing:normal;text-transform:none;writing-mode:lr-tb;direction:ltr;baseline-shift:baseline;text-anchor:start;display:inline;overflow:visible;visibility:visible;fill:#f1f2f2;fill-opacity:1;fill-rule:nonzero;stroke:none;stroke-width:2;marker:none;enable-background:accumulate"
       id="rect3042"
       d="m 125.5627,489 c -0.84831,0 -1.5625,0.71419 -1.5625,1.5625 v 8.875 c 0,0.84832 0.71417,1.5625 1.5625,1.5625 h 7.875 c 0.84834,0 1.5625,-0.71416 1.5625,-1.5625 v -7.90625 L 132.5627,489 Z m 0.4375,2 h 6.125 l 0.875,0.9375 V 499 h -7 z" />
    <path
       style="color:#f1f2f2;display:inline;overflow:visible;visibility:visible;fill:#f1f2f2;fill-opacity:1;fill-rule:nonzero;stroke:none;stroke-width:2;marker:none;enable-background:accumulate"
       id="rect6261-6"
       d="m 127.9377,492 c -0.51728,0 -0.9375,0.42022 -0.9375,0.9375 v 2.03125 c 0,0.51727 0.42022,0.9375 0.9375,0.9375 h 0.0625 V 493 h 1 v 2.90625 h 2.0625 c 0.51728,0 0.9375,-0.42023 0.9375,-0.9375 v -2.03125 c 0,-0.51728 -0.42022,-0.9375 -0.9375,-0.9375 h -0.0625 v 3.03125 h -1 V 492 Z" />
  </g>
  <g
     transform="translate(-121.0002,-487)"
     id="layer11" />
  <g
     transform="translate(-121.0002,-487)"
     style="display:inline"
     id="layer13" />
  <g
     transform="translate(-121.0002,-487)"
     id="layer14" />
  <g
     transform="translate(-121.0002,-487)"
     style="display:inline"
     id="layer15" />
  <g
     transform="translate(-121.0002,-487)"
     style="display:inline"
     id="g71291" />
  <g
     transform="translate(-121.0002,-487)"
     style="display:inline"
     id="g4953" />
  <g
     transform="translate(-121.0002,-487)"
     style="display:inline"
     id="layer12" />
</svg>
