<?xml version="1.0" encoding="UTF-8" standalone="no"?>
<svg
   xmlns:dc="http://purl.org/dc/elements/1.1/"
   xmlns:cc="http://creativecommons.org/ns#"
   xmlns:rdf="http://www.w3.org/1999/02/22-rdf-syntax-ns#"
   xmlns:svg="http://www.w3.org/2000/svg"
   xmlns="http://www.w3.org/2000/svg"
   width="16.000002"
   version="1.1"
   id="svg7384"
   height="16">
  <metadata
     id="metadata90">
    <rdf:RDF>
      <cc:Work
         rdf:about="">
        <dc:format>image/svg+xml</dc:format>
        <dc:type
           rdf:resource="http://purl.org/dc/dcmitype/StillImage" />
        <dc:title>Gnome Symbolic Icon Theme</dc:title>
      </cc:Work>
    </rdf:RDF>
  </metadata>
  <title
     id="title9167">Gnome Symbolic Icon Theme</title>
  <defs
     id="defs7386" />
  <g
     transform="translate(-341.0002,-727)"
     style="display:inline"
     id="layer9" />
  <g
     transform="translate(-341.0002,-727)"
     style="display:inline"
     id="layer10" />
  <g
     transform="translate(-341.0002,-727)"
     id="layer11" />
  <g
     transform="translate(-341.0002,-727)"
     style="display:inline"
     id="layer13" />
  <g
     transform="translate(-341.0002,-727)"
     id="layer14" />
  <g
     transform="translate(-341.0002,-727)"
     style="display:inline"
     id="layer15" />
  <g
     transform="translate(-341.0002,-727)"
     style="display:inline"
     id="g71291" />
  <g
     transform="translate(-341.0002,-727)"
     style="display:inline"
     id="g4953" />
  <g
     transform="translate(-341.0002,-727)"
     style="display:inline"
     id="layer12">
    <path
       style="fill:#f1f2f2;fill-opacity:1;stroke:none"
       id="path8268-0"
       d="m 343.5002,730 c -1.385,0 -2.5,1.11499 -2.5,2.5 v 5 c 0,1.385 1.115,2.5 2.5,2.5 h 7.0625 c 1.38501,0 2.48022,-1.11514 2.5,-2.5 v -2.375 L 357.0002,732 h -4 c -0.23235,-1.14125 -1.22562,-2 -2.4375,-2 z m -0.5,5 h 8 v 1 h -8 z m 0,2 h 5 v 1 h -5 z" />
  </g>
</svg>
