<?xml version="1.0" encoding="UTF-8" standalone="no"?>
<svg
   xmlns:dc="http://purl.org/dc/elements/1.1/"
   xmlns:cc="http://creativecommons.org/ns#"
   xmlns:rdf="http://www.w3.org/1999/02/22-rdf-syntax-ns#"
   xmlns:svg="http://www.w3.org/2000/svg"
   xmlns="http://www.w3.org/2000/svg"
   width="16"
   height="16"
   version="1.1"
   id="svg7384">
  <metadata
     id="metadata90">
    <rdf:RDF>
      <cc:Work
         rdf:about="">
        <dc:format>image/svg+xml</dc:format>
        <dc:type
           rdf:resource="http://purl.org/dc/dcmitype/StillImage" />
        <dc:title>Gnome Symbolic Icon Theme</dc:title>
      </cc:Work>
    </rdf:RDF>
  </metadata>
  <title
     id="title9167">Gnome Symbolic Icon Theme</title>
  <defs
     id="defs7386" />
  <g
     style="display:inline"
     id="layer9"
     transform="translate(-60.000202,-606)" />
  <g
     id="layer10"
     transform="translate(-60.000202,-606)" />
  <g
     id="layer11"
     transform="translate(-60.000202,-606)" />
  <g
     id="layer12"
     transform="translate(-60.000202,-606)">
    <g
       style="display:inline"
       id="g3940"
       transform="translate(39.99995,119)">
      <path
         style="color:#000000;font-style:normal;font-variant:normal;font-weight:normal;font-stretch:normal;font-size:medium;line-height:normal;font-family:'Bitstream Vera Sans';-inkscape-font-specification:'Bitstream Vera Sans';text-indent:0;text-align:start;text-decoration:none;text-decoration-line:none;letter-spacing:normal;word-spacing:normal;text-transform:none;writing-mode:lr-tb;direction:ltr;text-anchor:start;display:inline;overflow:visible;visibility:visible;fill:#f1f2f2;fill-opacity:1;fill-rule:nonzero;stroke:none;stroke-width:2;marker:none;enable-background:accumulate"
         id="path3807-1-1-4-7-2"
         d="m 34.00005,491 c -0.177384,0.008 -0.351174,0.0592 -0.5,0.15625 l -5,3 c -0.282396,0.17971 -0.4375,0.51173 -0.4375,0.84375 0,0.33202 0.155104,0.66404 0.4375,0.84375 l 5,3 c 0.148826,0.097 0.322616,0.14825 0.5,0.15625 h 0.15625 0.84375 v -8 H 34.1563 Z" />
      <path
         style="color:#000000;font-style:normal;font-variant:normal;font-weight:normal;font-stretch:normal;font-size:medium;line-height:normal;font-family:'Bitstream Vera Sans';-inkscape-font-specification:'Bitstream Vera Sans';text-indent:0;text-align:start;text-decoration:none;text-decoration-line:none;letter-spacing:normal;word-spacing:normal;text-transform:none;writing-mode:lr-tb;direction:ltr;text-anchor:start;display:inline;overflow:visible;visibility:visible;fill:#f1f2f2;fill-opacity:1;fill-rule:nonzero;stroke:none;stroke-width:2;marker:none;enable-background:accumulate"
         id="path3807-1-1-4-7-2-0"
         d="m 27.00005,491 c -0.177384,0.008 -0.351174,0.0592 -0.5,0.15625 l -5,3 c -0.282396,0.17971 -0.4375,0.51173 -0.4375,0.84375 0,0.33202 0.155104,0.66404 0.4375,0.84375 l 5,3 c 0.148826,0.097 0.322616,0.14825 0.5,0.15625 h 0.15625 0.84375 v -8 H 27.1563 Z" />
    </g>
  </g>
  <g
     id="layer13"
     transform="translate(-60.000202,-606)" />
  <g
     id="layer14"
     transform="translate(-60.000202,-606)" />
  <g
     style="display:inline"
     id="layer15"
     transform="translate(-60.000202,-606)" />
</svg>
