<?xml version="1.0" encoding="UTF-8" standalone="no"?>
<svg
   xmlns:dc="http://purl.org/dc/elements/1.1/"
   xmlns:cc="http://creativecommons.org/ns#"
   xmlns:rdf="http://www.w3.org/1999/02/22-rdf-syntax-ns#"
   xmlns:svg="http://www.w3.org/2000/svg"
   xmlns="http://www.w3.org/2000/svg"
   width="16.0002"
   version="1.1"
   id="svg7384"
   height="16.001099">
  <metadata
     id="metadata90">
    <rdf:RDF>
      <cc:Work
         rdf:about="">
        <dc:format>image/svg+xml</dc:format>
        <dc:type
           rdf:resource="http://purl.org/dc/dcmitype/StillImage" />
        <dc:title>Gnome Symbolic Icon Theme</dc:title>
      </cc:Work>
    </rdf:RDF>
  </metadata>
  <title
     id="title9167">Gnome Symbolic Icon Theme</title>
  <defs
     id="defs7386">
    <clipPath
       id="clipPath6810-7-87"
       clipPathUnits="userSpaceOnUse">
      <rect
         y="281"
         x="21"
         width="14"
         style="color:#f1f2f2;fill:none;stroke:#ffffff;stroke-width:2;stroke-linecap:round;stroke-linejoin:round;stroke-miterlimit:4;stroke-opacity:1;stroke-dasharray:none;stroke-dashoffset:0;marker:none;visibility:visible;display:inline;overflow:visible"
         id="rect6812-2-4"
         height="11" />
    </clipPath>
  </defs>
  <g
     transform="translate(-121,-197)"
     style="display:inline"
     id="layer9">
    <path
       id="rect12235"
       d="m 126.5,197.98712 c 1.385,0 2.5,1.115 2.5,2.5 V 205.5 c 0,1.385 -1.115,2.5 -2.5,2.5 -1.385,0 -2.5,-1.115 -2.5,-2.5 v -5.01288 c 0,-1.385 1.115,-2.5 2.5,-2.5 z"
       style="color:#f1f2f2;display:inline;overflow:visible;visibility:visible;fill:#f1f2f2;fill-opacity:1;fill-rule:nonzero;stroke:none;stroke-width:2;marker:none" />
    <path
       transform="matrix(0.993968,0,0,1,98.706899,-78.486135)"
       style="color:#f1f2f2;font-style:normal;font-variant:normal;font-weight:normal;font-stretch:normal;font-size:medium;line-height:normal;font-family:Sans;-inkscape-font-specification:Sans;text-indent:0;text-align:start;text-decoration:none;text-decoration-line:none;letter-spacing:normal;word-spacing:normal;text-transform:none;writing-mode:lr-tb;direction:ltr;baseline-shift:baseline;text-anchor:start;display:inline;overflow:visible;visibility:visible;fill:#f1f2f2;fill-opacity:1;stroke:none;stroke-width:1.00302994;marker:none;enable-background:accumulate"
       id="rect12237"
       d="m 27.96875,273.625 c -2.502477,0 -4.53125,2.02877 -4.53125,4.53125 v 5.8125 c 0,2.50248 2.028773,4.53125 4.53125,4.53125 2.502477,0 4.53125,-2.02877 4.53125,-4.53125 v -5.8125 c 0,-2.50248 -2.028773,-4.53125 -4.53125,-4.53125 z m 0,1 c 1.964148,0 3.53125,1.5671 3.53125,3.53125 v 5.8125 c 0,1.96415 -1.567102,3.53125 -3.53125,3.53125 -1.964148,0 -3.53125,-1.5671 -3.53125,-3.53125 v -5.8125 c 0,-1.96415 1.567102,-3.53125 3.53125,-3.53125 z"
       clip-path="url(#clipPath6810-7-87)" />
    <path
       id="path12239"
       d="m 24,361 a 1,1 0 0 1 -1,1 1,1 0 0 1 -1,-1 1,1 0 0 1 1,-1 1,1 0 0 1 1,1 z"
       style="color:#f1f2f2;display:inline;overflow:visible;visibility:visible;fill:#f1f2f2;fill-opacity:1;stroke:none;stroke-width:2;marker:none"
       transform="matrix(0.5,0,0,0.5,111,22)" />
    <path
       id="path12241"
       d="m 24,361 a 1,1 0 0 1 -1,1 1,1 0 0 1 -1,-1 1,1 0 0 1 1,-1 1,1 0 0 1 1,1 z"
       style="color:#f1f2f2;display:inline;overflow:visible;visibility:visible;fill:#f1f2f2;fill-opacity:1;stroke:none;stroke-width:2;marker:none"
       transform="matrix(0.5,0,0,0.5,119,22)" />
    <path
       style="color:#f1f2f2;font-style:normal;font-variant:normal;font-weight:normal;font-stretch:normal;font-size:medium;line-height:normal;font-family:Sans;-inkscape-font-specification:Sans;text-indent:0;text-align:start;text-decoration:none;text-decoration-line:none;letter-spacing:normal;word-spacing:normal;text-transform:none;writing-mode:lr-tb;direction:ltr;baseline-shift:baseline;text-anchor:start;display:inline;overflow:visible;visibility:visible;fill:#f1f2f2;fill-opacity:1;stroke:none;stroke-width:2;marker:none;enable-background:accumulate"
       id="path12243"
       d="M 122.90625,211 A 1.001098,1.001098 0 1 0 123,213 h 7 a 1.0001,1.0001 0 1 0 0,-2 h -7 a 1.0001,1.0001 0 0 0 -0.0937,0 z" />
    <path
       id="rect12245"
       d="m 122,212 h 9.0002 v 1 H 122 Z"
       style="color:#f1f2f2;display:inline;overflow:visible;visibility:visible;fill:#f1f2f2;fill-opacity:1;stroke:none;stroke-width:1;marker:none" />
    <path
       id="rect12247"
       d="m 125,209 h 3 v 4 h -3 z"
       style="color:#f1f2f2;display:inline;overflow:visible;visibility:visible;fill:#f1f2f2;fill-opacity:1;stroke:none;stroke-width:1;marker:none" />
    <path
       style="color:#000000;font-style:normal;font-variant:normal;font-weight:normal;font-stretch:normal;font-size:medium;line-height:normal;font-family:Sans;-inkscape-font-specification:Sans;text-indent:0;text-align:start;text-decoration:none;text-decoration-line:none;letter-spacing:normal;word-spacing:normal;text-transform:none;writing-mode:lr-tb;direction:ltr;baseline-shift:baseline;text-anchor:start;display:inline;overflow:visible;visibility:visible;opacity:0.5;fill:#f1f2f2;fill-opacity:1;stroke:none;stroke-width:1.29166746;marker:none;enable-background:accumulate"
       id="path12249"
       d="m 134.0002,197.99193 c -1.09865,0 -2.00806,0.90942 -2.00806,2.00807 0,1.09865 0.90941,2.00806 2.00806,2.00806 1.09865,0 2.00806,-0.90941 2.00806,-2.00806 0,-1.09865 -0.90941,-2.00807 -2.00806,-2.00807 z m 0,1.01613 c 0.55821,0 0.99193,0.43373 0.99193,0.99194 0,0.55821 -0.43372,0.99193 -0.99193,0.99193 -0.55821,0 -0.99193,-0.43372 -0.99193,-0.99193 0,-0.55821 0.43372,-0.99194 0.99193,-0.99194 z" />
    <path
       style="color:#000000;font-style:normal;font-variant:normal;font-weight:normal;font-stretch:normal;font-size:medium;line-height:normal;font-family:Sans;-inkscape-font-specification:Sans;text-indent:0;text-align:start;text-decoration:none;text-decoration-line:none;letter-spacing:normal;word-spacing:normal;text-transform:none;writing-mode:lr-tb;direction:ltr;baseline-shift:baseline;text-anchor:start;display:inline;overflow:visible;visibility:visible;opacity:0.5;fill:#f1f2f2;fill-opacity:1;stroke:none;stroke-width:1.29166651;marker:none;enable-background:accumulate"
       id="path12253"
       d="m 134.00019,202.99193 c -1.09865,0 -2.00806,0.90941 -2.00806,2.00806 0,1.09865 0.90941,2.00807 2.00806,2.00807 1.09865,0 2.00807,-0.90942 2.00807,-2.00807 0,-1.09865 -0.90942,-2.00806 -2.00807,-2.00806 z m 0,1.01613 c 0.55821,0 0.99194,0.43373 0.99194,0.99193 0,0.55821 -0.43373,0.99194 -0.99194,0.99194 -0.55821,0 -0.99193,-0.43373 -0.99193,-0.99194 0,-0.5582 0.43372,-0.99193 0.99193,-0.99193 z" />
    <path
       style="color:#f1f2f2;display:inline;overflow:visible;visibility:visible;fill:#cc0000;fill-opacity:1;stroke:none;stroke-width:2;marker:none"
       id="path3761-2-3-5-4-8-9-8-0-9-0-4"
       d="m 132.0002,208 h 1.375 l 1.125,1.09375 L 135.59395,208 h 1.40625 v 1.46875 l -1.09375,1.0625 1.09375,1.0625 V 213 h -1.4375 l -1.0625,-1.0625 -1.0625,1.0625 h -1.4375 v -1.40625 l 1.0625,-1.0625 -1.0625,-1.0625 z" />
  </g>
  <g
     transform="translate(-121,-197)"
     style="display:inline"
     id="layer10" />
  <g
     transform="translate(-121,-197)"
     id="layer11" />
  <g
     transform="translate(-121,-197)"
     style="display:inline"
     id="layer13" />
  <g
     transform="translate(-121,-197)"
     id="layer14" />
  <g
     transform="translate(-121,-197)"
     style="display:inline"
     id="layer15" />
  <g
     transform="translate(-121,-197)"
     style="display:inline"
     id="g71291" />
  <g
     transform="translate(-121,-197)"
     style="display:inline"
     id="g4953" />
  <g
     transform="translate(-121,-197)"
     style="display:inline"
     id="layer12" />
</svg>
