<svg xmlns="http://www.w3.org/2000/svg" version="1.1" viewBox="0 0 16 16"><g fill="#f1f2f2"><path d="m0 1l0.003 1.807 0.004 1.867 0.041 0.087c0.053 0.11 0.137 0.196 0.248 0.248l0.087 0.041 4.89 0.007c4.597 0.006 4.871 0.008 4.987 0.03 0.403 0.074 0.72 0.2 0.99 0.394 0.118 0.085 0.306 0.275 0.391 0.395 0.166 0.235 0.28 0.356 0.32 0.7 0.008 0.076 0.013 1.334 0.014 3.39 0 1.961 0.005 3.18 0.013 3.257 0.064 0.622 0.35 1.116 0.834 1.44 0.267 0.18 0.605 0.295 0.947 0.323 0.074 0.006 0.425 0.011 0.995 0.012l1.236 0.002v-5.096c0-3.337-0.005-5.16-0.014-5.284a5.2 5.2 0 0 0 -0.098 -0.7c-0.317-1.424-1.316-2.386-2.881-2.776a6.346 6.346 0 0 0 -0.624 -0.111 1.057 1.057 0 0 1 -0.11 -0.017c-0.018-0.005-2.787-0.01-6.153-0.013z"/><path d="m0 7v3.057c0.001 3.27 0 3.184 0.065 3.447 0.1 0.399 0.309 0.757 0.585 0.999 0.324 0.283 0.713 0.445 1.158 0.483 0.07 0.006 0.591 0.01 1.16 0.012l1.032 0.002v-8h-4z"/><path d="m6 7v8h4v-8h-2z"/></g></svg>
