<svg xmlns="http://www.w3.org/2000/svg" viewBox="0 0 4.2333333 4.2333333">
    <path d="M2.017 0c-.21.004-.414.02-.585.049-.171.028-.31.073-.37.11C.998.199.88.319.76.48a5.118 5.118 0 0 0-.36.574c-.113.21-.216.427-.288.618A1.54 1.54 0 0 0 0 2.116c0 .143.15.54.359.917.137.247.288.475.435.67.005-.17.004-.376.014-.544.009-.155.019-.35.03-.458a2.108 2.108 0 0 1 .029-.191c.005-.017.002-.032.034-.071a.185.185 0 0 1 .148-.062c.1.007.128.057.16.097.034.04.063.087.095.143.065.11.136.253.21.406.148.307.312.714.424.884.084.127.137.226.175.273.039.048.039.053.105.052a4.2 4.2 0 0 0 .585-.049c.17-.028.309-.072.368-.108.065-.04.183-.16.302-.323.119-.161.246-.364.36-.574.114-.21.216-.427.288-.617a1.51 1.51 0 0 0 .112-.445c0-.142-.15-.54-.357-.915A5.844 5.844 0 0 0 3.44.529c-.006.17-.004.43-.014.598a9.932 9.932 0 0 1-.03.404 2.11 2.11 0 0 1-.028.192c-.005.017-.002.031-.035.072a.185.185 0 0 1-.147.06c-.1-.006-.128-.057-.161-.097a1.066 1.066 0 0 1-.095-.142 6.198 6.198 0 0 1-.21-.407C2.573.902 2.408.495 2.296.325 2.212.198 2.16.1 2.121.052 2.083.005 2.081 0 2.018 0z" fill="#f1f2f2" paint-order="markers stroke fill"/>
</svg>
