<?xml version="1.0" encoding="UTF-8" standalone="no"?>
<svg
   xmlns:dc="http://purl.org/dc/elements/1.1/"
   xmlns:cc="http://creativecommons.org/ns#"
   xmlns:rdf="http://www.w3.org/1999/02/22-rdf-syntax-ns#"
   xmlns:svg="http://www.w3.org/2000/svg"
   xmlns="http://www.w3.org/2000/svg"
   width="16"
   version="1.1"
   id="svg7384"
   height="16">
  <metadata
     id="metadata90">
    <rdf:RDF>
      <cc:Work
         rdf:about="">
        <dc:format>image/svg+xml</dc:format>
        <dc:type
           rdf:resource="http://purl.org/dc/dcmitype/StillImage" />
        <dc:title>Gnome Symbolic Icon Theme</dc:title>
      </cc:Work>
    </rdf:RDF>
  </metadata>
  <title
     id="title9167">Gnome Symbolic Icon Theme</title>
  <defs
     id="defs7386">
    <clipPath
       id="clipPath6254"
       clipPathUnits="userSpaceOnUse">
      <rect
         y="221.50153"
         x="26.998718"
         width="1.876245"
         style="color:#f1f2f2;fill:#f1f2f2;fill-opacity:1;stroke:none;stroke-width:2;marker:none;visibility:visible;display:inline;overflow:visible"
         id="rect6256"
         height="4.8783236" />
    </clipPath>
    <clipPath
       id="clipPath6258"
       clipPathUnits="userSpaceOnUse">
      <rect
         y="221.28162"
         x="26.965673"
         width="2.8977275"
         style="color:#f1f2f2;fill:#f1f2f2;fill-opacity:1;fill-rule:nonzero;stroke:none;stroke-width:2;marker:none;visibility:visible;display:inline;overflow:visible"
         id="rect6260"
         height="5.3129687" />
    </clipPath>
    <clipPath
       id="clipPath6262"
       clipPathUnits="userSpaceOnUse">
      <rect
         y="220.75"
         x="26.849981"
         width="3.8250003"
         style="color:#f1f2f2;fill:#f1f2f2;fill-opacity:1;fill-rule:nonzero;stroke:none;stroke-width:2;marker:none;visibility:visible;display:inline;overflow:visible"
         id="rect6264"
         height="6.3750005" />
    </clipPath>
  </defs>
  <g
     transform="translate(-41.0002,-488)"
     style="display:inline"
     id="layer9" />
  <g
     transform="translate(-41.0002,-488)"
     style="display:inline"
     id="layer10">
    <path
       transform="matrix(0,-0.784314,0.94117704,0,-161.76464,519.059)"
       style="color:#000000;font-style:normal;font-variant:normal;font-weight:normal;font-stretch:normal;font-size:medium;line-height:normal;font-family:Sans;-inkscape-font-specification:Sans;text-indent:0;text-align:start;text-decoration:none;text-decoration-line:none;letter-spacing:normal;word-spacing:normal;text-transform:none;writing-mode:lr-tb;direction:ltr;baseline-shift:baseline;text-anchor:start;display:inline;overflow:visible;visibility:visible;fill:#f1f2f2;fill-opacity:1;stroke:none;stroke-width:2.32782054;marker:none;enable-background:accumulate"
       id="path6233"
       d="m 27.0625,220.5 a 1.1640267,1.1640267 0 0 0 -0.6875,2 c 0.800009,0.80001 0.800009,2.07499 0,2.875 A 1.1640267,1.1640267 0 1 0 28,227 c 1.689583,-1.68958 1.689583,-4.43542 0,-6.125 A 1.1640267,1.1640267 0 0 0 27.0625,220.5 Z"
       clip-path="url(#clipPath6262)" />
    <path
       transform="matrix(0,-1.72549,1.8821873,0,-372.49324,542.529)"
       style="color:#000000;font-style:normal;font-variant:normal;font-weight:normal;font-stretch:normal;font-size:medium;line-height:normal;font-family:Sans;-inkscape-font-specification:Sans;text-indent:0;text-align:start;text-decoration:none;text-decoration-line:none;letter-spacing:normal;word-spacing:normal;text-transform:none;writing-mode:lr-tb;direction:ltr;baseline-shift:baseline;text-anchor:start;display:inline;overflow:visible;visibility:visible;fill:#f1f2f2;fill-opacity:1;stroke:none;stroke-width:1.10979295;marker:none;enable-background:accumulate"
       id="path6235"
       d="m 27.0625,221.125 a 0.55495196,0.55495196 0 0 0 -0.25,0.9375 c 1.032743,1.03274 1.032743,2.71726 0,3.75 a 0.55495196,0.55495196 0 1 0 0.78125,0.78125 c 1.456849,-1.45685 1.456849,-3.85565 0,-5.3125 A 0.55495196,0.55495196 0 0 0 27.0625,221.125 Z"
       clip-path="url(#clipPath6258)" />
    <path
       transform="matrix(0,-2.66667,2.8685171,0,-593.37427,566)"
       style="color:#000000;font-style:normal;font-variant:normal;font-weight:normal;font-stretch:normal;font-size:medium;line-height:normal;font-family:Sans;-inkscape-font-specification:Sans;text-indent:0;text-align:start;text-decoration:none;text-decoration-line:none;letter-spacing:normal;word-spacing:normal;text-transform:none;writing-mode:lr-tb;direction:ltr;baseline-shift:baseline;text-anchor:start;display:inline;overflow:visible;visibility:visible;fill:#f1f2f2;fill-opacity:1;stroke:none;stroke-width:0.7231313;marker:none;enable-background:accumulate"
       id="path6237"
       d="m 27.125,221.3125 a 0.36160181,0.36160181 0 0 0 -0.21875,0.59375 0.36160181,0.36160181 0 0 0 0.03125,0.0312 c 1.106624,1.10662 1.106624,2.89338 0,4 a 0.36160181,0.36160181 0 1 0 0.5,0.5 c 1.382968,-1.38297 1.382968,-3.61703 0,-5 a 0.36160181,0.36160181 0 0 0 -0.3125,-0.125 z"
       clip-path="url(#clipPath6254)" />
    <path
       id="path6241"
       d="m 29,209 a 1,1 0 0 1 -1,1 1,1 0 0 1 -1,-1 1,1 0 0 1 1,-1 1,1 0 0 1 1,1 z"
       clip-path="none"
       style="display:inline;fill:#f1f2f2;fill-opacity:1;stroke:none"
       transform="matrix(1.9999995,0,0,1.9999995,-6.999785,83.0001)" />
  </g>
  <g
     transform="translate(-41.0002,-488)"
     id="layer11" />
  <g
     transform="translate(-41.0002,-488)"
     style="display:inline"
     id="layer13" />
  <g
     transform="translate(-41.0002,-488)"
     id="layer14" />
  <g
     transform="translate(-41.0002,-488)"
     style="display:inline"
     id="layer15" />
  <g
     transform="translate(-41.0002,-488)"
     style="display:inline"
     id="g71291" />
  <g
     transform="translate(-41.0002,-488)"
     style="display:inline"
     id="g4953" />
  <g
     transform="translate(-41.0002,-488)"
     style="display:inline"
     id="layer12" />
</svg>
