<?xml version="1.0" encoding="UTF-8" standalone="no"?>
<svg
   xmlns:osb="http://www.openswatchbook.org/uri/2009/osb"
   xmlns:dc="http://purl.org/dc/elements/1.1/"
   xmlns:cc="http://creativecommons.org/ns#"
   xmlns:rdf="http://www.w3.org/1999/02/22-rdf-syntax-ns#"
   xmlns:svg="http://www.w3.org/2000/svg"
   xmlns="http://www.w3.org/2000/svg"
   width="16"
   version="1.1"
   id="svg7384"
   height="16">
  <metadata
     id="metadata90">
    <rdf:RDF>
      <cc:Work
         rdf:about="">
        <dc:format>image/svg+xml</dc:format>
        <dc:type
           rdf:resource="http://purl.org/dc/dcmitype/StillImage" />
        <dc:title>Gnome Symbolic Icon Theme</dc:title>
      </cc:Work>
    </rdf:RDF>
  </metadata>
  <title
     id="title9167">Gnome Symbolic Icon Theme</title>
  <defs
     id="defs7386">
    <clipPath
       id="clipPath8028"
       clipPathUnits="userSpaceOnUse">
      <path
         style="fill:none;stroke:#000000;stroke-width:1px;stroke-linecap:butt;stroke-linejoin:miter;stroke-opacity:1"
         id="path8030"
         d="m -73,-30 -7,-7 0,-4.5 16.5,0 0,4.5 -7.5,7 z" />
    </clipPath>
    <linearGradient
       osb:paint="solid"
       id="linearGradient19282"
       gradientTransform="matrix(-2.7365795,0.28202934,-0.18908311,-0.99988321,239.54008,-879.45557)">
      <stop
         style="stop-color:#666666;stop-opacity:1;"
         offset="0"
         id="stop19284" />
    </linearGradient>
  </defs>
  <g
     transform="translate(-181.0002,-177)"
     style="display:inline"
     id="layer9">
    <path
       transform="translate(261.0002,217)"
       style="color:#000000;font-style:normal;font-variant:normal;font-weight:normal;font-stretch:normal;font-size:medium;line-height:normal;font-family:Sans;-inkscape-font-specification:Sans;text-indent:0;text-align:start;text-decoration:none;text-decoration-line:none;letter-spacing:normal;word-spacing:normal;text-transform:none;writing-mode:lr-tb;direction:ltr;baseline-shift:baseline;text-anchor:start;display:inline;overflow:visible;visibility:visible;opacity:0.35;fill:#f1f2f2;fill-opacity:1;fill-rule:nonzero;stroke:none;stroke-width:0.7231313;marker:none;enable-background:accumulate"
       id="path6438"
       d="m -72,-38 v 1 h 1 v -0.96875 C -71.323493,-37.99603 -71.659974,-38 -72,-38 Z m 1,1 v 1 h 1 v -1 z m 1,0 h 1 v -0.59375 c -0.325389,-0.09548 -0.651632,-0.155871 -1,-0.21875 z m 1,0 v 1 h 1 v -1 z m 1,0 h 0.5 c -0.165334,-0.08409 -0.326508,-0.144584 -0.5,-0.21875 z m 0,1 v 1 h 1 v -1 z m 1,0 h 1 v 1 h 1 c -0.558128,-0.671658 -1.230995,-1.257248 -2,-1.71875 z m 2,1 v 1 h -1 v 1 h -1 v 1 h -1 v 1 h -1 v 1 h -1 v -1 h -1 v 1 h -1 v -1 h -1 v 1 h -1 v -1 h -1 v -1 h -1 v -1 h -1 v -1 h -1 v -1 h -0.5625 c -1.565675,1.851407 -0.4375,4.375987 -0.4375,7 0,5.2155 1.38973,6 7,6 5.61027,0 7,-0.7845 7,-6 0,-2.373824 1.295521,-5.440954 0,-7 z m -13,0 h 1 v -1 h -0.5625 c -0.144921,0.123613 -0.301098,0.242063 -0.4375,0.375 z m 1,-1 h 1 v -1 h -0.0625 c -0.328078,0.173814 -0.639372,0.348926 -0.9375,0.5625 z m 1,-1 h 1 v -0.5 c -0.346235,0.124586 -0.680795,0.303191 -1,0.46875 z m 1,0 v 1 h 1 v -1 z m 1,0 h 1 v -0.9375 c -0.343576,0.03632 -0.675775,0.08361 -1,0.15625 z m 1,0 v 1 h 1 v -1 z m 1,1 v 1 h 1 v -1 z m 1,1 v 1 h 1 v -1 z m 1,0 h 1 v -1 h -1 z m 1,0 v 1 h 1 v -1 z m 1,1 v 1 h 1 v -1 z m 1,0 h 1 v -1 h -1 z m -1,1 h -1 v 1 h 1 z m -1,1 h -1 v 1 h 1 z m -1,0 v -1 h -1 v 1 z m -1,0 h -1 v 1 h 1 z m -1,0 v -1 h -1 v 1 z m -1,0 h -1 v 1 h 1 z m -1,0 v -1 h -1 v 1 z m -1,-1 v -1 h -1 v 1 z m -1,-1 v -1 h -1 v 1 z m 0,-1 h 1 v -1 h -1 z m 1,0 v 1 h 1 v -1 z m 1,0 h 1 v -1 h -1 z m 1,0 v 1 h 1 v -1 z m 1,1 v 1 h 1 v -1 z m -1,0 h -1 v 1 h 1 z m 3,1 h 1 v -1 h -1 z"
       clip-path="url(#clipPath8028)" />
    <path
       style="color:#f1f2f2;display:inline;overflow:visible;visibility:visible;fill:none;stroke:none;stroke-width:1;marker:none"
       id="rect6440"
       d="m 181.0002,193 v -16 h 16 v 16 z"
       clip-path="none" />
    <path
       style="display:inline;fill:#f1f2f2;fill-opacity:1;stroke:none"
       id="path6442"
       d="m 191.0002,190 c 0,1.10456 -0.89543,1.99999 -2,1.99999 -1.10457,0 -2,-0.89543 -2,-1.99999 0,-1.10456 0.89543,-2 2,-2 1.10457,0 2,0.89544 2,2 z"
       clip-path="none" />
  </g>
  <g
     transform="translate(-181.0002,-177)"
     style="display:inline"
     id="layer10" />
  <g
     transform="translate(-181.0002,-177)"
     id="layer11" />
  <g
     transform="translate(-181.0002,-177)"
     style="display:inline"
     id="layer13" />
  <g
     transform="translate(-181.0002,-177)"
     id="layer14" />
  <g
     transform="translate(-181.0002,-177)"
     style="display:inline"
     id="layer15" />
  <g
     transform="translate(-181.0002,-177)"
     style="display:inline"
     id="g71291" />
  <g
     transform="translate(-181.0002,-177)"
     style="display:inline"
     id="g4953" />
  <g
     transform="translate(-181.0002,-177)"
     style="display:inline"
     id="layer12" />
</svg>
