<?xml version="1.0" encoding="UTF-8" standalone="no"?>
<svg
   xmlns:osb="http://www.openswatchbook.org/uri/2009/osb"
   xmlns:dc="http://purl.org/dc/elements/1.1/"
   xmlns:cc="http://creativecommons.org/ns#"
   xmlns:rdf="http://www.w3.org/1999/02/22-rdf-syntax-ns#"
   xmlns:svg="http://www.w3.org/2000/svg"
   xmlns="http://www.w3.org/2000/svg"
   width="16"
   version="1.1"
   id="svg7384"
   height="16">
  <metadata
     id="metadata90">
    <rdf:RDF>
      <cc:Work
         rdf:about="">
        <dc:format>image/svg+xml</dc:format>
        <dc:type
           rdf:resource="http://purl.org/dc/dcmitype/StillImage" />
        <dc:title>Gnome Symbolic Icon Theme</dc:title>
      </cc:Work>
    </rdf:RDF>
  </metadata>
  <title
     id="title9167">Gnome Symbolic Icon Theme</title>
  <defs
     id="defs7386">
    <linearGradient
       osb:paint="solid"
       id="linearGradient19282"
       gradientTransform="matrix(-2.7365795,0.28202934,-0.18908311,-0.99988321,239.54008,-879.45557)">
      <stop
         style="stop-color:#666666;stop-opacity:1;"
         offset="0"
         id="stop19284" />
    </linearGradient>
  </defs>
  <g
     transform="translate(-161.0002,-177)"
     style="display:inline"
     id="layer9">
    <path
       id="path6125"
       d="m 171.0002,190 a 1.9999995,1.9999995 0 0 1 -2,2 1.9999995,1.9999995 0 0 1 -2,-2 1.9999995,1.9999995 0 0 1 2,-2 1.9999995,1.9999995 0 0 1 2,2 z"
       style="color:#000000;clip-rule:nonzero;display:inline;overflow:visible;visibility:visible;opacity:0.32000002;isolation:auto;mix-blend-mode:normal;color-interpolation:sRGB;color-interpolation-filters:linearRGB;solid-color:#000000;solid-opacity:1;fill:#f1f2f2;fill-opacity:1;fill-rule:nonzero;stroke:none;stroke-width:0.50000012;stroke-linecap:round;stroke-linejoin:round;stroke-miterlimit:4;stroke-dasharray:none;stroke-dashoffset:0;stroke-opacity:0;marker:none;color-rendering:auto;image-rendering:auto;shape-rendering:auto;text-rendering:auto;enable-background:accumulate" />
    <path
       style="color:#000000;display:inline;overflow:visible;visibility:visible;opacity:0.32000002;fill:#f1f2f2;fill-opacity:1;fill-rule:nonzero;stroke:none;stroke-width:1;stroke-linecap:round;stroke-linejoin:round;stroke-miterlimit:4;stroke-dasharray:none;stroke-dashoffset:0;stroke-opacity:0;marker:none;enable-background:accumulate"
       id="rect11714-6"
       d="m 169.00019,179.0002 c -2.81422,0 -5.17173,1 -7,2.58557 v 1.41443 h 1.48072 c 1.51928,-1.26466 3.21936,-2 5.51928,-2 2.29992,0 4,0.77953 5.51928,2 h 1.48072 v -1.38128 c -1.64044,-1.46575 -4.18578,-2.61872 -7,-2.61872 z"
       clip-path="none" />
    <path
       style="color:#000000;display:inline;overflow:visible;visibility:visible;opacity:0.32000002;fill:#f1f2f2;fill-opacity:1;fill-rule:nonzero;stroke:none;stroke-width:1;stroke-linecap:round;stroke-linejoin:round;stroke-miterlimit:4;stroke-dasharray:none;stroke-dashoffset:0;stroke-opacity:0;marker:none;enable-background:accumulate"
       id="rect11703-65"
       d="m 169.0002,182 c -1.50387,0 -2.86028,0.36049 -3.875,1 h 7.6875 c -1.021,-0.62695 -2.35046,-1 -3.8125,-1 z"
       clip-path="none" />
    <path
       id="rect11508"
       d="m 164.98852,184 h 0.0156 c 0.82885,0 1.49613,0.66727 1.49613,1.49613 v 0.0156 c 0,0.82886 -0.66728,1.49613 -1.49613,1.49613 h -0.0156 c -0.82886,0 -1.49613,-0.66727 -1.49613,-1.49613 v -0.0156 c 0,-0.82886 0.66727,-1.49613 1.49613,-1.49613 z"
       style="color:#000000;clip-rule:nonzero;display:block;overflow:visible;visibility:visible;opacity:1;isolation:auto;mix-blend-mode:normal;color-interpolation:sRGB;color-interpolation-filters:linearRGB;solid-color:#000000;solid-opacity:1;fill:#f1f2f2;fill-opacity:1;fill-rule:nonzero;stroke:none;stroke-width:1;stroke-linecap:round;stroke-linejoin:round;stroke-miterlimit:4;stroke-dasharray:none;stroke-dashoffset:0;stroke-opacity:1;marker:none;marker-start:none;marker-mid:none;marker-end:none;paint-order:normal;color-rendering:auto;image-rendering:auto;shape-rendering:auto;text-rendering:auto;enable-background:new" />
    <path
       id="rect11510"
       d="m 168.98852,184 h 0.0156 c 0.82885,0 1.49613,0.66727 1.49613,1.49613 v 0.0156 c 0,0.82886 -0.66728,1.49613 -1.49613,1.49613 h -0.0156 c -0.82886,0 -1.49613,-0.66727 -1.49613,-1.49613 v -0.0156 c 0,-0.82886 0.66727,-1.49613 1.49613,-1.49613 z"
       style="color:#000000;clip-rule:nonzero;display:block;overflow:visible;visibility:visible;opacity:1;isolation:auto;mix-blend-mode:normal;color-interpolation:sRGB;color-interpolation-filters:linearRGB;solid-color:#000000;solid-opacity:1;fill:#f1f2f2;fill-opacity:1;fill-rule:nonzero;stroke:none;stroke-width:1;stroke-linecap:round;stroke-linejoin:round;stroke-miterlimit:4;stroke-dasharray:none;stroke-dashoffset:0;stroke-opacity:1;marker:none;marker-start:none;marker-mid:none;marker-end:none;paint-order:normal;color-rendering:auto;image-rendering:auto;shape-rendering:auto;text-rendering:auto;enable-background:new" />
    <path
       id="rect11512"
       d="m 172.98852,184 h 0.0156 c 0.82885,0 1.49613,0.66727 1.49613,1.49613 v 0.0156 c 0,0.82886 -0.66728,1.49613 -1.49613,1.49613 h -0.0156 c -0.82886,0 -1.49613,-0.66727 -1.49613,-1.49613 v -0.0156 c 0,-0.82886 0.66727,-1.49613 1.49613,-1.49613 z"
       style="color:#000000;clip-rule:nonzero;display:block;overflow:visible;visibility:visible;opacity:1;isolation:auto;mix-blend-mode:normal;color-interpolation:sRGB;color-interpolation-filters:linearRGB;solid-color:#000000;solid-opacity:1;fill:#f1f2f2;fill-opacity:1;fill-rule:nonzero;stroke:none;stroke-width:1;stroke-linecap:round;stroke-linejoin:round;stroke-miterlimit:4;stroke-dasharray:none;stroke-dashoffset:0;stroke-opacity:1;marker:none;marker-start:none;marker-mid:none;marker-end:none;paint-order:normal;color-rendering:auto;image-rendering:auto;shape-rendering:auto;text-rendering:auto;enable-background:new" />
  </g>
  <g
     transform="translate(-161.0002,-177)"
     style="display:inline"
     id="layer10" />
  <g
     transform="translate(-161.0002,-177)"
     id="layer11" />
  <g
     transform="translate(-161.0002,-177)"
     style="display:inline"
     id="layer13" />
  <g
     transform="translate(-161.0002,-177)"
     id="layer14" />
  <g
     transform="translate(-161.0002,-177)"
     style="display:inline"
     id="layer15" />
  <g
     transform="translate(-161.0002,-177)"
     style="display:inline"
     id="g71291" />
  <g
     transform="translate(-161.0002,-177)"
     style="display:inline"
     id="g4953" />
  <g
     transform="translate(-161.0002,-177)"
     style="display:inline"
     id="layer12" />
</svg>
