<?xml version="1.0" encoding="UTF-8" standalone="no"?>
<svg
   xmlns:dc="http://purl.org/dc/elements/1.1/"
   xmlns:cc="http://creativecommons.org/ns#"
   xmlns:rdf="http://www.w3.org/1999/02/22-rdf-syntax-ns#"
   xmlns:svg="http://www.w3.org/2000/svg"
   xmlns="http://www.w3.org/2000/svg"
   width="16.000299"
   height="16"
   version="1.1"
   id="svg7384">
  <title
     id="title9167">Gnome Symbolic Icon Theme</title>
  <metadata
     id="metadata90">
    <rdf:RDF>
      <cc:Work
         rdf:about="">
        <dc:format>image/svg+xml</dc:format>
        <dc:type
           rdf:resource="http://purl.org/dc/dcmitype/StillImage" />
        <dc:title>Gnome Symbolic Icon Theme</dc:title>
      </cc:Work>
    </rdf:RDF>
  </metadata>
  <defs
     id="defs7386" />
  <g
     style="display:inline"
     id="layer9"
     transform="translate(-100.9999,-237)">
    <path
       style="color:#f1f2f2;display:inline;overflow:visible;visibility:visible;fill:#f1f2f2;fill-opacity:1;stroke:none;stroke-width:2;marker:none"
       id="rect7047"
       d="m 103.0624,237 c -1.15073,0 -2.0625,0.91177 -2.0625,2.0625 v 11.875 c 0,1.15073 0.91177,2.0625 2.0625,2.0625 h 11.875 c 1.15073,0 2.0625,-0.91177 2.0625,-2.0625 v -11.875 c 0,-1.15073 -0.91177,-2.0625 -2.0625,-2.0625 z m 3.9375,3 h 0.0937 5.90625 v 2 h -6 v 2 h 6 v 2 h -6 v 2 c -3.6e-4,-4.5e-4 0.0315,1e-4 0.0313,0 h 5.96875 v 2 h -6 c -0.6248,0 -0.99413,-0.24118 -1.34375,-0.5625 -0.33108,-0.30424 -0.64399,-0.78976 -0.625,-1.4375 h -0.0313 v -0.0937 -5.84375 -0.0625 h 0.0313 c -0.013,-0.4751 0.11013,-0.99964 0.46875,-1.40625 0.35357,-0.40089 0.93419,-0.583 1.5,-0.5625 z" />
  </g>
  <g
     id="layer10"
     transform="translate(-100.9999,-237)" />
  <g
     id="layer11"
     transform="translate(-100.9999,-237)" />
  <g
     id="layer12"
     transform="translate(-100.9999,-237)" />
  <g
     id="layer13"
     transform="translate(-100.9999,-237)" />
  <g
     id="layer14"
     transform="translate(-100.9999,-237)" />
  <g
     id="layer15"
     transform="translate(-100.9999,-237)" />
</svg>
