<?xml version="1.0" encoding="UTF-8" standalone="no"?>
<svg
   xmlns:dc="http://purl.org/dc/elements/1.1/"
   xmlns:cc="http://creativecommons.org/ns#"
   xmlns:rdf="http://www.w3.org/1999/02/22-rdf-syntax-ns#"
   xmlns:svg="http://www.w3.org/2000/svg"
   xmlns="http://www.w3.org/2000/svg"
   width="16"
   version="1.1"
   id="svg7384"
   height="16">
  <metadata
     id="metadata90">
    <rdf:RDF>
      <cc:Work
         rdf:about="">
        <dc:format>image/svg+xml</dc:format>
        <dc:type
           rdf:resource="http://purl.org/dc/dcmitype/StillImage" />
        <dc:title>Gnome Symbolic Icon Theme</dc:title>
      </cc:Work>
    </rdf:RDF>
  </metadata>
  <title
     id="title9167">Gnome Symbolic Icon Theme</title>
  <defs
     id="defs7386" />
  <g
     transform="translate(-181.0002,-257)"
     style="display:inline"
     id="layer9">
    <path
       style="color:#000000;font-style:normal;font-variant:normal;font-weight:normal;font-stretch:normal;font-size:medium;line-height:normal;font-family:Sans;-inkscape-font-specification:Sans;text-indent:0;text-align:start;text-decoration:none;text-decoration-line:none;letter-spacing:normal;word-spacing:normal;text-transform:none;writing-mode:lr-tb;direction:ltr;baseline-shift:baseline;text-anchor:start;display:inline;overflow:visible;visibility:visible;opacity:0.35;fill:#f1f2f2;fill-opacity:1;fill-rule:evenodd;stroke:none;stroke-width:3;marker:none;enable-background:accumulate"
       id="path9349"
       d="m 181,266 v 1.5 3 1.5 h 3 v -1.5 -3 -1.5 z" />
    <path
       style="color:#000000;font-style:normal;font-variant:normal;font-weight:normal;font-stretch:normal;font-size:medium;line-height:normal;font-family:Sans;-inkscape-font-specification:Sans;text-indent:0;text-align:start;text-decoration:none;text-decoration-line:none;letter-spacing:normal;word-spacing:normal;text-transform:none;writing-mode:lr-tb;direction:ltr;baseline-shift:baseline;text-anchor:start;display:inline;overflow:visible;visibility:visible;opacity:0.35;fill:#f1f2f2;fill-opacity:1;fill-rule:evenodd;stroke:none;stroke-width:3;marker:none;enable-background:accumulate"
       id="path9283"
       d="m 193,257 v 1.5 12 1.5 h 3 v -1.5 -12 -1.5 z" />
    <path
       style="color:#f1f2f2;display:inline;overflow:visible;visibility:visible;fill:#f1f2f2;fill-opacity:1;stroke:none;stroke-width:2;marker:none"
       id="path19592-2-4-0"
       d="m 188.84821,261.96875 c 1.64243,-0.092 3.0955,1.17008 3.1875,2.8125 -1e-4,1.40136 -0.37771,1.92177 -1.59375,2.84375 -0.19093,0.14364 -0.3256,0.2506 -0.375,0.3125 -0.0494,0.0621 -0.0312,0.0332 -0.0312,0.0312 0.007,0.52831 -0.47163,1 -1,1 -0.52837,0 -1.007,-0.47169 -1,-1 0,-0.50239 0.22424,-0.94342 0.46875,-1.25 0.24451,-0.30663 0.4913,-0.51638 0.71875,-0.6875 0.20405,-0.16056 0.46083,-0.38454 0.6875,-0.65625 0.0935,-0.1121 0.129,-0.30766 0.125,-0.4375 v -0.0312 c -0.0316,-0.56324 -0.49926,-0.9691 -1.0625,-0.9375 -0.56324,0.0316 -0.9691,0.43676 -0.9375,1 h -2 c -0.092,-1.64243 1.17007,-2.9079 2.8125,-3 z m 0.1875,8 c 0.55228,0 1,0.44772 1,1 0,0.55228 -0.44772,1 -1,1 -0.55228,0 -1,-0.44772 -1,-1 0,-0.55228 0.44772,-1 1,-1 z" />
    <path
       style="color:#000000;font-style:normal;font-variant:normal;font-weight:normal;font-stretch:normal;font-size:medium;line-height:normal;font-family:Sans;-inkscape-font-specification:Sans;text-indent:0;text-align:start;text-decoration:none;text-decoration-line:none;letter-spacing:normal;word-spacing:normal;text-transform:none;writing-mode:lr-tb;direction:ltr;baseline-shift:baseline;text-anchor:start;display:inline;overflow:visible;visibility:visible;opacity:0.35;fill:#f1f2f2;fill-opacity:1;fill-rule:evenodd;stroke:none;stroke-width:3;marker:none;enable-background:accumulate"
       id="path9345"
       d="m 189.0002,260 v 1.03125 c 1.18009,6.5e-4 2.26171,0.53152 3,1.375 V 261.5 260 Z m -4,3 v 1.5 6 1.5 h 2.40625 c -0.18795,-0.29798 -0.3125,-0.65775 -0.3125,-1.03125 0,-0.64943 0.37518,-1.1473 0.875,-1.5 -0.50106,-0.34778 -0.88395,-0.82431 -0.875,-1.5 0,-0.78136 0.34393,-1.41296 0.6875,-1.84375 0.0779,-0.0977 0.14017,-0.13497 0.21875,-0.21875 h -1.96875 a 0.93759375,0.93759375 0 0 1 -0.9375,-0.875 c -0.0416,-0.74179 0.13259,-1.43751 0.46875,-2.03125 z m 7,4.5 c -0.28537,0.30743 -0.61426,0.58254 -1,0.875 -0.0908,0.0683 -0.16921,0.14353 -0.21875,0.1875 -0.001,0.004 -0.0299,-0.004 -0.0312,0 -0.008,0.0112 -0.0311,0.0291 -0.0312,0.0312 -0.0111,0.0116 -0.005,0.0372 -0.0312,0.0625 -0.13961,0.34068 -0.29695,0.60649 -0.59375,0.8125 0.49982,0.3527 0.875,0.85057 0.875,1.5 0,0.3735 -0.12455,0.73327 -0.3125,1.03125 h 1.34375 v -1.5 -3 z" />
  </g>
  <g
     transform="translate(-181.0002,-257)"
     style="display:inline"
     id="layer10" />
  <g
     transform="translate(-181.0002,-257)"
     id="layer11" />
  <g
     transform="translate(-181.0002,-257)"
     style="display:inline"
     id="layer13" />
  <g
     transform="translate(-181.0002,-257)"
     id="layer14" />
  <g
     transform="translate(-181.0002,-257)"
     style="display:inline"
     id="layer15" />
  <g
     transform="translate(-181.0002,-257)"
     style="display:inline"
     id="g71291" />
  <g
     transform="translate(-181.0002,-257)"
     style="display:inline"
     id="g4953" />
  <g
     transform="translate(-181.0002,-257)"
     style="display:inline"
     id="layer12" />
</svg>
