<?xml version="1.0" encoding="UTF-8" standalone="no"?>
<svg
   xmlns:dc="http://purl.org/dc/elements/1.1/"
   xmlns:cc="http://creativecommons.org/ns#"
   xmlns:rdf="http://www.w3.org/1999/02/22-rdf-syntax-ns#"
   xmlns:svg="http://www.w3.org/2000/svg"
   xmlns="http://www.w3.org/2000/svg"
   xmlns:xlink="http://www.w3.org/1999/xlink"
   xmlns:sodipodi="http://sodipodi.sourceforge.net/DTD/sodipodi-0.dtd"
   xmlns:inkscape="http://www.inkscape.org/namespaces/inkscape"
   viewBox="0 0 16 16"
   version="1.1"
   id="svg40"
   sodipodi:docname="nvidia-settings.svg"
   width="16"
   height="16"
   inkscape:version="0.92.1 r15371">
  <metadata
     id="metadata44">
    <rdf:RDF>
      <cc:Work
         rdf:about="">
        <dc:format>image/svg+xml</dc:format>
        <dc:type
           rdf:resource="http://purl.org/dc/dcmitype/StillImage" />
        <dc:title></dc:title>
      </cc:Work>
    </rdf:RDF>
  </metadata>
  <sodipodi:namedview
     pagecolor="#ffffff"
     bordercolor="#666666"
     borderopacity="1"
     objecttolerance="10"
     gridtolerance="10"
     guidetolerance="10"
     inkscape:pageopacity="0"
     inkscape:pageshadow="2"
     inkscape:window-width="2560"
     inkscape:window-height="1034"
     id="namedview42"
     showgrid="true"
     inkscape:snap-bbox="true"
     inkscape:bbox-paths="true"
     inkscape:bbox-nodes="true"
     inkscape:snap-bbox-edge-midpoints="true"
     inkscape:zoom="21.067128"
     inkscape:cx="-10.927157"
     inkscape:cy="17.212533"
     inkscape:window-x="0"
     inkscape:window-y="22"
     inkscape:window-maximized="1"
     inkscape:current-layer="svg40">
    <inkscape:grid
       type="xygrid"
       id="grid4521" />
  </sodipodi:namedview>
  <defs
     id="defs22">
    <linearGradient
       id="b">
      <stop
         offset="0"
         stop-color="#a6b03e"
         id="stop4" />
      <stop
         offset="1"
         stop-color="#8ab03e"
         stop-opacity=".988"
         id="stop6" />
    </linearGradient>
    <linearGradient
       id="a">
      <stop
         offset="0"
         stop-color="#fff"
         id="stop9" />
      <stop
         offset="1"
         stop-color="#fff"
         stop-opacity="0"
         id="stop11" />
    </linearGradient>
    <linearGradient
       xlink:href="#a"
       id="f"
       x1="45.93"
       y1="9.316"
       x2="45.992001"
       y2="26.5"
       gradientUnits="userSpaceOnUse"
       gradientTransform="translate(-0.03,-18.97)" />
    <mask
       id="d"
       maskUnits="userSpaceOnUse">
      <rect
         ry="10"
         y="5"
         x="1"
         height="37"
         width="46"
         id="rect15"
         style="fill:#ffffff;stroke-linecap:round;stroke-opacity:0.99500002;paint-order:markers stroke fill" />
    </mask>
    <linearGradient
       xlink:href="#b"
       id="c"
       x1="10.971"
       y1="5.559"
       x2="11.61"
       y2="50.347"
       gradientUnits="userSpaceOnUse"
       gradientTransform="matrix(0.60869568,0,0,0.75675677,1.3913043,-1.7837836)" />
    <filter
       id="e"
       x="-0.041000001"
       width="1.0829999"
       y="-0.032000002"
       height="1.064"
       style="color-interpolation-filters:sRGB">
      <feGaussianBlur
         stdDeviation=".736"
         id="feGaussianBlur19" />
    </filter>
  </defs>
  <path
     style="fill:#f1f2f2;stroke-width:0.33935034;stroke-linecap:round;stroke-opacity:0.99500002;paint-order:markers stroke fill"
     d="M 5,1 C 2.784,1 1,2.784 1,5 v 6 c 0,2.216 1.784,4 4,4 H 8.4345705 C 4.8431821,11.815107 3.5234375,7.65039 3.5234375,7.65039 A 0.50005,0.50005 0 0 1 3.6513672,7.141601 c 0,0 3.9765833,-3.86986 9.2871098,-5.642578 C 12.364753,1.181861 11.704484,1 11,1 Z"
     id="path4531" />
  <path
     style="fill:#f1f2f2;stroke-width:0.33935034;stroke-linecap:round;stroke-opacity:0.99500002;paint-order:markers stroke fill"
     d="m 12.938477,1.499023 c 0.109399,0.06048 0.215649,0.126181 0.318359,0.196289 -0.10292,-0.07026 -0.208782,-0.135713 -0.318359,-0.196289 z"
     id="path4529" />
  <path
     style="fill:#f1f2f2;stroke-width:0.33935034;stroke-linecap:round;stroke-opacity:0.99500002;paint-order:markers stroke fill"
     d="m 13.256836,1.695312 c 0.616259,0.42065 1.106704,1.008967 1.408203,1.701172 -0.301772,-0.69187 -0.792036,-1.280548 -1.408203,-1.701172 z"
     id="path4527" />
  <path
     style="fill:#f1f2f2;stroke-width:0.33935034;stroke-linecap:round;stroke-opacity:0.99500002;paint-order:markers stroke fill"
     d="m 14.665039,3.396484 c 0.04914,0.11283 0.09301,0.228626 0.131836,0.34668 -0.0389,-0.118273 -0.08253,-0.233631 -0.131836,-0.34668 z"
     id="path4525" />
  <path
     style="fill:#f1f2f2;stroke-width:0.33935034;stroke-linecap:round;stroke-opacity:0.99500002;paint-order:markers stroke fill"
     d="M 14.799805,3.750977 C 10.421675,4.673036 8.3724575,7.50088 8.076172,7.939453 8.2104815,8.412386 9.411626,12.376845 12.75293,14.59375 13.091308,14.429068 13.401494,14.218828 13.677735,13.969726 10.383045,11.973573 9.511719,8.109375 9.511719,8.109375 a 0.50005,0.50005 0 0 1 0.08984,-0.411133 c 0,0 1.884106,-2.484226 5.332031,-3.410156 C 14.9008,4.104341 14.85662,3.924974 14.799801,3.750977 Z"
     id="path4523" />
  <path
     style="fill:#f1f2f2;stroke-width:0.33935034;stroke-linecap:round;stroke-opacity:0.99500002;paint-order:markers stroke fill"
     d="m 14.933594,4.288086 c 0.02034,0.113972 0.03643,0.229727 0.04785,0.34668 -0.01053,-0.117228 -0.0275,-0.232645 -0.04785,-0.34668 z"
     id="path4521" />
  <path
     style="fill:#f1f2f2;stroke-width:0.33935034;stroke-linecap:round;stroke-opacity:0.99500002;paint-order:markers stroke fill"
     d="m 13.677735,13.969726 c 0.09119,-0.08223 0.178479,-0.168538 0.261718,-0.258789 -0.08323,0.09012 -0.170582,0.176606 -0.261718,0.258789 z"
     id="path4519" />
  <path
     style="fill:#f1f2f2;stroke-width:0.33935034;stroke-linecap:round;stroke-opacity:0.99500002;paint-order:markers stroke fill"
     d="m 13.939453,13.710937 c 0.08179,-0.08868 0.159845,-0.180505 0.233399,-0.276367 -0.0736,0.09571 -0.151586,0.187782 -0.233399,0.276367 z"
     id="path4517" />
  <path
     style="fill:#f1f2f2;stroke-width:0.33935034;stroke-linecap:round;stroke-opacity:0.99500002;paint-order:markers stroke fill"
     d="m 12.75293,14.59375 c -0.127627,0.06211 -0.258883,0.11713 -0.393555,0.166015 0.134843,-0.0485 0.265956,-0.103915 0.393555,-0.166015 z"
     id="path4515" />
  <path
     style="fill:#f1f2f2;stroke-width:0.33935034;stroke-linecap:round;stroke-opacity:0.99500002;paint-order:markers stroke fill"
     d="m 15,7.149414 c -0.82001,0.285612 -1.303843,0.836231 -1.4375,1.000976 0.04526,0.26266 0.358706,1.953018 1.419922,3.202149 C 14.992509,11.236199 15,11.119043 15,11 Z"
     id="path4513" />
  <path
     style="fill:#f1f2f2;stroke-width:0.33935034;stroke-linecap:round;stroke-opacity:0.99500002;paint-order:markers stroke fill"
     d="m 14.98242,11.353515 c -0.01,0.115046 -0.02641,0.227913 -0.0459,0.339844 0.01942,-0.111846 0.03591,-0.224953 0.0459,-0.339844 z"
     id="path4511" />
  <path
     style="fill:#f1f2f2;stroke-width:0.33935034;stroke-linecap:round;stroke-opacity:0.99500002;paint-order:markers stroke fill"
     d="m 14.92871,11.745117 c -0.02105,0.112226 -0.04794,0.222446 -0.07813,0.331055 0.03013,-0.108748 0.05711,-0.218734 0.07813,-0.331055 z"
     id="path4509" />
  <path
     style="fill:#f1f2f2;stroke-width:0.33935034;stroke-linecap:round;stroke-opacity:0.99500002;paint-order:markers stroke fill"
     d="m 14.83984,12.115234 c -0.02974,0.102935 -0.06396,0.203472 -0.101563,0.302735 0.03754,-0.09943 0.07187,-0.199658 0.101563,-0.302735 z"
     id="path4507" />
  <path
     style="fill:#f1f2f2;stroke-width:0.33935034;stroke-linecap:round;stroke-opacity:0.99500002;paint-order:markers stroke fill"
     d="m 14.715817,12.478515 c -0.04294,0.107998 -0.09074,0.21432 -0.142579,0.317383 0.05183,-0.103349 0.09967,-0.209099 0.142579,-0.317383 z"
     id="path4505" />
  <path
     style="fill:#f1f2f2;stroke-width:0.33935034;stroke-linecap:round;stroke-opacity:0.99500002;paint-order:markers stroke fill"
     d="m 14.567379,12.807617 c -0.0553,0.109045 -0.114949,0.215402 -0.179687,0.318359 0.06467,-0.103127 0.124456,-0.209133 0.179687,-0.318359 z"
     id="path4503" />
  <path
     style="fill:#f1f2f2;stroke-width:0.33935034;stroke-linecap:round;stroke-opacity:0.99500002;paint-order:markers stroke fill"
     d="m 14.386715,13.127929 c -0.06363,0.101067 -0.131926,0.198293 -0.204102,0.292969 0.07209,-0.09478 0.140565,-0.191771 0.204102,-0.292969 z"
     id="path4501" />
  <path
     style="fill:#f1f2f2;stroke-width:0.33935034;stroke-linecap:round;stroke-opacity:0.99500002;paint-order:markers stroke fill"
     d="m 12.333004,14.769531 c -0.122275,0.04342 -0.248552,0.07966 -0.375977,0.111328 0.128031,-0.03125 0.253182,-0.06814 0.375977,-0.111328 z"
     id="path4499" />
  <path
     style="fill:#f1f2f2;stroke-width:0.33935034;stroke-linecap:round;stroke-opacity:0.99500002;paint-order:markers stroke fill"
     d="m 11.892574,14.897461 c -0.118116,0.02726 -0.238396,0.04698 -0.360351,0.06348 0.121829,-0.0161 0.2423,-0.03674 0.360351,-0.06348 z"
     id="path4497" />
  <path
     style="fill:#f1f2f2;stroke-width:0.33935034;stroke-linecap:round;stroke-opacity:0.99500002;paint-order:markers stroke fill"
     d="M 11.448238,14.973631 C 11.301267,14.990283 11.151656,15 11,15 c 0.151742,0 0.300985,-0.01007 0.448242,-0.02637 z"
     id="rect24" />
</svg>
