<?xml version="1.0" encoding="UTF-8" standalone="no"?>
<svg
   xmlns:dc="http://purl.org/dc/elements/1.1/"
   xmlns:cc="http://creativecommons.org/ns#"
   xmlns:rdf="http://www.w3.org/1999/02/22-rdf-syntax-ns#"
   xmlns:svg="http://www.w3.org/2000/svg"
   xmlns="http://www.w3.org/2000/svg"
   width="16"
   id="svg7384"
   version="1.1"
   height="16">
  <metadata
     id="metadata90">
    <rdf:RDF>
      <cc:Work
         rdf:about="">
        <dc:format>image/svg+xml</dc:format>
        <dc:type
           rdf:resource="http://purl.org/dc/dcmitype/StillImage" />
        <dc:title>Gnome Symbolic Icon Theme</dc:title>
      </cc:Work>
    </rdf:RDF>
  </metadata>
  <title
     id="title9167">Gnome Symbolic Icon Theme</title>
  <defs
     id="defs7386" />
  <g
     style="display:inline"
     id="layer9"
     transform="translate(-281.00015,-667)" />
  <g
     id="layer10"
     transform="translate(-281.00015,-667)" />
  <g
     id="layer11"
     transform="translate(-281.00015,-667)" />
  <g
     id="layer13"
     transform="translate(-281.00015,-667)" />
  <g
     id="layer14"
     transform="translate(-281.00015,-667)" />
  <g
     style="display:inline"
     id="layer15"
     transform="translate(-281.00015,-667)" />
  <g
     style="display:inline"
     id="g71291"
     transform="translate(-281.00015,-667)" />
  <g
     style="display:inline"
     id="g4953"
     transform="translate(-281.00015,-667)" />
  <g
     style="display:inline"
     id="layer12"
     transform="translate(-281.00015,-667)">
    <path
       style="color:#000000;font-style:normal;font-variant:normal;font-weight:normal;font-stretch:normal;font-size:medium;line-height:normal;font-family:'Bitstream Vera Sans';-inkscape-font-specification:'Bitstream Vera Sans';text-indent:0;text-align:start;text-decoration:none;text-decoration-line:none;letter-spacing:normal;word-spacing:normal;text-transform:none;writing-mode:lr-tb;direction:ltr;text-anchor:start;display:inline;overflow:visible;visibility:visible;fill:#f1f2f2;fill-opacity:1;stroke:none;stroke-width:2;marker:none;enable-background:accumulate"
       id="path3613-6-6-5"
       d="m 283.0002,676 v 1 c 0,0.26528 0.093,0.53057 0.28125,0.71875 l 3.71875,3.71875 c 0,0 2.47917,-2.47917 3.71875,-3.71875 0.18814,-0.18817 0.28122,-0.45344 0.28125,-0.71875 v -1 h -1 c -0.2653,0 -0.53058,0.0931 -0.71875,0.28125 l -2.28125,2.28125 -2.28125,-2.28125 C 284.53077,676.09314 284.26551,675.99996 284.0002,676 Z" />
    <path
       style="color:#000000;font-style:normal;font-variant:normal;font-weight:normal;font-stretch:normal;font-size:medium;line-height:normal;font-family:Sans;-inkscape-font-specification:Sans;text-indent:0;text-align:start;text-decoration:none;text-decoration-line:none;letter-spacing:normal;word-spacing:normal;text-transform:none;writing-mode:lr-tb;direction:ltr;baseline-shift:baseline;text-anchor:start;display:inline;overflow:visible;visibility:visible;fill:#f1f2f2;fill-opacity:1;stroke:none;stroke-width:2;marker:none;enable-background:accumulate"
       id="path35770-9"
       d="m 289.5,670 c -1.92115,0 -3.5,1.57885 -3.5,3.5 v 5.5 h 2 v -5.5 c 0,-0.84027 0.65973,-1.5 1.5,-1.5 h 4.5 v -2 z" />
  </g>
</svg>
