<svg xmlns="http://www.w3.org/2000/svg" viewBox="0 0 16 16">
    <path style="line-height:normal;-inkscape-font-specification:Sans;text-indent:0;text-align:start;text-decoration-line:none;text-transform:none;marker:none" d="M7 3v10h2V3z" color="#000" font-weight="400" font-family="Sans" overflow="visible" fill="#f1f2f2"/>
    <path style="line-height:normal;-inkscape-font-specification:'Bitstream Vera Sans';text-indent:0;text-align:start;text-decoration-line:none;text-transform:none;marker:none" d="M4 10v1c0 .265.093.53.281.719L8 15.438l3.719-3.72c.188-.187.281-.453.281-.718v-1h-1c-.265 0-.53.093-.719.281L8 12.562l-2.281-2.28A1.015 1.015 0 0 0 5 10zm0-4V5c0-.265.093-.53.282-.719L8 .562l3.719 3.72c.188.187.281.453.281.718v1h-1c-.265 0-.53-.093-.718-.281L8 3.437 5.72 5.72A1.015 1.015 0 0 1 5 6z" color="#000" font-weight="400" font-family="Bitstream Vera Sans" overflow="visible" fill="#f1f2f2"/>
</svg>
