<?xml version="1.0" encoding="UTF-8" standalone="no"?>
<svg
   xmlns:dc="http://purl.org/dc/elements/1.1/"
   xmlns:cc="http://creativecommons.org/ns#"
   xmlns:rdf="http://www.w3.org/1999/02/22-rdf-syntax-ns#"
   xmlns:svg="http://www.w3.org/2000/svg"
   xmlns="http://www.w3.org/2000/svg"
   width="16"
   version="1.1"
   id="svg7384"
   height="16">
  <metadata
     id="metadata90">
    <rdf:RDF>
      <cc:Work
         rdf:about="">
        <dc:format>image/svg+xml</dc:format>
        <dc:type
           rdf:resource="http://purl.org/dc/dcmitype/StillImage" />
        <dc:title>Gnome Symbolic Icon Theme</dc:title>
      </cc:Work>
    </rdf:RDF>
  </metadata>
  <title
     id="title9167">Gnome Symbolic Icon Theme</title>
  <defs
     id="defs7386" />
  <g
     transform="translate(-401.00015,-317)"
     style="display:inline"
     id="layer9">
    <path
       style="color:#f1f2f2;display:inline;overflow:visible;visibility:visible;fill:#ff6600;fill-opacity:1;fill-rule:nonzero;stroke:none;stroke-width:0.96076941;marker:none"
       id="rect4063"
       d="m 412.50021,326 c -0.82236,0 -1.5,0.62552 -1.5,1.38462 v 1.68501 h -0.50001 c -0.277,0 -0.5,0.20585 -0.5,0.46155 V 329.77636 332 h 2.50001 0.99999 2.5 v -2.22364 -0.24518 c 0,-0.2557 -0.22298,-0.46155 -0.49999,-0.46155 h -0.50002 v -1.68501 c 0,-0.7591 -0.67764,-1.38462 -1.49999,-1.38462 z m 0,0.92308 h 0.99999 c 0.28565,0 0.50001,0.19786 0.50001,0.46154 v 1.68502 h -2.00002 v -1.68502 c 0,-0.26368 0.21437,-0.46154 0.50002,-0.46154 z" />
    <path
       id="path870"
       transform="translate(401.00015,317)"
       d="m 3.4375,1 c -1.37299,0 -2.5,1.1012 -2.5,2.46875 v 9.0625 C 0.9375,13.8988 2.06451,15 3.4375,15 H 8 V 14 H 3.4375 c -0.84376,0 -1.5,-0.64066 -1.5,-1.46875 V 3.46875 C 1.9375,2.64066 2.59374,2 3.4375,2 h 9.125 c 0.84376,0 1.5,0.64066 1.5,1.46875 V 8 H 15 c 0.02211,0 0.04076,0.01032 0.0625,0.011719 V 3.46875 C 15.0625,2.1012 13.93549,1 12.5625,1 Z"
       style="color:#000000;font-style:normal;font-variant:normal;font-weight:normal;font-stretch:normal;font-size:medium;line-height:normal;font-family:Sans;-inkscape-font-specification:Sans;text-indent:0;text-align:start;text-decoration:none;text-decoration-line:none;letter-spacing:normal;word-spacing:normal;text-transform:none;writing-mode:lr-tb;direction:ltr;baseline-shift:baseline;text-anchor:start;display:inline;overflow:visible;visibility:visible;fill:#f1f2f2;fill-opacity:1;stroke:none;stroke-width:0.99556434;marker:none;enable-background:accumulate" />
  </g>
  <g
     transform="translate(-401.00015,-317)"
     style="display:inline"
     id="layer10" />
  <g
     transform="translate(-401.00015,-317)"
     id="layer11" />
  <g
     transform="translate(-401.00015,-317)"
     style="display:inline"
     id="layer13" />
  <g
     transform="translate(-401.00015,-317)"
     id="layer14" />
  <g
     transform="translate(-401.00015,-317)"
     style="display:inline"
     id="layer15" />
  <g
     transform="translate(-401.00015,-317)"
     style="display:inline"
     id="g71291" />
  <g
     transform="translate(-401.00015,-317)"
     style="display:inline"
     id="g4953" />
  <g
     transform="translate(-401.00015,-317)"
     style="display:inline"
     id="layer12" />
</svg>
