<?xml version="1.0" encoding="UTF-8" standalone="no"?>
<svg id="svg8" xmlns="http://www.w3.org/2000/svg" version="1.1" viewBox="0 0 16 16"><g id="g6" fill="#f1f2f2"><path id="path2" style="text-decoration-line:none;text-transform:none;text-indent:0" font-family="Sans" d="m7.993 1c-3.854 0-7 3.146-7 7s3.146 7 7 7c3.855 0 7-3.146 7-7s-3.145-7-7-7zm0 1.994a4.996 4.996 0 0 1 5.007 5.006 4.996 4.996 0 0 1 -5.007 5.006 4.996 4.996 0 0 1 -5.006 -5.006 4.996 4.996 0 0 1 5.006 -5.006z" color="#f1f2f2" overflow="visible" font-weight="400"/><path id="path4" opacity=".35" d="m8.007 4c-1.117 0-2.12 0.456-2.847 1.19a0.464 0.464 0 0 0 0.063 0.242c0.1 0.167 0.193 0.332 0.321 0.462 0.095-0.3 0.406-0.516 0.777-0.516a0.82 0.82 0 0 1 0.713 0.383c0.267-0.28 0.517-0.608 1.059-0.634 0.904-0.042 0.993 0.666 1.906 0.853 0.591 0.12 1.125 0.039 1.443-0.032a4.012 4.012 0 0 0 -3.435 -1.948zm-0.385 0.423c0.086-0.012 0.165 0.012 0.204 0.062 0.052 0.068 0.007 0.164-0.102 0.211-0.11 0.048-0.246 0.03-0.298-0.039-0.052-0.067 0-0.163 0.11-0.21a0.343 0.343 0 0 1 0.086 -0.024zm-0.604 0.172a0.328 0.328 0 0 1 0.244 0.109c0.086 0.113 0.009 0.273-0.173 0.352-0.183 0.079-0.4 0.05-0.486-0.063-0.087-0.113-0.01-0.273 0.172-0.352a0.556 0.556 0 0 1 0.141 -0.039c0.036-0.004 0.068-0.009 0.102-0.007zm0.494 0.336c0.06-0.008 0.122 0.01 0.15 0.047 0.036 0.047-0.001 0.115-0.079 0.148-0.077 0.034-0.167 0.017-0.204-0.031s-0.007-0.107 0.071-0.14c0.02-0.009 0.042-0.021 0.063-0.024zm0.989 0.907c-0.52-0.026-0.773 0.4-0.816 0.782s0.972 0.183 0.643 0.75a0.896 0.896 0 0 1 -0.094 0.133c-0.04 0.287-0.314 0.509-0.65 0.509a0.706 0.706 0 0 1 -0.409 -0.133 1.94 1.94 0 0 0 -0.039 0.273c-0.03 0.422 0.268 0.76 0.33 1.025 0.068-0.13 0.13-0.27 0.18-0.43 0.096 0.397 0.22 0.653 0.345 0.907 0.39-0.036 0.701-0.229 1.004-0.438a4.908 4.908 0 0 1 -0.667 1.056c0.57 0.22 1.098 0.169 1.608 0.007-0.358 0.298-0.706 0.531-1.435 0.602 0.526 0.158 1.111 0.338 1.843 0.117-0.672 0.387-1.377 0.68-2.196 0.657l0.808-0.007-1.624 0.07-0.847-0.156 0.032-0.376c-0.354 0.04-0.748-0.158-1.13-0.281 0.343-0.152 0.711-0.271 0.942-0.563-0.402-0.079-0.618-0.343-0.887-0.555-0.175 0.212-0.306 0.411-0.525 0.406-0.4-0.008-0.53-0.56-0.479-0.883 0.052-0.323 0.691-0.16 0.683-0.407a0.91 0.91 0 0 0 0.196 0.157c0.386 0.223 0.861 0.127 1.059-0.212 0.197-0.338 0.048-0.793-0.338-1.016-0.385-0.224-0.86-0.128-1.058 0.211a0.662 0.662 0 0 0 -0.007 0.633c-0.21-0.185-0.565-0.351-0.565-0.351l-0.378-0.815a4 4 0 0 0 3.977 4.49 4.004 4.004 0 0 0 3.993 -3.635c-0.1-0.288-0.39-1.085-0.698-1.267-0.022-0.012-0.042-0.015-0.063-0.024 0.024 0.057 0.031 0.116 0.007 0.157-0.037 0.065-0.127 0.064-0.204-0.007a0.274 0.274 0 0 1 -0.086 -0.164c-0.206 0.07-0.357 0.303-0.408 0.547-0.077 0.366 0.44 0.954 0.44 0.954-0.353-0.001-0.864 0.026-1.052-0.477-0.16-0.428 0.158-1.044-0.172-1.36 0 0-0.743-0.859-1.263-0.884zm2.282 1.619c0.016-0.003 0.03-0.001 0.047 0a0.36 0.36 0 0 1 0.22 0.109c0.145 0.136 0.203 0.345 0.133 0.47-0.07 0.123-0.24 0.112-0.384-0.024-0.145-0.137-0.203-0.346-0.134-0.47a0.172 0.172 0 0 1 0.118 -0.086zm-4.51 1.845a0.924 0.924 0 0 0 -0.227 0.039c-0.258 0.078-0.427 0.237-0.565 0.399 0.372 0.084 0.725 0.275 1.13 0.164a3.332 3.332 0 0 1 -0.15 -0.586 1.045 1.045 0 0 0 -0.188 -0.016zm0.761 0.188c0.027 0.044 0.05 0.088 0.078 0.132a0.97 0.97 0 0 0 0.11 -0.093 0.625 0.625 0 0 1 -0.188 -0.04zm0.36 0.64c-0.39 0-0.705 0.24-0.705 0.533 0 0.291 0.316 0.523 0.706 0.523s0.706-0.232 0.706-0.523c0-0.292-0.316-0.532-0.706-0.532zm0 0.212c0.234 0 0.424 0.146 0.424 0.32 0 0.175-0.19 0.313-0.423 0.313-0.234 0-0.424-0.138-0.424-0.312 0-0.175 0.19-0.321 0.424-0.321zm2.558 0.227c0.073 0.007 0.104 0.09 0.07 0.187s-0.115 0.164-0.188 0.157-0.105-0.091-0.07-0.188c0.034-0.097 0.114-0.163 0.188-0.156z" fill-rule="evenodd" overflow="visible"/></g></svg>
