<?xml version="1.0" encoding="UTF-8" standalone="no"?>
<svg
   xmlns:dc="http://purl.org/dc/elements/1.1/"
   xmlns:cc="http://creativecommons.org/ns#"
   xmlns:rdf="http://www.w3.org/1999/02/22-rdf-syntax-ns#"
   xmlns:svg="http://www.w3.org/2000/svg"
   xmlns="http://www.w3.org/2000/svg"
   width="16"
   version="1.1"
   id="svg7384"
   height="16">
  <metadata
     id="metadata90">
    <rdf:RDF>
      <cc:Work
         rdf:about="">
        <dc:format>image/svg+xml</dc:format>
        <dc:type
           rdf:resource="http://purl.org/dc/dcmitype/StillImage" />
        <dc:title>Gnome Symbolic Icon Theme</dc:title>
      </cc:Work>
    </rdf:RDF>
  </metadata>
  <title
     id="title9167">Gnome Symbolic Icon Theme</title>
  <defs
     id="defs7386" />
  <g
     transform="translate(-161.0002,-567)"
     style="display:inline"
     id="layer9" />
  <g
     transform="translate(-161.0002,-567)"
     style="display:inline"
     id="layer10">
    <path
       style="fill:#f1f2f2;fill-opacity:1;stroke:none"
       id="path26990"
       d="m 165.18289,567 c -1.79783,10e-6 -3.15144,1.33801 -3.15144,3 v 10 c 0,1.662 1.3536,3 3.15144,3 h 7.57212 c 1.79783,-10e-6 3.24519,-1.33801 3.24519,-3 v -6.58931 l -1.97596,2.87722 V 580 c 1e-5,0.554 -0.48245,1 -1.08173,1 h -7.91587 c -0.59928,-10e-6 -1.01924,-0.44601 -1.01923,-1 v -10 c -1e-5,-0.554 0.41995,-0.99999 1.01923,-1 h 7.66076 l 1.31836,-1.75 c -0.38069,-0.14431 -0.81253,-0.25 -1.25075,-0.25 z" />
    <path
       style="color:#000000;font-style:normal;font-variant:normal;font-weight:normal;font-stretch:normal;font-size:medium;line-height:normal;font-family:Sans;-inkscape-font-specification:Sans;text-indent:0;text-align:start;text-decoration:none;text-decoration-line:none;letter-spacing:normal;word-spacing:normal;text-transform:none;writing-mode:lr-tb;direction:ltr;baseline-shift:baseline;text-anchor:start;display:inline;overflow:visible;visibility:visible;fill:#f1f2f2;fill-opacity:1;stroke:none;stroke-width:2;marker:none;enable-background:new"
       id="path8552-8"
       d="m 175.04053,568.03103 c 0,0 -2.51922,3.50643 -4.04033,5.96897 l -1.40567,1.1673 0.0373,1.57392 -0.76313,1.24524 0.69536,-10e-4 0.74028,-0.58334 1.67496,-0.4626 0.5949,-1.48097 4.18505,-6.36462 z" />
  </g>
  <g
     transform="translate(-161.0002,-567)"
     id="layer11" />
  <g
     transform="translate(-161.0002,-567)"
     style="display:inline"
     id="layer13" />
  <g
     transform="translate(-161.0002,-567)"
     id="layer14" />
  <g
     transform="translate(-161.0002,-567)"
     style="display:inline"
     id="layer15" />
  <g
     transform="translate(-161.0002,-567)"
     style="display:inline"
     id="g71291" />
  <g
     transform="translate(-161.0002,-567)"
     style="display:inline"
     id="g4953" />
  <g
     transform="translate(-161.0002,-567)"
     style="display:inline"
     id="layer12" />
</svg>
