<?xml version="1.0" encoding="UTF-8" standalone="no"?>
<svg
   xmlns:dc="http://purl.org/dc/elements/1.1/"
   xmlns:cc="http://creativecommons.org/ns#"
   xmlns:rdf="http://www.w3.org/1999/02/22-rdf-syntax-ns#"
   xmlns:svg="http://www.w3.org/2000/svg"
   xmlns="http://www.w3.org/2000/svg"
   width="16"
   version="1.1"
   id="svg7384"
   height="16">
  <metadata
     id="metadata90">
    <rdf:RDF>
      <cc:Work
         rdf:about="">
        <dc:format>image/svg+xml</dc:format>
        <dc:type
           rdf:resource="http://purl.org/dc/dcmitype/StillImage" />
        <dc:title>Gnome Symbolic Icon Theme</dc:title>
      </cc:Work>
    </rdf:RDF>
  </metadata>
  <title
     id="title9167">Gnome Symbolic Icon Theme</title>
  <defs
     id="defs7386" />
  <g
     transform="translate(-221,-447)"
     style="display:inline"
     id="layer9" />
  <g
     transform="translate(-221,-447)"
     style="display:inline"
     id="layer10">
    <path
       style="color:#000000;display:inline;overflow:visible;visibility:visible;fill:#f1f2f2;fill-opacity:1;fill-rule:nonzero;stroke:none;stroke-width:1px;marker:none;enable-background:accumulate"
       id="rect5222-6-8"
       d="m 227.0002,448 c -1.00916,0.005 -1,1 -1,1 v 11 c 0,1 1,1 1,1 h 4 c 1,0 1,-1 1,-1 v -8 c 9e-4,-0.554 -0.446,-1 -1,-1 h -3 v -2 c 0,0 -0.009,-0.99447 -1,-1 z m 0,4 h 4 v 3.03125 l -4,-0.0312 z m 0,4 h 1 v 1 h 1 v -1 h 1 v 1 h 1 v 1 h -1 v 1 h 1 v 1 h -1 v -1 h -1 v 1 h -1 v -1 h -1 v -1 h 1 v -1 h -1 z m 1,2 v 1 h 1 v -1 z m 1,0 h 1 v -1 h -1 z" />
  </g>
  <g
     transform="translate(-221,-447)"
     id="layer11" />
  <g
     transform="translate(-221,-447)"
     style="display:inline"
     id="layer13" />
  <g
     transform="translate(-221,-447)"
     id="layer14" />
  <g
     transform="translate(-221,-447)"
     style="display:inline"
     id="layer15" />
  <g
     transform="translate(-221,-447)"
     style="display:inline"
     id="g71291" />
  <g
     transform="translate(-221,-447)"
     style="display:inline"
     id="g4953" />
  <g
     transform="translate(-221,-447)"
     style="display:inline"
     id="layer12" />
</svg>
