<?xml version="1.0" encoding="UTF-8" standalone="no"?>
<svg
   xmlns:dc="http://purl.org/dc/elements/1.1/"
   xmlns:cc="http://creativecommons.org/ns#"
   xmlns:rdf="http://www.w3.org/1999/02/22-rdf-syntax-ns#"
   xmlns:svg="http://www.w3.org/2000/svg"
   xmlns="http://www.w3.org/2000/svg"
   width="16"
   version="1.1"
   id="svg7384"
   height="16">
  <metadata
     id="metadata90">
    <rdf:RDF>
      <cc:Work
         rdf:about="">
        <dc:format>image/svg+xml</dc:format>
        <dc:type
           rdf:resource="http://purl.org/dc/dcmitype/StillImage" />
        <dc:title>Gnome Symbolic Icon Theme</dc:title>
      </cc:Work>
    </rdf:RDF>
  </metadata>
  <title
     id="title9167">Gnome Symbolic Icon Theme</title>
  <defs
     id="defs7386" />
  <g
     transform="translate(-303.02908,-629.02581)"
     style="display:inline"
     id="layer9" />
  <g
     transform="translate(-303.02908,-629.02581)"
     id="layer10" />
  <g
     transform="translate(-303.02908,-629.02581)"
     id="layer11">
    <path
       style="color:#000000;clip-rule:nonzero;display:inline;overflow:visible;visibility:visible;color-interpolation:sRGB;color-interpolation-filters:linearRGB;fill:#f1f2f2;fill-opacity:1;fill-rule:nonzero;stroke:none;stroke-width:1;marker:none;enable-background:accumulate"
       id="rect18279"
       d="m 304.0002,634 v 5 h 4.0625 v -5 z m 2,1.9375 1,-0.9375 v 3 h -1 z" />
    <path
       style="color:#000000;clip-rule:nonzero;display:inline;overflow:visible;visibility:visible;color-interpolation:sRGB;color-interpolation-filters:linearRGB;fill:#f1f2f2;fill-opacity:1;fill-rule:nonzero;stroke:none;stroke-width:1;marker:none;enable-background:accumulate"
       id="rect18283"
       d="m 305.0002,630 c -0.61019,0 -1,0.42165 -1,0.96875 v 0.0312 h 1 z m 0,1 v 1 h 1 v -1 z m 1,0 h 1 v -1 h -1 z m 1,0 v 1 h 1 v -1 z m 0,1 h -1 v 1 h 1 z m -2,0 h -1 v 1 h 1 z" />
    <path
       style="color:#000000;clip-rule:nonzero;display:inline;overflow:visible;visibility:visible;color-interpolation:sRGB;color-interpolation-filters:linearRGB;fill:#f1f2f2;fill-opacity:1;fill-rule:nonzero;stroke:none;stroke-width:1;marker:none;enable-background:accumulate"
       id="rect18304"
       d="m 309.09395,634 v 5 h 3.9375 v -5 z m 0.90625,1 h 1.04701 c 0.77808,0 0.95299,0.39744 0.95299,0.99295 0,0.0763 -0.0231,0.11705 -0.0625,0.2258 L 311.53145,637 h 0.46875 v 1.0625 h -1.21875 -0.8125 l 1.02816,-1.90587 c 0.0469,-0.0937 -8.2e-4,-0.15272 -0.0594,-0.15663 h -0.93751 z" />
    <path
       style="color:#000000;clip-rule:nonzero;display:inline;overflow:visible;visibility:visible;color-interpolation:sRGB;color-interpolation-filters:linearRGB;fill:#f1f2f2;fill-opacity:1;fill-rule:nonzero;stroke:none;stroke-width:1;marker:none;enable-background:accumulate"
       id="rect18308"
       d="m 309.09395,630 v 1 h 0.9375 v -1 z m 0.9375,1 v 1 h 1 v -1 z m 1,0 h 1 v -1 h -1 z m 1,0 v 1 h 1 v -1 z m 0,1 h -1 v 1 h 1 z m -2,0 h -0.9375 v 1 h 0.9375 z" />
    <path
       style="color:#000000;clip-rule:nonzero;display:inline;overflow:visible;visibility:visible;color-interpolation:sRGB;color-interpolation-filters:linearRGB;fill:#f1f2f2;fill-opacity:1;fill-rule:nonzero;stroke:none;stroke-width:1;marker:none;enable-background:accumulate"
       id="rect18312"
       d="m 314.09395,634 v 5 h 3.9375 v -5 z m 0.90625,1 h 2.03125 l -0.0312,0.5 v 0.46875 0.0937 l -0.0625,0.125 -0.15625,0.3125 0.1875,0.34375 0.0625,0.125 v 0.125 0.40625 0.5 h -2.03125 v -1 h 0.90625 l -0.125,-0.21875 -0.125,-0.25 0.125,-0.25 0.1562,-0.2812 h -0.9375 z" />
    <path
       style="color:#000000;clip-rule:nonzero;display:inline;overflow:visible;visibility:visible;color-interpolation:sRGB;color-interpolation-filters:linearRGB;fill:#f1f2f2;fill-opacity:1;fill-rule:nonzero;stroke:none;stroke-width:1;marker:none;enable-background:accumulate"
       id="rect18316"
       d="m 314.09395,630 v 1 h 0.90625 v -1 z m 0.90625,1 v 1 h 1 v -1 z m 1,0 h 1 v -1 h -1 z m 1,0 v 1 h 1 v -1 z m 1,1 z m -1,0 h -1 v 1 h 1 z m -2,0 h -0.90625 v 1 h 0.90625 z" />
    <path
       style="color:#000000;clip-rule:nonzero;display:inline;overflow:visible;visibility:visible;color-interpolation:sRGB;color-interpolation-filters:linearRGB;fill:#f1f2f2;fill-opacity:1;fill-rule:nonzero;stroke:none;stroke-width:1;marker:none;enable-background:accumulate"
       id="path18348"
       d="m 309.09395,634 v 5 h 3.9375 v -5 z m 0.90625,1 h 1.04701 c 0.77808,0 0.95299,0.39744 0.95299,0.99295 0,0.0763 -0.0231,0.11705 -0.0625,0.2258 L 311.53145,637 h 0.46875 v 1.0625 h -1.21875 -0.8125 l 1.02816,-1.90587 c 0.0469,-0.0937 -8.2e-4,-0.15272 -0.0594,-0.15663 h -0.93751 z" />
    <path
       style="color:#000000;clip-rule:nonzero;display:inline;overflow:visible;visibility:visible;color-interpolation:sRGB;color-interpolation-filters:linearRGB;fill:#f1f2f2;fill-opacity:1;fill-rule:nonzero;stroke:none;stroke-width:1;marker:none;enable-background:accumulate"
       id="path18350"
       d="m 314.09395,634 v 5 h 3.9375 v -5 z m 0.90625,1 h 2.03125 l -0.0312,0.5 v 0.46875 0.0937 l -0.0625,0.125 -0.15625,0.3125 0.1875,0.34375 0.0625,0.125 v 0.125 0.40625 0.5 h -2.03125 v -1 h 0.90625 l -0.125,-0.21875 -0.125,-0.25 0.125,-0.25 0.1562,-0.2812 h -0.9375 z" />
    <path
       style="color:#000000;clip-rule:nonzero;display:inline;overflow:visible;visibility:visible;color-interpolation:sRGB;color-interpolation-filters:linearRGB;fill:#f1f2f2;fill-opacity:1;fill-rule:nonzero;stroke:none;stroke-width:1;marker:none;enable-background:accumulate"
       id="path18386"
       d="m 317.0002,643 c 0.61019,0 1,-0.42165 1,-0.96875 v -0.0312 h -1 z m 0,-1 v -1 h -1 v 1 z m -1,0 h -1 v 1 h 1 z m -1,0 v -1 h -1 v 1 z m 0,-1 h 1 v -1 h -1 z m 2,0 h 1 v -1 h -1 z" />
    <path
       style="color:#000000;clip-rule:nonzero;display:inline;overflow:visible;visibility:visible;color-interpolation:sRGB;color-interpolation-filters:linearRGB;fill:#f1f2f2;fill-opacity:1;fill-rule:nonzero;stroke:none;stroke-width:1;marker:none;enable-background:accumulate"
       id="path18388"
       d="m 312.90645,643 v -1 h -0.9375 v 1 z m -0.9375,-1 v -1 h -1 v 1 z m -1,0 h -1 v 1 h 1 z m -1,0 v -1 h -1 v 1 z m 0,-1 h 1 v -1 h -1 z m 2,0 h 0.9375 v -1 h -0.9375 z" />
    <path
       style="color:#000000;clip-rule:nonzero;display:inline;overflow:visible;visibility:visible;color-interpolation:sRGB;color-interpolation-filters:linearRGB;fill:#f1f2f2;fill-opacity:1;fill-rule:nonzero;stroke:none;stroke-width:1;marker:none;enable-background:accumulate"
       id="path18390"
       d="m 307.90645,643 v -1 h -0.90625 v 1 z m -0.90625,-1 v -1 h -1 v 1 z m -1,0 h -1 v 1 h 1 z m -1,0 v -1 h -1 v 1 z m -1,-1 z m 1,0 h 1 v -1 h -1 z m 2,0 h 0.90625 v -1 h -0.90625 z" />
  </g>
  <g
     transform="translate(-303.02908,-629.02581)"
     id="layer13" />
  <g
     transform="translate(-303.02908,-629.02581)"
     id="layer14" />
  <g
     transform="translate(-303.02908,-629.02581)"
     style="display:inline"
     id="layer15" />
  <g
     transform="translate(-303.02908,-629.02581)"
     style="display:inline"
     id="g71291" />
  <g
     transform="translate(-303.02908,-629.02581)"
     style="display:inline"
     id="g4953" />
  <g
     transform="translate(-303.02908,-629.02581)"
     style="display:inline"
     id="layer12" />
</svg>
