<?xml version="1.0" encoding="UTF-8" standalone="no"?>
<svg
   xmlns:dc="http://purl.org/dc/elements/1.1/"
   xmlns:cc="http://creativecommons.org/ns#"
   xmlns:rdf="http://www.w3.org/1999/02/22-rdf-syntax-ns#"
   xmlns:svg="http://www.w3.org/2000/svg"
   xmlns="http://www.w3.org/2000/svg"
   width="16"
   version="1.1"
   id="svg7384"
   height="16">
  <metadata
     id="metadata90">
    <rdf:RDF>
      <cc:Work
         rdf:about="">
        <dc:format>image/svg+xml</dc:format>
        <dc:type
           rdf:resource="http://purl.org/dc/dcmitype/StillImage" />
        <dc:title>Gnome Symbolic Icon Theme</dc:title>
      </cc:Work>
    </rdf:RDF>
  </metadata>
  <title
     id="title9167">Gnome Symbolic Icon Theme</title>
  <defs
     id="defs7386" />
  <g
     transform="translate(-283,-649)"
     style="display:inline"
     id="layer9" />
  <g
     transform="translate(-283,-649)"
     id="layer10" />
  <g
     transform="translate(-283,-649)"
     id="layer11">
    <path
       style="color:#000000;font-style:normal;font-variant:normal;font-weight:normal;font-stretch:normal;font-size:medium;line-height:normal;font-family:Sans;-inkscape-font-specification:Sans;text-indent:0;text-align:start;text-decoration:none;text-decoration-line:none;letter-spacing:normal;word-spacing:normal;text-transform:none;writing-mode:lr-tb;direction:ltr;baseline-shift:baseline;text-anchor:start;display:inline;overflow:visible;visibility:visible;fill:#f1f2f2;fill-opacity:1;stroke:none;stroke-width:2.15384626;marker:none;enable-background:new"
       id="path8587"
       d="m 291.0002,650.00714 c -2.20283,0 -3.99286,1.79004 -3.99286,3.99286 0,2.20282 1.79003,3.99286 3.99286,3.99286 2.20282,0 3.99285,-1.79004 3.99285,-3.99286 0,-2.20282 -1.79003,-3.99286 -3.99285,-3.99286 z m 0,1.05238 c 1.62635,0 2.94047,1.31413 2.94047,2.94048 0,1.62635 -1.31412,2.94048 -2.94047,2.94048 -1.62636,0 -2.94048,-1.31413 -2.94048,-2.94048 0,-1.62635 1.31412,-2.94048 2.94048,-2.94048 z" />
    <path
       style="color:#000000;font-style:normal;font-variant:normal;font-weight:normal;font-stretch:normal;font-size:medium;line-height:normal;font-family:Sans;-inkscape-font-specification:Sans;text-indent:0;text-align:start;text-decoration:none;text-decoration-line:none;letter-spacing:normal;word-spacing:normal;text-transform:none;writing-mode:lr-tb;direction:ltr;baseline-shift:baseline;text-anchor:start;display:inline;overflow:visible;visibility:visible;fill:#f1f2f2;fill-opacity:1;stroke:none;stroke-width:2.15384626;marker:none;enable-background:new"
       id="path8591"
       d="m 287.0002,657.00714 c -2.20283,0 -3.99286,1.79004 -3.99286,3.99286 0,2.20282 1.79003,3.99286 3.99286,3.99286 2.20282,0 3.99285,-1.79004 3.99285,-3.99286 0,-2.20282 -1.79003,-3.99286 -3.99285,-3.99286 z m 0,1.05238 c 1.62635,0 2.94047,1.31413 2.94047,2.94048 0,1.62635 -1.31412,2.94048 -2.94047,2.94048 -1.62636,0 -2.94048,-1.31413 -2.94048,-2.94048 0,-1.62635 1.31412,-2.94048 2.94048,-2.94048 z" />
    <path
       id="path8593"
       d="m -2,321 a 7,7 0 0 1 -7,7 7,7 0 0 1 -7,-7 7,7 0 0 1 7,-7 7,7 0 0 1 7,7 z"
       style="color:#000000;display:inline;overflow:visible;visibility:visible;fill:#f1f2f2;fill-opacity:1;stroke:none;stroke-width:2.15384626;marker:none;enable-background:new"
       transform="matrix(0.57130665,0,0,0.57130665,300.14111,477.61056)" />
    <path
       id="path8595"
       d="m -2,321 a 7,7 0 0 1 -7,7 7,7 0 0 1 -7,-7 7,7 0 0 1 7,-7 7,7 0 0 1 7,7 z"
       style="color:#000000;display:inline;overflow:visible;visibility:visible;fill:#f1f2f2;fill-opacity:0.36403509;stroke:none;stroke-width:2.15384626;marker:none;enable-background:new"
       transform="matrix(0.49523816,0,0,0.49523816,291.45734,502.02855)" />
  </g>
  <g
     transform="translate(-283,-649)"
     id="layer13" />
  <g
     transform="translate(-283,-649)"
     id="layer14" />
  <g
     transform="translate(-283,-649)"
     style="display:inline"
     id="layer15" />
  <g
     transform="translate(-283,-649)"
     style="display:inline"
     id="g71291" />
  <g
     transform="translate(-283,-649)"
     style="display:inline"
     id="g4953" />
  <g
     transform="translate(-283,-649)"
     style="display:inline"
     id="layer12" />
</svg>
