<?xml version="1.0" encoding="UTF-8" standalone="no"?>
<svg
   xmlns:dc="http://purl.org/dc/elements/1.1/"
   xmlns:cc="http://creativecommons.org/ns#"
   xmlns:rdf="http://www.w3.org/1999/02/22-rdf-syntax-ns#"
   xmlns:svg="http://www.w3.org/2000/svg"
   xmlns="http://www.w3.org/2000/svg"
   width="16"
   version="1.1"
   id="svg7384"
   height="16">
  <metadata
     id="metadata90">
    <rdf:RDF>
      <cc:Work
         rdf:about="">
        <dc:format>image/svg+xml</dc:format>
        <dc:type
           rdf:resource="http://purl.org/dc/dcmitype/StillImage" />
        <dc:title>Gnome Symbolic Icon Theme</dc:title>
      </cc:Work>
    </rdf:RDF>
  </metadata>
  <title
     id="title9167">Gnome Symbolic Icon Theme</title>
  <defs
     id="defs7386" />
  <g
     transform="translate(-223,-649)"
     style="display:inline"
     id="layer9" />
  <g
     transform="translate(-223,-649)"
     id="layer10" />
  <g
     transform="translate(-223,-649)"
     id="layer11">
    <path
       style="color:#000000;font-style:normal;font-variant:normal;font-weight:normal;font-stretch:normal;font-size:medium;line-height:normal;font-family:Sans;-inkscape-font-specification:Sans;text-indent:0;text-align:start;text-decoration:none;text-decoration-line:none;letter-spacing:normal;word-spacing:normal;text-transform:none;writing-mode:lr-tb;direction:ltr;baseline-shift:baseline;text-anchor:start;display:inline;overflow:visible;visibility:visible;fill:#f1f2f2;fill-opacity:1;stroke:none;stroke-width:2.15384626;marker:none;enable-background:new"
       id="path24839"
       d="m 230.5002,649.01339 c -4.13029,0 -7.48661,3.35631 -7.48661,7.48661 0,4.13029 3.35632,7.48661 7.48661,7.48661 4.13029,0 7.4866,-3.35632 7.4866,-7.48661 0,-4.1303 -3.35631,-7.48661 -7.4866,-7.48661 z m 0,1.97322 c 3.04941,0 5.51339,2.46398 5.51339,5.51339 0,3.04941 -2.46398,5.51339 -5.51339,5.51339 -3.04941,0 -5.5134,-2.46398 -5.5134,-5.51339 0,-3.04941 2.46399,-5.51339 5.5134,-5.51339 z" />
    <path
       style="color:#000000;font-style:normal;font-variant:normal;font-weight:normal;font-stretch:normal;font-size:medium;line-height:normal;font-family:Sans;-inkscape-font-specification:Sans;text-indent:0;text-align:start;text-decoration:none;text-decoration-line:none;letter-spacing:normal;word-spacing:normal;text-transform:none;writing-mode:lr-tb;direction:ltr;baseline-shift:baseline;text-anchor:start;display:inline;overflow:visible;visibility:visible;fill:#f1f2f2;fill-opacity:1;stroke:none;stroke-width:1;marker:none;enable-background:new"
       id="path25609"
       d="m 227.3125,652.96875 a 0.50005,0.50005 0 0 0 -0.21875,0.84375 l 3.09375,3.0625 a 0.50005,0.50005 0 0 0 0.0625,0.0312 0.50005,0.50005 0 0 0 0.0625,0.0312 0.50005,0.50005 0 0 0 0.0625,0.0312 0.50005,0.50005 0 0 0 0.0312,0 0.50005,0.50005 0 0 0 0.0625,0.0312 0.50005,0.50005 0 0 0 0.0937,0 h 0.15625 2.78125 a 0.50005,0.50005 0 1 0 0,-1 h -2.75 l -2.96875,-2.875 a 0.50005,0.50005 0 0 0 -0.46875,-0.15625 z" />
  </g>
  <g
     transform="translate(-223,-649)"
     id="layer13" />
  <g
     transform="translate(-223,-649)"
     id="layer14" />
  <g
     transform="translate(-223,-649)"
     style="display:inline"
     id="layer15" />
  <g
     transform="translate(-223,-649)"
     style="display:inline"
     id="g71291" />
  <g
     transform="translate(-223,-649)"
     style="display:inline"
     id="g4953" />
  <g
     transform="translate(-223,-649)"
     style="display:inline"
     id="layer12" />
</svg>
