<?xml version="1.0" encoding="UTF-8" standalone="no"?>
<svg
   xmlns:dc="http://purl.org/dc/elements/1.1/"
   xmlns:cc="http://creativecommons.org/ns#"
   xmlns:rdf="http://www.w3.org/1999/02/22-rdf-syntax-ns#"
   xmlns:svg="http://www.w3.org/2000/svg"
   xmlns="http://www.w3.org/2000/svg"
   id="svg7384"
   height="16"
   version="1.1"
   width="16">
  <metadata
     id="metadata90">
    <rdf:RDF>
      <cc:Work
         rdf:about="">
        <dc:format>image/svg+xml</dc:format>
        <dc:type
           rdf:resource="http://purl.org/dc/dcmitype/StillImage" />
        <dc:title>Gnome Symbolic Icon Theme</dc:title>
      </cc:Work>
    </rdf:RDF>
  </metadata>
  <title
     id="title9167">Gnome Symbolic Icon Theme</title>
  <defs
     id="defs7386" />
  <g
     transform="translate(-123.00039,-529.0264)"
     style="display:inline"
     id="layer9" />
  <g
     transform="translate(-123.00039,-529.0264)"
     id="layer10" />
  <g
     transform="translate(-123.00039,-529.0264)"
     id="layer11">
    <path
       style="display:inline;fill:#f1f2f2;fill-opacity:1;stroke:none"
       id="path11106-5"
       d="m 127.95963,537.66101 v 2.36614 h -3.59094 c -0.20663,0 -0.3683,0.20498 -0.3683,0.46705 v 1.05849 c 0,0.26197 0.16167,0.46705 0.3683,0.46705 3.42113,0 6.84225,0 10.26339,0 0.20664,0 0.36831,-0.20508 0.36831,-0.46705 v -1.05849 c 0,-0.26197 -0.16167,-0.46705 -0.36831,-0.46705 h -3.65498 v -2.36614 z" />
    <path
       style="color:#000000;font-style:normal;font-variant:normal;font-weight:normal;font-stretch:normal;font-size:medium;line-height:normal;font-family:'Bitstream Vera Sans';-inkscape-font-specification:'Bitstream Vera Sans';text-indent:0;text-align:start;text-decoration:none;text-decoration-line:none;letter-spacing:normal;word-spacing:normal;text-transform:none;writing-mode:lr-tb;direction:ltr;text-anchor:start;display:inline;overflow:visible;visibility:visible;fill:#f1f2f2;fill-opacity:1;stroke:none;stroke-width:2;marker:none;enable-background:accumulate"
       id="rect11110-4"
       d="m 126.80038,529.0264 c -0.95124,0 -1.79999,0.79333 -1.79999,1.74593 v 6.61339 c 0,0.95261 0.84875,1.74594 1.86792,1.74594 h 5.26416 c 1.01917,0 1.86792,-0.79333 1.86792,-1.74594 v -6.61339 c 0,-0.9526 -0.84875,-1.74593 -1.86792,-1.74593 z m 0.20001,2 h 5 c 1e-5,0.31661 0,-0.31595 0,0 v 6 0 h -5 c 0,0 0,0.044 0,0 v -6 c 0,-0.0439 0,0 0,0 z" />
    <path
       id="rect11880-7"
       d="m 128.0004,531.9978 h 2.99999 V 533 h -2.99999 z"
       style="color:#000000;display:inline;overflow:visible;visibility:visible;fill:#f1f2f2;fill-opacity:1;stroke:none;stroke-width:2;marker:none;enable-background:accumulate" />
    <path
       id="rect11882-6"
       d="m 130.00038,534.0022 h 1 v 1.00219 h -1 z"
       style="color:#000000;display:inline;overflow:visible;visibility:visible;fill:#f1f2f2;fill-opacity:1;stroke:none;stroke-width:2;marker:none;enable-background:accumulate" />
    <path
       style="display:inline;fill:#f1f2f2;fill-opacity:1;stroke:none"
       id="path11106-9"
       d="m 132.22933,532.0264 c 0.0701,0 0,0.20877 0,0.47581 v 1.07827 c 0,0.26693 0.0701,0.47581 0.15975,0.47581 1.48385,0 2.96771,0 4.45157,0 0.0896,0 0.15974,-0.20888 0.15974,-0.47581 v -1.07827 c 0,-0.26693 -0.0701,-0.47581 -0.15974,-0.47581 -0.15976,0 -4.5857,0.0631 -4.61132,0 z" />
    <path
       style="display:inline;fill:#f1f2f2;fill-opacity:1;stroke:none"
       id="path11106-9-7-0"
       d="m 128.97378,540.6506 c 0.0792,-0.0594 0.25217,0.0384 0.39407,0.22323 l 0.57302,0.74611 c 0.14184,0.18469 0.19083,0.37577 0.11162,0.43522 -1.31185,0.9846 -2.62371,1.96921 -3.93557,2.95382 -0.0792,0.0594 -0.25222,-0.0385 -0.39407,-0.22323 l -0.57302,-0.74611 c -0.14184,-0.18469 -0.19083,-0.37577 -0.11162,-0.43522 0,0 3.94648,-2.89315 3.93557,-2.95382 z" />
    <path
       style="display:inline;fill:#f1f2f2;fill-opacity:1;stroke:none"
       id="path3761-5"
       d="m 130.027,540.6506 c -0.0792,-0.0594 -0.25217,0.0384 -0.39407,0.22323 l -0.57302,0.74611 c -0.14184,0.18469 -0.19083,0.37577 -0.11162,0.43522 1.31185,0.9846 2.62371,1.96921 3.93557,2.95382 0.0792,0.0594 0.25222,-0.0385 0.39407,-0.22323 l 0.57302,-0.74611 c 0.14184,-0.18469 0.19083,-0.37577 0.11162,-0.43522 0,0 -3.94648,-2.89315 -3.93557,-2.95382 z" />
  </g>
  <g
     transform="translate(-123.00039,-529.0264)"
     id="layer13" />
  <g
     transform="translate(-123.00039,-529.0264)"
     id="layer14" />
  <g
     transform="translate(-123.00039,-529.0264)"
     style="display:inline"
     id="layer15" />
  <g
     transform="translate(-123.00039,-529.0264)"
     style="display:inline"
     id="g71291" />
  <g
     transform="translate(-123.00039,-529.0264)"
     style="display:inline"
     id="g4953" />
  <g
     transform="translate(-123.00039,-529.0264)"
     style="display:inline"
     id="layer12" />
</svg>
