<?xml version="1.0" encoding="UTF-8" standalone="no"?>
<svg
   xmlns:dc="http://purl.org/dc/elements/1.1/"
   xmlns:cc="http://creativecommons.org/ns#"
   xmlns:rdf="http://www.w3.org/1999/02/22-rdf-syntax-ns#"
   xmlns:svg="http://www.w3.org/2000/svg"
   xmlns="http://www.w3.org/2000/svg"
   width="16"
   height="16"
   version="1.1"
   id="svg7384">
  <metadata
     id="metadata90">
    <rdf:RDF>
      <cc:Work
         rdf:about="">
        <dc:format>image/svg+xml</dc:format>
        <dc:type
           rdf:resource="http://purl.org/dc/dcmitype/StillImage" />
        <dc:title>Gnome Symbolic Icon Theme</dc:title>
      </cc:Work>
    </rdf:RDF>
  </metadata>
  <title
     id="title9167">Gnome Symbolic Icon Theme</title>
  <defs
     id="defs7386" />
  <g
     style="display:inline"
     id="layer9"
     transform="translate(-221.0002,-257)">
    <path
       style="color:#f1f2f2;display:inline;overflow:visible;visibility:visible;fill:#ff6600;fill-opacity:1;fill-rule:nonzero;stroke:none;stroke-width:2;marker:none"
       id="path10898"
       d="m 229.875,265 c -0.49245,0 -0.875,0.38256 -0.875,0.875 v 6.25 c 0,0.49244 0.38255,0.875 0.875,0.875 h 6.25 c 0.49245,0 0.875,-0.38256 0.875,-0.875 v -6.25 C 237,265.38256 236.61745,265 236.125,265 Z m 2.125,1 h 2 v 4 h -2 z m 0,5 h 2 v 1 h -2 z"
       class="warning" />
    <path
       style="fill:#f1f2f2;fill-opacity:1;stroke:none"
       id="path3520-7-4"
       d="m 223,261 c -0.5,0 -1,0.5 -1,1 v 4 c 0,0.5 0.5,1 1,1 h 1 v -2 h 4 c 0.11796,-0.53925 0.55151,-0.9375 1.125,-0.9375 H 236 V 262 c 0,-0.5 -0.5,-1 -1,-1 z" />
    <path
       style="fill:#f1f2f2;fill-opacity:1;stroke:none"
       id="path4804-7-9"
       d="m 225,258 v 2 h 8 v -2 z" />
    <path
       style="fill:#f1f2f2;fill-opacity:1;stroke:none"
       id="path4806-9-7"
       d="m 225,266 v 5 h 3 v -5 z" />
  </g>
  <g
     id="layer10"
     transform="translate(-221.0002,-257)" />
  <g
     id="layer11"
     transform="translate(-221.0002,-257)" />
  <g
     id="layer12"
     transform="translate(-221.0002,-257)" />
  <g
     id="layer13"
     transform="translate(-221.0002,-257)" />
  <g
     id="layer14"
     transform="translate(-221.0002,-257)" />
  <g
     id="layer15"
     transform="translate(-221.0002,-257)" />
</svg>
