<?xml version="1.0" encoding="UTF-8" standalone="no"?>
<svg
   xmlns:dc="http://purl.org/dc/elements/1.1/"
   xmlns:cc="http://creativecommons.org/ns#"
   xmlns:rdf="http://www.w3.org/1999/02/22-rdf-syntax-ns#"
   xmlns:svg="http://www.w3.org/2000/svg"
   xmlns="http://www.w3.org/2000/svg"
   width="16"
   height="16"
   version="1.1"
   id="svg7384">
  <metadata
     id="metadata90">
    <rdf:RDF>
      <cc:Work
         rdf:about="">
        <dc:format>image/svg+xml</dc:format>
        <dc:type
           rdf:resource="http://purl.org/dc/dcmitype/StillImage" />
        <dc:title>Gnome Symbolic Icon Theme</dc:title>
      </cc:Work>
    </rdf:RDF>
  </metadata>
  <title
     id="title9167">Gnome Symbolic Icon Theme</title>
  <defs
     id="defs7386" />
  <g
     style="display:inline"
     id="layer9"
     transform="translate(-142,-338)" />
  <g
     id="layer10"
     transform="translate(-142,-338)">
    <g
       id="g10819"
       transform="translate(94,-60)" />
    <g
       id="layer1-6"
       transform="translate(142,338)">
      <path
         style="fill:#f1f2f2;fill-opacity:1;stroke:none"
         id="path3520"
         d="M 2,4 C 1.5,4 1,4.5 1,5 v 4 c 0,0.5 0.5,1 1,1 H 3 V 8 h 10 v 2 h 1 c 0.5,0 1,-0.5 1,-1 V 5 C 15,4.5 14.5,4 14,4 Z" />
      <path
         style="fill:#f1f2f2;fill-opacity:1;stroke:none"
         id="path4804"
         d="m 4,1 v 2 h 8 V 1 Z" />
      <path
         style="fill:#f1f2f2;fill-opacity:1;stroke:none"
         id="path4806"
         d="M 4,9.0000001 V 14 h 8 V 9 Z M 5,10 h 6 v 1 H 5 Z m 0,2 h 5 v 1 H 5 Z" />
    </g>
  </g>
  <g
     id="layer11"
     transform="translate(-142,-338)" />
  <g
     id="layer12"
     transform="translate(-142,-338)" />
  <g
     id="layer13"
     transform="translate(-142,-338)" />
  <g
     id="layer14"
     transform="translate(-142,-338)" />
  <g
     id="layer15"
     transform="translate(-142,-338)" />
</svg>
