<?xml version="1.0" encoding="UTF-8" standalone="no"?>
<svg
   xmlns:dc="http://purl.org/dc/elements/1.1/"
   xmlns:cc="http://creativecommons.org/ns#"
   xmlns:rdf="http://www.w3.org/1999/02/22-rdf-syntax-ns#"
   xmlns:svg="http://www.w3.org/2000/svg"
   xmlns="http://www.w3.org/2000/svg"
   width="16"
   version="1.1"
   id="svg7384"
   height="16">
  <metadata
     id="metadata90">
    <rdf:RDF>
      <cc:Work
         rdf:about="">
        <dc:format>image/svg+xml</dc:format>
        <dc:type
           rdf:resource="http://purl.org/dc/dcmitype/StillImage" />
        <dc:title>Gnome Symbolic Icon Theme</dc:title>
      </cc:Work>
    </rdf:RDF>
  </metadata>
  <title
     id="title9167">Gnome Symbolic Icon Theme</title>
  <defs
     id="defs7386" />
  <g
     transform="translate(-381.00015,-337)"
     style="display:inline"
     id="layer9">
    <path
       style="color:#f1f2f2;font-style:normal;font-variant:normal;font-weight:normal;font-stretch:normal;font-size:medium;line-height:normal;font-family:'Andale Mono';text-indent:0pt;text-align:start;text-decoration:none;text-decoration-line:none;letter-spacing:normal;word-spacing:normal;text-transform:none;direction:ltr;text-anchor:start;display:inline;overflow:visible;visibility:visible;fill:#f1f2f2;fill-opacity:1;fill-rule:nonzero;stroke:none;stroke-width:1.78125;marker:none"
       id="path9555"
       d="m 389.00015,342.01754 c -1.64587,0 -2.98246,1.33658 -2.98246,2.98246 0,1.64587 1.33659,2.98246 2.98246,2.98246 1.64587,0 2.98246,-1.33659 2.98246,-2.98246 0,-1.64588 -1.33659,-2.98246 -2.98246,-2.98246 z" />
    <path
       style="color:#f1f2f2;font-style:normal;font-variant:normal;font-weight:normal;font-stretch:normal;font-size:medium;line-height:normal;font-family:'Andale Mono';-inkscape-font-specification:Sans;text-indent:0pt;text-align:start;text-decoration:none;text-decoration-line:none;letter-spacing:normal;word-spacing:normal;text-transform:none;writing-mode:lr-tb;direction:ltr;baseline-shift:baseline;text-anchor:start;display:inline;overflow:visible;visibility:visible;fill:#f1f2f2;fill-opacity:1;stroke:none;stroke-width:0.99115044;marker:none;enable-background:accumulate"
       id="path9557"
       d="m 388.96875,338.0625 c -3.85777,0 -7,3.14223 -7,7 0,3.85777 3.14223,7 7,7 3.85776,0 7,-3.14223 7,-7 0,-3.85777 -3.14224,-7 -7,-7 z m 0,1 c 3.32116,0 6.03125,2.67883 6.03125,6 0,3.32117 -2.71009,6 -6.03125,6 -3.32117,0 -6,-2.67883 -6,-6 0,-3.32117 2.67883,-6 6,-6 z" />
  </g>
  <g
     transform="translate(-381.00015,-337)"
     style="display:inline"
     id="layer10" />
  <g
     transform="translate(-381.00015,-337)"
     id="layer11" />
  <g
     transform="translate(-381.00015,-337)"
     style="display:inline"
     id="layer13" />
  <g
     transform="translate(-381.00015,-337)"
     id="layer14" />
  <g
     transform="translate(-381.00015,-337)"
     style="display:inline"
     id="layer15" />
  <g
     transform="translate(-381.00015,-337)"
     style="display:inline"
     id="g71291" />
  <g
     transform="translate(-381.00015,-337)"
     style="display:inline"
     id="g4953" />
  <g
     transform="translate(-381.00015,-337)"
     style="display:inline"
     id="layer12" />
</svg>
