<svg xmlns="http://www.w3.org/2000/svg" viewBox="0 0 4.2333332 4.2333335">
    <g fill="#f1f2f2">
        <path d="M-.002-.007h.265v4.233h-.265z"/>
        <path d="M-.002-.007h4.234v.265H-.002z"/>
        <path d="M3.967-.007h.265v4.233h-.265z"/>
        <path d="M-.002 3.962h4.234v.264H-.002zM-.002.787h4.234v.264H-.002zM-.002 1.58h4.234v.265H-.002zM-.002 2.374h4.234v.265H-.002zM-.002 3.168h4.234v.265H-.002z"/>
        <path d="M.792-.007h.265v4.233H.792zM1.586-.007h.264v4.233h-.264zM2.38-.007h.264v4.233H2.38zM3.173-.007h.265v4.233h-.265z"/>
    </g>
</svg>
