<?xml version="1.0" encoding="UTF-8" standalone="no"?>
<svg
   xmlns:dc="http://purl.org/dc/elements/1.1/"
   xmlns:cc="http://creativecommons.org/ns#"
   xmlns:rdf="http://www.w3.org/1999/02/22-rdf-syntax-ns#"
   xmlns:svg="http://www.w3.org/2000/svg"
   xmlns="http://www.w3.org/2000/svg"
   width="16"
   version="1.1"
   id="svg7384"
   height="16">
  <metadata
     id="metadata90">
    <rdf:RDF>
      <cc:Work
         rdf:about="">
        <dc:format>image/svg+xml</dc:format>
        <dc:type
           rdf:resource="http://purl.org/dc/dcmitype/StillImage" />
        <dc:title>Gnome Symbolic Icon Theme</dc:title>
      </cc:Work>
    </rdf:RDF>
  </metadata>
  <title
     id="title9167">Gnome Symbolic Icon Theme</title>
  <defs
     id="defs7386" />
  <g
     transform="translate(-181.0002,-257)"
     style="display:inline"
     id="layer9">
    <path
       style="display:inline;fill:#f1f2f2;fill-opacity:1;fill-rule:evenodd;stroke:none;enable-background:new"
       id="rect7040"
       d="m 189.0002,257.0625 -2.25,3.40625 -3.4375,-1.15625 1.15625,3.4375 -3.40625,2.25 3.40625,2.25 -1.15625,3.4375 3.4375,-1.15625 2.25,3.40625 2.25,-3.40625 3.4375,1.15625 -1.15625,-3.4375 3.40625,-2.25 -3.40625,-2.25 1.15625,-3.4375 -3.4375,1.15625 z m 0,4.53125 0.71875,0.6875 2,2 c 0.2236,0.22597 0.33131,0.56107 0.28125,0.875 V 266 h -0.875 c -0.30421,0.0401 -0.62444,-0.0666 -0.84375,-0.28125 L 190.0002,265.4375 V 268 h -2 v -2.5625 l -0.28125,0.28125 c -0.19084,0.18226 -0.45489,0.28559 -0.71875,0.28125 h -0.15625 -0.84375 v -0.78125 c -0.001,-0.0312 -0.001,-0.0625 0,-0.0937 -0.0401,-0.30421 0.0666,-0.62444 0.28125,-0.84375 l 2,-2 z" />
  </g>
  <g
     transform="translate(-181.0002,-257)"
     style="display:inline"
     id="layer10" />
  <g
     transform="translate(-181.0002,-257)"
     id="layer11" />
  <g
     transform="translate(-181.0002,-257)"
     style="display:inline"
     id="layer13" />
  <g
     transform="translate(-181.0002,-257)"
     id="layer14" />
  <g
     transform="translate(-181.0002,-257)"
     style="display:inline"
     id="layer15" />
  <g
     transform="translate(-181.0002,-257)"
     style="display:inline"
     id="g71291" />
  <g
     transform="translate(-181.0002,-257)"
     style="display:inline"
     id="g4953" />
  <g
     transform="translate(-181.0002,-257)"
     style="display:inline"
     id="layer12" />
</svg>
