<svg xmlns="http://www.w3.org/2000/svg" version="1.1" viewBox="0 0 16 16"><path opacity=".5" d="m8 0.063l-2.25 3.406-3.438-1.156 1.158 3.437-3.407 2.25 3.406 2.25-1.156 3.438 3.437-1.158 2.25 3.407 2.25-3.406 3.438 1.156-1.157-3.437 3.406-2.25-3.406-2.25 1.156-3.438-3.437 1.158zm0 4.53l0.719 0.688 2 2c0.223 0.226 0.331 0.561 0.281 0.875v0.844h-0.875a1.032 1.032 0 0 1 -0.844 -0.281l-0.281-0.281v2.562h-2v-2.563l-0.281 0.282a1.036 1.036 0 0 1 -0.719 0.281h-1v-0.781a1.464 1.464 0 0 1 0 -0.094c-0.04-0.304 0.067-0.624 0.281-0.844l2-2z" fill-rule="evenodd" fill="#f1f2f2"/></svg>
