<svg xmlns="http://www.w3.org/2000/svg" version="1.1" viewBox="0 0 16 16"><path opacity=".5" d="m2.334 1c-0.7388 0-1.334 0.5955-1.334 1.334v11.332c0 0.739 0.5952 1.334 1.334 1.334h6.4277a4.5 4.5 0 0 1 -0.7617 -2.5 4.5 4.5 0 0 1 0.5078 -2.068l-0.5078-0.7093-1.6855 2.3593a1.001 1.001 0 1 1 -1.629 -1.164l1.3692-1.918h-2.0547c-0.554 0-1-0.446-1-1s0.446-1 1-1h2.0547l-1.3692-1.918a1.0001 1.0001 0 0 1 0.7715 -1.5937 1.0001 1.0001 0 0 1 0.8575 0.4297l1.6855 2.3593 1.6855-2.3593a1.0001 1.0001 0 0 1 0.8285 -0.4297 1.0001 1.0001 0 0 1 0.8 1.5937l-1.3687 1.918h2.0547c0.554 0 1 0.446 1 1 0 0.0104-0.006 0.019-0.006 0.0293a4.5 4.5 0 0 1 2.006 0.7305v-6.4258c0-0.7385-0.595-1.334-1.334-1.334h-11.332zm5.666 6c-0.554 0-1 0.446-1 1s0.446 1 1 1 1-0.446 1-1-0.446-1-1-1z" stroke-width=".87514" fill="#f1f2f2"/><path style="color:#f1f2f2" d="m12.5 9a3.5 3.5 0 1 0 0 7 3.5 3.5 0 0 0 0 -7zm-2.5 2.969h5v1.031h-5z" class="error" overflow="visible" fill="#c00"/></svg>
