<?xml version="1.0" encoding="UTF-8" standalone="no"?>
<svg
   xmlns:dc="http://purl.org/dc/elements/1.1/"
   xmlns:cc="http://creativecommons.org/ns#"
   xmlns:rdf="http://www.w3.org/1999/02/22-rdf-syntax-ns#"
   xmlns:svg="http://www.w3.org/2000/svg"
   xmlns="http://www.w3.org/2000/svg"
   width="16"
   height="16"
   version="1.1"
   id="svg7384">
  <metadata
     id="metadata90">
    <rdf:RDF>
      <cc:Work
         rdf:about="">
        <dc:format>image/svg+xml</dc:format>
        <dc:type
           rdf:resource="http://purl.org/dc/dcmitype/StillImage" />
        <dc:title>Gnome Symbolic Icon Theme</dc:title>
      </cc:Work>
    </rdf:RDF>
  </metadata>
  <title
     id="title9167">Gnome Symbolic Icon Theme</title>
  <defs
     id="defs7386" />
  <g
     style="display:inline"
     id="layer9"
     transform="translate(-202.0002,-490)" />
  <g
     id="layer10"
     transform="translate(-202.0002,-490)" />
  <g
     id="layer11"
     transform="translate(-202.0002,-490)">
    <path
       style="color:#000000;display:inline;overflow:visible;visibility:visible;fill:#f1f2f2;fill-opacity:1;fill-rule:evenodd;stroke:none;stroke-width:1;marker:none;enable-background:accumulate"
       id="rect11668-7"
       d="M 205.1875,490 C 203.98238,490 203,491.01795 203,492.21875 v 11.5625 c 0,1.2008 0.98238,2.21875 2.1875,2.21875 h 9.625 c 1.20512,0 2.1875,-1.01795 2.1875,-2.21875 v -11.5625 C 217,491.01795 216.01762,490 214.8125,490 Z M 205,493 h 10 v 11 h -10 z m 1,1 v 4 h 8.03125 v -4 z m 2.34375,1.4375 a 0.50004997,0.50004997 0 0 1 0.0625,0 0.50004997,0.50004997 0 0 1 0.59375,0.5 V 496 h 2 v -0.0625 a 0.50004997,0.50004997 0 1 1 1,0 V 496 c 0,0.54535 -0.45465,1 -1,1 h -2 c -0.54535,0 -1,-0.45465 -1,-1 v -0.0625 a 0.50004997,0.50004997 0 0 1 0.34375,-0.5 z M 206.03125,499 v 4 h 8.03125 v -4 z m 2.3125,1.4375 a 0.50004997,0.50004997 0 0 1 0.0625,0 0.50004997,0.50004997 0 0 1 0.59375,0.5 V 501 h 2 v -0.0625 a 0.50004997,0.50004997 0 1 1 1,0 V 501 c 0,0.54535 -0.45465,1 -1,1 h -2 c -0.54535,0 -1,-0.45465 -1,-1 v -0.0625 a 0.50004997,0.50004997 0 0 1 0.34375,-0.5 z" />
  </g>
  <g
     id="layer12"
     transform="translate(-202.0002,-490)" />
  <g
     id="layer13"
     transform="translate(-202.0002,-490)" />
  <g
     id="layer14"
     transform="translate(-202.0002,-490)" />
  <g
     style="display:inline"
     id="layer15"
     transform="translate(-202.0002,-490)" />
  <g
     style="display:inline"
     id="g4953"
     transform="translate(-202.0002,-490)" />
</svg>
