<?xml version="1.0" encoding="UTF-8" standalone="no"?>
<svg id="svg10" xmlns="http://www.w3.org/2000/svg" version="1.1" viewBox="0 0 16 16"><g id="g8" fill="#f1f2f2"><path id="path2" d="m2.469 1s-1.5 0-1.5 1.5v11.969s0 1.53 1.5 1.53h7.5v-2h-7v-10.999h1v-2zm8.5 0v2h1v7h2v-7.5c0-1.5-1.5-1.5-1.5-1.5z"/><path id="path4" d="m5.5 0h3.969c0.277 0 0.5 0.223 0.5 0.5v3c0 0.277-0.223 0.5-0.5 0.5h-3.969a0.499 0.499 0 0 1 -0.5 -0.5v-3c0-0.277 0.223-0.5 0.5-0.5z"/><path id="path6" color="#f1f2f2" style="fill:#cc0000" overflow="visible" d="m10.969 11h1.375l1.125 1.094 1.094-1.094h1.406v1.469l-1.094 1.062 1.094 1.063v1.406h-1.439l-1.062-1.063-1.062 1.063h-1.436v-1.406l1.062-1.063-1.062-1.062z"/></g></svg>
