<?xml version="1.0" encoding="UTF-8" standalone="no"?>
<svg
   xmlns:dc="http://purl.org/dc/elements/1.1/"
   xmlns:cc="http://creativecommons.org/ns#"
   xmlns:rdf="http://www.w3.org/1999/02/22-rdf-syntax-ns#"
   xmlns:svg="http://www.w3.org/2000/svg"
   xmlns="http://www.w3.org/2000/svg"
   width="16"
   version="1.1"
   id="svg7384"
   height="16">
  <metadata
     id="metadata90">
    <rdf:RDF>
      <cc:Work
         rdf:about="">
        <dc:format>image/svg+xml</dc:format>
        <dc:type
           rdf:resource="http://purl.org/dc/dcmitype/StillImage" />
        <dc:title>Gnome Symbolic Icon Theme</dc:title>
      </cc:Work>
    </rdf:RDF>
  </metadata>
  <title
     id="title9167">Gnome Symbolic Icon Theme</title>
  <defs
     id="defs7386" />
  <g
     transform="translate(-161.03125,-397.00005)"
     style="display:inline"
     id="layer9">
    <path
       style="fill:#f1f2f2;fill-opacity:1;stroke:none"
       id="rect4897-9"
       d="m 162.0002,399.5 v 11.9688 c 0,1.5312 1.5,1.5312 1.5,1.5312 h 4.5 v -2 h -4 v -11 h 1 v -2 h -1.5 c 0,0 -1.5,0 -1.5,1.5 z m 10,-1.49995 v 2 h 1.03125 v 4.03125 L 175.0002,404 v -4.5 c 0,-1.50004 -1.5,-1.5 -1.5,-1.5 z m -6.9375,4.03125 v 6.96875 l 2.9375,-5e-5 v -3.00191 c 0,0 0,-1.99809 2,-1.99809 h 2 v -2 z" />
    <path
       id="rect4899-7"
       d="m 166.53125,397.00006 h 3.96896 c 0.277,0 0.5,0.22298 0.5,0.49995 v 3.00005 c 0,0.27697 -0.223,0.49995 -0.5,0.49995 h -3.96896 c -0.277,0 -0.5,-0.22298 -0.5,-0.49995 v -3.00005 c 0,-0.27697 0.223,-0.49995 0.5,-0.49995 z"
       style="fill:#f1f2f2;fill-opacity:1;stroke:none" />
    <path
       style="color:#f1f2f2;display:inline;overflow:visible;visibility:visible;fill:#ff6600;fill-opacity:1;fill-rule:nonzero;stroke:none;stroke-width:2;marker:none"
       id="path10898-3-1-1-6"
       d="m 170.0002,405 c -1,0 -1,1 -1,1 v 6 c 0,0 0,1 1,1 h 6 c 1,0 1,-1 1,-1 v -6 c 0,-1 -1,-1 -1,-1 z m 2,1 2.03125,5e-5 v 4 L 172.0002,410 Z m 0,5 2.03125,5e-5 -0.0312,0.99995 h -2 z"
       class="warning" />
  </g>
  <g
     transform="translate(-161.03125,-397.00005)"
     style="display:inline"
     id="layer10" />
  <g
     transform="translate(-161.03125,-397.00005)"
     id="layer11" />
  <g
     transform="translate(-161.03125,-397.00005)"
     style="display:inline"
     id="layer13" />
  <g
     transform="translate(-161.03125,-397.00005)"
     id="layer14" />
  <g
     transform="translate(-161.03125,-397.00005)"
     style="display:inline"
     id="layer15" />
  <g
     transform="translate(-161.03125,-397.00005)"
     style="display:inline"
     id="g71291" />
  <g
     transform="translate(-161.03125,-397.00005)"
     style="display:inline"
     id="g4953" />
  <g
     transform="translate(-161.03125,-397.00005)"
     style="display:inline"
     id="layer12" />
</svg>
