<?xml version="1.0" encoding="UTF-8" standalone="no"?>
<svg
   xmlns:dc="http://purl.org/dc/elements/1.1/"
   xmlns:cc="http://creativecommons.org/ns#"
   xmlns:rdf="http://www.w3.org/1999/02/22-rdf-syntax-ns#"
   xmlns:svg="http://www.w3.org/2000/svg"
   xmlns="http://www.w3.org/2000/svg"
   width="16"
   version="1.1"
   id="svg7384"
   height="16">
  <metadata
     id="metadata90">
    <rdf:RDF>
      <cc:Work
         rdf:about="">
        <dc:format>image/svg+xml</dc:format>
        <dc:type
           rdf:resource="http://purl.org/dc/dcmitype/StillImage" />
        <dc:title>Gnome Symbolic Icon Theme</dc:title>
      </cc:Work>
    </rdf:RDF>
  </metadata>
  <title
     id="title9167">Gnome Symbolic Icon Theme</title>
  <defs
     id="defs7386" />
  <g
     transform="translate(-181.03125,-397.00006)"
     style="display:inline"
     id="layer9">
    <path
       style="fill:#f1f2f2;fill-opacity:1;stroke:none"
       id="rect4897-9-4"
       d="m 183.5002,398 c 0,0 -1.5,0 -1.5,1.5 v 11.9688 c 0,0 0,1.5312 1.5,1.5312 h 7.5 v -2 h -7.00005 v -11 h 1.00005 v -2 z m 8.5,0 v 2 h 1 v 7 h 2 v -7.5 c 0,-1.5 -1.5,-1.5 -1.5,-1.5 z" />
    <path
       id="rect4899-7-8"
       d="m 186.53125,397.00006 h 3.96895 c 0.277,0 0.5,0.22297 0.5,0.49994 v 3.00006 c 0,0.27697 -0.223,0.49994 -0.5,0.49994 h -3.96895 c -0.277,0 -0.5,-0.22297 -0.5,-0.49994 V 397.5 c 0,-0.27697 0.223,-0.49994 0.5,-0.49994 z"
       style="fill:#f1f2f2;fill-opacity:1;stroke:none" />
    <path
       style="color:#f1f2f2;display:inline;overflow:visible;visibility:visible;fill:#f1f2f2;fill-opacity:1;stroke:none;stroke-width:2;marker:none"
       id="path3761-2-3-5-4-8-9-8-9-9-0-6"
       d="m 192,408 h 1.375 L 194.5,409.09375 195.59375,408 H 197 v 1.46875 l -1.09375,1.0625 1.09375,1.0625 V 413 h -1.4375 L 194.5,411.9375 193.4375,413 H 192 v -1.40625 l 1.0625,-1.0625 -1.0625,-1.0625 z" />
  </g>
  <g
     transform="translate(-181.03125,-397.00006)"
     style="display:inline"
     id="layer10" />
  <g
     transform="translate(-181.03125,-397.00006)"
     id="layer11" />
  <g
     transform="translate(-181.03125,-397.00006)"
     style="display:inline"
     id="layer13" />
  <g
     transform="translate(-181.03125,-397.00006)"
     id="layer14" />
  <g
     transform="translate(-181.03125,-397.00006)"
     style="display:inline"
     id="layer15" />
  <g
     transform="translate(-181.03125,-397.00006)"
     style="display:inline"
     id="g71291" />
  <g
     transform="translate(-181.03125,-397.00006)"
     style="display:inline"
     id="g4953" />
  <g
     transform="translate(-181.03125,-397.00006)"
     style="display:inline"
     id="layer12" />
</svg>
