<svg xmlns="http://www.w3.org/2000/svg" version="1.1" viewBox="0 0 16 16"><path stroke-width=".87631" fill="#f1f2f2" d="m8.2051 1.0039a7 7 0 0 0 -7.2051 6.9961 7 7 0 1 0 14 0 7 7 0 0 0 -6.7949 -6.9961zm2.3569 4.0039c0.369-0.0444 0.511 0.1144 0.403 0.6094-0.128 0.582-0.924 2.8066-1.1408 3.3906v0.002c-0.171 0.46-0.4684 1.4442-0.6914 1.7792-0.424 0.588-0.8677-0.189-1.0547-0.646-0.913-1.7884-0.3329-1.2961-2.3769-2.2621-0.684-0.256-0.9822-0.7493-0.3692-1.0723 0.299-0.143 1.744-0.6226 2.041-0.7266s2.0581-0.7468 2.746-0.9668c0.172-0.0555 0.321-0.0926 0.443-0.1074z"/></svg>
