<?xml version="1.0" encoding="UTF-8" standalone="no"?>
<svg
   xmlns:dc="http://purl.org/dc/elements/1.1/"
   xmlns:cc="http://creativecommons.org/ns#"
   xmlns:rdf="http://www.w3.org/1999/02/22-rdf-syntax-ns#"
   xmlns:svg="http://www.w3.org/2000/svg"
   xmlns="http://www.w3.org/2000/svg"
   width="16"
   height="16"
   version="1.1"
   id="svg7384">
  <metadata
     id="metadata90">
    <rdf:RDF>
      <cc:Work
         rdf:about="">
        <dc:format>image/svg+xml</dc:format>
        <dc:type
           rdf:resource="http://purl.org/dc/dcmitype/StillImage" />
        <dc:title>Gnome Symbolic Icon Theme</dc:title>
      </cc:Work>
    </rdf:RDF>
  </metadata>
  <title
     id="title9167">Gnome Symbolic Icon Theme</title>
  <defs
     id="defs7386" />
  <g
     style="display:inline"
     id="layer9"
     transform="translate(-462,-300)" />
  <g
     id="layer10"
     transform="translate(-462,-300)" />
  <g
     id="layer11"
     transform="translate(-462,-300)" />
  <g
     id="layer12"
     transform="translate(-462,-300)" />
  <g
     id="layer13"
     transform="translate(-462,-300)" />
  <g
     id="layer14"
     transform="translate(-462,-300)">
    <path
       style="color:#000000;font-style:normal;font-variant:normal;font-weight:normal;font-stretch:normal;font-size:medium;line-height:normal;font-family:Sans;-inkscape-font-specification:Sans;text-indent:0;text-align:start;text-decoration:none;text-decoration-line:none;letter-spacing:normal;word-spacing:normal;text-transform:none;writing-mode:lr-tb;direction:ltr;baseline-shift:baseline;text-anchor:start;display:inline;overflow:visible;visibility:visible;fill:#f1f2f2;fill-opacity:1;stroke:none;stroke-width:1.99999988;marker:none;enable-background:accumulate"
       id="path1234"
       d="m 464.8127,301 a 1.0000999,1.0000999 0 0 0 -0.8125,1 v 13 a 1.0000999,1.0000999 0 0 0 1,1 h 10 a 1.0000999,1.0000999 0 0 0 1,-1 v -9.4375 a 1.0000999,1.0000999 0 0 0 -0.28125,-0.71875 l -3.5625,-3.5625 A 1.0000999,1.0000999 0 0 0 471.4377,301 h -6.4375 a 1.0000999,1.0000999 0 0 0 -0.0937,0 1.0000999,1.0000999 0 0 0 -0.0937,0 z m 1.1875,2 h 5 v 3 h 3 v 8 h -8 z" />
  </g>
  <g
     style="display:inline"
     id="layer15"
     transform="translate(-462,-300)" />
  <g
     style="display:inline"
     id="g4953"
     transform="translate(-462,-300)" />
</svg>
