<?xml version="1.0" encoding="UTF-8" standalone="no"?>
<svg
   xmlns:dc="http://purl.org/dc/elements/1.1/"
   xmlns:cc="http://creativecommons.org/ns#"
   xmlns:rdf="http://www.w3.org/1999/02/22-rdf-syntax-ns#"
   xmlns:svg="http://www.w3.org/2000/svg"
   xmlns="http://www.w3.org/2000/svg"
   width="16"
   version="1.1"
   id="svg7384"
   height="16">
  <metadata
     id="metadata90">
    <rdf:RDF>
      <cc:Work
         rdf:about="">
        <dc:format>image/svg+xml</dc:format>
        <dc:type
           rdf:resource="http://purl.org/dc/dcmitype/StillImage" />
        <dc:title>Gnome Symbolic Icon Theme</dc:title>
      </cc:Work>
    </rdf:RDF>
  </metadata>
  <title
     id="title9167">Gnome Symbolic Icon Theme</title>
  <defs
     id="defs7386" />
  <g
     transform="translate(-261.0002,-827)"
     style="display:inline"
     id="layer9" />
  <g
     transform="translate(-261.0002,-827)"
     style="display:inline"
     id="layer10" />
  <g
     transform="translate(-261.0002,-827)"
     id="layer11" />
  <g
     transform="translate(-261.0002,-827)"
     style="display:inline"
     id="layer13" />
  <g
     transform="translate(-261.0002,-827)"
     id="layer14" />
  <g
     transform="translate(-261.0002,-827)"
     style="display:inline"
     id="layer15" />
  <g
     transform="translate(-261.0002,-827)"
     style="display:inline"
     id="g71291" />
  <g
     transform="translate(-261.0002,-827)"
     style="display:inline"
     id="g4953" />
  <g
     transform="translate(-261.0002,-827)"
     style="display:inline"
     id="layer12">
    <path
       style="color:#000000;font-style:normal;font-variant:normal;font-weight:normal;font-stretch:normal;font-size:medium;line-height:normal;font-family:Sans;-inkscape-font-specification:Sans;text-indent:0;text-align:start;text-decoration:none;text-decoration-line:none;letter-spacing:normal;word-spacing:normal;text-transform:none;writing-mode:lr-tb;direction:ltr;baseline-shift:baseline;text-anchor:start;display:inline;overflow:visible;visibility:visible;fill:#f1f2f2;fill-opacity:1;stroke:none;stroke-width:2;marker:none;enable-background:accumulate"
       id="path28099"
       d="m 264,830 v 2 h 1.90625 c -0.0552,0 0.0937,0.17104 0.0937,0.0937 v 0.9375 h -1 c -1.71588,0 -3.03787,1.10986 -3.0625,2.46875 -0.0123,0.67944 0.3195,1.35323 0.875,1.8125 0.5555,0.45927 1.30959,0.71875 2.1875,0.71875 h 2 1 v -1 -4.9375 C 268,830.92256 267.10309,830 265.90625,830 Z m 1,5.03125 h 1 v 1 h -1 c -0.51941,0 -0.78011,-0.14571 -0.90625,-0.25 -0.12614,-0.10429 -0.15755,-0.17804 -0.15625,-0.25 0.003,-0.14393 0.0927,-0.5 1.0625,-0.5 z" />
    <path
       style="color:#000000;font-style:normal;font-variant:normal;font-weight:normal;font-stretch:normal;font-size:medium;line-height:normal;font-family:Sans;-inkscape-font-specification:Sans;text-indent:0;text-align:start;text-decoration:none;text-decoration-line:none;letter-spacing:normal;word-spacing:normal;text-transform:none;writing-mode:lr-tb;direction:ltr;baseline-shift:baseline;text-anchor:start;display:inline;overflow:visible;visibility:visible;fill:#f1f2f2;fill-opacity:1;stroke:none;stroke-width:2;marker:none;enable-background:accumulate"
       id="path28101"
       d="m 269,829 v 8.03125 1 h 1 2 c 0.93855,0 1.78249,-0.3823 2.3125,-0.96875 0.53001,-0.58645 0.75988,-1.33268 0.75,-2.0625 -0.01,-0.72982 -0.28566,-1.45407 -0.8125,-2.03125 C 273.72316,832.39157 272.92105,832 272,832 h -1 v -3 z m 2,5 h 1 c 0.42179,0 0.61965,0.13545 0.78125,0.3125 0.1616,0.17705 0.27751,0.44294 0.28125,0.71875 0.004,0.27581 -0.0984,0.51973 -0.25,0.6875 -0.15163,0.16777 -0.35374,0.3125 -0.8125,0.3125 h -1 z" />
    <path
       style="color:#000000;font-style:normal;font-variant:normal;font-weight:normal;font-stretch:normal;font-size:medium;line-height:normal;font-family:Sans;-inkscape-font-specification:Sans;text-indent:0;text-align:start;text-decoration:none;text-decoration-line:none;letter-spacing:normal;word-spacing:normal;text-transform:none;writing-mode:lr-tb;direction:ltr;baseline-shift:baseline;text-anchor:start;display:inline;overflow:visible;visibility:visible;fill:#cc0000;fill-opacity:1;stroke:none;stroke-width:1;marker:none;enable-background:accumulate"
       id="path28103"
       d="m 264,838.28125 -0.34375,0.375 -2,2 a 0.50005,0.50005 0 1 0 0.6875,0.6875 L 264,839.6875 l 1.65625,1.65625 0.34375,0.375 0.34375,-0.375 1.65625,-1.65625 1.65625,1.65625 0.34375,0.375 0.34375,-0.375 1.65625,-1.65625 1.65625,1.65625 0.34375,0.375 0.34375,-0.375 2,-2 a 0.50005,0.50005 0 1 0 -0.6875,-0.6875 L 274,840.3125 l -1.65625,-1.65625 -0.34375,-0.375 -0.34375,0.375 -1.65625,1.65625 -1.65625,-1.65625 -0.34375,-0.375 -0.34375,0.375 -1.65625,1.65625 -1.65625,-1.65625 z" />
  </g>
</svg>
