<?xml version="1.0" encoding="UTF-8" standalone="no"?>
<svg
   xmlns:dc="http://purl.org/dc/elements/1.1/"
   xmlns:cc="http://creativecommons.org/ns#"
   xmlns:rdf="http://www.w3.org/1999/02/22-rdf-syntax-ns#"
   xmlns:svg="http://www.w3.org/2000/svg"
   xmlns="http://www.w3.org/2000/svg"
   width="16.0002"
   version="1.1"
   id="svg7384"
   height="16">
  <metadata
     id="metadata90">
    <rdf:RDF>
      <cc:Work
         rdf:about="">
        <dc:format>image/svg+xml</dc:format>
        <dc:type
           rdf:resource="http://purl.org/dc/dcmitype/StillImage" />
        <dc:title>Gnome Symbolic Icon Theme</dc:title>
      </cc:Work>
    </rdf:RDF>
  </metadata>
  <title
     id="title9167">Gnome Symbolic Icon Theme</title>
  <defs
     id="defs7386" />
  <g
     transform="translate(-121,-317)"
     style="display:inline"
     id="layer9">
    <path
       style="color:#f1f2f2;font-style:normal;font-variant:normal;font-weight:normal;font-stretch:normal;font-size:medium;line-height:normal;font-family:Sans;-inkscape-font-specification:Sans;text-indent:0;text-align:start;text-decoration:none;text-decoration-line:none;letter-spacing:normal;word-spacing:normal;text-transform:none;writing-mode:lr-tb;direction:ltr;baseline-shift:baseline;text-anchor:start;display:inline;overflow:visible;visibility:visible;opacity:0.5;fill:#f1f2f2;fill-opacity:1;stroke:none;stroke-width:2;marker:none;enable-background:accumulate"
       id="rect5837-1"
       d="m 124.03145,317 c -1.66919,0 -3.03125,1.36206 -3.03125,3.03125 v 7.9375 c 0,1.66919 1.36206,3.03125 3.03125,3.03125 h 6.96875 v -2 h -2 v -2 h 7 v -6.96875 c 0,-1.66919 -1.36206,-3.03125 -3.03125,-3.03125 z m 0,2 h 8.9375 c 0.59578,0 1.03125,0.43547 1.03125,1.03125 V 326 h -11 v -5.96875 c 0,-0.59578 0.43547,-1.03125 1.03125,-1.03125 z m -1.03125,8 h 5 v 2 h -3.96875 c -0.59578,0 -1.03125,-0.43547 -1.03125,-1.03125 z" />
    <path
       style="color:#f1f2f2;display:inline;overflow:visible;visibility:visible;fill:#cc0000;fill-opacity:1;stroke:none;stroke-width:2;marker:none"
       id="path3761-2-3-5-4-8-9-8-0-9-3"
       d="m 132.0002,328 h 1.375 l 1.125,1.09375 L 135.59395,328 h 1.40625 v 1.46875 l -1.09375,1.0625 1.09375,1.0625 V 333 h -1.4375 l -1.0625,-1.0625 -1.0625,1.0625 h -1.4375 v -1.40625 l 1.0625,-1.0625 -1.0625,-1.0625 z" />
  </g>
  <g
     transform="translate(-121,-317)"
     id="layer10" />
  <g
     transform="translate(-121,-317)"
     id="layer11" />
  <g
     transform="translate(-121,-317)"
     id="layer13" />
  <g
     transform="translate(-121,-317)"
     id="layer14" />
  <g
     transform="translate(-121,-317)"
     style="display:inline"
     id="layer15" />
  <g
     transform="translate(-121,-317)"
     style="display:inline"
     id="g71291" />
  <g
     transform="translate(-121,-317)"
     style="display:inline"
     id="g4953" />
  <g
     transform="translate(-121,-317)"
     style="display:inline"
     id="layer12" />
</svg>
