<svg xmlns="http://www.w3.org/2000/svg" version="1.1" xmlns:xlink="http://www.w3.org/1999/xlink" viewBox="0 0 16 16"><path id="transmission" opacity=".8" d="m27.458 0.33898c-4.4051 0-7.9883 3.5885-7.9883 8 0 1.3943 0.3596 2.7051 0.98828 3.8477 0.12875 0.23399 0.2692 0.46066 0.41992 0.67969 0.15121 0.21973 0.31453 0.42966 0.48633 0.63281 1.4664 1.734 3.6521 2.8398 6.0938 2.8398 4.4051 0 7.9883-3.5885 7.9883-8s-3.5832-8-7.9883-8zm0 1.0156c3.8566 0 6.9746 3.1221 6.9746 6.9844 0 1.1037-0.26317 2.1431-0.7168 3.0703-5.983-0.307-4.693-4.0921-1.27-2.571-1.291-1.8285-2.527-2.5276-3.717-2.541-2.698-0.0305-5.153 3.4417-7.445 5.287-0.509-0.97-0.801-2.073-0.801-3.246 0-3.8623 3.118-6.9844 6.9746-6.9844z"/><use id="transmission-qt" xlink:href="#transmission" transform="translate(-19.458 -.33898)" height="100%" width="100%" y="0" x="0" fill="#f1f2f2"/></svg>
