<?xml version="1.0" encoding="UTF-8" standalone="no"?>
<svg
   xmlns:dc="http://purl.org/dc/elements/1.1/"
   xmlns:cc="http://creativecommons.org/ns#"
   xmlns:rdf="http://www.w3.org/1999/02/22-rdf-syntax-ns#"
   xmlns:svg="http://www.w3.org/2000/svg"
   xmlns="http://www.w3.org/2000/svg"
   width="16"
   version="1.1"
   id="svg7384"
   height="16">
  <metadata
     id="metadata90">
    <rdf:RDF>
      <cc:Work
         rdf:about="">
        <dc:format>image/svg+xml</dc:format>
        <dc:type
           rdf:resource="http://purl.org/dc/dcmitype/StillImage" />
        <dc:title>Gnome Symbolic Icon Theme</dc:title>
      </cc:Work>
    </rdf:RDF>
  </metadata>
  <title
     id="title9167">Gnome Symbolic Icon Theme</title>
  <defs
     id="defs7386" />
  <g
     transform="translate(-141.0002,-357)"
     style="display:inline"
     id="layer9">
    <path
       style="fill:#f1f2f2;fill-opacity:1;stroke:none"
       id="path8342"
       d="m 154.0002,372 v -4.5 h -3.5 z" />
    <path
       style="fill:#f1f2f2;fill-opacity:1;stroke:none"
       id="rect8347"
       d="m 144.5002,358 c -1.385,0 -2.5,1.115 -2.5,2.5 v 5 c 0,1.385 1.115,2.5 2.5,2.5 h 9 c 1.385,0 2.5,-1.115 2.5,-2.5 v -5 c 0,-1.385 -1.115,-2.5 -2.5,-2.5 z m 4.5,2 h 1 c 0.27614,0 0.53779,0.10029 0.71875,0.28125 l 2,2 0.6875,0.71875 -0.6875,0.71875 -2,2 C 150.53799,365.89971 150.27634,366 150.0002,366 h -1 v -1 c 0,-0.27614 0.10029,-0.53779 0.28125,-0.71875 L 149.5627,364 h -4.5625 v -2 h 4.5625 l -0.28125,-0.28125 C 149.10049,361.53779 149.0002,361.27614 149.0002,361 Z" />
  </g>
  <g
     transform="translate(-141.0002,-357)"
     style="display:inline"
     id="layer10" />
  <g
     transform="translate(-141.0002,-357)"
     id="layer11" />
  <g
     transform="translate(-141.0002,-357)"
     style="display:inline"
     id="layer13" />
  <g
     transform="translate(-141.0002,-357)"
     id="layer14" />
  <g
     transform="translate(-141.0002,-357)"
     style="display:inline"
     id="layer15" />
  <g
     transform="translate(-141.0002,-357)"
     style="display:inline"
     id="g71291" />
  <g
     transform="translate(-141.0002,-357)"
     style="display:inline"
     id="g4953" />
  <g
     transform="translate(-141.0002,-357)"
     style="display:inline"
     id="layer12" />
</svg>
