<?xml version="1.0" encoding="UTF-8" standalone="no"?>
<svg
   xmlns:dc="http://purl.org/dc/elements/1.1/"
   xmlns:cc="http://creativecommons.org/ns#"
   xmlns:rdf="http://www.w3.org/1999/02/22-rdf-syntax-ns#"
   xmlns:svg="http://www.w3.org/2000/svg"
   xmlns="http://www.w3.org/2000/svg"
   width="16.001245"
   version="1.1"
   id="svg7384"
   height="16">
  <metadata
     id="metadata90">
    <rdf:RDF>
      <cc:Work
         rdf:about="">
        <dc:format>image/svg+xml</dc:format>
        <dc:type
           rdf:resource="http://purl.org/dc/dcmitype/StillImage" />
        <dc:title>Gnome Symbolic Icon Theme</dc:title>
      </cc:Work>
    </rdf:RDF>
  </metadata>
  <title
     id="title9167">Gnome Symbolic Icon Theme</title>
  <defs
     id="defs7386" />
  <g
     transform="translate(-340.99896,-217)"
     style="display:inline"
     id="layer9">
    <path
       style="color:#f1f2f2;font-style:normal;font-variant:normal;font-weight:normal;font-stretch:normal;font-size:medium;line-height:normal;font-family:'Bitstream Vera Sans';text-indent:0pt;text-align:start;text-decoration:none;text-decoration-line:none;letter-spacing:normal;word-spacing:normal;text-transform:none;direction:ltr;text-anchor:start;display:inline;overflow:visible;visibility:visible;fill:#f1f2f2;fill-opacity:1;stroke:none;stroke-width:2;marker:none"
       id="path10937"
       d="m 345.0002,219 v -0.96875 h 7 V 219 Z m -0.53125,-1.96875 c -0.49033,0 -0.79607,0.22845 -1.03125,0.46875 -0.23518,0.2403 -0.4375,0.55851 -0.4375,1.03125 V 219 h -2 v 2 h 15 v -2 h -2 v -0.34375 -0.0313 c -0.0239,-0.4306 -0.17024,-0.75229 -0.40625,-1.03125 -0.22373,-0.26444 -0.62669,-0.52931 -1.15625,-0.53125 v -0.0313 h -0.0625 -7.90625 z M 353.0002,222 h 2 c 1.67365,2.92708 1.13767,5.85417 0,8.78125 C 354.56519,231.90048 354.01782,233 352.8127,233 h -8.625 c -1.20512,0 -1.77657,-1.09045 -2.1875,-2.21875 -1.04232,-2.86194 -1.59896,-5.75423 0,-8.78125 h 2 c -1.72127,2.94784 -0.98485,5.97016 0,9 h 9 c 1.09591,-3.03321 1.63141,-6.04944 0,-9 z m -4.96875,-0.0165 v 8.01647 h 0.96875 v -8.01647 z m 1.96875,0 c 1.7622,2.2232 0.83031,5.63124 0,8.01647 h 1 c 0.82494,-2.30834 1.83942,-5.62739 0,-8.01647 z m -3.96875,0 c -1.81727,2.60868 -0.85626,5.81287 0,8.01647 h 0.96875 c -0.86519,-2.2217 -1.66269,-5.46859 0,-8.01647 z" />
  </g>
  <g
     transform="translate(-340.99896,-217)"
     id="layer10" />
  <g
     transform="translate(-340.99896,-217)"
     id="layer11" />
  <g
     transform="translate(-340.99896,-217)"
     id="layer13" />
  <g
     transform="translate(-340.99896,-217)"
     id="layer14" />
  <g
     transform="translate(-340.99896,-217)"
     style="display:inline"
     id="layer15" />
  <g
     transform="translate(-340.99896,-217)"
     style="display:inline"
     id="g71291" />
  <g
     transform="translate(-340.99896,-217)"
     style="display:inline"
     id="g4953" />
  <g
     transform="translate(-340.99896,-217)"
     style="display:inline"
     id="layer12" />
</svg>
