<?xml version="1.0" encoding="UTF-8" standalone="no"?>
<svg
   xmlns:dc="http://purl.org/dc/elements/1.1/"
   xmlns:cc="http://creativecommons.org/ns#"
   xmlns:rdf="http://www.w3.org/1999/02/22-rdf-syntax-ns#"
   xmlns:svg="http://www.w3.org/2000/svg"
   xmlns="http://www.w3.org/2000/svg"
   width="16"
   height="16"
   version="1.1"
   id="svg7384">
  <metadata
     id="metadata90">
    <rdf:RDF>
      <cc:Work
         rdf:about="">
        <dc:format>image/svg+xml</dc:format>
        <dc:type
           rdf:resource="http://purl.org/dc/dcmitype/StillImage" />
        <dc:title>Gnome Symbolic Icon Theme</dc:title>
      </cc:Work>
    </rdf:RDF>
  </metadata>
  <title
     id="title9167">Gnome Symbolic Icon Theme</title>
  <defs
     id="defs7386" />
  <g
     style="display:inline"
     id="layer9"
     transform="translate(-142,-490)" />
  <g
     id="layer10"
     transform="translate(-142,-490)" />
  <g
     id="layer11"
     transform="translate(-142,-490)">
    <path
       style="color:#f1f2f2;font-style:normal;font-variant:normal;font-weight:normal;font-stretch:normal;font-size:medium;line-height:normal;font-family:'Bitstream Vera Sans';-inkscape-font-specification:'Bitstream Vera Sans';text-indent:0;text-align:start;text-decoration:none;text-decoration-line:none;letter-spacing:normal;word-spacing:normal;text-transform:none;writing-mode:lr-tb;direction:ltr;text-anchor:start;display:inline;overflow:visible;visibility:visible;fill:#f1f2f2;fill-opacity:1;stroke:none;stroke-width:2;marker:none;enable-background:accumulate"
       id="rect11749-5-0"
       d="M 144.1875,490 C 142.98238,490 142,491.01794 142,492.21875 v 10.5625 c 0,1.20081 0.98238,2.21875 2.1875,2.21875 h 11.625 c 1.20512,0 2.1875,-1.01794 2.1875,-2.21875 v -10.5625 C 158,491.01794 157.01762,490 155.8125,490 Z m 0,2 h 11.625 c 0.12026,0 0.1875,0.08 0.1875,0.21875 v 10.5625 C 156,502.91996 155.93276,503 155.8125,503 h -11.625 C 144.06724,503 144,502.92 144,502.78125 v -10.5625 C 144,492.08004 144.06724,492 144.1875,492 Z" />
    <path
       style="color:#000000;font-style:normal;font-variant:normal;font-weight:normal;font-stretch:normal;font-size:medium;line-height:normal;font-family:'Bitstream Vera Sans';-inkscape-font-specification:'Bitstream Vera Sans';text-indent:0;text-align:start;text-decoration:none;text-decoration-line:none;letter-spacing:normal;word-spacing:normal;text-transform:none;writing-mode:lr-tb;direction:ltr;text-anchor:start;display:inline;overflow:visible;visibility:visible;fill:#f1f2f2;fill-opacity:1;stroke:none;stroke-width:1;marker:none;enable-background:accumulate"
       id="path3643"
       d="m 151.3125,493.96875 a 0.50005,0.50005 0 0 0 -0.34375,0.34375 l -1.6875,6.09375 -0.875,-1.1875 A 0.50005,0.50005 0 0 0 148,499 h -2.5 -0.5 v 1 h 0.5 2.25 l 1.3125,1.78125 a 0.50005,0.50005 0 0 0 0.875,-0.15625 l 1.53125,-5.4375 1.0625,3.46875 A 0.50005,0.50005 0 0 0 153,500 h 1.5 0.5 v -1 h -0.5 -1.125 l -1.4375,-4.6875 a 0.50005,0.50005 0 0 0 -0.625,-0.34375 z" />
  </g>
  <g
     id="layer12"
     transform="translate(-142,-490)" />
  <g
     id="layer13"
     transform="translate(-142,-490)" />
  <g
     id="layer14"
     transform="translate(-142,-490)" />
  <g
     style="display:inline"
     id="layer15"
     transform="translate(-142,-490)" />
  <g
     style="display:inline"
     id="g4953"
     transform="translate(-142,-490)" />
</svg>
