<?xml version="1.0" encoding="UTF-8" standalone="no"?>
<svg
   xmlns:dc="http://purl.org/dc/elements/1.1/"
   xmlns:cc="http://creativecommons.org/ns#"
   xmlns:rdf="http://www.w3.org/1999/02/22-rdf-syntax-ns#"
   xmlns:svg="http://www.w3.org/2000/svg"
   xmlns="http://www.w3.org/2000/svg"
   width="16"
   version="1.1"
   id="svg7384"
   height="16">
  <metadata
     id="metadata90">
    <rdf:RDF>
      <cc:Work
         rdf:about="">
        <dc:format>image/svg+xml</dc:format>
        <dc:type
           rdf:resource="http://purl.org/dc/dcmitype/StillImage" />
        <dc:title>Gnome Symbolic Icon Theme</dc:title>
      </cc:Work>
    </rdf:RDF>
  </metadata>
  <title
     id="title9167">Gnome Symbolic Icon Theme</title>
  <defs
     id="defs7386" />
  <g
     transform="translate(-141.00041,-867)"
     style="display:inline"
     id="layer9" />
  <g
     transform="translate(-141.00041,-867)"
     style="display:inline"
     id="layer10" />
  <g
     transform="translate(-141.00041,-867)"
     id="layer11" />
  <g
     transform="translate(-141.00041,-867)"
     style="display:inline"
     id="layer13" />
  <g
     transform="translate(-141.00041,-867)"
     id="layer14" />
  <g
     transform="translate(-141.00041,-867)"
     style="display:inline"
     id="layer15" />
  <g
     transform="translate(-141.00041,-867)"
     style="display:inline"
     id="g71291" />
  <g
     transform="translate(-141.00041,-867)"
     style="display:inline"
     id="g4953" />
  <g
     transform="translate(-141.00041,-867)"
     style="display:inline"
     id="layer12">
    <path
       id="rect12858"
       d="m 873.38443,-157.00041 h 3.23077 c 0.21308,0 0.38462,0.22402 0.38462,0.50229 v 2.99541 c 0,0.27828 -0.17154,0.5023 -0.38462,0.5023 h -3.23077 c -0.21307,0 -0.38461,-0.22402 -0.38461,-0.5023 v -2.99541 c 0,-0.27827 0.17154,-0.50229 0.38461,-0.50229 z"
       style="color:#000000;display:inline;overflow:visible;visibility:visible;fill:#f1f2f2;fill-opacity:1;fill-rule:nonzero;stroke:none;stroke-width:1;marker:none;enable-background:new"
       transform="rotate(90)" />
    <path
       id="rect12860"
       d="m 873.38443,-151.00041 h 3.23077 c 0.21308,0 0.38462,0.22402 0.38462,0.50229 v 2.99541 c 0,0.27828 -0.17154,0.5023 -0.38462,0.5023 h -3.23077 c -0.21307,0 -0.38461,-0.22402 -0.38461,-0.5023 v -2.99541 c 0,-0.27827 0.17154,-0.50229 0.38461,-0.50229 z"
       style="color:#000000;display:inline;overflow:visible;visibility:visible;fill:#f1f2f2;fill-opacity:1;fill-rule:nonzero;stroke:none;stroke-width:1;marker:none;enable-background:new"
       transform="rotate(90)" />
    <path
       id="rect12862"
       d="m 873.38443,-145.00041 h 3.23077 c 0.21308,0 0.38462,0.22402 0.38462,0.50229 v 2.99541 c 0,0.27828 -0.17154,0.5023 -0.38462,0.5023 h -3.23077 c -0.21307,0 -0.38461,-0.22402 -0.38461,-0.5023 v -2.99541 c 0,-0.27827 0.17154,-0.50229 0.38461,-0.50229 z"
       style="color:#000000;display:inline;overflow:visible;visibility:visible;fill:#f1f2f2;fill-opacity:1;fill-rule:nonzero;stroke:none;stroke-width:1;marker:none;enable-background:new"
       transform="rotate(90)" />
  </g>
</svg>
