<?xml version="1.0" encoding="UTF-8" standalone="no"?>
<svg
   xmlns:dc="http://purl.org/dc/elements/1.1/"
   xmlns:cc="http://creativecommons.org/ns#"
   xmlns:rdf="http://www.w3.org/1999/02/22-rdf-syntax-ns#"
   xmlns:svg="http://www.w3.org/2000/svg"
   xmlns="http://www.w3.org/2000/svg"
   width="16"
   version="1.1"
   id="svg7384"
   height="16">
  <metadata
     id="metadata90">
    <rdf:RDF>
      <cc:Work
         rdf:about="">
        <dc:format>image/svg+xml</dc:format>
        <dc:type
           rdf:resource="http://purl.org/dc/dcmitype/StillImage" />
        <dc:title>Gnome Symbolic Icon Theme</dc:title>
      </cc:Work>
    </rdf:RDF>
  </metadata>
  <title
     id="title9167">Gnome Symbolic Icon Theme</title>
  <defs
     id="defs7386" />
  <g
     transform="translate(-41.0002,-767)"
     style="display:inline"
     id="layer9" />
  <g
     transform="translate(-41.0002,-767)"
     id="layer10" />
  <g
     transform="translate(-41.0002,-767)"
     id="layer11" />
  <g
     transform="translate(-41.0002,-767)"
     id="layer13" />
  <g
     transform="translate(-41.0002,-767)"
     id="layer14" />
  <g
     transform="translate(-41.0002,-767)"
     style="display:inline"
     id="layer15" />
  <g
     transform="translate(-41.0002,-767)"
     style="display:inline"
     id="g71291" />
  <g
     transform="translate(-41.0002,-767)"
     style="display:inline"
     id="g4953" />
  <g
     transform="translate(-41.0002,-767)"
     style="display:inline"
     id="layer12">
    <path
       style="color:#000000;font-style:normal;font-variant:normal;font-weight:normal;font-stretch:normal;font-size:medium;line-height:normal;font-family:Sans;-inkscape-font-specification:Sans;text-indent:0;text-align:start;text-decoration:none;text-decoration-line:none;letter-spacing:normal;word-spacing:normal;text-transform:none;writing-mode:lr-tb;direction:ltr;baseline-shift:baseline;text-anchor:start;display:inline;overflow:visible;visibility:visible;fill:#f1f2f2;fill-opacity:1;stroke:none;stroke-width:2;marker:none;enable-background:new"
       id="path12113"
       d="M 42.78125,776 A 1.0001,1.0001 0 0 0 42,777 v 4 a 1.0001,1.0001 0 0 0 1,1 h 4 a 1.0001,1.0001 0 1 0 0,-2 h -3 v -3 a 1.0001,1.0001 0 0 0 -1.21875,-1 z" />
    <path
       style="color:#000000;font-style:normal;font-variant:normal;font-weight:normal;font-stretch:normal;font-size:medium;line-height:normal;font-family:Sans;-inkscape-font-specification:Sans;text-indent:0;text-align:start;text-decoration:none;text-decoration-line:none;letter-spacing:normal;word-spacing:normal;text-transform:none;writing-mode:lr-tb;direction:ltr;baseline-shift:baseline;text-anchor:start;display:inline;overflow:visible;visibility:visible;fill:#f1f2f2;fill-opacity:1;stroke:none;stroke-width:2;marker:none;enable-background:new"
       id="path12147"
       d="m 47.375,775.5 a 1.0001,1.0001 0 0 0 -0.59375,0.28125 l -4.5,4.5 a 1.016466,1.016466 0 1 0 1.4375,1.4375 l 4.5,-4.5 A 1.0001,1.0001 0 0 0 47.375,775.5 Z" />
    <path
       id="rect12919"
       d="m 42.000198,781 h 1 v 1 h -1 z"
       style="color:#000000;display:inline;overflow:visible;visibility:visible;fill:#bdbdbd;fill-opacity:1;stroke:none;stroke-width:2;marker:none;enable-background:new" />
    <path
       style="color:#000000;font-style:normal;font-variant:normal;font-weight:normal;font-stretch:normal;font-size:medium;line-height:normal;font-family:Sans;-inkscape-font-specification:Sans;text-indent:0;text-align:start;text-decoration:none;text-decoration-line:none;letter-spacing:normal;word-spacing:normal;text-transform:none;writing-mode:lr-tb;direction:ltr;baseline-shift:baseline;text-anchor:start;display:inline;overflow:visible;visibility:visible;fill:#f1f2f2;fill-opacity:1;stroke:none;stroke-width:2;marker:none;enable-background:new"
       id="path12111"
       d="M 50.90625,768 A 1.001098,1.001098 0 1 0 51,770 h 3 v 3 a 1.0001,1.0001 0 1 0 2,0 v -4 a 1.0001,1.0001 0 0 0 -1,-1 h -4 a 1.0001,1.0001 0 0 0 -0.09375,0 z" />
    <path
       id="rect12923"
       d="m 55.000198,768 h 1 v 1 h -1 z"
       style="color:#000000;display:inline;overflow:visible;visibility:visible;fill:#bdbdbd;fill-opacity:1;stroke:none;stroke-width:2;marker:none;enable-background:new" />
    <path
       style="color:#000000;font-style:normal;font-variant:normal;font-weight:normal;font-stretch:normal;font-size:medium;line-height:normal;font-family:Sans;-inkscape-font-specification:Sans;text-indent:0;text-align:start;text-decoration:none;text-decoration-line:none;letter-spacing:normal;word-spacing:normal;text-transform:none;writing-mode:lr-tb;direction:ltr;baseline-shift:baseline;text-anchor:start;display:inline;overflow:visible;visibility:visible;fill:#f1f2f2;fill-opacity:1;stroke:none;stroke-width:2;marker:none;enable-background:new"
       id="path12925"
       d="m 54.78125,768 a 1.0001,1.0001 0 0 0 -0.5,0.28125 l -4.5,4.46875 a 1.016466,1.016466 0 1 0 1.4375,1.4375 l 4.5,-4.46875 A 1.0001,1.0001 0 0 0 54.78125,768 Z" />
    <path
       id="rect4479-2"
       d="m 42.000198,776 h 1 v 1 h -1 z"
       style="color:#000000;display:inline;overflow:visible;visibility:visible;fill:#f1f2f2;fill-opacity:1;fill-rule:nonzero;stroke:none;stroke-width:2;marker:none;enable-background:accumulate" />
    <path
       id="rect4479-2-9"
       d="m 47.000198,781 h 1 v 1 h -1 z"
       style="color:#000000;display:inline;overflow:visible;visibility:visible;fill:#f1f2f2;fill-opacity:1;fill-rule:nonzero;stroke:none;stroke-width:2;marker:none;enable-background:accumulate" />
    <path
       id="rect4479-2-9-9-0-8"
       d="m 55.000198,773 h 1 v 1 h -1 z"
       style="color:#000000;display:inline;overflow:visible;visibility:visible;fill:#f1f2f2;fill-opacity:1;fill-rule:nonzero;stroke:none;stroke-width:2;marker:none;enable-background:accumulate" />
    <path
       id="rect4479-2-9-9-0-8-1"
       d="m 50.000198,768 h 1 v 1 h -1 z"
       style="color:#000000;display:inline;overflow:visible;visibility:visible;fill:#f1f2f2;fill-opacity:1;fill-rule:nonzero;stroke:none;stroke-width:2;marker:none;enable-background:accumulate" />
  </g>
</svg>
