<?xml version="1.0" encoding="UTF-8" standalone="no"?>
<svg
   xmlns:osb="http://www.openswatchbook.org/uri/2009/osb"
   xmlns:dc="http://purl.org/dc/elements/1.1/"
   xmlns:cc="http://creativecommons.org/ns#"
   xmlns:rdf="http://www.w3.org/1999/02/22-rdf-syntax-ns#"
   xmlns:svg="http://www.w3.org/2000/svg"
   xmlns="http://www.w3.org/2000/svg"
   width="16"
   version="1.1"
   id="svg7384"
   height="16">
  <metadata
     id="metadata90">
    <rdf:RDF>
      <cc:Work
         rdf:about="">
        <dc:format>image/svg+xml</dc:format>
        <dc:type
           rdf:resource="http://purl.org/dc/dcmitype/StillImage" />
        <dc:title>Gnome Symbolic Icon Theme</dc:title>
      </cc:Work>
    </rdf:RDF>
  </metadata>
  <title
     id="title9167">Gnome Symbolic Icon Theme</title>
  <defs
     id="defs7386">
    <linearGradient
       osb:paint="solid"
       id="linearGradient19282"
       gradientTransform="matrix(-2.7365795,0.28202934,-0.18908311,-0.99988321,239.54008,-879.45557)">
      <stop
         style="stop-color:#666666;stop-opacity:1;"
         offset="0"
         id="stop19284" />
    </linearGradient>
  </defs>
  <g
     transform="translate(-61.0004,-887)"
     style="display:inline"
     id="layer9" />
  <g
     transform="translate(-61.0004,-887)"
     style="display:inline"
     id="layer10" />
  <g
     transform="translate(-61.0004,-887)"
     id="layer11" />
  <g
     transform="translate(-61.0004,-887)"
     style="display:inline"
     id="layer13" />
  <g
     transform="translate(-61.0004,-887)"
     id="layer14" />
  <g
     transform="translate(-61.0004,-887)"
     style="display:inline"
     id="layer15" />
  <g
     transform="translate(-61.0004,-887)"
     style="display:inline"
     id="g71291" />
  <g
     transform="translate(-61.0004,-887)"
     style="display:inline"
     id="g4953" />
  <g
     transform="translate(-61.0004,-887)"
     style="display:inline"
     id="layer12">
    <path
       id="rect9843"
       d="m 65.000199,890 c 0.554,0 1,0.446 1,1 v 0 c 0,0.554 -0.446,1 -1,1 -0.554001,0 -1.000001,-0.446 -1.000001,-1 v 0 c 0,-0.554 0.446,-1 1.000001,-1 z"
       style="color:#000000;display:inline;overflow:visible;visibility:visible;fill:#f1f2f2;fill-opacity:1;fill-rule:nonzero;stroke:none;stroke-width:1;marker:none;enable-background:new" />
    <path
       id="rect9833"
       d="m 69.000199,890 c 0.554,0 1,0.446 1,1 v 0 c 0,0.554 -0.446,1 -1,1 -0.554001,0 -1.000001,-0.446 -1.000001,-1 v 0 c 0,-0.554 0.446,-1 1.000001,-1 z"
       style="color:#000000;display:inline;overflow:visible;visibility:visible;fill:#f1f2f2;fill-opacity:1;fill-rule:nonzero;stroke:none;stroke-width:1;marker:none;enable-background:new" />
    <path
       id="rect9835"
       d="m 73.000199,890 c 0.554,0 1,0.446 1,1 v 0 c 0,0.554 -0.446,1 -1,1 -0.554001,0 -1.000001,-0.446 -1.000001,-1 v 0 c 0,-0.554 0.446,-1 1.000001,-1 z"
       style="color:#000000;display:inline;overflow:visible;visibility:visible;fill:#f1f2f2;fill-opacity:1;fill-rule:nonzero;stroke:none;stroke-width:1;marker:none;enable-background:new" />
    <path
       id="rect9837"
       d="m 65.000199,894 c 0.554,0 1,0.446 1,1 v 0 c 0,0.554 -0.446,1 -1,1 -0.554001,0 -1.000001,-0.446 -1.000001,-1 v 0 c 0,-0.554 0.446,-1 1.000001,-1 z"
       style="color:#000000;display:inline;overflow:visible;visibility:visible;fill:#f1f2f2;fill-opacity:1;fill-rule:nonzero;stroke:none;stroke-width:1;marker:none;enable-background:new" />
    <path
       id="rect9839"
       d="m 69.000199,894 c 0.554,0 1,0.446 1,1 v 0 c 0,0.554 -0.446,1 -1,1 -0.554001,0 -1.000001,-0.446 -1.000001,-1 v 0 c 0,-0.554 0.446,-1 1.000001,-1 z"
       style="color:#000000;display:inline;overflow:visible;visibility:visible;fill:#f1f2f2;fill-opacity:1;fill-rule:nonzero;stroke:none;stroke-width:1;marker:none;enable-background:new" />
    <path
       id="rect9841"
       d="m 73.000199,894 c 0.554,0 1,0.446 1,1 v 0 c 0,0.554 -0.446,1 -1,1 -0.554001,0 -1.000001,-0.446 -1.000001,-1 v 0 c 0,-0.554 0.446,-1 1.000001,-1 z"
       style="color:#000000;display:inline;overflow:visible;visibility:visible;fill:#f1f2f2;fill-opacity:1;fill-rule:nonzero;stroke:none;stroke-width:1;marker:none;enable-background:new" />
    <path
       id="rect9845"
       d="m 65.000199,898 c 0.554,0 1,0.446 1,1 v 0 c 0,0.554 -0.446,1 -1,1 -0.554001,0 -1.000001,-0.446 -1.000001,-1 v 0 c 0,-0.554 0.446,-1 1.000001,-1 z"
       style="color:#000000;display:inline;overflow:visible;visibility:visible;fill:#f1f2f2;fill-opacity:1;fill-rule:nonzero;stroke:none;stroke-width:1;marker:none;enable-background:new" />
    <path
       id="rect9847"
       d="m 69.000199,898 c 0.554,0 1,0.446 1,1 v 0 c 0,0.554 -0.446,1 -1,1 -0.554001,0 -1.000001,-0.446 -1.000001,-1 v 0 c 0,-0.554 0.446,-1 1.000001,-1 z"
       style="color:#000000;display:inline;overflow:visible;visibility:visible;fill:#f1f2f2;fill-opacity:1;fill-rule:nonzero;stroke:none;stroke-width:1;marker:none;enable-background:new" />
    <path
       id="rect9849"
       d="m 73.000199,898 c 0.554,0 1,0.446 1,1 v 0 c 0,0.554 -0.446,1 -1,1 -0.554001,0 -1.000001,-0.446 -1.000001,-1 v 0 c 0,-0.554 0.446,-1 1.000001,-1 z"
       style="color:#000000;display:inline;overflow:visible;visibility:visible;fill:#f1f2f2;fill-opacity:1;fill-rule:nonzero;stroke:none;stroke-width:1;marker:none;enable-background:new" />
  </g>
</svg>
