<?xml version="1.0" encoding="UTF-8" standalone="no"?>
<svg
   xmlns:dc="http://purl.org/dc/elements/1.1/"
   xmlns:cc="http://creativecommons.org/ns#"
   xmlns:rdf="http://www.w3.org/1999/02/22-rdf-syntax-ns#"
   xmlns:svg="http://www.w3.org/2000/svg"
   xmlns="http://www.w3.org/2000/svg"
   width="16"
   version="1.1"
   id="svg7384"
   height="16">
  <metadata
     id="metadata90">
    <rdf:RDF>
      <cc:Work
         rdf:about="">
        <dc:format>image/svg+xml</dc:format>
        <dc:type
           rdf:resource="http://purl.org/dc/dcmitype/StillImage" />
        <dc:title>Gnome Symbolic Icon Theme</dc:title>
      </cc:Work>
    </rdf:RDF>
  </metadata>
  <title
     id="title9167">Gnome Symbolic Icon Theme</title>
  <defs
     id="defs7386" />
  <g
     transform="translate(-201.0004,-867)"
     style="display:inline"
     id="layer9" />
  <g
     transform="translate(-201.0004,-867)"
     style="display:inline"
     id="layer10" />
  <g
     transform="translate(-201.0004,-867)"
     id="layer11" />
  <g
     transform="translate(-201.0004,-867)"
     style="display:inline"
     id="layer13" />
  <g
     transform="translate(-201.0004,-867)"
     id="layer14" />
  <g
     transform="translate(-201.0004,-867)"
     style="display:inline"
     id="layer15" />
  <g
     transform="translate(-201.0004,-867)"
     style="display:inline"
     id="g71291" />
  <g
     transform="translate(-201.0004,-867)"
     style="display:inline"
     id="g4953" />
  <g
     transform="translate(-201.0004,-867)"
     style="display:inline"
     id="layer12">
    <path
       id="rect20747"
       d="m 202.38481,870 h 1.23077 c 0.21308,0 0.38462,0.16894 0.38462,0.37879 v 1.24242 c 0,0.20985 -0.17154,0.37879 -0.38462,0.37879 h -1.23077 c -0.21307,0 -0.38461,-0.16894 -0.38461,-0.37879 v -1.24242 c 0,-0.20985 0.17154,-0.37879 0.38461,-0.37879 z"
       style="color:#000000;display:inline;overflow:visible;visibility:visible;fill:#f1f2f2;fill-opacity:1;fill-rule:nonzero;stroke:none;stroke-width:1;marker:none;enable-background:new" />
    <path
       id="rect20749"
       d="m 202.38481,874.01562 h 1.23077 c 0.21308,0 0.38462,0.16894 0.38462,0.37879 v 1.24243 c 0,0.20985 -0.17154,0.37878 -0.38462,0.37878 h -1.23077 c -0.21307,0 -0.38461,-0.16893 -0.38461,-0.37878 v -1.24243 c 0,-0.20985 0.17154,-0.37879 0.38461,-0.37879 z"
       style="color:#000000;display:inline;overflow:visible;visibility:visible;fill:#f1f2f2;fill-opacity:1;fill-rule:nonzero;stroke:none;stroke-width:1;marker:none;enable-background:new" />
    <path
       id="rect20751"
       d="m 202.38481,878 h 1.23077 c 0.21308,0 0.38462,0.16894 0.38462,0.37879 v 1.24242 c 0,0.20985 -0.17154,0.37879 -0.38462,0.37879 h -1.23077 c -0.21307,0 -0.38461,-0.16894 -0.38461,-0.37879 v -1.24242 c 0,-0.20985 0.17154,-0.37879 0.38461,-0.37879 z"
       style="color:#000000;display:inline;overflow:visible;visibility:visible;fill:#f1f2f2;fill-opacity:1;fill-rule:nonzero;stroke:none;stroke-width:1;marker:none;enable-background:new" />
    <path
       style="color:#000000;display:inline;overflow:visible;visibility:visible;fill:#f1f2f2;fill-opacity:1;stroke:none;stroke-width:2;marker:none;enable-background:new"
       id="rect20753"
       d="m 208.0002,870 v 4 h -3.0625 l 5.125,5.78125 5.125,-5.78125 h -3.1875 v -4 z" />
  </g>
</svg>
