<?xml version="1.0" encoding="UTF-8" standalone="no"?>
<svg
   xmlns:osb="http://www.openswatchbook.org/uri/2009/osb"
   xmlns:dc="http://purl.org/dc/elements/1.1/"
   xmlns:cc="http://creativecommons.org/ns#"
   xmlns:rdf="http://www.w3.org/1999/02/22-rdf-syntax-ns#"
   xmlns:svg="http://www.w3.org/2000/svg"
   xmlns="http://www.w3.org/2000/svg"
   width="16"
   version="1.1"
   id="svg7384"
   height="16">
  <metadata
     id="metadata90">
    <rdf:RDF>
      <cc:Work
         rdf:about="">
        <dc:format>image/svg+xml</dc:format>
        <dc:type
           rdf:resource="http://purl.org/dc/dcmitype/StillImage" />
        <dc:title>Gnome Symbolic Icon Theme</dc:title>
      </cc:Work>
    </rdf:RDF>
  </metadata>
  <title
     id="title9167">Gnome Symbolic Icon Theme</title>
  <defs
     id="defs7386">
    <linearGradient
       osb:paint="solid"
       id="linearGradient19282"
       gradientTransform="matrix(-2.7365795,0.28202934,-0.18908311,-0.99988321,239.54008,-879.45557)">
      <stop
         style="stop-color:#666666;stop-opacity:1;"
         offset="0"
         id="stop19284" />
    </linearGradient>
  </defs>
  <g
     transform="translate(-61.0004,-867)"
     style="display:inline"
     id="layer9" />
  <g
     transform="translate(-61.0004,-867)"
     style="display:inline"
     id="layer10" />
  <g
     transform="translate(-61.0004,-867)"
     id="layer11" />
  <g
     transform="translate(-61.0004,-867)"
     style="display:inline"
     id="layer13" />
  <g
     transform="translate(-61.0004,-867)"
     id="layer14" />
  <g
     transform="translate(-61.0004,-867)"
     style="display:inline"
     id="layer15" />
  <g
     transform="translate(-61.0004,-867)"
     style="display:inline"
     id="g71291" />
  <g
     transform="translate(-61.0004,-867)"
     style="display:inline"
     id="g4953" />
  <g
     transform="translate(-61.0004,-867)"
     style="display:inline"
     id="layer12">
    <path
       id="rect20592-9"
       d="m 64.384814,870 h 3.230769 c 0.213077,0 0.384615,0.22402 0.384615,0.50229 v 2.99542 c 0,0.27827 -0.171538,0.50229 -0.384615,0.50229 h -3.230769 c -0.213077,0 -0.384616,-0.22402 -0.384616,-0.50229 v -2.99542 c 0,-0.27827 0.171539,-0.50229 0.384616,-0.50229 z"
       style="color:#000000;display:inline;overflow:visible;visibility:visible;fill:#f1f2f2;fill-opacity:1;fill-rule:nonzero;stroke:none;stroke-width:1;marker:none;enable-background:new" />
    <path
       id="rect8399"
       d="m 70.384814,870 h 3.230769 c 0.213077,0 0.384615,0.22402 0.384615,0.50229 v 2.99542 c 0,0.27827 -0.171538,0.50229 -0.384615,0.50229 h -3.230769 c -0.213077,0 -0.384616,-0.22402 -0.384616,-0.50229 v -2.99542 c 0,-0.27827 0.171539,-0.50229 0.384616,-0.50229 z"
       style="color:#000000;display:inline;overflow:visible;visibility:visible;fill:#f1f2f2;fill-opacity:1;fill-rule:nonzero;stroke:none;stroke-width:1;marker:none;enable-background:new" />
    <path
       id="rect8401"
       d="m 64.384814,876 h 3.230769 c 0.213077,0 0.384615,0.22402 0.384615,0.50229 v 2.99542 c 0,0.27827 -0.171538,0.50229 -0.384615,0.50229 h -3.230769 c -0.213077,0 -0.384616,-0.22402 -0.384616,-0.50229 v -2.99542 c 0,-0.27827 0.171539,-0.50229 0.384616,-0.50229 z"
       style="color:#000000;display:inline;overflow:visible;visibility:visible;fill:#f1f2f2;fill-opacity:1;fill-rule:nonzero;stroke:none;stroke-width:1;marker:none;enable-background:new" />
    <path
       id="rect8403"
       d="m 70.384814,876 h 3.230769 c 0.213077,0 0.384615,0.22402 0.384615,0.50229 v 2.99542 c 0,0.27827 -0.171538,0.50229 -0.384615,0.50229 h -3.230769 c -0.213077,0 -0.384616,-0.22402 -0.384616,-0.50229 v -2.99542 c 0,-0.27827 0.171539,-0.50229 0.384616,-0.50229 z"
       style="color:#000000;display:inline;overflow:visible;visibility:visible;fill:#f1f2f2;fill-opacity:1;fill-rule:nonzero;stroke:none;stroke-width:1;marker:none;enable-background:new" />
  </g>
</svg>
