<?xml version="1.0" encoding="UTF-8" standalone="no"?>
<svg
   xmlns:dc="http://purl.org/dc/elements/1.1/"
   xmlns:cc="http://creativecommons.org/ns#"
   xmlns:rdf="http://www.w3.org/1999/02/22-rdf-syntax-ns#"
   xmlns:svg="http://www.w3.org/2000/svg"
   xmlns="http://www.w3.org/2000/svg"
   width="16.085251"
   height="16.02426"
   version="1.1"
   id="svg7384">
  <metadata
     id="metadata90">
    <rdf:RDF>
      <cc:Work
         rdf:about="">
        <dc:format>image/svg+xml</dc:format>
        <dc:type
           rdf:resource="http://purl.org/dc/dcmitype/StillImage" />
        <dc:title>Gnome Symbolic Icon Theme</dc:title>
      </cc:Work>
    </rdf:RDF>
  </metadata>
  <title
     id="title9167">Gnome Symbolic Icon Theme</title>
  <defs
     id="defs7386" />
  <g
     style="display:inline"
     id="layer9"
     transform="translate(-60.952227,-646.97574)" />
  <g
     id="layer10"
     transform="translate(-60.952227,-646.97574)" />
  <g
     id="layer11"
     transform="translate(-60.952227,-646.97574)" />
  <g
     id="layer13"
     transform="translate(-60.952227,-646.97574)" />
  <g
     id="layer14"
     transform="translate(-60.952227,-646.97574)" />
  <g
     style="display:inline"
     id="layer15"
     transform="translate(-60.952227,-646.97574)" />
  <g
     style="display:inline"
     id="g71291"
     transform="translate(-60.952227,-646.97574)" />
  <g
     style="display:inline"
     id="g4953"
     transform="translate(-60.952227,-646.97574)" />
  <g
     style="display:inline"
     id="layer12"
     transform="translate(-60.952227,-646.97574)">
    <path
       style="color:#000000;font-style:normal;font-variant:normal;font-weight:normal;font-stretch:normal;font-size:medium;line-height:normal;font-family:Sans;-inkscape-font-specification:Sans;text-indent:0;text-align:start;text-decoration:none;text-decoration-line:none;letter-spacing:normal;word-spacing:normal;text-transform:none;writing-mode:lr-tb;direction:ltr;baseline-shift:baseline;text-anchor:start;display:inline;overflow:visible;visibility:visible;fill:#f1f2f2;fill-opacity:1;stroke:none;stroke-width:2;marker:none;enable-background:new"
       id="path12113-8"
       d="M 71.78125,647 A 1.0001,1.0001 0 0 0 71,648 v 4 a 1.0001,1.0001 0 0 0 1,1 h 4 a 1.0001,1.0001 0 1 0 0,-2 h -3 v -3 a 1.0001,1.0001 0 0 0 -1.21875,-1 z" />
    <path
       style="color:#000000;font-style:normal;font-variant:normal;font-weight:normal;font-stretch:normal;font-size:medium;line-height:normal;font-family:Sans;-inkscape-font-specification:Sans;text-indent:0;text-align:start;text-decoration:none;text-decoration-line:none;letter-spacing:normal;word-spacing:normal;text-transform:none;writing-mode:lr-tb;direction:ltr;baseline-shift:baseline;text-anchor:start;display:inline;overflow:visible;visibility:visible;fill:#f1f2f2;fill-opacity:1;stroke:none;stroke-width:2;marker:none;enable-background:new"
       id="path12147-8"
       d="m 75.875,647 a 1.0001,1.0001 0 0 0 -0.59375,0.28125 l -4,4 a 1.016466,1.016466 0 1 0 1.4375,1.4375 l 4,-4 A 1.0001,1.0001 0 0 0 75.875,647 Z" />
    <path
       id="rect12919-5"
       d="m 71.000198,652 h 1 v 1 h -1 z"
       style="color:#000000;display:inline;overflow:visible;visibility:visible;fill:#bdbdbd;fill-opacity:1;stroke:none;stroke-width:2;marker:none;enable-background:new" />
    <path
       style="color:#000000;font-style:normal;font-variant:normal;font-weight:normal;font-stretch:normal;font-size:medium;line-height:normal;font-family:Sans;-inkscape-font-specification:Sans;text-indent:0;text-align:start;text-decoration:none;text-decoration-line:none;letter-spacing:normal;word-spacing:normal;text-transform:none;writing-mode:lr-tb;direction:ltr;baseline-shift:baseline;text-anchor:start;display:inline;overflow:visible;visibility:visible;fill:#f1f2f2;fill-opacity:1;stroke:none;stroke-width:2;marker:none;enable-background:new"
       id="rect13039"
       d="M 61.90625,653 A 1.0001,1.0001 0 0 0 61,654 v 8 a 1.0001,1.0001 0 0 0 1,1 h 8 a 1.0001,1.0001 0 0 0 1,-1 v -8 a 1.0001,1.0001 0 0 0 -1,-1 h -8 a 1.0001,1.0001 0 0 0 -0.09375,0 z M 63,655 h 6 v 6 h -6 z" />
    <path
       style="color:#000000;font-style:normal;font-variant:normal;font-weight:normal;font-stretch:normal;font-size:medium;line-height:normal;font-family:Sans;-inkscape-font-specification:Sans;text-indent:0;text-align:start;text-decoration:none;text-decoration-line:none;letter-spacing:normal;word-spacing:normal;text-transform:none;writing-mode:lr-tb;direction:ltr;baseline-shift:baseline;text-anchor:start;display:inline;overflow:visible;visibility:visible;fill:#f1f2f2;fill-opacity:1;fill-rule:evenodd;stroke:none;stroke-width:2;marker:none;enable-background:new"
       id="path13041"
       d="M 61.90625,655 A 1.001098,1.001098 0 1 0 62,657 h 8 a 1.0001,1.0001 0 1 0 0,-2 h -8 a 1.0001,1.0001 0 0 0 -0.09375,0 z" />
    <path
       id="rect4479-2-9-9-0-8-6"
       d="m 76.000198,652 h 1 v 1 h -1 z"
       style="color:#000000;display:inline;overflow:visible;visibility:visible;fill:#f1f2f2;fill-opacity:1;fill-rule:nonzero;stroke:none;stroke-width:2;marker:none;enable-background:accumulate" />
    <path
       id="rect4479-2-9-9-0-8-6-6"
       d="m 71.000198,647 h 1 v 1 h -1 z"
       style="color:#000000;display:inline;overflow:visible;visibility:visible;fill:#f1f2f2;fill-opacity:1;fill-rule:nonzero;stroke:none;stroke-width:2;marker:none;enable-background:accumulate" />
    <path
       id="rect4479-2-9-9-0-8-6-9"
       d="m 70.000198,662 h 1 v 1 h -1 z"
       style="color:#000000;display:inline;overflow:visible;visibility:visible;fill:#f1f2f2;fill-opacity:1;fill-rule:nonzero;stroke:none;stroke-width:2;marker:none;enable-background:accumulate" />
    <path
       id="rect4479-2-9-9-0-8-6-4"
       d="m 61.000198,662 h 1 v 1 h -1 z"
       style="color:#000000;display:inline;overflow:visible;visibility:visible;fill:#f1f2f2;fill-opacity:1;fill-rule:nonzero;stroke:none;stroke-width:2;marker:none;enable-background:accumulate" />
  </g>
</svg>
