<svg xmlns="http://www.w3.org/2000/svg" version="1.1" viewBox="0 0 16 16"><path style="color-rendering:auto;text-decoration-color:#000000;color:#000000;font-variant-numeric:normal;shape-rendering:auto;font-variant-ligatures:normal;text-decoration-line:none;font-variant-position:normal;mix-blend-mode:normal;solid-color:#000000;font-feature-settings:normal;shape-padding:0;font-variant-alternates:normal;text-indent:0;dominant-baseline:auto;font-variant-caps:normal;image-rendering:auto;white-space:normal;text-decoration-style:solid;text-orientation:mixed;isolation:auto;text-transform:none" d="m1.1426 0c-0.63316 2.9606e-16 -1.1426 0.50944-1.1426 1.1426v13.714c0 0.634 0.50944 1.143 1.1426 1.143h13.714c0.634 0 1.143-0.509 1.143-1.143v-13.714c0-0.63356-0.509-1.143-1.143-1.143h-13.714zm1.7148 2h10.286c0.474 0 0.857 0.3826 0.857 0.8574v4.6934h-0.559l-1.785-3.2149a0.75008 0.75008 0 0 0 -1.379 0.1641l-0.5094 1.8359-1.1114-2a0.75008 0.75008 0 0 0 -0.6835 -0.3847 0.75008 0.75008 0 0 0 -0.6895 0.5312l-1.4551 4.8008-1.1582-2.3184a0.75008 0.75008 0 0 0 -0.6699 -0.414h-2v-3.6934c0-0.4748 0.3826-0.8574 0.8574-0.8574zm5.3457 4.6113l1.1407 2.0528a0.75008 0.75008 0 0 0 1.3792 -0.1641l0.509-1.8359 1.112 2a0.75008 0.75008 0 0 0 0.656 0.3867h1v4.0922c0 0.474-0.383 0.857-0.857 0.857h-10.286c-0.4744 0-0.857-0.383-0.857-0.857v-5.0922h1.5371l1.793 3.5842a0.75008 0.75008 0 0 0 1.3867 -0.117l1.4863-4.9067z" fill="#f1f2f2"/></svg>
