<?xml version="1.0" encoding="UTF-8" standalone="no"?>
<svg
   xmlns:dc="http://purl.org/dc/elements/1.1/"
   xmlns:cc="http://creativecommons.org/ns#"
   xmlns:rdf="http://www.w3.org/1999/02/22-rdf-syntax-ns#"
   xmlns:svg="http://www.w3.org/2000/svg"
   xmlns="http://www.w3.org/2000/svg"
   width="16.0002"
   version="1.1"
   id="svg7384"
   height="16">
  <metadata
     id="metadata90">
    <rdf:RDF>
      <cc:Work
         rdf:about="">
        <dc:format>image/svg+xml</dc:format>
        <dc:type
           rdf:resource="http://purl.org/dc/dcmitype/StillImage" />
        <dc:title>Gnome Symbolic Icon Theme</dc:title>
      </cc:Work>
    </rdf:RDF>
  </metadata>
  <title
     id="title9167">Gnome Symbolic Icon Theme</title>
  <defs
     id="defs7386" />
  <g
     transform="translate(-301,-277)"
     style="display:inline"
     id="layer9">
    <path
       style="color:#000000;display:inline;overflow:visible;visibility:visible;fill:#f1f2f2;fill-opacity:1;stroke:none;stroke-width:2.40000033;marker:none;enable-background:accumulate"
       id="path5094-5-04-4-6-4-8-1"
       d="m 310.5,279 c -1.28379,0 -2.32658,0.97301 -2.46875,2.21875 C 307.70449,281.09667 307.36934,281 307,281 c -1.65685,0 -3,1.34315 -3,3 0,0.0982 0.0221,0.1855 0.0312,0.28125 C 303.73156,284.10201 303.37464,284 303,284 c -1.10457,0 -2,0.89543 -2,2 0,1.10457 0.89543,2 2,2 h 5 v -2.125 c 0,-1.01034 0.86465,-1.875 1.875,-1.875 h 5.0625 c -0.20912,-0.9858 -0.99904,-1.7583 -2,-1.9375 0.0419,-0.18136 0.0625,-0.36843 0.0625,-0.5625 0,-1.38071 -1.11929,-2.5 -2.5,-2.5 z" />
    <path
       style="color:#f1f2f2;display:inline;overflow:visible;visibility:visible;fill:#ff6600;fill-opacity:1;fill-rule:nonzero;stroke:none;stroke-width:2;marker:none"
       id="path10898-2"
       d="m 309.8752,285 c -0.49245,0 -0.875,0.38256 -0.875,0.875 v 6.25 c 0,0.49244 0.38255,0.875 0.875,0.875 h 6.25 c 0.49245,0 0.875,-0.38256 0.875,-0.875 v -6.25 c 0,-0.49244 -0.38255,-0.875 -0.875,-0.875 z m 2.125,1 h 2 v 4 h -2 z m 0,5 h 2 v 1 h -2 z"
       class="warning" />
  </g>
  <g
     transform="translate(-301,-277)"
     style="display:inline"
     id="layer10" />
  <g
     transform="translate(-301,-277)"
     id="layer11" />
  <g
     transform="translate(-301,-277)"
     style="display:inline"
     id="layer13" />
  <g
     transform="translate(-301,-277)"
     id="layer14" />
  <g
     transform="translate(-301,-277)"
     style="display:inline"
     id="layer15" />
  <g
     transform="translate(-301,-277)"
     style="display:inline"
     id="g71291" />
  <g
     transform="translate(-301,-277)"
     style="display:inline"
     id="g4953" />
  <g
     transform="translate(-301,-277)"
     style="display:inline"
     id="layer12" />
</svg>
