<?xml version="1.0" encoding="UTF-8" standalone="no"?>
<svg
   xmlns:dc="http://purl.org/dc/elements/1.1/"
   xmlns:cc="http://creativecommons.org/ns#"
   xmlns:rdf="http://www.w3.org/1999/02/22-rdf-syntax-ns#"
   xmlns:svg="http://www.w3.org/2000/svg"
   xmlns="http://www.w3.org/2000/svg"
   width="16"
   height="16"
   version="1.1"
   id="svg7384">
  <metadata
     id="metadata90">
    <rdf:RDF>
      <cc:Work
         rdf:about="">
        <dc:format>image/svg+xml</dc:format>
        <dc:type
           rdf:resource="http://purl.org/dc/dcmitype/StillImage" />
        <dc:title>Gnome Symbolic Icon Theme</dc:title>
      </cc:Work>
    </rdf:RDF>
  </metadata>
  <title
     id="title9167">Gnome Symbolic Icon Theme</title>
  <defs
     id="defs7386" />
  <g
     style="display:inline"
     id="layer9"
     transform="translate(-121,-277)">
    <path
       style="color:#f1f2f2;font-style:normal;font-variant:normal;font-weight:normal;font-stretch:normal;font-size:medium;line-height:normal;font-family:Sans;-inkscape-font-specification:Sans;text-indent:0;text-align:start;text-decoration:none;text-decoration-line:none;letter-spacing:normal;word-spacing:normal;text-transform:none;writing-mode:lr-tb;direction:ltr;text-anchor:start;display:inline;overflow:visible;visibility:visible;fill:#f1f2f2;fill-opacity:1;fill-rule:nonzero;stroke:none;stroke-width:2.20970368;marker:none;enable-background:new"
       id="path552"
       d="m 129,280 c -2.74958,0 -5,2.25041 -5,5 0,1.78334 0.9576,3.36255 2.375,4.25 0.16853,-0.0758 0.34883,-0.13986 0.53125,-0.1875 0.22859,-1.81667 1.71945,-3.25 3.59375,-3.25 1.00251,0 1.83852,0.47365 2.5,1.125 0.175,-0.0333 0.30776,-0.125 0.5,-0.125 0.0432,0 0.0823,-0.002 0.125,0 0.22408,-0.56633 0.375,-1.16979 0.375,-1.8125 0,-2.74959 -2.25042,-5 -5,-5 z" />
    <g
       id="g4927"
       transform="translate(40)">
      <path
         id="rect4906"
         d="m 81.5625,284 h 0.875 C 82.749125,284 83,284.25087 83,284.5625 v 0.875 C 83,285.74912 82.749125,286 82.4375,286 h -0.875 C 81.250875,286 81,285.74912 81,285.4375 v -0.875 C 81,284.25087 81.250875,284 81.5625,284 Z"
         style="color:#f1f2f2;display:inline;overflow:visible;visibility:visible;fill:#f1f2f2;fill-opacity:1;fill-rule:nonzero;stroke:none;stroke-width:2;marker:none;enable-background:new" />
      <path
         id="rect4906-4"
         d="m 95.5625,284 h 0.875 C 96.749125,284 97,284.25087 97,284.5625 v 0.875 C 97,285.74912 96.749125,286 96.4375,286 h -0.875 C 95.250875,286 95,285.74912 95,285.4375 v -0.875 C 95,284.25087 95.250875,284 95.5625,284 Z"
         style="color:#f1f2f2;display:inline;overflow:visible;visibility:visible;fill:#f1f2f2;fill-opacity:1;fill-rule:nonzero;stroke:none;stroke-width:2;marker:none;enable-background:new" />
    </g>
    <g
       id="use4998"
       transform="rotate(90,109,305)">
      <path
         id="rect4088"
         d="m 81.5625,284 h 0.875 C 82.749125,284 83,284.25087 83,284.5625 v 0.875 C 83,285.74912 82.749125,286 82.4375,286 h -0.875 C 81.250875,286 81,285.74912 81,285.4375 v -0.875 C 81,284.25087 81.250875,284 81.5625,284 Z"
         style="color:#f1f2f2;display:inline;overflow:visible;visibility:visible;fill:#f1f2f2;fill-opacity:1;fill-rule:nonzero;stroke:none;stroke-width:2;marker:none;enable-background:new" />
    </g>
    <g
       style="color:#000000;visibility:visible;fill:#000000;fill-opacity:1;fill-rule:nonzero;stroke-width:1;stroke-linecap:butt;stroke-linejoin:miter;stroke-miterlimit:4;stroke-dasharray:none;stroke-dashoffset:0;stroke-opacity:1;marker:none"
       id="use4998-8"
       transform="rotate(135,109.00001,293.28427)">
      <path
         id="rect4075"
         d="m 81.5625,284 h 0.875 C 82.749125,284 83,284.25087 83,284.5625 v 0.875 C 83,285.74912 82.749125,286 82.4375,286 h -0.875 C 81.250875,286 81,285.74912 81,285.4375 v -0.875 C 81,284.25087 81.250875,284 81.5625,284 Z"
         style="color:#f1f2f2;display:inline;overflow:visible;visibility:visible;fill:#f1f2f2;fill-opacity:1;fill-rule:nonzero;stroke:none;stroke-width:2;marker:none;enable-background:new" />
      <path
         id="rect4077"
         d="m 95.5625,284 h 0.875 C 96.749125,284 97,284.25087 97,284.5625 v 0.875 C 97,285.74912 96.749125,286 96.4375,286 h -0.875 C 95.250875,286 95,285.74912 95,285.4375 v -0.875 C 95,284.25087 95.250875,284 95.5625,284 Z"
         style="color:#f1f2f2;display:inline;overflow:visible;visibility:visible;fill:#f1f2f2;fill-opacity:1;fill-rule:nonzero;stroke:none;stroke-width:2;marker:none;enable-background:new" />
    </g>
    <g
       id="use4998-2"
       transform="rotate(45,109,333.28426)">
      <path
         id="rect4081"
         d="m 81.5625,284 h 0.875 C 82.749125,284 83,284.25087 83,284.5625 v 0.875 C 83,285.74912 82.749125,286 82.4375,286 h -0.875 C 81.250875,286 81,285.74912 81,285.4375 v -0.875 C 81,284.25087 81.250875,284 81.5625,284 Z"
         style="color:#f1f2f2;display:inline;overflow:visible;visibility:visible;fill:#f1f2f2;fill-opacity:1;fill-rule:nonzero;stroke:none;stroke-width:2;marker:none;enable-background:new" />
    </g>
    <g
       id="g5609"
       transform="translate(-60,-39)">
      <path
         style="color:#000000;display:inline;overflow:visible;visibility:visible;fill:#f1f2f2;fill-opacity:1;stroke:none;stroke-width:2.40000033;marker:none;enable-background:accumulate"
         id="path5094-5-03"
         d="m 190.5,326 c -1.38071,0 -2.5,1.11929 -2.5,2.5 0,0.21842 0.0411,0.42306 0.0937,0.625 C 187.91429,329.0491 187.70711,329 187.5,329 c -0.82843,0 -1.5,0.67157 -1.5,1.5 0,0.82843 0.67157,1.5 1.5,1.5 h 8 c 0.82843,0 1.5,-0.67157 1.5,-1.5 0,-0.82843 -0.67157,-1.5 -1.5,-1.5 0,-1.10457 -0.89543,-2 -2,-2 -0.31572,0 -0.60948,0.0885 -0.875,0.21875 C 192.18795,326.49096 191.41074,326 190.5,326 Z" />
    </g>
  </g>
  <g
     id="layer10"
     transform="translate(-121,-277)" />
  <g
     id="layer11"
     transform="translate(-121,-277)" />
  <g
     id="layer12"
     transform="translate(-121,-277)" />
  <g
     id="layer13"
     transform="translate(-121,-277)" />
  <g
     id="layer14"
     transform="translate(-121,-277)" />
  <g
     style="display:inline"
     id="layer15"
     transform="translate(-121,-277)" />
  <g
     style="display:inline"
     id="g4953"
     transform="translate(-121,-277)" />
</svg>
