<?xml version="1.0" encoding="UTF-8" standalone="no"?>
<svg
   xmlns:dc="http://purl.org/dc/elements/1.1/"
   xmlns:cc="http://creativecommons.org/ns#"
   xmlns:rdf="http://www.w3.org/1999/02/22-rdf-syntax-ns#"
   xmlns:svg="http://www.w3.org/2000/svg"
   xmlns="http://www.w3.org/2000/svg"
   width="16"
   version="1.1"
   id="svg7384"
   height="16">
  <metadata
     id="metadata90">
    <rdf:RDF>
      <cc:Work
         rdf:about="">
        <dc:format>image/svg+xml</dc:format>
        <dc:type
           rdf:resource="http://purl.org/dc/dcmitype/StillImage" />
        <dc:title>Gnome Symbolic Icon Theme</dc:title>
      </cc:Work>
    </rdf:RDF>
  </metadata>
  <title
     id="title9167">Gnome Symbolic Icon Theme</title>
  <defs
     id="defs7386" />
  <g
     transform="translate(-381,-277)"
     style="display:inline"
     id="layer9">
    <path
       style="color:#000000;display:inline;overflow:visible;visibility:visible;fill:#f1f2f2;fill-opacity:1;stroke:none;stroke-width:2.40000033;marker:none;enable-background:accumulate"
       id="path5094-5-04-4-6-4-1-4"
       d="m 390.50955,277.04355 c -1.27301,0 -2.30704,0.9731 -2.44802,2.21895 -0.32401,-0.12209 -0.65635,-0.21877 -1.02258,-0.21877 -1.64294,0 -2.97481,1.34328 -2.97481,3.00028 0,0.0982 0.0219,0.18552 0.0309,0.28128 -0.29709,-0.17926 -0.65102,-0.28128 -1.02251,-0.28128 -1.0953,0 -1.98321,0.89552 -1.98321,2.00019 0,1.10467 0.81558,1.9558 1.91088,1.9558 h 5 v -1.5 c -0.0163,-0.7855 0.73891,-1.47087 1.51774,-1.48715 0.79948,-0.0169 1.49901,0.68082 1.48226,1.48715 v 1.5 h 4.5 c 0.82146,0 1.45475,-0.62724 1.45475,-1.45575 0,-0.82851 -0.66593,-1.50014 -1.48739,-1.50014 -0.20538,0 -0.41082,0.0491 -0.58878,0.12501 0.0521,-0.20196 0.0929,-0.40662 0.0929,-0.62506 0,-1.22947 -0.88584,-2.2284 -2.04518,-2.43773 0.0416,-0.18137 0.062,-0.36846 0.062,-0.56255 0,-1.38084 -1.1099,-2.50023 -2.47901,-2.50023 z" />
    <path
       style="color:#000000;font-style:normal;font-variant:normal;font-weight:normal;font-stretch:normal;font-size:medium;line-height:normal;font-family:Sans;-inkscape-font-specification:Sans;text-indent:0;text-align:start;text-decoration:none;text-decoration-line:none;letter-spacing:normal;word-spacing:normal;text-transform:none;writing-mode:lr-tb;direction:ltr;baseline-shift:baseline;text-anchor:start;display:inline;overflow:visible;visibility:visible;fill:#f1f2f2;fill-opacity:1;stroke:none;stroke-width:0.9986071px;marker:none;enable-background:new"
       id="path1891-5-8-3"
       d="M 389.40625,284 A 0.49935348,0.49935348 0 0 0 389,284.5 v 2.5 h -2.5 -0.5 v 0.5 0.5 h -1.5 -0.21875 l -0.125,0.15625 -2.5,2.5 a 0.49935348,0.49935348 0 1 0 0.6875,0.6875 L 384.6875,289 H 386 v 3 a 0.5,0.5 0 0 0 1,0 v -3.375 a 0.49935348,0.49935348 0 0 0 0,-0.21875 V 288 h 2 v 0.5 0.21875 l 0.15625,0.125 L 391,290.6875 V 292 a 0.5,0.5 0 0 0 1,0 v -1 h 1.34375 l 2.40625,1.4375 a 0.50389111,0.50389111 0 1 0 0.5,-0.875 l -2.5,-1.5 L 393.625,290 H 393.5 391.6875 L 390,288.3125 v -0.6875 a 0.49935348,0.49935348 0 0 0 0,-0.21875 V 284.5 a 0.49935348,0.49935348 0 0 0 -0.59375,-0.5 z" />
  </g>
  <g
     transform="translate(-381,-277)"
     style="display:inline"
     id="layer10" />
  <g
     transform="translate(-381,-277)"
     id="layer11" />
  <g
     transform="translate(-381,-277)"
     style="display:inline"
     id="layer13" />
  <g
     transform="translate(-381,-277)"
     id="layer14" />
  <g
     transform="translate(-381,-277)"
     style="display:inline"
     id="layer15" />
  <g
     transform="translate(-381,-277)"
     style="display:inline"
     id="g71291" />
  <g
     transform="translate(-381,-277)"
     style="display:inline"
     id="g4953" />
  <g
     transform="translate(-381,-277)"
     style="display:inline"
     id="layer12" />
</svg>
