<?xml version="1.0" encoding="UTF-8" standalone="no"?>
<svg
   xmlns:dc="http://purl.org/dc/elements/1.1/"
   xmlns:cc="http://creativecommons.org/ns#"
   xmlns:rdf="http://www.w3.org/1999/02/22-rdf-syntax-ns#"
   xmlns:svg="http://www.w3.org/2000/svg"
   xmlns="http://www.w3.org/2000/svg"
   width="16"
   version="1.1"
   id="svg7384"
   height="16">
  <metadata
     id="metadata90">
    <rdf:RDF>
      <cc:Work
         rdf:about="">
        <dc:format>image/svg+xml</dc:format>
        <dc:type
           rdf:resource="http://purl.org/dc/dcmitype/StillImage" />
        <dc:title>Gnome Symbolic Icon Theme</dc:title>
      </cc:Work>
    </rdf:RDF>
  </metadata>
  <title
     id="title9167">Gnome Symbolic Icon Theme</title>
  <defs
     id="defs7386" />
  <g
     transform="translate(-281,-277)"
     style="display:inline"
     id="layer9">
    <path
       style="color:#000000;font-style:normal;font-variant:normal;font-weight:normal;font-stretch:normal;font-size:medium;line-height:normal;font-family:Sans;-inkscape-font-specification:Sans;text-indent:0;text-align:start;text-decoration:none;text-decoration-line:none;letter-spacing:normal;word-spacing:normal;text-transform:none;writing-mode:lr-tb;direction:ltr;baseline-shift:baseline;text-anchor:start;display:inline;overflow:visible;visibility:visible;opacity:0.5;fill:#f1f2f2;fill-opacity:1;stroke:none;stroke-width:1.99469662;marker:none;enable-background:accumulate"
       id="path5123"
       d="m 284.3125,278 c -0.62347,-2.7e-4 -1.00842,0.32909 -1.28125,0.59375 -0.27283,0.26466 -0.46296,0.53122 -0.65625,0.78125 -0.19329,0.25003 -0.38625,0.48341 -0.5,0.59375 -0.11375,0.11034 -0.1119,0.0312 0.125,0.0312 a 1,1 0 1 0 0,2 c 0.62347,2.7e-4 1.00843,-0.32909 1.28125,-0.59375 0.27282,-0.26466 0.46296,-0.56247 0.65625,-0.8125 0.14196,-0.18364 0.26887,-0.28618 0.375,-0.40625 0.10618,0.12021 0.23303,0.22249 0.375,0.40625 0.19329,0.25019 0.41477,0.54771 0.6875,0.8125 0.27273,0.26479 0.62653,0.59348 1.25,0.59375 0.62346,2.7e-4 1.00842,-0.32909 1.28125,-0.59375 0.27283,-0.26466 0.49421,-0.56247 0.6875,-0.8125 0.14681,-0.18991 0.23598,-0.31677 0.34375,-0.4375 0.10941,0.12126 0.22291,0.24063 0.375,0.4375 0.19329,0.25019 0.41478,0.54771 0.6875,0.8125 0.27272,0.26479 0.65778,0.59348 1.28125,0.59375 0.62346,2.7e-4 1.00842,-0.32909 1.28125,-0.59375 0.27283,-0.26466 0.46296,-0.56247 0.65625,-0.8125 0.14197,-0.18364 0.26887,-0.28618 0.375,-0.40625 0.10618,0.12021 0.23303,0.22249 0.375,0.40625 0.19329,0.25019 0.38353,0.54771 0.65625,0.8125 0.27272,0.26479 0.65777,0.59348 1.28125,0.59375 a 1.0004882,1.0004882 0 1 0 0.0625,-2 c 0.0195,0.008 0.12277,0.0273 0.0625,-0.0312 -0.11385,-0.11054 -0.30671,-0.34356 -0.5,-0.59375 -0.19329,-0.25019 -0.38352,-0.51646 -0.65625,-0.78125 -0.27273,-0.26479 -0.65778,-0.59348 -1.28125,-0.59375 -0.62347,-2.7e-4 -1.00842,0.32909 -1.28125,0.59375 -0.27283,0.26466 -0.46296,0.53122 -0.65625,0.78125 -0.14943,0.19329 -0.26641,0.34779 -0.375,0.46875 -0.10977,-0.12129 -0.22162,-0.27022 -0.375,-0.46875 -0.19329,-0.25019 -0.41477,-0.51646 -0.6875,-0.78125 -0.27273,-0.26479 -0.62653,-0.59348 -1.25,-0.59375 -0.62347,-2.7e-4 -1.00842,0.32909 -1.28125,0.59375 -0.27283,0.26466 -0.49421,0.53122 -0.6875,0.78125 -0.15337,0.1984 -0.26529,0.34761 -0.375,0.46875 -0.10833,-0.12103 -0.19532,-0.27662 -0.34375,-0.46875 -0.19329,-0.25019 -0.41477,-0.51646 -0.6875,-0.78125 -0.27273,-0.26479 -0.65778,-0.59348 -1.28125,-0.59375 z" />
    <path
       style="color:#000000;font-style:normal;font-variant:normal;font-weight:normal;font-stretch:normal;font-size:medium;line-height:normal;font-family:Sans;-inkscape-font-specification:Sans;text-indent:0;text-align:start;text-decoration:none;text-decoration-line:none;letter-spacing:normal;word-spacing:normal;text-transform:none;writing-mode:lr-tb;direction:ltr;baseline-shift:baseline;text-anchor:start;display:inline;overflow:visible;visibility:visible;opacity:0.5;fill:#f1f2f2;fill-opacity:1;stroke:none;stroke-width:1.99469662;marker:none;enable-background:accumulate"
       id="path5123-0"
       d="m 284.3125,283 c -0.62347,-2.7e-4 -1.00842,0.32909 -1.28125,0.59375 -0.27283,0.26466 -0.46296,0.53122 -0.65625,0.78125 -0.19329,0.25003 -0.38625,0.48341 -0.5,0.59375 -0.11375,0.11034 -0.11191,0.0312 0.125,0.0312 a 1,1 0 1 0 0,2 c 0.62348,2.7e-4 1.00843,-0.32909 1.28125,-0.59375 0.27282,-0.26466 0.46296,-0.56247 0.65625,-0.8125 0.14196,-0.18364 0.26887,-0.28618 0.375,-0.40625 0.10618,0.12021 0.23303,0.22249 0.375,0.40625 0.19329,0.2502 0.41477,0.54771 0.6875,0.8125 0.27273,0.26479 0.62652,0.59348 1.25,0.59375 0.62347,2.7e-4 1.00842,-0.32909 1.28125,-0.59375 0.27283,-0.26466 0.49421,-0.56247 0.6875,-0.8125 0.14681,-0.18991 0.23598,-0.31677 0.34375,-0.4375 0.10941,0.12126 0.22291,0.24062 0.375,0.4375 0.19329,0.2502 0.41478,0.5477 0.6875,0.8125 0.27272,0.2648 0.65777,0.59348 1.28125,0.59375 0.62347,2.7e-4 1.00842,-0.32909 1.28125,-0.59375 0.27283,-0.26466 0.46296,-0.56247 0.65625,-0.8125 0.14197,-0.18364 0.26887,-0.28618 0.375,-0.40625 0.10618,0.12021 0.23303,0.22249 0.375,0.40625 0.19329,0.2502 0.38353,0.54771 0.65625,0.8125 0.27272,0.26479 0.65777,0.59348 1.28125,0.59375 a 1.0004882,1.0004882 0 1 0 0.0625,-2 c 0.0195,0.008 0.12277,0.0273 0.0625,-0.0312 -0.11385,-0.11054 -0.30671,-0.34355 -0.5,-0.59375 -0.19329,-0.2502 -0.38352,-0.51646 -0.65625,-0.78125 -0.27273,-0.26479 -0.65778,-0.59348 -1.28125,-0.59375 -0.62347,-2.7e-4 -1.00842,0.32909 -1.28125,0.59375 -0.27283,0.26466 -0.46296,0.53122 -0.65625,0.78125 -0.14943,0.1933 -0.26641,0.34779 -0.375,0.46875 -0.10977,-0.12129 -0.22162,-0.27022 -0.375,-0.46875 -0.19329,-0.2502 -0.41477,-0.51645 -0.6875,-0.78125 -0.27273,-0.2648 -0.62653,-0.59348 -1.25,-0.59375 -0.62347,-2.7e-4 -1.00843,0.32909 -1.28125,0.59375 -0.27282,0.26466 -0.49421,0.53122 -0.6875,0.78125 -0.15337,0.1984 -0.26529,0.34761 -0.375,0.46875 -0.10833,-0.12104 -0.19532,-0.27662 -0.34375,-0.46875 -0.19329,-0.2502 -0.41477,-0.51646 -0.6875,-0.78125 -0.27273,-0.26479 -0.65777,-0.59348 -1.28125,-0.59375 z" />
    <path
       style="color:#000000;font-style:normal;font-variant:normal;font-weight:normal;font-stretch:normal;font-size:medium;line-height:normal;font-family:Sans;-inkscape-font-specification:Sans;text-indent:0;text-align:start;text-decoration:none;text-decoration-line:none;letter-spacing:normal;word-spacing:normal;text-transform:none;writing-mode:lr-tb;direction:ltr;baseline-shift:baseline;text-anchor:start;display:inline;overflow:visible;visibility:visible;opacity:0.5;fill:#f1f2f2;fill-opacity:1;stroke:none;stroke-width:1.99469662;marker:none;enable-background:accumulate"
       id="path5123-0-9"
       d="m 284.3125,288 c -0.62347,-2.7e-4 -1.00842,0.32909 -1.28125,0.59375 -0.27283,0.26466 -0.46296,0.53122 -0.65625,0.78125 -0.19329,0.25003 -0.38625,0.48341 -0.5,0.59375 -0.11375,0.11034 -0.1119,0.0312 0.125,0.0312 a 1,1 0 1 0 0,2 c 0.62347,2.7e-4 1.00843,-0.32909 1.28125,-0.59375 0.27282,-0.26466 0.46296,-0.56247 0.65625,-0.8125 0.14196,-0.18364 0.26887,-0.28618 0.375,-0.40625 0.10618,0.12021 0.23303,0.22249 0.375,0.40625 0.19329,0.25019 0.41477,0.54771 0.6875,0.8125 0.27273,0.26479 0.62653,0.59348 1.25,0.59375 0.62346,2.7e-4 1.00842,-0.32909 1.28125,-0.59375 0.27283,-0.26466 0.49421,-0.56247 0.6875,-0.8125 0.14681,-0.18991 0.23598,-0.31677 0.34375,-0.4375 0.10941,0.12126 0.22291,0.24063 0.375,0.4375 0.19329,0.25019 0.41478,0.54771 0.6875,0.8125 0.27272,0.26479 0.65778,0.59348 1.28125,0.59375 0.62346,2.7e-4 1.00842,-0.32909 1.28125,-0.59375 0.27283,-0.26466 0.46296,-0.56247 0.65625,-0.8125 0.14197,-0.18364 0.26887,-0.28618 0.375,-0.40625 0.10671,0.12045 0.23152,0.25178 0.375,0.4375 0.19329,0.25019 0.38353,0.51646 0.65625,0.78125 0.27272,0.26479 0.65777,0.59348 1.28125,0.59375 a 1.0004882,1.0004882 0 1 0 0.0625,-2 c 0.0195,0.008 0.12277,0.0273 0.0625,-0.0312 -0.11385,-0.11054 -0.30671,-0.34356 -0.5,-0.59375 -0.19329,-0.25019 -0.38352,-0.51646 -0.65625,-0.78125 -0.27273,-0.26479 -0.65778,-0.59348 -1.28125,-0.59375 -0.62347,-2.7e-4 -1.00842,0.32909 -1.28125,0.59375 -0.27283,0.26466 -0.46296,0.53122 -0.65625,0.78125 -0.14943,0.19329 -0.26641,0.34779 -0.375,0.46875 -0.10977,-0.12129 -0.22162,-0.27022 -0.375,-0.46875 -0.19329,-0.25019 -0.41477,-0.51646 -0.6875,-0.78125 -0.27273,-0.26479 -0.62653,-0.59348 -1.25,-0.59375 -0.62347,-2.7e-4 -1.00842,0.32909 -1.28125,0.59375 -0.27283,0.26466 -0.49421,0.53122 -0.6875,0.78125 -0.15337,0.1984 -0.26529,0.34761 -0.375,0.46875 -0.10833,-0.12103 -0.19532,-0.27662 -0.34375,-0.46875 -0.19329,-0.25019 -0.41477,-0.51646 -0.6875,-0.78125 -0.27273,-0.26479 -0.65778,-0.59348 -1.28125,-0.59375 z" />
  </g>
  <g
     transform="translate(-281,-277)"
     id="layer10" />
  <g
     transform="translate(-281,-277)"
     id="layer11" />
  <g
     transform="translate(-281,-277)"
     id="layer13" />
  <g
     transform="translate(-281,-277)"
     id="layer14" />
  <g
     transform="translate(-281,-277)"
     style="display:inline"
     id="layer15" />
  <g
     transform="translate(-281,-277)"
     style="display:inline"
     id="g71291" />
  <g
     transform="translate(-281,-277)"
     style="display:inline"
     id="g4953" />
  <g
     transform="translate(-281,-277)"
     style="display:inline"
     id="layer12" />
</svg>
