<?xml version="1.0" encoding="UTF-8" standalone="no"?>
<svg
   xmlns:dc="http://purl.org/dc/elements/1.1/"
   xmlns:cc="http://creativecommons.org/ns#"
   xmlns:rdf="http://www.w3.org/1999/02/22-rdf-syntax-ns#"
   xmlns:svg="http://www.w3.org/2000/svg"
   xmlns="http://www.w3.org/2000/svg"
   width="16"
   version="1.1"
   id="svg7384"
   height="16">
  <metadata
     id="metadata90">
    <rdf:RDF>
      <cc:Work
         rdf:about="">
        <dc:format>image/svg+xml</dc:format>
        <dc:type
           rdf:resource="http://purl.org/dc/dcmitype/StillImage" />
        <dc:title>Gnome Symbolic Icon Theme</dc:title>
      </cc:Work>
    </rdf:RDF>
  </metadata>
  <title
     id="title9167">Gnome Symbolic Icon Theme</title>
  <defs
     id="defs7386" />
  <g
     transform="translate(-521,-321.00012)"
     style="display:inline"
     id="layer9" />
  <g
     transform="translate(-521,-321.00012)"
     style="display:inline"
     id="layer10" />
  <g
     transform="translate(-521,-321.00012)"
     id="layer11" />
  <g
     transform="translate(-521,-321.00012)"
     style="display:inline"
     id="layer13" />
  <g
     transform="translate(-521,-321.00012)"
     id="layer14">
    <path
       style="color:#000000;display:inline;overflow:visible;visibility:visible;fill:#f1f2f2;fill-opacity:1;fill-rule:nonzero;stroke:none;stroke-width:1;marker:none;enable-background:accumulate"
       id="rect35810"
       d="m 523.0002,324 v 8 h 12 v -8 z m 6,1 c 1.10457,0 2,0.89543 2,2 h -2 z m -1,1 v 2 h 2 c 0,1.10457 -0.89543,2 -2,2 -1.10457,0 -2,-0.89543 -2,-2 0,-1.10457 0.89543,-2 2,-2 z" />
    <path
       style="color:#000000;font-style:normal;font-variant:normal;font-weight:normal;font-stretch:normal;font-size:medium;line-height:normal;font-family:Sans;-inkscape-font-specification:Sans;text-indent:0;text-align:start;text-decoration:none;text-decoration-line:none;letter-spacing:normal;word-spacing:normal;text-transform:none;writing-mode:lr-tb;direction:ltr;baseline-shift:baseline;text-anchor:start;display:inline;overflow:visible;visibility:visible;fill:#f1f2f2;fill-opacity:1;stroke:none;stroke-width:2;marker:none;enable-background:accumulate"
       id="path35812"
       d="m 523,323 a 1.001098,1.001098 0 1 0 0.0937,2 h 11.625 a 1.0001,1.0001 0 1 0 0,-2 h -11.625 A 1.0001,1.0001 0 0 0 523,323 Z" />
    <path
       style="color:#000000;font-style:normal;font-variant:normal;font-weight:normal;font-stretch:normal;font-size:medium;line-height:normal;font-family:Sans;-inkscape-font-specification:Sans;text-indent:0;text-align:start;text-decoration:none;text-decoration-line:none;letter-spacing:normal;word-spacing:normal;text-transform:none;writing-mode:lr-tb;direction:ltr;baseline-shift:baseline;text-anchor:start;display:inline;overflow:visible;visibility:visible;fill:#f1f2f2;fill-opacity:1;stroke:none;stroke-width:1;marker:none;enable-background:accumulate"
       id="path35814"
       d="M 528.40625,331.5 A 0.50005,0.50005 0 0 0 528,332 v 1.75 l -1.8125,1.375 a 0.51253811,0.51253811 0 1 0 0.625,0.8125 l 2,-1.53125 L 529,334.25 V 334 332 a 0.50005,0.50005 0 0 0 -0.59375,-0.5 z" />
    <path
       style="color:#000000;font-style:normal;font-variant:normal;font-weight:normal;font-stretch:normal;font-size:medium;line-height:normal;font-family:Sans;-inkscape-font-specification:Sans;text-indent:0;text-align:start;text-decoration:none;text-decoration-line:none;letter-spacing:normal;word-spacing:normal;text-transform:none;writing-mode:lr-tb;direction:ltr;baseline-shift:baseline;text-anchor:start;display:inline;overflow:visible;visibility:visible;fill:#f1f2f2;fill-opacity:1;stroke:none;stroke-width:1;marker:none;enable-background:accumulate"
       id="path35816"
       d="m 528.375,333.5 a 0.50005,0.50005 0 0 0 -0.1875,0.90625 l 2,1.5625 a 0.51253811,0.51253811 0 1 0 0.625,-0.8125 l -2,-1.5625 A 0.50005,0.50005 0 0 0 528.375,333.5 Z" />
  </g>
  <g
     transform="translate(-521,-321.00012)"
     style="display:inline"
     id="layer15" />
  <g
     transform="translate(-521,-321.00012)"
     style="display:inline"
     id="g71291" />
  <g
     transform="translate(-521,-321.00012)"
     style="display:inline"
     id="g4953" />
  <g
     transform="translate(-521,-321.00012)"
     style="display:inline"
     id="layer12" />
</svg>
