<?xml version="1.0" encoding="UTF-8" standalone="no"?>
<svg
   xmlns:dc="http://purl.org/dc/elements/1.1/"
   xmlns:cc="http://creativecommons.org/ns#"
   xmlns:rdf="http://www.w3.org/1999/02/22-rdf-syntax-ns#"
   xmlns:svg="http://www.w3.org/2000/svg"
   xmlns="http://www.w3.org/2000/svg"
   width="16"
   version="1.1"
   id="svg7384"
   height="16">
  <metadata
     id="metadata90">
    <rdf:RDF>
      <cc:Work
         rdf:about="">
        <dc:format>image/svg+xml</dc:format>
        <dc:type
           rdf:resource="http://purl.org/dc/dcmitype/StillImage" />
        <dc:title>Gnome Symbolic Icon Theme</dc:title>
      </cc:Work>
    </rdf:RDF>
  </metadata>
  <title
     id="title9167">Gnome Symbolic Icon Theme</title>
  <defs
     id="defs7386" />
  <g
     transform="translate(-541.0002,-301)"
     style="display:inline"
     id="layer9" />
  <g
     transform="translate(-541.0002,-301)"
     id="layer10" />
  <g
     transform="translate(-541.0002,-301)"
     id="layer11" />
  <g
     transform="translate(-541.0002,-301)"
     id="layer13" />
  <g
     transform="translate(-541.0002,-301)"
     id="layer14">
    <path
       style="color:#000000;font-style:normal;font-variant:normal;font-weight:normal;font-stretch:normal;font-size:medium;line-height:normal;font-family:Sans;-inkscape-font-specification:Sans;text-indent:0;text-align:start;text-decoration:none;text-decoration-line:none;letter-spacing:normal;word-spacing:normal;text-transform:none;writing-mode:lr-tb;direction:ltr;baseline-shift:baseline;text-anchor:start;display:inline;overflow:visible;visibility:visible;fill:#f1f2f2;fill-opacity:1;stroke:none;stroke-width:2;marker:none;enable-background:new"
       id="rect27790"
       d="m 543.0002,301 c -1.05237,0 -2,0.84508 -2,1.9375 v 11.125 c 0,1.09242 0.94763,1.9375 2,1.9375 h 11 c 1.05237,0 2,-0.84508 2,-1.9375 v -11.125 c 0,-1.09242 -0.94763,-1.9375 -2,-1.9375 z m 0,5 h 3.03125 v 2 h -3.03125 z m 4.03125,0 h 2.96875 v 2 h -2.96875 z m 3.96875,0 h 3 v 2 h -3 z m -8,3 h 3.03125 v 2 h -3.03125 z m 4.03125,0 h 2.96875 v 2 h -2.96875 z m 3.96875,0 h 3 v 2 h -3 z m -8,3 h 3.03125 v 2 h -3.03125 z m 4.03125,0 h 2.96875 v 2 h -2.96875 z m 3.96875,0 h 3 v 2 h -3 z" />
    <path
       id="rect27810"
       d="m 551.00018,309 h 3 v 2 h -3 z"
       style="color:#000000;display:inline;overflow:visible;visibility:visible;opacity:0.35;fill:#f1f2f2;fill-opacity:1;stroke:none;stroke-width:1;marker:none;enable-background:accumulate" />
  </g>
  <g
     transform="translate(-541.0002,-301)"
     style="display:inline"
     id="layer15" />
  <g
     transform="translate(-541.0002,-301)"
     style="display:inline"
     id="g71291" />
  <g
     transform="translate(-541.0002,-301)"
     style="display:inline"
     id="g4953" />
  <g
     transform="translate(-541.0002,-301)"
     style="display:inline"
     id="layer12" />
</svg>
