<svg xmlns="http://www.w3.org/2000/svg" viewBox="0 0 14 16">
    <g fill="#f1f2f2">
        <path opacity=".3" d="M4.924 5v2.541a.925.925 0 0 1-.461.8 3.14 3.14 0 0 0-1.54 2.661c.001.805.334 1.603.903 2.172A3.11 3.11 0 0 0 6 14.076c.805 0 1.604-.333 2.174-.902.57-.57.902-1.37.902-2.174a3.14 3.14 0 0 0-1.539-2.658.925.925 0 0 1-.46-.801V5z"/>
        <path d="M6 1c-1.108 0-2 .892-2 2v4.541A4 4 0 0 0 2 11a4 4 0 0 0 8 0 4 4 0 0 0-2-3.459V3c0-1.108-.892-2-2-2zm0 1.024c.612 0 .976.364.976.976v4.541c0 .33.276.635.561.8A3.14 3.14 0 0 1 9.077 11c0 .805-.334 1.605-.903 2.174A3.113 3.113 0 0 1 6 14.076a3.112 3.112 0 0 1-2.174-.903 3.112 3.112 0 0 1-.902-2.172 3.14 3.14 0 0 1 1.539-2.66c.285-.165.561-.47.561-.8V2.998c0-.611.364-.976.976-.976z"/>
        <rect opacity=".9" ry=".5" height="1" width="3" y="2" x="7"/>
        <rect opacity=".9" ry=".5" height="1" width="3" y="4" x="7"/>
        <rect opacity=".9" ry=".5" height="1" width="3" y="6" x="7"/>
    </g>
</svg>
