<?xml version="1.0" encoding="UTF-8" standalone="no"?>
<svg
   xmlns:dc="http://purl.org/dc/elements/1.1/"
   xmlns:cc="http://creativecommons.org/ns#"
   xmlns:rdf="http://www.w3.org/1999/02/22-rdf-syntax-ns#"
   xmlns:svg="http://www.w3.org/2000/svg"
   xmlns="http://www.w3.org/2000/svg"
   height="16"
   id="svg7384"
   version="1.1"
   width="16.02536">
  <metadata
     id="metadata90">
    <rdf:RDF>
      <cc:Work
         rdf:about="">
        <dc:format>image/svg+xml</dc:format>
        <dc:type
           rdf:resource="http://purl.org/dc/dcmitype/StillImage" />
        <dc:title>Gnome Symbolic Icon Theme</dc:title>
      </cc:Work>
    </rdf:RDF>
  </metadata>
  <title
     id="title9167">Gnome Symbolic Icon Theme</title>
  <defs
     id="defs7386" />
  <path
     id="rect10862"
     d="M 2.0605469,1.019531 C 0.93623681,1.019531 0,1.9557679 0,3.0800779 V 6.8281248 10.970703 12 14.277343 c 0,0.448141 0.36045308,0.742188 0.80859375,0.742188 H 15.191406 C 15.639547,15.019531 16,14.725485 16,14.277343 V 12 h 0.02539 V 3.0800779 c 0,-1.12431 -0.936237,-2.0605469 -2.060547,-2.0605469 H 8.1757812 Z m 7.9492191,2.0742188 h 3.976562 V 4.0214841 H 10.009766 Z M 2.0605469,5.019531 h 6.1152343 5.7890628 c 0.0509,0 0.06055,0.00995 0.06055,0.060547 V 13.019531 H 3 2.8085938 2 v -0.683594 h 0.025391 C 2.0185273,12.293368 2,12.25551 2,12.210937 V 9.955078 6.019531 5.0800779 c 0,-0.0506 0.00965,-0.060547 0.060547,-0.060547 z M 15,12.091797 v 0.11914 c 0,0.01111 -0.0054,0.02025 -0.0059,0.03125 z"
     style="color:#000000;font-style:normal;font-variant:normal;font-weight:normal;font-stretch:normal;font-size:medium;line-height:normal;font-family:sans-serif;text-indent:0;text-align:start;text-decoration:none;text-decoration-line:none;text-decoration-style:solid;text-decoration-color:#000000;letter-spacing:normal;word-spacing:normal;text-transform:none;writing-mode:lr-tb;direction:ltr;baseline-shift:baseline;text-anchor:start;white-space:normal;clip-rule:nonzero;display:inline;overflow:visible;visibility:visible;opacity:1;isolation:auto;mix-blend-mode:normal;color-interpolation:sRGB;color-interpolation-filters:linearRGB;solid-color:#000000;solid-opacity:1;fill:#f1f2f2;fill-opacity:1;fill-rule:nonzero;stroke:none;stroke-width:2;stroke-linecap:butt;stroke-linejoin:miter;stroke-miterlimit:4;stroke-dasharray:none;stroke-dashoffset:0;stroke-opacity:1;marker:none;paint-order:normal;color-rendering:auto;image-rendering:auto;shape-rendering:auto;text-rendering:auto;enable-background:accumulate" />
</svg>
