/* XPM */
static char * linux_xpm[] = {
"32 24 6 1",
" 	c None",
".	c #141313",
"+	c #F1F2F2",
"@	c #BEBFBF",
"#	c #BDBEBE",
"$	c #BDBDBD",
"...............................+",
"...............................+",
"...............................+",
"...............................+",
"...............................+",
"...............................+",
"...............................+",
"..........@#..@#..@#...........+",
"..........#$..#$..#$...........+",
"...............................+",
"...............................+",
"..........@#..@#..@#...........+",
"..........#$..#$..#$...........+",
"...............................+",
"...............................+",
"..........@#..@#..@#...........+",
"..........#$..#$..#$...........+",
"...............................+",
"...............................+",
"...............................+",
"...............................+",
"...............................+",
"...............................+",
"...............................+"};
